<svg width="399" height="378" viewBox="0 0 399 378" fill="none" xmlns="http://www.w3.org/2000/svg">
<path fill-rule="evenodd" clip-rule="evenodd" d="M152.333 253.668C152.52 254.013 152.776 254.315 153.087 254.555C153.397 254.795 153.754 254.967 154.136 255.062C154.517 255.156 154.913 255.17 155.3 255.103C155.687 255.036 156.055 254.889 156.382 254.671C156.416 254.158 156.346 253.643 156.175 253.157C156.004 252.672 155.736 252.226 155.388 251.847C154.747 251.754 154.093 251.885 153.537 252.216C152.98 252.548 152.555 253.061 152.333 253.668Z" fill="white"/>
<path fill-rule="evenodd" clip-rule="evenodd" d="M165.227 270.622C167.033 269.171 168.91 267.839 166.942 265.488C165.447 266.967 164.058 268.489 165.227 270.622Z" fill="white"/>
<path fill-rule="evenodd" clip-rule="evenodd" d="M159.833 244.39C157.184 245.462 157.831 247.079 159.368 248.085C159.856 247.918 160.305 247.653 160.686 247.306C161.068 246.96 161.374 246.538 161.585 246.069C161.079 245.089 160.295 245.343 159.833 244.39Z" fill="white"/>
<path fill-rule="evenodd" clip-rule="evenodd" d="M165.564 253.975C167.537 253.787 168.147 252.436 166.91 250.503C165.937 250.862 165.142 251.585 164.693 252.519L165.564 253.975Z" fill="white"/>
<path fill-rule="evenodd" clip-rule="evenodd" d="M157.518 238.241C158.095 241.261 162.165 240.063 161.46 237.947C160.01 238.384 159.314 236.236 157.518 238.241Z" fill="white"/>
<path fill-rule="evenodd" clip-rule="evenodd" d="M183.211 267.428C183.726 267.462 184.242 267.392 184.728 267.221C185.214 267.051 185.661 266.784 186.041 266.436L184.534 263.917C182.796 264.766 182.463 265.953 183.211 267.428Z" fill="white"/>
<path fill-rule="evenodd" clip-rule="evenodd" d="M176.267 255.817C177.02 257.076 177.738 258.277 178.79 257.756C178.014 256.457 180.629 255.913 178.79 254.313L176.267 255.817Z" fill="white"/>
<path fill-rule="evenodd" clip-rule="evenodd" d="M173.045 246.765C173.991 246.201 174.412 248.246 175.469 247.376C174.704 246.097 177.332 245.571 175.492 243.971C175.137 243.961 174.785 244.03 174.459 244.172C174.134 244.314 173.844 244.526 173.61 244.793C173.376 245.06 173.204 245.375 173.106 245.716C173.009 246.057 172.988 246.415 173.045 246.765Z" fill="white"/>
<path fill-rule="evenodd" clip-rule="evenodd" d="M170.103 236.346C169.176 235.243 170.37 234.691 169.109 233.521C167.62 233.848 165.662 234.375 166.673 236.334C167.891 235.688 168.608 237.423 170.103 236.346Z" fill="white"/>
<path fill-rule="evenodd" clip-rule="evenodd" d="M180.319 249.984C180.764 251.668 181.817 250.88 182.338 252.198C183.757 251.351 183.969 250.051 182.802 248.503C182.309 248.567 181.834 248.731 181.406 248.986C180.979 249.241 180.609 249.58 180.319 249.984Z" fill="white"/>
<path fill-rule="evenodd" clip-rule="evenodd" d="M172.172 232.922C172.05 233.146 171.981 233.395 171.97 233.65C171.959 233.905 172.007 234.159 172.109 234.392C172.212 234.626 172.367 234.833 172.562 234.998C172.757 235.163 172.987 235.281 173.235 235.344C173.483 235.406 173.741 235.411 173.991 235.358C174.241 235.306 174.476 235.196 174.677 235.039C174.879 234.882 175.041 234.681 175.153 234.451C175.264 234.222 175.322 233.97 175.321 233.714C174.698 232.003 173.608 231.745 172.172 232.922Z" fill="white"/>
<path fill-rule="evenodd" clip-rule="evenodd" d="M190.299 256.342C192.025 255.473 192.37 254.306 191.645 252.87C191.131 252.838 190.616 252.912 190.131 253.086C189.647 253.26 189.203 253.531 188.827 253.882L190.299 256.342Z" fill="white"/>
<path fill-rule="evenodd" clip-rule="evenodd" d="M184.599 236.487C183.495 237.412 182.942 236.22 181.77 237.479C182.159 238.129 181.532 238.556 182.164 239.3C183.604 239.964 186.756 238.885 184.599 236.487Z" fill="white"/>
<path fill-rule="evenodd" clip-rule="evenodd" d="M189.032 242.734C188.895 243.875 188.885 245.027 189.001 246.17C190.819 246.661 191.19 245.986 192.036 244.36C191.184 243.293 190.229 242.501 189.032 242.734Z" fill="white"/>
<path fill-rule="evenodd" clip-rule="evenodd" d="M221.934 255.316C219.211 254.834 216.406 255.238 213.931 256.468C211.455 257.699 209.442 259.691 208.186 262.15C209.26 264.527 206.431 268.963 210.883 273.544C217.888 275.242 226.194 268.34 226.401 261.623C224.125 259.829 223.376 256.698 221.934 255.316ZM216.434 270.128C208.475 270.681 209.482 260.203 217.056 260.84C219.666 264.757 216.401 267.078 216.434 270.128ZM220.899 266.104C219.622 263.208 221.933 261.216 219.491 258.027C222.601 258.442 222.769 264.402 220.907 266.207L220.899 266.104Z" fill="white"/>
<path fill-rule="evenodd" clip-rule="evenodd" d="M188.28 162.342C190.217 162.362 192.322 160.919 194.232 160.849C205.147 160.455 210.261 162.746 218.594 154.547C220.992 148.899 220.337 140.159 215.109 136.068C211.827 133.486 200.27 132.047 196.535 131.39C190.371 130.339 181.734 127.613 176.836 129.438C173.909 130.702 171.341 132.671 169.363 135.169C167.385 137.667 166.058 140.616 165.502 143.751C163.771 154.18 179.452 162.292 188.28 162.342ZM216.716 143.359C213.084 142.428 210.635 136.813 206.713 136.962C209.61 135.368 215.085 138.218 216.716 143.359ZM212.503 143.201C212.856 143.791 211.844 144.155 211.28 144.598C212.457 146.566 214.239 145.343 215.37 146.965C209.58 156.958 177.291 160.109 176.08 144.359C183.68 129.256 202.736 135.141 212.468 143.142L212.503 143.201ZM167.639 143.838C169.328 136.424 178.478 129.367 186.04 132.174C180.772 133.739 170.601 141.725 173.57 149.193C176.903 157.538 190.07 157.51 197.406 156.901C204.743 156.291 212.79 154.59 216.959 149.355C214.595 159.575 204.188 157.957 194.903 158.393C190.768 158.589 186.651 159.976 182.783 158.784C176.326 156.841 169.488 152.294 167.639 143.838Z" fill="white"/>
<path fill-rule="evenodd" clip-rule="evenodd" d="M219.119 234.38L221.09 233.205C221.067 232.995 220.992 232.794 220.871 232.621C220.75 232.447 220.587 232.307 220.398 232.213C220.208 232.119 219.998 232.074 219.787 232.082C219.575 232.09 219.369 232.151 219.188 232.259C219.006 232.367 218.855 232.519 218.747 232.701C218.64 232.884 218.58 233.09 218.573 233.301C218.566 233.512 218.613 233.721 218.708 233.91C218.804 234.099 218.945 234.26 219.119 234.38Z" fill="white"/>
<path fill-rule="evenodd" clip-rule="evenodd" d="M217.476 227.164C218.974 226.271 220.551 225.331 219.605 223.839C218.024 224.728 216.066 225.522 217.476 227.164Z" fill="white"/>
<path fill-rule="evenodd" clip-rule="evenodd" d="M231.948 241.122C233.914 240.43 232.722 238.258 231.467 237.992C229.501 238.683 230.713 240.844 231.948 241.122Z" fill="white"/>
<path fill-rule="evenodd" clip-rule="evenodd" d="M221.496 217.879L220.319 215.911L218.348 217.086C218.226 217.31 218.157 217.56 218.146 217.814C218.135 218.069 218.182 218.323 218.285 218.557C218.387 218.791 218.542 218.998 218.737 219.163C218.932 219.328 219.162 219.446 219.41 219.508C219.658 219.571 219.917 219.576 220.167 219.523C220.417 219.47 220.651 219.361 220.853 219.204C221.054 219.047 221.217 218.845 221.328 218.616C221.44 218.386 221.497 218.134 221.496 217.879Z" fill="white"/>
<path fill-rule="evenodd" clip-rule="evenodd" d="M226.03 228.9C226.713 229.774 226.129 230.362 226.694 231.173L229.237 229.657C228.564 227.816 227.299 228.384 226.03 228.9Z" fill="white"/>
<path fill-rule="evenodd" clip-rule="evenodd" d="M224.346 220.318C224.506 220.807 224.767 221.257 225.111 221.64C225.455 222.023 225.875 222.331 226.345 222.543C228.063 221.839 227.314 220.497 226.356 219.119L224.346 220.318Z" fill="white"/>
<path fill-rule="evenodd" clip-rule="evenodd" d="M235.42 230.83C236.173 232.09 236.891 233.29 237.932 232.75C237.579 232.159 238.422 231.737 239.155 231.353C238.082 228.709 236.482 229.343 235.42 230.83Z" fill="white"/>
<path fill-rule="evenodd" clip-rule="evenodd" d="M232.515 213.365C231.431 213.745 230.943 211.632 229.637 213.025C229.386 213.966 229.265 214.936 229.277 215.91C231.469 216.312 232.2 215.342 232.515 213.365Z" fill="white"/>
<path fill-rule="evenodd" clip-rule="evenodd" d="M244.711 234.875C244.385 234.108 245.032 233.535 244.81 232.76C243.714 233.12 242.881 232.442 241.686 233.261C241.246 234.938 243.216 235.819 244.711 234.875Z" fill="white"/>
<path fill-rule="evenodd" clip-rule="evenodd" d="M238.051 220.343C238.747 221.237 238.151 221.805 238.736 222.604L240.707 221.429C240.008 220.618 239.309 219.406 238.051 220.343Z" fill="white"/>
<path fill-rule="evenodd" clip-rule="evenodd" d="M239.099 212.884C238.764 212.29 238.234 211.83 237.598 211.582C236.962 211.333 236.259 211.312 235.609 211.521C235.981 212.634 234.724 213.304 236.122 214.659C237.507 213.486 238.694 214.621 239.099 212.884Z" fill="white"/>
<path fill-rule="evenodd" clip-rule="evenodd" d="M245.491 224.825C241.914 227.785 248.497 229.494 245.491 224.825V224.825Z" fill="white"/>
<path fill-rule="evenodd" clip-rule="evenodd" d="M235.295 172.008C223.17 174.805 218.154 187.567 226.775 192.145C232.159 195.022 239.479 187.722 242.958 182.497C241.708 179.959 242.339 177.527 239.639 176.947C242.389 176.269 236.764 171.827 235.295 172.008ZM225.379 184.088C225.979 181.741 227.485 179.726 229.568 178.484C231.651 177.242 234.142 176.874 236.496 177.459C240.663 184.159 228.362 194.216 225.319 184.123L225.379 184.088Z" fill="white"/>
<path fill-rule="evenodd" clip-rule="evenodd" d="M241.818 217.431C242.395 218.395 241.917 218.894 242.483 219.704C245.189 219.132 243.869 215.808 241.818 217.431Z" fill="white"/>
<path fill-rule="evenodd" clip-rule="evenodd" d="M235.695 142.99C242.786 141.432 250.142 135.044 249.159 128.796C246.218 128.841 245.537 130.474 242.289 132.197C240.399 132.123 236.117 127.868 237.551 125.438C242.73 124.753 247.397 126.162 252.619 125.371C252.236 120.26 253.963 113.891 253.864 110.239C250.499 109.575 247.73 111.787 244.66 107.503C247.569 106.33 244.045 106.028 245.454 104.36C249.232 101.734 255.286 98.9794 257.685 101.874C258.897 100.804 259.728 99.3715 260.056 97.7904C250.795 92.3657 242.164 87.0995 232.426 92.905C218.292 101.598 219.578 125.074 226.582 138.171C229.789 139.196 232.551 141.847 235.695 142.99ZM252.566 96.6229C250.438 99.1461 246.321 98.477 244.484 101.441C243.714 100.512 242.659 100.714 241.789 100.378C239.761 102.308 238.918 104.519 236.383 106.271C238.751 106.968 237.674 112.096 240.925 110.424C240.95 111.851 238.562 112.687 240.767 114.63C242.667 115.66 245.237 113.967 247.733 112.506C248.276 114.398 249.475 113.63 250.428 113.569C251.169 116.598 249.152 118.948 250.819 122.226C243.516 123.43 238.441 121.383 231.808 122.587C230.57 124.125 229.828 126.001 229.679 127.969C232.402 130.376 234.302 131.54 233.904 135.034C237.934 137.971 239.812 132.393 244.212 135.055C241.749 138.179 240.717 138.154 236.437 140.385C211.921 130.066 226.423 79.2908 252.566 96.6229Z" fill="white"/>
<path fill-rule="evenodd" clip-rule="evenodd" d="M256.605 146.969C255.121 146.813 252.238 147.224 253.371 149.565C255.548 149.896 256.27 148.958 256.605 146.969Z" fill="white"/>
<path fill-rule="evenodd" clip-rule="evenodd" d="M264.183 145.869C263.719 145.986 263.333 145.788 263.09 145.159C262.599 145.328 262.148 145.595 261.763 145.944C261.379 146.292 261.069 146.715 260.853 147.187L261.748 148.682C263.741 148.482 263.672 147.428 264.183 145.869Z" fill="white"/>
<path fill-rule="evenodd" clip-rule="evenodd" d="M314.337 222.839C308.104 241.345 341.314 232.892 332.922 220.649C329.2 215.232 320.486 217.785 314.337 222.839ZM316.849 224.759C320.378 222.12 325.986 219.872 329.393 222.752C329.701 228.229 316.926 233.069 316.849 224.759Z" fill="white"/>
<path fill-rule="evenodd" clip-rule="evenodd" d="M266.097 138.561C265.648 136.96 264.491 138.156 263.915 137.192C262.614 137.968 262.682 139.155 262.298 140.212C264.175 140.534 265.202 140.91 266.097 138.561Z" fill="white"/>
<path fill-rule="evenodd" clip-rule="evenodd" d="M271.274 152C271.866 151.647 272.309 152.478 272.693 153.21C274.911 152.448 274.029 150.972 274.039 149.738C272.926 149.307 270.435 150.552 271.274 152Z" fill="white"/>
<path fill-rule="evenodd" clip-rule="evenodd" d="M277.888 159.616L279.395 162.135C282.309 161.599 280.432 157.699 278.607 158.493C278.736 158.977 278.527 159.342 277.888 159.616Z" fill="white"/>
<path fill-rule="evenodd" clip-rule="evenodd" d="M286.48 164.773C285.903 163.809 285.238 163.992 284.791 163.11C284.342 163.483 284.023 163.988 283.88 164.553C283.738 165.118 283.778 165.713 283.996 166.254C285.547 166.611 285.254 165.584 286.48 164.773Z" fill="white"/>
<path fill-rule="evenodd" clip-rule="evenodd" d="M275.202 141.355C274.737 141.472 274.351 141.275 274.109 140.645C273.458 141.14 272.647 141.377 271.831 141.309C272.432 142.313 270.84 142.781 272.003 143.876C273.551 143.648 275.32 143.074 275.202 141.355Z" fill="white"/>
<path fill-rule="evenodd" clip-rule="evenodd" d="M275.814 138.935C275.109 137.219 274.038 136.95 272.666 138.142C273.692 140.44 274.668 140.686 275.814 138.935Z" fill="white"/>
<path fill-rule="evenodd" clip-rule="evenodd" d="M285.783 155.604C286.148 156.214 285.42 156.248 284.778 156.203C285.461 157.077 284.865 157.646 285.442 158.477C285.727 158.531 286.02 158.519 286.299 158.441C286.579 158.363 286.836 158.222 287.052 158.029C287.267 157.836 287.435 157.596 287.543 157.327C287.65 157.058 287.694 156.769 287.671 156.48C286.855 156.994 286.583 155.287 285.783 155.604Z" fill="white"/>
<path fill-rule="evenodd" clip-rule="evenodd" d="M281.073 150.189C281.538 150.072 281.912 150.25 282.186 150.887C284.369 150.066 283.943 148.772 282.651 147.193C282.106 147.53 281.462 147.669 280.827 147.586C282.553 148.773 279.545 148.884 281.073 150.189Z" fill="white"/>
<path fill-rule="evenodd" clip-rule="evenodd" d="M282.179 139.251C279.838 138.779 279.647 141.455 280.321 143.029C282.366 142.157 283.085 140.9 282.179 139.251Z" fill="white"/>
<path fill-rule="evenodd" clip-rule="evenodd" d="M335.217 135.022C336.28 134.788 340.688 135.631 339.583 133.113C329.25 132.065 315.437 149.03 324.973 156.881C324.354 157.889 324.07 159.065 324.16 160.243C324.25 161.421 324.71 162.541 325.475 163.443C326.083 156.86 329.033 147.038 336.625 143.1C340.709 140.985 343.4 143.519 347.593 141.9C346.614 140.921 345.41 140.196 344.085 139.789C342.76 139.383 341.356 139.307 339.995 139.569C331.53 141.198 328.945 151.763 323.113 153.772C322.53 146.403 327.063 140.257 335.217 135.022Z" fill="white"/>
<path fill-rule="evenodd" clip-rule="evenodd" d="M344.99 194.953C346.012 197.2 347.214 198.672 349.079 197.32C343.98 191.924 357.93 186.544 359.627 182.809C355.434 182.639 346.693 189.799 344.99 194.953Z" fill="white"/>
<path fill-rule="evenodd" clip-rule="evenodd" d="M274.294 189.152C276.259 185.15 276.124 180.051 277.057 176.559C284.684 176.39 291.962 170.182 294.857 163.891C306.149 139.939 276.97 116.861 251.68 137.572C248.478 141.697 244.227 146.794 243.577 152.682C245.954 157.058 244.841 159.937 248.078 163.694C245.296 172.054 243.285 195.919 256.081 200.011C263.627 202.48 270.806 196.331 274.294 189.152ZM281.491 133.495C298.995 141.748 296.075 172.589 276.722 174.702C278.168 159.237 259.443 145.812 248.974 160.41C240.466 141.534 266.544 126.388 281.491 133.495ZM263.046 197.887C259.323 199.172 255.276 195.178 252.551 195.227C249.675 188.719 246.785 175.438 250.721 166.951C252.684 173.363 248.478 188.551 256.432 193.714C265.944 199.87 271.378 181.146 271.918 174.897C268.625 172.028 270.276 167.68 267.692 164.388C263.879 159.399 255.346 159.841 251.126 165.348C249.061 154.564 266.117 155.182 270.608 161.261C277.99 171.144 273.854 194.14 263.07 197.926L263.046 197.887ZM267.854 177.267C268.468 183.121 266.383 191.706 258.626 191.659C253.459 186.73 254.992 180.263 253.397 174.913C258.048 176.385 262.187 179.818 267.854 177.267ZM254.848 164.463C258.343 163.421 262.09 163.609 265.462 164.997C266.51 168.403 268.263 172.004 268.071 175.081C261.187 177.61 250.671 171.652 254.848 164.463Z" fill="white"/>
<path fill-rule="evenodd" clip-rule="evenodd" d="M304.837 170.248C297.097 175.637 303.274 190.75 312.394 186.327C318.224 183.465 318.672 174.735 315.669 169.984C311.397 168.34 307.755 168.242 304.837 170.248ZM304.64 177.921C304.409 175.389 308.719 174.101 310.027 172.04C315.168 174.555 307.695 187.366 304.64 177.921Z" fill="white"/>
<path fill-rule="evenodd" clip-rule="evenodd" d="M170.272 225.138C160.217 226.568 149.603 231.802 145.693 239.125C144.454 242.514 143.567 246.021 143.049 249.592C142.663 255.041 143.988 260.476 146.839 265.139C136.79 275.162 128.954 293.85 135.459 306.871C143.434 322.888 171.363 297.693 177.521 286.573C179.316 283.314 178.999 278.671 180.372 275.289C181.167 277.244 182.51 277.031 183.703 277.415C198.479 270.154 204.304 254.32 201.132 244.544C197.372 232.983 183.065 223.278 170.272 225.138ZM164.355 297.867C169.727 289.324 182.655 273.607 172.748 262.721C169.547 259.156 164.56 260.341 159.416 261.085C150.09 267.847 137.237 284.987 138.406 298.253C139.575 311.519 156.028 304.78 163.477 297.696C158.563 305.084 140.406 317.244 136.662 302.043C135.471 297.413 136.474 290.595 137.807 285.581C140.95 273.936 150.282 260.657 164.747 257.212C184.596 262.412 179.36 288.307 164.355 297.867ZM173.505 271.854C173.291 274.091 173.64 276.552 171.877 278.298C165.396 276.181 157.812 278.434 152.801 270.502C157.663 263.251 168.652 257.928 173.408 269.189C172.469 270.123 172.11 268.628 171.278 269.07C171.007 269.406 170.812 269.796 170.706 270.214C170.601 270.631 170.587 271.067 170.667 271.491C171.266 273.029 172.266 272.78 173.505 271.854ZM171.682 279.135C170.461 288.673 160.373 300.107 146.565 303.667C135.748 294.925 144.561 281.181 151.371 272.716C156.983 279.462 164.053 280.373 171.682 279.135ZM180.078 274.797C182.917 256.071 158.686 248.598 149.036 263.135C144.756 259.867 145.622 250.273 145.62 249.42C147.253 229.438 176.891 223.328 190.119 233.196C205.163 246.813 199.995 270.051 180.078 274.797Z" fill="white"/>
<path fill-rule="evenodd" clip-rule="evenodd" d="M283.165 67.4872C277.434 66.5789 274.397 61.7688 269.537 58.4722C264.172 54.9941 258.375 52.2305 252.293 50.2515C246.369 47.7948 240.301 45.6974 234.123 43.9707C231.553 43.4739 227.642 44.0436 224.328 43.6435C211.633 42.1348 197.921 44.7832 182.68 52.0276C180.313 55.6666 178.968 59.8735 178.786 64.2089C178.603 68.5444 179.591 72.8491 181.644 76.6734C174.571 110.898 160.499 142.675 147.88 176.256C147.315 182.495 145.911 188.629 143.707 194.495C137.197 216.157 129.31 236.637 122.568 257.824C121.002 262.762 118.079 267.441 116.288 272.54C110.866 287.84 104.945 302.263 99.8109 317.285C97.1505 326.026 101.904 336.834 113.099 336.06C124.309 332.447 136.637 330.303 147.987 325.539C151.979 323.853 155.068 320.97 159.104 318.911C167.843 314.475 177.7 311.508 187.014 307.05C198.566 301.551 208.822 298.267 221.805 291.808C238.994 283.215 259.894 279.218 279.341 269.84C286.782 266.231 294.294 262.874 300.559 260.607C308.59 257.715 316.054 252.49 324.232 248.549C332.817 244.392 339.611 243.412 346.158 241.617C348.743 240.931 351.929 238.658 355.365 237.517C359.616 236.13 364.333 236.148 367.596 235.031C374.46 232.647 374.669 228.571 379.225 224.653C377.021 220.387 381.165 217.436 381.289 213.171C381.409 208.32 378.498 201.486 376.779 195.303C372.324 179.27 364.973 166.086 356.96 149.558C355.717 146.989 354.927 144.282 353.739 141.894C336.884 107.945 305.963 85.9326 283.165 67.4872ZM187.164 52.6384C187.28 60.9254 184.601 72.8546 194.37 78.4573C190.416 71.1765 183.217 57.261 193.835 50.0226C191.912 58.2974 192.194 72.3595 202.648 79.6894C202.683 76.0375 198.965 74.3824 197.209 70.597C194.243 64.1163 194.982 57.2149 195.56 51.744C197.769 49.8932 199.009 48.1661 202.617 47.5368C201.464 54.5514 200.824 64.9714 206.394 73.3445C207.571 75.3125 209.445 78.7601 211.99 78.2308C205.271 69.6352 201.381 56.737 205.002 48.1708C207.321 46.2809 209.088 46.6424 211.161 45.8605C207.786 55.3745 212.601 68.7896 218.062 78.0549C211.927 80.1373 208.915 80.3314 202.796 82.351C196.45 79.6999 186.784 81.3778 182.813 73.0395C179.999 66.9483 179.655 58.1026 187.164 52.6384ZM191.718 300.028C190.707 301.378 186.213 302.135 183.036 303.842C181.341 304.853 179.943 306.674 178.276 307.374C176.01 308.325 172.72 307.697 170.698 308.475C167.373 309.71 164.87 312.59 161.905 314.384C145.957 324.194 127.973 330.232 109.328 332.035C108.649 331.211 109.189 330.729 109.534 331.217C130.111 329.629 149.624 316.741 170.165 307.404C182.603 301.777 199.517 293.216 212.613 288.958C209.284 290.009 207.124 293.192 204.305 294.606C202.071 295.698 194.805 296.024 191.718 300.028ZM206.984 295.731C208.844 293.475 214.251 289.103 217.728 290.714C213.122 293.967 210.383 293.679 206.984 295.731ZM213.067 288.688C214.798 285.279 218.937 286.923 221.967 284.076C220.941 288.799 216.402 286.887 213.067 288.688ZM243.588 280.076C241.334 280.779 238.642 280.034 236.522 280.871C232.192 282.572 229.532 285.412 225.917 283.75C231.225 277.915 245.343 276.707 252.813 272.52C250.823 276.128 247.52 278.833 243.588 280.076ZM251.861 277.813C256.389 270.228 264.531 274.051 270.774 265.844C273.7 269.439 276.012 264.856 279.249 262.846C275.724 272.69 262.008 272.111 251.896 277.872L251.861 277.813ZM281.003 265.779C279.796 259.29 290.088 254.142 295.345 251.889C295.458 254.224 289.749 259.924 285.576 263.052C284.424 264.3 282.375 264.987 281.097 265.936L281.003 265.779ZM290.928 260.555C292.04 257.944 296.289 256.105 297.853 253.757C298.762 257.647 295.25 259.688 291.023 260.713L290.928 260.555ZM299.936 257.241C299.627 254.756 303.121 251.925 299.621 249.873C302.784 249.261 305.829 248.149 308.641 246.578C307.197 251.117 304.133 254.968 300.03 257.398L299.936 257.241ZM317.789 249.267C316.387 249.649 312.498 251.06 312.449 251.783C310.74 250.132 316.318 246.807 318.5 244.732C319.712 246.759 317.525 247.796 317.907 249.463L317.789 249.267ZM320.531 246.965C319.12 245.456 322.113 245.14 320.53 243.521C323.648 242.759 326.67 241.647 329.538 240.207C328.465 243.196 324.765 244.387 320.648 247.162L320.531 246.965ZM331.549 242.452C330.725 241.074 335.69 237.527 336.615 239.431L331.549 242.452ZM339.651 237.622C342.262 234.812 345.749 232.968 349.544 232.39C347.847 236.393 343.402 236.159 339.768 237.818L339.651 237.622ZM348.321 237.231C349.092 235.759 350.301 234.563 351.782 233.806C353.465 236.754 350.116 236.028 348.439 237.428L348.321 237.231ZM286.827 252.535C276.926 257.263 268.02 262.76 257.817 267.161C248.686 271.03 238.715 273.45 229.009 277.475C208.422 286.064 188.072 296.034 167.926 305.001C159.287 308.844 151.572 314.991 143.041 318.476C139.344 319.986 134.11 320.757 129.598 322.379C119.881 325.849 114.311 329.01 105.955 327.558C98.787 322.994 106.009 305.607 108.75 297.805C112.24 287.902 116.762 279.68 119.705 271.411L129.507 244.209C136.775 223.857 141.581 204.173 149.109 185.241C152.228 166.268 162.14 146.849 168.299 127.907C173.593 111.722 180.312 96.1294 183.15 79.326C198.323 89.5826 217.945 79.3794 235.263 77.0375C246.011 80.8811 251.336 89.8277 261.994 95.3535C269.703 99.3008 275.482 100.02 281.954 111.513C283.637 114.327 283.98 117.941 286.585 120.419C290.519 124.134 297.533 123.209 301.218 125.391C322.249 137.841 315.131 161.574 329.694 181.005C334.123 186.934 338.157 189.655 341.341 196.007C346.493 206.097 344.257 219.257 353.682 227.013C332.738 238.94 309.221 242.228 287.003 252.83L286.827 252.535ZM353.9 233.905C353.736 233.229 354.034 232.117 354.611 232.814C354.828 232.129 354.862 231.4 354.71 230.699C355.474 230.457 356.048 231.103 356.828 230.798C357.746 232.466 355.39 233.177 354.018 234.102L353.9 233.905ZM361.97 232.511C363.948 228.395 370.289 227.551 372.695 227.505C371.037 231.35 366.023 232.311 362.088 232.708L361.97 232.511ZM350.155 140.506C356.204 151.29 361.515 164.596 367.147 176.964C372.779 189.331 377.698 203.859 378.481 215.406C375.543 222.924 367.402 229.833 359.48 226.066C362.353 221.257 369.266 219.805 373.927 218.121C369.706 214.55 361.303 220.307 357.079 225.495C350.823 223.619 351.168 216.819 348.016 210.342C349.172 209.145 349.621 210.746 350.587 210.17C349.712 203.43 359.887 197.15 366.082 194.765C363.166 192.259 356.053 196.953 353.275 199.731C350.913 201.942 349.286 204.822 348.611 207.984C345.346 197.517 333.688 182.361 352.852 176.088C347.722 173.994 340.816 181.582 339.093 186.347C325.314 176.408 322.779 159.07 318.456 143.84C319.002 140.725 320.162 137.749 321.87 135.086C323.577 132.422 325.798 130.124 328.403 128.325C330.271 127.693 331.38 130.128 333.438 128.741C328.927 120.751 316.49 135.321 317.939 140.651C314.957 137.81 315.547 136.337 312.295 132.376C313.309 125.711 318.703 118.277 326.272 117.876C321.755 112.426 309.877 124.98 311.083 130.349C297.413 126.004 307.695 110.289 318.092 111.086C312.734 105.256 302.723 117.579 300.797 123.479C300.031 120.679 295.924 122.486 296.401 120.6C294.281 115.67 299.729 110.74 302.081 108.324C304.052 107.149 308.505 109.006 308.24 106.013C300.739 104.024 292.442 113.803 294.283 120.502C283.122 117.892 284.218 104.076 273.209 96.7569C270.37 94.8718 265.917 94.8035 261.787 92.5935C252.407 87.5066 245.99 76.1952 236.693 74.6897C230.785 73.7535 225.439 76.8871 220.5 77.4821C213.135 65.6144 209.425 54.7175 214.724 46.0055C217.156 45.5696 219.637 45.4743 222.095 45.7223C216.825 52.3352 219.065 69.047 227.795 72.4657C229.338 70.9318 225.424 68.9935 224.277 67.7016C221.116 60.0019 219.765 50.6351 224.519 46.3327C226.614 45.9912 228.341 47.0445 230.274 47.0132C230.092 53.102 229.54 62.6416 233.569 69.6907C234.405 71.0879 235.632 75.2418 238.398 74.367C235.742 70.6112 233.894 66.3462 232.971 61.8414C232.049 57.3365 232.072 52.6898 233.04 48.1944C237.25 47.4995 240.52 50.3289 244.361 51.0288C239.841 58.7164 239.672 73.6345 248.202 78.1063C250.076 76.3216 247.687 74.1152 245.848 74.1703C242.205 65.53 242.083 57.7266 247.29 51.3652L248.467 53.3332C252.704 51.4749 258.74 55.2182 262.913 59.1108C252.6 59.4391 251.298 75.9941 258.01 81.8969C255.95 74.742 252.812 61.7155 266.235 59.8804C295.301 80.0883 329.589 103.884 350.155 140.506Z" fill="white"/>
<path fill-rule="evenodd" clip-rule="evenodd" d="M165.872 205.175C164.071 202.164 158.266 199.03 154.963 200.706C147.935 204.469 149.862 218.778 159.156 221.486C165.91 219.008 169.278 211.047 165.872 205.175ZM154.559 205.752C155.073 205.788 155.59 205.718 156.076 205.548C156.563 205.377 157.009 205.109 157.388 204.76C161.07 206.222 162.935 212.425 159.178 214.639C155.47 214.206 153.69 209.127 154.559 205.752Z" fill="white"/>
<path fill-rule="evenodd" clip-rule="evenodd" d="M185.593 196.835C185.579 193.906 181.599 189.845 185.003 186.908C187.284 191.929 186.279 196.105 187.1 200.742C193.282 202.85 201.047 198.754 208.209 197.048C209.268 193.319 205.908 188.461 206.231 184.531C209.287 187.674 206.16 189.912 210.456 191.596C215.859 185.919 220.723 177.466 213.527 169.234C203.955 158.148 169.592 164.806 162.717 178.169C159.645 184.166 165.259 199.053 173.693 200.993C177.599 199.252 183.112 198.901 185.593 196.835ZM174.62 170.485C179.282 168.266 193.29 165.308 199.375 166.005C203.559 166.538 207.607 167.846 211.309 169.863C216.693 175.063 213.886 180.341 212.183 185.094C208.683 185.098 207.269 179.694 207.345 177.005C205.249 174.037 201.533 177.347 199.472 174.17C195.598 181.82 208.437 185.672 205.513 194.597C201.248 196.55 196.719 197.865 192.07 198.5C190.438 197.737 191.662 196.073 189.868 197.143C190.121 193.094 187.131 188.095 188.383 184.332C186.071 182.747 183.438 182.368 181.436 179.557C176.326 183.084 176.716 188.431 179.896 190.753C177.295 192.037 177.093 194.427 179.472 195.812C176.128 198.313 174.382 197.405 171.096 196.694C163.599 187.468 162.551 176.239 174.62 170.485Z" fill="white"/>
<path fill-rule="evenodd" clip-rule="evenodd" d="M246.198 201.818C233.767 201.914 213.674 202.52 206.746 218.477C202.862 235.904 220.827 249.488 236.599 246.573C241.767 245.601 246.915 240.93 252.954 239.492C263.908 229.73 261.922 206.379 246.198 201.818ZM252.236 208.47C251.013 209.332 246.999 206.6 245.062 204.524C247.723 205.278 250.176 206.627 252.236 208.47ZM236.392 243.946C228.959 245.468 215.531 240.365 211.255 232.902C207.493 226.121 209.536 219.297 213.635 211.62C215.772 212.108 216.119 209.739 218.188 208.906C219.177 210.559 217.926 211.732 219.608 213.559C221.579 212.384 220.067 210.616 220.306 209.004C223.559 207.065 226.573 205.802 229.072 206.448C229.664 206.095 228.953 205.265 228.659 204.639C232.324 204.91 235.763 205.743 239.785 204.867C240.481 205.627 239.956 206.046 239.38 206.47C243.781 205.421 248.325 210.828 253.331 219.511C253.057 231.795 250.935 240.989 236.392 243.946Z" fill="white"/>
<path fill-rule="evenodd" clip-rule="evenodd" d="M266.726 236.14C261.387 238.121 257.704 249.848 264.958 255.001C272.211 260.154 280.727 245.6 277.113 239.558C275.873 238.079 274.243 236.975 272.407 236.372C270.572 235.768 268.605 235.687 266.726 236.14ZM267.087 251.676C266.117 250.79 265.373 249.686 264.917 248.455C264.461 247.224 264.307 245.901 264.467 244.598C264.628 243.296 265.098 242.05 265.839 240.966C266.579 239.881 267.569 238.99 268.725 238.365C269.064 238.638 269.458 238.833 269.881 238.936C270.303 239.04 270.743 239.049 271.169 238.964C273.506 243.898 271.67 249.905 267.087 251.676ZM274.382 246.66C275.299 244.885 273.666 242.468 275.063 240.914C274.98 242.832 276.334 245.095 274.382 246.66Z" fill="white"/>
<path fill-rule="evenodd" clip-rule="evenodd" d="M212.436 104.102C204.782 92.6462 181.557 109.163 194.232 121.816C204.239 131.842 219.054 113.959 212.436 104.102ZM207.731 104.237C210.136 110.092 209.956 116.9 204.662 119.763C193.554 125.691 194.227 101.823 207.707 104.198L207.731 104.237Z" fill="white"/>
<path fill-rule="evenodd" clip-rule="evenodd" d="M309.284 210.767C305.039 209.658 300.986 207.916 297.262 205.6C300.323 201.105 304.448 203.665 306.871 206.733C315.266 194.973 298.85 186.526 289.028 187.229C273.284 194.346 266.358 207.446 270.378 220.293C274.59 234.041 288.816 237.707 299.357 229.714C296.872 226.497 294.164 224.16 291.781 220.535C296.546 220.364 298.962 224.717 302.698 224.972C305.931 222.911 303.733 219.549 304.513 217.723C305.292 215.897 309.078 214.894 309.284 210.767ZM302.038 220.426C297.559 219.963 293.223 218.587 289.298 216.382C288.028 217.195 286.965 218.292 286.193 219.586C285.421 220.88 284.962 222.336 284.852 223.838C285.453 224.062 285.955 224.491 286.271 225.048C289.016 222.931 292.503 229.342 294.756 228.906C263.297 239.973 267.458 188.048 293.905 189.66C298.323 191.592 307.469 193.828 306.429 201.389C301.605 200.074 293.795 199.044 291.656 205.392C295.75 209.599 301.185 208.494 305.402 212.28C303.806 214.83 302.661 217.635 302.018 220.572L302.038 220.426Z" fill="white"/>
<path fill-rule="evenodd" clip-rule="evenodd" d="M357.907 208.503C355.388 210.65 353.498 213.437 352.436 216.57C352.772 217.315 353.375 217.907 354.126 218.232C356.18 216.794 355.773 214.1 357.872 211.887C361.921 207.658 367.414 207.32 370.725 203.557C367.494 202.893 361.247 205.951 357.907 208.503Z" fill="white"/>
</svg>
