<svg width="376" height="334" viewBox="0 0 376 334" fill="none" xmlns="http://www.w3.org/2000/svg">
<path fill-rule="evenodd" clip-rule="evenodd" d="M228.67 178.128C228.175 176.32 227.738 173.368 227.315 170.434C227.414 170.159 227.571 169.908 227.775 169.699C227.98 169.49 228.227 169.328 228.5 169.223C228.774 169.117 229.066 169.072 229.358 169.09C229.65 169.108 229.935 169.188 230.193 169.326C227.251 171.892 231.987 174.141 230.094 177.572C229.381 177.062 229.034 177.588 228.67 178.128Z" fill="white"/>
<path fill-rule="evenodd" clip-rule="evenodd" d="M234.133 165.808C233.517 167.012 233.207 168.349 233.23 169.701C233.253 171.053 233.608 172.379 234.265 173.562C233.668 174.2 233.011 174.547 232.349 175.067C232.182 172.1 229.174 165.959 234.133 165.808Z" fill="white"/>
<path fill-rule="evenodd" clip-rule="evenodd" d="M276.857 92.0412C280.045 92.9719 281.758 97.3994 281.904 100.805C279.027 99.9114 277.726 95.0759 276.857 92.0412Z" fill="white"/>
<path fill-rule="evenodd" clip-rule="evenodd" d="M265.768 74.1108C264.466 71.9229 265.701 66.869 266.781 65.0905C270.118 67.2841 267.189 73.0505 265.768 74.1108Z" fill="white"/>
<path fill-rule="evenodd" clip-rule="evenodd" d="M241.019 61.3966C242.552 60.192 243.405 60.8452 244.68 62.4626C244.486 62.8807 244.148 63.2155 243.728 63.4062C243.308 63.5969 242.833 63.6309 242.39 63.5019C241.947 63.3729 241.565 63.0895 241.313 62.7032C241.062 62.3169 240.957 61.8533 241.019 61.3966Z" fill="white"/>
<path fill-rule="evenodd" clip-rule="evenodd" d="M230.812 65.8403C228.815 63.5225 224.816 64.4967 221.38 61.6768C222.135 60.5331 223.227 59.6509 224.505 59.1511C225.782 58.6513 227.184 58.5583 228.516 58.885C229.232 57.2522 227.948 56.3745 229.278 54.4839C230.12 54.8362 230.945 55.2023 231.769 55.5682C231.939 54.0993 232.549 52.716 233.521 51.6002C235.451 53.1535 236.148 52.606 237.788 54.0776C236.896 56.5247 237.355 55.8543 236.515 58.2603C250.175 51.863 274.206 60.9464 279.662 74.8812C294.463 61.7009 308.192 45.7297 322.3 30.8123C322.81 31.7416 323.427 32.6083 324.138 33.3949C310.744 46.9631 296.157 65.8897 281.447 81.6182C281.113 82.6974 283.602 82.7412 283.487 83.7047C284.868 103.348 291.052 127.33 279.425 150.691C276.494 156.599 273.569 164.446 270.031 167.902C269.134 168.804 269.676 168.632 268.809 167.962C264.421 182.113 250.425 198.604 236.658 205.902L235.558 208.372C216.088 218.743 192.47 219.701 168.935 214.002C153.434 229.873 142.581 242.514 126.826 260.781C126.359 260.684 125.916 260.493 125.525 260.219C125.134 259.945 124.804 259.593 124.554 259.187C123.298 259.132 123.344 262.447 122.013 262.226C120.169 260.352 122.113 255.698 117.595 256.122C113.741 261.967 123.869 266.513 126.452 262.99C128.237 263.25 126.395 264.922 127.78 265.355C130.584 263.687 129.511 261.432 130.139 258.685C132.746 259.452 132.278 261.398 134.437 262.348C133.496 266.271 131.238 266.806 129.108 267.719C115.249 284.92 96.9644 301.232 83.6782 319.446C77.0632 325.011 66.4888 324.336 64.9479 314.76C67.1194 308.86 70.5149 303.485 74.9119 298.987C84.8923 287.708 98.0886 275.141 107.53 264.144C110.625 260.086 113.929 256.192 117.43 252.477C117.495 255.243 120.505 254.23 122.236 256.39C135.139 242.842 150.662 225.461 161.966 212.212C147.459 204.545 139.411 194.336 141.742 180.224C137.687 178.087 132.935 179.287 130.435 177.619C130.885 176.758 130.276 176.308 130.809 175.41C130.661 174.005 133.742 173.583 135.313 173.25C135.148 172.253 132.992 167.695 136.585 169.068C137.107 167.081 135.061 166.097 136.576 163.724C137.251 163.858 137.883 164.158 138.412 164.598C138.941 165.039 139.352 165.604 139.606 166.243C140.852 166.25 141.019 163.527 142.462 163.998C145.923 165.954 144.272 169.871 146.523 172.298C149.102 171.99 150.871 169.333 152.829 167.343C164.007 161.376 181.754 166.891 195.876 172.101C205.374 165.397 213.141 151.633 220.135 145.404C220.518 145.103 221.509 145.394 221.139 145.854C222.606 144.138 226.789 137.921 230.743 133.49C235.155 128.53 240.819 124.98 239.809 119.691C236.893 104.041 223.126 89.512 228.708 70.9013C229.812 69.4106 230.534 67.6732 230.812 65.8403V65.8403ZM77.5357 302.53C71.7056 308.661 64.9224 314.048 70.5697 319.637C88.7292 303.31 103.418 282.867 119.809 266.014C117.19 266.27 116.676 263.829 114.785 262.611C103.209 275.624 90.104 289.273 77.5357 302.53ZM99.8565 291.017C98.4627 291.718 94.7006 296.392 95.7189 296.324C96.7793 294.449 99.9787 292.639 99.8428 290.999L99.8565 291.017ZM115.247 277.654C112.175 280.914 107.169 285.299 105.844 289.522C108.544 285.147 113.836 281.805 115.233 277.637L115.247 277.654ZM107.735 266.659C109.338 266.187 108.107 265.663 107.225 266.44C105.634 270.506 102.65 270.908 100.809 274.298C103.208 273.906 105.33 270.013 107.649 266.585L107.735 266.659ZM122.079 270.539C121.343 271.681 117.643 274.645 119.118 274.584C119.629 272.943 122.696 272.11 121.965 270.431L122.079 270.539ZM121.91 266.926C121.122 268.503 118.059 269.699 118.703 271.446C119.37 269.823 122.433 268.627 121.789 266.88L121.91 266.926ZM162.544 216.63C152.511 227.95 140.138 238.913 132.094 251.826C141.632 239.485 154.053 228.654 162.423 216.584L162.544 216.63ZM166.11 213.997C164.695 212.631 162.933 215.62 163.801 216.543C164.618 216.183 164.969 214.302 165.954 213.978L166.11 213.997ZM225.973 169.77C223.973 173.567 228.769 176.895 225.731 179.733C223.393 177.627 224.664 174.122 223.386 171.606C218.564 174.578 225.868 180.301 221.141 181.819C220.459 179.201 220.01 176.484 219.293 173.893C218.353 175.026 216.839 174.61 215.98 175.989C216.217 178.165 216.246 180.358 216.067 182.54L213.576 181.455C215.594 180.151 212.531 177.911 214.427 175.379C212.374 175.387 209.944 174.451 208.624 176.39C208.911 176.965 209.069 177.595 209.088 178.237C209.107 178.879 208.986 179.517 208.733 180.107C206.879 178.184 207.21 181.754 205.576 180.504C203.177 179.572 205.131 176.826 202.92 175.775C198.354 179.645 194.498 186.562 192.111 190.691C189.146 190.937 183.333 190.041 184.103 185.972C188.391 183.897 191.261 178.234 195.007 174.755C178.555 167.377 154.075 160.872 144.375 179.592C143.098 181.598 142.535 183.975 142.777 186.34C143.019 188.705 144.051 190.919 145.708 192.627C147.755 192.933 149.378 192.165 151.522 192.845C150.699 195.379 148.883 195.258 146.74 194.294C147.001 198.99 152.244 195.264 154.845 196.093C154.612 196.585 154.991 196.851 154.89 197.296C153.53 199.435 150.867 198.205 148.899 198.822C151.333 202.767 156.787 200.453 159.632 198.837C159.198 199.826 160.646 200.124 159.754 201.247C157.809 203.002 154.982 202.35 152.805 203.526C156.183 205.377 161.452 203.293 164.353 200.281C166.967 204.17 159.258 206.2 156.377 206.267C160.178 209.871 164.803 206.828 168.569 206.882C170.361 206.149 170.938 202.373 173.538 203.738C171.447 208.958 167.266 208.807 163.614 210.043C170.539 214.319 175.148 206.782 181.705 206.726C179.438 210.113 176.015 210.494 173.236 212.48C181.216 216.518 184.586 207.589 189.485 206.612C188.901 211.38 184.105 211.882 181.393 214.238C187.198 216.127 189.447 208.782 194.224 208.042C193.947 211.949 190.338 212.56 188.298 214.839C194.387 216.335 197.961 211.386 202.077 207.841C203.984 211.441 198.92 213.139 196.603 214.96C202.247 217.002 207.014 212.636 208.68 207.807C212.193 210.116 208.814 210.518 207.828 213.884C212.642 214.945 213.3 205.331 217.32 204.453C217.626 208.241 213.827 209.648 214.094 213.1C215.484 212.574 216.988 212.421 218.456 212.658C222.505 209.814 220.323 205.078 223.835 203.164C224.95 205.329 222.655 208.823 222.544 211.473C228.493 210.825 227.319 204.397 229.068 200.713C229.56 203.734 231.65 206.457 229.197 208.498C234.732 208.542 235.246 199.604 237.194 197.172C238.461 199.387 238.469 200.507 236.478 202.776C243.089 202.538 239.358 191.078 242.981 189.555C243.863 192.213 242.1 195.88 243.885 198.251C248.507 193.38 242.736 187.24 247.319 183.751C248.363 187.043 247.122 191.229 248.561 194.379C252.308 190.758 249.133 182.974 252.056 181.099C254.739 183.215 251.318 187.678 253.453 190.028C258.564 185.561 252.844 180.31 255.725 176.807C257.556 177.734 256.025 179.979 257.404 181.121C258.901 178.367 254.998 174.168 258.481 173.29C258.637 175.619 259.244 177.897 260.269 179.996C265.43 176.701 258.915 167.794 261.793 164.716C264.043 167.285 263.103 171.066 264.909 173.786C268.541 168.482 264.329 163.568 265.343 157.983C268.804 159.798 266.671 163.783 268.907 166.082C273.797 159.761 265.178 156.057 270.321 153.564C270.587 155.621 271.35 157.583 272.544 159.281C274.032 153.69 268.48 149.152 271.63 145.24C274.724 147.626 272.278 151.716 275.008 155.035C279.404 147.158 277.13 141.876 274.856 136.594C276.385 135.814 275.868 136.446 277.763 136.703C277.569 139.49 278.49 142.241 280.323 144.352C279.887 138.752 276.745 132.011 277.078 127.496C280.96 130.811 279.683 136.096 281.582 140.152C282.517 137.473 281.487 135.523 283.152 132.553C278.885 129.681 278.202 123.233 278.648 119.897C281.757 122.411 280.79 128.663 283.761 129.962C286.556 120.696 279.263 117.78 279.854 109.261C282.507 110.837 281.767 113.728 283.559 115.643C285.302 110.697 279.991 105.069 284.348 101.758C282.525 95.8673 282.855 89.1298 279.122 84.0366C277.097 88.4449 275.081 87.2124 274.61 91.5535C272.86 93.1262 266.333 92.0031 265.936 88.3153C271.105 85.6717 275.389 81.5806 278.264 76.543C276.353 75.2283 276.764 79.7215 274.691 77.9147C275.55 76.6527 275.911 75.1179 275.703 73.6062C275.496 72.0944 274.735 70.7127 273.568 69.7277C273.139 72.2404 272.103 74.611 270.55 76.6342C269.901 76.3837 269.564 76.9582 268.817 76.4753C270.157 73.692 271.243 70.7934 272.06 67.8148C269.159 65.5282 266.135 63.4008 263.002 61.4421C261.904 63.2342 263.118 67.3501 262.656 70.1635C262.021 69.9304 261.698 70.5223 260.954 70.0083C260.82 67.2974 260.163 62.7435 261.474 60.756C258.858 60.5867 258.169 58.8184 256.075 59.5623C257.425 60.9521 256.059 63.4058 256.578 65.1381C255.113 65.2475 255.689 64.6541 253.831 64.4805C255.248 62.1274 253.818 60.8857 253.822 59.1367C252.415 58.3548 251.796 59.5735 250.39 58.7916C249.287 61.2923 253.115 63.6073 251.185 65.0956C250.074 64.4139 249.194 63.414 248.66 62.2261C248.126 61.0383 247.963 59.7174 248.191 58.4355C244.576 58.8319 241.039 59.7603 237.697 61.1904C237.509 65.6754 234.47 65.6134 233.18 67.5561C232.126 69.2524 231.312 71.0862 230.762 73.0053C226.504 88.716 239.827 105.651 242.314 120.793C243.672 121.443 243.684 120.42 244.308 121.676C242.926 127.831 246.093 132.243 248.205 137.033C247.791 137.724 246.825 136.963 246.01 136.646C243.712 140.423 249.326 141.138 247.841 144.586C246.157 144.275 246.245 143.277 245.089 142.777C242.81 146.399 248.421 147.003 247.138 150.208C245.777 150.771 245.261 149.543 244.154 148.891C243.415 151.782 246.464 153.216 246.436 155.829C243.283 155.801 243.068 154.026 242.124 152.148C241.531 154.473 240.052 154.566 239.428 156.887C240.274 159.013 241.849 160.77 243.872 161.844C243.405 163.112 242.952 164.256 241.782 163.881C240.219 162.292 239.5 160.378 238.118 158.733C235.132 164.177 239.103 170.717 236.403 173.375C235.116 169.815 234.758 165.986 235.362 162.25C232.946 165.537 229.695 168.121 225.945 169.735L225.973 169.77ZM141.633 176.508C142.532 173.605 143.628 171.56 141.997 168.955C140.475 170.602 138.575 172.63 138.867 174.682C138.146 176.093 134.055 174.267 135.075 176.563C137.01 176.226 139.479 176.961 141.518 176.542L141.633 176.508ZM219.405 149.667C212.358 157.796 204.219 166.473 196.588 175.794C193.613 179.428 188.015 184.672 189.345 188.077C198.632 175.99 210.767 162.398 219.291 149.701L219.405 149.667ZM242.027 129.411C230.911 144.259 215.739 157.899 205.221 173.685C225.415 175.897 248.122 150.561 241.913 129.445L242.027 129.411ZM227.722 140.286C226.301 143.206 220.616 145.871 221.773 148.341C223.298 145.481 227.461 143.533 227.608 140.32L227.722 140.286ZM232.555 134.714C230.827 136.232 229.278 137.941 227.938 139.807C229.974 139.277 232.953 136.007 232.44 134.748L232.555 134.714ZM275.068 85.3353C281.158 78.7469 286.881 72.5877 290.772 67.3611C282.971 74.928 276.761 81.4705 269.721 89.5377C271.888 90.0318 273.434 87.1267 275.068 85.3353ZM234.211 55.4804C232.77 58.5557 231.214 59.1586 230.438 61.4303C228.657 60.3517 227.245 60.2783 226.291 61.3941C228.841 62.5169 229.886 62.0897 231.766 63.7947C231.192 60.669 235.895 57.9029 234.211 55.4804ZM295.435 63.4713C293.931 62.8511 291.604 65.553 292.183 66.7881C293.327 65.7428 294.413 64.6355 295.435 63.4713V63.4713Z" fill="white"/>
</svg>
