<svg width="319" height="429" viewBox="0 0 319 429" fill="none" xmlns="http://www.w3.org/2000/svg">
<path fill-rule="evenodd" clip-rule="evenodd" d="M211.458 328.285C214.675 326.286 219.471 323.628 218.518 320.001C206.222 331.006 183.759 340.749 163.156 344.284C162.678 343.604 162.367 344.68 162.44 345.227C176.758 344.605 198.31 336.487 211.458 328.285Z" fill="white"/>
<path fill-rule="evenodd" clip-rule="evenodd" d="M216.165 316.449C216.517 317.147 215.294 319.534 217.122 318.346C220.648 314.33 225.109 310.741 224.861 305.48C220.924 306.853 220.985 312.814 217.545 315.665C216.563 314.162 219.273 313.876 217.536 312.124C200.07 326.828 182.155 335.07 160.514 340.203C173.726 342.157 201.436 327.487 216.165 316.449Z" fill="white"/>
<path fill-rule="evenodd" clip-rule="evenodd" d="M196.332 341.835C187.159 345.929 176.828 347.15 168.388 349.934C168.084 350.222 168.058 350.616 168.4 351.117C183.662 348.775 198.352 343.606 211.712 335.876C220.407 330.832 228.93 325.449 230.353 317.53C226.765 318.481 226.56 322.443 223.972 324.889C217.544 331.172 206.096 337.442 196.332 341.835Z" fill="white"/>
<path fill-rule="evenodd" clip-rule="evenodd" d="M226.148 329.202C218.987 336.931 206.103 342.936 195.172 347.735C188.168 350.471 180.644 351.624 173.14 351.112C172.567 351.401 172.101 351.814 172.66 352.521C178.052 351.404 185.402 353.454 193.034 350.582C207.195 345.237 223.814 335.851 229.465 327.535C230.762 325.649 232.587 323.296 232.294 321.378C228.505 321.174 228.35 326.839 226.148 329.202Z" fill="white"/>
<path fill-rule="evenodd" clip-rule="evenodd" d="M117.897 168.642C114.576 172.264 110.887 175.779 107.269 179.302C111.307 178.305 117.349 175.089 117.897 168.642Z" fill="white"/>
<path fill-rule="evenodd" clip-rule="evenodd" d="M113.694 190.884C117.4 188.203 120.534 184.812 122.913 180.909C118.046 180.483 116.981 188.222 112.98 189.47L113.694 190.884Z" fill="white"/>
<path fill-rule="evenodd" clip-rule="evenodd" d="M114.093 159.895C110.839 161.778 105.704 168.353 105.586 171.285C108.336 169.027 114.375 164.466 114.093 159.895Z" fill="white"/>
<path fill-rule="evenodd" clip-rule="evenodd" d="M197.749 244.629C193.651 236.502 190.785 226.094 185.814 217.44C180.284 207.811 167.977 195.439 161.61 191.728C151.323 185.679 135.256 190.187 128.901 180.928C127.558 178.977 128.13 178.241 127.685 176.198C126.802 175.25 125.03 177.084 124.7 174.736C121.799 164.526 112.618 156.126 108.255 143.329C107.667 141.583 108.19 139.277 107.538 137.182C106.098 132.632 101.993 128.906 101.336 124.883C98.4587 126.621 95.3623 123.734 91.8463 124.918C86.7248 126.662 75.7443 136.176 74.368 138.439C72.3607 139.807 67.9687 135.911 68.6807 140.131C65.8013 144.271 75.5137 150.16 75.1149 155.252C76.8343 155.61 78.5074 156.162 80.1022 156.897C89.1694 169.707 93.107 181.304 100.816 193.249C102.39 200.828 99.5131 205.73 96.8351 211.25C95.2639 214.464 93.0898 217.194 91.8863 220.245C87.3138 232.215 89.7454 247.868 97.2109 262.583C124.257 315.904 147.666 356.4 172.24 405.488C175.45 407.26 178.271 409.657 180.538 412.537C195.342 415.911 214.715 412.165 230.75 402.691C234.578 400.43 239.338 398.015 243.057 395.316C251.515 389.179 261.575 374.989 259.827 366.174C259.099 362.635 256.813 360.463 255.313 357.223C238.326 321.129 217.098 284.024 197.749 244.629ZM100.035 128.499C102.184 132.76 104.149 135.811 105.515 139.365C104.176 139.073 104.905 139.672 103.614 140.321C102.812 135.877 98.1513 132.296 100.017 128.463L100.035 128.499ZM96.7203 127.809C96.8048 129.135 94.4271 129.68 94.1163 130.891C92.1493 130.6 96.104 128.949 94.8253 127.572C90.8107 127.054 90.9808 133.319 86.7842 135.16C87.934 132.136 92.1209 123.591 96.7022 127.773L96.7203 127.809ZM101.006 138.67C101.207 140.05 103.979 142.292 101.969 142.943C101.245 140.704 99.4636 139.355 100.988 138.634L101.006 138.67ZM99.3653 145.98C96.8818 140.698 96.1842 138.423 93.6296 133.447C96.7164 136.091 100.63 142.247 99.3653 145.98ZM98.4093 147.65C97.7199 148.333 95.7507 147.236 96.0425 148.839C95.1094 145.83 91.0977 139.88 91.0403 135.354C94.5117 137.514 95.319 143.705 98.4093 147.65ZM94.6259 149.551C89.4904 152.739 88.6708 138.856 84.8721 138.455C84.8672 136.707 86.9811 138.18 88.1893 136.787C91.7858 141.958 91.1812 147.311 94.6259 149.551ZM81.3136 137.281C82.3574 134.894 83.2033 132.382 86.2779 130.634C85.9911 132.039 85.3975 133.363 84.5394 134.511C83.6813 135.66 82.5799 136.606 81.3136 137.281ZM89.426 152.165C86.8056 149.331 80.8004 143.216 83.696 138.44C85.883 143.624 89.9101 148.668 89.426 152.165ZM80.8826 134.02C80.2468 135.688 79.0807 137.102 77.563 138.044C77.6405 137.114 77.9956 136.228 78.5825 135.501C79.1695 134.774 79.9612 134.239 80.8555 133.966L80.8826 134.02ZM69.9962 141.848C73.3789 141.157 76.2898 141.893 79.9396 140.395C81.7893 144.611 84.0213 148.65 86.6078 152.46C77.5462 157.89 73.38 148.024 69.9691 141.794L69.9962 141.848ZM93.9625 247.005C97.6412 246.188 100.652 247.434 104.135 247.21C103.2 243.483 97.1099 245.58 93.8663 244.675C92.821 243.27 93.0787 242.31 92.6803 241.119C96.3523 241.136 99.8651 241.996 103.581 241.564C99.9861 237.066 90.5383 242.443 92.6607 234.038C95.5861 233.51 97.4342 236.284 100.938 234.006C98.962 230.355 92.9039 234.342 92.4071 230.014C95.6379 229.557 99.8996 231.768 102.363 229.745C99.9836 226.453 95.4504 229.943 92.8668 227.405C93.6316 224.776 98.0144 225.356 99.7425 226.91C100.009 226.63 100.211 226.294 100.333 225.926C100.454 225.558 100.493 225.168 100.446 224.784C98.4115 222.89 94.8496 223.715 93.5726 222.921C94.9191 219.619 99.0868 223.605 100.676 220.517C99.5659 218.315 97.3516 219.45 95.4487 219.599C95.4627 214.947 100.665 219.737 102.318 216.73C101.234 214.581 98.8594 216.067 97.5799 214.376C99.3473 213.914 98.6345 212.635 99.2336 211.772C99.9676 211.977 100.741 211.997 101.485 211.831C102.228 211.665 102.919 211.317 103.495 210.82C102.961 209.225 102.018 208.914 100.638 209.877C102.96 205.568 103.314 200.521 104.837 195.918C98.2181 185.512 89.3621 167.95 83.4029 155.776C88.8453 156.406 93.0724 152.666 99.0181 150.283C98.1278 152.975 93.7781 154.6 93.1215 157.399C98.9669 154.46 103.45 149.177 106.834 145.771C106.301 148.498 105.178 151.076 103.546 153.327C101.913 155.577 99.8096 157.446 97.3809 158.803C102.225 160.654 106.306 152.746 108.255 149.791C110.99 154.902 102.411 159.685 98.8138 164.007C103.144 164.927 108.769 157.006 111.354 153.575C110.803 159.035 105.427 162.904 100.968 167.075C105.785 168.693 109.982 160.525 112.792 157.586C114.313 159.335 115.518 161.333 116.355 163.492C112.65 167.599 110.544 172.337 105.491 176.044C105.779 176.393 106.201 176.293 106.444 176.777C110.973 174.837 114.477 169.171 117.312 165.39C117.741 167.31 118.641 169.094 119.93 170.582C116.618 173.952 116.001 178.211 110.235 180.773C114.231 184.24 116.669 176.462 120.89 173.644C122.603 176.149 118.809 177.496 117.592 178.87C115.703 180.919 113.779 183.21 112.384 185.034C115.79 186.172 119.066 179.431 122.56 176.956L126.37 184.511C124.746 184.901 125.387 186.038 123.754 186.41C124.181 185.028 125.177 184.774 123.521 183.587C120.655 187.359 117.089 190.546 113.016 192.974C116.126 194.238 120.172 189.781 122.484 188.215C121.952 190.726 117.583 191.867 117.285 194.396C121.934 194.034 123.864 187.431 127.696 186.784C127.362 192.45 121.591 196.338 117.572 200.849C123.243 199.614 128.823 191.738 131.278 186.846C133.837 190.048 137.696 189.723 141.04 190.915C142.211 192.346 139.644 192.604 140.096 193.768C141.879 195.655 142.644 193.205 143.897 191.857C145.809 191.772 143.758 193.588 143.895 194.215C144.415 194.457 144.833 194.875 145.074 195.395C147.649 194.617 146.714 191.204 149.823 191.841C150.286 193.964 148.593 195.376 147.682 197.046C151.497 199.886 150.535 193.031 154.141 192.026C157.289 194.034 153.03 195.794 153.692 198.177C157.195 199.063 156.291 193.437 158.662 193.905C160.897 196.821 156.427 200.392 155.843 203.603C158.326 205.406 160.32 199.108 159.852 198.626C160.722 197.928 161.515 197.138 162.215 196.271C162.606 197.892 163.985 196.526 164.357 198.156C162.263 200.421 162.618 205.359 159.324 206.004C163.466 210.071 163.397 201.377 167.128 200.309C170.052 205.571 164.25 207.971 162.887 211.91C166.472 212.868 167.76 204.771 171.647 204.545C171.051 209.736 165.629 213.337 164.332 218.297C169.158 216.724 169.535 210.296 174.267 207.379C173.241 212.832 169.618 217.413 165.536 221.843C171.327 221.738 173.037 213.585 176.87 210.222C177.658 212.631 179.042 213.192 179.972 215.17C173.779 215.815 172.645 224.441 168.166 228.218C168.571 228.531 169.003 228.852 169.577 228.698C160.021 240.234 141.696 246.461 123.212 253.172C113.606 256.676 101.405 259.892 95.7293 252.781C99.1229 252.781 105.299 255.937 107.345 252.283C102.834 250.691 95.6129 252.907 93.9625 247.005ZM180.815 218.135C176.786 222.135 175.276 224.667 170.663 228.579C172.437 223.895 177.059 220.18 179.633 215.79C180.718 215.312 179.619 217.278 180.815 218.135ZM148.766 354.523C148.258 352.849 147.332 352.484 146.629 351.446C151.221 349.587 158.291 351.216 161.054 347.157C155.464 345.299 148.373 352.051 144.49 347.203C148.483 343.131 155.503 346.312 159.398 342.671C155.079 342.351 146.756 342.294 143.999 345.071C142.509 343.519 141.373 341.663 140.671 339.63C144.422 338.957 150.156 341.146 152.506 337.249C148.513 337.753 142.908 336.846 140.189 337.516C138.824 337.26 138.358 334.286 137.09 333.733C141.658 332.896 149.338 334.533 152.255 330.868C146.869 330.859 141.487 331.188 136.143 331.854L134.454 328.506C137.465 326.499 145.813 329.057 148.413 324.452C142.987 323.364 135.229 329.508 131.593 322.831C136.256 321.025 143.373 323.327 146.029 319.726C140.869 319.333 135.678 319.746 130.645 320.951L128.018 315.742C131.653 315.552 139.008 316.142 140.325 311.934C136.105 311.811 128.02 316.638 124.93 309.619C128.869 308.515 135.042 310.595 137.241 306.977C133.218 306.755 127.166 306.431 123.973 307.722C121.905 306.517 122.135 305.1 120.88 302.746C124.345 302.665 129.498 302.364 132.481 299.9C128.831 298.099 123.096 302.014 118.735 299.696C117.392 297.925 118.242 296.892 117.071 295.192C121.386 294.032 124.615 296.246 129.625 293.033C128.148 291.396 126.389 291.787 125.11 293.529C123.724 292.206 118.985 292.748 115.879 292.829L113.739 288.586C118.012 288.144 125.03 290.562 126.05 285.943C121.093 285.428 114.658 289.426 111.356 283.86C116.03 282.61 122.888 285.558 126.028 281.22C121.43 281.017 116.558 282.053 112.282 281.016C111.26 281.529 110.974 282.167 111.579 283.142C109.126 282.512 109.747 280.001 108.01 278.428C112.876 278.226 117.17 279.389 122.694 276.971C118.271 274.707 112.279 276.686 107.062 276.548C107.092 274.289 105.69 273.827 104.914 272.288C109.654 272.149 115.656 273.889 120.082 270.587C115.096 269.615 109.64 270.338 104.201 270.873C104.896 269.088 101.873 266.927 102.302 265.904C106.433 266.609 112.595 267.462 116.742 263.964C112.03 264.425 104.529 262.832 101.574 265.664L99.9217 262.388C103.616 262.848 107.358 262.759 111.027 262.124C109.32 258.74 100.73 262.654 98.73 260.025C101.328 258.135 104.925 260.276 108.686 259.755C113.517 258.998 118.269 257.796 122.879 256.166C145.983 247.784 169.668 238.773 182.732 219.573C185.223 224.514 175.852 231.513 174.729 237.8C179.696 235.303 181.085 228.12 185.599 224.056C186.472 231.179 178.978 235.529 178.045 242.057C182.109 238.294 185.248 233.644 187.218 228.47C189.042 228.833 187.853 230.889 189.372 231.539C185.958 236.219 182.879 241.134 180.157 246.247C184.281 244.174 187.695 238.508 189.614 234.38C199.489 244.114 187.737 250.313 187.069 258.75C190.414 257.494 192.516 248.337 196.038 245.961C199.902 253.623 189.523 259.783 186.857 266.575C190.587 264.835 195.343 257.508 198.419 253.044C200.733 265.345 183.76 276.256 173.401 283.392C179.583 281.232 185.251 277.819 190.05 273.368C194.848 268.917 198.674 263.524 201.286 257.527L203.507 261.931C202.944 261.818 202.359 261.899 201.847 262.16C200.219 274.086 186.342 284.898 177.042 291.817C190.181 286.671 201.513 274.468 203.501 263.123C205.568 263.7 204.365 266.796 206.369 267.606C202.613 269.696 201.059 275.795 198.816 279.683C202.834 278.246 203.833 272.426 207.317 269.486C207.006 270.831 207.624 270.094 208.274 271.383C203.563 285.218 190.344 296.845 174.23 303.89C190.786 301.065 205.098 285.277 209.469 274.956C211.475 276.573 211.067 278.125 212.815 280.388C211.774 280.732 211.081 280.07 210.201 279.929C208.938 284.379 204.854 287.868 204.787 292.726C196.707 300.222 188.093 307.124 179.015 313.378C189.392 309.889 201.097 299.226 210.227 289.386C208.718 285.858 211.585 283.789 212.565 281.097C214.443 281.567 213.256 284.34 215.198 285.114C215.01 285.05 214.812 285.023 214.614 285.037C214.416 285.05 214.223 285.103 214.046 285.192C213.869 285.281 213.711 285.404 213.582 285.555C213.454 285.706 213.357 285.881 213.297 286.07C212.638 291.091 208.833 295.046 208.596 300.281C197.936 312.124 179.987 320.743 167.2 326.408C185.288 322.476 200.358 311.401 210.975 300.274C210.632 299.594 210.298 298.932 209.787 299.076C212.398 295.34 213.536 291.133 216.389 287.477C221.051 294.716 210.43 301.199 210.742 306.899C199.847 318.098 173.652 331.893 157.054 335.659C161.77 336.722 168.299 334.292 173.142 332.307C188.124 326.088 202.01 317.51 214.271 306.898C214.922 305.337 212.802 305.011 213.31 303.835C215.792 301.337 217.722 298.349 218.978 295.062C220.119 295.185 220.591 297.326 221.599 297.896C217.967 302.729 216.258 308.21 213.328 313.274C217.607 312.043 219.426 304.285 222.781 300.242L228.496 311.574C223.03 312.369 221.492 320.996 218.856 325.395C223.266 323.044 225.097 316.423 228.282 312.354C230.669 315.261 233.146 318.032 233.999 321.329C236.649 331.621 214.284 347.351 195.943 354.079C187.109 357.331 175.437 360.392 166.586 364.101C161.662 362.537 155.846 366.336 152.575 362.168C153.986 359.394 161.692 363.711 164.645 360.252C159.766 358.553 151.945 361.318 149.265 356.763C154.416 355.61 160.509 357.843 164.659 355.555C159.805 353.462 154.223 354.204 148.766 354.523ZM251.401 354.544L252.827 357.373C249.004 361.247 247.275 365.796 243.605 369.705C248.471 369.638 250.344 362.032 253.54 358.787C253.104 360.016 254.756 360.173 255.21 362.099C251.401 364.44 248.581 370.391 245.287 374.2C245.576 374.549 245.988 374.432 246.232 374.915C249.216 372.854 252.676 367.592 254.973 363.991C259.03 370.075 249.635 375.112 247.9 380.584C252.637 379.37 254.066 373.692 257.119 370.609C252.441 386.425 234.586 400.135 214.342 406.922C201.569 411.099 189.287 414.467 179.752 407.726C183.972 407.849 191.267 409.792 194.424 405.086C188.966 405.316 180.221 408.343 175.243 403.508C178.254 401.59 185.112 404.673 188.747 400.871C183.798 400.284 178.298 401.411 173.35 400.913L171.68 397.602C175.756 397.662 182.548 399.275 185.401 395.439C180.509 395.946 175.938 395.439 170.967 396.187L169.531 393.341C174.081 393.665 178.652 393.176 183.03 391.896C182.222 388.779 179.581 391.386 177.589 391.669C174.586 391.19 171.531 391.132 168.512 391.497C167.791 390.468 166.856 390.086 166.357 388.429C170.431 387.593 175.454 389.085 179.134 385.552C174.585 383.485 167.188 389.941 163.974 383.703C167.93 382.634 172.98 384.09 176.294 381.078C171.945 379.898 166.537 381.965 162.082 381.108L160.412 377.796C165.176 376.905 169.434 377.547 174.848 374.691C173.17 371.675 169.642 375.064 167.506 375.419C164.402 375.948 161.598 374.934 159.22 375.433L157.08 371.191C162.543 371.864 168.088 371.111 173.172 369.004C172.166 365.717 169.023 368.845 166.789 369.272C163.007 368.369 157.969 371.26 155.167 367.395C181.806 364.821 223.369 350.391 236.088 326.719C237.302 330.821 230.672 335.724 228.539 340.006C232.48 339.977 234.947 333.015 238.468 330.28C240.405 335.769 233.373 338.316 233.045 343.059C231.974 343.351 231.051 344.031 230.456 344.966C234.209 345.01 237.893 336.493 241.57 335.228C242.757 335.978 241.236 337.64 242.518 337.108C239.571 339.644 237.72 345.421 233.545 348.732C238.16 348.656 240.837 342.822 243.475 339.006C246.566 346.428 237.778 349.993 236.636 356.064C240.635 354.054 243.204 348.275 246.337 344.681C248.51 351.442 241.859 355.279 239.504 360.547C244.042 358.894 246.567 353.159 248.72 349.407C249.573 350.544 250.218 351.822 250.625 353.184C246.262 356.611 246.015 361.381 241.643 364.79C247.243 363.994 248.426 356.847 251.347 354.437L251.401 354.544Z" fill="white"/>
<path fill-rule="evenodd" clip-rule="evenodd" d="M190.828 237.989C188.187 240.82 186.382 247.27 183.287 251.249C187.896 249.246 192.733 242.125 190.828 237.989Z" fill="white"/>
<path fill-rule="evenodd" clip-rule="evenodd" d="M148.468 52.9906C150.813 50.1517 154.155 47.776 155.289 45.7023C157.549 41.6266 155.917 35.6704 154.154 31.3728C150.387 29.2947 145.635 25.3549 140.217 26.7771C129.693 29.5312 122.565 39.3749 118.002 45.1242C115.72 53.9686 112.348 65.1106 112.329 74.4776C112.686 81.6295 114.355 88.6552 117.253 95.2056C119.052 99.6645 119.202 105.446 123.924 108.435C122.932 97.2874 121.297 90.1659 125.403 81.7288C128.742 74.979 134.024 69.4518 139.475 63.5925C142.456 60.3663 145.328 56.8357 148.468 52.9906ZM120.755 98.9875C120.405 98.7823 118.234 96.2158 119.188 96.993C115.077 78.1002 112.948 51.5023 128.314 37.1809C133.364 32.3983 145.79 26.1522 151.281 34.4552C153.363 37.6046 152.336 39.445 153.27 42.8575C141.505 60.844 116.352 74.7892 120.755 98.9875Z" fill="white"/>
<path fill-rule="evenodd" clip-rule="evenodd" d="M161.113 70.3986C161.364 70.2724 161.795 70.5042 161.338 70.8461C154.46 70.5783 142.927 78.1037 139.482 82.3709C137.892 81.9361 135.488 82.875 136.347 85.0687C140.839 85.9078 143.526 83.8836 147.838 84.8128C152.15 85.7421 155.322 89.7131 159.122 90.7424C164.719 92.2596 171.349 90.2514 176.36 84.3216C179.315 75.1169 168.779 67.0609 161.113 70.3986ZM173.163 80.9243C171.992 92.4636 153.637 84.501 148.403 81.2079C146.96 82.2696 146.016 81.7792 144.877 81.881C150.931 73.3399 174.498 67.0361 173.073 80.9694L173.163 80.9243Z" fill="white"/>
<path fill-rule="evenodd" clip-rule="evenodd" d="M91.8614 46.1023C88.9873 35.9456 79.1607 30.989 68.1929 35.3577C64.9678 37.8764 64.7152 40.6737 62.687 44.1841C61.3777 57.6778 67.7476 75.5246 79.1058 85.6579C84.2449 90.233 90.6934 94.3294 95.9201 94.8886C93.7164 93.4157 91.6729 91.4135 89.0686 91.1518C77.078 82.8399 60.7978 58.9792 67.7061 41.1226C75.8995 33.4361 85.941 38.1949 88.7176 48.7821C92.2743 62.2535 87.6022 83.6086 96.3683 94.6633C97.7132 93.9873 98.7611 96.3329 99.4645 94.2065C90.0967 83.1176 96.2228 61.6151 91.8614 46.1023Z" fill="white"/>
</svg>
