<svg width="246" height="274" viewBox="0 0 246 274" fill="none" xmlns="http://www.w3.org/2000/svg">
<path fill-rule="evenodd" clip-rule="evenodd" d="M182.648 94.816C185.946 94.8884 214.661 87.6112 220.006 105.171C224.09 118.597 221.505 122.592 214.38 154.691C212.311 163.993 208.722 172.743 205.486 181.641C203.337 187.551 201.477 193.572 199.061 199.378C197.321 203.541 196.232 208.094 193.17 211.558C190.687 214.369 187.925 216.884 183.99 217.834C180.414 218.696 176.975 220.092 173.465 221.221C148.628 229.178 156.933 223.535 150.256 238.641C148.054 243.628 144.343 246.308 139.146 247.372C134.784 248.266 130.384 248.8 125.953 249.015C62.0617 252.076 4.46572 204.72 7.01727 196.285C7.55731 194.51 7.98692 192.699 8.57363 190.941C10.322 185.685 22.7798 153.458 22.8563 153.134C24.3665 146.59 27.7989 140.908 30.0638 134.722C33.8289 124.441 40.0101 115.437 63.881 46.7981C65.4884 42.1667 59.8264 27.1901 81.674 22.9205C103.025 18.7466 113.534 5.74948 125.821 23.2038C129.318 28.1703 133.19 39.2925 141.657 38.1946C148.986 37.2444 152.658 37.0932 156.7 38.1817C179.494 44.3174 165.639 48.0884 178.609 54.7113C183.309 57.111 187.251 60.3519 189.948 64.8749C197.239 77.0979 186.862 77.8824 184.54 88.5706C184.105 90.5703 183.36 92.5057 182.648 94.816ZM53.6272 107.651L53.6988 107.609C52.5984 107.154 52.513 106.029 52.0736 105.136C51.1935 103.344 50.3722 101.512 49.0177 99.7436C47.3561 101.927 46.8908 103.917 48.2427 106.189C48.4422 106.527 50.8638 111.537 51.2244 111.491C53.8613 111.175 55.7414 120.39 60.854 126.055C61.0552 126.275 61.0368 126.422 60.7867 126.508C59.8003 126.71 59.677 124.946 58.2024 125.638C59.0477 127.87 61.0192 129.816 60.43 132.464C58.9513 131.47 58.6517 129.791 58.1048 128.297C56.5414 124.047 54.9557 119.827 52.579 115.929C50.1114 111.871 47.4756 105.99 46.4104 105.864C44.0863 111.487 43.575 110.338 47.3258 115.868C48.2158 117.175 48.3238 119.298 50.6548 119.245C50.7942 119.241 51.0036 119.715 51.0815 119.997C52.2515 124.122 54.879 127.479 56.8764 131.172C57.6205 132.544 58.6254 133.325 60.0007 133.863C60.1424 133.282 60.2525 132.806 60.3667 132.335C61.6295 134.256 62.8607 136.208 64.9851 137.386C61.9724 136.859 60.0035 134.283 56.9071 133.714C58.0296 137.546 59.4851 140.919 63.5795 142.629C62.348 142.95 61.6659 141.563 61.3663 142.02C60.6246 143.155 60.3787 142.844 59.8423 141.956C58.6088 139.915 56.3542 139.275 54.4941 138.026C54.7612 139.041 55.6429 139.841 55.6282 140.626C55.5741 143.65 57.2293 145.418 59.8092 146.682C59.0496 147.12 58.3976 146.152 57.9649 146.881C57.6338 147.429 58.7372 148.169 57.7844 148.796C56.754 147.29 56.517 145.285 54.8747 144.192C54.5745 143.993 54.6221 143.727 54.6505 143.41C54.8955 141.062 54.6084 140.74 43.7716 122.228C43.1318 121.129 42.6474 119.865 41.4575 119.121C38.6738 123.599 39.4781 124.952 47.8267 139.396C48.2447 136.077 45.6869 134.155 46.2656 131.507C48.1597 134.94 49.4611 138.657 50.3675 142.367C51.2663 146.042 53.0645 148.324 56.3803 149.872C57.7703 150.521 59.5373 150.962 60.1458 152.748L60.2085 152.717C57.8633 151.439 55.7425 149.691 52.8557 149.056C52.7114 150.994 54.066 152.295 54.1143 153.93C54.1545 155.177 54.8687 155.869 55.9751 156.473C57.0249 157.046 58.6262 157.176 58.7471 158.878L58.7553 158.88C56.7952 156.956 53.8569 156.638 51.8658 154.696C52.244 154.126 52.8335 154.719 53.2613 154.431C52.7241 151.269 49.4778 145.593 46.7197 143.255C48.6491 147.259 48.5689 151.776 51.9458 154.781C51.2707 154.693 50.7807 154.68 50.981 155.672C51.3531 157.552 52.3389 159.284 52.2722 161.242C51.1649 160.3 50.9695 158.909 50.6518 157.643C49.6791 153.744 46.8493 151.045 44.7535 147.453C44.3653 148.414 44.1783 148.875 43.991 149.337C43.3182 149.055 43.2466 148.391 43.0944 147.819C42.1789 144.423 40.6782 137.744 36.4192 133.05C34.5688 135.844 34.5275 138.293 36.4022 141.047C37.2693 142.33 42.8337 151.321 42.6324 152.861C41.2813 153.984 43.8788 157.35 45.025 158.019C45.4067 158.241 46.0317 157.86 45.9623 157.206C45.8551 156.169 45.3256 155.321 44.5978 154.592L44.6391 154.68C45.187 152.753 43.3898 151.135 43.924 149.216C45.7499 151.546 45.9607 154.482 46.8074 157.162C47.5194 159.422 48.8582 160.823 51.0002 161.659C51.6869 161.927 51.9106 161.537 52.2307 161.162C53.0913 162.593 54.3359 163.448 55.8418 164.235C57.4172 165.06 59.2417 165.49 60.6482 166.633C56.5119 165.702 53.0072 163.237 48.8987 161.819C49.9955 166.015 51.4781 169.466 55.6666 170.805C55.7832 170.842 55.815 171.15 55.8887 171.333L55.9761 171.293C52.7312 169.863 49.5575 168.318 46.8734 165.913C47.7734 165.709 48.4553 166.871 49.5169 166.331C49.1601 162.621 45.9322 161.322 43.7487 159.155C43.8536 161.935 44.8705 164.24 46.9507 166.038C46.2116 166.213 46.0356 166.505 46.3585 167.312C46.8956 168.647 48.2688 169.723 47.8789 171.448C46.76 171.208 46.9785 170.012 46.2462 169.596C44.784 166.248 43.0429 163.009 42.2756 159.386C41.6117 156.248 40.3414 153.385 38.63 150.651C37.7992 149.32 36.1421 147.878 37.8209 145.966C37.9559 145.806 37.6677 145.204 37.4831 144.856C36.5195 143.074 35.5245 141.312 34.3486 139.191C29.6563 147.895 33.2307 146.124 32.6546 148.581C31.9176 148.559 31.9591 147.28 31.0426 147.555C29.6133 149.913 29.6314 152.096 31.4557 154.28C32.0464 154.985 32.9347 155.761 32.605 156.947L32.6812 156.904C30.7746 156.501 31.0333 154.132 29.3015 153.314C28.0853 155.721 26.4829 157.983 27.3794 160.966C22.8827 163.558 26.6891 168.029 29.9129 173.476C30.9617 173.353 31.5116 172.462 32.412 172.749C35.358 180.176 35.5141 181.304 38.3395 180.786C38.0039 178.493 36.8886 176.608 35.4742 174.816C34.0685 173.034 27.5624 162.773 27.3301 160.844C29.3856 162.463 29.7764 165.67 32.7037 166.456C33.3817 169.31 33.5476 165.752 33.9603 166.247C34.8238 166.997 34.8402 167.998 35.0882 168.85C36.2774 172.965 38.2151 176.647 40.88 180.017C43.2133 182.97 45.0054 186.435 49.1243 187.482C46.2438 187.648 44.371 185.302 41.7748 184.811C41.473 186.051 42.7499 186.563 42.5694 187.579C41.0067 188.87 40.4934 187.232 39.6594 186.509C38.7986 185.761 38.3804 184.55 36.7693 183.566C37.6416 185.598 37.8346 187.306 39.3614 188.014C41.7036 189.109 43.7262 190.711 46.048 191.85C49.6235 193.609 53.1697 195.434 56.7232 197.25C50.6463 195.323 45.0142 192.469 40.0415 189.193C38.7792 189.592 40.0205 190.74 38.6944 191.001C38.161 188.979 36.8647 187.434 35.38 186.023C35.8292 185.989 36.7068 186.181 36.3419 185.405C35.3405 183.278 35.5898 180.357 32.634 179.382C32.258 179.257 32.067 178.565 31.7984 178.131C29.9077 175.069 27.8324 172.117 26.1718 168.912C25.8915 168.368 25.5255 167.863 25.163 167.368C24.679 166.71 23.9502 166.704 23.7016 167.385C20.9445 174.83 25.8535 175.162 30.1202 182.605C30.3757 183.05 30.4879 183.874 31.38 183.394C30.8723 181.373 29.2993 179.728 29.3255 177.515C30.5164 179.409 31.4893 181.403 32.4541 183.4C32.9563 184.434 33.4421 185.482 34.8354 185.52C33.8959 185.423 33.4265 185.67 33.8506 186.718C35.1601 189.928 37.2189 192.578 39.8859 194.747C40.3923 195.16 40.833 195.463 40.852 196.142L40.9059 196.112C40.0955 195.214 38.932 195.357 38.0264 194.926C37.3465 195.847 38.7307 196.532 37.9075 197.397C36.7935 196.392 36.828 194.7 35.8171 193.756C34.8186 192.82 33.5546 192.168 32.4316 191.407C33.0102 190.227 34.0908 191.884 34.6692 190.357C32.5729 188.098 30.0276 185.974 28.0257 183.371C27.9878 183.322 27.8282 183.36 27.727 183.358C27.0457 179.292 24.0596 176.561 22.1783 173.006C20.0012 175.74 20.1269 178.055 21.9772 180.467C23.3939 182.315 24.4701 184.436 25.9738 186.199C27.5331 188.028 27.4457 189.494 30.4848 189.89C31.1789 190.434 31.3326 191.296 31.5906 192.031C33.0235 196.096 36.0671 198.743 39.595 200.796C42.3984 202.428 45.1733 204.178 48.2449 205.326C48.8072 205.537 49.4636 205.668 49.5121 206.46L49.5952 206.419C44.6349 205.203 40.6199 201.853 35.9363 200.076C35.3996 201.071 36.7179 201.822 35.7433 202.579C35.5287 202.346 35.2906 202.147 35.1278 201.897C33.9253 200.056 33.6004 197.58 31.2471 196.546C31.0519 196.461 30.9425 196.042 30.8985 195.763C30.5031 193.172 30.5076 193.171 27.734 192.935C29.4751 196.234 31.1424 199.403 32.832 202.557C33.1724 203.194 33.7001 203.692 34.3421 204.06C36.7611 205.454 44.6075 209.76 45.0409 210.802L45.1159 210.763C42.1733 209.735 39.687 207.825 36.8881 206.515C36.181 206.182 35.5834 205.991 34.9496 206.77C63.1447 222.804 91.272 226.588 99.3106 229.197C98.9137 229.252 98.493 229.418 98.1218 229.341C55.0804 220.531 32.9896 207.361 34.2213 207.742C33.3336 207.467 32.9652 206.414 32.7469 204.862C32.6935 204.487 32.4578 204.069 32.175 203.811C31.7255 203.404 31.1225 203.163 30.6648 202.757C29.8216 202.004 27.8581 201.891 29.0137 199.887C29.1412 199.661 28.298 198.374 27.9686 198.6C26.3314 199.717 26.4076 198.097 25.8935 197.46C25.3537 196.786 25.1182 195.862 23.9053 195.086C24.1456 196.062 24.1879 196.666 24.4358 197.171C25.3823 199.114 26.4848 200.988 27.3552 202.963C27.9956 204.41 28.8427 205.649 29.9937 206.709C50.7239 225.834 102.312 233.736 102.312 233.736C77.4215 230.355 53.4861 224.084 32.0298 210.403C30.8832 212.869 62.2461 230.126 92.7238 234.42C83.7072 234.406 61.0349 229.001 39.7129 217.029C37.6443 215.867 35.5556 214.023 33.4153 213.929C31.1935 213.832 29.9497 212.686 28.3723 211.783C27.5501 211.313 26.92 210.486 25.7971 210.29C26.7589 216.855 105.014 252.367 124.437 242.287C113.413 241.067 107.535 240.834 110.232 239.557C110.746 239.314 111.237 239.531 111.739 239.608C122.879 241.303 122.631 241.972 127.086 238.611C125.43 238.635 124.61 239.285 123.672 239.573C123.086 239.753 122.549 240.142 121.906 240.045C121.413 239.969 120.805 239.87 120.923 239.166C120.996 238.744 121.488 238.369 121.828 238.49C122.735 238.804 123.463 238.799 124.408 237.843C112.231 236.984 112.905 237.234 111.34 236.039C114.223 236.097 117.405 237.492 119.594 236.249C121.949 234.912 125.253 235.444 126.928 232.498C121.957 232.056 117.028 232.213 112.203 231.307C113.071 228.784 125.483 233.669 124.817 230.14C123.736 229.258 122.28 231.061 121.222 229.525C123.196 228.526 125.519 229.243 127.618 227.592C113.308 226.694 114.015 227.038 112.55 225.639C115.378 226.687 118.102 225.82 120.73 226.406C121.095 226.488 121.808 226.411 121.88 226.227C122.603 224.33 124.628 224.762 125.907 223.891C126.748 223.315 127.977 223.243 128.611 221.934C124.331 221.23 120.179 221.698 116.2 220.692C118.249 220.299 120.277 220.531 122.309 220.609C123.319 220.648 124.438 220.819 125.202 219.902C125.707 219.297 126.851 219.275 126.479 217.821C126.099 216.323 125.188 216.891 124.393 216.738C122.178 216.316 119.813 216.892 117.193 215.727C124.311 214.808 128.4 218.202 133.255 213.045C132.079 212.417 131.044 212.484 129.929 212.855C128.798 213.228 128.099 214.173 127.139 214.76C126.904 214.903 126.743 214.879 126.639 214.665C126.311 213.712 128.059 213.727 127.494 212.538C124.59 211.92 121.41 212.487 118.49 211.271C120.84 211.174 123.179 211.278 125.507 211.443C126.138 211.488 127.017 211.702 127.26 211.22C128.154 209.462 130.038 209.899 131.362 209.146C131.945 208.812 132.809 208.853 132.906 207.879C131.858 207.227 130.807 207.191 129.692 207.736C129.151 207.999 128.411 208.432 127.966 208.045C126.524 206.806 124.818 207.434 123.247 207.173C122.361 207.026 121.468 206.926 120.579 206.803C123.94 206.255 127.192 206.784 130.439 206.254C134.697 207.708 136.112 206.816 138.854 202.822C136.406 202.69 136.028 202.793 134.11 204.157C132.945 204.977 131.965 206.104 130.43 206.276C130.663 205.845 130.893 205.412 131.125 204.979C129.943 204.7 130.44 203.113 129.205 202.664C128.319 202.34 127.272 202.98 126.191 201.95C128.295 202.026 130.036 201.976 131.74 202.177C135.491 202.623 137.847 200.708 139.841 197.825C136.159 195.716 134.914 200.993 132.724 199.647L132.77 199.734C133.422 199.049 134.559 198.78 134.767 197.592C131.853 196.884 128.858 198.002 126.176 196.573L126.222 196.678C130.284 196.817 133.503 195.227 135.992 191.964C135.088 191.359 134.055 191.257 133.297 191.654C131.797 192.432 130.552 192.544 128.951 191.766C127.961 191.287 126.52 191.837 125.191 190.899C136.318 190.65 131.478 190.633 136.919 186.344C132.333 185.633 127.705 186.889 123.231 185.607C127.345 185.641 131.422 185.075 135.526 185.182C138.685 185.266 141.567 183.11 142.698 179.787C140.352 180.552 138.578 182.533 136.075 182.676C136.201 181.773 137.58 181.833 137.365 180.944C135.879 179.866 134.709 181.397 133.466 181.04C131.448 180.456 129.396 180.708 127.368 180.524C126.158 180.414 124.799 180.865 123.382 179.848C131.472 178.758 134.535 182.176 138.601 175.729C134.346 174.849 130.224 175.318 126.214 174.394C126.598 173.773 127.023 173.777 127.428 173.837C130.183 174.224 132.966 174.169 135.726 174.412C140.179 174.802 142.684 171.881 146.012 169.132C137.903 168.995 140.154 172.025 135.23 173.597C136.621 171.646 138.539 171.026 139.576 169.126C137.392 169.033 135.534 169.428 133.627 169.026C131.673 168.614 129.597 168.785 127.573 168.703C128.586 167.749 129.709 168.011 130.779 167.995C132.427 167.966 134.079 168.062 135.728 168.09C136.34 168.099 137.062 168.263 137.495 167.753C138.948 166.055 141.112 165.05 142.287 162.86C138.343 162.029 134.31 162.666 130.525 161.369C131.342 161.23 132.165 161.198 132.96 161.322C140.292 162.457 140.932 159.034 142.912 158.016C144.751 158.636 145.302 158.439 146.915 156.556C145.18 156.113 144.383 158.166 142.817 158.036C143.003 157.677 143.437 157.183 143.327 156.988C143.043 156.49 142.434 156.761 141.96 156.794C141.787 156.803 141.623 156.981 141.455 157.082L141.451 157.111C141.366 156.682 141.281 156.258 141.195 155.829C143.728 156.312 145.835 155.561 147.589 153.687C148.055 153.189 148.472 152.507 149.356 152.666C149.362 153.855 147.755 153.919 147.664 155.272C148.654 155.477 149.723 155.628 150.526 154.945C151.338 154.266 152.9 153.542 152.341 152.397C151.531 150.734 150.624 152.56 149.217 152.741C147.228 150.496 143.892 155.036 141.334 154.802C141.719 153.771 143.177 153.604 143.604 151.808C140.416 153.031 137.592 152.598 134.768 152.018L134.797 152.093C135.014 151.68 135.388 151.585 135.807 151.629C138.902 151.946 141.802 151.645 144.072 149.172C144.151 149.088 144.448 149.204 144.655 149.22C144.543 150.095 143.494 150.321 143.223 151.41C146.26 151.536 147.005 148.825 148.961 147.512C146.919 146.236 146.55 148.942 144.51 149.299C145.931 145.654 142.559 148.241 141.909 146.692C143.354 145.091 145.425 144.127 146.668 142.183C145.101 141.598 143.657 142.569 142.193 141.673C149.677 139.488 144.266 145.348 154.523 134.304C155.057 133.728 154.659 133.433 154.075 133.278C155.772 132.736 157.053 131.288 158.897 131.065C158.442 132.169 156.886 132.456 156.753 133.876C158.141 133.679 158.735 132.455 159.745 131.831C160.194 131.554 160.437 131.092 159.905 130.607C161.452 129.614 163.04 128.72 164.897 128.448C162.91 130.545 160.774 132.459 158.4 134.117C157.93 134.442 157.658 135.046 157.299 135.527C154.821 136.481 153.12 138.567 150.904 139.907C150.281 140.285 150.585 140.979 150.611 141.557C147.737 142.13 145.995 144.336 143.76 146.002C145.876 147.467 150.578 143.856 151.139 142.203C151.181 142.079 150.749 141.799 150.568 141.576C153.737 140.556 155.866 138.411 157.251 135.447C157.735 136.047 158.382 134.84 158.856 135.593C158.22 136.879 156.589 137.535 156.361 139.158C158.607 139.677 159.223 136.272 160.818 136.171C163.784 135.984 165.356 133.606 167.627 132.372C170.092 131.027 170.79 128.909 171.015 126.016C169 126.875 167.249 127.613 165.5 128.355C168.052 124.786 172.305 126.493 172.809 120.147C168.982 121.014 163.154 126.637 157.577 129.588C156.581 130.113 155.691 130.831 154.756 131.464C154.158 131.872 153.512 132.253 153.692 133.151C153.046 133.451 152.426 133.82 151.757 134.041C150.77 134.368 152.062 135.51 151.163 135.7C148.722 136.225 147.103 138.069 145.102 139.296C144.756 139.509 144.354 139.606 144.13 138.942C145.135 138.234 146.428 137.764 147.115 136.413C143.337 135.755 139.566 136.869 136.017 135.497C144.919 135.107 144.608 137.268 150.577 130.169C146.845 130.352 143.249 129.895 139.621 129.839C149.581 128.196 144.755 131.768 152.26 125.24C147.33 124.968 142.86 125.899 138.547 124.538C142.945 124.649 147.335 124.563 151.721 124.288C152.565 124.238 153.905 124.241 153.837 123.535C153.634 121.559 155.107 121.531 156.184 121.076C157.221 120.636 157.758 119.793 158.344 118.95C158.211 117.605 160.343 118.404 160.175 116.909C158.776 116.93 158.194 117.605 158.34 118.963C154.743 116.603 151.955 121.677 149.308 122.446C149.867 121.058 151.514 120.668 152.099 118.968C148.147 118.866 144.336 119.1 140.322 118.511C143.289 116.591 153.586 121.427 157.529 113.953C155.624 113.611 154.674 115.39 153.099 115.417L153.138 115.484C152.847 114.867 154.688 114.08 152.989 113.571C156.104 113.102 158.031 111.077 159.646 108.571C157.991 108.971 156.599 110.234 154.775 109.74C154.633 107.959 151.597 109.702 149.943 108.405C153.403 107.825 157.278 108.718 159.224 104.764C156.648 103.885 155.648 106.956 153.328 106.939C153.345 106 154.804 106.038 154.556 104.96C153.095 104.122 151.894 105.427 150.81 104.008C155.863 103.707 158.863 104.45 159.992 99.4562C157.664 99.3723 156.707 101.92 154.325 102.241C155.157 100.896 153.667 100.502 153.308 99.3954C157.267 100.027 159.717 97.9704 162.19 94.8755C159.571 95.2484 157.865 96.9981 155.61 96.7555L155.65 96.8319C155.598 96.1487 156.025 95.4429 155.562 94.7777C156.691 95.7823 158.728 94.7387 157.156 94.0327C160.253 93.658 162.354 91.8055 164.55 89.2533C161.204 89.6219 159.016 91.3023 156.804 92.8843C155.857 93.5613 156.711 93.782 157.266 93.9885C156.909 94.6681 155.918 94.1257 155.591 94.8603C155.074 94.6014 154.558 94.3451 154.119 94.1244C154.888 93.1299 156.077 92.602 156.459 91.1955C156.848 89.7577 159.065 90.581 159.715 88.8655C156.126 89.0823 152.706 88.7318 148.703 88.2409C152.845 87.2345 156.946 89.4126 160.08 86.2684C159.155 86.3503 157.895 86.8172 157.413 86.1711C156.212 84.5718 155.527 85.0474 148.856 84.6991C154.031 83.585 159.405 84.6105 164.404 82.5249C163.325 82.0626 162.23 82.3028 161.187 82.5297C158.192 83.183 159.455 81.0596 155.983 81.5534C155.18 81.6672 154.415 81.6835 153.437 80.9999C156.13 80.7439 158.538 80.5119 160.95 80.2822C150.524 77.0103 127.158 77.7161 102.202 62.7815C100.522 61.7767 98.7363 60.9474 96.9506 60.1388C95.8283 59.6286 94.052 60.184 93.7252 61.1464C93.2948 62.4229 94.1895 62.3522 98.9644 65.2921C102.316 67.3537 98.3204 67.1016 102.97 68.8803C109.517 71.388 116.05 73.9525 122.691 76.1758C130.602 78.8214 138.722 80.7652 146.926 82.3134L146.876 82.2523C146.546 83.8255 126.854 78.2765 123.554 77.2407C121.884 76.7192 120.222 76.183 118.563 75.6203C117.003 75.0959 115.396 74.6611 113.924 73.9449C112.428 73.2155 110.851 72.7781 109.311 72.1991C107.769 71.6235 106.192 71.1353 104.686 70.4756C103.084 69.7788 101.625 68.5208 99.9772 68.2534C98.0265 67.9331 99.1073 65.6517 97.4579 65.2906C95.3473 64.8343 93.2835 61.7958 90.4682 62.8884C89.4614 63.2761 88.525 62.6984 87.7727 61.8411C86.2026 60.0575 84.125 59.055 81.9101 58.1034C81.7401 59.9112 82.7663 60.6446 83.945 61.4183C85.5115 62.4513 87.5892 62.8844 88.3705 64.9123L88.4139 64.8877C86.8602 64.1363 85.3063 63.3751 83.7349 62.6107C83.4197 63.7079 84.7788 64.0773 84.2982 65.1474C81.8714 64.4355 82.7926 60.324 79.6121 60.3259C79.6624 64.0866 80.252 64.9188 82.9855 66.7881C99.6955 78.2201 124.161 83.6326 135.367 87.0705C130.044 85.4112 112.653 82.9378 90.0818 72.119C87.8134 71.0317 85.2026 70.3878 83.5791 68.1518C83.3401 67.8256 82.7453 67.4495 82.2289 67.9468C81.3769 68.7715 80.9789 68.0818 80.5738 67.4604C80.3528 67.118 80.1703 66.7462 79.9858 66.3771C79.6889 65.7922 79.2035 65.2025 78.5902 65.4585C77.8289 65.772 77.8475 66.5793 78.0555 67.3396C78.5569 69.1946 79.3571 70.7434 81.3331 71.5021C82.4155 71.9165 83.6859 72.3095 83.9425 73.7659L84.0279 73.7282C82.7706 73.093 81.5139 72.4591 80.3658 71.8813C79.5376 72.2143 80.4392 73.2174 79.3192 73.4162C78.5185 72.1676 78.5085 70.2187 76.6726 69.6007C76.0849 70.1357 75.3579 70.6648 75.5538 71.5906C75.8092 72.8015 76.2588 73.9637 77.3862 74.6718C84.4428 79.0881 84.7272 78.7157 84.3762 79.9288L84.3852 79.924C82.4881 78.2817 80.3387 77.1182 78.0081 76.3057C77.1948 77.6867 79.1046 78.2906 78.656 79.6645C77.8246 79.2916 77.518 78.7027 77.2165 78.073C76.425 76.4119 75.556 74.7833 74.8126 73.1034C74.4867 72.3632 74.0962 72.2072 73.405 72.487C72.8505 72.7112 72.0481 72.8168 72.3842 73.6577C73.2516 75.8216 73.6931 78.3447 75.5712 79.838C83.2446 85.943 94.1235 87.9648 94.6146 90.8827L94.6235 90.8714C94.3581 90.1986 93.7148 89.9898 93.1393 89.9126C90.3344 89.5246 89.3613 88.7426 76.3968 81.7157C75.8834 82.7584 77.0478 83.6557 76.3841 85.0058C74.818 81.6356 72.947 78.8408 71.9672 75.5935C71.6188 74.4375 71.2803 72.7823 70.2938 72.4473C68.0975 71.7098 67.6251 69.7748 66.5272 68.2548C65.0141 66.1601 64.4147 63.4279 62.1865 61.7467C59.8381 65.2314 61.5385 66.7936 64.0738 70.3405C64.4901 70.922 65.1359 71.9797 65.4459 71.9005C68.0473 71.2539 67.7633 73.4161 68.2963 74.6951C70.1731 79.2097 72.2058 83.6096 76.1693 86.7651C76.4046 86.9557 76.3504 87.131 76.0535 87.1677C74.6478 87.0757 73.9497 85.3685 72.2222 85.3587C73.1196 87.2921 72.9973 89.479 74.9627 90.8093C80.0773 94.2691 85.2819 97.5538 91.0818 99.7797C91.8343 100.071 92.7411 100.158 92.8583 101.219L92.9237 101.194C91.4829 101.032 90.1559 100.629 88.8619 99.8983C86.1084 98.3396 78.4714 94.6525 77.8406 93.8586C76.394 92.0339 73.578 92.4018 72.4526 90.0858C72.1166 89.399 70.8467 89.5842 69.9686 90.1665C70.7199 92.9378 71.8021 95.2849 74.5131 96.4965C74.9523 96.6913 75.4718 96.9249 75.5027 97.5483L75.5845 97.4943C71.0227 96.0397 70.9593 96.0832 68.9795 93.0293C68.1504 91.7427 67.2107 91.2421 65.7287 91.618C66.3328 95.1749 67.5473 98.246 71.2523 99.733C71.8865 99.9889 72.7895 100.408 72.9159 101.379L73.0084 101.333C71.9103 101.011 70.9505 100.432 70.0306 99.7693C69.6751 99.5146 69.2675 99.5053 68.8934 99.7708C68.4944 100.054 68.5232 100.421 68.6796 100.838C69.3309 102.553 69.8435 104.274 71.8569 105.083C72.5958 105.38 73.5673 105.826 73.9362 106.782L74.0306 106.719C72.8542 106.64 72.0694 105.646 71.0013 105.361C70.3727 106.049 71.577 106.677 70.9885 107.334C70.0384 106.277 68.3281 103.107 68.0803 102.18C67.3431 99.4196 65.7514 97.2282 63.2085 94.8861C63.8763 97.0037 64.1148 98.5891 64.8405 99.9046C66.7614 103.377 66.9018 107.985 71.2969 109.923C70.294 110.635 69.7333 109.27 68.9119 109.69C68.2881 110.461 69.8758 111.173 68.9983 112.154C67.656 110.314 67.42 107.882 65.2356 106.87C65.1166 106.816 65.0154 106.427 65.0879 106.308C66.1698 104.624 64.8224 103.332 64.2462 102.056C62.0723 97.2448 58.5552 91.6724 59.1716 90.7774C60.0309 91.3693 60.0768 92.6047 61.4886 93.3797C60.2081 89.0117 57.6011 86.0869 55.1373 82.7898C53.7366 85.8567 53.6472 85.9388 54.939 87.9838C56.5808 90.5855 57.5956 93.5474 59.6451 95.9264C60.2873 96.6728 60.4369 97.8186 60.9365 98.7067C61.4825 99.6762 62.1078 100.621 62.8219 101.472C63.858 102.708 61.1478 101.946 61.9817 103.225C62.575 104.136 62.6485 105.37 63.0491 106.427C64.1025 109.202 64.8857 112.171 67.9574 113.586C68.0582 113.632 67.9354 114.16 67.9169 114.465L67.9483 114.43C67.5015 113.793 66.9496 113.429 66.0758 113.702C65.785 115.251 67.5145 116.336 67.1367 118.556C65.7132 115.445 64.7025 112.799 63.3365 110.355C61.949 107.869 60.5024 105.369 58.3718 102.782C58.4675 104.408 59.1244 105.226 59.5245 106.155C60.2084 107.729 61.0784 109.217 61.311 110.994C61.7179 114.068 62.3013 117.112 65.5716 118.649C65.7457 118.729 65.7397 119.198 65.8207 119.487L65.8868 119.463C65.4202 119.058 64.95 118.679 64.3157 119.186C64.3057 120.237 65.3939 121.1 64.9968 122.223C62.8935 121.258 62.6544 118.597 60.4591 117.715C60.4299 118.435 60.4116 118.94 60.3922 119.442L60.4712 119.408C59.4502 118.496 58.7102 117.304 57.9055 116.247C56.6779 114.634 55.1809 112.969 55.2662 110.666C56.2441 110.941 55.9484 112.354 57.2585 112.661C56.811 111.165 56.4394 109.853 55.0965 109.062L55.1872 109.123C55.523 108.36 55.0787 107.806 54.6432 107.293C54.0571 106.601 53.9304 107.411 53.6272 107.651ZM164.335 91.6827C163.874 91.6083 163.534 91.8571 163.264 92.1613C163.041 92.4181 162.49 92.7183 163.07 93.1059C163.47 93.3756 163.83 93.1326 164.115 92.7865C164.41 92.425 164.356 92.0234 164.282 91.6124C165.726 92.2594 166.422 90.8218 167.483 90.4204C168.938 89.8733 169.139 88.7172 168.495 87.2729C167.255 89.0053 165.3 89.8723 164.335 91.6827ZM66.081 51.2505C66.1189 52.08 64.8981 52.6296 65.4057 53.4669C66.4573 55.2037 67.0398 57.2495 68.6774 58.6428C68.5625 55.8883 66.094 53.9975 66.0815 51.242C67.7205 52.4198 67.7843 54.7811 69.4687 56.1107C70.9272 51.7047 70.4336 50.1753 67.0306 48.1153C66.2406 49.0165 66.3861 50.2001 66.081 51.2505ZM136.087 242.428C135.125 242.416 134.22 242.544 133.218 243.492C134.733 243.728 135.515 243.302 136.03 242.306C139.818 241.222 142.819 238.619 146.302 236.948C147.508 236.37 147.691 235.132 147.633 233.802C143.087 235.431 137.254 238.845 134.843 241.247C135.169 241.732 136.074 241.605 136.087 242.428ZM137.873 221.5C135.45 221.734 133.935 223.084 132.84 225.464C135.651 224.378 136.546 223.617 137.82 221.382C140.257 221.196 142.087 219.205 144.555 219.103C143.147 220.718 140.689 221.017 139.587 222.95C139.124 223.765 137.566 224.341 138.383 225.456C138.992 226.289 139.813 225.208 140.515 224.885C140.683 224.804 141.036 224.737 141.072 224.8C142.127 226.591 143.127 224.991 144.02 224.668C145.968 223.965 147.549 222.579 149.296 221.499C151.688 220.018 152.003 219.301 151.395 216.317C149.096 216.798 146.145 219.794 144.413 219.181C148.159 215.676 153.757 215.574 152.658 210.969C152.282 210.972 142.064 216.326 141.73 216.493C139.836 217.435 137.826 218.808 137.873 221.5ZM147.818 169.027C147.797 169.75 147.24 169.958 146.724 170.307C145.317 171.257 143.767 172.121 143.019 174.003C146.558 173.563 148.046 171.93 147.806 169.012C148.23 169.285 148.589 169.539 149.183 169.269C150.956 168.469 152.763 167.758 154.559 167.013C149.721 169.581 146.969 174.231 143.3 177.97C147.293 176.55 149.579 172.802 153.3 170.989C153.535 171.739 152.842 172.151 152.852 172.747C150.7 175.156 147.8 176.274 145.186 179.455C143.953 180.959 141.602 182.147 141.351 183.73C140.916 186.429 138.09 185.619 137.322 187.429C137.083 187.976 136.096 188.117 136.113 189.276C139.706 188.093 142.784 186.379 145.048 183.474C146.024 182.224 147.1 180.886 148.506 180.544C151.306 179.862 153.361 177.981 155.752 176.665C158.421 175.2 161.297 173.696 160.71 169.604C159.971 169.691 159.214 170.196 158.428 169.896C160.623 168.471 162.398 166.831 161.617 163.614C159.411 164.988 157.244 166.034 154.976 166.862C160.855 162.916 163.339 162.44 163.365 156.835C157.001 160.747 156.658 161.255 154.953 161.487C155.741 159.601 165.871 156.424 164.145 152.63C162.067 153.102 160.728 154.829 158.864 155.602C160.33 151.679 166.068 153.06 165.769 146.177C164.283 146.569 163.315 148.113 161.619 148.008C163.976 144.723 166.818 146.769 167.569 139.484C166.166 139.547 165.469 140.781 164.248 140.721C164.357 139.718 165.229 139.472 165.921 139.084C168.292 137.752 169.234 135.698 169.095 132.621C163.199 136.54 157 139.603 153.037 145.699C153.94 145.838 154.45 145.444 154.997 145.18C158.123 143.666 161.248 142.153 164.376 140.637C163.035 142.461 160.886 143.118 159.074 144.231C156.764 145.653 154.769 147.384 153.078 149.465C152.759 149.861 152.036 150.267 152.501 151.026C153.017 151.872 153.639 151.449 154.352 151.323C155.995 151.039 157.1 149.429 158.879 149.584C158.724 150.664 157.782 150.972 157.046 151.506C152.938 154.476 148.862 157.484 145.725 161.753C147.394 162.207 148.454 161.158 149.149 160.198C150.916 157.746 153.729 156.816 155.983 155.095C156.218 154.916 156.844 154.54 156.855 155.263C156.861 155.72 156.311 156.324 157.314 155.96C157.87 155.759 158.311 155.217 158.994 155.521C158.432 156.464 157.448 156.914 156.533 157.272C151.846 159.111 148.416 162.527 145.122 166.127C144.631 166.663 143.73 166.957 143.738 167.92C146.614 168.376 148.244 166.894 149.595 164.787C150.52 163.336 151.629 162.034 153.637 162.25C152.637 163.157 151.447 163.917 151.047 165.427C152.319 165.335 152.789 163.807 154.483 164.127C152.232 166.021 150.285 167.855 147.818 169.027ZM146.799 184.866C144.283 185.853 142.291 187.513 140.495 189.588C142.427 190.401 143.719 189.82 144.747 188.271C145.289 187.454 145.859 186.587 147.108 186.409C146.94 187.864 145.079 188.438 145.252 190.223C146.503 189.414 147.519 188.749 148.548 188.094C150.502 186.853 150.504 186.855 151.809 186.805C150.656 187.676 149.26 188.296 148.126 190.177C158.888 184.413 158.369 185.59 158.797 180.63C158.824 180.298 158.091 180.487 157.708 180.465C158.413 178.859 160.574 177.764 159.395 175.33C157.926 176.23 149.425 180.859 146.799 184.866ZM161.26 103.697C161.49 103.804 161.726 103.911 161.958 104.017C162.467 104.025 163.05 104.202 163.465 104.015C168.041 101.953 172.587 99.8336 177.144 97.7399C178.719 97.0163 178.772 96.2808 181.591 86.1795C181.76 85.5849 182.382 84.9239 181.666 84.2621C179.814 85.0481 178.94 86.4951 178.729 88.3533C178.532 90.107 177.923 91.7485 177.447 93.4253C176.463 96.8708 173.584 99.4689 168.946 97.5722C168.406 97.3519 167.962 97.3834 167.492 97.6476C165.939 98.5224 158.761 101.873 159.609 103.508C160 104.264 160.705 103.594 161.26 103.697ZM166.6 114.545C165.889 116.2 164.564 117.24 163.054 118.117C161.636 118.944 160.221 119.789 158.845 120.684C157.666 121.453 156.533 122.297 155.932 123.725C156.96 124.071 157.909 123.797 158.324 123.24C159.711 121.384 165.524 117.787 166.364 119.019C165.992 119.828 165.203 120.083 164.515 120.499C161.275 122.466 158.08 124.499 155.58 127.422C154.461 128.729 153.161 129.834 151.847 130.952C150.196 132.357 148.183 133.416 146.707 135.232C147.919 135.75 148.746 135.414 149.436 134.742C151.993 132.261 154.909 130.134 157.104 127.297C157.903 126.268 158.889 125.424 159.999 125.139C164.345 124.011 176.022 119.569 174.404 111.34C167.999 114.51 167.773 114.925 166.537 114.582C174.47 110.078 176.139 110.433 176.556 104.011C172.145 106.198 167.943 108.081 163.948 110.332C161.402 111.768 159.244 113.836 157.076 116.522C161.261 115.99 163.296 112.173 167.322 111.402C165.913 113.279 163.621 113.518 162.64 115.725C164.333 115.804 165.35 114.715 166.6 114.545ZM202.167 168.682C203.121 166.036 209.051 159.417 209.418 156.978C207.468 157.555 207.247 159.629 205.341 160.331C207.336 156.615 210.95 154.177 211.203 149.565C209.9 150.56 209.154 151.598 208.391 152.654C207.896 153.34 207.663 154.393 206.512 154.402L206.557 154.475C207.868 150.809 211.244 148.421 212.61 144.763C207.426 149.622 206.666 152.881 203.65 154.139C206.253 150.415 213.694 143.205 213.342 139.16C210.189 142.749 207.036 146.339 203.661 150.18C204.006 146.158 216.127 138.413 214.737 132.684C213.399 134.297 207.581 140.318 205.508 140.569C207.569 138.882 209.33 136.895 211.109 134.974C215.041 130.735 217.463 127.223 216.866 122.203C214.831 124.6 213.056 127.229 210.492 129.137L210.534 129.208C211.715 124.624 220.143 121.294 217.742 113.55C214.611 117.309 212.739 121.625 209.225 125.156C209.13 124.398 209.016 124.12 209.097 124.031C212.495 120.517 214.722 116.223 217.104 112.035C217.683 111.015 217.936 109.943 216.893 108.642C214.32 111.586 212.992 115.491 209.611 117.864C209.479 116.985 209.987 116.709 210.314 116.351C212.338 114.129 213.878 111.572 215.37 108.998C216.323 107.365 217.041 105.627 215.431 103.915C213.64 104.36 213.56 107.905 211.764 108.127L211.809 108.194C212.16 105.171 216.206 103.077 213.642 101.156C212.672 100.43 212.181 101.816 210.503 104.005C208.995 105.976 207.822 108.228 205.73 109.915C205.558 108.711 206.366 108.213 206.88 107.647C208.717 105.635 209.786 103.155 211.237 100.912C211.604 100.342 211.85 99.8191 211.154 99.3316C210.501 98.8716 209.845 98.6772 209.263 99.4268C209.077 99.6688 208.989 99.9878 208.799 100.229C206.676 103.006 204.549 105.785 202.397 108.54C202.084 108.938 201.782 109.649 200.881 109.033C203.658 105.834 206.196 102.575 207.931 98.7307C203.945 97.3229 204.718 97.5349 201.064 102.817C199.933 104.448 198.908 106.188 196.988 107.12C199.128 104.162 201.382 101.297 202.949 97.984C200.551 96.8449 200.408 96.8118 199.119 98.5997C195.348 103.825 195.372 105.518 192.816 106.399C195.22 103.223 197.181 100.395 198.528 97.1012C194.381 94.8523 194.4 101.667 187.928 105.649C189.89 102.708 192.584 100.306 194.233 96.913C188.901 95.6358 188.529 103.229 183.403 105.833C185.206 103.267 187.172 100.832 188.818 97.7894C180.019 97.7591 178.572 113.415 177.578 116.661C178.053 116.763 178.16 116.823 178.246 116.799C193.674 112.122 200.382 117.722 200.946 119.688C202.151 123.88 200.99 127.767 196.979 146.3C192.456 167.172 188.755 170.131 189.346 175.631C189.376 175.907 189.324 176.353 189.145 176.461C186.756 177.941 187.879 179.798 188.561 181.599C188.766 182.15 189.169 182.666 188.659 183.297C187.444 183.384 187.578 181.955 186.786 181.587C184.69 184.24 187.191 186.721 187.322 189.5C185.346 188.85 186.049 186.822 184.922 185.897C182.311 189.18 185.415 192.217 185.312 195.597C183.222 194.102 184.16 191.372 182.148 190.024C180.203 193.678 183.436 196.705 183.196 200.29C180.874 198.107 181.572 195.069 179.932 192.299C177.785 196.262 181.024 199.161 181.126 202.957C178.804 200.323 179 197.337 177.751 194.952C175.795 196.278 175.718 196.297 176.044 197.815C176.53 200.02 176.874 202.266 177.885 204.341C178.156 204.893 178.76 205.571 178.074 206.298C176.451 205.511 176.74 205.077 174.957 197.117C170.254 199.038 170.805 198.229 173.421 208.151C173.195 208.207 172.969 208.264 172.746 208.324C171.85 205.973 171.119 203.57 170.752 201.041C170.655 200.336 170.896 199.183 169.549 199.383C168.378 199.554 168.465 200.46 168.633 201.298C168.811 202.172 170.245 207.972 170.129 208.735C167.107 205.92 168.784 200.401 166.519 200.473C165.274 200.516 165.334 201.43 165.379 202.246C165.551 205.33 165.676 208.423 166.473 211.431C166.628 212.008 166.973 212.623 166.028 212.879C164.337 211.846 165.571 201.679 163.625 201.699C162.695 201.707 162.074 202.232 162.147 203.278C162.303 205.431 161.825 207.615 162.401 209.746C162.639 210.629 162.578 211.438 162.225 212.655C161.127 211.213 161.342 210.91 161.122 203.922C161.064 202.262 159.755 202.855 159.728 203.817C159.675 206.077 159.164 208.307 159.362 210.588C159.413 211.152 159.806 211.991 158.818 212.429C157.798 211.087 158.19 209.47 157.578 208.013C156.739 213.201 155.904 218.387 155 223.966C160.47 222.267 180.888 215.844 180.886 215.842C189.19 213.618 192.536 205.885 195.677 197.93C194.533 197.686 194.526 199.438 193.403 198.978L193.443 199.047C194.205 196.092 198.639 193.901 197.909 190.046C195.099 193.101 193.181 196.587 189.754 198.623L189.796 198.695C189.792 198.026 190.111 197.493 190.597 197.093C192.316 195.676 201.912 186.178 202.256 177.723C199.411 181.047 197.526 185.108 194.063 188.04C193.788 187.225 194.184 186.862 194.544 186.506C196.898 184.165 198.635 181.366 200.46 178.631C204.42 172.688 203.935 176.163 205.751 169.369C202.431 172.078 201.515 176.292 199.811 175.518L199.858 175.599C207.976 164.15 207.273 166.281 207.623 161.964C203.218 168.02 203.362 168.278 202.121 168.615L202.167 168.682ZM135.985 45.6168C138.591 45.1095 140.335 43.1751 142.642 41.782C137.619 40.9307 140.593 41.2708 128.833 47.0615C128.313 47.3192 127.747 47.7751 127.167 47.1174C130.172 45.3812 133.695 44.5227 136.352 41.876C133.264 39.9713 130.83 44.4191 124.765 45.0767L124.81 45.1654C125.66 43.8783 127.019 43.396 128.373 42.8788C129.539 42.435 130.591 41.8084 131.423 40.878C129.013 40.9573 126.983 41.989 124.848 42.6946C122.83 43.3598 120.863 44.4533 118.424 44.0521C118.996 43.2781 119.628 43.2957 120.203 43.1504C121.491 42.8232 130.396 40.0814 129.598 38.9594C129.114 38.2693 128.16 38.5964 127.365 38.8962C124.287 40.0674 120.972 40.4575 117.932 41.7609C117.518 41.9402 116.926 42.1226 116.44 41.3051C117.959 40.6975 119.433 40.1356 120.993 39.7133C122.869 39.206 124.71 38.5534 126.534 37.866C128.488 37.1278 127.062 35.1522 125.758 35.5437C123.986 36.0722 122.225 36.641 120.436 37.1168C119.399 37.3976 118.375 38.0911 116.907 37.3401C124.833 34.8048 126.032 34.8818 125.65 33.5626C125.203 32.0172 123.966 33.3925 123.072 33.4829C120.969 33.6951 119.102 35.0131 116.429 34.9696C117.8 33.9292 118.973 33.6924 120.08 33.314C121.442 32.8428 122.829 32.4365 124.205 32.004C125.641 31.5554 125.032 28.7051 123.181 29.6576C120.32 31.145 119.02 31.8589 117.575 31.1595C117.762 30.6465 118.022 30.4759 118.338 30.4657C120.188 30.4144 121.568 29.2013 123.173 28.5423C124.728 27.9034 123.667 26.2265 122.465 26.8179C121.053 27.5145 119.17 28.2107 119.174 26.6414C119.925 26.4072 120.701 26.1904 121.454 25.9144C123.154 25.2912 122.696 24.044 121.141 24.1957C120.085 24.3023 118.996 24.6538 117.879 24.1409C118.768 22.9233 120.436 23.8094 121.191 22.6438C121.243 21.8257 120.837 21.2375 120.335 20.7035C110.105 9.79888 98.4363 20.9269 96.1046 21.2595C93.417 21.6441 79.7602 24.7005 75.7225 26.2077C70.7716 28.0489 75.0052 30.3548 71.6831 31.3555C70.634 30.4926 72.3681 29.8699 71.6864 29.1146C68.151 30.8794 65.714 36.8423 67.2614 40.3575C71.3844 49.7054 74.2914 50.9046 72.5031 54.913C71.8762 56.3232 71.3354 57.7707 70.7764 59.2105C69.7809 61.8023 68.7297 64.3814 68.8448 67.2476C68.8822 68.1908 68.8287 69.1895 69.7778 69.7017C70.7305 70.2161 71.5495 69.4562 72.3373 69.0922C73.0788 68.7444 73.5851 68.0618 73.8422 67.2158C74.2592 65.8386 74.842 64.5222 74.9621 63.0483C75.1918 60.2046 75.8727 57.4433 76.6584 54.7045C78.9773 46.5696 89.4335 51.1111 89.8345 55.7465C89.9389 56.9261 89.4085 58.2207 90.2867 59.2783C91.0465 59.191 91.2936 58.5284 91.7711 58.1851C92.7187 57.5113 92.5665 55.4851 94.2932 55.9155C107.071 59.1019 114.448 69.2663 148.919 74.4178C162.991 76.5239 172.174 77.6822 171.022 86.1892C170.69 88.6163 170.499 91.0618 170.27 93.5033C170.166 94.6428 170.022 95.9055 171.455 96.3279C172.766 96.7128 173.931 96.1678 174.759 95.146C176.291 93.2637 177.254 90.9548 176.936 88.6594C176.361 84.5531 182.992 79.823 185.196 78.4035C191.247 74.5069 191.581 64.6443 184.481 60.7525C183.049 59.9682 181.611 59.1611 180.188 58.3461C175.479 55.642 170.988 52.8537 169.908 46.8325C169.655 45.4249 168.652 43.9427 166.678 44.1044C166.231 44.1438 165.957 44.0931 165.766 43.5917C165.223 42.1903 164.199 42.2417 163.046 42.8081C160.247 44.1865 162.202 41.0115 160.018 42.5977C158.501 43.711 157.021 45.6538 156.433 44.0434C157.102 42.899 159.582 42.868 159.459 41.1859C158.198 40.8825 156.911 40.3541 155.598 40.9298C154.784 41.2877 154.247 40.9857 153.49 40.7995C152 40.4375 150.362 41.5431 149.088 41.4592C147.488 41.3553 145.925 41.048 144.321 41.434C143.8 41.56 143.45 41.9362 143.033 42.2352C141.448 43.3799 139.812 44.4458 138.192 45.5474C137.469 46.0374 136.747 46.3922 135.984 45.6132L135.985 45.6168ZM159.207 199.677C163.182 199.044 169.728 196.363 172.279 194.864C173.164 194.343 173.943 193.691 174.743 193.038C181.319 187.696 183.021 178.257 185.225 172.079C187.125 166.734 202.258 120.087 196.145 117.706C188.743 114.83 176.703 117.099 176.119 121.417C175.706 124.501 174.539 127.388 173.82 130.391C173.517 131.645 159.669 188.385 159.207 199.677ZM57.6764 138.253C54.4188 130.981 54.4523 130.202 48.9016 120.956C47.2723 118.239 46.5284 114.96 43.8895 112.45C40.4225 121.216 44.6712 118.457 48.9296 129.063C49.0815 129.443 49.2231 130.038 50.0389 129.988C50.2253 128.029 48.0161 126.391 49.304 123.816C52.1112 135.588 54.3587 137.269 57.6764 138.253ZM30.4495 212.021C30.6039 210.275 29.6798 209.341 28.9317 208.403C27.189 206.226 25.6979 203.864 23.8505 201.748C21.003 198.488 17.6167 189.64 15.816 190.13C14.9186 190.378 14.9602 191.448 14.6296 192.166C14.1734 193.168 14.8273 193.94 15.2847 194.729C16.7507 197.275 18.6667 199.513 20.2927 201.934C22.9645 205.907 26.1054 209.296 30.4495 212.021ZM39.0786 125.785C37.2671 128.372 36.3345 130.69 38.1092 133.568C46.3524 146.934 46.0933 148.387 47.7702 149.2C47.0859 145.387 44.4691 141.232 44.3922 138.369C44.3238 135.77 42.8509 135.052 42.656 133.596C42.2809 130.77 40.9025 128.43 39.0786 125.785ZM52.6674 104.845C53.5493 104.155 53.5454 103.065 53.6826 103.433C54.3345 105.145 56.1921 105.854 56.6494 107.831C57.3328 110.784 59.2051 113.283 61.1145 115.665C59.419 107.533 55.6405 100.379 51.2713 93.299C48.1146 97.8605 50.5673 99.9253 52.6674 104.845ZM137.608 210.807C139.484 210.523 140.276 209.843 141.163 209.341C142.595 208.532 144.029 208.068 145.77 207.834C147.843 207.552 149.657 205.673 151.694 204.716C154.352 203.461 155.148 201.362 155.14 198.333C142.593 206.699 149.475 198.633 137.608 210.807ZM72.0511 88.3744C70.1397 81.2038 64.0409 70.3065 60.2822 67.2542C59.8898 68.5239 58.8517 69.7013 59.6529 71.0606C60.8846 73.1522 61.6917 75.4938 63.2363 77.4127C64.2218 76.9252 62.9848 75.9676 63.8744 75.4572C65.4322 77.3226 65.9751 79.6828 66.9627 81.8337C68.0842 84.2819 68.8447 87.0831 72.0511 88.3744ZM147.177 196.288C149.986 195.311 152.16 193.573 154.573 192.303C157.062 190.994 158.023 188.989 157.629 186.036C153.945 188.077 150.294 189.972 146.784 192.093C145.19 193.055 144.129 194.645 143.208 196.801C145.327 196.175 146.316 194.768 147.638 193.863C147.878 193.704 148.13 193.504 148.406 193.834C148.333 194.705 147.098 194.856 147.177 196.288ZM150.524 221.847C146.137 225.195 139.767 227.41 137.756 229.112C137.395 229.412 137.374 229.901 137.936 229.983C138.793 230.111 138.721 230.136 138.379 230.998C137.907 232.196 136.425 232.149 135.746 233.481C140.438 231.859 144.361 229.656 148.281 227.412C150.462 226.167 150.921 224.547 150.524 221.847ZM177.87 98.9026C169.423 102.049 164.299 105.185 160.134 110.854C163.229 109.504 165.819 107.877 168.295 106.059C168.967 105.566 169.866 104.646 170.379 104.907C172.339 105.894 173.381 104.14 174.853 103.758C177.48 103.083 177.86 101.228 177.87 98.9026ZM156.251 192.803C155.104 192.736 146.909 197.744 144.59 199.138C143.639 199.707 142.773 200.474 142.44 201.72C143.635 201.727 144.098 200.158 145.328 200.772C145.095 201.759 143.64 201.864 143.577 203.326C155.379 198.637 156.504 195.819 156.251 192.803ZM19.7496 178.647C15.8041 185.897 22.6753 189.009 25.9941 193.857C26.5461 194.664 26.7026 196.005 28.324 196.172C26.9778 192.652 24.2824 189.89 24.4214 186.065C24.4267 185.876 19.8555 178.803 19.7496 178.647ZM140.202 213.977C142.841 213.824 145.159 214.409 147.191 212.817C153.268 208.062 154.268 210.202 153.46 204.846C149.296 208.173 143.47 208.765 140.202 213.977ZM56.656 100.648C57.8306 99.3769 55.9418 98.2133 57.1639 97.2835C58.4716 98.8344 58.5884 101.073 60.2725 102.4C59.4347 96.853 56.191 92.4613 53.571 87.5238C51.738 90.3103 51.4898 90.7165 52.145 92.0353C53.5451 94.875 54.7701 97.8171 56.656 100.648ZM149.246 228.427C149.006 228.435 148.788 228.386 148.626 228.46C145.199 230.053 142.06 232.237 138.439 233.443C137.976 233.597 137.477 233.848 137.559 234.513C137.722 235.82 136.576 236.689 136.372 237.899C138.501 237.319 146.897 232.936 148.24 231.665C149.167 230.79 149.82 229.79 149.246 228.427ZM68.3428 90.3192C68.1716 86.6266 61.9554 75.9297 58.6339 72.9174C56.8596 75.479 57.813 76.2441 61.5529 82.4654C61.8836 83.0184 62.0277 83.9011 63.0361 83.6875C63.0223 82.4077 61.4838 81.4701 62.3166 79.7665C64.4675 83.1344 65.6393 86.7932 68.3428 90.3192ZM65.0076 54.6882C62.1599 59.2298 62.8021 62.6422 67.0593 66.0518C67.2567 64.4791 67.4763 62.9783 67.9752 61.5363C68.1855 60.9297 68.0959 60.3695 67.7705 59.7889C66.875 58.2043 66.0337 56.5951 65.0076 54.6882ZM17.6711 184.862C14.7679 188.27 17.6941 189.326 23.6829 199.455C23.9047 199.834 24.1557 200.42 24.803 200.159C24.0507 198.36 23.3742 196.541 22.5361 194.795C22.0242 193.726 22.7879 192.576 22.0684 191.539C20.5825 189.384 19.183 187.171 17.6711 184.862ZM20.3348 204.618C18.5515 201.087 16.2181 197.986 13.9018 194.56C12.5958 196.748 12.7571 198.449 13.954 200.26C15.4858 202.575 16.8564 204.977 20.3348 204.618ZM57.1402 77.6445C55.9614 78.7537 55.5875 80.0302 56.1771 81.1259C57.7443 84.0182 59.132 87.0699 61.8375 89.3004C61.4483 87.3563 60.3403 85.5598 60.9405 83.5091C61.0052 83.2893 60.7316 82.9448 60.5685 82.6929C59.5326 81.0531 58.7758 79.2269 57.1402 77.6445ZM86.6671 59.387C86.6829 55.472 85.8922 54.1279 83.4595 53.3295C82.3037 52.9522 81.7508 53.6313 81.2253 54.4111C80.739 55.1238 80.8395 55.8347 81.5818 56.2432C83.24 57.159 84.4622 58.7965 86.6671 59.387ZM123.407 226.002C128.571 227.42 131.794 226.047 133.401 221.962C129.395 221.577 127.354 226.068 123.407 226.002ZM134.531 217.62C130.33 216.506 129.027 217.007 126.647 220.572C129.999 221.531 132.627 220.635 134.531 217.62ZM133.263 196.133C137.078 196.165 139.587 194.026 142.107 191.102C137.72 190.772 135.811 194.057 133.263 196.133ZM136.557 243.425C141.631 243.822 144.813 242.205 145.394 238.542C142.337 240.335 139.535 242.047 136.557 243.425ZM136.994 179.293C140.502 179.998 141.864 177.386 144.127 175.278C140.214 174.677 138.96 177.597 136.994 179.293ZM131.669 211.055C134.884 212.304 136.277 211.552 138.663 207.494C135.356 207.04 134.002 209.648 131.669 211.055ZM125.361 231.331C129.69 231.889 130.917 231.252 132.85 227.601C129.907 227.888 127.59 229.179 125.361 231.331ZM125.494 241.079C129.347 242.097 131.023 239.755 133.287 237.653C129.661 236.851 128.145 239.537 125.494 241.079ZM131.64 215.79C136.055 216.896 137.554 216.111 139.044 212.373C136.332 212.691 134.41 214.429 131.64 215.79ZM155.484 126.006C153.108 126.36 150.674 126.626 149.357 129.03C152.437 130.062 153.766 127.633 155.484 126.006ZM140.498 161.263C142.899 162.382 143.762 162.498 146.68 158.431C144.997 160.206 141.939 158.868 140.498 161.263ZM138.6 196.353C140.969 196.622 142.532 195.887 143.443 194.189C143.597 193.905 143.666 193.586 143.387 193.395C143.171 193.253 142.765 193.125 142.59 193.229C141.175 194.09 139.697 194.895 138.6 196.353ZM167.78 96.0845C167.941 95.1686 167.971 94.2973 167.296 93.4051C165.62 93.9274 164.057 94.6091 162.609 96.3253C165.772 95.3397 165.772 95.3397 167.78 96.0845ZM132.847 230.226C135.062 229.953 136.426 228.423 138.256 226.857C135.19 226.583 134.359 228.912 132.847 230.226ZM152.583 146.66C150.703 146.901 149.683 148.216 148.731 149.619C150.488 149.274 151.791 148.314 152.583 146.66ZM129.696 233.769C127.753 233.944 125.919 234.413 124.259 236.358C126.815 236.347 128.172 234.901 129.696 233.769ZM161.594 87.2895C163.335 87.0138 164.88 86.4502 165.76 84.3921C163.959 85.1202 162.543 85.8644 161.594 87.2895ZM165.1 87.6925C166.934 87.5799 167.702 86.2087 168.858 85.4843C169.345 85.184 168.605 83.9301 168.093 84.6457C167.294 85.7579 165.514 85.8502 165.1 87.6925ZM135.65 234.934C134.566 235.27 132.961 234.563 132.4 236.456C133.791 236.265 135.06 236.408 135.65 234.934ZM137.35 218.851C137.315 218.725 137.311 218.614 137.251 218.535C137.224 218.494 137.083 218.479 137.039 218.512C136.184 219.194 134.735 219.219 134.336 220.902C136.026 220.817 136.636 219.748 137.35 218.851ZM183.079 98.8685C181.242 99.0376 181.203 99.9409 181.615 101.356C182.469 100.691 182.856 99.9931 183.079 98.8685ZM143.796 165.543C142.545 166.053 141.246 166.59 140.631 167.962C142.144 167.8 142.985 166.723 143.796 165.543ZM40.1608 180.63C40.0494 182.272 40.6584 183.34 42.7866 183.599C41.6988 182.37 40.9271 181.498 40.1608 180.63ZM38.207 146.796C38.0843 148.552 38.7487 149.307 40.1617 150.209C39.8628 148.625 39.3429 147.782 38.207 146.796ZM138.275 206.736C140.104 206.784 140.839 206.156 141.02 204.679C139.846 204.933 139.1 205.528 138.275 206.736ZM48.3746 142.496C48.8053 143.779 48.9556 144.694 50.1306 145.062C50.051 143.981 49.6941 143.236 48.3746 142.496ZM139.069 201.783C140.58 201.705 141.209 201.231 141.777 200.233C140.525 200.088 140.073 200.879 139.069 201.783ZM37.9198 182.513C38.6185 183.779 38.994 184.633 40.1852 185.054C39.8884 183.857 39.4692 183.113 37.9198 182.513ZM151.913 144.311C150.741 144.851 149.727 144.806 149.511 146.273C150.702 146.091 151.372 145.685 151.913 144.311ZM61.8441 84.8848C61.2788 85.8323 61.7998 86.3842 62.6513 87.0399C62.9129 86.0108 62.3512 85.4714 61.8441 84.8848Z" fill="white"/>
<path fill-rule="evenodd" clip-rule="evenodd" d="M152.872 172.754C155.101 172.51 156.339 170.347 158.448 169.878C157.038 171.739 153.78 173.7 151.961 173.777C152.266 173.434 152.569 173.095 152.872 172.754Z" fill="white"/>
<path fill-rule="evenodd" clip-rule="evenodd" d="M29.578 189.731C29.1578 188.695 28.7905 187.632 28.3002 186.633C27.9215 185.867 27.6661 185.144 28.0359 184.316C29.1847 186.013 29.8319 187.93 30.4753 189.849C30.1738 189.809 29.8762 189.771 29.578 189.731Z" fill="white"/>
<path fill-rule="evenodd" clip-rule="evenodd" d="M161.256 103.717C162.272 102.349 163.462 101.206 165.716 100.212C164.461 102.147 163.025 102.919 161.954 104.038C161.723 103.931 161.487 103.824 161.256 103.717Z" fill="white"/>
<path fill-rule="evenodd" clip-rule="evenodd" d="M55.0726 109.037C55.4159 109.581 55.4887 110.168 55.3217 110.786C54.4983 109.863 53.436 109.06 53.6727 107.588L53.6011 107.63C54.3792 107.846 54.5378 108.72 55.163 109.1L55.0726 109.037Z" fill="white"/>
<path fill-rule="evenodd" clip-rule="evenodd" d="M44.5816 154.558C44.9022 155.141 44.3774 155.834 44.0425 155.298C43.6715 154.703 43.2141 154.135 43.4199 153.357C43.8184 153.785 44.2221 154.214 44.6246 154.644C44.623 154.646 44.5816 154.558 44.5816 154.558Z" fill="white"/>
<path fill-rule="evenodd" clip-rule="evenodd" d="M32.5869 148.4C34.7052 149.609 35.15 152.013 36.4414 153.811C37.0735 154.693 37.2016 155.919 38.5409 156.272C39.3208 156.479 39.2885 157.412 39.559 158.062C40.8197 161.09 41.8856 164.204 43.7027 166.982C44.3969 168.042 45.1022 169.009 46.3211 169.482C46.0462 170.227 45.2514 170.326 44.0982 170.81C51.4991 175.291 58.3507 179.679 66.0551 182.552C60.5794 181.294 55.6466 178.887 51.0785 175.7C48.6041 173.974 48.6193 173.953 45.8146 173.52C45.6187 174.744 47.0305 175.685 46.3414 177.216C45.7951 176.211 45.2023 175.403 44.9074 174.495C44.6468 173.687 44.2291 172.987 43.7828 172.316C43.3362 171.646 42.6915 171.1 42.0868 170.552C41.0611 169.612 43.0244 169.451 42.5442 168.496C41.666 166.752 41.2558 164.756 40.244 163.114C39.7826 162.369 32.4166 149.197 32.5869 148.4Z" fill="white"/>
<path fill-rule="evenodd" clip-rule="evenodd" d="M32.5959 156.908C33.1796 156.986 33.4784 157.446 33.7168 157.876C35.8235 161.691 38.4289 165.203 40.1739 169.253C41.1596 171.537 42.9166 173.487 44.3611 175.636C43.1518 176.165 43.1758 174.56 42.3008 174.713C41.9982 176.054 43.7346 177.645 45.0064 178.312C49.471 180.643 53.5332 183.685 58.1242 185.821C59.7876 186.594 61.5331 187.161 63.178 187.973C56.0487 186.739 50.5833 181.934 44.0503 178.893C44.2202 181.126 45.8108 182.669 45.7465 184.732C43.5667 181.526 42.9607 177.282 39.065 175.395C39.761 174.454 40.0771 175.56 40.7763 175.209C40.3171 169.612 36.9586 167.968 32.8456 158.317C32.6413 157.839 32.3868 157.394 32.6728 156.866L32.5959 156.908Z" fill="white"/>
<path fill-rule="evenodd" clip-rule="evenodd" d="M130.392 99.8157C130.035 101.185 106.238 95.6761 95.2149 90.9791C95.027 90.8985 94.8073 90.896 94.6007 90.8617C94.6007 90.8617 94.5917 90.8731 94.5924 90.8744C96.6328 90.4463 97.9143 91.7927 110.887 95.4462C117.323 97.2592 123.89 98.537 130.436 99.8747L130.392 99.8157Z" fill="white"/>
<path fill-rule="evenodd" clip-rule="evenodd" d="M92.8396 101.206C94.1936 101.207 122.13 109.939 122.991 110.368C121.728 110.042 98.9766 104.66 92.9247 101.177C92.9048 101.182 92.8396 101.206 92.8396 101.206Z" fill="white"/>
<path fill-rule="evenodd" clip-rule="evenodd" d="M118.454 89.6029C116.811 91.4472 88.6233 81.1188 88.249 78.4637L88.1708 78.4884C97.7115 83.7404 107.962 87.0736 118.494 89.6403L118.454 89.6029Z" fill="white"/>
<path fill-rule="evenodd" clip-rule="evenodd" d="M60.3734 119.417C61.8086 122.604 64.3282 124.703 67.3623 126.335C65.5919 126.425 64.6297 124.694 62.9902 124.592C62.4377 125.357 63.4547 126.082 62.8575 127.505C62.0085 124.42 59.9135 122.36 60.4531 119.384L60.3734 119.417Z" fill="white"/>
<path fill-rule="evenodd" clip-rule="evenodd" d="M118.496 89.6439C124.18 90.8389 129.864 92.0349 135.555 93.234C129.781 92.3891 123.865 92.154 118.468 89.6147C118.455 89.6052 118.496 89.6439 118.496 89.6439Z" fill="white"/>
<path fill-rule="evenodd" clip-rule="evenodd" d="M86.1468 114.148C76.1005 108.853 74.9057 108.446 74.0158 106.698C74.0125 106.698 73.918 106.761 73.9145 106.762C76.24 107.555 78.124 109.147 80.2801 110.263C81.8946 111.1 83.3119 112.327 85.1243 112.783C85.8596 112.969 85.9869 113.556 86.133 114.147L86.1468 114.148Z" fill="white"/>
<path fill-rule="evenodd" clip-rule="evenodd" d="M153.33 110.642C153.188 111.629 152.197 111.946 151.72 112.674C151.95 113.372 152.73 113.134 153.15 113.516C150.505 114.21 147.878 113.922 145.193 113.404C148.382 113.761 150.933 112.417 153.33 110.642Z" fill="white"/>
<path fill-rule="evenodd" clip-rule="evenodd" d="M141.464 157.077C137.832 156.16 135.046 157.644 131.153 156.242C134.576 156.674 138.152 155.025 141.457 157.094C141.46 157.106 141.464 157.077 141.464 157.077Z" fill="white"/>
<path fill-rule="evenodd" clip-rule="evenodd" d="M88.3331 64.9001C91.1413 64.5315 94.3114 68.0109 98.7203 69.2246C94.8976 68.6797 91.6142 66.878 88.3997 64.8707C88.3765 64.8755 88.3331 64.9001 88.3331 64.9001Z" fill="white"/>
<path fill-rule="evenodd" clip-rule="evenodd" d="M69.1296 176.835C66.1395 176.249 63.2494 175.42 60.5509 173.542C63.7685 174.112 66.2328 176.014 69.1296 176.835Z" fill="white"/>
<path fill-rule="evenodd" clip-rule="evenodd" d="M148.11 89.2636C144.754 89.2 141.511 88.5381 138.349 87.4337C141.655 87.8846 144.981 88.2244 148.154 89.3662L148.11 89.2636Z" fill="white"/>
<path fill-rule="evenodd" clip-rule="evenodd" d="M68.6212 134.336C66.2875 133.412 64.1462 132.147 61.8248 130.567C63.4536 130.631 64.7443 130.32 65.5491 132.006C66.0862 133.129 67.9251 133.064 68.5302 134.378L68.6212 134.336Z" fill="white"/>
<path fill-rule="evenodd" clip-rule="evenodd" d="M40.852 196.103C43.8251 196.888 46.7312 197.791 48.7244 200.376L48.797 200.348C46.1805 198.919 43.566 197.487 40.9296 196.066C40.9058 196.073 40.852 196.103 40.852 196.103Z" fill="white"/>
<path fill-rule="evenodd" clip-rule="evenodd" d="M108.017 230.553C104.974 230.775 102.077 230.062 99.2035 229.196C102.191 229.323 105.133 229.751 108.017 230.553Z" fill="white"/>
<path fill-rule="evenodd" clip-rule="evenodd" d="M72.894 101.36C75.0729 101.791 76.5805 103.389 78.3349 104.554C76.4671 103.619 74.5 102.851 72.9934 101.313C72.9878 101.313 72.894 101.36 72.894 101.36Z" fill="white"/>
<path fill-rule="evenodd" clip-rule="evenodd" d="M88.1284 81.0248C89.7398 81.9005 91.3541 82.7738 92.9631 83.6467C91.0894 83.286 89.3625 82.6504 88.1883 81.0171L88.1284 81.0248Z" fill="white"/>
<path fill-rule="evenodd" clip-rule="evenodd" d="M55.4131 190.9C54.0784 190.598 55.3287 191.194 50.6958 188.776C52.9019 188.687 53.819 190.538 55.4131 190.9Z" fill="white"/>
<path fill-rule="evenodd" clip-rule="evenodd" d="M89.2692 76.8003C87.7171 75.4307 85.6512 74.9295 84.0045 73.7076C83.9938 73.7141 83.9074 73.7515 83.8983 73.7563C86.0755 74.0693 88.1431 74.5862 89.2234 76.822L89.2692 76.8003Z" fill="white"/>
<path fill-rule="evenodd" clip-rule="evenodd" d="M137.49 147.123C136.047 147.882 134.541 147.365 133.029 147.316C134.471 146.709 135.943 146.654 137.49 147.123Z" fill="white"/>
<path fill-rule="evenodd" clip-rule="evenodd" d="M67.8959 114.443C69.9531 113.943 71.282 115.287 73.1737 116.51C70.8412 116.408 69.6715 114.746 67.9482 114.401C67.9273 114.408 67.8959 114.443 67.8959 114.443Z" fill="white"/>
<path fill-rule="evenodd" clip-rule="evenodd" d="M68.5307 134.378C70.1943 134.586 71.4798 135.585 72.7764 136.565C71.3268 135.967 69.878 135.36 68.6312 134.334C68.6227 134.336 68.5307 134.378 68.5307 134.378Z" fill="white"/>
<path fill-rule="evenodd" clip-rule="evenodd" d="M75.4796 97.5308C76.8121 97.7803 77.8543 98.5296 79.0544 99.6748C77.3883 99.3313 76.2133 98.8254 75.5674 97.4786L75.4796 97.5308Z" fill="white"/>
<path fill-rule="evenodd" clip-rule="evenodd" d="M130.435 99.8767C132.046 99.9591 133.544 100.455 135.008 101.075C133.383 101 131.779 100.835 130.399 99.8254C130.393 99.818 130.435 99.8767 130.435 99.8767Z" fill="white"/>
<path fill-rule="evenodd" clip-rule="evenodd" d="M134.987 141.347C136.347 141.454 137.159 141.144 137.935 141.463C138.346 141.84 137.389 142.631 134.987 141.347Z" fill="white"/>
<path fill-rule="evenodd" clip-rule="evenodd" d="M155.599 96.7674C155.259 98.1077 154.224 98.2868 152.534 98.5535C153.639 97.2749 154.417 96.6608 155.639 96.8425L155.599 96.7674Z" fill="white"/>
<path fill-rule="evenodd" clip-rule="evenodd" d="M60.6596 192.981C59.4893 192.863 58.6805 192.626 57.9961 192.018C58.7863 192.304 59.5771 192.589 60.6596 192.981Z" fill="white"/>
<path fill-rule="evenodd" clip-rule="evenodd" d="M48.7254 200.377C50.3567 200.763 52.2681 200.53 53.2259 202.407L53.2912 202.393C51.9547 201.376 50.2469 201.167 48.8129 200.343C48.7983 200.348 48.7254 200.377 48.7254 200.377Z" fill="white"/>
<path fill-rule="evenodd" clip-rule="evenodd" d="M125.733 110.47C126.749 110.782 127.763 111.094 128.775 111.404C128.761 111.487 128.747 111.568 128.731 111.648C127.731 111.34 126.734 111.034 125.736 110.728C125.734 110.645 125.735 110.558 125.733 110.47Z" fill="white"/>
<path fill-rule="evenodd" clip-rule="evenodd" d="M112.333 231.232C110.73 231.741 109.34 230.857 107.865 230.557C109.459 230.086 110.845 230.99 112.333 231.232Z" fill="white"/>
<path fill-rule="evenodd" clip-rule="evenodd" d="M144.057 108.424C144.948 108.401 145.84 108.376 147.061 108.345C145.991 109.244 145.122 109.106 144.057 108.424Z" fill="white"/>
<path fill-rule="evenodd" clip-rule="evenodd" d="M144.173 104.152C145.581 103.952 146.573 103.563 147.605 104.357C146.597 104.447 145.699 104.574 144.173 104.152Z" fill="white"/>
<path fill-rule="evenodd" clip-rule="evenodd" d="M153.094 115.424C152.782 116.719 151.717 116.929 150.657 117.13C151.312 116.328 151.963 115.516 153.135 115.496L153.094 115.424Z" fill="white"/>
<path fill-rule="evenodd" clip-rule="evenodd" d="M126.196 196.562C125.313 197.31 124.33 197.101 123.176 196.894C124.26 196.1 125.251 196.42 126.239 196.667L126.196 196.562Z" fill="white"/>
<path fill-rule="evenodd" clip-rule="evenodd" d="M140.734 113.392C141.491 113.094 142.332 112.716 143.216 113.269C142.445 113.768 141.624 113.571 140.734 113.392Z" fill="white"/>
<path fill-rule="evenodd" clip-rule="evenodd" d="M141.355 101.844C142.277 101.836 142.986 102.155 144.113 102.737C142.929 102.349 142.105 102.422 141.355 101.844Z" fill="white"/>
<path fill-rule="evenodd" clip-rule="evenodd" d="M137.543 93.524C138.272 93.747 139.004 93.9723 139.488 94.1203C139.009 94.0477 138.274 93.9344 137.533 93.8182C137.534 93.7198 137.543 93.6214 137.543 93.524Z" fill="white"/>
<path fill-rule="evenodd" clip-rule="evenodd" d="M70.932 153.435C71.421 153.585 71.9073 153.734 72.3946 153.883C72.3922 153.891 72.3881 153.897 72.3856 153.905C71.9016 153.756 71.4143 153.607 70.9263 153.457C70.93 153.448 70.9322 153.441 70.932 153.435Z" fill="white"/>
<path fill-rule="evenodd" clip-rule="evenodd" d="M146.91 82.3221C147.81 82.3634 148.74 82.2717 149.606 82.8684C148.535 83.1707 147.762 82.4442 146.867 82.2699C146.858 82.2606 146.91 82.3221 146.91 82.3221Z" fill="white"/>
<path fill-rule="evenodd" clip-rule="evenodd" d="M45.0466 210.764C45.9771 210.814 46.7914 211.198 48.0625 211.785C46.607 211.795 45.7864 211.487 45.1255 210.723C45.1203 210.725 45.0466 210.764 45.0466 210.764Z" fill="white"/>
<path fill-rule="evenodd" clip-rule="evenodd" d="M49.5158 206.423C50.6031 206.202 51.4681 206.763 52.6153 207.304C51.2688 207.521 50.3994 207.1 49.6087 206.376C49.599 206.383 49.5158 206.423 49.5158 206.423Z" fill="white"/>
<path fill-rule="evenodd" clip-rule="evenodd" d="M64.6754 168.343C63.928 168.638 63.3942 168.144 62.7801 167.892C63.5538 167.49 64.0959 167.933 64.6754 168.343Z" fill="white"/>
<path fill-rule="evenodd" clip-rule="evenodd" d="M89.2238 76.8223C90.5461 76.9677 92.0376 76.7626 92.5929 78.4657L92.6393 78.4561C91.761 77.4468 90.3708 77.4509 89.2902 76.7939C89.2697 76.8006 89.2238 76.8223 89.2238 76.8223Z" fill="white"/>
<path fill-rule="evenodd" clip-rule="evenodd" d="M53.2259 202.408C54.3333 202.41 55.3502 202.715 56.2715 203.361C55.1807 203.394 54.2436 202.911 53.3079 202.388C53.2916 202.392 53.2259 202.408 53.2259 202.408Z" fill="white"/>
<path fill-rule="evenodd" clip-rule="evenodd" d="M58.7382 158.851C59.8642 158.747 60.9512 158.825 61.9671 159.679C60.6832 159.974 59.8558 158.918 58.766 158.849C58.7467 158.852 58.7382 158.851 58.7382 158.851Z" fill="white"/>
<path fill-rule="evenodd" clip-rule="evenodd" d="M55.8838 171.299C56.8205 171.587 57.7571 171.874 58.6948 172.161C57.6013 172.371 56.6843 172.108 55.9787 171.256C55.9712 171.259 55.8838 171.299 55.8838 171.299Z" fill="white"/>
<path fill-rule="evenodd" clip-rule="evenodd" d="M77.4252 139.181C77.9915 139.117 78.4372 139.341 78.824 139.713C78.36 139.534 77.7882 139.645 77.4252 139.181Z" fill="white"/>
<path fill-rule="evenodd" clip-rule="evenodd" d="M72.4519 164.946C71.986 164.801 71.5221 164.661 71.0589 164.518C71.5316 164.63 72.0076 164.738 72.4825 164.847C72.4718 164.881 72.4617 164.914 72.4519 164.946Z" fill="white"/>
<path fill-rule="evenodd" clip-rule="evenodd" d="M73.3604 148.412C74.0689 148.182 74.3969 148.537 74.7454 148.837C74.3328 148.71 73.9211 148.583 73.3604 148.412Z" fill="white"/>
<path fill-rule="evenodd" clip-rule="evenodd" d="M89.1051 105.319C89.5335 106.066 90.5525 105.819 91.0875 106.486C90.1397 106.54 89.4772 106.238 89.1768 105.325C89.1634 105.327 89.1051 105.319 89.1051 105.319Z" fill="white"/>
<path fill-rule="evenodd" clip-rule="evenodd" d="M89.9967 95.3387C89.4868 95.1503 88.9756 94.9626 88.225 94.6849C89.1613 94.4953 89.5837 94.9 89.9967 95.3387Z" fill="white"/>
<path fill-rule="evenodd" clip-rule="evenodd" d="M78.676 125.992C79.454 125.773 79.9964 126.215 80.6359 126.578C79.8712 126.627 79.2337 126.5 78.676 125.992Z" fill="white"/>
<path fill-rule="evenodd" clip-rule="evenodd" d="M88.2473 78.4645C87.4441 78.4692 86.7258 78.1819 85.9431 77.8183C86.9346 77.4079 87.4809 78.1429 88.1593 78.4961C88.169 78.4893 88.2473 78.4645 88.2473 78.4645Z" fill="white"/>
<path fill-rule="evenodd" clip-rule="evenodd" d="M72.2592 122.068C72.8224 122.456 73.3854 122.849 74.1595 123.384C73.1542 123.158 72.1675 123.31 72.319 122.029L72.2592 122.068Z" fill="white"/>
<path fill-rule="evenodd" clip-rule="evenodd" d="M88.1884 81.0172C86.8021 81.039 85.6527 80.2487 84.3641 79.9086C84.3543 79.9088 84.3452 79.9136 84.3452 79.9136C85.8048 79.5876 86.9333 80.3649 88.1115 81.0272C88.1285 81.0248 88.1884 81.0172 88.1884 81.0172Z" fill="white"/>
<path fill-rule="evenodd" clip-rule="evenodd" d="M76.5787 144.072C77.394 144.217 77.1721 144.176 77.4742 144.471C76.7408 144.349 76.9736 144.421 76.5787 144.072Z" fill="white"/>
<path fill-rule="evenodd" clip-rule="evenodd" d="M65.8016 119.463C66.8847 119.677 68.3628 119.26 68.4174 121.104C68.4229 121.097 68.4341 121.071 68.4341 121.071C67.9292 120.009 66.6821 120.076 65.8863 119.432C65.8674 119.44 65.8016 119.463 65.8016 119.463Z" fill="white"/>
<path fill-rule="evenodd" clip-rule="evenodd" d="M83.7905 121.674C83.3675 121.778 83.5719 121.904 82.5909 121.454C83.1092 121.236 83.174 121.388 83.7905 121.674Z" fill="white"/>
<path fill-rule="evenodd" clip-rule="evenodd" d="M72.3189 122.029C70.8338 122.497 69.792 121.228 68.4518 121.062C68.4339 121.071 68.4236 121.097 68.4172 121.104C69.8666 120.716 71.0294 121.453 72.2382 122.076C72.259 122.068 72.3189 122.029 72.3189 122.029Z" fill="white"/>
<path fill-rule="evenodd" clip-rule="evenodd" d="M60.1341 152.721C60.9866 152.531 61.7179 152.871 62.5102 153.281C61.5152 153.77 60.9478 152.942 60.2163 152.683C60.1978 152.69 60.1341 152.721 60.1341 152.721Z" fill="white"/>
<path fill-rule="evenodd" clip-rule="evenodd" d="M86.1334 114.148C87.0389 114.005 87.9041 114.074 88.92 114.783C87.5099 115.121 87.2859 114.039 86.1334 114.148Z" fill="white"/>
<path fill-rule="evenodd" clip-rule="evenodd" d="M96.6151 85.5311C96.0859 85.6897 95.3819 85.4828 95.3784 85.1495C95.377 84.6517 96.2547 85.1683 96.6151 85.5311Z" fill="white"/>
<path fill-rule="evenodd" clip-rule="evenodd" d="M76.0957 113.494C75.7418 112.847 74.7149 113.101 74.4442 112.234C75.2202 112.398 76.1647 112.234 76.0533 113.48C76.0603 113.483 76.0957 113.494 76.0957 113.494Z" fill="white"/>
<path fill-rule="evenodd" clip-rule="evenodd" d="M132.748 199.638C132.92 200.735 132.42 201.245 131.137 201.374C131.419 200.342 132.348 200.279 132.799 199.74C132.794 199.724 132.748 199.638 132.748 199.638Z" fill="white"/>
<path fill-rule="evenodd" clip-rule="evenodd" d="M79.87 114.654C80.1304 115.337 81.022 115.261 81.4684 115.904C80.5302 115.847 79.7226 115.813 79.9166 114.637L79.87 114.654Z" fill="white"/>
<path fill-rule="evenodd" clip-rule="evenodd" d="M85.3914 104.045C84.8935 103.702 84.3956 103.358 83.3247 102.62C84.6177 103.04 85.501 102.826 85.3824 104.042L85.3914 104.045Z" fill="white"/>
<path fill-rule="evenodd" clip-rule="evenodd" d="M66.3367 162.377C66.8086 162.29 67.262 162.402 67.6501 162.756C67.1332 162.977 66.7706 162.589 66.3367 162.377Z" fill="white"/>
<path fill-rule="evenodd" clip-rule="evenodd" d="M92.5929 78.4661C93.426 78.463 94.2011 78.6787 95.0319 79.0311C94.0554 79.407 93.4477 78.6 92.6606 78.4511C92.6403 78.4568 92.5929 78.4661 92.5929 78.4661Z" fill="white"/>
<path fill-rule="evenodd" clip-rule="evenodd" d="M66.5793 150.797C66.0733 150.831 65.6097 150.82 65.297 150.342C65.8234 150.237 66.2187 150.428 66.5793 150.797Z" fill="white"/>
<path fill-rule="evenodd" clip-rule="evenodd" d="M67.9342 145.03C68.0647 145.184 68.2334 145.383 68.3951 145.584C67.8905 145.547 67.2605 145.526 67.3404 145.025C67.3438 145 67.673 145.024 67.9342 145.03Z" fill="white"/>
<path fill-rule="evenodd" clip-rule="evenodd" d="M85.3818 104.042C86.7041 104.203 87.9006 104.729 89.0873 105.321C89.105 105.32 89.1636 105.327 89.1771 105.326C87.9271 104.903 86.6638 104.474 85.3954 104.047C85.391 104.044 85.3818 104.042 85.3818 104.042Z" fill="white"/>
<path fill-rule="evenodd" clip-rule="evenodd" d="M79.9174 114.638C78.4716 114.863 77.4 113.835 76.11 113.493C76.0943 113.494 76.0589 113.482 76.052 113.48C77.3731 113.659 78.6046 114.152 79.8516 114.662C79.8712 114.655 79.9174 114.638 79.9174 114.638Z" fill="white"/>
<path fill-rule="evenodd" clip-rule="evenodd" d="M134.775 152.011C134.002 152.7 133.346 152.049 132.304 151.955C133.456 151.193 134.118 151.734 134.804 152.087L134.775 152.011Z" fill="white"/>
<path fill-rule="evenodd" clip-rule="evenodd" d="M148.154 89.3681C148.924 88.5302 149.515 89.3416 150.139 89.7357C149.463 89.5797 148.785 89.4234 148.109 89.2664L148.154 89.3681Z" fill="white"/>
<path fill-rule="evenodd" clip-rule="evenodd" d="M161.452 74.887C161.128 74.067 161.732 73.7722 162.242 73.4431C163.097 72.8852 163.924 72.246 164.846 71.8265C165.531 71.5134 165.78 70.0378 166.69 70.804C167.086 71.1394 166.964 72.0162 167.955 71.7538C168.297 71.6636 168.468 72.1882 168.258 72.3667C167.389 73.1069 166.846 74.7785 165.216 73.6587C164.649 73.2705 164.312 73.6723 163.854 73.8113C163.002 74.0708 162.528 75.1701 161.452 74.887Z" fill="white"/>
<path fill-rule="evenodd" clip-rule="evenodd" d="M91.083 40.4937C92.3857 42.2317 91.4214 42.2365 92.4836 49.8804C92.745 51.7741 91.0807 51.7153 91.0737 50.1504C91.0594 46.9305 91.0763 43.7115 91.083 40.4937Z" fill="white"/>
<path fill-rule="evenodd" clip-rule="evenodd" d="M76.2702 42.3729C75.1069 40.1041 75.6384 34.2155 77.396 31.4988C77.244 35.6151 76.3851 38.9598 76.2702 42.3729Z" fill="white"/>
<path fill-rule="evenodd" clip-rule="evenodd" d="M88.722 50.1094C87.3634 48.3737 87.3791 43.2935 88.6408 39.4426C88.6528 42.9968 88.6323 46.554 88.722 50.1094Z" fill="white"/>
<path fill-rule="evenodd" clip-rule="evenodd" d="M85.8145 37.5308C86.0464 41.1808 86.5873 44.8284 85.8271 48.4823C84.902 44.8347 85.3548 41.1817 85.8145 37.5308Z" fill="white"/>
<path fill-rule="evenodd" clip-rule="evenodd" d="M94.8655 53.518C94.213 50.1506 94.3017 46.7802 94.4258 43.1616C95.3342 44.9952 95.7295 51.7093 94.8655 53.518Z" fill="white"/>
<path fill-rule="evenodd" clip-rule="evenodd" d="M102.212 56.3959C100.731 53.7569 101.4 50.8417 101.165 48.0394C101.381 48.0105 101.601 47.9783 101.82 47.946C102.218 50.6941 102.616 53.4445 103.014 56.1946C102.746 56.2621 102.479 56.3295 102.212 56.3959Z" fill="white"/>
<path fill-rule="evenodd" clip-rule="evenodd" d="M79.0315 43.8761C78.3205 40.0905 79.6359 37.1161 79.4512 33.6714C80.4878 35.5358 80.2826 39.8452 79.0315 43.8761Z" fill="white"/>
<path fill-rule="evenodd" clip-rule="evenodd" d="M141.382 71.2381C143.818 69.7827 146.257 68.3237 148.695 66.8686C148.813 67.0557 148.931 67.2461 149.044 67.4369C146.856 69.2727 144.602 71.014 141.755 71.8258C141.628 71.6307 141.505 71.4356 141.382 71.2381Z" fill="white"/>
<path fill-rule="evenodd" clip-rule="evenodd" d="M178.822 68.7756C180.829 67.2322 183.339 67.0421 185.514 66.0181C186.156 65.7198 186.484 66.8699 186.152 66.9834C183.763 67.791 181.502 69.1901 178.822 68.7756Z" fill="white"/>
<path fill-rule="evenodd" clip-rule="evenodd" d="M82.9359 45.6466C82.1702 42.3051 82.6376 38.9874 83.1543 35.6719C83.6926 39.0084 83.3308 42.3283 82.9359 45.6466Z" fill="white"/>
<path fill-rule="evenodd" clip-rule="evenodd" d="M72.7029 38.8879C71.7969 35.8428 73.4264 33.8458 73.9666 31.6481C74.132 30.9757 75.3926 31.5458 75.0297 32.2322C74.0386 34.1296 74.1283 36.3889 72.7029 38.8879Z" fill="white"/>
<path fill-rule="evenodd" clip-rule="evenodd" d="M182.219 64.1723C182.654 63.9266 183.079 63.6634 183.53 63.4465C184.947 62.7652 185.767 64.2269 184.219 64.8558C182.7 65.4723 181.278 66.599 179.466 65.8561C179.471 64.8747 180.218 64.6251 180.706 64.1753C181.21 64.1732 181.714 64.1721 182.219 64.1723Z" fill="white"/>
<path fill-rule="evenodd" clip-rule="evenodd" d="M175.544 74.3582C179.096 73.8021 182.022 73.3454 185.045 72.8726C183.078 75.1087 178.128 75.1998 175.544 74.3582Z" fill="white"/>
<path fill-rule="evenodd" clip-rule="evenodd" d="M99.0841 44.935C99.5493 47.553 98.7871 50.2086 99.7919 52.7453C100.234 53.8748 98.4565 54.0284 98.4338 52.9955C98.3696 50.2884 98.0127 47.5552 99.0841 44.935Z" fill="white"/>
<path fill-rule="evenodd" clip-rule="evenodd" d="M157.783 72.9422C159.607 71.6802 161.424 70.4105 163.262 69.1721C163.626 68.9264 164.054 68.9493 164.27 69.4226C164.399 69.7085 164.357 70.0494 164.042 70.2071C162.02 71.2271 160.281 72.7835 158.126 73.5358C158.012 73.3368 157.899 73.1405 157.783 72.9422Z" fill="white"/>
<path fill-rule="evenodd" clip-rule="evenodd" d="M142.527 66.6905C140.635 68.9479 139.125 69.7405 136.041 70.0946C137.026 69.2587 141.482 66.9213 142.527 66.6905Z" fill="white"/>
<path fill-rule="evenodd" clip-rule="evenodd" d="M178.51 71.5052C181.31 71.4543 185.557 68.6875 186.228 70.3518C183.755 71.4765 181.237 72.1285 178.51 71.5052Z" fill="white"/>
<path fill-rule="evenodd" clip-rule="evenodd" d="M154.807 67.7226C153.121 70.1238 150.491 70.885 147.667 72.0835C148.958 70.6282 152.162 68.6258 154.807 67.7226Z" fill="white"/>
<path fill-rule="evenodd" clip-rule="evenodd" d="M105.784 56.3416C104.957 54.248 105.162 52.1781 105.639 50.1069C106.103 52.1844 106.922 54.2474 105.784 56.3416Z" fill="white"/>
<path fill-rule="evenodd" clip-rule="evenodd" d="M152.772 42.7157C150.363 44.3857 147.953 46.0585 145.101 48.0337C146.245 46.1524 149.598 43.7274 152.772 42.7157Z" fill="white"/>
<path fill-rule="evenodd" clip-rule="evenodd" d="M182.218 64.1724C176.027 64.1625 180.977 61.4109 182.456 61.6195C183.188 62.5543 182.595 63.3524 182.218 64.1724Z" fill="white"/>
<path fill-rule="evenodd" clip-rule="evenodd" d="M181.037 76.972C178.708 78.5021 176.156 77.9144 172.975 77.6743C175.97 76.3579 178.586 77.7215 181.037 76.972Z" fill="white"/>
<path fill-rule="evenodd" clip-rule="evenodd" d="M152.138 72.2663C154.931 71.3347 157.012 69.7039 159.467 68.3808C158.259 70.7698 154.69 72.7272 152.138 72.2663Z" fill="white"/>
<path fill-rule="evenodd" clip-rule="evenodd" d="M133.053 67.372C134.471 66.5261 135.838 65.5866 137.707 65.3198C136.17 67.228 135.078 67.75 133.053 67.372Z" fill="white"/>
<path fill-rule="evenodd" clip-rule="evenodd" d="M108.831 52.4688C108.843 54.0253 110.324 55.5602 109.015 57.5401C108.094 55.6636 108.09 54.0941 108.831 52.4688Z" fill="white"/>
<path fill-rule="evenodd" clip-rule="evenodd" d="M112.03 55.3106C112.735 55.93 112.099 56.6473 112.184 57.3039C112.311 58.3364 110.649 57.8619 110.916 57.2075C111.191 56.5341 110.805 55.4489 112.03 55.3106Z" fill="white"/>
<path fill-rule="evenodd" clip-rule="evenodd" d="M151.139 45.4805C152.278 44.8351 153.047 44.3962 153.937 43.8933C153.318 45.8264 153.318 45.8264 151.139 45.4805Z" fill="white"/>
<path fill-rule="evenodd" clip-rule="evenodd" d="M128.984 65.7068C129.883 65.1406 130.693 64.2148 131.916 64.9785C130.658 65.9389 130.659 65.9369 128.984 65.7068Z" fill="white"/>
<path fill-rule="evenodd" clip-rule="evenodd" d="M124.41 63.5762C125.427 62.5515 126.275 62.3166 127.424 63.3483C126.405 63.8907 125.545 63.9839 124.41 63.5762Z" fill="white"/>
<path fill-rule="evenodd" clip-rule="evenodd" d="M124.731 45.0907C123.918 46.3807 122.76 46.886 121.201 46.4539C122.347 45.9267 123.328 44.9767 124.776 45.1805C124.777 45.1795 124.731 45.0907 124.731 45.0907Z" fill="white"/>
<path fill-rule="evenodd" clip-rule="evenodd" d="M115.813 56.9933C116.226 57.8525 115.327 58.4068 114.565 58.1529C113.921 57.9448 114.554 56.8783 115.813 56.9933Z" fill="white"/>
<path fill-rule="evenodd" clip-rule="evenodd" d="M135.957 45.6292C135.99 46.6967 135.715 47.5057 134.401 47.5179C134.411 46.4156 135.953 46.669 135.955 45.6361L135.957 45.6292Z" fill="white"/>
<path fill-rule="evenodd" clip-rule="evenodd" d="M138.472 48.0945C138.729 47.6476 139.124 47.396 139.644 47.4158C139.741 47.4208 139.928 47.7388 139.895 47.7861C139.614 48.179 139.311 48.5944 138.747 48.5274C138.642 48.5157 138.568 48.2575 138.472 48.0945Z" fill="white"/>
<path fill-rule="evenodd" clip-rule="evenodd" d="M169.36 73.7731C168.548 73.6511 169.046 72.4941 169.961 72.7376C170.582 72.9049 170.637 73.9608 169.36 73.7731Z" fill="white"/>
<path fill-rule="evenodd" clip-rule="evenodd" d="M193.445 198.987C193.553 200.562 193.086 200.735 184.973 210.056C184.8 209.909 184.627 209.762 184.453 209.614C187.464 206.099 190.477 202.58 193.486 199.062C193.486 199.058 193.445 198.987 193.445 198.987Z" fill="white"/>
<path fill-rule="evenodd" clip-rule="evenodd" d="M202.155 168.633C202.371 169.94 196.357 175.987 195.443 176.888C197.253 173.806 199.48 171.058 202.203 168.708C202.199 168.705 202.155 168.633 202.155 168.633Z" fill="white"/>
<path fill-rule="evenodd" clip-rule="evenodd" d="M199.844 175.535C200.419 177.418 196.69 180.557 195.088 181.384C196.69 179.471 198.298 177.556 199.899 175.63C199.893 175.616 199.844 175.535 199.844 175.535Z" fill="white"/>
<path fill-rule="evenodd" clip-rule="evenodd" d="M211.776 108.162C210.995 110.723 209.278 112.674 207.566 114.621C208.925 112.452 209.601 109.826 211.824 108.23C211.821 108.229 211.776 108.162 211.776 108.162Z" fill="white"/>
<path fill-rule="evenodd" clip-rule="evenodd" d="M206.539 154.429C205.976 156.908 203.831 158.091 202.093 159.609C203.194 157.574 204.781 155.949 206.586 154.506C206.583 154.501 206.539 154.429 206.539 154.429Z" fill="white"/>
<path fill-rule="evenodd" clip-rule="evenodd" d="M210.51 129.17C210.325 130.471 209.063 130.927 208.458 131.895C208.706 130.645 209.181 129.569 210.553 129.241L210.51 129.17Z" fill="white"/>
<path fill-rule="evenodd" clip-rule="evenodd" d="M189.796 198.634C189.394 199.881 188.245 200.479 187.334 201.274C187.884 200.165 188.313 198.947 189.835 198.706L189.796 198.634Z" fill="white"/>
<path fill-rule="evenodd" clip-rule="evenodd" d="M198.21 163.967C198.118 162.642 199.024 162.536 199.554 161.732C199.604 162.965 198.779 163.195 198.21 163.967Z" fill="white"/>
<path fill-rule="evenodd" clip-rule="evenodd" d="M202.347 164.306C202.444 163.228 203.146 162.644 204.409 161.679C203.881 163.24 203.412 164.012 202.302 164.233L202.347 164.306Z" fill="white"/>
<path fill-rule="evenodd" clip-rule="evenodd" d="M202.304 164.232C202.046 165.283 201.603 166.14 200.315 166.103L200.364 166.182C200.73 165.241 201.156 164.369 202.348 164.305L202.304 164.232Z" fill="white"/>
<path fill-rule="evenodd" clip-rule="evenodd" d="M200.315 166.103C200.455 167.265 199.573 167.77 198.496 168.722C198.912 167.339 199.517 166.679 200.366 166.181C200.364 166.181 200.315 166.103 200.315 166.103Z" fill="white"/>
<path fill-rule="evenodd" clip-rule="evenodd" d="M190.952 191.649C190.886 190.277 191.606 189.881 192.419 189.274C192.445 190.457 191.654 190.82 190.952 191.649Z" fill="white"/>
<path fill-rule="evenodd" clip-rule="evenodd" d="M192.43 185.035C192.177 183.842 193.208 183.836 193.518 182.969C193.867 184.354 193.056 184.532 192.43 185.035Z" fill="white"/>
<path fill-rule="evenodd" clip-rule="evenodd" d="M104.483 233.936C105.059 233.385 105.514 233.805 106.081 233.878C105.388 234.791 105.013 233.759 104.483 233.936Z" fill="white"/>
<path fill-rule="evenodd" clip-rule="evenodd" d="M158.752 149.67C159.223 148.576 160.216 148.402 161.234 148.259C160.749 149.336 159.827 149.635 158.752 149.67Z" fill="white"/>
<path fill-rule="evenodd" clip-rule="evenodd" d="M149.912 184.775C152.014 182.33 154.887 181.28 157.851 180.389C155.481 182.356 152.499 183.212 149.912 184.775Z" fill="white"/>
</svg>
