<svg width="669" height="646" viewBox="0 0 669 646" fill="none" xmlns="http://www.w3.org/2000/svg">
<mask id="path-1-inside-1" fill="white">
<path fill-rule="evenodd" clip-rule="evenodd" d="M0 600.516C17.9827 607.109 32.0247 624.336 36.8969 646H632.103C636.976 624.336 651.017 607.109 669 600.516V40.9089C652.303 34.7875 639.003 19.4971 633.287 0H334.5H35.7136C29.9973 19.4972 16.6974 34.7877 0 40.909V600.516Z"/>
</mask>
<path fill-rule="evenodd" clip-rule="evenodd" d="M0 600.516C17.9827 607.109 32.0247 624.336 36.8969 646H632.103C636.976 624.336 651.017 607.109 669 600.516V40.9089C652.303 34.7875 639.003 19.4971 633.287 0H334.5H35.7136C29.9973 19.4972 16.6974 34.7877 0 40.909V600.516Z" fill="white" fill-opacity="0.01"/>
<path d="M0 600.516H-2V601.913L-0.688405 602.394L0 600.516ZM36.8969 646L34.9456 646.439L35.2967 648H36.8969V646ZM632.103 646V648H633.704L634.055 646.439L632.103 646ZM669 600.516L669.688 602.394L671 601.913V600.516H669ZM669 40.9089H671V39.512L669.688 39.0311L669 40.9089ZM633.287 0L635.206 -0.56268L634.785 -2H633.287V0ZM35.7136 0V-2H34.2158L33.7944 -0.562682L35.7136 0ZM0 40.909L-0.688406 39.0312L-2 39.5121V40.909H0ZM-0.688405 602.394C16.5513 608.714 30.1962 625.321 34.9456 646.439L38.8481 645.561C33.8531 623.351 19.4141 605.503 0.688405 598.638L-0.688405 602.394ZM632.103 644H36.8969V648H632.103V644ZM668.312 598.638C649.586 605.504 635.147 623.351 630.152 645.561L634.055 646.439C638.804 625.321 652.449 608.714 669.688 602.394L668.312 598.638ZM667 40.9089V600.516H671V40.9089H667ZM631.368 0.56268C637.232 20.5644 650.924 36.4121 668.312 42.7867L669.688 39.0311C653.682 33.1629 640.774 18.4297 635.206 -0.56268L631.368 0.56268ZM334.5 2H633.287V-2H334.5V2ZM35.7136 2H334.5V-2H35.7136V2ZM0.688406 42.7868C18.0764 36.4123 31.7686 20.5646 37.6328 0.562682L33.7944 -0.562682C28.2261 18.4298 15.3185 33.1631 -0.688406 39.0312L0.688406 42.7868ZM2 600.516V40.909H-2V600.516H2Z" fill="#FAB44A" mask="url(#path-1-inside-1)"/>
</svg>
