<svg width="231" height="61" viewBox="0 0 231 61" fill="none" xmlns="http://www.w3.org/2000/svg">
<path d="M80.0086 31.188C79.3945 31.188 78.9011 31.0121 78.5284 30.66C78.1557 30.3079 77.9692 29.835 77.9692 29.241V16.47C77.9692 15.876 78.1557 15.403 78.5284 15.051C78.9011 14.699 79.3945 14.523 80.0086 14.523C80.6444 14.523 81.149 14.699 81.5217 15.051C81.8944 15.403 82.0809 15.876 82.0809 16.47V21.123H89.12V16.47C89.12 15.876 89.3065 15.403 89.6791 15.051C90.0518 14.699 90.5452 14.523 91.1593 14.523C91.7952 14.523 92.2997 14.699 92.6724 15.051C93.0451 15.403 93.2316 15.876 93.2316 16.47L93.2645 29.076C93.2645 29.714 93.0671 30.231 92.6724 30.627C92.2997 31.0009 91.8063 31.188 91.1922 31.188C90.5564 31.188 90.0518 31.0009 89.6791 30.627C89.3065 30.231 89.12 29.714 89.12 29.076V24.324H82.0809V29.241C82.0809 29.835 81.8944 30.3079 81.5217 30.66C81.149 31.0121 80.6444 31.188 80.0086 31.188ZM104.411 14.457C106.648 14.457 108.303 15.018 109.378 16.14C110.474 17.24 111.022 18.923 111.022 21.189V29.241C111.022 29.835 110.847 30.3079 110.496 30.66C110.145 30.99 109.663 31.155 109.049 31.155C108.478 31.155 108.007 30.9791 107.634 30.627C107.283 30.2749 107.108 29.813 107.108 29.241V28.515C106.735 29.373 106.143 30.0439 105.332 30.528C104.543 31.0121 103.622 31.254 102.569 31.254C101.494 31.254 100.518 31.0339 99.6415 30.594C98.7642 30.1541 98.0734 29.549 97.5692 28.779C97.0646 28.009 96.8127 27.151 96.8127 26.205C96.8127 25.017 97.1087 24.082 97.7008 23.4C98.3146 22.718 99.3013 22.223 100.661 21.915C102.021 21.607 103.896 21.453 106.286 21.453H107.108V20.694C107.108 19.616 106.878 18.835 106.417 18.351C105.957 17.845 105.211 17.592 104.181 17.592C103.545 17.592 102.898 17.691 102.24 17.889C101.582 18.065 100.804 18.329 99.9046 18.681C99.3342 18.967 98.9178 19.11 98.6547 19.11C98.2599 19.11 97.931 18.967 97.6679 18.681C97.4264 18.395 97.306 18.021 97.306 17.559C97.306 17.185 97.3935 16.866 97.5692 16.602C97.7665 16.316 98.0843 16.052 98.5231 15.81C99.2905 15.392 100.201 15.062 101.253 14.82C102.327 14.578 103.38 14.457 104.411 14.457ZM103.391 28.284C104.488 28.284 105.376 27.921 106.056 27.195C106.757 26.447 107.108 25.49 107.108 24.324V23.631H106.516C105.047 23.631 103.906 23.697 103.095 23.829C102.284 23.961 101.703 24.192 101.352 24.522C101.001 24.852 100.826 25.303 100.826 25.875C100.826 26.579 101.067 27.162 101.549 27.624C102.053 28.064 102.668 28.284 103.391 28.284ZM124.444 14.457C125.826 14.457 127.053 14.809 128.128 15.513C129.224 16.217 130.069 17.218 130.661 18.516C131.275 19.792 131.582 21.266 131.582 22.938C131.582 24.61 131.275 26.073 130.661 27.327C130.069 28.581 129.235 29.549 128.161 30.231C127.086 30.9131 125.847 31.254 124.444 31.254C123.304 31.254 122.284 31.0121 121.385 30.528C120.486 30.0439 119.795 29.373 119.313 28.515V35.247C119.313 35.8189 119.126 36.27 118.754 36.6C118.381 36.93 117.887 37.095 117.273 37.095C116.659 37.095 116.155 36.9191 115.76 36.567C115.387 36.2149 115.201 35.7529 115.201 35.181V16.47C115.201 15.876 115.376 15.403 115.727 15.051C116.1 14.699 116.594 14.523 117.208 14.523C117.821 14.523 118.315 14.699 118.688 15.051C119.06 15.403 119.247 15.876 119.247 16.47V17.295C119.729 16.393 120.42 15.7 121.319 15.216C122.24 14.71 123.282 14.457 124.444 14.457ZM123.359 28.053C124.652 28.053 125.661 27.613 126.385 26.733C127.108 25.831 127.47 24.566 127.47 22.938C127.47 21.266 127.108 19.968 126.385 19.044C125.661 18.12 124.652 17.658 123.359 17.658C122.043 17.658 121.023 18.109 120.3 19.011C119.598 19.913 119.247 21.2 119.247 22.872C119.247 24.522 119.598 25.798 120.3 26.7C121.023 27.602 122.043 28.053 123.359 28.053ZM142.291 31.254C140.647 31.254 139.199 30.9131 137.949 30.231C136.721 29.549 135.768 28.57 135.088 27.294C134.408 26.018 134.068 24.533 134.068 22.839C134.068 21.145 134.408 19.671 135.088 18.417C135.768 17.141 136.721 16.162 137.949 15.48C139.199 14.798 140.647 14.457 142.291 14.457C143.936 14.457 145.372 14.798 146.6 15.48C147.85 16.162 148.804 17.141 149.462 18.417C150.142 19.671 150.482 21.145 150.482 22.839C150.482 24.533 150.142 26.018 149.462 27.294C148.804 28.57 147.85 29.549 146.6 30.231C145.372 30.9131 143.936 31.254 142.291 31.254ZM142.258 28.053C143.596 28.053 144.616 27.613 145.317 26.733C146.019 25.853 146.37 24.555 146.37 22.839C146.37 21.145 146.019 19.858 145.317 18.978C144.616 18.076 143.607 17.625 142.291 17.625C140.975 17.625 139.956 18.076 139.232 18.978C138.531 19.858 138.18 21.145 138.18 22.839C138.18 24.555 138.531 25.853 139.232 26.733C139.934 27.613 140.943 28.053 142.258 28.053ZM153.942 35.379C153.372 35.379 152.911 35.2031 152.56 34.851C152.231 34.521 152.067 34.0481 152.067 33.432V29.967C152.045 29.329 152.209 28.823 152.56 28.449C152.911 28.075 153.372 27.888 153.942 27.888H154.304C154.94 26.744 155.378 25.457 155.619 24.027C155.883 22.597 156.014 20.903 156.014 18.945V16.932C155.992 16.294 156.157 15.788 156.508 15.414C156.858 15.04 157.341 14.853 157.955 14.853H166.079C166.715 14.831 167.219 14.996 167.592 15.348C167.965 15.7 168.152 16.184 168.152 16.8V27.888H168.678C169.314 27.866 169.818 28.031 170.191 28.383C170.564 28.735 170.75 29.219 170.75 29.835V33.432C170.75 34.0481 170.575 34.521 170.224 34.851C169.895 35.2031 169.445 35.379 168.875 35.379C168.283 35.379 167.823 35.2031 167.494 34.851C167.165 34.521 167 34.0481 167 33.432V30.99H155.85V33.432C155.85 34.0481 155.674 34.521 155.323 34.851C154.994 35.2031 154.534 35.379 153.942 35.379ZM164.073 17.955H159.567V18.945C159.567 21.035 159.402 22.85 159.073 24.39C158.766 25.93 158.328 27.096 157.757 27.888H164.073V17.955ZM175.508 31.188C174.893 31.188 174.4 31.0121 174.027 30.66C173.655 30.3079 173.468 29.835 173.468 29.241V16.47C173.468 15.876 173.655 15.403 174.027 15.051C174.4 14.699 174.893 14.523 175.508 14.523C176.143 14.523 176.648 14.699 177.021 15.051C177.393 15.403 177.58 15.876 177.58 16.47V21.123H184.619V16.47C184.619 15.876 184.805 15.403 185.178 15.051C185.551 14.699 186.044 14.523 186.658 14.523C187.294 14.523 187.799 14.699 188.171 15.051C188.544 15.403 188.73 15.876 188.73 16.47L188.763 29.076C188.763 29.714 188.566 30.231 188.171 30.627C187.799 31.0009 187.305 31.188 186.691 31.188C186.055 31.188 185.551 31.0009 185.178 30.627C184.805 30.231 184.619 29.714 184.619 29.076V24.324H177.58V29.241C177.58 29.835 177.393 30.3079 177.021 30.66C176.648 31.0121 176.143 31.188 175.508 31.188ZM194.91 30.99C194.274 31.0121 193.77 30.8471 193.397 30.495C193.024 30.1429 192.838 29.659 192.838 29.043V16.47C192.838 15.876 193.024 15.403 193.397 15.051C193.77 14.699 194.263 14.523 194.877 14.523C195.513 14.523 196.017 14.699 196.39 15.051C196.763 15.403 196.949 15.876 196.949 16.47V20.199H199.351C201.324 20.199 202.859 20.606 203.956 21.42C205.052 22.212 205.6 23.543 205.6 25.413C205.6 26.601 205.293 27.624 204.679 28.482C204.087 29.318 203.298 29.945 202.311 30.363C201.346 30.7811 200.305 30.99 199.186 30.99H194.91ZM209.712 31.188C209.076 31.188 208.572 31.0121 208.199 30.66C207.826 30.3079 207.64 29.835 207.64 29.241V16.47C207.64 15.876 207.826 15.403 208.199 15.051C208.572 14.699 209.076 14.523 209.712 14.523C210.326 14.523 210.819 14.699 211.192 15.051C211.565 15.403 211.751 15.876 211.751 16.47V29.241C211.751 29.835 211.565 30.3079 211.192 30.66C210.819 31.0121 210.326 31.188 209.712 31.188ZM198.331 28.152C199.208 28.152 199.964 27.943 200.601 27.525C201.236 27.107 201.554 26.436 201.554 25.512C201.554 24.522 201.258 23.862 200.666 23.532C200.096 23.202 199.318 23.037 198.331 23.037H196.884V28.152H198.331ZM228.666 26.568C229.038 26.568 229.334 26.711 229.554 26.997C229.795 27.283 229.915 27.668 229.915 28.152C229.915 28.834 229.51 29.406 228.698 29.868C227.953 30.2861 227.108 30.627 226.166 30.891C225.223 31.1329 224.324 31.254 223.468 31.254C220.881 31.254 218.831 30.5059 217.317 29.01C215.804 27.514 215.048 25.468 215.048 22.872C215.048 21.222 215.377 19.759 216.035 18.483C216.693 17.207 217.614 16.217 218.798 15.513C220.004 14.809 221.363 14.457 222.876 14.457C224.324 14.457 225.584 14.776 226.659 15.414C227.733 16.052 228.567 16.954 229.159 18.12C229.751 19.286 230.047 20.661 230.047 22.245C230.047 23.191 229.63 23.664 228.797 23.664H219.094C219.225 25.182 219.653 26.304 220.377 27.03C221.1 27.734 222.153 28.086 223.534 28.086C224.236 28.086 224.85 27.998 225.376 27.822C225.924 27.646 226.538 27.404 227.218 27.096C227.876 26.744 228.358 26.568 228.666 26.568ZM222.975 17.361C221.857 17.361 220.957 17.713 220.278 18.417C219.62 19.121 219.225 20.133 219.094 21.453H226.528C226.483 20.111 226.155 19.099 225.541 18.417C224.927 17.713 224.071 17.361 222.975 17.361Z" fill="white"/>
<path d="M80.0086 54.9483C79.3945 54.9483 78.9011 54.7724 78.5284 54.4203C78.1557 54.0682 77.9692 53.5953 77.9692 53.0013V40.6923C77.9472 40.0544 78.1117 39.5482 78.4626 39.1743C78.8136 38.8004 79.2958 38.6133 79.9099 38.6133H90.9291C91.5649 38.5912 92.0695 38.7562 92.4422 39.1083C92.8148 39.4604 93.0013 39.9442 93.0013 40.5603V53.0013C93.0013 53.5953 92.8148 54.0682 92.4422 54.4203C92.0695 54.7724 91.5761 54.9483 90.962 54.9483C90.3262 54.9483 89.8216 54.7724 89.4489 54.4203C89.0762 54.0682 88.8897 53.5953 88.8897 53.0013V41.7153H82.0809V53.0013C82.0809 53.5953 81.8944 54.0682 81.5217 54.4203C81.149 54.7724 80.6444 54.9483 80.0086 54.9483ZM106.423 38.2173C107.805 38.2173 109.033 38.5694 110.107 39.2733C111.204 39.9772 112.048 40.9784 112.64 42.2763C113.254 43.5524 113.561 45.0262 113.561 46.6983C113.561 48.3704 113.254 49.8333 112.64 51.0873C112.048 52.3413 111.215 53.3092 110.14 53.9913C109.066 54.6734 107.827 55.0143 106.423 55.0143C105.283 55.0143 104.264 54.7724 103.364 54.2883C102.465 53.8042 101.775 53.1333 101.292 52.2753V59.0073C101.292 59.5792 101.106 60.0303 100.733 60.3603C100.36 60.6903 99.8668 60.8553 99.2527 60.8553C98.6389 60.8553 98.1343 60.6794 97.7396 60.3273C97.3669 59.9752 97.1804 59.5132 97.1804 58.9413V40.2303C97.1804 39.6363 97.356 39.1634 97.7067 38.8113C98.0797 38.4592 98.5731 38.2833 99.1869 38.2833C99.801 38.2833 100.294 38.4592 100.667 38.8113C101.04 39.1634 101.226 39.6363 101.226 40.2303V41.0553C101.709 40.1534 102.4 39.4604 103.298 38.9763C104.219 38.4704 105.261 38.2173 106.423 38.2173ZM105.338 51.8133C106.632 51.8133 107.64 51.3734 108.364 50.4933C109.088 49.5914 109.449 48.3262 109.449 46.6983C109.449 45.0262 109.088 43.7283 108.364 42.8043C107.64 41.8803 106.632 41.4183 105.338 41.4183C104.022 41.4183 103.002 41.8694 102.279 42.7713C101.577 43.6732 101.226 44.9602 101.226 46.6323C101.226 48.2823 101.577 49.5584 102.279 50.4603C103.002 51.3622 104.022 51.8133 105.338 51.8133ZM124.271 55.0143C122.626 55.0143 121.179 54.6734 119.929 53.9913C118.701 53.3092 117.747 52.3304 117.067 51.0543C116.387 49.7782 116.047 48.2932 116.047 46.5993C116.047 44.9054 116.387 43.4313 117.067 42.1773C117.747 40.9012 118.701 39.9224 119.929 39.2403C121.179 38.5582 122.626 38.2173 124.271 38.2173C125.915 38.2173 127.352 38.5582 128.58 39.2403C129.83 39.9224 130.784 40.9012 131.441 42.1773C132.121 43.4313 132.461 44.9054 132.461 46.5993C132.461 48.2932 132.121 49.7782 131.441 51.0543C130.784 52.3304 129.83 53.3092 128.58 53.9913C127.352 54.6734 125.915 55.0143 124.271 55.0143ZM124.238 51.8133C125.576 51.8133 126.595 51.3734 127.297 50.4933C127.999 49.6132 128.349 48.3153 128.349 46.5993C128.349 44.9054 127.999 43.6184 127.297 42.7383C126.595 41.8364 125.586 41.3853 124.271 41.3853C122.955 41.3853 121.935 41.8364 121.212 42.7383C120.51 43.6184 120.159 44.9054 120.159 46.5993C120.159 48.3153 120.51 49.6132 121.212 50.4933C121.913 51.3734 122.922 51.8133 124.238 51.8133ZM137.796 54.9483C137.182 54.9483 136.689 54.7724 136.316 54.4203C135.943 54.0682 135.757 53.5953 135.757 53.0013V40.6923C135.735 40.0544 135.899 39.5482 136.25 39.1743C136.601 38.8004 137.084 38.6133 137.698 38.6133H145.822C146.304 38.6133 146.688 38.7562 146.974 39.0423C147.28 39.3284 147.434 39.7023 147.434 40.1643C147.434 40.6263 147.28 41.0002 146.974 41.2863C146.688 41.5724 146.304 41.7153 145.822 41.7153H139.869V53.0013C139.869 53.5953 139.682 54.0682 139.309 54.4203C138.936 54.7724 138.432 54.9483 137.796 54.9483ZM151.833 54.9483C151.22 54.9483 150.726 54.7724 150.353 54.4203C149.981 54.0682 149.794 53.5953 149.794 53.0013V40.2303C149.794 39.6363 149.981 39.1634 150.353 38.8113C150.726 38.4592 151.22 38.2833 151.833 38.2833C152.47 38.2833 152.974 38.4592 153.347 38.8113C153.72 39.1634 153.906 39.6363 153.906 40.2303V44.8833H160.945V40.2303C160.945 39.6363 161.131 39.1634 161.504 38.8113C161.877 38.4592 162.37 38.2833 162.984 38.2833C163.62 38.2833 164.125 38.4592 164.497 38.8113C164.87 39.1634 165.056 39.6363 165.056 40.2303L165.089 52.8363C165.089 53.4742 164.892 53.9913 164.497 54.3873C164.125 54.7612 163.631 54.9483 163.017 54.9483C162.381 54.9483 161.877 54.7612 161.504 54.3873C161.131 53.9913 160.945 53.4742 160.945 52.8363V48.0843H153.906V53.0013C153.906 53.5953 153.72 54.0682 153.347 54.4203C152.974 54.7724 152.47 54.9483 151.833 54.9483ZM176.598 55.0143C174.953 55.0143 173.506 54.6734 172.256 53.9913C171.028 53.3092 170.074 52.3304 169.394 51.0543C168.714 49.7782 168.374 48.2932 168.374 46.5993C168.374 44.9054 168.714 43.4313 169.394 42.1773C170.074 40.9012 171.028 39.9224 172.256 39.2403C173.506 38.5582 174.953 38.2173 176.598 38.2173C178.242 38.2173 179.679 38.5582 180.907 39.2403C182.157 39.9224 183.11 40.9012 183.768 42.1773C184.448 43.4313 184.788 44.9054 184.788 46.5993C184.788 48.2932 184.448 49.7782 183.768 51.0543C183.11 52.3304 182.157 53.3092 180.907 53.9913C179.679 54.6734 178.242 55.0143 176.598 55.0143ZM176.565 51.8133C177.902 51.8133 178.922 51.3734 179.624 50.4933C180.325 49.6132 180.676 48.3153 180.676 46.5993C180.676 44.9054 180.325 43.6184 179.624 42.7383C178.922 41.8364 177.913 41.3853 176.598 41.3853C175.282 41.3853 174.262 41.8364 173.539 42.7383C172.837 43.6184 172.486 44.9054 172.486 46.5993C172.486 48.3153 172.837 49.6132 173.539 50.4933C174.24 51.3734 175.249 51.8133 176.565 51.8133ZM193.807 55.0143C191.614 55.0143 189.717 54.5853 188.117 53.7273C187.744 53.5293 187.459 53.2874 187.262 53.0013C187.064 52.7152 186.965 52.4182 186.965 52.1103C186.965 51.7364 187.108 51.4173 187.393 51.1533C187.678 50.8672 188.04 50.7243 188.479 50.7243C188.763 50.7243 189.092 50.7903 189.465 50.9223C190.145 51.2523 190.792 51.4942 191.406 51.6483C192.02 51.7803 192.7 51.8463 193.445 51.8463C194.432 51.8463 195.265 51.6813 195.945 51.3513C196.647 51.0213 196.998 50.4824 196.998 49.7343C196.998 49.1624 196.8 48.7334 196.406 48.4473C196.033 48.1394 195.364 47.9853 194.399 47.9853H192.261C191.801 47.9853 191.428 47.8533 191.143 47.5893C190.88 47.3032 190.748 46.9402 190.748 46.5003C190.748 46.0604 190.88 45.7083 191.143 45.4443C191.428 45.1582 191.801 45.0153 192.261 45.0153H194.235C195.09 45.0153 195.715 44.8612 196.11 44.5533C196.504 44.2233 196.702 43.7834 196.702 43.2333C196.702 42.6172 196.427 42.1552 195.879 41.8473C195.331 41.5394 194.597 41.3853 193.676 41.3853C192.93 41.3853 192.261 41.4622 191.669 41.6163C191.099 41.7483 190.496 41.9684 189.86 42.2763C189.531 42.4083 189.235 42.4743 188.972 42.4743C188.533 42.4743 188.16 42.3314 187.854 42.0453C187.568 41.7592 187.426 41.4183 187.426 41.0223C187.426 40.7144 187.525 40.4283 187.722 40.1643C187.919 39.9003 188.215 39.6802 188.61 39.5043C190.321 38.6463 192.283 38.2173 194.498 38.2173C196.581 38.2173 198.182 38.6133 199.3 39.4053C200.44 40.1973 201.011 41.2642 201.011 42.6063C201.011 43.4422 200.748 44.2012 200.221 44.8833C199.717 45.5654 199.015 46.0492 198.116 46.3353C200.265 46.8854 201.34 48.1173 201.34 50.0313C201.34 51.0213 201.011 51.9014 200.353 52.6713C199.695 53.4194 198.785 54.0022 197.623 54.4203C196.482 54.8163 195.21 55.0143 193.807 55.0143ZM206.699 54.7503C206.063 54.7724 205.559 54.6074 205.186 54.2553C204.813 53.9032 204.627 53.4194 204.627 52.8033V40.2303C204.627 39.6363 204.813 39.1634 205.186 38.8113C205.559 38.4592 206.052 38.2833 206.666 38.2833C207.302 38.2833 207.806 38.4592 208.179 38.8113C208.552 39.1634 208.738 39.6363 208.738 40.2303V43.9593H211.14C213.113 43.9593 214.648 44.3662 215.745 45.1803C216.841 45.9723 217.389 47.3032 217.389 49.1733C217.389 50.3613 217.082 51.3843 216.468 52.2423C215.876 53.0782 215.087 53.7052 214.1 54.1233C213.135 54.5414 212.093 54.7503 210.975 54.7503H206.699ZM221.501 54.9483C220.865 54.9483 220.36 54.7724 219.988 54.4203C219.615 54.0682 219.429 53.5953 219.429 53.0013V40.2303C219.429 39.6363 219.615 39.1634 219.988 38.8113C220.36 38.4592 220.865 38.2833 221.501 38.2833C222.115 38.2833 222.608 38.4592 222.981 38.8113C223.354 39.1634 223.54 39.6363 223.54 40.2303V53.0013C223.54 53.5953 223.354 54.0682 222.981 54.4203C222.608 54.7724 222.115 54.9483 221.501 54.9483ZM210.12 51.9123C210.997 51.9123 211.753 51.7034 212.389 51.2853C213.025 50.8672 213.343 50.1963 213.343 49.2723C213.343 48.2823 213.047 47.6223 212.455 47.2923C211.885 46.9623 211.107 46.7973 210.12 46.7973H208.673V51.9123H210.12Z" fill="white"/>
<path d="M24.403 20.5363C24.1806 19.0013 25.2407 17.5761 26.7706 17.353L28.9517 32.4074C29.0629 33.1749 28.5329 33.8874 27.7679 33.999C27.0029 34.1105 26.2926 33.5789 26.1814 32.8113L24.403 20.5363Z" fill="white"/>
<path d="M53.4544 42.0785C54.9843 41.8551 56.4049 42.9187 56.6273 44.4535L48.5475 45.6319C47.7824 45.7435 47.0722 45.2118 46.961 44.4442C46.8498 43.6767 47.3798 42.9642 48.1448 42.8527L53.4544 42.0785Z" fill="white"/>
<path fill-rule="evenodd" clip-rule="evenodd" d="M48.5585 45.7081L50.0591 45.4893L56.3614 44.5702L57.4002 44.4188C60.1704 44.0148 62.0644 41.4682 61.672 38.7586C61.5411 37.8554 61.1431 37.0617 60.6171 36.3582C62.3861 35.3906 63.5097 33.3822 63.1976 31.2283C63.0364 30.1166 62.5391 29.1248 61.795 28.3819C63.0492 27.2767 63.7281 25.6168 63.4765 23.8798C63.3157 22.7681 62.8183 21.7763 62.0743 21.0334C63.3285 19.9282 64.0074 18.2683 63.7554 16.5313C63.363 13.8215 60.8247 11.9213 58.0544 12.3252L51.0594 13.3452L50.7134 13.3957L43.8568 14.3956C44.468 9.33996 43.8552 5.59806 41.8698 3.12055C40.1768 0.947565 38.0183 0.661588 37.442 0.585226L37.3999 0.579649C36.9644 0.501274 35.6082 0.415242 34.4333 1.57988C33.189 2.75458 32.7785 4.80107 33.1909 7.6498C33.6909 11.0999 29.3925 15.2497 26.3275 17.5489L26.7883 20.7299C29.4181 18.9069 36.8993 13.2311 36.0405 7.30521C35.6783 4.80388 36.1908 3.94868 36.4375 3.69986C36.6845 3.45101 37.1101 3.45989 37.1101 3.45989C37.1447 3.45484 37.1818 3.46718 37.219 3.47949C37.2562 3.4918 37.2934 3.50414 37.3279 3.49909C37.3279 3.49909 38.6841 3.58512 39.8057 4.98244C40.9277 6.37973 42.0832 9.4749 40.8915 15.8922C40.8132 16.3293 40.953 16.8056 41.2803 17.1126C41.6076 17.4196 42.0533 17.5675 42.4691 17.5069L51.1952 16.2344L51.5416 16.1839L58.5363 15.1639C59.783 14.9821 60.8934 15.8134 61.0648 16.9946C61.2358 18.1758 60.4073 19.2899 59.1606 19.4717L57.8446 19.6636L54.3819 20.1686L53.0659 20.3604C52.3041 20.4716 51.7715 21.1878 51.8821 21.9521C51.9929 22.7163 52.7067 23.2508 53.4685 23.1397L54.7845 22.9478L58.2472 22.4429C59.4938 22.2611 60.6043 23.0924 60.7757 24.2736C60.9467 25.4548 60.1181 26.5689 58.8715 26.7507L57.5554 26.9426L54.7161 27.3567L53.4001 27.5486C52.6383 27.6596 52.1057 28.3759 52.2162 29.1402C52.3271 29.9045 53.0412 30.439 53.803 30.3278L55.1187 30.136L57.9584 29.7218C59.2047 29.5401 60.3155 30.3713 60.4865 31.5527C60.6576 32.7338 59.829 33.8479 58.5824 34.0297L56.02 34.4033L55.1194 34.5346L53.8037 34.7267C53.0419 34.8375 52.509 35.554 52.6198 36.3183C52.7307 37.0825 53.4445 37.6168 54.2063 37.5059L55.5223 37.3139L56.4226 37.1825C57.6693 37.001 58.7797 37.8323 58.9508 39.0134C59.1218 40.1944 58.2932 41.3088 57.0466 41.4903L56.0078 41.6421L49.7055 42.5609L48.1355 42.7899L48.5585 45.7081ZM8.11667 22.0196L8.11621 22.0163L12.0133 48.9153L12.0124 48.9091L8.11667 22.0196Z" fill="white"/>
<path d="M40.2578 36.3188C40.4802 37.8536 39.4201 39.2789 37.8902 39.502L35.7091 24.4477C35.5979 23.6802 36.1278 22.9676 36.8929 22.8561C37.6577 22.7446 38.3681 23.2763 38.4793 24.0437L40.2578 36.3188Z" fill="white"/>
<path d="M11.2061 14.7768C9.67611 14.9999 8.25556 13.9365 8.0332 12.4015L16.1131 11.2233C16.8781 11.1117 17.5884 11.6435 17.6995 12.4109C17.8107 13.1784 17.2807 13.891 16.5157 14.0025L11.2061 14.7768Z" fill="white"/>
<path fill-rule="evenodd" clip-rule="evenodd" d="M16.1021 11.147L14.6016 11.3658L8.29924 12.2848L7.26041 12.4363C4.49016 12.8403 2.59608 15.3868 2.98866 18.0966C3.11954 18.9999 3.51735 19.7933 4.04361 20.497C2.27436 21.4645 1.15096 23.473 1.46302 25.6269C1.6241 26.7386 2.12137 27.7303 2.86548 28.4732C1.61123 29.5785 0.932355 31.2385 1.18402 32.9753C1.34506 34.087 1.84234 35.0787 2.58645 35.8218C1.3322 36.927 0.653324 38.5869 0.904988 40.324C1.29757 43.0337 3.83589 44.9338 6.60613 44.5299L13.601 43.5098L13.9473 43.4594L20.8037 42.4594C20.1925 47.515 20.8053 51.2569 22.7908 53.7346C24.4839 55.9076 26.6424 56.1934 27.2187 56.27L27.2606 56.2756C27.6963 56.3538 29.0525 56.4399 30.2274 55.2753C31.4717 54.1005 31.8822 52.0542 31.4694 49.2053C30.9698 45.7552 35.2679 41.6054 38.3332 39.3063L37.8724 36.1251C35.2423 37.9484 27.7614 43.624 28.62 49.5498C28.9824 52.0512 28.4698 52.9066 28.223 53.1554C27.9761 53.4042 27.5505 53.3953 27.5505 53.3953C27.5159 53.4003 27.4788 53.3881 27.4416 53.3755C27.4045 53.3633 27.3673 53.3511 27.3327 53.3561C27.3327 53.3561 25.9766 53.2699 24.8548 51.8727C23.733 50.4755 22.5774 47.3801 23.7692 40.9629C23.8473 40.5256 23.7076 40.0495 23.3803 39.7426C23.0529 39.4357 22.6072 39.2878 22.1916 39.3482L13.4653 40.6207L13.119 40.6712L6.12415 41.6912C4.87754 41.873 3.76704 41.0418 3.5959 39.8604C3.42479 38.6793 4.25343 37.5652 5.50004 37.3834L6.81593 37.1917L10.2787 36.6864L11.5946 36.4947C12.3564 36.3835 12.8891 35.6674 12.7784 34.9031C12.6677 34.1388 11.9537 33.6042 11.1919 33.7154L9.87606 33.9072L6.41325 34.4124C5.16664 34.5939 4.05614 33.7626 3.885 32.5816C3.71389 31.4002 4.54253 30.2861 5.78914 30.1043L7.10499 29.9125L9.94451 29.4985L11.2604 29.3066C12.0222 29.1955 12.5549 28.4793 12.4442 27.715C12.3334 26.9507 11.6196 26.4162 10.8577 26.5273L9.54184 26.7192L6.70235 27.1333C5.45574 27.3151 4.34523 26.4837 4.17409 25.3025C4.00295 24.1213 4.83162 23.0072 6.07824 22.8254L8.6407 22.4518L9.54105 22.3204L10.8569 22.1286C11.6187 22.0175 12.1514 21.3012 12.0407 20.537C11.93 19.7726 11.2161 19.2382 10.4543 19.3493L9.13837 19.5412L8.23806 19.6725C6.99144 19.8543 5.88091 19.0229 5.7098 17.8417C5.53866 16.6605 6.36733 15.5464 7.61394 15.3646L8.65277 15.2131L14.9551 14.2941L16.5249 14.0652L16.1021 11.147Z" fill="white"/>
</svg>
