<svg width="153" height="141" viewBox="0 0 153 141" fill="none" xmlns="http://www.w3.org/2000/svg">
<path fill-rule="evenodd" clip-rule="evenodd" d="M101.421 62.0258C99.7672 60.8156 99.806 60.4383 101.434 59.3712C110.385 53.5053 112.166 51.5566 112.747 52.8224C112.973 53.3181 112.724 54.3519 111.798 54.9982C100.673 62.7496 101.995 61.8806 101.421 62.0258Z" fill="white"/>
<path fill-rule="evenodd" clip-rule="evenodd" d="M100.241 44.0139C100.091 44.8621 100.095 45.4468 99.8806 45.9342C95.0211 56.9697 95.135 56.6483 94.121 56.3069C93.4803 56.0898 93.0853 55.2221 93.3907 54.6131C99.5453 42.323 97.9777 44.1633 100.241 44.0139Z" fill="white"/>
<path fill-rule="evenodd" clip-rule="evenodd" d="M86.6178 39.2462C88.2887 38.7381 88.6206 38.9254 88.6794 40.3311C89.1279 51.0823 89.4647 51.5469 88.1778 51.5381C86.286 51.5252 86.7457 51.2339 86.6178 39.2462Z" fill="white"/>
<path fill-rule="evenodd" clip-rule="evenodd" d="M107 48.6094C105.438 47.5532 105.414 47.4562 106.525 46.3684C117.27 35.8512 115.225 37.8583 117.006 36.4558C117.861 38.2204 117.338 37.6931 107 48.6094Z" fill="white"/>
<path fill-rule="evenodd" clip-rule="evenodd" d="M108.116 23.9047C110.606 24.8087 109.993 24.9488 107.69 29.8577C106.85 31.641 105.272 30.5052 105.78 29.0067C106.131 27.9769 106.894 26.4553 108.116 23.9047Z" fill="white"/>
<path fill-rule="evenodd" clip-rule="evenodd" d="M100.891 39.82C101.013 38.3966 100.338 39.5248 103.43 34.2106C104.194 32.8944 105.618 34.2386 105.048 35.3171C102.017 41.0456 102.872 40.7921 100.891 39.82Z" fill="white"/>
<path fill-rule="evenodd" clip-rule="evenodd" d="M124.885 45.1191C122.848 43.3897 123.543 43.4348 127.679 40.46C129.296 39.2997 129.387 41.687 128.587 42.3038C127.349 43.2538 126.104 44.1939 124.885 45.1191Z" fill="white"/>
<path fill-rule="evenodd" clip-rule="evenodd" d="M87.1654 20.3596C88.1513 20.162 88.9218 20.1785 89.0092 21.2131C89.1506 22.9442 89.3324 24.6941 88.8625 26.5073C86.7335 26.5812 87.1485 26.0303 87.1654 20.3596Z" fill="white"/>
<path fill-rule="evenodd" clip-rule="evenodd" d="M119.779 46.5396C121.165 48.855 120.706 48.411 118.093 50.4432C116.732 51.5034 116.351 51.3371 115.976 49.357C117.173 48.4697 118.418 47.5475 119.779 46.5396Z" fill="white"/>
<path fill-rule="evenodd" clip-rule="evenodd" d="M88.2613 34.7172C87.2779 34.0027 86.9836 34.8203 86.9961 29.9757C86.9965 29.7928 87.6144 29.4094 87.8412 29.4774C89.3162 29.9081 88.8294 33.3803 88.2613 34.7172Z" fill="white"/>
<path fill-rule="evenodd" clip-rule="evenodd" d="M103.257 50.3671C104.766 51.0326 103.663 52.3294 102.382 53.3854C102.194 53.5397 101.565 53.3583 101.292 53.1392C100.537 52.5376 102.318 51.2225 103.257 50.3671Z" fill="white"/>
<path d="M91.0709 74.9812C90.4979 76.1282 91.0163 75.7424 89.4607 77.1022C80.3967 85.0146 80.3588 92.9425 80.6396 93.5294C80.699 93.6551 80.6448 94.3592 80.5619 94.5222C80.465 94.7103 81.0644 98.6967 81.3645 99.844C81.5835 100.691 82.0332 102.629 82.3042 103.814C82.397 104.22 82.6986 105.016 82.9818 105.598C83.4755 106.624 83.4803 106.656 83.2244 106.727C82.8862 106.818 81.8692 106.168 81.5201 106.025C81.3061 105.937 81.1093 105.806 81.0725 105.73C81.0353 105.652 80.9704 105.61 80.9235 105.631C80.877 105.655 80.3597 105.522 79.7691 105.338C79.1767 105.151 78.2832 104.989 77.7697 104.975C77.2589 104.956 76.7637 104.918 76.6674 104.89C76.2555 104.762 75.14 104.846 73.9667 105.098C73.1042 105.282 72.149 105.399 71.4542 105.407C71.1552 105.413 70.8767 105.434 70.8358 105.453C70.648 105.545 69.0322 105.504 68.8156 105.405C68.68 105.345 68.2701 105.251 67.9049 105.2C67.5393 105.147 66.9232 104.984 66.5337 104.839C65.9485 104.616 65.8116 104.609 65.7304 104.79C65.6002 105.071 65.7246 105.317 65.986 105.292C66.1273 105.279 66.1648 105.327 66.1311 105.468C66.0944 105.606 66.2191 105.708 66.5621 105.826C66.8207 105.914 67.0674 106.039 67.1004 106.095C67.1864 106.262 69.054 106.839 70.2852 107.084C70.8848 107.201 71.4647 107.323 71.5659 107.352C71.6662 107.382 72.2592 107.509 72.8762 107.635C73.4927 107.758 74.0853 107.882 74.1842 107.908C74.2786 107.935 74.3849 107.903 74.4041 107.842C74.429 107.774 74.4508 107.781 74.4606 107.857C74.4749 107.97 75.8337 108.84 77.2605 109.651C77.5564 109.82 77.8181 109.991 77.8355 110.025C77.8355 110.025 81.1086 111.564 83.1943 112.777C82.1794 114.463 83.9944 116.102 82.2449 118.32C82.0104 118.62 81.8461 118.924 81.8796 118.999C82.0186 119.285 82.2622 119.4 82.4953 119.287C82.8404 119.123 83.5383 119.054 83.6 119.178C83.6272 119.239 83.6958 119.169 83.749 119.025C83.8083 118.865 83.891 118.788 83.9638 118.833C84.029 118.873 84.235 118.86 84.4353 118.799C84.8056 118.687 85.9543 118.803 86.3604 118.992C86.4747 119.044 86.6078 119.046 86.6433 118.991C86.6779 118.939 86.7769 118.934 86.8463 118.983C86.9476 119.044 86.9294 119.065 86.7861 119.05C86.6235 119.037 86.6299 119.051 86.8285 119.146C87.0996 119.273 87.3629 119.216 87.1436 119.077C87.0588 119.022 87.0656 118.99 87.157 119.003C87.243 119.014 87.3215 119.1 87.3281 119.19C87.3597 119.549 88.7852 119.676 89.3288 119.364C89.6223 119.196 89.7043 119.055 89.7531 118.637C89.8186 118.079 90.108 118.004 90.2425 118.51C90.2947 118.704 90.3714 118.761 90.4948 118.703C90.6933 118.606 90.7852 118.712 90.7028 118.942C90.6693 119.041 90.8222 119.306 91.1059 119.632C91.7925 120.417 91.8794 120.519 92.09 120.79C92.1972 120.928 92.5115 121.2 92.7985 121.402C93.0799 121.602 93.6879 122.047 94.145 122.386C94.5966 122.725 95.0285 123.003 95.0949 122.993C95.169 122.986 95.2115 123.035 95.2035 123.114C95.1874 123.285 96.2925 123.957 96.3498 123.806C96.3729 123.74 96.4187 123.812 96.4466 123.963C96.4794 124.16 96.7265 124.433 97.2575 124.858C98.1063 125.538 98.6934 125.823 98.8272 125.62C98.8736 125.547 98.9042 125.559 98.8956 125.647C98.8627 125.952 100.613 126.565 101.362 126.513C101.771 126.485 101.834 126.45 101.914 126.205C102.001 125.951 101.985 125.923 101.659 125.846C101.475 125.802 101.287 125.704 101.254 125.639C101.22 125.57 101.13 125.551 101.041 125.592C100.694 125.761 98.7159 124.36 98.1283 123.527C97.9695 123.305 97.6472 122.904 97.4129 122.635C96.8644 122.013 96.6663 121.756 96.4005 121.326C96.2835 121.138 96.1408 120.966 96.0877 120.948C96.0356 120.928 96.0282 120.778 96.0745 120.62C96.1357 120.4 96.1086 120.309 95.9671 120.243C95.8626 120.197 95.6234 119.927 95.4411 119.649C95.3628 119.53 94.3967 118.151 94.4085 118.009C94.4225 117.873 94.1339 117.732 94.0554 117.601C93.9762 117.474 93.0757 116.652 93.1255 116.513C93.2403 116.181 94.1435 117.19 94.4675 117.337C94.8533 117.515 95.2559 117.976 95.7522 118.173C95.923 118.24 96.1356 118.376 96.2296 118.473C96.3227 118.571 96.8416 118.818 97.3977 119.024C97.9557 119.233 98.4924 119.517 98.6053 119.667C98.7177 119.817 99.057 120 99.3666 120.076C102.615 120.89 102.714 121.883 109.82 121.995C110.745 122.009 115.198 121.268 115.307 120.674C115.334 120.511 115.997 120.197 115.862 120.335C114.885 121.305 120.032 118.323 119.994 118.243C119.992 118.241 121.846 116.872 121.848 116.872C121.857 116.865 124.025 114.725 124.025 114.725C124.151 114.433 124.405 114.41 124.289 114.17C124.093 113.761 124.532 114.404 124.628 113.962C124.631 113.945 124.886 113.494 124.886 113.494C125.335 113.54 125.214 112.903 125.346 112.893C125.65 112.868 125.782 112.051 125.962 111.998C126.436 111.864 126.871 110.508 126.871 110.508C127.056 110.523 127.663 109.604 127.633 109.535C127.604 109.474 127.688 109.337 127.824 109.225C127.961 109.115 128.049 108.982 128.022 108.925C127.995 108.874 128.049 108.793 128.14 108.749C128.229 108.706 128.286 108.631 128.264 108.587C128.243 108.542 128.399 108.246 128.608 107.944C131.42 103.837 127.736 107.49 127.454 106.902C127.436 106.865 128.073 105.948 128.282 105.872C128.716 105.709 128.862 105.184 129.261 104.893C129.736 104.55 129.743 104.097 129.918 103.999C130.515 103.668 130.971 102.626 130.971 102.626C131.102 102.701 131.293 102.248 131.252 102.219C131.25 102.218 131.502 101.86 131.502 101.86C131.627 101.899 132.548 100.445 132.629 100.335C132.9 99.9527 132.838 99.7486 132.838 99.7486C133.314 99.7984 133.568 97.2726 133.707 97.2614C134.029 97.2354 133.934 96.3048 134.029 96.3152C134.193 96.333 134.633 94.9773 134.694 94.819C134.746 94.6828 135.321 93.056 135.449 92.9945C135.9 92.7773 135.981 91.0179 135.135 92.1452C133.879 93.8183 132.376 93.7926 132.962 93.509C133.275 93.3607 134.164 90.6216 134.164 90.6216C134.483 90.7989 134.434 90.3212 134.299 90.237C134.162 90.1502 135.329 88.1124 134.75 87.7424C134.71 87.7165 134.926 87.5724 134.944 87.3231C134.964 87.0548 135.125 86.8252 134.933 86.6959C134.85 86.6405 134.833 86.606 134.9 86.6244C135.089 86.6839 135.457 84.6074 135.268 84.541C135.224 84.5244 135.224 84.3456 135.271 84.1342C135.317 83.9221 135.333 83.7167 135.31 83.6669C135.287 83.6178 135.303 83.3431 135.347 83.0509C135.393 82.7597 135.399 82.3111 135.365 82.0555C135.332 81.8022 135.334 81.2201 135.37 80.7823C135.517 78.9857 134.545 77.5649 134.466 76.5532C134.434 76.1442 132.134 70.0132 131.945 70.4523C132.084 70.1293 131.789 69.7279 131.965 69.4508C132.778 68.1869 132.106 68.7397 132.015 68.3499C131.931 68.0241 117.833 67.4681 117.395 67.4852C116.088 67.5319 113.078 68.2636 113.078 68.2636C112.798 67.6777 117.321 65.9245 110.11 67.3226C106.463 68.0319 100.356 70.2358 97.3997 72.5547C96.9558 72.9027 91.852 76.907 92.3293 77.2093C91.2263 76.5116 93.6711 73.1558 91.9749 73.74C91.7087 73.8271 91.5153 74.0952 91.0709 74.9812ZM104.744 69.9386C104.989 69.8799 105.39 69.6574 105.39 69.6574C105.937 69.7858 106.966 69.0322 106.523 69.5123C106.523 69.5123 102.625 71.2258 101.381 72.1253C97.9405 74.6133 95.2023 79.7988 95.2023 79.7988C93.4682 80.766 93.8788 81.597 93.0313 79.6301C92.0488 77.3416 92.7109 78.4677 93.0217 77.442C93.2254 76.7775 95.6081 74.7457 96.1334 74.3015L97.3385 73.2707C98.6656 72.6518 104.098 70.0952 104.744 69.9386ZM105.137 70.8802C105.111 70.9523 104.739 71.2435 104.316 71.5234C103.47 72.0799 103.284 72.2151 102.852 72.5761C101.173 73.98 100.38 75.1234 99.9318 75.6909C97.5267 78.7235 99.2185 78.378 96.6143 79.1131C98.6893 75.3529 98.9331 75.3113 98.9331 75.3113C98.5798 74.5784 105.407 70.1143 105.137 70.8802ZM110.057 68.636C109.832 68.7433 109.862 68.4556 110.018 68.3836C110.079 68.3497 110.144 68.3746 110.175 68.4423C110.213 68.5167 110.136 68.5982 110.057 68.636ZM88.3824 86.363C88.0135 86.3209 86.6204 93.243 86.7408 93.4975C86.7408 93.4975 86.66 98.5844 86.6611 98.5874C86.6132 101.219 87.748 103.859 87.7978 106.133C87.8112 106.764 87.9976 107.794 87.9889 108.037C87.9823 108.201 88.1624 109.422 88.1001 109.484C87.7017 109.862 87.278 106.758 86.6535 106.988C85.7379 107.323 87.4903 108.86 86.9131 109.14C86.5831 109.299 86.2901 107.428 86.0899 107.327C85.972 107.268 85.9506 107.143 86.0216 106.933C86.1097 106.672 86.1373 106.648 86.2047 106.789C86.3702 107.133 87.1515 106.748 86.8057 106.432C86.7302 106.359 86.6781 106.253 86.6948 106.2C86.7381 106.08 86.6989 105.899 86.494 105.263C86.2141 104.391 86.0516 103.601 86.0214 102.975C86.0153 102.826 85.9675 102.58 85.9142 102.414C85.8641 102.25 85.8132 101.886 85.8056 101.592C85.791 101.149 85.7467 101.035 85.5395 100.901C85.3218 100.763 85.3238 100.748 85.5346 100.805C85.7323 100.854 85.7668 100.819 85.7374 100.603C85.716 100.464 85.6359 100.301 85.5618 100.252C85.4765 100.196 85.4844 100.171 85.5796 100.183C85.6814 100.195 85.6952 99.9377 85.6141 99.4729C85.5438 99.0699 85.5393 98.644 85.5987 98.5214C85.6603 98.3962 85.6694 98.3183 85.6208 98.34C85.5719 98.365 85.5524 98.2176 85.5784 98.0132C85.6037 97.8132 85.577 97.6178 85.5194 97.5809C85.4556 97.5419 85.4437 97.4837 85.4938 97.4315C85.593 97.3235 85.6846 94.4655 85.6993 94.312C85.6993 94.312 85.7668 92.4583 85.7662 92.4581C85.7799 92.1429 86.1634 90.0442 86.1634 90.0442C86.0685 89.8091 86.915 86.4615 87.5572 84.6757C87.6253 84.4872 87.9365 83.3574 88.1391 83.261C88.1391 83.261 88.9825 81.3104 89.1424 81.0224C89.2822 80.7771 90.5169 78.1733 90.6417 78.4265C90.7707 78.6986 88.0522 86.3263 88.3824 86.363ZM88.0796 80.0238C88.0796 80.0238 87.0691 81.5969 87.0675 81.5998C86.7987 81.7271 86.4971 83.0443 86.4971 83.0443C86.1357 82.9998 84.163 88.6772 84.46 88.8642C84.46 88.8642 83.7443 91.4436 83.7435 91.4461C83.6357 91.7438 83.5207 93.4514 83.4432 93.6079C83.368 93.772 83.3359 95.2843 83.4727 95.7028C83.4958 95.7726 83.4526 95.8243 83.3788 95.8152C83.302 95.8092 83.2351 96.0451 83.2268 96.3513C83.2164 96.7779 83.2675 96.9508 83.4483 97.1267C83.6875 97.352 83.6207 97.5557 83.38 97.3373C83.2284 97.1948 83.4767 97.6349 83.4061 97.8528C83.2969 98.2106 83.8864 101.689 83.9417 102.057C84.4167 105.275 88.5908 114.856 82.6138 100.874C82.044 99.5426 81.8668 98.9237 81.8668 98.9237C81.8674 98.9219 81.804 97.9264 81.6545 97.617C81.5855 97.4748 81.5683 97.2494 81.6219 97.1392C81.6727 97.0226 81.695 96.9005 81.6706 96.8625C81.6296 96.8025 81.5667 95.9357 81.537 95.8187C81.4464 95.4545 81.4353 94.9363 81.5161 94.8165C81.5636 94.7446 81.5786 94.635 81.5492 94.5746C81.5214 94.5174 81.4529 94.5322 81.4048 94.6038C81.352 94.6881 81.3246 94.6768 81.3335 94.578C81.3412 94.4916 81.402 94.4179 81.4617 94.4206C81.5223 94.4248 81.562 94.2026 81.5532 93.9354C81.1806 85.5654 88.1686 79.0979 88.0796 80.0238ZM88.9325 80.0178C84.1078 89.1005 85.0828 95.8133 84.7807 97.316C84.7301 97.5706 84.8639 98.2505 84.7822 98.6062C84.7535 98.7358 84.7864 99.2298 84.8593 99.7271C84.9895 100.613 85.0924 101.692 85.1286 102.479C85.1468 102.934 85.4073 103.389 85.4835 104.006C85.5231 104.312 85.6812 104.891 85.8369 105.307C86.1664 106.167 86.2238 106.478 86.0768 106.55C86.0243 106.576 85.8928 106.374 85.7942 106.108C85.6614 105.752 85.5446 105.603 85.361 105.562C85.2248 105.532 85.1849 105.506 85.2745 105.508C85.5154 105.512 85.4849 105.109 85.1795 104.263C84.3494 101.958 84.0929 98.4814 83.9318 97.0912C83.7871 95.8408 84.0841 95.0812 84.0453 94.2489C84.0243 93.7815 84.1918 92.7107 84.1918 92.7107C84.189 92.7132 84.3369 91.1236 84.3369 91.1236C84.8664 91.1617 84.4708 89.4603 84.6402 89.4779C84.8287 89.4969 85.5118 86.9933 85.602 86.8179C85.773 86.497 85.5196 86.3869 85.7654 85.9866C85.8693 85.8189 87.4042 82.065 87.5812 82.1288C87.6021 82.1306 88.0281 81.226 87.9547 81.1793C87.9543 81.1785 88.1643 80.6802 88.1643 80.6802C88.6388 80.5322 88.3261 80.3201 88.4082 80.3264C88.6242 80.352 88.9363 79.4781 89.1533 79.3722C89.2428 79.327 89.1468 79.613 88.9325 80.0178ZM105.341 71.8008C105.341 71.8008 98.9652 78.2573 98.9287 78.2727C100.332 75.8849 102.25 73.2741 105.698 71.424L105.341 71.8008ZM109.33 72.9891C108.996 73.0178 109.275 76.2818 109.194 76.5949C109.194 76.5973 108.679 81.1589 108.679 81.1589C108.938 81.6957 107.217 86.8592 106.306 87.0539C105.032 87.3217 104.855 87.0286 103.642 87.5003C102.809 87.8242 101.063 82.9083 101.119 82.6299C101.279 81.8286 100.099 82.4025 101.664 79.7479C101.761 79.5841 101.785 79.4059 101.72 79.3431C101.72 79.3431 102.532 78.4443 102.502 77.8703C102.502 77.8703 102.755 77.7475 103.271 77.052C103.409 76.8654 105.978 73.3967 106.187 73.2897C106.468 73.1466 106.166 72.9481 106.416 72.9232C106.816 72.8876 107.252 71.9666 107.787 71.575C108.236 71.2495 109.473 69.8676 110.037 69.5943C110.239 69.4986 110.523 68.8821 110.629 69.108C110.632 69.1049 109.33 72.9891 109.33 72.9891ZM111.384 69.2831C111.365 69.3236 110.537 68.9115 111.123 69.1087C111.284 69.16 111.4 69.2396 111.384 69.2831ZM107.556 71.0208C107.472 71.2607 102.539 76.424 102.307 77.5224C102.307 77.5224 102.073 77.7971 101.336 79.4167C100.102 82.1362 100.451 79.1549 100.779 78.3311C100.921 77.974 101.016 77.5924 100.994 77.4615C100.972 77.3336 101.01 77.199 101.077 77.1695C101.228 77.0979 102.424 75.5698 102.611 75.4798C102.696 75.4368 102.782 75.3166 102.814 75.1933C102.877 74.9333 105.861 72.1065 106.878 71.3368C107.228 71.075 107.599 70.9003 107.556 71.0208ZM95.1338 88.324C95.6175 89.3306 96.674 95.8424 96.674 95.8424C96.6832 95.8494 96.4718 98.1496 96.4354 98.1671C96.4142 98.1786 95.7531 101.771 95.8974 101.866C96.0209 101.948 94.8076 103.65 95.2354 103.924C95.2354 103.924 94.3313 105.801 94.3303 105.802C94.1516 106.1 94.3466 106.241 94.2429 106.231C93.93 106.195 93.9891 106.813 93.8926 107.085C93.4989 107.077 92.8536 108.582 92.925 108.674C92.925 108.674 91.7959 110.098 91.7859 110.194C91.7537 110.495 89.9943 112.724 89.6863 112.617C88.8248 112.309 89.0951 110.823 88.915 110.444C88.915 110.444 88.8192 109.272 88.8188 109.269C88.8248 109.038 88.6291 107.918 88.6403 107.896C88.8236 107.538 88.2124 106.722 88.3294 106.453C88.4666 106.135 88.1505 103.581 87.8721 102.764C87.7838 102.508 87.7118 102.172 87.7095 102.026C87.6988 101.581 87.4519 100.585 87.3321 100.508C87.2625 100.464 87.2624 100.405 87.3288 100.375C87.3874 100.345 87.4002 100.23 87.3519 100.131C87.3008 100.026 87.262 99.6962 87.2601 99.3882C87.2543 98.246 87.1987 97.2685 87.1299 97.1237C87.0876 97.0358 87.1026 96.9476 87.166 96.9151C87.3276 96.8375 87.0658 96.5579 87.2282 96.4779C87.2901 96.4503 87.2917 96.3317 87.2335 96.2111C87.1738 96.0908 87.1507 95.7753 87.1753 95.4898C87.2086 95.0953 87.1752 94.9684 87.0173 94.8951C86.8576 94.8233 86.8646 94.7905 87.0361 94.7564C87.2529 94.7089 87.4976 92.2665 87.5707 92.0385C87.5707 92.0385 88.2905 88.6363 88.3271 88.52C88.3649 88.3933 90.4777 81.2496 90.4988 80.9966C90.9756 75.1773 95.4115 89.2799 95.1338 88.324ZM111.158 69.7892C110.867 70.0991 111.169 69.3762 111.276 69.5956C111.295 69.6365 111.186 69.7603 111.158 69.7892ZM115.007 68.4481C115.395 68.398 119.962 67.7469 120.596 67.9349C120.596 67.9349 126.01 68.4354 126.015 68.4075C126.015 68.4075 128.558 68.5864 128.614 68.6112C128.614 68.6112 120.368 69.5577 117.301 70.9867C115.88 71.6487 115.74 71.9971 115.74 71.9971C111.833 72.6394 110.425 72.7566 110.504 72.7433C111.041 71.4152 111.598 68.8929 115.007 68.4481ZM110.472 70.7457C110.536 70.7162 110.602 70.7389 110.631 70.8059C110.784 71.1212 110.143 70.9059 110.472 70.7457ZM110.411 71.3907C110.081 72.0181 110.675 70.891 110.411 71.3907V71.3907ZM110.008 72.5192C109.774 72.7598 109.985 72.0045 110.111 72.267C110.144 72.3367 110.064 72.4641 110.008 72.5192ZM86.257 84.4568C86.2214 84.8499 85.6089 84.6544 86.0981 84.4189C86.1883 84.3739 86.2607 84.394 86.257 84.4568ZM96.5584 80.2546L98.5433 79.5783C98.5433 79.5783 95.8394 86.0932 95.8386 86.0957C93.066 79.7527 94.0815 82.3483 96.5584 80.2546ZM117.494 73.6207C108.539 77.8277 109.79 77.5339 109.79 77.5339C109.797 77.4431 109.733 76.7025 109.781 76.7064C109.87 76.7154 110.034 75.3852 110.08 75.2456C110.22 74.8168 110.164 74.3611 110.164 74.3611C110.238 74.3716 110.304 74.2526 110.312 74.1004C110.322 73.8228 110.5 73.6335 110.582 73.8059C110.581 73.8055 110.888 72.9252 117.494 73.6207ZM88.9072 85.2365C88.7633 85.6467 89.0854 84.7281 88.9072 85.2365V85.2365ZM99.2168 80.3433C99.3017 81.0266 104.608 93.6986 100.682 92.6794C100.041 92.5138 99.0553 92.6073 98.1197 92.923C97.3193 93.1978 97.6376 93.0269 97.3873 92.3386C97.344 92.2133 97.3105 91.9733 97.3153 91.8214C97.3264 91.5874 96.6035 88.5451 96.4526 88.396C96.4526 88.396 96.5782 88.2344 96.3659 87.6287C95.7678 85.9146 99.1044 79.4031 99.2168 80.3433ZM119.61 70.5966C120.84 69.9722 129.801 69.4678 125.069 70.0379C120.742 70.5563 115.757 73.6599 116.204 72.3786C116.26 72.2206 118.44 71.0076 118.949 70.8521C119.175 70.7801 119.474 70.6651 119.61 70.5966ZM121.694 71.3296C133.498 67.3325 120.001 73.2224 120.111 72.8656C120.339 72.1167 119.154 72.1969 120.35 71.7845C120.511 71.7308 121.109 71.5282 121.694 71.3296ZM100.118 81.5755C100.147 81.5619 100.188 81.5963 100.221 81.6619C100.371 81.9735 99.7992 81.7288 100.118 81.5755ZM114.888 75.2123C120.985 72.9451 112.339 76.4741 109.538 80.1946C109.792 77.5258 112.505 76.0944 114.888 75.2123ZM123.184 72.1623C133.062 68.0066 122.217 76.3318 120.687 77.2469C118.383 78.6215 118.286 80.9744 119.722 74.7862C119.908 73.9763 121.166 72.9284 121.787 72.7272C121.936 72.677 122.562 72.4248 123.184 72.1623ZM115.569 76.4835C110.625 80.3726 109.306 82.1723 109.306 82.1723C109.283 82.1272 109.693 80.4319 109.802 80.4096C109.802 80.4096 111.054 79.1966 112.629 78.0634C114.648 76.6068 117.53 74.9412 115.569 76.4835ZM118.388 75.4086C117.484 79.6114 116.06 81.3738 116.06 81.3738C116.038 81.5626 114.369 83.7007 114.482 83.5553C113.76 83.426 113.337 83.3463 112.384 83.2728C110.047 83.1005 118.563 74.6023 118.388 75.4086ZM87.5474 89.9349C87.3846 89.8298 87.7536 89.66 87.7892 89.7372C87.8475 89.8598 87.6619 90.0093 87.5474 89.9349ZM129.646 70.6161C124.679 78.5545 127.522 74.7893 121.327 77.348C121.319 77.3524 129.372 70.5189 129.661 70.3632C129.832 70.2702 129.83 70.3226 129.646 70.6161ZM115.209 77.7731C114.774 78.3714 111.368 81.3977 110.92 82.8364C110.771 83.3149 108.217 84.1167 110.158 82.1687L112.076 79.893C112.027 79.8614 112.105 79.812 112.243 79.7873C112.398 79.7567 115.817 76.9331 115.209 77.7731ZM85.3087 92.5072C85.3743 92.474 85.4488 92.4982 85.4777 92.5604C85.6228 92.8644 85.0979 92.6084 85.3087 92.5072ZM133.832 76.408C133.896 76.4829 134.716 79.2955 134.738 80.5394C134.745 81.0108 134.773 81.647 134.795 81.9399C134.818 82.2417 134.808 82.5824 134.773 82.7176C134.741 82.8515 134.723 83.2916 134.734 83.7089C134.749 84.1239 134.72 84.5185 134.675 84.5871C134.627 84.6615 134.627 84.7861 134.676 84.885C134.764 85.0674 134.325 87.0718 134.332 87.3419C134.352 88.0543 133.797 87.5333 133.982 87.4415C133.996 87.4346 134.002 86.374 134.079 86.1574C134.138 85.9942 134.144 85.7593 134.097 85.66C134.006 85.473 133.637 82.8765 133.63 82.3757C133.627 82.2242 133.545 81.9684 133.442 81.7865C133.345 81.6095 133.2 81.0047 133.122 80.4426C133.049 79.8814 132.884 79.1357 132.759 78.783C132.558 78.2193 132.608 77.9067 132.446 77.5744C132.022 76.7264 132.046 74.9816 132.018 74.9257C131.076 72.9647 130.103 75.8237 128.824 75.3753C128.824 75.3753 130.827 71.4936 130.482 71.2721C130.333 71.1781 131.331 70.8651 131.177 70.5429C131.087 70.362 131.312 70.2391 131.548 70.8695C133.809 75.2749 133.832 76.408 133.832 76.408ZM85.3953 95.9467C85.5947 96.1339 85.2686 96.0864 85.2061 95.9558C85.1304 95.7987 85.23 95.7944 85.3953 95.9467ZM109.853 84.2221C112.487 84.3487 114.047 84.7962 114.047 84.7962C114.188 84.7289 116.15 85.2987 116.639 85.0973C123.049 82.4346 114.172 87.9605 113.631 88.3404C112.478 89.1419 111.432 90.4065 111.432 90.4065C111.289 90.4773 111.023 91.2962 110.897 91.2492C110.774 91.2078 110.824 89.8531 110.958 89.6505C111.054 89.5038 111.387 87.1922 111.189 86.9899C111.188 86.9861 106.112 87.4767 107.608 86.9847C107.881 86.8979 108.015 86.7309 108.201 86.2685C108.753 84.8949 108.485 84.1574 109.853 84.2221ZM123.563 77.6112C135.552 74.556 121.592 80.2618 122.871 82.1573C122.719 81.9305 120.427 82.8989 120.263 83.0318C119.819 83.3857 120.015 83.2073 119.519 83.3384C110.139 85.8446 120.104 78.4909 123.563 77.6112ZM111.192 84.1302C110.979 84.2361 111.109 83.6636 111.255 83.9658C111.286 84.0279 111.256 84.1011 111.192 84.1302ZM105.072 87.8112C105.77 87.7351 106.457 87.4183 106.457 87.4183C106.918 87.5788 106.047 87.7792 106.548 87.679C106.549 87.6774 107.416 87.7016 107.418 87.7027C107.376 88.11 108.586 87.3923 108.568 87.5763C108.542 87.8089 109.039 87.5584 109.121 87.7267C109.148 87.7857 109.587 87.7316 109.731 87.7593C109.974 87.809 109.934 88.9937 109.909 88.9377C109.843 88.9155 109.016 96.977 108.17 96.0603C108.17 96.0603 103.439 93.7221 103.408 93.7095C102.001 93.2176 102.69 93.5064 102.924 89.0161L102.958 88.3393C103.57 88.1157 104.005 87.9294 105.072 87.8112ZM127.373 78.6034C125.568 80.4337 123.376 83.7221 123.376 83.7221C122.591 82.0966 128.954 76.9927 127.373 78.6034ZM71.2414 106.049C74.396 105.908 74.4271 105.063 74.7712 106.062C75.1834 107.26 75.4312 107.392 74.5728 107.146C74.1631 107.024 74.3912 107.253 73.9014 107.058C73.5915 106.938 73.2171 106.926 73.2171 106.926C73.1586 106.806 72.1125 106.885 72.0509 106.758C72.036 106.733 69.7272 106.258 70.0268 106.116C70.0449 106.106 70.5922 106.077 71.2414 106.049ZM126.934 86.7556C126.87 87.121 126.821 87.7615 126.827 88.1684C126.842 89.2105 126.74 90.5312 126.526 92.0105C126.253 93.8943 126.507 93.0938 126.167 94.3855C126.109 94.6101 125.304 97.7384 125.095 97.8388C125.055 97.8579 125.039 97.7108 125.064 97.5196C125.088 97.3329 125.08 97.0645 125.047 96.9518C125.014 96.8298 125.047 96.7225 125.121 96.7042C125.195 96.6863 125.223 96.6071 125.185 96.5306C125.855 87.9411 122.475 86.791 124.74 82.9844C130.718 72.9522 128.153 79.9314 126.934 86.7556ZM129.84 78.6944C129.632 78.7956 129.742 77.3771 130.055 78.1773C130.136 78.3477 129.921 78.6547 129.84 78.6944ZM132.668 84.1322C134.502 89.5328 131.017 95.6017 131.278 94.7536C131.182 94.7932 128.335 96.009 128.29 95.9134C128.27 95.875 128.471 95.5868 128.731 95.2799C128.992 94.9719 129.181 94.6573 129.147 94.5899C129.112 94.5178 129.173 94.3587 129.283 94.2239C129.638 93.7987 129.961 92.9841 129.832 92.8541C129.759 92.7786 129.771 92.7325 129.861 92.74C130.036 92.7587 130.348 91.8444 130.364 91.2641C130.379 90.8362 130.357 90.7777 130.238 90.9555C130.184 91.0382 130.152 91.0306 130.162 90.9355C130.173 90.8454 130.244 90.738 130.321 90.7016C130.471 90.6299 130.596 90.0508 130.527 89.7607C130.504 89.6783 130.521 89.4945 130.558 89.3823C130.599 89.2627 130.591 89.0073 130.542 88.8157C130.493 88.6192 130.492 88.4441 130.542 88.4185C130.614 88.3875 130.615 88.0972 130.549 87.7352C130.541 87.7019 130.527 87.5079 130.513 87.2962C130.498 87.0868 130.446 86.8949 130.391 86.8601C130.331 86.8238 130.321 86.7675 130.365 86.7201C130.487 86.5875 130.294 84.7426 130.143 84.6009C130.065 84.5273 130.064 84.4504 130.133 84.4336C130.207 84.4172 130.243 84.253 130.207 84.079C130.176 83.9056 130.171 83.5791 130.202 83.3771C130.23 83.1704 130.199 82.9582 130.13 82.9129C130.06 82.8702 130.056 82.8084 130.125 82.7742C130.779 82.4585 128.672 72.3426 132.668 84.1322ZM85.4672 100.044C85.2428 100.155 85.2714 99.8669 85.4285 99.7932C85.4929 99.7617 85.5552 99.786 85.5852 99.8533C85.623 99.9298 85.5454 100.008 85.4672 100.044ZM98.0505 93.8949C98.7473 93.8357 103.405 93.0667 106.752 96.2617C106.752 96.2617 100.641 95.007 98.3686 95.9857C97.9419 96.1702 97.7154 96.6822 97.7025 94.4298C97.7024 94.2401 97.7344 94.0315 97.7755 93.9563C97.8873 93.7446 98.0329 93.7137 98.0505 93.8949ZM87.0418 99.4917C86.8538 99.4735 86.7467 99.2474 86.9366 99.2702C87.023 99.2799 87.0989 99.3274 87.1331 99.394C87.1668 99.4644 87.1217 99.4987 87.0418 99.4917ZM129.029 79.2565C128.723 84.2637 128.802 84.3194 128.802 84.3194C128.752 84.5209 128.996 84.676 128.911 84.7166C128.668 84.8349 128.932 86.746 128.802 86.8095C128.72 86.8488 128.789 87.2008 128.744 87.367C128.697 87.5419 128.462 90.4341 128.46 90.6164C128.441 92.8099 126.721 95.9026 126.415 96.7634C126.213 97.3243 125.938 97.5701 126.355 96.1304C126.95 94.0612 126.653 93.9529 126.653 93.9529C126.956 94.1291 127.033 93.2305 127.037 92.8917C127.047 91.8214 127.409 89.8443 127.409 89.8443C127.341 89.7032 127.465 89.2376 127.454 89.2248C127.312 88.9998 127.615 86.1572 127.595 86.1651C127.595 86.1651 127.731 85.3233 127.727 84.6733C127.726 84.2264 127.755 83.8217 127.791 83.7766C127.839 83.7222 127.776 82.8784 127.91 82.6374C128.058 82.3679 127.821 82.1385 127.947 82.1215C127.965 82.1178 129.085 78.3154 129.029 79.2565ZM76.1973 105.347C76.2224 105.278 76.5788 106.405 76.6079 106.483C76.686 106.697 77.1437 108.209 77.2657 108.016C77.4625 107.697 77.6434 108.498 76.7672 108.038C76.4656 107.88 75.6831 105.976 75.5305 106.05C75.3086 106.155 75.9684 107.47 75.8335 107.535C75.4181 107.735 75.4277 106.456 75.2743 106.001C75.0919 105.458 74.9678 105.444 75.6241 105.454C75.9084 105.459 76.1755 105.41 76.1973 105.347ZM77.4708 105.702C77.319 105.992 78.3196 108.787 78.1942 108.847C78.1282 108.88 78.1274 108.641 77.9048 108.585C77.6495 108.522 77.5172 107.803 77.4974 107.795C77.2025 107.696 76.9647 105.734 76.8287 105.6C76.7122 105.489 76.764 105.468 77.1347 105.474C77.5341 105.486 77.5674 105.508 77.4708 105.702ZM78.429 105.607C78.7014 105.475 79.1318 105.633 79.341 106.256C79.6077 107.08 79.4735 107.074 80.0919 108.681C80.3891 109.457 80.8464 110.304 80.1786 109.904C79.7446 109.643 79.766 109.289 79.2124 107.406C79.116 107.079 78.9104 105.85 78.6133 105.874C77.9212 105.936 78.9259 106.88 78.8384 107.474C78.8137 107.653 79.4495 109.333 79.3025 109.402C78.7227 109.68 78.5122 108.254 78.3425 107.688C78.0805 106.804 78.0807 106.395 77.9039 105.967C77.7794 105.675 78.0724 105.402 78.0522 105.347C78.0265 105.268 78.0781 105.307 78.1681 105.425C78.2526 105.548 78.377 105.633 78.429 105.607ZM129.658 80.944C129.641 81.3188 129.977 81.0529 130.034 81.1707C130.149 81.4093 129.188 81.7763 129.748 82.1375C129.866 82.2123 129.585 82.4951 129.692 82.7208C129.744 82.8331 129.745 82.9541 129.693 82.9805C129.529 83.0602 129.72 85.1864 129.716 85.3742C129.708 86.0222 129.935 86.1266 129.935 86.1266C129.723 86.2294 129.955 86.6618 129.823 86.7391C129.475 86.9419 130.128 86.5915 129.932 86.9914C129.932 86.9914 129.95 88.054 129.714 91.3921C129.658 92.2201 128.96 93.5026 128.655 94.2737C127.684 96.7332 127.187 95.6074 127.773 95.3236C127.964 95.2317 128.489 92.993 128.489 92.993C128.869 93.0367 128.513 92.3305 128.707 92.3437C129.041 92.3703 129.089 90.003 129.106 89.6863C129.114 89.5413 129.256 88.8825 129.219 88.8077C129.128 88.6182 129.237 87.9643 129.114 87.8797C129.114 87.8797 129.289 87.513 129.3 87.2212C129.414 84.5323 129.295 83.6868 129.295 83.6868C129.461 82.8868 129.723 79.4043 129.658 80.944ZM117.817 86.8668C109.707 94.2669 110.341 93.9382 110.341 93.9382C109.115 91.3908 116.415 87.1521 118.904 85.8749L117.817 86.8668ZM120.939 85.7242C118.606 91.3184 113.65 95.9272 114.144 95.4523C113.839 96.3216 108.243 100.235 112.661 94.238C112.712 94.1705 115.876 90.9005 115.836 90.832C115.464 90.1614 113.614 92.0623 113.433 92.5778C113.433 92.5778 112.897 92.9996 111.414 94.897C106.623 101.027 112.296 91.0782 115.413 89.5813C115.413 89.5813 116.193 88.865 116.195 88.8635C116.195 88.8635 116.951 88.3883 118.402 87.1127C119.033 86.5638 118.778 86.5186 118.778 86.5186C119.112 86.4758 119.629 85.5421 119.763 85.8276C120.093 86.5359 115.556 89.9696 115.835 90.546C116.031 90.9547 116.553 90.494 116.594 90.27C116.594 90.27 119.495 87.6936 119.616 87.2029C119.664 87.14 121.089 84.9958 121.14 85.0138C121.184 85.0345 121.097 85.3453 120.939 85.7242ZM122.15 84.9779C122.18 84.9644 122.221 84.9974 122.252 85.0651C122.405 85.3777 121.819 85.1375 122.15 84.9779ZM99.614 96.3124C105.27 95.5726 97.8213 97.0789 97.8786 96.9738C98.0298 96.6924 98.7185 96.4322 99.614 96.3124ZM121.729 85.9702C121.505 86.8026 119.005 99.6672 115.023 98.4947C112.189 97.6665 111.638 98.2013 113.245 97.0066C119.38 92.4428 122.641 82.588 121.729 85.9702ZM80.6993 106.215C81.3346 106.541 81.7108 107.723 81.7615 108.314C81.8527 109.332 83.7913 113.424 82.3527 108.817C81.1121 104.788 83.1128 108.214 82.705 108.866C82.6839 108.902 83.7099 110.785 83.5504 111.248C83.5178 111.337 82.1453 110.788 82.0565 110.756C81.9687 110.727 80.8796 106.907 80.8407 106.8C80.5379 105.943 80.1238 106.314 80.2999 106.637C82.1914 110.077 80.8396 110.082 80.8396 110.082C81.1822 110.109 80.0581 107.354 79.9574 106.978C79.6739 105.92 79.6737 105.945 79.957 105.955C80.1004 105.963 80.4405 106.082 80.6993 106.215ZM99.7422 97.2408C99.7475 97.2432 101.678 96.8438 101.687 96.8572C101.702 96.8903 103.417 96.8328 103.446 96.8451C110.997 98.2096 105.391 97.1124 105.672 97.7007C105.727 97.2013 100.528 97.7963 101.021 97.7121C99.9849 97.6623 97.7359 98.5408 97.7359 98.5408C97.4366 97.9185 99.3226 97.1377 99.7422 97.2408ZM121.84 91.2003C119.451 97.9379 117.754 98.7459 117.754 98.7459C116.929 98.7681 117.233 98.7604 116.411 98.7793C118.058 97.3495 119.724 94.5776 119.724 94.5776C120.474 94.2173 122.273 87.0886 122.097 86.7184C121.969 86.452 122.287 85.9845 122.373 86.1647C122.501 86.4299 121.84 91.2003 121.84 91.2003ZM102.135 96.2388C102.224 96.2002 102.311 96.1798 102.323 96.2044C102.442 96.453 101.683 96.4579 102.135 96.2388ZM103.43 96.1882C103.291 96.5865 103.604 95.6921 103.43 96.1882V96.1882ZM102.838 96.4439C102.907 96.4138 102.977 96.4373 103.007 96.5018C103.154 96.8037 102.627 96.5476 102.838 96.4439ZM123.477 88.5819C123.582 88.6256 124.14 92.0419 123.998 92.1123C123.913 92.1527 124.178 92.3936 124.088 92.537C124.083 92.5441 124.171 93.5433 124.174 93.7454C124.179 94.232 124.338 95.0738 124.338 95.0738C124.247 95.119 124.051 97.4301 124.044 97.5288C123.781 101.501 120.73 105.921 120.73 105.921C120.879 106.232 118.032 109.21 117.438 108.62C117.421 108.602 117.93 106.878 117.98 106.984C117.725 106.456 118.942 101.496 120.959 98.8203C121.732 97.7928 118.157 98.6777 118.686 98.6499C118.979 98.127 120.971 95.9595 120.362 95.8729C121.374 96.2439 122.335 90.1788 122.559 89.349C123.114 87.2645 122.878 86.4154 123.241 87.5278C123.324 87.7068 123.471 88.5771 123.477 88.5819ZM96.8368 100.557C96.4933 100.723 96.9171 100.231 96.764 99.912C96.5638 99.4945 97.2505 100.358 96.8368 100.557ZM100.706 98.3555C100.946 98.3269 104.809 97.7276 104.73 97.955C120.461 100.04 103.879 99.4349 104.404 100.532C104.404 100.532 102.595 100.557 99.2082 102.59C97.4768 103.63 94.9154 105.913 95.6453 105.082C95.8092 104.895 96.2742 103.817 96.2774 103.818C97.8852 103.042 95.7445 99.0045 100.706 98.3555ZM84.2134 107.255C84.0096 107.838 83.5368 106.333 83.8871 107.06C84.1224 107.555 84.3655 106.817 84.2134 107.255ZM83.2247 107.568C83.5526 107.745 84.2121 111.023 84.2911 111.385C84.4172 111.994 83.7577 111.323 83.8373 110.726C83.8574 110.557 82.889 107.739 82.8243 107.692C82.5519 107.494 82.8897 107.391 83.2247 107.568ZM96.64 100.789C96.7082 100.754 96.7612 100.755 96.7759 100.785C96.9093 101.066 96.3279 100.939 96.64 100.789ZM84.1919 108.178C84.694 108.658 85.5928 114.249 84.5662 110.607C83.9053 108.261 83.8376 107.842 84.1919 108.178ZM107.317 97.9627C107.657 98.1868 106.65 98.1456 107.091 97.9346C107.153 97.9036 107.244 97.917 107.317 97.9627ZM85.3101 108.958C85.5153 108.86 85.7594 110.271 85.8009 110.455C85.875 110.807 86.2682 112.131 85.9348 112.049C85.4398 111.927 84.8263 109.191 85.3101 108.958ZM101.388 102.038C104.675 99.3894 121.296 100.185 110.923 100.739C108.169 100.889 106.233 101.339 103.495 102.457C102.929 102.691 102.183 102.988 101.818 103.128C101.246 103.352 101.184 103.4 101.318 103.542C101.455 103.682 101.449 103.687 101.247 103.565C101.123 103.489 100.947 103.476 100.843 103.531C100.682 103.616 100.695 103.636 100.951 103.681C101.117 103.714 101.189 103.764 101.122 103.798C100.944 103.882 100.696 103.622 100.378 103.821C100.083 104.006 97.6951 105.568 97.3763 105.706C96.5813 106.054 95.8401 107.083 94.2808 108.361C93.1535 109.29 94.0646 108.505 93.9809 108.057C93.9429 107.87 93.976 107.81 94.0731 107.877C94.1826 107.944 94.3213 107.805 94.5622 107.38C95.3864 105.943 96.4254 105.69 96.865 105.09C98.0943 103.41 100.869 102.458 101.388 102.038ZM102.382 101.288C102.48 101.242 102.574 101.254 102.606 101.316C102.756 101.627 102.012 101.467 102.382 101.288ZM128.998 88.754C129.027 88.7389 129.068 88.7733 129.1 88.8395C129.253 89.1532 128.669 88.9109 128.998 88.754ZM86.9797 109.339C87.0061 109.095 87.3392 109.533 87.5375 110.076C88.0775 111.199 86.9225 109.869 86.9797 109.339ZM86.2946 110.524C86.4479 110.625 86.2686 110.884 86.1673 110.667C86.0712 110.468 86.1228 110.411 86.2946 110.524ZM87.0595 112.285C86.6069 112.176 85.7793 109.994 87.0737 111.611C87.358 112.196 87.9363 112.494 87.0595 112.285ZM104.17 102.665C119.438 97.5336 92.6615 107.029 92.2079 111.377C92.1828 111.611 91.4888 111.424 91.83 111.259C91.8848 111.233 94.7767 108.782 94.7411 108.703C94.7411 108.703 95.3742 108.128 95.6259 107.862C95.6259 107.862 96.086 107.51 96.6699 106.954C99.0377 104.701 103.581 102.938 104.17 102.665ZM96.4952 106.706C96.564 106.671 96.6166 106.671 96.6307 106.701C96.7661 106.98 96.1833 106.854 96.4952 106.706ZM96.2174 106.975C96.2857 106.942 96.3368 106.942 96.3521 106.972C96.4891 107.251 95.9053 107.124 96.2174 106.975ZM87.8832 111.254C87.9146 111.24 87.9557 111.276 87.985 111.341C88.1386 111.657 87.5633 111.409 87.8832 111.254ZM104.648 103.426C106.582 102.485 115.776 100.961 115.776 100.961C123.804 97.101 104.763 113.269 97.7882 112.637C97.7882 112.637 95.4979 113.084 94.176 113.11C93.596 113.121 93.2723 113.341 93.2723 113.341C93.4682 113.103 91.434 113.083 91.359 113.121C91.2712 113.161 91.1771 113.169 91.1613 113.133C91.1136 113.033 91.2745 112.62 91.3507 112.649C91.349 112.648 97.7668 106.77 104.648 103.426ZM101.123 105.145C101.137 105.016 101.436 104.816 101.477 104.905C101.51 104.975 101.106 105.311 101.123 105.145ZM98.742 106.711C99.0211 106.893 98.3348 106.44 98.742 106.711V106.711ZM93.5435 109.43C93.527 109.247 93.6805 109.046 93.7417 109.17C93.7747 109.24 93.5766 109.793 93.5435 109.43ZM97.0857 107.644C97.1507 107.611 97.2142 107.634 97.2465 107.696C97.462 108.148 96.7552 107.803 97.0857 107.644ZM84.787 114.304C84.8434 115.051 85.2493 114.024 85.0099 114.706C84.9434 114.889 85.3756 115.861 85.2985 115.898C84.96 116.061 86.0649 116.569 85.6407 116.7C85.3011 116.803 86.4409 117.809 85.519 117.634C85.3803 117.607 84.8485 115.539 84.7739 115.336C84.3296 114.114 84.537 117.01 85.0334 117.493C85.2083 117.662 84.8471 117.52 84.9309 117.735C85.0534 118.056 84.9113 117.58 84.5094 117.775C83.9016 118.064 83.8799 117.776 83.9877 117.344C84.0618 117.046 84.0621 116.494 84.0621 116.494C84.0794 116.486 83.8673 114.608 83.951 114.372C84.0496 114.091 84.3709 114.577 84.2545 114.635C83.8637 114.82 84.7901 115.417 84.578 114.404C84.4399 113.746 84.6213 113.67 84.7122 113.862C84.7511 113.942 84.7806 114.21 84.787 114.304ZM85.4022 113.688C85.5963 113.753 85.8662 115.164 85.9499 115.402C85.9917 115.521 86.2438 116.672 86.3358 116.685C86.5131 116.707 86.4052 117.484 86.5671 117.585C86.8078 117.744 86.248 118.334 86.111 117.207C86.0063 116.339 85.7633 116.215 85.5976 115.448C85.5169 115.078 85.0494 114.943 85.213 114.858C85.3392 114.794 85.3432 114.613 85.2248 114.234C85.0551 113.69 85.091 113.578 85.4022 113.688ZM92.7689 110.151C92.7398 110.508 92.2814 110.268 92.6192 110.105C92.7076 110.061 92.7743 110.082 92.7689 110.151ZM86.6344 115.072C86.6333 115.248 87.0357 116.424 87.0101 116.434C86.9406 116.469 87.3012 118.01 87.3042 118.129C87.305 118.475 87.3263 118.078 86.9634 117.919C86.9634 117.919 86.8876 117.018 86.6102 116.288C86.5549 116.136 85.977 114.074 85.8758 114.118C85.2759 114.376 86.332 113.245 86.55 114.344C86.5643 114.373 86.6377 114.852 86.6344 115.072ZM87.3899 114.736C87.6212 115.846 87.6249 115.385 87.8255 116.492C87.8445 116.594 88.1749 117.776 88.1117 117.808C87.9891 117.868 88.3184 118.119 88.163 118.192C87.8724 118.331 87.3892 117.476 87.6107 117.369C87.7219 117.317 87.2048 116.476 87.3188 116.424C87.3933 116.386 86.9971 115.131 87.0219 115.001C87.0732 114.742 86.7297 113.987 86.9678 113.871C87.0552 113.829 87.1536 113.85 87.1861 113.915C87.2361 114.017 87.3661 114.622 87.3899 114.736ZM87.9498 113.755C88.2629 113.717 88.2294 114.908 88.334 115.287C88.4858 115.833 88.694 117.253 88.895 117.728C89.0042 117.982 88.677 118.143 88.6344 118.058C88.4582 117.692 87.7837 114.186 87.5135 113.936C87.4022 113.827 87.4073 113.781 87.5427 113.781C87.6405 113.778 87.8335 113.765 87.9498 113.755ZM91.0345 113.887C91.2614 114.102 90.8307 114.425 90.5731 113.891C90.5049 113.744 90.8818 113.744 91.0345 113.887ZM89.2399 117.224C89.0141 117.147 89.0642 115.865 88.8037 115.966C88.5459 116.063 88.9479 115.88 88.819 115.612C88.7139 115.397 88.9346 115.245 89.206 116.261C89.3122 116.482 89.4963 117.316 89.2399 117.224ZM94.2365 114.726C94.9163 114.635 107.256 117.098 115.341 106.164C118.671 101.657 113.707 109.572 112.997 109.915C103.555 119.169 92.5486 114.817 92.5486 114.817C92.4165 114.962 92.4597 114.551 92.1582 114.399C92.024 114.334 92.3101 114.395 92.8001 114.54C93.294 114.683 93.9331 114.766 94.2365 114.726ZM117.391 102.37C113.468 110.727 98.8434 113.895 98.8434 113.895C98.8434 113.895 98.9381 113.587 97.5937 113.618C93.3737 113.72 94.9452 113.447 95.5328 113.578C95.8405 113.644 101.535 112.357 101.918 112.048C102.627 112.438 112.895 106.868 117.391 102.37ZM129.629 96.7204C129.952 96.6358 131.697 95.916 131.671 95.9928C131.671 95.9928 130.859 96.7529 130.395 97.3213C130.229 97.5221 125.745 103.39 125.997 103.361C126.202 103.333 126.175 103.655 125.991 103.541C125.537 103.252 125.211 104.466 125.068 104.454C122.482 107.646 119.615 108.822 120.677 107.465C120.901 107.176 121.258 106.622 121.258 106.622C121.434 106.598 122.251 105.147 122.131 105.069C122.536 105.241 124.158 101.458 124.073 101.281C123.999 101.131 124.279 100.412 124.329 100.193C124.521 99.3389 125.386 99.2712 126.001 98.6315C126.32 98.3012 127.115 97.7098 127.115 97.7098C127.062 97.6064 128.697 96.9638 129.629 96.7204ZM94.6106 115.625C95.5882 115.969 95.1054 115.637 96.1955 115.938C104.739 118.315 113.87 110.934 113.988 109.574C115.549 107.854 118.056 102.551 116.266 108.272C115.484 110.791 116.156 110.77 112.481 115.391C110.903 117.371 106.457 117.831 105.861 118.101C105.735 118.158 104.974 118.305 104.175 118.429C100.27 119.031 101.621 118.434 99.9201 118.397C99.6891 118.394 99.3696 118.237 99.2746 118.285C99.1061 118.365 98.7937 118.107 98.7238 118.141C98.4257 118.285 96.231 117.372 95.8943 117.123C95.8915 117.124 92.3872 115.277 92.3872 115.277C91.2823 114.974 92.7972 114.842 93.054 115.377C93.0555 115.379 94.1956 115.484 94.6106 115.625ZM94.3121 114.178C94.5076 114.23 93.6688 114.336 93.5196 114.242C93.3979 114.162 94.0652 114.109 94.3121 114.178ZM96.105 113.126C96.3982 113.323 95.4818 113.309 95.8999 113.109C95.9634 113.078 96.043 113.086 96.105 113.126ZM90.9656 116.369C91.0052 117.784 90.4351 115.763 90.7514 115.842C90.9133 115.886 90.9556 115.99 90.9656 116.369ZM86.2326 118.577C86.3925 118.681 86.0246 118.854 85.9556 118.712C85.9242 118.642 85.9456 118.579 86.0067 118.549C86.0717 118.518 86.1604 118.529 86.2326 118.577ZM96.1766 114.153C96.1799 114.151 100.173 113.868 100.173 113.868C99.9213 116.414 121.068 103.123 109.013 111.239C102.498 115.608 92.8262 114.515 96.1766 114.153ZM91.6009 116.578C91.6936 117.743 91.7489 118.376 91.4392 117.887C91.0039 117.184 91.5941 116.862 91.3511 116.359C91.3226 116.297 91.3584 116.263 91.4392 116.275C91.5215 116.283 91.5875 116.409 91.6009 116.578ZM131.148 97.9445C124.864 108.506 121.649 108.254 122.783 107.445C124.26 106.386 124.274 106.162 124.274 106.162C124.515 106.044 125.793 104.326 125.672 104.277C125.614 104.255 125.65 104.22 125.753 104.21C125.941 104.181 127.983 101.585 128.376 100.872C128.484 100.673 128.627 100.49 128.699 100.455C128.766 100.423 128.761 100.349 128.686 100.304C128.604 100.249 128.61 100.22 128.707 100.23C128.863 100.245 129.144 99.8951 129.745 98.9366C129.912 98.6671 130.122 98.4107 130.21 98.368C130.299 98.3259 130.378 98.2269 130.385 98.1483C130.39 98.0747 130.496 97.9595 130.607 97.9042C130.719 97.8518 130.825 97.6883 130.835 97.5588C130.843 97.4181 130.879 97.3687 130.919 97.4426C130.992 97.5832 131.395 97.2803 131.325 97.1366C131.299 97.0861 131.408 96.9757 131.564 96.901C131.795 96.7885 131.713 96.9961 131.148 97.9445ZM132.654 96.812C132.339 103.862 121.868 109.254 124.914 107.128C125.434 106.763 126.901 105.364 126.924 105.21C126.937 105.131 126.971 105.082 127.005 105.09C127.039 105.096 127.24 104.911 127.447 104.688C127.686 104.425 127.79 104.204 127.731 104.081C127.662 103.936 127.681 103.913 127.801 103.986C127.928 104.062 128.076 103.924 128.455 103.38C128.727 102.988 128.976 102.687 129.019 102.703C129.059 102.717 129.132 102.56 129.175 102.363C129.219 102.155 129.359 101.896 129.491 101.777C129.807 101.48 132.031 97.7052 132.016 97.4844C132.011 97.4224 132.073 97.3377 132.151 97.2989C132.371 97.1925 132.435 96.8003 132.23 96.8133C132.138 96.8219 132.2 96.7513 132.361 96.6668C132.645 96.5185 132.666 96.5271 132.654 96.812ZM104.874 110.694C105.161 110.883 104.457 110.423 104.874 110.694V110.694ZM92.4593 116.954C92.9535 117.308 92.0594 118.845 92.4713 119.109C92.5758 119.179 92.2367 119.842 92.0889 118.274C92.0609 117.972 92.0698 117.401 92.0698 117.401C92.014 117.426 92.0107 117.304 92.066 117.128C92.1794 116.747 92.1794 116.747 92.4593 116.954ZM131.424 98.2723C131.387 98.3823 130.949 98.4518 131.253 98.2879C131.36 98.2281 131.442 98.2221 131.424 98.2723ZM93.5175 117.995C93.7517 118.318 93.2746 120.244 93.6573 120.214C94.3308 120.169 92.8238 120.588 92.7487 119.696C92.7056 119.198 92.9176 117.148 93.2884 117.669C93.293 117.674 93.514 117.989 93.5175 117.995ZM102.721 114.13C102.826 114.119 102.935 114.157 102.962 114.206C103.069 114.43 102.224 114.179 102.721 114.13ZM122.283 104.628C122.35 104.597 122.405 104.596 122.418 104.627C122.555 104.908 121.969 104.78 122.283 104.628ZM94.2753 121.025C93.942 120.985 93.8113 117.553 94.3152 119.011C94.4245 119.235 94.4714 121.048 94.2753 121.025ZM117.314 107.768C117.365 108.269 117.276 107.362 117.314 107.768V107.768ZM97.5189 118.449C97.5843 118.416 97.6572 118.441 97.6879 118.504C97.8326 118.805 97.3031 118.553 97.5189 118.449ZM97.1133 123.431C98.6953 124.767 96.5521 123.623 95.5718 122.172C95.3854 121.901 94.8275 121.421 94.8172 121.144C94.8104 120.994 94.726 119.929 94.8613 119.864C94.8667 119.862 95.092 120.298 95.3567 120.821C95.7419 121.581 96.4759 122.893 97.1133 123.431ZM119.076 109.292C119.54 109.164 120.164 109.085 120.164 109.085C119.968 108.952 124.419 108.906 124.603 108.619C126.32 108.865 108.693 120.439 109.93 118.488C110.476 118.575 112.579 116.775 112.085 117.016C112.191 116.965 112.143 117.259 112.328 117.171C112.989 116.854 112.401 116.757 112.99 116.553C113.195 116.482 114.765 114.81 114.903 114.639C115.957 113.34 115.665 113.464 115.665 113.464C116.929 113.592 115.397 110.32 119.076 109.292ZM99.6102 118.809C100.504 118.851 99.0843 118.939 99.3249 119.185C99.4806 119.345 99.1279 119.108 99.0253 119.273C98.8834 119.498 98.7058 119.218 99.2569 118.85C99.3015 118.821 99.4562 118.802 99.6102 118.809ZM100.024 119.318C100.513 119.349 100.882 119.621 100.627 119.36C100.399 119.125 100.764 119.184 100.78 119.395C100.797 119.584 101.272 119.771 101.482 119.669C101.562 119.63 101.64 119.658 101.676 119.732C101.708 119.799 101.756 119.811 101.778 119.758C101.8 119.701 102.007 119.689 102.261 119.729C109.646 120.932 113.034 117.478 113.034 117.478C113.033 117.674 113.857 117.37 113.51 117.213C117.911 114.693 117.256 114.895 117.256 114.895C117.77 114.89 122.716 111.215 123.146 111.004C123.33 110.915 124.765 109.899 124.767 109.898C124.927 109.939 124.541 110.586 124.459 110.579C124.414 110.573 117.718 116.225 117.764 116.323C118.049 116.904 120.845 114.504 120.664 114.389C122.031 113.529 124.748 110.653 125.808 109.819C128.345 107.826 119.692 117.329 119.578 117.094C119.578 117.094 115.45 119.653 112.628 120.592C111.654 120.918 108.647 121.259 108.552 121.338C108.481 121.401 108.201 121.276 107.969 121.292C107.753 121.309 105.938 121.204 105.802 121.316C105.734 121.372 105.709 121.374 105.746 121.325C105.907 121.098 104.314 120.896 103.877 121.084C103.752 121.135 103.709 121.126 103.774 121.055C103.836 120.987 103.837 120.903 103.774 120.864C103.619 120.762 103.745 120.726 104.305 120.705C115.448 120.315 124.835 111.75 109.564 119.737C109.167 119.948 108.293 119.986 107.364 120.088C106.809 120.147 106.304 120.254 106.253 120.322C106.206 120.39 106.185 120.39 106.207 120.32C106.264 120.132 104.324 120.264 104.129 120.271C103.81 120.283 103.492 120.354 103.418 120.429C103.348 120.505 103.292 120.516 103.3 120.453C103.304 120.444 97.8836 119.18 100.024 119.318ZM125.19 108.261C125.151 108.634 125.226 107.918 125.19 108.261V108.261ZM113.145 116.163C113.213 115.902 113.268 115.849 113.336 115.99C113.384 116.09 113.039 116.567 113.145 116.163ZM108.084 119.342C108.066 119.493 107.342 119.569 107.877 119.311C108 119.253 108.093 119.266 108.084 119.342ZM109.589 118.582C109.406 118.78 109.828 118.782 109.385 118.996L109.075 119.144C109.634 118.347 109.699 118.463 109.589 118.582ZM108.995 119.344C108.899 119.621 108.572 118.976 108.869 119.078C109.017 119.13 109.048 119.198 108.995 119.344ZM98.0605 124.647C97.8704 124.629 97.7603 124.408 97.9543 124.427C98.0386 124.434 98.1164 124.484 98.1502 124.55C98.1828 124.62 98.1393 124.655 98.0605 124.647ZM98.1372 124.95C98.296 125.055 98.0415 125.175 97.9701 125.028C97.9401 124.963 97.94 124.906 97.9684 124.895C97.9984 124.88 98.0654 124.903 98.1372 124.95ZM111.318 119.506C111.276 119.622 110.848 119.682 111.146 119.52C111.254 119.46 111.335 119.454 111.318 119.506ZM113.745 118.391C114.027 118.578 113.364 118.138 113.745 118.391V118.391ZM116.505 117.065C116.462 117.504 116.086 117.129 116.407 116.974C116.474 116.941 116.515 116.977 116.505 117.065ZM107.173 121.689C107.336 121.794 107.112 121.899 106.953 121.795C106.793 121.69 107.014 121.584 107.173 121.689ZM123.392 114.429C123.605 114.562 123.026 115.033 123.069 114.601C123.085 114.415 123.244 114.333 123.392 114.429ZM100.994 126.197C100.924 126.403 100.725 126.368 100.747 126.155C100.756 126.07 100.829 126.001 100.912 126.007C101.005 126.015 101.036 126.083 100.994 126.197ZM116.585 119.065C116.652 119.033 116.717 119.055 116.748 119.121C116.899 119.438 116.259 119.222 116.585 119.065ZM113.766 120.966C113.796 120.951 113.836 120.984 113.87 121.052C114.017 121.363 113.434 121.126 113.766 120.966Z" fill="white"/>
<path d="M115.46 120.557C115.43 120.573 115.43 120.626 115.462 120.694C115.616 121.004 115.792 120.398 115.46 120.557Z" fill="white"/>
<path d="M82.2537 61.1399C82.4525 59.7857 82.4444 59.3283 82.2151 59.016C80.7571 57.0117 80.8699 62.7468 79.0689 62.6636C79.8482 62.699 77.2366 54.1262 77.0102 53.3815C75.4972 48.4166 70.3255 41.0884 66.7576 37.4002C59.6993 30.1112 63.4334 35.6757 62.652 36.1173C62.652 36.1173 59.824 32.9081 58.3795 31.8204C57.8989 31.4558 41.4952 20.9292 41.1421 21.2325C40.7302 21.6027 40.4071 20.4448 40.3281 22.5189C40.3079 22.9721 39.6577 23.1933 39.5591 23.6688C39.6928 23.022 32.2357 28.1437 31.8759 28.5814C30.9875 29.6661 28.7624 30.505 27.5063 32.6553C27.2018 33.1804 26.7432 33.84 26.505 34.1008C26.2647 34.3642 25.9161 34.8774 25.738 35.2425C25.5558 35.6076 25.3566 35.9325 25.2913 35.9691C25.225 36.0067 25.0821 36.2531 24.9662 36.5294C24.8509 36.806 24.7099 37.0085 24.6475 36.9929C24.3806 36.9176 23.1546 39.5598 23.4158 39.6427C23.5048 39.674 23.4584 39.6998 23.3217 39.6978C23.0012 39.6924 23.0034 40.0807 22.8136 40.3997C22.6369 40.6959 22.7671 41.0302 22.7007 41.0275C21.7522 40.9886 21.4619 44.2193 21.2377 44.2093C21.0181 44.1973 20.5847 44.7 21.0864 44.7517C21.0864 44.7517 19.9249 48.5551 20.162 48.9708C20.6022 49.7566 18.88 48.5962 18.7809 45.7072C18.7155 43.7625 17.4154 45.8176 17.7543 46.4208C17.85 46.5915 17.2143 48.8887 17.1648 49.0843C17.1082 49.3114 16.534 51.1953 16.7337 51.3046C16.8499 51.3674 16.0056 52.3462 16.3488 52.6299C16.4979 52.7528 14.7876 55.8137 15.3662 56.1344C15.3662 56.1344 15.1342 56.3157 15.1384 56.9629C15.1423 57.1512 15.0349 59.5272 15.2073 59.5821C15.2073 59.5821 15.2104 60.1858 15.2069 60.1861C15.1375 60.1865 14.9955 60.8515 15.202 60.8687C15.202 60.8687 14.893 62.4103 15.3081 63.2568C15.4287 63.506 15.0772 64.0244 15.3452 64.7889C15.5662 65.433 15.3162 66.1441 15.6782 66.6718C15.8545 66.9238 15.8508 68.4659 15.8003 68.4937C15.0164 68.9366 13.7368 61.8856 13.6709 68.7613C13.6669 69.2679 13.61 69.7264 13.5509 69.7602C13.4918 69.7941 13.4968 69.9235 13.5638 70.0421C13.6318 70.1638 13.6282 70.2992 13.5573 70.3361C13.4821 70.3784 13.4761 70.5985 13.544 70.8318C13.609 71.0655 13.5965 71.2869 13.5157 71.3342C13.4256 71.3872 13.3865 72.9094 13.6084 73.0378C13.6084 73.0378 13.0285 74.9166 13.4573 75.4438C13.6214 75.6468 13.1228 76.6753 13.4472 76.9442C13.5902 77.0606 12.9492 77.6863 13.4933 77.9881C13.4933 77.9881 13.4247 78.7018 13.4153 78.7231C13.1748 79.3013 14.181 78.9197 13.6347 79.2274C13.3138 79.4069 13.5833 79.6344 13.4945 80.0639C13.4945 80.0639 14.2567 84.2018 14.2612 84.2173C14.2619 84.2195 15.2801 87.2364 15.2754 87.2363C15.1691 87.2984 18.6376 94.7477 18.3005 92.8756C18.2559 92.6133 18.7569 93.4922 18.6589 93.6989C18.3137 94.458 22.7678 98.8209 23.8263 99.5362C31.9616 105.032 32.8589 103.985 37.1804 105.634C37.5918 105.793 38.1218 105.854 38.367 105.773C38.6135 105.694 39.4459 105.796 40.2437 106.001C41.0353 106.207 41.8203 106.338 42.0027 106.301C42.1848 106.265 42.5331 106.279 42.7799 106.339C43.4982 106.509 44.3183 106.305 44.8967 106.409C45.3798 106.5 47.2014 106.071 47.0672 106.538C47.0153 106.735 45.3442 106.953 45.1554 107.034C44.9628 107.12 44.5241 107.052 44.4331 107.217C44.3337 107.387 42.1486 108.184 41.9651 108.256C41.5394 108.427 41.0532 108.544 40.8986 108.513C40.6865 108.475 40.584 108.558 40.4794 108.856C40.4063 109.071 40.28 109.235 40.2056 109.217C40.1299 109.194 39.8336 109.277 39.5507 109.397C38.9101 109.674 38.4823 109.808 37.3693 110.078C36.8919 110.197 36.2083 110.396 35.8524 110.522C34.5286 111 31.1804 111.021 30.9203 110.555C30.8534 110.438 30.7358 110.388 30.6425 110.439C30.5554 110.487 30.2633 110.449 30.021 110.353C29.5912 110.184 29.5513 110.202 29.447 110.558C29.3448 110.9 29.3875 110.989 29.828 111.344C30.6368 111.996 33.1044 112.687 33.3082 112.315C33.3671 112.209 33.4101 112.22 33.4069 112.339C33.3971 112.674 34.2881 112.816 35.7878 112.717C36.7256 112.657 37.2212 112.543 37.4139 112.345C37.5638 112.196 37.6737 112.15 37.6479 112.245C37.5936 112.46 39.3763 112.574 39.4936 112.368C39.546 112.272 39.6329 112.25 39.7115 112.317C39.78 112.381 40.4886 112.409 41.2687 112.382C42.0536 112.359 43.0947 112.336 43.5704 112.332C44.056 112.33 44.6272 112.272 44.8564 112.2C45.3103 112.06 45.4899 112.013 46.8886 111.667C47.4672 111.523 47.8488 111.343 47.8897 111.205C47.9774 110.879 48.1651 110.832 48.3139 111.099C48.4074 111.264 48.5398 111.258 48.7522 111.081C49.3061 110.614 49.5736 110.927 49.2066 111.612C48.9303 112.125 48.9117 112.348 49.1112 112.77C49.4806 113.554 51.1944 114.539 51.5132 114.157C51.5919 114.06 51.7504 114.025 51.8565 114.081C51.9697 114.138 51.9524 114.18 51.8118 114.176C51.4531 114.159 51.7069 114.432 52.1138 114.503C52.4165 114.553 52.4327 114.542 52.2384 114.428C52.0649 114.332 52.061 114.293 52.2236 114.304C52.3419 114.304 52.4494 114.388 52.4472 114.474C52.4443 114.565 52.5964 114.667 52.7664 114.7C53.3755 114.806 54.7694 115.584 55.099 116.003C55.278 116.232 55.4999 116.409 55.6066 116.414C55.7232 116.422 55.7574 116.574 55.6963 116.803C55.6439 117.008 55.6644 117.141 55.7452 117.094C55.9123 117.001 56.6494 117.633 56.9093 118.091C57.0832 118.402 57.4516 118.465 57.8335 118.252C57.9317 118.195 57.9851 117.72 57.9568 117.194C57.731 113.299 61.0832 112.878 61.2674 110.166C64.59 110.443 69.5121 111.29 69.5121 111.29C69.561 111.265 69.9907 111.279 70.4605 111.321C72.7169 111.533 74.9438 111.622 75.0509 111.506C75.1214 111.428 75.1515 111.437 75.1258 111.533C75.0992 111.618 75.1932 111.738 75.3214 111.782C75.4551 111.831 76.2248 112.161 77.0203 112.508C77.8171 112.853 78.5891 113.179 78.7267 113.225C78.8647 113.272 79.6167 113.593 80.3896 113.935C81.9771 114.63 84.5478 115.455 84.7784 115.334C84.8599 115.297 85.2379 115.351 85.602 115.455C86.0827 115.593 86.304 115.576 86.3709 115.391C86.4445 115.204 86.5253 115.181 86.6747 115.307C86.9519 115.542 87.2871 115.361 87.3631 114.941C87.4136 114.671 87.252 114.571 86.413 114.36C85.8574 114.216 85.0315 113.914 84.5759 113.684C84.1215 113.454 83.5836 113.235 83.381 113.197C83.0581 113.137 81.1962 111.905 81.0553 111.651C81.025 111.598 80.726 111.353 80.3921 111.11C79.6119 110.552 78.6226 109.664 77.7911 108.772C76.6636 107.558 75.4655 106.581 74.8983 106.4C74.7676 106.355 74.1771 106.007 73.5843 105.624C72.9918 105.235 71.8507 104.711 71.0327 104.455C70.2182 104.196 69.5268 103.936 69.4943 103.873C69.4582 103.812 69.3516 103.809 69.247 103.868C69.1446 103.924 68.8192 103.917 68.5069 103.847C67.9984 103.733 66.3324 103.665 66.0219 103.294C65.787 103.011 65.8191 102.979 67.1895 102.208C67.9703 101.772 68.9413 101.109 69.3689 100.723C70.6122 99.5968 72.6543 97.7578 73.5731 96.9719C74.8188 95.9102 78.6514 91.8711 78.6928 91.5814C78.7274 91.3306 79.2212 90.4904 79.3897 90.3954C80.1722 89.9528 86.4008 80.9454 82.4001 64.8148C81.7126 62.0446 81.9969 62.8917 82.2537 61.1399ZM70.7618 44.6117C71.3698 45.3003 75.4987 52.494 76.509 54.245L77.0585 56.3656C77.3017 57.2837 78.3931 61.47 78.0969 62.3833C77.6371 63.7906 79.2782 63.0396 76.3552 64.8537C73.8385 66.4094 74.9627 65.7938 73.7634 63.3267C73.7634 63.3267 74.7665 55.2882 72.8391 49.7482C72.1432 47.7463 69.0842 42.7214 69.0842 42.7214C68.962 41.8272 69.5316 43.4952 70.253 43.7829C70.2532 43.7823 70.5301 44.3518 70.7618 44.6117ZM69.5731 45.3678C69.872 44.2859 74.0697 54.7426 73.091 55.2936C73.091 55.2936 73.3337 55.5335 72.7084 61.4332C70.3414 58.54 71.9834 60.2699 71.6597 54.9333C71.6014 53.9367 71.6085 52.0142 70.818 49.0966C70.6136 48.346 70.511 48.0459 69.9935 46.7468C69.7351 46.0929 69.5442 45.4684 69.5731 45.3678ZM65.7964 38.6201C65.8854 38.568 65.977 38.5915 66.0204 38.6778C66.1394 38.8834 65.9465 39.2331 65.7759 38.9332C65.7187 38.8284 65.6956 38.6751 65.7964 38.6201ZM80.0163 65.3797C80.3573 65.1917 79.6957 69.1169 79.6596 69.5051C79.6118 69.9583 79.0228 72.834 79.0228 72.834C79.1763 73.103 78.6355 74.6287 78.5641 74.8962C77.8767 77.4261 76.1868 81.8867 75.8939 82.0777C75.8939 82.0777 74.6674 84.7581 74.4341 85.1253C74.432 85.1253 73.0422 87.2773 73.0422 87.2773C72.9392 87.4635 70.7807 90.7708 70.808 90.9725C70.8217 91.0703 70.7627 91.1271 70.6603 91.1211C70.5653 91.1174 70.3807 91.317 70.2507 91.5633C70.1202 91.8156 69.979 91.9669 69.9448 91.9003C69.9081 91.8376 69.8559 91.9329 69.8274 92.1237C69.7966 92.3091 69.4556 92.7877 69.0564 93.1882C68.598 93.6507 68.4094 93.9526 68.5331 94.0192C68.6515 94.0813 68.6405 94.1162 68.5 94.1117C68.3763 94.1091 68.1574 94.2299 68.0231 94.3699C67.818 94.5919 67.8299 94.6589 68.093 94.7592C68.377 94.8614 68.367 94.8805 68.0123 94.8637C67.6703 94.8516 67.5317 94.9458 67.1648 95.4359C66.9225 95.7632 66.5775 96.135 66.3916 96.281C66.1986 96.4261 65.9498 96.6673 65.8242 96.831C65.2953 97.5175 64.486 98.2827 63.48 99.0485C62.7441 99.606 62.556 99.7803 62.51 99.9501C62.4881 100.024 62.3449 100.103 62.2022 100.124C61.5602 100.208 62.1385 101.263 62.5997 101.005C62.7865 100.899 62.7995 100.947 62.6926 101.313C62.6072 101.607 62.4841 101.731 62.3026 101.705C61.9964 101.661 60.1834 103.548 59.9361 103.107C59.5046 102.334 62.7054 101.979 61.9335 100.875C61.4073 100.121 58.4722 103.301 58.3215 102.557C58.297 102.439 59.4677 101.198 59.5905 101.007C59.7737 100.724 60.8 99.7058 61.3142 99.0019C63.1691 96.4668 66.5422 94.3747 68.571 91.3575C68.5738 91.3551 72.5079 85.5315 72.5079 85.5315C72.8456 85.3391 76.7446 76.3976 76.2938 76.1542C76.6972 76.3753 79.6522 65.5874 80.0163 65.3797ZM81.651 69.2164C82.2843 68.0978 85.0782 80.9496 78.0348 90.1304C77.8134 90.4253 77.682 90.7082 77.7538 90.7517C77.8225 90.7962 77.8337 90.9275 77.7747 91.0314C77.7067 91.1513 77.6666 91.142 77.6742 91.0045C77.6755 90.8851 77.6101 90.8148 77.5329 90.8571C77.4515 90.9021 77.3811 91.038 77.3778 91.1574C77.3755 91.3572 76.9527 91.9352 76.5616 92.2756C76.435 92.3851 75.6784 93.3162 75.5843 93.3525C75.527 93.3762 75.4565 93.5316 75.4223 93.7045C75.3945 93.872 75.1974 94.1134 75.0058 94.2199C74.5914 94.4528 73.7331 95.5295 73.7317 95.5317C73.7317 95.5317 73.0407 96.0919 71.3427 97.1499C53.5109 108.252 65.8185 100.707 68.9033 97.4382C69.2561 97.0656 72.6765 93.5944 72.8342 93.1018C72.9268 92.7992 73.5577 92.498 73.2718 92.5385C72.8273 92.5957 72.9119 92.3122 73.3617 92.2466C73.707 92.1904 73.9007 92.0348 74.2273 91.5442C74.4609 91.1912 74.5706 90.8705 74.4798 90.817C74.388 90.7687 74.3802 90.676 74.4619 90.615C74.949 90.2496 76.1095 88.5119 76.1525 88.2664C76.1891 88.0283 77.4104 86.0036 77.5232 85.581C77.524 85.5785 78.7556 82.0911 78.7556 82.0911C79.2386 82.1146 81.4972 74.1248 81.0534 73.8889C81.0534 73.8889 81.7534 72.1589 81.5508 71.8025C81.5511 71.7972 81.651 69.2164 81.651 69.2164ZM80.6895 68.535C80.7677 67.9063 80.8853 67.5067 80.9511 67.629C81.1143 67.9206 80.7749 69.1572 81.0397 69.2991C81.1377 69.3575 80.6159 69.35 81.0369 69.8936C81.0369 69.8936 80.8797 70.6238 80.8789 70.6243C80.758 70.6192 80.5247 71.9801 80.551 71.9951C80.8003 72.0621 79.5678 77.5271 79.5527 77.7996C79.5143 78.4474 79.1404 78.3721 79.081 78.8708C79.045 79.1413 77.8372 82.5165 78.0663 82.6438C78.2714 82.7574 76.4778 84.3712 77.107 84.7469C77.107 84.7469 76.0166 86.6635 76.0161 86.6586C76.0161 86.6586 75.3586 88.0037 74.9639 88.5159C74.2618 89.4278 73.9983 90.5235 72.844 91.8246C71.5617 93.2717 68.5202 97.0055 65.7568 98.9579C64.7421 99.6745 64.3879 100.107 64.6645 100.293C64.7673 100.362 64.7015 100.359 64.5233 100.286C64.2827 100.187 64.0335 100.263 63.6012 100.561C63.2794 100.784 62.9704 100.909 62.9318 100.839C62.8207 100.641 63.1324 100.334 64.1858 99.6212C64.6908 99.2735 65.3279 98.7435 65.6142 98.4279C66.1886 97.7893 66.8438 97.4816 67.2251 96.98C67.8895 96.1174 68.8595 94.9763 69.7078 94.0767C70.1838 93.5713 70.6128 93.0376 70.6822 92.8684C70.8702 92.4015 71.5598 91.7366 71.7053 91.409C72.5525 89.4677 78.9663 82.6378 80.6895 68.535ZM68.6125 46.2482L68.506 45.5392C70.9471 50.3623 71.0525 54.8363 70.7527 58.6507C70.7231 58.6037 68.6125 46.2482 68.6125 46.2482ZM64.7541 39.0138C65.0543 38.8426 64.8869 39.7654 65.0406 40.0338C65.4622 40.7888 65.7696 43.3324 66.0213 44.0567C66.3167 44.9221 66.0821 46.3108 66.5054 46.6674C66.7698 46.8939 66.2709 46.8802 66.475 47.264C66.6264 47.5504 66.7917 53.512 66.8005 53.8323C66.833 55.0266 67.024 55.3665 67.024 55.3665C66.5356 55.9926 66.7429 57.6529 66.7429 57.6529C66.6201 57.6734 66.505 57.8936 66.4863 58.1561C66.1572 62.3992 65.2761 60.8167 64.8228 61.8507C64.6665 62.2105 58.7997 66.3944 58.1138 65.3698C57.1122 63.8752 56.6799 64.0668 55.4501 62.7566C54.5719 61.8149 56.7101 54.6072 57.4265 54.2037C57.4265 54.2037 60.4537 48.6322 60.4549 48.6285C60.6127 48.2106 63.512 44.7362 63.1561 44.4392C63.1567 44.4373 64.7538 39.0084 64.7541 39.0138ZM63.7619 38.6161C63.7787 38.5541 63.9725 38.5559 64.1955 38.6254C65.0155 38.8654 63.7523 38.6763 63.7619 38.6161ZM66.7209 43.6123C66.769 43.4424 67.05 43.9325 67.2368 44.506C67.7813 46.183 68.9227 51.7453 68.7884 52.0886C68.7264 52.2534 68.7286 52.4579 68.7917 52.574C68.9317 52.8239 69.0775 55.5003 69.1908 55.7001C69.243 55.7865 69.1806 55.97 69.0552 56.0967C68.9259 56.2276 68.7319 56.735 68.6091 57.2514C68.3285 58.444 66.3668 62.0965 67.1196 58.0399C67.5669 55.6229 67.5192 55.1268 67.5192 55.1268C68.1289 53.7008 66.6272 43.9508 66.7209 43.6123ZM78.1443 68.4052C77.9688 68.7085 74.7074 78.4689 74.6513 78.643C74.5996 78.803 72.7227 83.2249 72.7227 83.2249C72.6261 83.5403 70.9705 86.5 71.1771 86.7245C71.3454 86.8992 71.3266 86.9418 71.0898 86.8968C70.8527 86.8552 70.7142 86.9724 70.4403 87.4452C70.2415 87.7883 69.9654 88.1266 69.8034 88.2162C69.6411 88.3064 69.5512 88.4422 69.5984 88.523C69.7192 88.742 69.2011 88.8514 69.3231 89.0667C69.3685 89.153 69.3154 89.2641 69.1988 89.331C69.0062 89.4406 68.1705 90.5035 67.2597 91.7918C67.0137 92.1395 66.7089 92.4816 66.5677 92.5602C66.4344 92.6333 66.3572 92.7738 66.4016 92.8551C66.4532 92.9413 66.4052 93.0083 66.2919 93.0029C66.0946 92.9946 65.0273 93.9275 64.6636 94.4225C64.5436 94.5859 64.1977 94.9089 63.8949 95.1291C62.9344 95.8339 60.5555 98.4758 60.4578 98.9442C60.377 99.342 59.0404 99.7817 58.9646 100.332C58.9603 100.367 57.8508 101.479 57.6759 101.747C57.6737 101.749 56.6357 103.001 56.6357 103.001C56.1331 103.288 55.2638 105.184 54.0431 104.852C53.6102 104.729 53.3823 100.813 53.5845 100.446C53.6495 100.329 53.4976 97.8237 53.4976 97.8237C53.6507 97.7757 54.1115 95.5614 53.6591 95.2589C53.7664 94.8755 54.3214 94.2214 53.9372 94.0144C53.812 93.944 54.1447 93.9384 54.1791 93.4595C54.1793 93.4568 54.6404 90.6176 54.6404 90.6176C55.3415 90.6452 55.3149 87.7588 55.5193 87.7633C55.7575 87.7696 57.8528 83.1796 57.8367 83.1497C57.8097 83.1008 59.3906 80.3288 59.4062 80.3284C59.4062 80.3284 65.7555 73.791 67.0986 73.0337C66.0262 73.8971 82.2075 61.4382 78.1443 68.4052ZM63.6371 39.0551C63.9321 38.8917 63.7015 39.9493 63.6174 39.3678C63.6086 39.3126 63.5835 39.0867 63.6371 39.0551ZM60.3204 34.8041C63.8291 38.0049 62.4644 41.3017 62.0191 43.2296C62.0983 43.307 60.5974 42.0609 56.6811 38.2421C56.6811 38.2421 56.7981 37.738 55.7136 35.8634C53.3707 31.8187 44.7835 24.2234 44.7835 24.2234C44.8655 24.2385 47.8881 26.049 47.8881 26.049C47.8709 26.0846 54.3967 29.8011 54.3967 29.8011C55.2653 30.0893 59.9214 34.441 60.3204 34.8041ZM63.4104 40.9361C63.4968 40.8839 63.5887 40.9102 63.6385 40.9938C63.8842 41.4357 62.9877 41.1717 63.4104 40.9361ZM63.1969 41.7724C63.2935 40.9975 63.0734 42.744 63.1969 41.7724V41.7724ZM62.8413 43.0006C63.194 42.8035 62.8338 43.8258 62.76 43.3679C62.7395 43.2619 62.7498 43.0539 62.8413 43.0006ZM80.2084 75.6782C80.2526 75.604 80.352 75.6386 80.418 75.7603C80.786 76.4144 79.937 76.1512 80.2084 75.6782ZM71.8673 62.7696C73.0163 67.0999 76.2193 64.965 68.0614 69.9535C68.0628 69.9513 70.1555 60.4345 70.1555 60.4345L71.8673 62.7696ZM61.0929 44.3723C61.3223 44.2421 61.3737 44.598 61.1648 44.9197C61.0527 45.0984 61.0342 45.2856 61.1271 45.3324C61.1271 45.3324 60.7023 45.8035 60.5226 46.4001C60.4633 46.5948 59.596 48.2303 59.7041 48.2906C59.7611 48.3234 59.1036 49.1128 59.0389 49.2202C59.0389 49.2202 60.223 50.5429 53.4113 38.6936C61.4427 43.1329 61.0929 44.3723 61.0929 44.3723ZM76.5896 74.4644C76.7916 73.7476 76.4292 75.0423 76.5896 74.4644V74.4644ZM68.7883 60.7664C69.6586 59.7904 68.2856 69.8034 66.2506 71.2713C65.5307 71.7888 65.5454 72.0712 65.5454 72.0712C65.257 72.1197 62.031 74.9928 61.8592 75.267C61.7446 75.4429 61.5178 75.689 61.3684 75.7961C60.5402 76.3776 60.7665 76.8236 60.077 75.8786C59.2674 74.7809 58.2247 73.8956 57.3675 73.5753C52.1157 71.6228 68.1515 61.4728 68.7883 60.7664ZM53.4089 33.5953C53.5076 33.7798 53.7555 34.1464 53.9551 34.4077C54.4081 34.9863 55.9166 38.0848 55.8544 38.3081C55.3475 40.113 52.1579 32.6539 47.6682 28.6432C42.7625 24.2533 52.5098 31.9143 53.4089 33.5953ZM50.4687 32.7755C50.9734 33.4631 51.4908 34.1662 51.6314 34.3544C52.6604 35.7682 51.3799 34.7388 51.0458 35.7679C50.8887 36.2587 40.2646 18.9098 50.4687 32.7755ZM66.6087 61.4649C66.6972 61.4167 66.7711 61.4104 66.7939 61.4492C67.0326 61.8748 66.1911 61.6994 66.6087 61.4649ZM55.1028 42.5575C57.1025 45.442 59.0431 49.2088 57.2191 52.4323C56.9916 46.0038 49.9921 35.1658 55.1028 42.5575ZM48.123 32.5397C48.6197 33.3298 49.1295 34.1105 49.2566 34.2837C49.8023 35.0038 50.396 37.1847 49.966 38.2496C46.6956 46.3932 48.4465 43.6518 46.9272 40.2734C45.9185 38.0257 40.2258 20.0184 48.123 32.5397ZM53.3266 43.4576C52.3276 40.1595 54.2715 44.3262 55.4056 47.5734C56.2926 50.1029 56.7507 52.4672 56.7507 52.4672C56.8564 52.5778 55.9792 54.8219 55.917 54.8548C55.9164 54.8546 55.8482 51.7734 53.3266 43.4576ZM50.9848 40.0099C51.4256 38.9599 54.3414 55.3188 51.5609 53.6666C50.423 52.9942 49.8821 52.7506 48.961 52.3255C48.9734 52.579 48.7778 48.8381 48.9006 48.6063C48.9006 48.6063 48.6839 45.4838 50.9848 40.0099ZM74.2952 80.4456C74.3965 80.3866 74.6794 80.8706 74.4127 80.8607C74.2239 80.8537 74.1321 80.5382 74.2952 80.4456ZM42.0281 25.6758C42.0538 25.1988 42.0926 25.1377 42.2115 25.3776C42.4162 25.7831 46.127 39.8917 46.1222 39.8814C41.1324 32.0824 41.3731 38.5951 42.0281 25.6758ZM52.7142 45.2024C52.6893 43.7703 54.3275 49.6734 54.4779 49.8304C54.6158 49.9673 54.6642 50.0848 54.5832 50.0815L54.9542 54.1756C55.6123 57.9174 53.3535 54.9884 53.5638 54.3287C54.196 52.3459 52.7338 46.2237 52.7142 45.2024ZM74.6777 85.4711C74.7599 85.4236 74.8642 85.4558 74.9122 85.5449C75.0699 85.8259 74.2732 85.7003 74.6777 85.4711ZM39.6727 24.4601C40.4389 23.9323 40.5955 24.2493 40.3513 24.3837C39.9229 24.627 40.8055 25.7706 40.5622 25.7593C39.9967 25.7367 39.1929 31.7167 39.1929 31.7167C37.3896 31.2131 38.5502 27.2054 35.9304 28.6803C35.8556 28.7214 34.5024 30.7166 33.3517 31.3414C32.9037 31.5892 32.7126 31.9825 32.0402 32.4624C31.6192 32.7632 30.8423 33.4766 30.3154 34.0542C29.7828 34.6286 29.1398 35.1985 28.8915 35.3229C28.6305 35.4466 28.335 35.6718 28.2124 35.841C27.8096 36.4025 25.3366 39.0504 25.0848 39.1898C24.9534 39.2655 24.7744 39.5368 24.7126 39.7676C24.6278 40.0733 23.7948 41.279 23.8057 41.2979C23.9435 41.5485 22.903 41.6993 23.4886 40.9075C23.7097 40.607 24.7986 37.9897 25.0429 37.8526C25.1756 37.7794 25.2751 37.6385 25.2798 37.5168C25.283 37.4041 25.564 36.9342 25.9083 36.4754C26.251 36.0108 26.5789 35.4991 26.6481 35.3218C26.7159 35.1406 26.975 34.7472 27.2395 34.4241C27.4961 34.1093 28.0307 33.411 28.4115 32.8831C29.4206 31.4919 32.5749 28.9555 32.7071 28.9224C32.7075 28.9232 33.629 27.6565 39.6727 24.4601ZM72.092 89.3705C72.4004 89.329 72.5086 89.4128 72.2993 89.5306C72.1252 89.6285 71.7185 89.4245 72.092 89.3705ZM53.6753 56.7426C55.2749 57.752 54.3895 58.3762 53.9281 60.3676C53.7709 61.038 53.7909 61.3336 54.0312 61.6474C55.3361 63.3881 49.9773 58.8173 49.9717 58.8202C49.5887 58.8934 48.135 61.7741 48.1294 62.0165C48.1208 62.3515 47.106 63.9252 46.9341 63.8751C46.7531 63.8283 47.0993 62.6899 46.9944 62.4975C46.9944 62.4975 46.8097 60.2374 46.1392 58.4178C45.826 57.5597 40.1464 44.2792 45.2987 52.3655C45.692 52.9798 48.3642 53.8861 48.4714 54.0753C48.4716 54.0747 50.5934 54.8018 53.6753 56.7426ZM43.3825 38.4095C46.6025 42.143 52.0669 58.3535 43.4302 48.094C42.9735 47.5527 43.0528 47.91 42.8313 47.1581C42.7511 46.8785 40.9221 43.969 40.5692 44.1049C43.5184 42.9705 32.2262 25.4638 43.3825 38.4095ZM52.2907 55.3427C52.695 55.1161 52.3888 55.8667 52.2318 55.5792C52.182 55.4956 52.2066 55.3896 52.2907 55.3427ZM56.2495 64.5899C57.3631 65.5681 57.7093 66.1225 58.2243 66.8611L57.7282 67.6549C54.4405 72.9251 55.4486 73.1422 53.4661 72.5861C53.4211 72.5753 46.2154 71.4805 46.2154 71.4805C44.5318 71.8493 49.9746 62.0658 49.8808 62.039C49.8091 62.083 50.7008 60.7101 51.0158 60.8462C51.1988 60.9274 51.6547 61.3366 51.7321 61.2917C51.9554 61.1655 52.321 61.8423 52.4769 61.5584C52.6029 61.3357 53.4055 63.1054 53.6787 62.6115C53.6809 62.6108 54.683 63.27 54.6828 63.2727C55.1712 63.7816 54.3432 62.8664 54.9927 63.0493C54.9919 63.0497 55.5189 63.9509 56.2495 64.5899ZM38.2841 36.5188C37.7669 33.4429 40.9341 44.2581 38.7594 45.4774C38.7598 45.4782 38.8788 40.0199 38.2841 36.5188ZM80.1257 112.008C80.8391 112.554 81.4359 113.02 81.4489 113.045C81.6748 113.443 78.6861 112.153 78.6491 112.17C78.4798 112.266 77.3562 111.347 77.1953 111.437C77.1953 111.437 76.7629 111.154 76.3166 111.046C75.6079 110.878 76.0462 110.8 75.4866 110.614C74.3196 110.213 74.7054 110.259 76.1191 109.23C77.2985 108.371 76.6659 109.353 80.1257 112.008ZM37.7985 43.563C37.3522 49.6658 32.6141 48.2934 26.5763 58.5496C26.4719 58.6056 26.4431 58.7183 26.512 58.7965C26.583 58.8767 26.5339 59.024 26.3998 59.1359C26.2733 59.2366 26.0514 59.5335 25.9325 59.7658C25.8098 60.0017 25.6741 60.1547 25.6442 60.1023C25.4878 59.8236 27.0509 55.644 27.163 55.3436C27.8 53.6126 27.4547 54.7203 28.636 52.3715C29.5636 50.5275 30.4918 48.9507 31.3338 47.7828C31.6624 47.3265 32.1133 46.5629 32.3302 46.0983C36.3494 37.4053 38.9677 27.4735 37.7985 43.563ZM35.5835 33.9141C36.5718 33.2558 35.5738 34.9492 35.4171 34.6691C35.356 34.5597 35.3561 34.0424 35.5835 33.9141ZM31.8678 39.0631C31.9174 39.1554 31.8635 39.2218 31.7522 39.2164C31.6377 39.2127 31.4337 39.429 31.3022 39.6843C31.178 39.9378 30.9146 40.3043 30.7405 40.4749C30.5627 40.6443 30.4733 40.8577 30.5451 40.9354C30.6102 41.0084 30.5475 41.0943 30.402 41.1165C30.1185 41.1578 28.4402 43.0938 28.4735 43.3404C28.4846 43.4293 28.4289 43.4844 28.3332 43.4785C28.2426 43.4736 28.0322 43.6502 27.8497 43.8753C27.665 44.1031 27.4968 44.3125 27.4618 44.3446C27.1013 44.7013 26.873 45.0311 26.9288 45.1234C26.9652 45.1913 26.8268 45.3893 26.615 45.5729C26.4075 45.7511 26.1978 46.0349 26.149 46.2026C26.1011 46.3591 25.975 46.5804 25.8851 46.6564C25.5777 46.9296 25.2596 47.6839 25.3736 47.8839C25.4321 47.9864 25.4286 48.1643 25.3688 48.2753C25.3041 48.3909 25.2608 48.3725 25.2652 48.2366C25.2712 47.9419 25.2004 47.9916 24.8788 48.4877C24.4391 49.158 24.0687 50.4394 24.2801 50.5564C24.3875 50.6191 24.3646 50.6812 24.2228 50.7085C23.9743 50.7541 23.6958 51.9319 23.7593 52.6939C23.7792 52.9343 23.7215 53.1624 23.6262 53.2172C23.5335 53.266 23.4983 53.771 23.5501 54.3268C23.602 54.88 23.6008 55.3647 23.5481 55.3932C23.4217 55.4657 21.1603 51.8375 21.0821 51.716C20.7072 52.8836 21.5624 43.2525 27.9123 38.5897C41.7655 28.4019 31.3767 38.1887 31.8678 39.0631ZM68.7877 93.6445C68.8744 93.5911 68.9641 93.6139 69.011 93.7C69.1312 93.908 68.9363 94.2557 68.7689 93.9541C68.7091 93.8492 68.6845 93.7008 68.7877 93.6445ZM59.3871 77.0339C59.5503 76.8424 59.69 76.9927 59.649 77.3216C59.6356 77.4391 59.5068 77.7006 59.356 77.9149C57.5601 80.455 57.7093 79.6967 57.3721 79.1499C55.5736 76.2439 47.6604 72.8294 47.6604 72.8294C53.9788 71.8595 58.645 76.4162 59.3871 77.0339ZM67.3975 91.8991C67.488 91.8509 67.6121 91.8563 67.717 91.9142C67.9507 92.0396 67.6514 92.2104 67.4239 92.0823C67.3272 92.0263 67.304 91.9524 67.3975 91.8991ZM35.8912 35.9479C36.5724 34.8376 34.8324 40.0299 34.8481 40.0483C34.9784 40.1666 34.527 40.2392 34.4821 40.6617C34.4432 41.0396 33.7044 41.9461 33.7156 42.0451C33.7213 42.1256 33.4334 42.6062 33.078 43.1112C32.5594 43.8441 32.0479 44.9048 32.0479 44.9048C32.0325 44.8811 30.1261 48.3385 29.7872 48.4813C29.7651 48.4872 29.5366 49.1129 29.3474 49.2182C29.3474 49.2182 28.1936 51.7445 27.359 52.9639C27.0929 53.3497 26.4699 54.4291 26.9536 54.4697C26.9536 54.4697 26.5304 54.3567 25.568 57.1706C24.9005 59.1308 24.7848 58.6349 25.0004 57.841C25.3337 56.6239 25.8335 51.7598 27.5481 49.262C27.6891 49.0534 29.7108 45.5927 29.7964 45.3573C29.877 45.1331 30.2346 44.7902 30.1712 44.6794C30.074 44.5055 31.8856 42.5502 31.7037 42.2238C31.6389 42.1113 32.039 42.1289 32.1423 41.8607C32.1425 41.8601 32.2762 41.8605 35.8912 35.9479ZM75.0689 107.292C75.0442 107.381 75.3075 107.648 75.6339 107.867C76.384 108.376 76.2329 108.294 75.5966 108.764C75.0623 109.157 74.0618 110.613 73.7487 110.059C73.6486 109.878 75.4353 108.911 75.2672 108.618C75.1523 108.412 72.7611 109.949 72.2945 109.889C70.9379 109.717 71.7777 108.953 71.747 109.469C71.732 109.784 73.448 108.434 73.7052 108.254C73.8005 108.188 75.0969 107.194 75.0689 107.292ZM73.3474 106.687C73.3914 106.391 73.4464 106.392 73.9069 106.694C74.3322 106.98 74.3743 107.045 74.154 107.078C73.8956 107.123 72.0739 109.155 71.6605 109.035C71.6336 109.028 70.9137 109.738 70.575 109.606C70.2806 109.494 70.0895 109.764 70.0393 109.675C69.9458 109.509 73.291 107.135 73.3474 106.687ZM72.3364 105.821C72.3759 105.892 72.5827 105.893 72.776 105.822C72.9726 105.76 73.0612 105.756 72.9694 105.825C72.9022 105.872 73.0187 106.412 72.6467 106.645C72.1078 106.99 71.7845 107.452 70.7885 108.246C70.1486 108.753 68.7801 110.201 68.3453 109.427C68.2326 109.232 70.2823 107.834 70.3951 107.611C70.7678 106.869 72.651 106.595 71.9156 105.978C71.5978 105.714 70.393 106.944 70.0255 107.238C67.9091 108.932 67.6505 109.35 66.9534 109.301C65.8815 109.227 67.0699 108.63 68.0201 107.986C69.9916 106.655 69.8347 106.555 70.7892 105.833C71.5191 105.295 72.1323 105.456 72.3364 105.821ZM33.8444 37.3615C34.9873 35.5665 32.5286 39.7164 32.0831 40.7535C32.0831 40.7535 31.2799 41.6168 29.2808 44.751C29.0627 45.0913 28.9719 45.6447 28.9719 45.6447C28.7634 45.6423 28.3696 46.4683 28.1179 46.6117C28.017 46.6674 27.6571 47.5263 27.5498 47.6964C27.3206 48.0696 25.5009 50.7879 25.9008 51.0221C26.1299 51.1601 25.1676 51.678 25.6321 51.9292C25.6321 51.9292 24.4546 54.8793 24.5983 55.1344C25.0363 55.9188 23.5833 56.8009 24.4304 53.2483C24.6959 52.1337 24.9193 50.1286 25.5103 49.1467C27.8848 45.1808 28.7473 43.9924 28.7473 43.9924C28.8424 43.3845 29.3045 44.2976 29.0693 43.7923C28.9812 43.5998 29.586 43.2943 29.4279 43.0098C29.4279 43.0098 29.7673 43.0708 30.2706 42.3311C30.4153 42.115 32.3153 39.8599 32.1916 39.6393C32.1541 39.5683 32.2502 39.4317 32.3978 39.3456C32.6987 39.176 32.6044 38.6336 32.7975 38.6419C33.7173 38.6758 32.9202 37.4999 33.237 37.3204C33.3979 37.2325 33.5662 37.7987 33.8444 37.3615ZM42.5646 53.4364L42.1191 51.4535C43.9261 54.8687 48.8391 65.4449 45.4352 67.3591C45.4352 67.3591 45.8921 68.2329 42.5646 53.4364ZM39.9342 49.6725C40.0566 49.119 40.2017 48.6965 40.2689 48.7095C40.3407 48.7294 40.2583 52.2846 40.2634 52.3945C40.0101 53.0454 41.2586 58.2587 41.2586 58.2587C41.127 58.5442 41.3534 59.4793 41.8991 59.1714C42.6701 58.7393 40.2501 51.2614 41.1843 50.7213C41.5618 50.5031 41.4078 51.969 41.7531 52.2828C41.7531 52.2828 41.4285 52.1322 41.7083 53.2523C42.3412 55.8452 42.8221 56.9808 42.8221 56.9808C42.8225 56.9836 43.1404 58.4124 43.1404 58.4124C45.4853 62.5728 44.037 78.3263 43.4611 67.5948C43.2847 64.2738 43.0104 63.3714 43.0104 63.3714C43.2137 62.6442 42.6243 59.0283 41.6713 59.4932C41.5726 59.5395 42.5678 65.7455 42.5714 65.8623C42.8291 76.1471 39.588 67.2893 39.9315 66.0634C40.1142 66.9921 38.151 57.853 39.9342 49.6725ZM38.9696 47.8875C39.0578 47.8359 39.1307 47.8306 39.1527 47.8698C39.4012 48.3113 38.5485 48.1202 38.9696 47.8875ZM55.7024 78.5342C56.6222 79.378 57.196 80.218 57.1448 80.6566C57.1268 80.8205 49.8836 73.2211 55.7024 78.5342ZM38.8449 49.3263C40.4895 44.7747 36.3836 58.5137 39.7167 68.5347C40.5927 71.1611 40.3903 70.1179 36.5268 68.8136C31.0923 66.9906 38.4402 50.4455 38.8449 49.3263ZM69.2858 104.713C69.6833 104.767 70.1633 104.902 70.3316 105.006C70.6618 105.218 70.6798 105.191 69.522 106.164C69.1108 106.51 65.6584 108.741 66.0679 108.981C66.0679 108.981 64.5417 107.905 69.4044 105.507C69.8599 105.28 69.6844 104.532 68.6626 105.263C68.5344 105.353 64.2797 108.816 64.1559 108.78C64.0301 108.746 62.0415 108.282 62.0753 108.155C62.262 107.504 64.9138 106.184 64.9169 106.127C64.9709 105.067 69.9466 102.769 65.354 106.35C60.0809 110.429 65.5133 107.33 66.4227 106.249C66.9469 105.62 68.3081 104.581 69.2858 104.713ZM54.8241 79.4841C55.3806 79.6997 56.8992 82.0756 56.0673 82.5429C56.0673 82.5429 54.2151 79.7688 53.0024 79.0049C53.4946 79.4909 48.0777 74.7032 47.7447 75.3122C48.5288 74.8687 41.313 71.6751 50.9424 76.1048C50.9836 76.113 52.8822 77.5361 52.9243 77.5111C52.9457 77.503 54.8153 79.4821 54.8241 79.4841ZM37.9641 49.0362C38.2017 48.8991 38.1938 49.681 37.8387 49.8814C37.3445 50.1605 33.742 59.6561 34.3056 60.6569C34.3056 60.6569 33.9977 65.1146 34.7334 68.0372C33.8151 67.364 34.1552 67.615 33.2378 66.9367C33.2378 66.9367 31.9564 64.6793 34.5816 55.1593C34.5816 55.1593 37.6068 49.2353 37.9641 49.0362ZM52.7206 76.2689C52.7542 76.2499 52.8367 76.3425 52.9072 76.4562C53.246 77.062 52.3909 76.4571 52.7206 76.2689ZM51.4799 75.3738C51.6758 74.6746 51.3238 75.9362 51.4799 75.3738V75.3738ZM51.7113 76.0643C51.7955 76.0147 51.8941 76.0437 51.9489 76.1323C52.1061 76.4173 51.3054 76.2897 51.7113 76.0643ZM35.9009 49.8931C37.1912 48.9208 36.2531 49.6952 35.2308 52.4943C34.8292 53.6118 31.1178 61.2392 32.5567 61.6201C31.8007 61.2369 32.3397 65.2675 32.2575 66.0906C32.8356 66.541 29.4878 62.7115 29.5489 64.4859C29.7165 69.1107 27.1716 75.6911 26.4636 76.0872C26.6054 76.0067 25.8164 78.3613 25.7829 78.3675C24.6433 78.5659 23.7762 72.9425 24.1914 72.7072C24.1914 72.7072 24.2332 65.2904 27.0797 60.5837C27.1494 60.4671 28.7567 57.6947 28.6879 57.5714C28.6879 57.5714 29.5337 56.7437 29.9241 56.1959C30.0884 55.9691 30.9781 54.9077 30.9786 54.8957C30.9893 54.6629 31.4808 54.5997 31.4161 54.4865C31.3125 54.2944 34.6463 50.8673 34.7999 50.9008C34.8104 50.8994 35.6649 50.0294 35.9009 49.8931ZM56.0817 84.8651C55.6555 85.1057 55.7464 85.9968 55.4897 85.5385C55.1778 84.9863 56.6387 84.5513 56.0817 84.8651ZM52.8496 79.9841C57.9544 84.6439 52.3362 87.5229 53.5417 89.673C53.5464 89.6752 53.2206 91.2639 53.258 91.6047C53.4278 93.1234 52.3319 88.5111 51.1953 85.9642C48.9678 80.9823 46.9407 79.5228 46.9407 79.5228C48.4031 78.6962 29.1474 66.2594 48.6096 76.3473C48.7011 76.027 52.6015 79.7614 52.8496 79.9841ZM65.0077 103.148C65.979 102.602 64.2523 103.932 64.4833 103.111C64.658 102.494 64.3489 103.521 65.0077 103.148ZM65.3542 104.247C65.8748 104.311 66.1758 104.695 65.7093 104.704C65.5998 104.706 62.2732 107.131 62.163 107.338C61.7789 108.078 60.5026 108.315 61.1268 107.726C61.5039 107.378 64.8433 104.188 65.3542 104.247ZM55.3793 85.8442C55.4193 85.8218 55.4791 85.8628 55.5289 85.9566C55.7645 86.3732 55.0036 86.0569 55.3793 85.8442ZM63.7778 104.172C64.4444 104.072 64.0358 104.494 61.4316 106.627C57.3877 109.937 62.8296 104.319 63.7778 104.172ZM45.6759 74.3078C45.7939 74.3133 45.9069 74.3711 45.954 74.4545C46.2856 75.0426 45.1135 74.2929 45.6759 74.3078ZM61.8939 104.171C62.2575 104.817 59.3977 107.431 58.7401 107.178C58.298 107.007 59.7915 105.819 60.1542 105.479C60.3471 105.302 61.7391 103.897 61.8939 104.171ZM49.163 83.613C49.4198 84.5005 51.8084 87.7739 51.8703 90.6485C51.8916 91.6751 52.8688 92.7833 52.6656 95.0619C52.6032 95.7345 52.6487 96.0024 52.8259 96.0125C52.9897 96.0136 52.9791 96.1071 52.7879 96.2891C52.338 96.7308 52.7485 98.3401 52.207 96.3969C51.4528 93.7167 51.4281 91.9638 50.8032 90.9417C50.5514 90.5321 49.0834 86.8751 48.896 86.4319C48.6917 85.9546 48.2073 86.053 48.0722 85.8174C48.0211 85.7253 48.1441 85.7257 48.3566 85.8201C48.6826 85.9705 48.7153 85.9586 48.5987 85.7349C48.5246 85.5898 48.3145 85.4665 48.1138 85.4545C47.7899 85.4319 47.785 85.4216 48.0519 85.3711C48.3148 85.3159 48.2847 85.2129 47.8133 84.5068C47.5113 84.0599 46.9021 83.1335 46.4457 82.4207C44.2299 78.9871 42.393 76.947 39.3944 74.5984C28.0896 65.7643 47.5368 78.0138 49.163 83.613ZM48.3557 81.8325C48.4412 81.7874 48.5561 81.8478 48.6313 81.9764C48.9106 82.474 47.9399 82.0655 48.3557 81.8325ZM28.227 46.7416C28.3171 46.6926 28.3917 46.6865 28.4123 46.7259C28.6602 47.1652 27.8078 46.977 28.227 46.7416ZM58.487 103.675C59.1412 103.217 59.8649 102.985 59.7014 103.282C59.3477 103.926 56.9877 104.518 58.487 103.675ZM59.54 105.164C59.8243 105.174 59.8376 105.279 59.5714 105.428C59.2852 105.593 59.2874 105.157 59.54 105.164ZM57.7984 105.779C60.5432 104.971 57.8807 106.787 57.2803 106.553C56.1225 106.096 57.0134 106.217 57.7984 105.779ZM45.5182 82.1227C45.9678 82.8979 49.7184 88.4891 50.6172 92.9135C50.8395 94.0047 51.081 94.7676 51.081 94.7676C51.157 95.2679 51.4175 96.4195 51.4175 96.4195C51.3146 96.4813 52.6495 101.544 52.6909 101.618C52.9462 102.074 52.0134 101.738 52.1696 101.453C55.0959 96.17 32.2898 64.2312 45.5182 82.1227ZM50.8613 92.6573C50.9027 92.6347 50.9604 92.6757 51.0113 92.7705C51.2473 93.1858 50.4879 92.8667 50.8613 92.6573ZM50.9635 93.1853C51.0041 93.1631 51.0619 93.2042 51.1131 93.2956C51.347 93.711 50.5875 93.3926 50.9635 93.1853ZM56.9787 104.752C57.0651 104.702 57.1392 104.693 57.1641 104.734C57.4024 105.163 56.556 104.988 56.9787 104.752ZM44.3744 82.6063C49.52 91.8361 52.1372 103.571 52.1372 103.571C52.2458 103.598 52.101 104.193 51.9673 104.269C51.9217 104.297 51.8216 104.213 51.7544 104.099C51.6985 103.997 49.379 102.411 49.4129 102.835C49.4129 102.835 49.2215 102.329 48.5733 101.858C47.0945 100.783 44.8555 98.4646 44.8555 98.4646C36.4572 93.6628 27.6893 60.2885 33.727 71.0122C33.7266 71.0114 42.9297 80.0101 44.3744 82.6063ZM46.7942 86.7889C46.9129 86.722 47.0932 87.1837 47.0055 87.3405C46.8936 87.5421 46.7014 86.8425 46.7942 86.7889ZM48.4625 90.998C49.139 91.0139 48.0033 90.984 48.4625 90.998V90.998ZM52.1786 97.7395C52.3463 97.647 52.3607 97.9967 52.1976 98.1902C51.8738 98.5754 52.0872 97.7928 52.1786 97.7395ZM49.3775 93.2976C49.4623 93.2523 49.5519 93.2778 49.5988 93.3659C49.8494 93.8074 48.7762 93.6391 49.3775 93.2976ZM58.6898 110.197C58.9457 110.051 59.091 110.282 58.4141 110.917C57.3723 111.895 58.8932 111.953 58.5979 111.434C58.5123 111.276 59.2598 110.981 59.1494 111.377C59.0574 111.71 57.332 113.669 57.3438 113.691C57.3438 113.691 56.908 114.317 56.7564 114.713C56.5363 115.288 56.2831 115.597 55.8254 114.787C55.5235 114.248 54.987 114.675 55.3795 114.409C55.6432 114.231 55.1243 114.106 55.453 114.053C56.3989 113.9 58.9247 110.785 57.455 111.816C57.2088 111.987 54.9708 113.907 54.7929 113.829C53.6103 113.297 55.6965 113.06 55.3931 112.675C55.0162 112.19 56.6697 112.49 56.4163 112.038C56.3582 111.934 57.6167 111.176 57.6864 110.916C57.9559 109.955 57.6021 111.439 58.2576 110.638C58.338 110.537 58.5824 110.256 58.6898 110.197ZM58.0467 109.453C58.4853 109.575 58.4378 109.73 57.8157 110.213C57.3825 110.548 57.2423 110.756 57.3355 110.928C57.4546 111.155 56.8173 110.937 56.4336 111.293C55.6399 112.03 55.2674 111.978 54.4601 112.878C53.4132 114.045 53.247 112.934 53.645 112.945C53.9068 112.958 54.3996 111.993 54.6195 112.108C54.7327 112.165 55.9291 111.062 56.0702 110.96C56.354 110.757 57.7762 109.374 58.0467 109.453ZM52.5045 99.6195C52.552 99.537 52.6441 99.5673 52.7108 99.6865C52.9642 100.138 52.2552 100.048 52.5045 99.6195ZM56.2285 109.288C57.3442 108.216 57.6458 110.332 57.1718 109.565C57.0896 109.435 54.8057 111.314 54.6211 111.441C53.7306 112.049 52.932 113.009 52.932 113.009C52.3954 112.901 52.1045 113.368 52.3797 112.977C52.4779 112.844 54.1038 111.385 54.0535 111.29C54.0323 111.257 55.4191 110.246 55.5572 110.044C55.7267 109.794 56.1893 109.31 56.2285 109.288ZM55.8479 108.3C55.9377 108.252 56.0646 108.306 56.1299 108.423C56.3086 108.743 55.3216 109.326 55.1756 109.66C55.0999 109.825 53.6591 110.934 53.7139 111.035C53.8019 111.186 52.5509 111.728 52.6351 111.875C52.8014 112.171 51.5783 112.757 51.3579 112.369C51.2408 112.164 51.8101 112.14 51.7206 111.976C51.6745 111.889 52.9842 110.812 53.0858 110.712C54.1886 109.617 53.8278 110.142 54.9683 109.068C55.0853 108.957 55.711 108.376 55.8479 108.3ZM55.11 107.513C55.2327 107.617 55.4421 107.785 55.55 107.865C55.7037 107.974 55.6727 108.029 55.4606 108.064C54.9574 108.134 51.4185 111.57 50.9304 111.845C50.8147 111.906 50.5715 111.465 50.8963 111.265C51.4992 110.886 52.8575 109.441 53.4621 108.944C53.8812 108.598 54.7846 107.224 55.11 107.513ZM51.5126 105.222C51.7991 105.182 52.2259 105.48 52.0313 105.592C51.3165 105.993 51.0854 105.286 51.5126 105.222ZM51.7043 109.358C52.8152 108.421 52.9448 108.768 52.6555 108.929C52.2986 109.131 52.609 109.656 52.3929 109.342C52.1782 109.022 51.2214 110.512 50.9034 110.421C50.5411 110.322 51.4089 109.523 51.7043 109.358ZM47.2235 103.639C47.5352 103.925 48.3249 104.336 48.9965 104.564C49.6671 104.789 50.0394 104.946 49.8352 104.913C49.373 104.847 49.0975 105.346 49.0609 105.077C49.0609 105.077 33.1553 101.297 29.7875 83.3484C29.254 82.3974 29.8969 69.5079 30.1006 77.2455C30.6034 96.023 46.5251 102.998 47.2235 103.639ZM30.7816 71.329C32.3129 79.9783 39.5314 94.4098 40.6448 94.5295C40.8334 95.1829 46.2634 101.145 46.6635 101.315C47.4327 101.63 48.9948 103.184 44.2977 99.73C42.7991 98.6306 42.6633 99.0534 42.6633 99.0534C42.6633 99.0534 28.6102 83.8955 30.7816 71.329ZM21.3941 55.2473C22.2563 56.2614 23.5995 58.282 23.4587 58.3574C23.4587 58.3574 23.8891 59.6554 23.9887 60.2815C24.1805 61.493 25.1062 62.2539 24.6491 63.3728C24.5307 63.6612 24.279 64.696 24.0769 64.808C23.8402 64.94 22.6852 70.5075 23.2789 70.6325C23.0805 70.6259 22.859 72.9155 23.0394 73.0819C23.0394 73.0819 23.0039 73.9918 23.0293 74.4969C23.1591 76.8736 20.8419 73.2729 20.4399 67.6123C20.27 67.513 20.8608 65.8799 20.1181 65.8479C19.8176 65.832 20.0413 65.4463 20.2534 65.6402C20.5159 65.8729 20.081 55.681 20.052 55.322C19.9755 54.3103 19.6574 52.8075 19.6574 52.8075C19.6897 52.7006 21.0951 54.8955 21.3941 55.2473ZM48.0459 105.31C48.7609 104.906 50.3707 106.255 48.881 105.724C48.881 105.724 43.4504 105.042 43.4485 105.04C42.8708 105.056 39.6646 104.353 39.4401 103.954C39.3876 103.861 38.8288 103.905 38.7033 103.681C38.6323 103.552 38.1461 103.476 37.8834 103.298C35.9285 101.994 36.9839 103.738 33.0386 99.9669C32.2337 99.1962 31.4887 98.4255 31.3904 98.2634C30.93 97.4861 26.2597 93.4467 26.0393 89.9557C25.5342 81.8165 26.2796 82.372 27.3857 78.901C29.886 71.0067 28.5277 78.996 28.9343 82.1777C27.9932 83.8102 32.4913 99.393 44.0463 103.461C45.518 103.984 44.7091 103.978 46.0879 104.362C46.6696 104.529 48.0437 105.312 48.0459 105.31ZM47.5711 102.958C47.9037 103.077 48.6183 103.665 48.4172 103.658C48.1745 103.647 47.3073 102.862 47.5711 102.958ZM46.3722 100.349C46.4748 100.352 46.5717 100.407 46.6192 100.492C46.9336 101.049 45.8852 100.34 46.3722 100.349ZM49.627 108.088C49.9371 107.667 50.0684 107.581 50.2857 107.66C50.7059 107.821 48.4616 109.659 49.627 108.088ZM53.238 114.332C53.358 114.336 53.4671 114.393 53.5161 114.479C53.5625 114.56 53.5358 114.649 53.4456 114.703C53.2545 114.81 52.9752 114.323 53.238 114.332ZM45.4785 101.455C48.9867 104.516 37.1693 98.1011 33.2496 87.999C26.0213 69.2702 39.4486 101.053 41.1782 97.9711C41.179 97.9706 45.4766 101.45 45.4785 101.455ZM48.7423 107.821C48.8905 107.641 49.0655 107.551 49.1643 107.607C49.2656 107.657 49.2783 107.723 49.1987 107.771C48.5246 108.149 48.9391 108.98 47.8889 109.431C47.1533 109.74 47.7154 109.068 48.7423 107.821ZM18.7056 55.4317C18.8162 53.9111 18.8879 53.6108 19.0603 53.92C19.1783 54.1287 19.2143 54.3392 19.1441 54.3763C18.9509 54.4836 19.169 55.1457 19.3623 55.0444C19.4664 54.9937 19.4676 55.0775 19.3659 55.2426C19.2737 55.3966 19.2654 55.6665 19.3495 55.814C19.4312 55.9649 19.4614 56.1789 19.4083 56.2664C19.3542 56.3611 19.3639 56.5357 19.4318 56.6533C19.4969 56.7713 19.5328 57.228 19.5093 57.6659C19.4306 59.2262 19.4706 59.8449 19.6591 59.9514C19.7779 60.0164 19.7621 60.0538 19.6249 60.0516C19.505 60.0435 19.4406 60.1241 19.4914 60.2128C19.545 60.3097 19.5619 60.6299 19.5269 60.9398C19.4075 62.0586 19.6655 66.6143 19.8573 66.7958C19.9632 66.887 19.9782 66.957 19.8944 66.9346C19.7206 66.8947 19.807 69.8518 19.9882 70.1759C19.9882 70.1759 19.8252 70.4395 20.6608 72.8075C21.3044 74.6207 17.4638 72.363 18.7056 55.4317ZM17.8965 52.9583C18.1091 52.6269 18.1388 52.6329 18.3433 53.0242C18.4591 53.2484 18.4732 53.3766 18.3754 53.294C18.153 53.1177 17.9158 53.6129 18.0802 53.9068C18.1378 54.0124 18.1407 54.1573 18.0872 54.2246C17.8945 54.4626 17.4254 60.4969 17.5503 61.0832C17.6057 61.3219 17.5583 61.7268 17.4441 61.9956C17.3384 62.2543 17.2965 62.4901 17.3522 62.5056C17.4119 62.521 17.4567 63.0585 17.4535 63.7182C17.4531 64.6343 17.5115 64.9063 17.7153 64.9214C17.9083 64.9344 17.9102 64.9753 17.7184 65.0845C17.554 65.1774 17.4973 65.5094 17.5605 65.9968C17.6182 66.4119 17.6993 66.7805 17.7418 66.8013C17.7876 66.8205 17.7865 66.9008 17.7387 67.0015C17.6437 67.1943 18.1982 69.9401 18.4976 70.7629C20.2643 75.5803 12.6755 61.1903 17.8965 52.9583ZM38.3675 90.6568C39.0553 90.6796 37.8936 90.6429 38.3675 90.6568V90.6568ZM47.4716 107.568C47.9526 107.556 47.9526 107.556 47.7783 108.077C47.7014 108.319 47.6014 108.455 47.5585 108.382C47.5585 108.382 47.1173 109.036 46.8463 109.356C45.4396 111.014 45.5786 109.996 45.7526 109.999C46.4287 110.025 46.6319 107.577 47.4716 107.568ZM18.134 55.5848C18.1529 55.5141 18.2408 55.5854 18.3141 55.737C18.5297 56.1635 18.0891 55.7382 18.134 55.5848ZM45.9676 107.721C46.7996 107.425 45.4181 109.914 44.9756 110.443C44.185 111.394 42.8082 109.727 43.5371 110.311C43.9472 110.648 44.9308 108.089 45.4508 107.91C45.4586 107.906 45.9599 107.724 45.9676 107.721ZM37.7549 96.1468C37.8239 96.1113 37.9767 96.156 38.0875 96.2508C38.6113 96.7002 37.4551 96.3148 37.7549 96.1468ZM23.3038 69.9057C23.3432 69.8811 23.403 69.9241 23.4542 70.0135C23.6892 70.434 22.9258 70.115 23.3038 69.9057ZM43.7431 108.43C45.4673 107.178 42.6036 110.96 42.1942 110.741C41.9552 110.611 43.4441 108.595 43.7431 108.43ZM26.5972 77.501C26.9614 77.0707 26.1433 78.0282 26.5972 77.501V77.501ZM40.3252 105.186C40.4101 105.139 40.5112 105.168 40.5606 105.257C40.7225 105.546 39.9237 105.412 40.3252 105.186ZM41.1317 109.654C41.8448 109.271 42.4447 108.956 42.4493 108.962C42.5526 109.143 41.6133 110.282 41.4884 110.446C41.2571 110.751 40.2461 110.854 39.8197 111.013C37.5614 111.881 34.23 111.481 37.0784 111.218C38.2244 111.115 40.0938 110.209 41.1317 109.654ZM23.3964 77.8316C26.748 81.9079 22.4232 84.4009 23.9585 85.2555C23.9585 85.2555 23.7252 84.8833 23.8916 87.1888C23.9123 87.4906 24.366 90.6272 24.5434 90.8694C25.0503 91.5672 24.3066 91.2113 24.8047 92.0933C24.944 92.339 25.1238 91.9684 25.2029 92.1104C24.8328 91.4462 25.7916 95.1475 26.4782 95.482C26.3348 98.6688 15.5321 71.6157 17.671 72.6966C17.6527 73.1672 22.6552 76.7412 22.3294 76.7375C22.3281 76.7372 22.9722 77.32 23.3964 77.8316ZM37.9073 104.011C38.0868 104.125 38.2479 104.269 38.2761 104.337C38.6091 105.19 38.187 105.366 38.2028 105C38.2173 104.731 37.6302 104.72 37.9329 104.663C38.4008 104.574 36.8644 103.351 37.9073 104.011ZM37.0351 104.26C39.5693 105.797 32.4314 102.939 32.4267 102.95C32.3858 103.026 32.3315 102.972 32.3131 102.83C32.2879 102.685 31.984 102.354 31.631 102.088C31.4162 101.926 29.323 100.24 29.2405 100.498C29.2098 100.596 29.185 100.578 29.1853 100.464C29.1815 100.348 28.6952 99.8262 28.113 99.3206C27.1425 98.4709 26.1826 97.7355 25.8993 97.1821C14.9278 76.0574 18.7803 93.1827 31.0894 102.441C31.7067 102.907 31.8211 103.048 31.5632 103.041C31.4616 103.034 31.3958 103.13 31.4138 103.257C31.4329 103.388 31.3744 103.365 31.275 103.208C30.927 102.649 28.9634 101.618 28.9664 102.002C28.9698 102.087 28.9439 102.065 28.9103 101.947C28.845 101.714 26.7071 100.397 26.4764 100.207C26.2254 100.004 25.8106 99.926 25.7786 99.7968C25.7328 99.6324 22.5988 96.8678 21.7528 95.7276C19.2996 92.4306 16.6514 86.2674 16.6514 86.2674C16.3354 86.4444 14.0572 68.8378 15.3537 73.1015C15.8943 74.8849 16.6961 80.2906 17.563 82.3456C17.2666 82.3317 18.5338 87.2636 19.3156 86.8315C19.445 86.7559 16.3367 75.0591 16.2802 75.0292C16.182 74.9714 16.2579 73.935 16.4723 74.0147C16.4722 74.0173 17.2944 76.3038 17.4299 76.5489C17.7511 77.127 20.4441 85.2041 21.0223 85.6155C21.0223 85.6155 20.4405 84.8693 23.4293 91.2049C22.9132 91.1071 23.606 92.1035 23.76 91.8815C23.76 91.8815 24.8633 98.4727 34.1758 102.954C34.4963 103.109 34.7203 103.287 34.7014 103.368C34.6836 103.446 34.7481 103.47 34.8372 103.42C34.9374 103.367 35.0481 103.395 35.1061 103.502C35.263 103.783 35.9496 103.949 36.1179 103.748C36.3032 103.522 36.7642 103.744 36.3181 103.829C35.8241 103.924 36.4577 103.908 37.0351 104.26ZM17.2892 71.8277C17.5193 71.411 17.038 72.2794 17.2892 71.8277V71.8277ZM24.5959 89.9589C24.7828 89.8522 24.8049 89.9554 24.6758 90.3056C24.4754 90.846 24.4646 90.0339 24.5959 89.9589ZM27.8914 97.9087C27.9409 97.8154 28.057 97.8761 28.1494 98.0377C28.5517 98.7537 27.7926 98.0943 27.8914 97.9087ZM26.7883 95.8581C26.7568 95.6356 26.9229 95.5567 26.9252 96.9002L26.6925 96.4873C26.3591 95.8946 26.8371 96.2267 26.7883 95.8581ZM26.8564 97.1914C26.9128 96.9845 27.0022 96.9312 27.2112 96.9896C27.6281 97.1101 26.7468 97.5801 26.8564 97.1914ZM35.0186 111.666C35.1083 111.619 35.2358 111.624 35.3369 111.681C35.5717 111.814 35.2732 111.977 35.0437 111.847C34.9474 111.794 34.9265 111.719 35.0186 111.666ZM34.7165 112.13C34.8347 112.133 34.9295 112.161 34.9525 112.201C34.9756 112.237 34.9298 112.301 34.8436 112.351C34.6469 112.46 34.4525 112.123 34.7165 112.13ZM24.0996 95.5366C24.1219 95.4635 24.2078 95.5349 24.283 95.6871C24.492 96.1068 24.0538 95.6991 24.0996 95.5366ZM22.2337 92.3531C22.8646 92.3686 21.7655 92.3423 22.2337 92.3531V92.3531ZM20.156 88.667C20.2155 88.5612 20.2895 88.5529 20.3389 88.6418C20.5807 89.0724 19.8573 89.1993 20.156 88.667ZM27.0646 101.287C27.329 101.294 27.4939 101.589 27.2297 101.582C26.9676 101.574 26.7972 101.278 27.0646 101.287ZM14.444 80.2343C14.6883 80.2425 14.8031 80.461 14.675 80.6844C14.3797 81.2077 14.098 80.2155 14.444 80.2343ZM30.4943 111.282C30.5374 111.119 30.6275 111.066 30.7388 111.131C30.8362 111.189 30.8652 111.326 30.8071 111.429C30.6645 111.688 30.4107 111.571 30.4943 111.282ZM18.2559 90.805C18.3419 90.754 18.4341 90.7817 18.4843 90.8701C18.7306 91.3062 17.8339 91.0428 18.2559 90.805ZM19.9856 95.2676C20.0775 95.2171 20.1501 95.211 20.1729 95.2518C20.4213 95.696 19.5733 95.5024 19.9856 95.2676Z" fill="white"/>
<path d="M18.5776 93.4489C18.6003 93.4924 18.5569 93.551 18.4665 93.6022C18.0478 93.8327 18.3275 93.0064 18.5776 93.4489Z" fill="white"/>
</svg>
