<svg width="248" height="256" viewBox="0 0 248 256" fill="none" xmlns="http://www.w3.org/2000/svg">
<path fill-rule="evenodd" clip-rule="evenodd" d="M184.36 109.812C187.053 110.782 212.677 112.711 212.233 128.649C211.891 140.835 208.665 143.412 193.956 167.886C189.691 174.977 184.327 181.195 179.213 187.631C175.816 191.906 172.627 196.353 169.039 200.468C166.461 203.417 164.31 206.867 160.837 208.875C158.02 210.506 155.055 211.815 151.556 211.512C148.377 211.236 145.164 211.436 141.966 211.398C119.344 211.099 127.73 208.742 118.075 219.343C114.889 222.843 111.098 224.027 106.53 223.469C102.696 223.002 98.9298 222.228 95.2262 221.182C41.8318 206.075 7.51172 151.177 11.9351 144.933C12.8686 143.62 13.7213 142.246 14.6883 140.961C17.5751 137.114 36.7043 114.006 36.8567 113.76C39.9027 108.786 44.2919 105.053 47.8599 100.583C53.7905 93.153 61.3563 87.4419 99.9092 37.4908C102.508 34.1195 101.979 20.2211 121.125 22.7323C139.837 25.1853 152.063 17.3791 157.358 35.1464C158.866 40.2022 158.985 50.4318 166.252 51.8635C172.541 53.103 175.603 53.9916 178.628 56.0035C195.685 67.3465 183.25 66.6299 192.092 75.6638C195.297 78.9374 197.645 82.6944 198.617 87.1641C201.245 99.244 192.494 97.027 187.638 105.19C186.729 106.717 185.582 108.106 184.36 109.812ZM74.7024 84.786L74.7729 84.7712C73.9931 84.0931 74.2329 83.1429 74.1178 82.2858C73.8879 80.5665 73.7174 78.831 73.0907 77.0008C71.1223 78.3404 70.191 79.8514 70.6768 82.0957C70.7477 82.4291 71.3583 87.2246 71.6677 87.286C73.9236 87.7536 72.9302 95.8621 75.5738 101.939C75.6785 102.176 75.6228 102.292 75.3935 102.294C74.5265 102.188 74.9115 100.701 73.5077 100.864C73.5877 102.936 74.6729 105.083 73.4586 107.101C72.5163 105.874 72.7327 104.409 72.6945 103.027C72.5801 99.0952 72.439 95.1817 71.5587 91.3149C70.6475 87.2918 70.1004 81.7208 69.259 81.3232C65.7977 85.313 65.6938 84.2258 67.2547 89.8152C67.6264 91.1378 67.13 92.9165 69.0618 93.5161C69.1778 93.5506 69.2193 93.9992 69.2056 94.253C69.031 97.9733 70.2668 101.464 70.8918 105.056C71.1256 106.392 71.7369 107.313 72.7198 108.135C72.9965 107.696 73.2183 107.334 73.4421 106.977C73.9512 108.908 74.4257 110.856 75.8485 112.412C73.5156 111.147 72.6064 108.482 70.2164 107.159C70.0833 110.625 70.3508 113.805 73.2471 116.343C72.1458 116.268 71.967 114.937 71.5947 115.231C70.6717 115.961 70.5553 115.637 70.359 114.757C69.9067 112.737 68.2289 111.587 67.0432 110.045C66.9831 110.954 67.4876 111.857 67.2592 112.5C66.3813 114.975 67.2552 116.889 69.0289 118.641C68.2836 118.792 68.0139 117.815 67.457 118.297C67.0337 118.656 67.7374 119.57 66.7807 119.824C66.3486 118.299 66.7062 116.582 65.6566 115.229C65.4645 114.982 65.5771 114.776 65.6877 114.523C66.5366 112.656 66.3891 112.312 62.5784 94.0733C62.3548 92.9922 62.3049 91.8174 61.5314 90.8757C58.0073 93.7968 58.296 95.1329 61.1815 109.334C62.4402 106.715 60.866 104.427 62.072 102.405C62.6836 105.755 62.7294 109.176 62.4525 112.482C62.1789 115.757 63.0289 118.133 65.3294 120.323C66.2938 121.241 67.6257 122.091 67.6339 123.73L67.6939 123.722C66.1172 122.023 64.8547 119.998 62.6554 118.678C62.0025 120.235 62.7581 121.68 62.3471 123.04C62.0366 124.078 62.4331 124.846 63.1766 125.648C63.8823 126.41 65.1634 126.959 64.7937 128.394L64.8001 128.398C63.7179 126.273 61.3889 125.2 60.2866 123.051C60.7548 122.685 61.0761 123.337 61.5074 123.217C61.9372 120.465 60.8314 114.894 59.2073 112.207C59.6907 116.037 58.3798 119.736 60.3289 123.143C59.798 122.884 59.3986 122.738 59.2898 123.61C59.0776 125.262 59.4111 126.96 58.8166 128.555C58.1654 127.473 58.388 126.274 58.4757 125.143C58.7503 121.663 57.1668 118.659 56.433 115.122C55.8489 115.807 55.568 116.135 55.2867 116.464C54.811 116.046 54.9351 115.479 54.9675 114.966C55.1504 111.916 55.7573 106 53.548 100.959C51.2558 102.75 50.547 104.755 51.3296 107.542C51.6892 108.838 53.7878 117.779 53.1977 118.992C51.7771 119.544 52.9856 123.033 53.7442 123.9C53.9968 124.189 54.6159 124.047 54.7391 123.489C54.9369 122.605 54.7349 121.761 54.3373 120.96L54.3471 121.043C55.3288 119.607 54.2967 117.779 55.2648 116.346C56.1244 118.769 55.4885 121.245 55.4462 123.687C55.4091 125.744 56.1241 127.267 57.6555 128.547C58.1462 128.958 58.4377 128.698 58.8045 128.477C59.118 129.893 59.9058 130.941 60.9276 132.005C61.9959 133.119 63.378 133.977 64.2198 135.307C61.0742 133.399 58.8712 130.401 55.8828 128.099C55.6283 131.858 55.8965 135.11 58.9726 137.368C59.0584 137.431 58.9996 137.693 59.0097 137.864L59.0927 137.855C56.8179 135.782 54.6334 133.634 53.0886 130.912C53.8849 130.993 54.1255 132.138 55.1475 131.986C55.8769 128.832 53.58 126.871 52.3811 124.484C51.7013 126.803 51.9023 128.982 53.1175 131.037C52.4613 130.977 52.2362 131.169 52.2794 131.923C52.3531 133.171 53.1861 134.436 52.39 135.749C51.5359 135.243 52.0451 134.318 51.5575 133.773C51.2776 130.612 50.7385 127.463 51.1058 124.268C51.4247 121.5 51.1689 118.791 50.5151 116.067C50.1985 114.741 49.2332 113.096 51.141 111.984C51.2958 111.89 51.225 111.314 51.1689 110.977C50.8676 109.243 50.5349 107.518 50.1523 105.446C43.8937 111.321 47.3219 110.848 46.1707 112.713C45.5706 112.492 45.9572 111.45 45.1278 111.423C43.3021 112.971 42.7154 114.774 43.6139 117.076C43.9053 117.82 44.4222 118.704 43.8241 119.59L43.8986 119.576C42.4415 118.718 43.3071 116.838 42.1082 115.687C40.4445 117.334 38.5031 118.755 38.4182 121.459C34.0054 122.353 35.9036 127.087 37.0539 132.462C37.9505 132.65 38.6483 132.068 39.3098 132.553C39.6857 139.484 39.5031 140.456 41.9698 140.809C42.3258 138.828 41.9282 136.967 41.2588 135.101C40.5937 133.245 38.0707 122.998 38.4111 121.345C39.6557 123.246 39.0932 125.995 41.2843 127.45C41.0553 129.988 42.1723 127.103 42.3755 127.625C42.8788 128.481 42.6165 129.31 42.5857 130.08C42.4295 133.798 43.0084 137.365 44.2714 140.876C45.3766 143.953 45.8956 147.301 48.9948 149.3C46.5798 148.642 45.6862 146.192 43.6861 145.072C43.096 146.01 44.0051 146.784 43.5766 147.571C41.9356 148.203 41.9646 146.713 41.478 145.887C40.9763 145.033 40.9661 143.92 39.9122 142.665C40.0696 144.58 39.7576 146.04 40.8181 147.045C42.4428 148.593 43.6649 150.47 45.2605 152.049C47.7167 154.484 50.1303 156.966 52.5526 159.442C48.0855 156.178 44.2395 152.274 41.0525 148.203C39.9043 148.184 40.6089 149.471 39.4463 149.321C39.5649 147.508 38.9246 145.877 38.0921 144.306C38.471 144.402 39.1399 144.802 39.0537 144.062C38.8163 142.034 39.8265 139.697 37.664 138.078C37.3893 137.871 37.423 137.248 37.3217 136.817C36.6104 133.774 35.7171 130.77 35.2347 127.671C35.1541 127.146 34.9923 126.629 34.8307 126.121C34.6139 125.445 34.0162 125.239 33.6237 125.732C29.3041 131.104 33.2504 132.731 34.7082 140.039C34.7956 140.476 34.6608 141.186 35.527 141.036C35.6663 139.232 34.8258 137.443 35.4574 135.628C35.915 137.516 36.1654 139.427 36.4087 141.338C36.5367 142.328 36.6472 143.326 37.783 143.741C37.0371 143.402 36.5829 143.476 36.6428 144.456C36.8351 147.462 37.7978 150.213 39.3937 152.735C39.6964 153.215 39.9754 153.586 39.8038 154.151L39.8564 154.141C39.4374 153.178 38.4409 152.975 37.815 152.369C37.002 152.94 37.9516 153.886 37.0361 154.372C36.3967 153.237 36.8915 151.853 36.3204 150.796C35.7568 149.75 34.897 148.864 34.1831 147.927C34.9842 147.115 35.4164 148.778 36.313 147.68C35.2114 145.241 33.7033 142.789 32.7742 140.093C32.7567 140.041 32.6147 140.029 32.5323 139.999C33.0925 136.462 31.3892 133.389 30.8217 129.941C28.2775 131.592 27.7428 133.534 28.5998 136.031C29.2556 137.945 29.5562 139.988 30.3071 141.855C31.0855 143.792 30.6093 144.976 32.9998 146.141C33.421 146.78 33.3099 147.532 33.3193 148.209C33.3776 151.953 35.1514 154.973 37.4873 157.637C39.3431 159.755 41.1432 161.962 43.3532 163.755C43.7575 164.084 44.2612 164.373 44.0829 165.039L44.1624 165.028C40.4177 162.658 38.0388 158.791 34.6764 156.034C33.9606 156.706 34.8381 157.688 33.8276 158.043C33.7154 157.792 33.5744 157.563 33.5093 157.312C33.0279 155.463 33.4429 153.335 31.7924 151.833C31.6553 151.709 31.6807 151.334 31.7215 151.092C32.1105 148.849 32.1145 148.849 29.8983 147.889C30.4209 151.087 30.9188 154.158 31.4393 157.222C31.5437 157.84 31.8403 158.397 32.2669 158.877C33.8723 160.692 39.1392 166.404 39.2084 167.382L39.2808 167.371C37.1438 165.712 35.6254 163.453 33.6844 161.601C33.1944 161.132 32.7557 160.81 32.0196 161.276C50.7907 182.263 72.8825 193.141 78.7752 197.507C78.4337 197.443 78.0417 197.464 77.7577 197.298C44.7843 178.166 30.2446 161.222 31.1527 161.876C30.4984 161.405 30.4855 160.436 30.7337 159.097C30.7933 158.773 30.7145 158.364 30.5531 158.074C30.2957 157.614 29.8661 157.249 29.6014 156.789C29.1154 155.936 27.5318 155.301 29.0345 153.969C29.2018 153.818 28.8628 152.525 28.5296 152.621C26.8752 153.089 27.3843 151.776 27.1373 151.109C26.879 150.405 26.9399 149.579 26.156 148.605C26.0849 149.475 25.9532 149.984 26.0179 150.468C26.2609 152.33 26.6511 154.178 26.8227 156.045C26.9504 157.414 27.3057 158.668 27.9601 159.859C39.7394 181.332 79.9931 202.074 79.9931 202.074C60.4522 192.422 42.4937 180.652 28.6167 163.463C26.9939 165.178 48.0334 188.046 71.9179 199.992C64.5056 197.493 47.3473 186.785 33.1099 171.041C31.7286 169.513 30.519 167.418 28.7843 166.75C26.9836 166.057 26.2765 164.77 25.2279 163.591C24.6813 162.977 24.391 162.122 23.5214 161.651C22.503 167.324 77.0803 218.166 95.8336 215.222C87.103 211.175 82.332 209.362 84.9023 209.055C85.392 208.996 85.7359 209.31 86.1283 209.512C94.8233 213.982 94.435 214.465 99.0262 212.925C97.6571 212.488 96.8036 212.797 95.9525 212.776C95.4206 212.762 94.8724 212.935 94.3701 212.677C93.9853 212.479 93.5127 212.229 93.8039 211.682C93.9797 211.355 94.4878 211.181 94.7345 211.374C95.3937 211.884 95.9937 212.081 97.0345 211.554C87.2563 207.486 87.7414 207.879 86.7834 206.462C89.139 207.305 91.3715 209.332 93.5143 208.912C95.8203 208.461 98.3915 209.811 100.581 207.846C96.6136 206.111 92.5165 204.88 88.7979 202.803C90.2069 200.964 99.0691 208.412 99.4943 205.322C98.8479 204.297 97.1541 205.381 96.7071 203.824C98.6062 203.545 100.319 204.777 102.501 203.996C90.9776 199.308 91.4645 199.786 90.6455 198.23C92.6826 199.873 95.1619 199.911 97.1622 201.119C97.4394 201.287 98.0476 201.42 98.1576 201.288C99.2752 199.925 100.821 200.84 102.113 200.475C102.964 200.233 103.994 200.513 104.876 199.609C101.551 197.849 98.0069 197.088 95.0106 195.162C96.8049 195.404 98.4093 196.154 100.059 196.779C100.879 197.09 101.751 197.54 102.633 196.995C103.215 196.636 104.162 196.934 104.257 195.634C104.357 194.294 103.452 194.511 102.84 194.166C101.134 193.207 99.03 193.029 97.1961 191.346C103.304 192.553 105.732 196.477 111.146 193.569C110.352 192.727 109.483 192.497 108.464 192.494C107.43 192.49 106.594 193.075 105.643 193.294C105.411 193.347 105.285 193.282 105.259 193.078C105.251 192.202 106.685 192.697 106.548 191.562C104.33 190.252 101.558 189.841 99.4909 188.034C101.451 188.602 103.346 189.333 105.216 190.112C105.722 190.322 106.386 190.742 106.719 190.411C107.939 189.21 109.368 190.09 110.665 189.835C111.236 189.721 111.935 189.993 112.283 189.217C111.601 188.391 110.747 188.071 109.679 188.213C109.162 188.28 108.434 188.432 108.174 187.991C107.33 186.572 105.754 186.619 104.533 185.97C103.845 185.605 103.138 185.276 102.441 184.93C105.356 185.405 107.885 186.739 110.702 187.198C113.804 189.57 115.214 189.227 118.57 186.693C116.593 185.909 116.253 185.889 114.3 186.484C113.116 186.837 111.998 187.496 110.688 187.214C110.999 186.923 111.308 186.63 111.618 186.337C110.723 185.782 111.569 184.611 110.677 183.901C110.037 183.39 109 183.628 108.394 182.481C110.104 183.124 111.55 183.563 112.896 184.199C115.858 185.601 118.324 184.674 120.758 182.849C118.312 180.096 115.833 184.099 114.403 182.386L114.417 182.471C115.142 182.087 116.151 182.178 116.65 181.258C114.448 179.87 111.677 179.965 109.864 178.047L109.873 178.147C113.176 179.382 116.262 178.961 119.209 176.96C118.632 176.212 117.81 175.843 117.077 175.961C115.629 176.188 114.574 175.936 113.472 174.854C112.79 174.186 111.453 174.241 110.618 173.102C119.839 175.967 115.862 174.618 121.52 172.587C117.944 170.735 113.791 170.493 110.465 168.202C113.839 169.366 117.348 170.024 120.695 171.245C123.269 172.185 126.234 171.205 128.081 168.78C125.94 168.763 123.935 169.905 121.837 169.332C122.189 168.623 123.307 169.053 123.375 168.262C122.45 166.963 121.066 167.902 120.142 167.264C118.643 166.227 116.886 165.869 115.268 165.157C114.303 164.732 113.061 164.729 112.176 163.5C119.131 164.835 120.708 168.495 125.829 164.307C122.572 162.408 119.053 161.657 116.009 159.789C116.495 159.384 116.844 159.505 117.161 159.666C119.32 160.744 121.624 161.467 123.828 162.429C127.382 163.979 130.248 162.264 133.743 160.918C127.112 158.567 128.128 161.684 123.644 161.621C125.326 160.397 127.075 160.416 128.451 159.137C126.681 158.458 125.043 158.271 123.586 157.413C122.092 156.535 120.337 156.103 118.696 155.477C119.791 154.971 120.642 155.496 121.527 155.778C122.891 156.209 124.223 156.744 125.572 157.222C126.072 157.398 126.621 157.733 127.118 157.432C128.781 156.434 130.838 156.203 132.408 154.723C129.393 152.951 125.9 152.362 123.145 150.25C123.855 150.361 124.541 150.562 125.16 150.883C130.878 153.842 132.348 151.198 134.257 150.906C135.599 151.924 136.107 151.914 137.952 150.808C136.647 149.964 135.426 151.435 134.174 150.896C134.425 150.652 134.919 150.365 134.881 150.174C134.786 149.685 134.21 149.741 133.811 149.637C133.666 149.597 133.483 149.698 133.317 149.735L133.305 149.757C133.353 149.381 133.4 149.008 133.448 148.631C135.398 149.728 137.338 149.69 139.297 148.631C139.818 148.35 140.349 147.903 141.032 148.277C140.709 149.258 139.37 148.868 138.923 149.957C139.68 150.399 140.517 150.818 141.366 150.478C142.221 150.142 143.706 149.977 143.561 148.88C143.353 147.286 142.104 148.54 140.897 148.301C139.879 145.903 135.884 148.722 133.845 147.823C134.446 147.081 135.692 147.345 136.538 145.984C133.579 146.112 131.375 144.976 129.212 143.719L129.215 143.788C129.507 143.508 129.842 143.533 130.174 143.685C132.632 144.8 135.101 145.352 137.649 143.941C137.737 143.894 137.95 144.072 138.115 144.142C137.782 144.831 136.857 144.728 136.334 145.55C138.797 146.493 140.157 144.465 142.128 143.923C140.8 142.308 139.75 144.436 137.974 144.167C140.148 141.557 136.661 142.757 136.554 141.302C138.183 140.382 140.152 140.159 141.711 138.901C140.583 137.987 139.127 138.388 138.171 137.246C144.928 137.512 138.863 140.845 150.343 134.578C150.941 134.252 150.695 133.899 150.258 133.609C151.803 133.631 153.256 132.792 154.833 133.117C154.155 133.901 152.796 133.708 152.295 134.841C153.491 135.062 154.317 134.218 155.32 133.982C155.765 133.878 156.093 133.564 155.789 133.018C157.335 132.627 158.888 132.329 160.49 132.617C158.278 133.796 155.993 134.783 153.584 135.494C153.107 135.632 152.718 136.055 152.29 136.351C149.988 136.454 148.014 137.703 145.822 138.195C145.205 138.334 145.264 138.99 145.126 139.473C142.604 139.152 140.564 140.489 138.266 141.245C139.603 143.035 144.465 141.357 145.383 140.151C145.451 140.061 145.173 139.71 145.086 139.477C147.974 139.511 150.316 138.332 152.272 136.272C152.504 136.9 153.369 136.085 153.552 136.836C152.674 137.72 151.152 137.81 150.517 139.084C152.221 140.131 153.666 137.496 155.007 137.853C157.497 138.517 159.445 136.992 161.654 136.603C164.052 136.175 165.21 134.623 166.192 132.302C164.298 132.453 162.655 132.578 161.011 132.707C164.094 130.471 167.122 133.051 169.285 127.963C165.899 127.621 159.556 130.644 154.155 131.536C153.191 131.694 152.261 132.04 151.318 132.304C150.713 132.475 150.077 132.61 149.977 133.399C149.364 133.469 148.751 133.601 148.14 133.599C147.239 133.596 147.986 134.892 147.194 134.801C145.042 134.56 143.202 135.632 141.218 136.09C140.875 136.171 140.518 136.14 140.516 135.531C141.539 135.226 142.731 135.195 143.669 134.272C140.743 132.687 137.334 132.564 134.793 130.455C142.222 132.59 141.371 134.284 148.237 130.083C145.117 129.205 142.286 127.836 139.317 126.789C147.962 128.184 143.008 129.794 150.98 126.488C147 124.903 143.067 124.437 139.895 122.126C143.482 123.431 147.116 124.571 150.799 125.555C151.508 125.747 152.609 126.119 152.747 125.519C153.125 123.835 154.344 124.218 155.356 124.141C156.33 124.064 157.003 123.518 157.718 122.985C157.98 121.841 159.513 123.088 159.786 121.809C158.63 121.441 157.965 121.837 157.711 122.995C155.403 120.059 151.712 123.469 149.322 123.372C150.164 122.383 151.627 122.516 152.577 121.277C149.354 120.103 146.155 119.244 143.016 117.651C145.985 116.888 153.122 123.713 158.425 118.645C156.953 117.837 155.681 119.04 154.378 118.628L154.391 118.695C154.322 118.105 156.053 117.965 154.796 117.077C157.488 117.551 159.631 116.414 161.65 114.796C160.178 114.669 158.685 115.324 157.321 114.415C157.696 112.908 154.718 113.507 153.715 111.982C156.721 112.459 159.661 114.263 162.352 111.543C160.475 110.109 158.806 112.362 156.903 111.708C157.176 110.94 158.365 111.373 158.459 110.417C157.488 109.324 156.14 110.067 155.64 108.599C159.879 109.745 162.142 111.185 164.446 107.383C162.555 106.672 161.066 108.506 159.018 108.113C160.073 107.236 158.956 106.499 158.965 105.489C162.048 107.102 164.63 106.084 167.517 104.217C165.26 103.801 163.374 104.772 161.587 103.95L161.599 104.024C161.744 103.447 162.29 102.983 162.093 102.307C162.744 103.446 164.707 103.149 163.609 102.134C166.26 102.679 168.498 101.733 171.008 100.237C168.154 99.6174 165.891 100.398 163.636 101.091C162.67 101.387 163.312 101.804 163.712 102.128C163.23 102.589 162.565 101.869 162.094 102.383C161.74 102.027 161.386 101.674 161.086 101.371C161.992 100.764 163.116 100.657 163.817 99.6042C164.534 98.5272 166.131 99.8172 167.138 98.5834C164.126 97.7718 161.41 96.5394 158.253 95.0306C161.937 95.3445 164.709 98.27 168.154 96.545C167.371 96.3572 166.205 96.394 165.987 95.7287C165.44 94.0802 164.745 94.2828 159.355 92.1555C163.918 92.6656 168.056 94.9931 172.743 94.6546C171.982 93.9759 171.015 93.8717 170.095 93.7708C167.451 93.4824 169.075 92.082 166.084 91.5309C165.392 91.4028 164.758 91.2052 164.142 90.3724C166.428 90.9047 168.473 91.378 170.52 91.8542C162.846 86.2824 143.433 80.4169 127.022 61.2294C125.918 59.9384 124.678 58.7626 123.432 57.6038C122.649 56.8739 121.035 56.8413 120.501 57.5439C119.795 58.4766 120.551 58.6652 123.668 62.4042C125.856 65.0271 122.639 63.717 125.973 66.465C130.667 70.3369 135.334 74.2519 140.183 77.9156C145.961 82.2775 152.103 86.1189 158.425 89.6579L158.4 89.5936C157.695 90.7984 143.028 80.7944 140.6 79.0308C139.369 78.1404 138.151 77.2404 136.941 76.3189C135.802 75.4566 134.6 74.6551 133.588 73.6592C132.558 72.6455 131.381 71.8501 130.275 70.9484C129.164 70.0486 128.002 69.2115 126.945 68.2526C125.82 67.2366 124.966 65.7978 123.685 65.1229C122.169 64.3208 123.686 62.7398 122.429 61.9874C120.819 61.0291 119.959 57.9569 117.342 58.0801C116.407 58.1216 115.796 57.3874 115.414 56.4737C114.614 54.5714 113.182 53.1724 111.622 51.7775C110.984 53.2196 111.626 54.1068 112.382 55.0693C113.386 56.3524 114.975 57.2825 115.059 59.1684L115.102 59.1601C114.031 58.1125 112.962 57.0568 111.881 55.9936C111.319 56.8104 112.335 57.4896 111.645 58.2385C109.845 56.9824 111.736 53.85 109.119 52.9741C108.124 56.0856 108.38 56.9337 110.113 59.2277C120.706 73.2547 139.337 84.4634 147.606 90.3869C143.686 87.5515 130.063 80.7158 114.48 65.5767C112.914 64.0552 110.944 62.8045 110.225 60.5148C110.119 60.1801 109.733 59.7062 109.171 59.9734C108.243 60.4176 108.106 59.7396 107.944 59.116C107.857 58.773 107.809 58.4164 107.759 58.0615C107.676 57.4978 107.439 56.8781 106.864 56.9198C106.152 56.968 105.944 57.638 105.906 58.3217C105.807 59.988 106.038 61.4845 107.454 62.6547C108.23 63.2946 109.167 63.9689 108.977 65.2393L109.057 65.2319C108.198 64.3617 107.339 63.4928 106.554 62.7001C105.781 62.7459 106.246 63.8209 105.27 63.6756C104.956 62.4263 105.485 60.8182 104.145 59.8026C103.514 60.0812 102.771 60.3164 102.677 61.133C102.553 62.2009 102.602 63.2822 103.334 64.1765C107.921 69.7612 108.258 69.533 107.635 70.4353L107.643 70.4339C106.536 68.5577 105.089 67.0063 103.396 65.6939C102.346 66.6071 103.75 67.6314 103.003 68.6394C102.422 68.1028 102.332 67.5331 102.257 66.9313C102.064 65.3446 101.798 63.7634 101.65 62.1745C101.586 61.4749 101.308 61.2387 100.662 61.2785C100.144 61.3101 99.4551 61.1757 99.4997 61.9611C99.6167 63.9828 99.2844 66.1829 100.418 67.9311C105.046 75.077 113.437 79.744 113.037 82.2829L113.047 82.276C113.014 81.6487 112.543 81.2992 112.091 81.0768C109.89 79.9833 109.306 79.0706 100.579 69.7055C99.8694 70.4228 100.58 71.4832 99.6618 72.4121C99.3026 69.2039 98.534 66.3857 98.6232 63.4405C98.6553 62.3922 98.8331 60.9355 98.114 60.3874C96.5108 59.1738 96.6556 57.4497 96.1716 55.8947C95.5044 53.7519 95.7645 51.336 94.3952 49.3364C91.5031 51.5587 92.4711 53.3147 93.5787 56.9358C93.7609 57.5296 94.0005 58.5791 94.2774 58.5993C96.5952 58.7845 95.7657 60.4871 95.8515 61.6877C96.1508 65.9242 96.61 70.1092 99.0002 73.8019C99.1412 74.0239 99.0483 74.1533 98.794 74.1016C97.6631 73.638 97.5595 72.0392 96.1413 71.5545C96.3465 73.3946 95.6432 75.1622 96.893 76.8003C100.146 81.0613 103.522 85.2028 107.679 88.6366C108.217 89.0841 108.939 89.406 108.743 90.3122L108.804 90.3093C107.663 89.779 106.683 89.081 105.82 88.1217C103.985 86.0781 98.7197 80.934 98.4197 80.106C97.7328 78.2038 95.3152 77.7299 95.0279 75.5118C94.9409 74.8533 93.8453 74.6554 92.9625 74.8928C92.8166 77.3829 93.0598 79.6148 94.9557 81.3607C95.2632 81.6423 95.6261 81.9781 95.4797 82.5001L95.5619 82.4782C92.2107 80.0214 92.1466 80.0397 91.36 76.978C91.0326 75.6895 90.3977 75.0179 89.0752 74.9186C88.5916 78.0151 88.7441 80.8798 91.3816 83.1269C91.8327 83.5127 92.46 84.1068 92.2961 84.942L92.385 84.9294C91.5704 84.3615 90.9407 83.6194 90.3667 82.8197C90.1445 82.5118 89.8119 82.3917 89.431 82.5072C89.0248 82.6301 88.9474 82.9402 88.9608 83.3276C89.0239 84.9196 88.9713 86.4783 90.4043 87.7005C90.9302 88.1487 91.6062 88.7845 91.6461 89.674L91.7411 89.648C90.7953 89.2585 90.4238 88.223 89.6239 87.6933C88.9171 88.0869 89.7347 88.9362 89.0694 89.3152C88.5793 88.1825 88.0465 85.099 88.0981 84.2674C88.2526 81.7902 87.5475 79.5459 86.1015 76.9151C86.0671 78.8437 85.8262 80.2153 86.0606 81.4991C86.6833 84.8897 85.5288 88.7234 88.6097 91.5324C87.5885 91.8422 87.5034 90.5635 86.7122 90.6827C85.9865 91.1458 87.0961 92.1702 86.1041 92.7359C85.5071 90.8505 85.9835 88.7816 84.4656 87.3456C84.3826 87.2683 84.4066 86.9199 84.499 86.8422C85.8532 85.7532 85.101 84.3171 84.9788 83.1071C84.5168 78.5445 83.1599 72.9841 83.9136 72.417C84.4573 73.1417 84.1545 74.1719 85.1021 75.1998C85.2529 71.2486 83.9147 68.1201 82.797 64.7245C80.7996 66.8643 80.7035 66.9072 81.2023 68.948C81.8356 71.5441 81.8539 74.2638 82.8838 76.7889C83.2063 77.5809 83.0135 78.5659 83.1797 79.4352C83.3616 80.3845 83.6154 81.3355 83.9681 82.2335C84.4798 83.5368 82.4605 82.1621 82.7941 83.4451C83.0309 84.3595 82.7511 85.3963 82.7893 86.3776C82.891 88.9534 82.7166 91.6158 84.8531 93.6286C84.9233 93.6944 84.6769 94.0949 84.5775 94.3415L84.6129 94.3215C84.4212 93.6732 84.0675 93.2211 83.2734 93.2052C82.6075 94.4004 83.7309 95.7715 82.8082 97.4959C82.4951 94.5401 82.3928 92.0825 81.943 89.6924C81.4871 87.2613 80.9862 84.8035 79.9469 82.0845C79.5774 83.4502 79.8922 84.3054 79.9652 85.181C80.094 86.666 80.3995 88.1317 80.1011 89.6592C79.5884 92.3037 79.2292 94.972 81.4952 97.1409C81.6165 97.2545 81.4823 97.6391 81.4691 97.8999L81.5301 97.8983C81.258 97.436 80.9757 96.9941 80.3144 97.2364C80.0164 98.0995 80.6735 99.1106 80.0374 99.926C78.5734 98.5509 79.1103 96.2926 77.5477 94.9609C77.3252 95.5457 77.1709 95.9568 77.0167 96.3647L77.0911 96.3583C76.5027 95.3256 76.2225 94.1396 75.8519 93.0472C75.2868 91.3797 74.5147 89.5948 75.2194 87.7218C75.948 88.218 75.3152 89.3006 76.3082 89.9146C76.3524 88.5592 76.4086 87.3753 75.522 86.3535L75.5796 86.4292C76.0662 85.8931 75.8536 85.314 75.6367 84.7717C75.3454 84.0397 75.0179 84.6722 74.7024 84.786ZM170.161 102.179C169.803 101.99 169.454 102.101 169.148 102.277C168.894 102.427 168.359 102.523 168.728 103.002C168.984 103.335 169.346 103.234 169.676 103.027C170.019 102.811 170.085 102.465 170.138 102.106C171.147 103.038 172.116 102.045 173.099 102.008C174.446 101.958 174.93 101.061 174.799 99.6942C173.301 100.779 171.454 100.954 170.161 102.179ZM100.492 41.7653C100.294 42.459 99.1384 42.5748 99.3252 43.4046C99.7114 45.1253 99.6266 46.9712 100.589 48.5706C101.254 46.2701 99.745 44.0316 100.494 41.7584C101.518 43.1808 100.919 45.1434 101.938 46.7033C104.352 43.4765 104.368 42.0806 102.137 39.4448C101.239 39.9692 101.032 40.9843 100.492 41.7653ZM105.377 218.553C104.589 218.278 103.809 218.133 102.724 218.637C103.905 219.25 104.666 219.115 105.364 218.437C108.778 218.589 111.964 217.273 115.29 216.857C116.441 216.714 116.932 215.745 117.251 214.633C113.064 214.721 107.324 215.924 104.68 217.237C104.814 217.726 105.593 217.871 105.377 218.553ZM112.615 201.807C110.557 201.332 108.939 202.026 107.382 203.684C109.994 203.565 110.94 203.185 112.604 201.696C114.659 202.215 116.713 201.079 118.771 201.676C117.168 202.618 115.064 202.186 113.625 203.475C113.019 204.018 111.579 204.063 111.944 205.206C112.215 206.06 113.188 205.397 113.854 205.324C114.015 205.304 114.324 205.347 114.336 205.408C114.711 207.174 115.973 206.133 116.797 206.113C118.593 206.071 120.276 205.366 122.01 204.958C124.386 204.398 124.842 203.895 125.165 201.269C123.141 201.031 119.889 202.685 118.633 201.702C122.68 199.848 127.312 201.308 127.678 197.212C127.368 197.111 117.488 198.702 117.167 198.747C115.349 199.001 113.317 199.577 112.615 201.807ZM135.257 161.329C135.041 161.919 134.525 161.937 134.005 162.082C132.586 162.477 131.073 162.76 129.939 164.104C132.971 164.718 134.645 163.784 135.252 161.314C135.525 161.655 135.75 161.964 136.314 161.906C137.992 161.736 139.675 161.648 141.357 161.53C136.67 162.311 133.125 165.382 129.077 167.449C132.753 167.381 135.665 164.925 139.225 164.458C139.212 165.141 138.529 165.288 138.372 165.782C135.938 167.174 133.245 167.294 130.219 169.193C128.789 170.091 126.528 170.421 125.886 171.656C124.783 173.759 122.683 172.312 121.553 173.591C121.205 173.976 120.354 173.819 120.049 174.779C123.33 174.796 126.335 174.233 128.997 172.465C130.144 171.705 131.398 170.9 132.649 171.006C135.14 171.216 137.349 170.234 139.678 169.81C142.277 169.34 145.057 168.894 145.702 165.362C145.07 165.229 144.309 165.437 143.745 164.973C145.943 164.405 147.855 163.544 148.099 160.678C145.906 161.202 143.835 161.465 141.741 161.521C147.665 159.893 149.839 160.186 151.405 155.576C145.093 157.043 144.671 157.367 143.205 157.087C144.373 155.752 153.58 155.929 153.206 152.328C151.367 152.144 149.79 153.197 148.044 153.319C150.33 150.492 154.669 153.213 156.321 147.461C154.99 147.374 153.768 148.378 152.402 147.824C155.246 145.769 157.02 148.238 159.646 142.444C158.475 142.109 157.561 142.934 156.573 142.547C156.939 141.751 157.724 141.789 158.4 141.66C160.718 141.217 162.059 139.785 162.793 137.213C156.863 138.814 150.92 139.626 145.98 143.554C146.685 143.918 147.212 143.734 147.736 143.668C150.724 143.283 153.711 142.899 156.702 142.513C155.096 143.645 153.147 143.594 151.35 144.011C149.058 144.545 146.94 145.42 144.976 146.667C144.604 146.906 143.898 147.041 144.071 147.794C144.262 148.633 144.891 148.457 145.512 148.55C146.941 148.769 148.294 147.747 149.714 148.367C149.289 149.213 148.43 149.207 147.677 149.444C143.48 150.757 139.298 152.11 135.541 154.76C136.788 155.595 137.949 155.024 138.786 154.424C140.915 152.892 143.485 152.902 145.814 152.107C146.056 152.024 146.675 151.887 146.484 152.486C146.363 152.863 145.745 153.21 146.67 153.186C147.182 153.174 147.695 152.849 148.172 153.288C147.45 153.91 146.517 154.009 145.666 154.051C141.303 154.273 137.541 156.141 133.839 158.196C133.288 158.503 132.466 158.496 132.207 159.292C134.446 160.461 136.196 159.69 137.888 158.327C139.048 157.388 140.32 156.621 141.912 157.353C140.839 157.824 139.65 158.122 138.906 159.255C139.977 159.531 140.785 158.401 142.09 159.132C139.716 160.071 137.61 161.045 135.257 161.329ZM130.053 174.095C127.713 174.214 125.616 175.031 123.567 176.245C124.932 177.448 126.155 177.326 127.427 176.333C128.098 175.81 128.806 175.253 129.882 175.451C129.343 176.604 127.654 176.563 127.304 178.081C128.556 177.759 129.576 177.492 130.602 177.237C132.552 176.753 132.553 176.755 133.64 177.074C132.452 177.474 131.132 177.599 129.681 178.836C140.121 177.057 139.37 177.883 141.089 173.916C141.203 173.65 140.548 173.603 140.239 173.479C141.262 172.352 143.341 172.046 143.042 169.716C141.586 170.051 133.318 171.519 130.053 174.095ZM164.32 111.226C164.481 111.378 164.645 111.531 164.806 111.682C165.223 111.83 165.654 112.136 166.047 112.097C170.379 111.661 174.702 111.169 179.027 110.702C180.522 110.541 180.768 109.949 185.871 102.407C186.174 101.964 186.868 101.591 186.461 100.848C184.722 100.985 183.604 101.935 182.918 103.408C182.272 104.798 181.32 105.982 180.466 107.232C178.706 109.798 175.622 111.144 172.33 108.302C171.947 107.972 171.573 107.875 171.114 107.963C169.595 108.255 162.768 109.034 163.015 110.615C163.128 111.345 163.892 110.989 164.32 111.226ZM165.722 121.635C164.682 122.802 163.305 123.293 161.822 123.599C160.428 123.889 159.031 124.194 157.652 124.552C156.471 124.86 155.306 125.243 154.418 126.253C155.168 126.822 156.024 126.858 156.519 126.514C158.171 125.368 163.944 124.008 164.296 125.255C163.766 125.819 163.047 125.811 162.367 125.964C159.16 126.69 155.972 127.483 153.11 129.201C151.829 129.97 150.455 130.521 149.066 131.079C147.321 131.781 145.373 132.097 143.659 133.186C144.513 133.948 145.286 133.899 146.039 133.535C148.826 132.197 151.81 131.25 154.397 129.519C155.338 128.892 156.382 128.469 157.373 128.54C161.259 128.81 172.088 128.373 173.025 121.148C166.883 121.992 166.583 122.272 165.661 121.648C173.427 120.127 174.702 120.88 176.815 115.706C172.584 116.289 168.609 116.681 164.702 117.433C162.213 117.913 159.868 119.022 157.345 120.636C160.933 121.352 163.659 118.77 167.183 119.245C165.506 120.403 163.556 119.967 162.141 121.514C163.511 122.047 164.648 121.43 165.722 121.635ZM180.055 176.041C181.569 174.125 188.27 170.309 189.245 168.401C187.482 168.338 186.728 169.985 184.967 170.038C187.632 167.528 191.277 166.517 192.757 162.787C191.41 163.248 190.51 163.897 189.592 164.556C188.996 164.985 188.514 165.788 187.564 165.478L187.581 165.55C189.67 162.892 193.105 161.857 195.237 159.221C189.634 161.792 188.111 164.267 185.283 164.471C188.45 162.122 196.558 158.237 197.384 154.807C193.801 156.894 190.218 158.98 186.383 161.213C187.776 157.996 199.88 154.961 200.316 149.858C198.771 150.817 192.326 154.171 190.551 153.807C192.712 152.986 194.708 151.834 196.701 150.743C201.103 148.337 204.063 146.112 204.956 141.812C202.621 143.225 200.437 144.9 197.802 145.765L197.817 145.835C200.052 142.385 207.902 141.968 208.061 134.926C204.45 137.159 201.721 140.197 197.857 142.137C197.988 141.486 197.971 141.225 198.062 141.175C201.826 139.217 204.841 136.295 207.954 133.502C208.711 132.822 209.215 132.009 208.716 130.649C205.788 132.364 203.62 135.215 200.185 136.236C200.318 135.476 200.813 135.388 201.18 135.184C203.457 133.912 205.428 132.231 207.366 130.522C208.599 129.44 209.669 128.207 208.817 126.352C207.221 126.225 206.177 129.123 204.639 128.81L204.658 128.878C205.78 126.484 209.685 125.876 208.105 123.586C207.507 122.72 206.722 123.727 204.738 125.066C202.955 126.274 201.369 127.805 199.183 128.618C199.374 127.579 200.176 127.391 200.754 127.067C202.82 125.917 204.383 124.169 206.195 122.721C206.654 122.354 207 121.991 206.562 121.397C206.152 120.838 205.665 120.497 204.981 120.954C204.76 121.102 204.6 121.34 204.378 121.486C201.866 123.188 199.351 124.89 196.821 126.566C196.454 126.807 196.009 127.309 195.438 126.554C198.604 124.684 201.59 122.701 204.077 120.013C201.186 117.753 201.764 118.141 197.302 121.484C195.922 122.515 194.6 123.666 192.764 123.904C195.339 122.058 197.983 120.32 200.185 118.023C198.526 116.423 198.418 116.356 196.865 117.474C192.323 120.737 191.876 122.139 189.531 122.159C192.384 120.206 194.776 118.418 196.792 116.076C194.001 113.08 192.138 118.698 185.717 120.192C188.142 118.311 191.019 117.076 193.311 114.736C189.277 112.213 186.878 118.364 181.945 119.095C184.134 117.479 186.423 116.016 188.616 113.964C181.387 111.511 175.881 124.008 174.169 126.407C174.531 126.622 174.603 126.701 174.68 126.705C188.659 127.109 192.633 133.573 192.555 135.348C192.391 139.134 190.364 142.015 181.957 156.174C172.484 172.118 168.624 173.534 167.594 178.228C167.543 178.463 167.377 178.816 167.2 178.856C164.827 179.415 165.239 181.255 165.304 182.927C165.32 183.437 165.509 183.973 164.916 184.352C163.893 184.088 164.397 182.948 163.847 182.427C161.392 184.034 162.765 186.768 162.107 189.093C160.66 188.012 161.798 186.536 161.125 185.463C158.073 187.446 159.789 190.805 158.773 193.56C157.466 191.752 158.99 189.762 157.706 188.097C155.1 190.57 156.924 193.955 155.739 196.842C154.431 194.403 155.843 192.093 155.257 189.36C152.398 192.031 154.263 195.313 153.302 198.467C152.117 195.657 153.101 193.252 152.731 190.943C150.757 191.495 150.689 191.489 150.539 192.83C150.33 194.781 149.995 196.726 150.254 198.713C150.325 199.243 150.635 199.968 149.87 200.378C148.753 199.281 149.109 199.003 149.837 191.955C145.439 192.24 146.115 191.725 145.532 200.62C145.331 200.604 145.129 200.589 144.929 200.576C144.84 198.393 144.902 196.211 145.297 194.027C145.412 193.419 145.928 192.537 144.765 192.329C143.754 192.147 143.576 192.918 143.483 193.654C143.389 194.423 142.969 199.596 142.663 200.192C140.954 197.04 143.854 192.957 141.971 192.391C140.936 192.084 140.733 192.853 140.545 193.537C139.836 196.125 139.087 198.707 138.913 201.404C138.882 201.923 138.996 202.524 138.149 202.474C137.042 201.157 140.859 193.123 139.254 192.603C138.486 192.353 137.831 192.614 137.603 193.495C137.137 195.312 136.142 196.979 136.028 198.893C135.981 199.686 135.708 200.335 135.082 201.241C134.576 199.75 134.837 199.56 136.582 193.743C136.992 192.36 135.751 192.487 135.464 193.272C134.798 195.119 133.763 196.815 133.297 198.748C133.183 199.227 133.275 200.027 132.342 200.115C131.873 198.728 132.641 197.504 132.539 196.135C130.42 200.177 128.303 204.218 126.022 208.565C130.989 208.674 149.553 209.017 149.553 209.014C156.995 209.474 161.879 204.027 166.655 198.342C165.781 197.825 165.292 199.266 164.496 198.577L164.51 198.646C165.951 196.422 170.202 195.84 170.664 192.464C167.511 194.205 164.972 196.547 161.593 197.278L161.607 197.349C161.788 196.797 162.197 196.446 162.708 196.25C164.512 195.558 175.022 190.381 177.636 183.512C174.38 185.465 171.71 188.291 168.053 189.75C168.052 189.003 168.478 188.813 168.872 188.619C171.453 187.341 173.654 185.514 175.908 183.765C180.804 179.962 179.447 182.691 182.813 177.596C179.336 178.911 177.421 182.129 176.232 181.021L176.249 181.101C186.082 173.911 184.916 175.472 186.394 172.012C181.102 175.785 181.149 176.038 180.036 175.973L180.055 176.041ZM159.541 56.4123C161.824 56.7135 163.791 55.6011 166.073 55.0904C162.176 53.0033 164.529 54.1039 153.259 55.6287C152.761 55.6978 152.17 55.917 151.874 55.2154C154.824 54.6142 157.959 54.8792 160.874 53.4323C158.858 51.0112 155.631 54.0035 150.461 52.8715L150.473 52.9571C151.528 52.1316 152.778 52.1092 154.034 52.0567C155.116 52.013 156.154 51.787 157.095 51.2503C155.09 50.6504 153.136 50.9402 151.186 50.9325C149.342 50.9235 147.424 51.2816 145.528 50.278C146.212 49.7985 146.727 49.9873 147.24 50.0262C148.389 50.112 156.469 50.3107 156.122 49.1662C155.914 48.4643 155.04 48.4707 154.303 48.4983C151.449 48.6136 148.615 48.0204 145.755 48.2552C145.365 48.2885 144.828 48.2755 144.654 47.4681C146.07 47.3867 147.437 47.3304 148.837 47.413C150.52 47.5129 152.214 47.4833 153.904 47.4203C155.714 47.3515 155.086 45.3307 153.905 45.2933C152.302 45.2396 150.697 45.2223 149.095 45.1207C148.164 45.0659 147.131 45.3546 146.13 44.3309C153.349 44.4295 154.313 44.8237 154.363 43.6319C154.421 42.2355 153.024 43.027 152.264 42.8547C150.476 42.4494 148.577 43.0197 146.391 42.2465C147.805 41.7676 148.835 41.8963 149.849 41.89C151.1 41.8778 152.353 41.926 153.604 41.9493C154.909 41.976 155.193 39.46 153.408 39.734C150.645 40.1697 149.379 40.3992 148.384 39.4244C148.679 39.0533 148.94 38.9846 149.202 39.0634C150.738 39.5314 152.207 38.913 153.709 38.8131C155.164 38.7158 154.753 37.0417 153.602 37.1974C152.248 37.3814 150.508 37.4354 150.944 36.1439C151.626 36.1581 152.324 36.1937 153.019 36.1741C154.59 36.13 154.557 34.9763 153.236 34.6723C152.337 34.4685 151.345 34.4575 150.567 33.7268C151.635 32.9694 152.762 34.1594 153.705 33.4077C153.973 32.7482 153.801 32.1514 153.535 31.5733C148.127 19.7686 135.462 25.7151 133.453 25.3457C131.136 24.921 119.061 23.6704 115.324 23.7978C110.745 23.9484 113.591 27.0159 110.583 26.9235C109.958 25.9233 111.556 25.8889 111.203 25.0786C107.809 25.5568 104.161 29.7961 104.465 33.1184C105.279 41.9559 107.34 43.7457 104.764 46.554C103.86 47.5426 103.016 48.5857 102.159 49.6174C100.626 51.4776 99.0508 53.3119 98.3554 55.7046C98.1262 56.4918 97.8069 57.2997 98.4463 57.9834C99.0882 58.67 99.9713 58.27 100.72 58.1876C101.425 58.1057 102.03 57.6831 102.475 57.0572C103.197 56.0379 104.039 55.1144 104.544 53.9334C105.517 51.6545 106.838 49.5679 108.239 47.5287C112.389 41.4679 119.737 48.0937 118.79 52.0225C118.55 53.023 117.757 53.9429 118.188 55.0564C118.837 55.1941 119.223 54.7166 119.71 54.5655C120.675 54.2719 121.109 52.561 122.41 53.3919C132.042 59.5422 135.308 69.9498 162.241 83.7043C173.234 89.3217 180.468 92.8094 177.176 99.4988C176.234 101.406 175.402 103.368 174.541 105.316C174.141 106.226 173.675 107.226 174.737 107.969C175.709 108.648 176.818 108.521 177.781 107.908C179.559 106.78 180.988 105.144 181.359 103.165C182.018 99.6243 188.776 97.5577 190.98 96.9966C197.031 95.4565 200.024 87.4249 195.257 82.2602C194.296 81.2191 193.335 80.1573 192.39 79.0936C189.261 75.5668 186.336 72.031 187.107 66.7735C187.287 65.5441 186.871 64.0464 185.202 63.635C184.824 63.5443 184.613 63.4269 184.594 62.9611C184.533 61.657 183.677 61.4167 182.573 61.5653C179.89 61.9283 182.374 59.8525 180.14 60.5565C178.585 61.0548 176.832 62.2467 176.793 60.758C177.659 60.0002 179.707 60.6588 180.069 59.2394C179.116 58.6415 178.203 57.8511 176.965 57.9631C176.196 58.0334 175.837 57.6363 175.266 57.2742C174.14 56.5647 172.488 57.0234 171.464 56.6029C170.177 56.076 168.976 55.3917 167.55 55.2669C167.087 55.2269 166.695 55.4403 166.27 55.5715C164.651 56.0771 163.011 56.5035 161.375 56.9641C160.645 57.168 159.953 57.2611 159.541 56.4091L159.541 56.4123ZM136.177 189.718C139.621 190.294 145.744 189.891 148.255 189.361C149.127 189.176 149.947 188.853 150.785 188.536C157.667 185.95 161.668 178.645 165.183 174.164C168.22 170.286 193.524 136.039 189.153 132.391C183.856 127.98 173.328 126.526 171.658 129.922C170.468 132.348 168.712 134.404 167.293 136.68C166.699 137.629 139.669 180.544 136.177 189.718ZM69.598 111.11C68.9231 104.221 69.1655 103.588 67.1484 94.441C66.557 91.7542 66.8491 88.8473 65.3703 86.0522C60.1026 92.3156 64.3577 91.2153 64.9368 101.127C64.9571 101.481 64.9094 102.011 65.5943 102.195C66.2875 100.632 64.9218 98.6742 66.691 96.908C65.7553 107.379 67.1403 109.384 69.598 111.11ZM26.8709 164.36C27.4793 162.964 26.9767 161.94 26.6197 160.961C25.7865 158.687 25.2111 156.33 24.275 154.077C22.8314 150.606 22.485 142.384 20.8687 142.291C20.0623 142.247 19.8015 143.141 19.3316 143.641C18.6803 144.34 19.0054 145.156 19.1641 145.933C19.6682 148.434 20.6273 150.806 21.2973 153.249C22.3998 157.259 24.049 160.917 26.8709 164.36ZM57.7379 95.7085C55.5349 97.3396 54.1288 98.9919 54.7952 101.852C57.8911 115.136 57.2776 116.261 58.4327 117.394C58.921 114.064 57.9138 109.92 58.6398 107.54C59.2999 105.38 58.2863 104.383 58.5273 103.13C58.9977 100.699 58.5091 98.3902 57.7379 95.7085ZM74.6865 82.2097C75.6019 81.885 75.8992 80.9859 75.9107 81.3266C75.9748 82.917 77.3072 84.0139 77.1384 85.7684C76.8869 88.3887 77.738 90.9638 78.6518 93.4531C79.4987 86.2866 78.3628 79.3514 76.7205 72.3143C72.8669 75.2005 74.3151 77.578 74.6865 82.2097ZM115.344 192.927C116.965 193.21 117.804 192.868 118.672 192.7C120.073 192.429 121.38 192.442 122.876 192.73C124.659 193.069 126.669 192.022 128.609 191.796C131.141 191.495 132.374 189.986 133.202 187.489C120.577 190.918 128.46 186.173 115.344 192.927ZM95.1694 73.9913C95.5737 67.5575 93.561 56.8987 91.3109 53.3475C90.6381 54.2851 89.4597 54.9684 89.7441 56.3092C90.1807 58.3719 90.199 60.5233 90.9406 62.5301C91.8855 62.4005 91.1321 61.2704 92.0044 61.0953C92.7716 63.0617 92.5676 65.1556 92.787 67.1998C93.0346 69.5257 92.888 72.043 95.1694 73.9913ZM127.216 183.607C129.796 183.578 132.063 182.746 134.398 182.366C136.806 181.974 138.149 180.588 138.639 178.047C135.046 178.711 131.521 179.265 128.049 180.044C126.473 180.396 125.162 181.413 123.81 182.935C125.726 183.004 126.927 182.118 128.263 181.737C128.505 181.672 128.767 181.577 128.903 181.925C128.603 182.623 127.546 182.406 127.216 183.607ZM122.925 205.584C118.393 207.131 112.543 207.198 110.42 208.045C110.04 208.193 109.888 208.59 110.328 208.812C110.998 209.154 110.932 209.155 110.413 209.77C109.694 210.626 108.488 210.179 107.563 211.089C111.869 211.048 115.703 210.316 119.546 209.549C121.682 209.125 122.507 207.917 122.925 205.584ZM179.304 111.86C171.489 112.121 166.41 113.29 161.422 116.811C164.339 116.553 166.918 115.928 169.456 115.113C170.144 114.892 171.138 114.383 171.487 114.739C172.828 116.093 174.168 114.935 175.484 115.027C177.831 115.196 178.655 113.773 179.304 111.86ZM135.64 183.24C134.715 182.869 126.595 184.733 124.303 185.242C123.364 185.448 122.44 185.84 121.823 186.774C122.804 187.11 123.617 185.946 124.46 186.791C123.996 187.539 122.771 187.224 122.316 188.411C133.315 187.805 135.017 185.795 135.64 183.24ZM27.2692 133.918C22.0255 138.801 26.8194 143.26 28.2129 148.169C28.4446 148.986 28.2038 150.134 29.4914 150.718C29.3542 147.448 27.8985 144.429 29.0671 141.317C29.1236 141.162 27.3132 134.076 27.2692 133.918ZM116.604 196.254C118.817 196.856 120.561 197.977 122.672 197.227C128.98 194.986 129.214 197.025 130.026 192.39C125.683 193.982 120.729 192.862 116.604 196.254ZM79.1239 79.8532C80.4403 79.1304 79.2075 77.6508 80.469 77.2221C81.1171 78.8604 80.5961 80.7367 81.6154 82.2946C82.4554 77.4941 80.998 72.9816 80.2039 68.1917C77.9282 69.9812 77.6121 70.2473 77.7875 71.5144C78.1563 74.2397 78.353 77.0011 79.1239 79.8532ZM120.06 210.651C119.86 210.591 119.694 210.491 119.541 210.507C116.283 210.874 113.099 211.806 109.788 211.801C109.365 211.8 108.886 211.869 108.769 212.439C108.543 213.561 107.362 213.961 106.86 214.901C108.771 215.01 116.885 213.717 118.339 213.041C119.343 212.576 120.156 211.933 120.06 210.651ZM91.5832 74.5701C92.4602 71.4812 90.2958 60.9551 88.3941 57.5575C86.2287 59.1778 86.802 60.0711 88.1633 66.2275C88.2829 66.7742 88.1581 67.541 89.0464 67.6433C89.3878 66.5854 88.3808 65.3886 89.5353 64.2151C90.3762 67.5827 90.3315 70.9198 91.5832 74.5701ZM98.6611 44.3008C95.0671 47.2559 94.6547 50.2438 97.2165 54.227C97.8123 52.986 98.4066 51.8104 99.2144 50.7603C99.5546 50.3186 99.6352 49.8325 99.5276 49.2645C99.2279 47.7121 98.9795 46.1545 98.6611 44.3008ZM23.8465 138.464C20.5195 140.469 22.635 142.147 24.769 152.143C24.8471 152.516 24.892 153.067 25.4963 153.031C25.3733 151.342 25.3182 149.657 25.1101 147.988C24.9839 146.966 25.9291 146.229 25.6231 145.176C24.9948 142.992 24.4536 140.783 23.8465 138.464ZM20.592 155.472C20.0986 152.071 19.0341 148.873 18.0734 145.411C16.396 146.854 16.0597 148.3 16.545 150.121C17.1668 152.451 17.6323 154.807 20.592 155.472ZM85.8626 61.039C84.5874 61.6274 83.9279 62.5757 84.1109 63.6409C84.6027 66.4556 84.903 69.3522 86.5134 71.9359C86.7292 70.2272 86.313 68.4418 87.3719 66.9182C87.4857 66.755 87.3557 66.3958 87.2909 66.1432C86.8909 64.5067 86.7717 62.7937 85.8626 61.039ZM115.181 54.1472C116.273 50.9269 115.993 49.6015 114.212 48.2727C113.366 47.643 112.724 48.0498 112.077 48.5471C111.48 49 111.367 49.6134 111.865 50.1546C112.976 51.3664 113.53 53.0525 115.181 54.1472ZM99.4749 201.524C103.332 204.117 106.361 203.875 108.809 200.954C105.62 199.531 102.704 202.668 99.4749 201.524ZM110.935 197.689C107.787 195.613 106.577 195.665 103.637 197.945C106.129 199.66 108.538 199.647 110.935 197.689ZM115.815 179.641C118.943 180.72 121.597 179.65 124.476 177.937C120.958 176.454 118.483 178.633 115.815 179.641ZM105.489 219.504C109.552 221.231 112.616 220.776 114.103 217.919C111.094 218.554 108.318 219.191 105.489 219.504ZM123.525 166.799C126.216 168.348 128.056 166.572 130.498 165.46C127.446 163.885 125.61 165.944 123.525 166.799ZM110.391 191.492C112.691 193.408 114.044 193.173 117.125 190.488C114.53 189.203 112.697 190.977 110.391 191.492ZM99.6132 206.453C103.02 208.106 104.205 207.921 106.801 205.446C104.301 204.871 102.04 205.295 99.6132 206.453ZM97.0364 214.519C99.9248 216.421 101.949 214.954 104.391 213.847C101.629 212.186 99.6416 213.981 97.0364 214.519ZM109.061 195.384C112.389 197.513 113.838 197.28 116.093 194.612C113.775 194.126 111.715 195.028 109.061 195.384ZM153.42 128.008C151.369 127.644 149.294 127.192 147.548 128.809C149.797 130.509 151.559 128.875 153.42 128.008ZM131.377 152.914C133.043 154.499 133.721 154.833 137.242 152.288C135.369 153.286 133.222 151.34 131.377 152.914ZM120.144 181.294C122.018 182.169 123.506 181.995 124.724 180.848C124.928 180.657 125.073 180.413 124.897 180.179C124.758 180.002 124.46 179.784 124.287 179.822C122.886 180.141 121.448 180.396 120.144 181.294ZM171.782 106.755C172.166 106.045 172.432 105.336 172.122 104.414C170.6 104.382 169.126 104.512 167.462 105.526C170.335 105.587 170.335 105.587 171.782 106.755ZM106.076 207.608C107.972 207.994 109.516 207.111 111.453 206.326C109.007 205.254 107.682 206.943 106.076 207.608ZM145.342 144.221C143.729 143.9 142.527 144.702 141.358 145.595C142.898 145.796 144.235 145.364 145.342 144.221ZM102.507 209.657C100.861 209.265 99.2233 209.146 97.3213 210.289C99.4272 210.986 100.942 210.169 102.507 209.657ZM169.118 97.8037C170.626 98.057 172.052 98.0192 173.343 96.5665C171.661 96.6695 170.291 96.8916 169.118 97.8037ZM171.89 99.103C173.43 99.5162 174.439 98.5987 175.59 98.3211C176.073 98.2081 175.81 96.9709 175.192 97.419C174.228 98.1148 172.739 97.6998 171.89 99.103ZM107.083 212.259C106.099 212.237 104.974 211.212 103.991 212.616C105.188 212.843 106.192 213.31 107.083 212.259ZM112.914 199.481C112.92 199.367 112.948 199.275 112.92 199.193C112.909 199.152 112.797 199.101 112.752 199.116C111.861 199.442 110.662 199.063 109.87 200.339C111.283 200.735 112.08 200.023 112.914 199.481ZM183.598 113.269C182.04 112.902 181.759 113.635 181.708 114.915C182.594 114.602 183.105 114.134 183.598 113.269ZM132.91 157.35C131.74 157.425 130.523 157.509 129.64 158.469C130.929 158.753 131.918 158.098 132.91 157.35ZM43.511 141.183C42.9666 142.505 43.1731 143.553 44.8522 144.353C44.2964 143.04 43.902 142.109 43.511 141.183ZM51.2297 112.775C50.6447 114.187 50.983 114.993 51.8967 116.125C52.0874 114.739 51.8921 113.9 51.2297 112.775ZM117.015 189.757C118.505 190.301 119.284 189.987 119.839 188.82C118.804 188.705 118.026 188.99 117.015 189.757ZM60.7779 112.038C60.7784 113.214 60.6498 114.009 61.5148 114.636C61.7473 113.724 61.6591 113.012 60.7779 112.038ZM119.032 185.897C120.297 186.249 120.945 186.032 121.687 185.367C120.698 184.902 120.108 185.429 119.032 185.897ZM41.1487 142.116C41.3744 143.351 41.4478 144.158 42.3116 144.833C42.3973 143.766 42.2575 143.038 41.1487 142.116ZM145.438 142.101C144.326 142.222 143.504 141.905 142.922 143.054C143.951 143.233 144.615 143.083 145.438 142.101ZM87.736 68.3007C87.0098 68.9251 87.2862 69.5234 87.8059 70.2985C88.3047 69.523 87.9913 68.9237 87.736 68.3007Z" fill="white"/>
<path fill-rule="evenodd" clip-rule="evenodd" d="M138.372 165.782C140.272 166.196 141.886 164.757 143.75 164.952C142.078 166.096 138.857 166.812 137.34 166.374C137.685 166.175 138.028 165.98 138.372 165.782Z" fill="white"/>
<path fill-rule="evenodd" clip-rule="evenodd" d="M32.2911 145.796C32.2311 144.827 32.222 143.85 32.0941 142.892C31.9938 142.156 31.983 141.49 32.5153 140.91C32.9926 142.625 32.9965 144.382 32.9967 146.141C32.7596 146.025 32.5255 145.911 32.2911 145.796Z" fill="white"/>
<path fill-rule="evenodd" clip-rule="evenodd" d="M164.321 111.226C165.533 110.38 166.827 109.766 168.955 109.569C167.39 110.817 165.996 111.056 164.806 111.683C164.646 111.531 164.481 111.378 164.321 111.226Z" fill="white"/>
<path fill-rule="evenodd" clip-rule="evenodd" d="M75.5258 86.3514C75.6583 86.8941 75.5565 87.3972 75.2488 87.86C74.8259 86.8729 74.1736 85.9184 74.7739 84.7715L74.7034 84.7863C75.2839 85.1785 75.1735 85.9424 75.5829 86.4278L75.5258 86.3514Z" fill="white"/>
<path fill-rule="evenodd" clip-rule="evenodd" d="M54.3363 120.957C54.4394 121.526 53.8167 121.952 53.6889 121.418C53.5477 120.826 53.3281 120.232 53.7119 119.647C53.9216 120.11 54.1354 120.575 54.3479 121.04C54.3462 121.041 54.3363 120.957 54.3363 120.957Z" fill="white"/>
<path fill-rule="evenodd" clip-rule="evenodd" d="M46.1641 112.578C47.5728 114.158 47.2761 116.261 47.8426 118.097C48.1196 118.998 47.887 120.043 48.891 120.703C49.4755 121.088 49.1915 121.848 49.235 122.458C49.4372 125.3 49.4557 128.158 50.1846 130.947C50.4634 132.011 50.7768 133.003 51.6488 133.728C51.2174 134.266 50.5367 134.128 49.4547 134.209C54.3062 139.94 58.7314 145.445 64.2756 149.936C60.1193 147.389 56.7262 144.046 53.8477 140.161C52.2884 138.057 52.3069 138.044 50.1195 136.914C49.621 137.868 50.5227 139.032 49.5344 140.103C49.3619 139.125 49.0972 138.295 49.1048 137.467C49.1132 136.729 48.9626 136.037 48.7805 135.362C48.5979 134.687 48.2181 134.059 47.8719 133.441C47.2873 132.384 48.9464 132.793 48.8147 131.874C48.5729 130.196 48.7858 128.439 48.406 126.808C48.232 126.067 45.8043 113.187 46.1641 112.578Z" fill="white"/>
<path fill-rule="evenodd" clip-rule="evenodd" d="M43.824 119.588C44.2823 119.814 44.4014 120.275 44.4788 120.695C45.16 124.418 46.335 128.028 46.6537 131.846C46.8349 133.999 47.7424 136.089 48.3383 138.257C47.1979 138.359 47.6601 137.044 46.8981 136.929C46.2797 137.95 47.2693 139.739 48.1314 140.639C51.1607 143.79 53.6631 147.416 56.8498 150.442C58.0047 151.537 59.2837 152.486 60.4127 153.609C54.89 150.625 51.7195 145.16 47.1849 140.854C46.7093 142.74 47.5923 144.449 46.9708 146.13C46.0617 142.889 46.7328 139.227 44.0493 136.598C44.881 136.014 44.8361 137.013 45.5079 136.916C46.6727 132.18 44.3638 129.9 43.641 120.817C43.6045 120.368 43.5179 119.931 43.8986 119.575L43.824 119.588Z" fill="white"/>
<path fill-rule="evenodd" clip-rule="evenodd" d="M140.013 99.5107C139.342 100.54 121.293 89.4416 113.523 82.5355C113.391 82.4173 113.211 82.3546 113.05 82.2694C113.05 82.2694 113.04 82.2763 113.04 82.2776C114.836 82.488 115.519 83.9496 125.179 90.5346C129.971 93.8019 135.019 96.6648 140.033 99.5713L140.013 99.5107Z" fill="white"/>
<path fill-rule="evenodd" clip-rule="evenodd" d="M108.747 90.3067C109.86 90.681 130.425 105.572 131.015 106.162C130.066 105.546 112.841 94.8415 108.825 90.3061C108.807 90.3045 108.747 90.3067 108.747 90.3067Z" fill="white"/>
<path fill-rule="evenodd" clip-rule="evenodd" d="M133.014 87.8076C131.155 88.8725 110.823 72.5967 111.247 70.308L111.176 70.3068C117.574 77.2611 125.084 82.832 133.037 87.8496L133.014 87.8076Z" fill="white"/>
<path fill-rule="evenodd" clip-rule="evenodd" d="M77.0191 96.362C77.321 99.3828 78.8148 101.806 80.8603 103.988C79.3795 103.573 79.0653 101.882 77.745 101.346C77.0799 101.823 77.7164 102.701 76.8331 103.708C76.9851 100.933 75.8299 98.6585 77.0937 96.3568L77.0191 96.362Z" fill="white"/>
<path fill-rule="evenodd" clip-rule="evenodd" d="M133.038 87.8512C137.382 90.4026 141.726 92.9548 146.075 95.5114C141.56 93.2234 136.761 91.3982 133.023 87.8195C133.014 87.8079 133.038 87.8512 133.038 87.8512Z" fill="white"/>
<path fill-rule="evenodd" clip-rule="evenodd" d="M99.6707 99.1234C92.8686 91.9924 91.9982 91.3279 91.7482 89.6429C91.7455 89.642 91.6504 89.668 91.6472 89.6679C93.341 90.962 94.4516 92.7926 95.917 94.3061C97.0138 95.441 97.8414 96.8415 99.206 97.7175C99.7593 98.0736 99.7025 98.5912 99.6596 99.1188L99.6707 99.1234Z" fill="white"/>
<path fill-rule="evenodd" clip-rule="evenodd" d="M155.889 114.749C155.5 115.522 154.599 115.51 154.006 115.978C154.002 116.616 154.709 116.635 154.949 117.066C152.583 116.908 150.502 115.946 148.436 114.778C150.961 115.952 153.429 115.549 155.889 114.749Z" fill="white"/>
<path fill-rule="evenodd" clip-rule="evenodd" d="M133.317 149.729C130.582 147.971 127.883 148.425 125.068 146.197C127.763 147.497 131.158 147.126 133.306 149.741C133.305 149.751 133.317 149.729 133.317 149.729Z" fill="white"/>
<path fill-rule="evenodd" clip-rule="evenodd" d="M115.06 59.159C117.471 59.6302 119.119 63.3688 122.41 65.5839C119.417 64.081 117.213 61.6922 115.123 59.1531C115.103 59.1507 115.06 59.159 115.06 59.159Z" fill="white"/>
<path fill-rule="evenodd" clip-rule="evenodd" d="M68.3753 146.071C66.0781 144.764 63.93 143.284 62.2285 140.994C64.717 142.351 66.2195 144.596 68.3753 146.071Z" fill="white"/>
<path fill-rule="evenodd" clip-rule="evenodd" d="M157.496 95.6996C154.754 94.7217 152.269 93.2822 149.974 91.5013C152.568 92.7841 155.209 93.9812 157.504 95.7963L157.496 95.6996Z" fill="white"/>
<path fill-rule="evenodd" clip-rule="evenodd" d="M79.6869 110.924C78.0226 109.52 76.6105 107.887 75.1368 105.946C76.4584 106.448 77.6056 106.548 77.8027 108.159C77.9352 109.231 79.4651 109.685 79.6007 110.933L79.6869 110.924Z" fill="white"/>
<path fill-rule="evenodd" clip-rule="evenodd" d="M39.8017 154.15C42.0302 155.616 44.171 157.162 45.0978 159.84L45.1651 159.837C43.4073 157.939 41.6519 156.039 39.8757 154.141C39.8542 154.14 39.8017 154.15 39.8017 154.15Z" fill="white"/>
<path fill-rule="evenodd" clip-rule="evenodd" d="M85.5314 201.035C82.9683 200.378 80.782 198.992 78.658 197.487C81.0794 198.416 83.3807 199.58 85.5314 201.035Z" fill="white"/>
<path fill-rule="evenodd" clip-rule="evenodd" d="M92.3001 84.9384C93.9731 85.894 94.7726 87.6255 95.8943 89.0685C94.616 87.7835 93.2101 86.6085 92.3949 84.9267C92.3902 84.9255 92.3001 84.9384 92.3001 84.9384Z" fill="white"/>
<path fill-rule="evenodd" clip-rule="evenodd" d="M110.442 72.3847C111.525 73.5502 112.612 74.7145 113.695 75.8768C112.253 75.0631 111.008 74.0635 110.493 72.395L110.442 72.3847Z" fill="white"/>
<path fill-rule="evenodd" clip-rule="evenodd" d="M53.2134 153.877C52.1992 153.26 53.063 154.096 49.9195 150.828C51.7581 151.363 52.0025 153.139 53.2134 153.877Z" fill="white"/>
<path fill-rule="evenodd" clip-rule="evenodd" d="M112.547 69.2202C111.648 67.6644 110.087 66.6819 109.07 65.2217C109.059 65.2241 108.978 65.2311 108.969 65.2325C110.673 66.0908 112.231 67.0867 112.503 69.2254L112.547 69.2202Z" fill="white"/>
<path fill-rule="evenodd" clip-rule="evenodd" d="M132.794 140.434C131.399 140.66 130.303 139.819 129.073 139.362C130.426 139.259 131.652 139.62 132.794 140.434Z" fill="white"/>
<path fill-rule="evenodd" clip-rule="evenodd" d="M84.5789 94.3372C86.4081 94.4931 87.1308 95.9656 88.3492 97.4946C86.4595 96.7668 85.9557 95.0758 84.6336 94.3166C84.6144 94.3171 84.5789 94.3372 84.5789 94.3372Z" fill="white"/>
<path fill-rule="evenodd" clip-rule="evenodd" d="M79.6003 110.933C80.9108 111.563 81.6926 112.74 82.4886 113.905C81.4614 113.013 80.4375 112.113 79.695 110.924C79.6873 110.924 79.6003 110.933 79.6003 110.933Z" fill="white"/>
<path fill-rule="evenodd" clip-rule="evenodd" d="M95.4832 82.4963C96.5101 83.0692 97.1607 83.9737 97.8321 85.2475C96.5566 84.5052 95.7298 83.7645 95.5698 82.4775L95.4832 82.4963Z" fill="white"/>
<path fill-rule="evenodd" clip-rule="evenodd" d="M140.032 99.5711C141.334 100.083 142.429 100.904 143.462 101.818C142.147 101.309 140.873 100.731 140.016 99.5188C140.013 99.511 140.032 99.5711 140.032 99.5711Z" fill="white"/>
<path fill-rule="evenodd" clip-rule="evenodd" d="M132.331 134.984C133.42 135.447 134.172 135.417 134.722 135.893C134.957 136.316 133.952 136.703 132.331 134.984Z" fill="white"/>
<path fill-rule="evenodd" clip-rule="evenodd" d="M161.585 103.944C160.936 104.955 160.035 104.817 158.572 104.57C159.833 103.822 160.642 103.53 161.597 104.017L161.585 103.944Z" fill="white"/>
<path fill-rule="evenodd" clip-rule="evenodd" d="M56.9537 157.036C56.0241 156.616 55.4245 156.198 55.0293 155.509C55.6 155.963 56.1717 156.415 56.9537 157.036Z" fill="white"/>
<path fill-rule="evenodd" clip-rule="evenodd" d="M45.0983 159.84C46.3334 160.607 47.9691 160.943 48.2395 162.753L48.2973 162.759C47.4784 161.553 46.1316 160.91 45.1796 159.836C45.1661 159.836 45.0983 159.84 45.0983 159.84Z" fill="white"/>
<path fill-rule="evenodd" clip-rule="evenodd" d="M133.241 107.001C133.991 107.538 134.738 108.074 135.485 108.609C135.451 108.673 135.416 108.736 135.381 108.798C134.644 108.269 133.909 107.741 133.172 107.215C133.194 107.146 133.219 107.074 133.241 107.001Z" fill="white"/>
<path fill-rule="evenodd" clip-rule="evenodd" d="M88.8933 202.784C87.4355 202.76 86.5362 201.65 85.4057 200.996C86.8462 201.048 87.7365 202.174 88.8933 202.784Z" fill="white"/>
<path fill-rule="evenodd" clip-rule="evenodd" d="M148.876 110.363C149.615 110.591 150.355 110.816 151.367 111.127C150.24 111.572 149.564 111.219 148.876 110.363Z" fill="white"/>
<path fill-rule="evenodd" clip-rule="evenodd" d="M150.151 106.878C151.363 107.101 152.286 107.055 152.916 107.993C152.062 107.789 151.289 107.646 150.151 106.878Z" fill="white"/>
<path fill-rule="evenodd" clip-rule="evenodd" d="M154.377 118.622C153.763 119.602 152.83 119.482 151.902 119.355C152.662 118.875 153.421 118.385 154.391 118.692L154.377 118.622Z" fill="white"/>
<path fill-rule="evenodd" clip-rule="evenodd" d="M109.863 178.045C108.931 178.417 108.18 177.974 107.289 177.485C108.398 177.13 109.125 177.667 109.87 178.143L109.863 178.045Z" fill="white"/>
<path fill-rule="evenodd" clip-rule="evenodd" d="M144.772 113.541C145.477 113.505 146.272 113.425 146.847 114.125C146.075 114.322 145.455 113.934 144.772 113.541Z" fill="white"/>
<path fill-rule="evenodd" clip-rule="evenodd" d="M148.47 104.201C149.231 104.449 149.725 104.907 150.492 105.696C149.626 105.05 148.928 104.883 148.47 104.201Z" fill="white"/>
<path fill-rule="evenodd" clip-rule="evenodd" d="M147.631 96.2964C148.168 96.6808 148.708 97.0681 149.065 97.3235C148.691 97.1315 148.118 96.8355 147.541 96.5356C147.569 96.4549 147.603 96.3764 147.631 96.2964Z" fill="white"/>
<path fill-rule="evenodd" clip-rule="evenodd" d="M76.3154 127.292C76.6759 127.551 77.0348 127.807 77.3944 128.064C77.3902 128.07 77.3851 128.074 77.3809 128.08C77.024 127.824 76.6644 127.567 76.3045 127.309C76.31 127.303 76.3137 127.297 76.3154 127.292Z" fill="white"/>
<path fill-rule="evenodd" clip-rule="evenodd" d="M158.426 89.6498C159.154 89.9319 159.944 90.113 160.491 90.8428C159.528 90.7961 159.093 89.9853 158.405 89.5952C158.4 89.585 158.426 89.6498 158.426 89.6498Z" fill="white"/>
<path fill-rule="evenodd" clip-rule="evenodd" d="M39.2059 167.382C39.9568 167.68 40.5205 168.221 41.4038 169.054C40.2046 168.661 39.6148 168.182 39.282 167.37C39.277 167.371 39.2059 167.382 39.2059 167.382Z" fill="white"/>
<path fill-rule="evenodd" clip-rule="evenodd" d="M44.0801 165.039C45.0348 165.156 45.5912 165.857 46.3854 166.619C45.219 166.425 44.6201 165.839 44.1695 165.025C44.1597 165.028 44.0801 165.039 44.0801 165.039Z" fill="white"/>
<path fill-rule="evenodd" clip-rule="evenodd" d="M67.0564 137.848C66.3607 137.885 66.058 137.331 65.6226 136.954C66.369 136.838 66.6928 137.351 67.0564 137.848Z" fill="white"/>
<path fill-rule="evenodd" clip-rule="evenodd" d="M112.503 69.2251C113.55 69.7096 114.833 69.9521 114.82 71.5074L114.861 71.5123C114.417 70.4391 113.273 70.059 112.565 69.22C112.547 69.2199 112.503 69.2251 112.503 69.2251Z" fill="white"/>
<path fill-rule="evenodd" clip-rule="evenodd" d="M48.2391 162.753C49.1488 163.06 49.9007 163.592 50.4801 164.377C49.5745 164.103 48.9371 163.448 48.3118 162.759C48.2974 162.758 48.2391 162.753 48.2391 162.753Z" fill="white"/>
<path fill-rule="evenodd" clip-rule="evenodd" d="M64.7929 128.394C65.7471 128.619 66.6191 128.983 67.2193 129.966C66.0825 129.854 65.6931 128.757 64.8164 128.4C64.7998 128.397 64.7929 128.394 64.7929 128.394Z" fill="white"/>
<path fill-rule="evenodd" clip-rule="evenodd" d="M59.0098 137.861C59.7007 138.356 60.3916 138.85 61.0833 139.346C60.1267 139.216 59.4451 138.747 59.0998 137.851C59.0928 137.852 59.0098 137.861 59.0098 137.861Z" fill="white"/>
<path fill-rule="evenodd" clip-rule="evenodd" d="M85.5893 117.34C86.0726 117.443 86.3773 117.751 86.5929 118.163C86.2606 117.888 85.7601 117.822 85.5893 117.34Z" fill="white"/>
<path fill-rule="evenodd" clip-rule="evenodd" d="M74.3894 137.193C74.0462 136.945 73.7036 136.702 73.362 136.457C73.7198 136.679 74.0812 136.9 74.4419 137.12C74.4235 137.145 74.4062 137.169 74.3894 137.193Z" fill="white"/>
<path fill-rule="evenodd" clip-rule="evenodd" d="M79.6989 123.824C80.3444 123.83 80.5164 124.213 80.7204 124.555C80.4162 124.337 80.1127 124.119 79.6989 123.824Z" fill="white"/>
<path fill-rule="evenodd" clip-rule="evenodd" d="M104.54 92.6655C104.686 93.3987 105.591 93.4769 105.848 94.1727C105.054 93.9562 104.592 93.5244 104.597 92.691C104.585 92.6883 104.54 92.6655 104.54 92.6655Z" fill="white"/>
<path fill-rule="evenodd" clip-rule="evenodd" d="M108.028 84.6902C107.66 84.3946 107.292 84.0991 106.751 83.6636C107.573 83.7658 107.809 84.2153 108.028 84.6902Z" fill="white"/>
<path fill-rule="evenodd" clip-rule="evenodd" d="M90.2581 106.82C90.9579 106.855 91.2822 107.368 91.708 107.843C91.0659 107.672 90.5766 107.392 90.2581 106.82Z" fill="white"/>
<path fill-rule="evenodd" clip-rule="evenodd" d="M111.246 70.3089C110.585 70.0913 110.073 69.6568 109.53 69.1417C110.458 69.0775 110.705 69.8329 111.165 70.3107C111.175 70.3077 111.246 70.3089 111.246 70.3089Z" fill="white"/>
<path fill-rule="evenodd" clip-rule="evenodd" d="M86.064 101.82C86.4201 102.295 86.7748 102.774 87.2637 103.428C86.4997 102.964 85.6467 102.817 86.124 101.805L86.064 101.82Z" fill="white"/>
<path fill-rule="evenodd" clip-rule="evenodd" d="M110.492 72.3949C109.347 72.0305 108.62 71.0632 107.654 70.4279C107.646 70.4254 107.637 70.4268 107.637 70.4268C108.927 70.5612 109.64 71.512 110.426 72.3819C110.441 72.3847 110.492 72.3949 110.492 72.3949Z" fill="white"/>
<path fill-rule="evenodd" clip-rule="evenodd" d="M83.5431 121.135C84.1732 121.48 84.0021 121.385 84.1693 121.711C83.6001 121.408 83.7715 121.532 83.5431 121.135Z" fill="white"/>
<path fill-rule="evenodd" clip-rule="evenodd" d="M81.4722 97.8953C82.3037 98.37 83.6334 98.4346 83.1707 99.9672C83.1771 99.9629 83.1935 99.9447 83.1935 99.9447C83.0708 98.9315 82.0273 98.6426 81.5505 97.8927C81.5327 97.8944 81.4722 97.8953 81.4722 97.8953Z" fill="white"/>
<path fill-rule="evenodd" clip-rule="evenodd" d="M95.655 104.674C95.2789 104.642 95.4122 104.802 94.7296 104.162C95.2157 104.125 95.227 104.268 95.655 104.674Z" fill="white"/>
<path fill-rule="evenodd" clip-rule="evenodd" d="M86.1234 101.805C84.7738 101.78 84.2666 100.449 83.2106 99.9429C83.1936 99.945 83.1779 99.9637 83.1708 99.9675C84.469 100.048 85.222 100.975 86.0442 101.821C86.0635 101.82 86.1234 101.805 86.1234 101.805Z" fill="white"/>
<path fill-rule="evenodd" clip-rule="evenodd" d="M67.6327 123.728C68.3857 123.808 68.8932 124.289 69.4316 124.845C68.4792 124.973 68.2408 124.135 67.7107 123.72C67.6934 123.721 67.6327 123.728 67.6327 123.728Z" fill="white"/>
<path fill-rule="evenodd" clip-rule="evenodd" d="M99.6607 99.1193C100.444 99.2517 101.137 99.5468 101.777 100.41C100.524 100.3 100.638 99.3476 99.6607 99.1193Z" fill="white"/>
<path fill-rule="evenodd" clip-rule="evenodd" d="M116.178 78.4356C115.699 78.4201 115.177 78.0557 115.266 77.7805C115.402 77.3705 115.981 78.0377 116.178 78.4356Z" fill="white"/>
<path fill-rule="evenodd" clip-rule="evenodd" d="M91.584 95.8141C91.4713 95.1837 90.5573 95.1095 90.5734 94.3212C91.1662 94.6701 91.9875 94.7963 91.5531 95.7908C91.5582 95.7944 91.584 95.8141 91.584 95.8141Z" fill="white"/>
<path fill-rule="evenodd" clip-rule="evenodd" d="M114.402 182.383C114.241 183.335 113.688 183.617 112.597 183.369C113.114 182.597 113.896 182.801 114.415 182.482C114.415 182.468 114.402 182.383 114.402 182.383Z" fill="white"/>
<path fill-rule="evenodd" clip-rule="evenodd" d="M94.3686 97.8112C94.3947 98.4449 95.1486 98.628 95.3384 99.2805C94.5831 98.9745 93.9285 98.7241 94.4116 97.81L94.3686 97.8112Z" fill="white"/>
<path fill-rule="evenodd" clip-rule="evenodd" d="M101.838 90.5923C101.523 90.1725 101.208 89.7527 100.531 88.8493C101.479 89.5522 102.264 89.6192 101.831 90.5875L101.838 90.5923Z" fill="white"/>
<path fill-rule="evenodd" clip-rule="evenodd" d="M70.0684 133.391C70.4801 133.45 70.8221 133.667 71.0437 134.065C70.558 134.105 70.3666 133.686 70.0684 133.391Z" fill="white"/>
<path fill-rule="evenodd" clip-rule="evenodd" d="M114.82 71.5076C115.506 71.7348 116.084 72.1262 116.67 72.6452C115.764 72.6852 115.486 71.8535 114.88 71.5139C114.862 71.5131 114.82 71.5076 114.82 71.5076Z" fill="white"/>
<path fill-rule="evenodd" clip-rule="evenodd" d="M73.4631 123.92C73.0378 123.808 72.6598 123.671 72.5344 123.191C72.9958 123.251 73.2684 123.516 73.4631 123.92Z" fill="white"/>
<path fill-rule="evenodd" clip-rule="evenodd" d="M76.1694 119.542C76.2342 119.705 76.3179 119.916 76.3956 120.126C75.991 119.956 75.479 119.765 75.6825 119.375C75.6922 119.355 75.9562 119.466 76.1694 119.542Z" fill="white"/>
<path fill-rule="evenodd" clip-rule="evenodd" d="M101.83 90.5884C102.873 91.0852 103.712 91.8478 104.525 92.6624C104.539 92.6664 104.586 92.6885 104.597 92.6911C103.686 91.9985 102.765 91.2971 101.84 90.5965C101.837 90.5924 101.83 90.5884 101.83 90.5884Z" fill="white"/>
<path fill-rule="evenodd" clip-rule="evenodd" d="M94.4107 97.8104C93.1603 97.5967 92.5624 96.4552 91.5963 95.8175C91.583 95.8145 91.5572 95.7949 91.552 95.7912C92.5889 96.3025 93.4655 97.0479 94.3503 97.8113C94.3683 97.8109 94.4107 97.8104 94.4107 97.8104Z" fill="white"/>
<path fill-rule="evenodd" clip-rule="evenodd" d="M129.213 143.711C128.388 144.064 128.028 143.348 127.198 142.983C128.354 142.674 128.749 143.302 129.216 143.781L129.213 143.711Z" fill="white"/>
<path fill-rule="evenodd" clip-rule="evenodd" d="M157.504 95.7967C158.368 95.3198 158.63 96.1502 159.035 96.6467C158.522 96.3318 158.008 96.0163 157.495 95.7007L157.504 95.7967Z" fill="white"/>
<path fill-rule="evenodd" clip-rule="evenodd" d="M172.439 87.5317C172.398 86.7669 172.976 86.6906 173.486 86.5603C174.343 86.3368 175.2 86.0385 176.073 85.9472C176.723 85.8784 177.334 84.7316 177.872 85.6139C178.105 85.9994 177.763 86.6878 178.65 86.7451C178.956 86.7651 178.952 87.2444 178.731 87.3337C177.812 87.7035 176.905 88.9305 175.873 87.5585C175.513 87.0823 175.125 87.3202 174.711 87.3084C173.938 87.2871 173.245 88.0616 172.439 87.5317Z" fill="white"/>
<path fill-rule="evenodd" clip-rule="evenodd" d="M124.055 39.8125C124.647 41.6038 123.853 41.3416 122.619 47.9317C122.312 49.5639 120.959 49.0562 121.385 47.7651C122.261 45.1086 123.162 42.4614 124.055 39.8125Z" fill="white"/>
<path fill-rule="evenodd" clip-rule="evenodd" d="M111.357 37.2803C111.026 35.0901 113.086 30.3855 115.282 28.6325C114.022 31.9817 112.393 34.5001 111.357 37.2803Z" fill="white"/>
<path fill-rule="evenodd" clip-rule="evenodd" d="M119.464 47.084C118.824 45.2791 120.238 41.0983 122.338 38.2741C121.368 41.2054 120.37 44.1303 119.464 47.084Z" fill="white"/>
<path fill-rule="evenodd" clip-rule="evenodd" d="M120.541 35.9199C119.726 38.9909 119.165 42.1452 117.532 44.9455C117.777 41.6852 119.156 38.8007 120.541 35.9199Z" fill="white"/>
<path fill-rule="evenodd" clip-rule="evenodd" d="M123.576 51.5847C123.968 48.6305 124.97 45.8785 126.069 42.9316C126.311 44.6929 124.786 50.3331 123.576 51.5847Z" fill="white"/>
<path fill-rule="evenodd" clip-rule="evenodd" d="M128.822 55.9786C128.331 53.3959 129.686 51.1793 130.264 48.8059C130.45 48.8417 130.64 48.8757 130.829 48.9097C130.399 51.2833 129.969 53.6589 129.537 56.0339C129.299 56.0157 129.06 55.9975 128.822 55.9786Z" fill="white"/>
<path fill-rule="evenodd" clip-rule="evenodd" d="M113.215 39.2792C113.673 35.9644 115.575 33.877 116.373 30.9883C116.712 32.8103 115.355 36.3038 113.215 39.2792Z" fill="white"/>
<path fill-rule="evenodd" clip-rule="evenodd" d="M156.939 78.9957C159.344 78.4692 161.752 77.9403 164.158 77.4144C164.204 77.601 164.248 77.7904 164.288 77.9787C161.983 78.8873 159.649 79.6995 157.084 79.5827C157.034 79.3871 156.986 79.1924 156.939 78.9957Z" fill="white"/>
<path fill-rule="evenodd" clip-rule="evenodd" d="M188.409 87.2837C190.485 86.5663 192.601 87.102 194.672 86.8588C195.282 86.7901 195.235 87.8279 194.931 87.8297C192.744 87.8358 190.499 88.3643 188.409 87.2837Z" fill="white"/>
<path fill-rule="evenodd" clip-rule="evenodd" d="M115.937 41.813C116.228 38.8488 117.527 36.2446 118.866 33.6558C118.389 36.5531 117.176 39.1882 115.937 41.813Z" fill="white"/>
<path fill-rule="evenodd" clip-rule="evenodd" d="M109.385 33.4264C109.479 30.6676 111.371 29.4722 112.421 27.8107C112.743 27.3024 113.623 28.1201 113.135 28.5854C111.796 29.875 111.247 31.7611 109.385 33.4264Z" fill="white"/>
<path fill-rule="evenodd" clip-rule="evenodd" d="M192.473 84.4296C192.899 84.3473 193.321 84.2477 193.752 84.1936C195.105 84.0233 195.376 85.4533 193.929 85.5441C192.51 85.6329 191.03 86.1685 189.745 85.0569C190.02 84.25 190.703 84.2505 191.228 84.0145C191.643 84.152 192.058 84.2902 192.473 84.4296Z" fill="white"/>
<path fill-rule="evenodd" clip-rule="evenodd" d="M184.173 90.9786C187.247 91.5006 189.78 91.9317 192.396 92.3763C190.162 93.675 186.066 92.3844 184.173 90.9786Z" fill="white"/>
<path fill-rule="evenodd" clip-rule="evenodd" d="M129.41 45.6763C129.071 47.9614 127.712 49.9387 127.84 52.3058C127.892 53.3583 126.387 52.9942 126.653 52.137C127.347 49.8892 127.807 47.5391 129.41 45.6763Z" fill="white"/>
<path fill-rule="evenodd" clip-rule="evenodd" d="M169.956 84.9189C171.805 84.3827 173.649 83.8382 175.502 83.3252C175.87 83.2234 176.215 83.3602 176.262 83.8097C176.289 84.0807 176.161 84.3501 175.858 84.3929C173.914 84.6752 172.055 85.4775 170.075 85.5025C170.036 85.307 169.997 85.1141 169.956 84.9189Z" fill="white"/>
<path fill-rule="evenodd" clip-rule="evenodd" d="M159.134 75.5679C156.956 76.9053 155.496 77.1416 152.862 76.5825C153.903 76.1657 158.212 75.47 159.134 75.5679Z" fill="white"/>
<path fill-rule="evenodd" clip-rule="evenodd" d="M187.4 89.4462C189.717 90.1767 193.972 89.0699 194.065 90.6253C191.721 90.8694 189.471 90.7118 187.4 89.4462Z" fill="white"/>
<path fill-rule="evenodd" clip-rule="evenodd" d="M168.949 79.8017C166.9 81.3144 164.527 81.2158 161.874 81.4237C163.337 80.5813 166.524 79.8159 168.949 79.8017Z" fill="white"/>
<path fill-rule="evenodd" clip-rule="evenodd" d="M131.775 56.9186C131.672 54.9655 132.411 53.317 133.374 51.7422C133.183 53.5817 133.288 55.5073 131.775 56.9186Z" fill="white"/>
<path fill-rule="evenodd" clip-rule="evenodd" d="M174.177 58.6426C171.736 59.3537 169.292 60.0664 166.402 60.9067C167.862 59.6727 171.288 58.6003 174.177 58.6426Z" fill="white"/>
<path fill-rule="evenodd" clip-rule="evenodd" d="M192.473 84.4292C187.384 82.713 192.213 81.8123 193.372 82.392C193.717 83.3642 193.009 83.8579 192.473 84.4292Z" fill="white"/>
<path fill-rule="evenodd" clip-rule="evenodd" d="M187.969 94.6485C185.631 95.2658 183.695 94.078 181.145 93.0027C183.971 92.745 185.746 94.5895 187.969 94.6485Z" fill="white"/>
<path fill-rule="evenodd" clip-rule="evenodd" d="M165.501 82.8067C168.055 82.8099 170.216 82.041 172.599 81.6284C170.948 83.263 167.473 83.8905 165.501 82.8067Z" fill="white"/>
<path fill-rule="evenodd" clip-rule="evenodd" d="M151.156 73.5166C152.555 73.211 153.939 72.8145 155.549 73.1102C153.76 74.2579 152.718 74.3867 151.156 73.5166Z" fill="white"/>
<path fill-rule="evenodd" clip-rule="evenodd" d="M135.347 54.5674C134.928 55.8529 135.724 57.5263 134.101 58.7961C133.861 56.996 134.29 55.7018 135.347 54.5674Z" fill="white"/>
<path fill-rule="evenodd" clip-rule="evenodd" d="M137.195 57.7901C137.604 58.4949 136.883 58.9102 136.773 59.4747C136.592 60.3603 135.356 59.5109 135.756 59.0452C136.168 58.5666 136.149 57.566 137.195 57.7901Z" fill="white"/>
<path fill-rule="evenodd" clip-rule="evenodd" d="M172.071 60.4685C173.186 60.2511 173.94 60.1019 174.81 59.933C173.768 61.3545 173.768 61.3545 172.071 60.4685Z" fill="white"/>
<path fill-rule="evenodd" clip-rule="evenodd" d="M148.269 71.0241C149.165 70.8058 150.086 70.2667 150.881 71.2331C149.582 71.677 149.583 71.6756 148.269 71.0241Z" fill="white"/>
<path fill-rule="evenodd" clip-rule="evenodd" d="M145.096 68.009C146.214 67.4458 146.976 67.4862 147.637 68.6528C146.65 68.8184 145.916 68.6578 145.096 68.009Z" fill="white"/>
<path fill-rule="evenodd" clip-rule="evenodd" d="M150.461 52.8721C149.436 53.7101 148.345 53.807 147.182 53.021C148.27 52.9028 149.338 52.391 150.473 52.9585C150.474 52.9577 150.461 52.8721 150.461 52.8721Z" fill="white"/>
<path fill-rule="evenodd" clip-rule="evenodd" d="M139.842 60.2186C139.944 61.0402 139.052 61.2488 138.496 60.8295C138.023 60.4802 138.838 59.7766 139.842 60.2186Z" fill="white"/>
<path fill-rule="evenodd" clip-rule="evenodd" d="M159.545 56.4084C159.277 57.2967 158.828 57.8873 157.744 57.5347C158.056 56.6294 159.255 57.2637 159.541 56.4135L159.545 56.4084Z" fill="white"/>
<path fill-rule="evenodd" clip-rule="evenodd" d="M160.933 59.1315C161.268 58.8345 161.662 58.7361 162.084 58.8958C162.162 58.9267 162.229 59.2403 162.188 59.2701C161.849 59.5162 161.485 59.7747 161.04 59.5641C160.957 59.5255 160.967 59.2923 160.933 59.1315Z" fill="white"/>
<path fill-rule="evenodd" clip-rule="evenodd" d="M179.249 88.7949C178.614 88.4703 179.343 87.6545 180.028 88.1075C180.493 88.4168 180.247 89.3016 179.249 88.7949Z" fill="white"/>
<path fill-rule="evenodd" clip-rule="evenodd" d="M164.499 198.574C164.154 199.901 163.722 199.914 154.477 205.354C154.376 205.185 154.274 205.016 154.172 204.847C157.618 202.781 161.067 200.715 164.512 198.646C164.513 198.643 164.499 198.574 164.499 198.574Z" fill="white"/>
<path fill-rule="evenodd" clip-rule="evenodd" d="M180.039 175.969C179.856 177.105 173.242 180.427 172.241 180.917C174.58 178.878 177.169 177.228 180.058 176.044C180.055 176.041 180.039 175.969 180.039 175.969Z" fill="white"/>
<path fill-rule="evenodd" clip-rule="evenodd" d="M176.233 181.018C176.187 182.727 172.254 184.284 170.707 184.523C172.554 183.39 174.404 182.256 176.252 181.111C176.251 181.098 176.233 181.018 176.233 181.018Z" fill="white"/>
<path fill-rule="evenodd" clip-rule="evenodd" d="M204.639 128.809C203.291 130.704 201.34 131.837 199.395 132.968C201.111 131.557 202.392 129.58 204.66 128.879C204.658 128.877 204.639 128.809 204.639 128.809Z" fill="white"/>
<path fill-rule="evenodd" clip-rule="evenodd" d="M187.565 165.477C186.418 167.364 184.328 167.746 182.48 168.517C183.946 167.144 185.7 166.244 187.582 165.554C187.582 165.549 187.565 165.477 187.565 165.477Z" fill="white"/>
<path fill-rule="evenodd" clip-rule="evenodd" d="M197.801 145.765C197.29 146.785 196.126 146.813 195.361 147.443C195.91 146.482 196.598 145.727 197.817 145.835L197.801 145.765Z" fill="white"/>
<path fill-rule="evenodd" clip-rule="evenodd" d="M161.595 197.276C160.921 198.191 159.811 198.367 158.843 198.771C159.601 198.009 160.289 197.124 161.608 197.346L161.595 197.276Z" fill="white"/>
<path fill-rule="evenodd" clip-rule="evenodd" d="M178.083 171.037C178.372 169.921 179.146 170.083 179.805 169.567C179.506 170.597 178.763 170.558 178.083 171.037Z" fill="white"/>
<path fill-rule="evenodd" clip-rule="evenodd" d="M181.391 172.457C181.768 171.596 182.507 171.308 183.812 170.862C182.947 172.002 182.348 172.508 181.374 172.385L181.391 172.457Z" fill="white"/>
<path fill-rule="evenodd" clip-rule="evenodd" d="M181.377 172.384C180.874 173.178 180.274 173.762 179.224 173.377L179.243 173.455C179.803 172.781 180.394 172.18 181.392 172.457L181.377 172.384Z" fill="white"/>
<path fill-rule="evenodd" clip-rule="evenodd" d="M179.223 173.377C179.018 174.373 178.154 174.547 177.005 175.033C177.729 174.009 178.408 173.632 179.244 173.456C179.243 173.455 179.223 173.377 179.223 173.377Z" fill="white"/>
<path fill-rule="evenodd" clip-rule="evenodd" d="M164.474 191.84C164.798 190.692 165.5 190.564 166.336 190.289C166.031 191.27 165.281 191.351 164.474 191.84Z" fill="white"/>
<path fill-rule="evenodd" clip-rule="evenodd" d="M167.515 186.799C167.636 185.747 168.486 186.026 168.98 185.397C168.885 186.635 168.169 186.557 167.515 186.799Z" fill="white"/>
<path fill-rule="evenodd" clip-rule="evenodd" d="M81.6915 202.846C82.3171 202.552 82.5752 203.023 83.0211 203.24C82.2005 203.8 82.1761 202.847 81.6915 202.846Z" fill="white"/>
<path fill-rule="evenodd" clip-rule="evenodd" d="M149.579 148.389C150.268 147.617 151.132 147.747 152.009 147.911C151.313 148.664 150.472 148.657 149.579 148.389Z" fill="white"/>
<path fill-rule="evenodd" clip-rule="evenodd" d="M132.62 174.868C135.023 173.434 137.676 173.362 140.359 173.446C137.868 174.412 135.179 174.295 132.62 174.868Z" fill="white"/>
</svg>
