<svg width="133" height="122" viewBox="0 0 133 122" fill="none" xmlns="http://www.w3.org/2000/svg">
<path fill-rule="evenodd" clip-rule="evenodd" d="M52.5478 62.7155C54.9559 61.3811 55.3285 61.5453 56.0943 63.6179C59.9611 74.1227 62.2445 78.8637 60.7451 79.4395C60.5076 79.525 60.2556 79.5628 60.0034 79.5507C59.7513 79.5386 59.5041 79.4769 59.2759 79.369C59.0476 79.2612 58.8429 79.1094 58.6735 78.9224C58.504 78.7353 58.3732 78.5166 58.2884 78.2788C51.9528 61.8434 52.806 63.8507 52.5478 62.7155Z" fill="white"/>
<path fill-rule="evenodd" clip-rule="evenodd" d="M64.7266 97.5097C61.8932 90.0126 59.3602 85.4694 62.1215 85.0176C62.3963 85.0155 62.667 85.0834 62.9083 85.2148C63.1496 85.3463 63.3534 85.537 63.5006 85.769C68.5702 99.0982 68.3893 98.5069 64.7266 97.5097Z" fill="white"/>
<path fill-rule="evenodd" clip-rule="evenodd" d="M44.6718 83.6898C41.5032 72.1751 41.0477 71.6415 42.9508 69.9807C44.8539 68.3199 45.1909 72.3249 46.5 80.0758C46.8908 82.3605 46.8016 84.5953 44.6718 83.6898Z" fill="white"/>
<path fill-rule="evenodd" clip-rule="evenodd" d="M46.8326 101.769C45.6143 94.064 44.6972 92.2748 47.413 91.8229C48.8318 91.5797 48.9173 92.6964 49.342 100.813C49.4362 102.094 49.1196 102.171 46.8326 101.769Z" fill="white"/>
<path fill-rule="evenodd" clip-rule="evenodd" d="M87.366 42.2054C86.4715 42.2007 85.5798 42.1066 84.7041 41.9245C69.0976 36.4593 69.5484 36.5764 69.909 35.1604C70.0551 34.7112 70.3703 34.3365 70.7878 34.1155C71.2053 33.8946 71.6924 33.8447 72.146 33.9766C89.6028 41.0671 86.9219 39.1204 87.366 42.2054Z" fill="white"/>
<path fill-rule="evenodd" clip-rule="evenodd" d="M115.711 50.818C114.744 54.3225 114.492 53.5001 107.524 50.8752C105 49.9127 106.388 47.6382 108.487 48.1691C109.934 48.5406 112.093 49.4244 115.711 50.818Z" fill="white"/>
<path fill-rule="evenodd" clip-rule="evenodd" d="M93.1753 42.6424C95.1284 42.6584 93.5168 41.8537 101.114 45.518C102.982 46.3921 101.318 48.5098 99.777 47.8453C91.6213 44.3147 92.054 45.4556 93.1753 42.6424Z" fill="white"/>
<path fill-rule="evenodd" clip-rule="evenodd" d="M33.4557 114.312C29.1979 114.691 32.1448 101.046 29.4492 87.2022C28.865 84.2334 32.0791 83.795 32.177 86.1738C32.3077 89.5383 33.3384 112.652 33.4557 114.312Z" fill="white"/>
<path fill-rule="evenodd" clip-rule="evenodd" d="M31.0082 80.0091C28.341 81.8778 28.3431 78.448 27.7904 74.0026C27.5552 72.1692 30.704 71.6434 30.8859 73.755C31.4516 80.2226 31.3876 78.2385 31.0082 80.0091Z" fill="white"/>
<path fill-rule="evenodd" clip-rule="evenodd" d="M58.8501 46.666C60.3271 44.268 60.8453 44.278 62.4821 46.392C71.4626 58.0128 74.323 60.2453 72.6502 61.1663C72.086 61.3431 71.4797 61.3318 70.9224 61.1341C70.3652 60.9363 69.8872 60.563 69.5606 60.07C57.7787 45.7186 59.1107 47.4248 58.8501 46.666Z" fill="white"/>
<path fill-rule="evenodd" clip-rule="evenodd" d="M84.4858 76.9417C86.6311 73.9647 86.6423 74.9212 91.1579 80.2643C92.9147 82.3567 89.6643 82.7314 88.7277 81.706C87.2955 80.1088 85.8761 78.5134 84.4858 76.9417Z" fill="white"/>
<path fill-rule="evenodd" clip-rule="evenodd" d="M81.9917 70.1108C78.973 72.2535 79.5324 71.5743 76.4702 68.2213C74.8783 66.471 75.0665 65.9331 77.7373 65.2083C79.0731 66.7526 80.4725 68.3516 81.9917 70.1108Z" fill="white"/>
<path fill-rule="evenodd" clip-rule="evenodd" d="M82.0488 20.4124C82.9216 22.6434 82.6972 23.1176 80.7855 23.3545C66.1289 25.114 65.5497 25.6604 65.4 23.8652C65.2152 21.279 65.6615 21.8762 82.0488 20.4124Z" fill="white"/>
<path fill-rule="evenodd" clip-rule="evenodd" d="M107.932 19.1389C108.312 20.4671 108.366 21.5274 106.969 21.7542C104.587 22.2908 102.13 22.4146 99.7054 22.1203C99.3774 19.221 100.155 19.6842 107.932 19.1389Z" fill="white"/>
<path fill-rule="evenodd" clip-rule="evenodd" d="M88.4053 22.1889C89.2733 20.7682 88.1245 20.4462 94.7502 19.9554C95.0012 19.9267 95.5927 20.7333 95.5558 21.0333C95.1068 23.1057 90.3028 22.814 88.4053 22.1889Z" fill="white"/>
<path fill-rule="evenodd" clip-rule="evenodd" d="M77.801 52.8553C79.0686 50.6024 79.1978 50.5627 80.8139 51.9656C96.3469 65.5341 93.3816 62.9486 95.4873 65.2344C93.1664 66.5944 93.8296 65.8263 77.801 52.8553Z" fill="white"/>
<path fill-rule="evenodd" clip-rule="evenodd" d="M75.0249 47.9262C74.2812 50.0599 72.3867 48.6947 70.811 47.0572C70.6096 46.7877 70.7692 45.9532 71.0245 45.5354C71.7356 44.4364 73.723 46.7311 75.0249 47.9262Z" fill="white"/>
</svg>
