<svg width="1196" height="227" viewBox="0 0 1196 227" fill="none" xmlns="http://www.w3.org/2000/svg">
<g clip-path="url(#clip0)">
<path fill-rule="evenodd" clip-rule="evenodd" d="M155.652 138.922C167.392 138.922 176.912 148.441 176.912 160.182C176.912 171.923 167.392 181.442 155.652 181.442C143.912 181.442 134.392 171.923 134.392 160.182C134.392 148.441 143.912 138.922 155.652 138.922Z" fill="white"/>
<path fill-rule="evenodd" clip-rule="evenodd" d="M106.105 39.7094C115.497 39.7094 123.113 47.3244 123.113 56.7178C123.113 66.1107 115.497 73.7253 106.105 73.7253C96.7128 73.7253 89.0967 66.1107 89.0967 56.7178C89.0967 47.3244 96.7128 39.7094 106.105 39.7094V39.7094Z" fill="white"/>
<path fill-rule="evenodd" clip-rule="evenodd" d="M106.105 0.0247803C113.931 0.0247803 120.278 6.37037 120.278 14.198C120.278 22.0253 113.931 28.3707 106.105 28.3707C98.2782 28.3707 91.9316 22.0253 91.9316 14.198C91.9316 6.37037 98.2782 0.0247803 106.105 0.0247803Z" fill="white"/>
<path fill-rule="evenodd" clip-rule="evenodd" d="M106.105 85.0653C117.845 85.0653 127.365 94.5843 127.365 106.325C127.365 118.067 117.845 127.585 106.105 127.585C94.3651 127.585 84.8452 118.067 84.8452 106.325C84.8452 94.5843 94.3651 85.0653 106.105 85.0653Z" fill="white"/>
<path fill-rule="evenodd" clip-rule="evenodd" d="M106.105 138.922C117.845 138.922 127.365 148.441 127.365 160.182C127.365 171.923 117.845 181.442 106.105 181.442C94.3651 181.442 84.8452 171.923 84.8452 160.182C84.8452 148.441 94.3651 138.922 106.105 138.922Z" fill="white"/>
<path fill-rule="evenodd" clip-rule="evenodd" d="M106.105 192.781C115.497 192.781 123.113 200.396 123.113 209.788C123.113 219.182 115.497 226.797 106.105 226.797C96.7128 226.797 89.0967 219.182 89.0967 209.788C89.0967 200.396 96.7128 192.781 106.105 192.781Z" fill="white"/>
<path fill-rule="evenodd" clip-rule="evenodd" d="M56.4976 89.3173C65.8896 89.3173 73.5055 96.9319 73.5055 106.325C73.5055 115.719 65.8896 123.333 56.4976 123.333C47.1056 123.333 39.4897 115.719 39.4897 106.325C39.4897 96.9319 47.1056 89.3173 56.4976 89.3173Z" fill="white"/>
<path fill-rule="evenodd" clip-rule="evenodd" d="M56.4976 143.174C65.8896 143.174 73.5055 150.789 73.5055 160.182C73.5055 169.575 65.8896 177.19 56.4976 177.19C47.1056 177.19 39.4897 169.575 39.4897 160.182C39.4897 150.789 47.1056 143.174 56.4976 143.174Z" fill="white"/>
<path fill-rule="evenodd" clip-rule="evenodd" d="M13.9779 92.1522C21.8044 92.1522 28.1511 98.4978 28.1511 106.325C28.1511 114.153 21.8044 120.498 13.9779 120.498C6.15121 120.498 -0.195312 114.153 -0.195312 106.325C-0.195312 98.4978 6.15121 92.1522 13.9779 92.1522Z" fill="white"/>
<path fill-rule="evenodd" clip-rule="evenodd" d="M155.711 89.3173C165.103 89.3173 172.718 96.9319 172.718 106.325C172.718 115.718 165.103 123.333 155.711 123.333C146.319 123.333 138.703 115.718 138.703 106.325C138.703 96.9319 146.319 89.3173 155.711 89.3173Z" fill="white"/>
<path fill-rule="evenodd" clip-rule="evenodd" d="M269.089 72.2846C269.089 71.3797 269.088 70.2115 269.088 68.9603C269.086 66.6994 269.874 64.7536 271.438 63.1552C273.001 61.5568 274.903 60.7522 277.114 60.7531C278.434 60.7531 279.81 60.7551 281.195 60.7551C299.251 60.7551 330.287 60.759 345.806 60.76C350.222 60.7609 353.824 64.4435 353.825 68.959C353.825 69.6516 353.826 70.3451 353.826 71.0367C353.826 75.555 350.224 79.2412 345.806 79.2412L289.154 79.2372V108.403C300.359 108.403 328.483 108.411 344.298 108.413C348.712 108.414 352.313 112.094 352.316 116.608C352.317 117.297 352.317 117.987 352.318 118.675C352.321 120.935 351.534 122.881 349.973 124.481C348.411 126.079 346.508 126.886 344.298 126.886H289.154V158.593C308.038 158.593 326.921 158.593 345.805 158.593C350.222 158.593 353.825 162.278 353.825 166.795C353.825 167.488 353.825 168.181 353.825 168.875C353.825 173.392 350.222 177.076 345.805 177.076H277.11C272.692 177.076 269.089 173.392 269.089 168.875V72.2846ZM454.977 153.167C454.977 156.785 454.314 160.148 452.988 163.256C451.661 166.365 449.285 169.078 445.858 171.396C442.431 173.713 437.705 175.55 431.68 176.906C425.654 178.262 417.944 178.941 408.547 178.941C404.236 178.941 400.064 178.857 396.027 178.687C391.992 178.518 388.4 178.32 385.249 178.093C383.58 177.974 382.052 177.861 380.663 177.758C376.462 177.443 373.227 173.886 373.227 169.578V99.7548C373.227 97.041 373.974 95.0353 375.465 93.7349C376.958 92.4354 378.755 91.6151 380.855 91.2761C382.734 90.8241 385.719 90.4287 389.809 90.0897C393.899 89.7498 399.869 89.5803 407.719 89.5803C416.341 89.5803 423.443 90.231 429.028 91.5305C434.61 92.8309 439.059 94.5823 442.375 96.7867C445.692 98.9912 447.985 101.563 449.257 104.502C450.529 107.442 451.164 110.55 451.164 113.828C451.164 118.915 449.837 122.985 447.184 126.037C444.531 129.089 441.712 131.237 438.728 132.481C443.702 133.724 447.654 136.041 450.584 139.433C453.513 142.824 454.977 147.402 454.977 153.167V153.167ZM434.748 152.32C434.748 148.815 433.504 145.904 431.017 143.587C428.529 141.269 424.024 140.111 417.502 140.111H391.799V163.341C393.457 163.568 395.862 163.794 399.013 164.02C402.163 164.246 405.839 164.359 410.04 164.359C418.883 164.359 425.212 163.369 429.028 161.392C432.841 159.413 434.748 156.389 434.748 152.32V152.32ZM431.763 114.677C431.763 111.398 430.05 108.798 426.623 106.876C423.195 104.955 417.336 103.993 409.045 103.993C404.623 103.993 400.92 104.106 397.935 104.332C394.949 104.558 392.905 104.729 391.799 104.842V126.206H415.843C421.813 126.206 425.958 125.133 428.281 122.985C430.602 120.837 431.763 118.067 431.763 114.677V114.677ZM469.57 138.415C469.57 130.502 470.676 123.522 472.887 117.474C475.097 111.426 478.193 106.339 482.172 102.214C486.153 98.0873 490.962 94.9506 496.599 92.8026C502.238 90.6547 508.483 89.5803 515.338 89.5803C521.64 89.5803 527.443 90.7111 532.749 92.972C538.056 95.233 542.671 98.3414 546.596 102.298C550.521 106.254 553.588 111.002 555.799 116.541C558.01 122.081 559.115 128.072 559.115 134.516C559.115 141.071 558.038 147.091 555.882 152.574C553.726 158.056 550.742 162.776 546.927 166.733C543.113 170.689 538.636 173.77 533.496 175.974C528.355 178.178 522.745 179.28 516.665 179.28C510.363 179.28 504.78 178.036 499.916 175.55C495.052 173.063 491.238 170.011 488.475 166.394V202.787C488.475 207.305 484.872 210.989 480.454 210.989H477.591C473.173 210.989 469.57 207.305 469.57 202.787V138.415ZM514.011 162.154C517.77 162.154 521.225 161.448 524.375 160.035C527.526 158.621 530.234 156.672 532.5 154.185C534.767 151.698 536.508 148.758 537.724 145.367C538.94 141.976 539.548 138.302 539.548 134.346C539.548 130.502 538.94 126.913 537.724 123.578C536.508 120.244 534.767 117.361 532.5 114.931C530.234 112.5 527.526 110.578 524.375 109.165C521.225 107.752 517.77 107.046 514.011 107.046C510.252 107.046 506.798 107.724 503.647 109.08C500.497 110.437 497.788 112.303 495.522 114.677C493.256 117.05 491.487 119.905 490.216 123.239C488.944 126.574 488.309 130.276 488.309 134.346C488.309 138.302 488.944 141.976 490.216 145.367C491.487 148.758 493.228 151.698 495.439 154.185C497.65 156.672 500.331 158.621 503.481 160.035C506.632 161.448 510.142 162.154 514.011 162.154V162.154ZM617.486 89.5803C623.897 89.5803 629.895 90.7111 635.478 92.972C641.06 95.233 645.896 98.3698 649.987 102.383C654.077 106.396 657.283 111.143 659.604 116.626C661.927 122.109 663.088 128.072 663.088 134.516C663.088 140.845 661.927 146.752 659.604 152.235C657.283 157.717 654.077 162.465 649.987 166.478C645.896 170.491 641.06 173.657 635.478 175.974C629.895 178.291 623.897 179.45 617.486 179.45C611.074 179.45 605.076 178.291 599.493 175.974C593.911 173.657 589.074 170.491 584.984 166.478C580.893 162.465 577.688 157.717 575.367 152.235C573.045 146.752 571.884 140.845 571.884 134.516C571.884 128.072 573.045 122.109 575.367 116.626C577.688 111.143 580.893 106.396 584.984 102.383C589.074 98.3698 593.911 95.233 599.493 92.972C605.076 90.7111 611.074 89.5803 617.486 89.5803ZM617.486 162.324C621.244 162.324 624.727 161.618 627.932 160.204C631.138 158.792 633.874 156.813 636.141 154.27C638.407 151.726 640.176 148.786 641.448 145.452C642.718 142.118 643.354 138.471 643.354 134.516C643.354 130.559 642.718 126.857 641.448 123.409C640.176 119.961 638.407 116.994 636.141 114.507C633.874 112.02 631.138 110.07 627.932 108.656C624.727 107.244 621.244 106.537 617.486 106.537C613.616 106.537 610.107 107.244 606.956 108.656C603.805 110.07 601.096 112.02 598.83 114.507C596.564 116.994 594.795 119.961 593.524 123.409C592.252 126.857 591.617 130.559 591.617 134.516C591.617 138.471 592.252 142.118 593.524 145.452C594.795 148.786 596.564 151.726 598.83 154.27C601.096 156.813 603.805 158.792 606.956 160.204C610.107 161.618 613.616 162.324 617.486 162.324ZM759.43 168.874V79.0674H701.226V168.874C701.226 173.392 697.623 177.076 693.206 177.076H689.514C685.096 177.076 681.493 173.392 681.493 168.874V72.2846C681.493 64.5978 685.473 60.7549 693.433 60.7549H767.059C775.018 60.7549 778.999 64.5978 778.999 72.2846V168.874C778.999 173.392 775.396 177.076 770.978 177.076H767.451C763.033 177.076 759.43 173.392 759.43 168.874ZM798.731 138.415C798.731 130.502 799.837 123.522 802.048 117.474C804.258 111.426 807.355 106.339 811.334 102.214C815.314 98.0873 820.123 94.9506 825.76 92.8026C831.399 90.6547 837.645 89.5803 844.499 89.5803C850.8 89.5803 856.604 90.7111 861.91 92.972C867.218 95.233 871.833 98.3414 875.757 102.298C879.681 106.254 882.749 111.002 884.96 116.541C887.171 122.081 888.276 128.072 888.276 134.516C888.276 141.071 887.198 147.091 885.043 152.574C882.887 158.056 879.902 162.776 876.088 166.733C872.275 170.689 867.798 173.77 862.656 175.974C857.516 178.178 851.905 179.28 845.826 179.28C839.524 179.28 833.941 178.036 829.077 175.55C824.213 173.063 820.399 170.011 817.635 166.394V202.787C817.635 207.305 814.032 210.989 809.615 210.989H806.752C802.334 210.989 798.731 207.305 798.731 202.787V138.415ZM843.173 162.154C846.931 162.154 850.386 161.448 853.536 160.035C856.686 158.621 859.395 156.672 861.661 154.185C863.927 151.698 865.669 148.758 866.886 145.367C868.102 141.976 868.709 138.302 868.709 134.346C868.709 130.502 868.102 126.913 866.886 123.578C865.669 120.244 863.927 117.361 861.661 114.931C859.395 112.5 856.686 110.578 853.536 109.165C850.386 107.752 846.931 107.046 843.173 107.046C839.414 107.046 835.959 107.724 832.808 109.08C829.657 110.437 826.949 112.303 824.683 114.677C822.417 117.05 820.648 119.905 819.377 123.239C818.105 126.574 817.47 130.276 817.47 134.346C817.47 138.302 818.105 141.976 819.377 145.367C820.648 148.758 822.389 151.698 824.6 154.185C826.811 156.672 829.492 158.621 832.642 160.035C835.793 161.448 839.303 162.154 843.173 162.154V162.154ZM905.19 168.874V100.941C905.19 97.8894 906.075 95.6285 907.843 94.1586C909.612 92.6895 912.044 91.9542 915.139 91.9542C915.307 91.9542 915.668 91.9542 916.151 91.9542C918.362 91.9533 920.265 92.7597 921.827 94.36C923.391 95.9593 924.177 97.9067 924.173 100.168L924.094 154.185C930.728 145.254 937.554 136.154 944.574 126.885C951.594 117.615 958.808 108.459 966.214 99.4149C967.761 97.4939 969.503 95.7697 971.437 94.2433C973.372 92.7178 976.108 91.9542 979.645 91.9542C980.058 91.9542 980.528 91.9522 981.034 91.9492C983.253 91.9373 985.168 92.7401 986.74 94.343C988.312 95.946 989.102 97.9008 989.097 100.171L988.932 168.874C988.922 173.389 985.327 177.075 980.911 177.075H978.048C973.631 177.075 970.028 173.391 970.028 168.874V118.575C962.4 127.506 954.855 137.03 947.393 147.147C940.72 156.196 933.98 165.132 927.173 173.954C925.6 175.993 923.415 177.075 920.876 177.075H913.211C908.793 177.075 905.19 173.391 905.19 168.874L905.19 168.874ZM1009.83 100.941C1009.83 100.686 1009.83 100.424 1009.83 100.16C1009.83 97.8995 1010.61 95.952 1012.18 94.3536C1013.74 92.7552 1015.64 91.9505 1017.85 91.9532C1018.54 91.9532 1019.2 91.9542 1019.77 91.9542C1020.11 91.9542 1020.45 91.9542 1020.79 91.9542C1023 91.9533 1024.91 92.7624 1026.47 94.3654C1028.03 95.9684 1028.82 97.9195 1028.81 100.183L1028.73 125.02H1073.67V100.941C1073.67 100.678 1073.67 100.414 1073.67 100.148C1073.68 95.6367 1077.27 91.9596 1081.68 91.955C1082.38 91.955 1083.03 91.9542 1083.62 91.9542C1083.81 91.9542 1084.22 91.955 1084.77 91.955C1086.99 91.9559 1088.89 92.7652 1090.45 94.3672C1092.01 95.9693 1092.8 97.9186 1092.79 100.18L1092.6 168.898C1092.58 173.407 1088.98 177.076 1084.57 177.076H1081.69C1077.27 177.076 1073.67 173.392 1073.67 168.874V142.315H1028.73V168.874C1028.73 173.392 1025.13 177.076 1020.71 177.076H1017.85C1013.43 177.076 1009.83 173.392 1009.83 168.874L1009.83 100.941ZM1104.68 101.28C1104.68 101.058 1104.68 100.661 1104.68 100.152C1104.68 95.6321 1108.28 91.9442 1112.7 91.9442C1137.71 91.9482 1162.74 92.0462 1187.75 91.9778C1189.97 91.9718 1191.89 92.7816 1193.46 94.39C1195.02 95.9994 1195.81 97.9587 1195.79 100.231C1195.79 100.688 1195.78 101.148 1195.78 101.607C1195.76 106.107 1192.16 109.759 1187.76 109.759H1159.4V168.874C1159.4 173.392 1155.79 177.076 1151.38 177.076H1148.68C1144.26 177.076 1140.66 173.392 1140.66 168.874V109.759H1112.7C1108.28 109.759 1104.68 106.075 1104.68 101.557C1104.68 101.467 1104.68 101.374 1104.68 101.28H1104.68Z" fill="white"/>
<path fill-rule="evenodd" clip-rule="evenodd" d="M205.258 143.174C214.65 143.174 222.265 150.789 222.265 160.182C222.265 169.575 214.65 177.19 205.258 177.19C195.866 177.19 188.25 169.575 188.25 160.182C188.25 150.789 195.866 143.174 205.258 143.174Z" fill="white"/>
</g>
<defs>
<clipPath id="clip0">
<rect width="1196" height="227" fill="white"/>
</clipPath>
</defs>
</svg>
