<svg width="443" height="394" viewBox="0 0 443 394" fill="none" xmlns="http://www.w3.org/2000/svg">
<circle cx="43.5" cy="350.5" r="30" fill="white"/>
<path d="M46.9067 362H42.25V344.05L36.6909 345.774V341.987L46.4072 338.507H46.9067V362Z" fill="black"/>
<rect x="2.5" y="309.5" width="82" height="82" rx="41" stroke="white" stroke-width="5"/>
<circle cx="399.5" cy="43.5" r="30" fill="white"/>
<path d="M396.333 41.207H398.814C399.996 41.207 400.871 40.9116 401.44 40.3208C402.01 39.73 402.294 38.9458 402.294 37.9683C402.294 37.0229 402.01 36.2871 401.44 35.7607C400.882 35.2344 400.108 34.9712 399.12 34.9712C398.229 34.9712 397.482 35.2183 396.88 35.7124C396.279 36.1958 395.978 36.8296 395.978 37.6138H391.321C391.321 36.3892 391.649 35.2935 392.304 34.3267C392.97 33.3491 393.894 32.5864 395.076 32.0386C396.268 31.4907 397.579 31.2168 399.007 31.2168C401.489 31.2168 403.433 31.813 404.84 33.0054C406.248 34.187 406.951 35.8198 406.951 37.9038C406.951 38.978 406.624 39.9663 405.968 40.8687C405.313 41.771 404.454 42.4639 403.39 42.9473C404.711 43.4199 405.694 44.1289 406.339 45.0742C406.994 46.0195 407.322 47.1367 407.322 48.4258C407.322 50.5098 406.559 52.1802 405.034 53.437C403.519 54.6938 401.51 55.3223 399.007 55.3223C396.666 55.3223 394.748 54.7046 393.255 53.4692C391.772 52.2339 391.031 50.6011 391.031 48.5708H395.688C395.688 49.4517 396.016 50.1714 396.671 50.73C397.337 51.2886 398.153 51.5679 399.12 51.5679C400.227 51.5679 401.091 51.2778 401.714 50.6978C402.348 50.1069 402.665 49.3281 402.665 48.3613C402.665 46.0195 401.376 44.8486 398.798 44.8486H396.333V41.207Z" fill="black"/>
<rect x="358.5" y="2.5" width="82" height="82" rx="41" stroke="white" stroke-width="5"/>
<circle cx="244.5" cy="255.5" r="30" fill="white"/>
<path d="M252.676 267H236.595V263.81L244.185 255.721C245.227 254.582 245.995 253.588 246.489 252.74C246.994 251.891 247.246 251.085 247.246 250.323C247.246 249.281 246.983 248.464 246.457 247.874C245.93 247.272 245.178 246.971 244.201 246.971C243.148 246.971 242.315 247.336 241.703 248.067C241.102 248.787 240.801 249.737 240.801 250.919H236.128C236.128 249.49 236.466 248.185 237.143 247.003C237.831 245.822 238.797 244.898 240.043 244.232C241.29 243.555 242.702 243.217 244.281 243.217C246.698 243.217 248.573 243.797 249.905 244.957C251.248 246.117 251.919 247.755 251.919 249.872C251.919 251.032 251.618 252.213 251.017 253.417C250.415 254.62 249.384 256.021 247.923 257.622L242.589 263.246H252.676V267Z" fill="black"/>
<rect x="203.5" y="214.5" width="82" height="82" rx="41" stroke="white" stroke-width="5"/>
<line x1="80.1694" y1="331.889" x2="208.169" y2="274.889" stroke="white" stroke-width="9"/>
<line x1="80.1694" y1="331.889" x2="208.169" y2="274.889" stroke="white" stroke-width="9"/>
<line x1="80.1694" y1="331.889" x2="208.169" y2="274.889" stroke="white" stroke-width="9"/>
<path d="M272 227.5L377.309 76.4259" stroke="white" stroke-width="9"/>
<path d="M272 227.5L377.309 76.4259" stroke="white" stroke-width="9"/>
<path d="M272 227.5L377.309 76.4259" stroke="white" stroke-width="9"/>
</svg>
