<svg width="746" height="584" viewBox="0 0 746 584" fill="none" xmlns="http://www.w3.org/2000/svg">
<path d="M177.193 224.196H664.105C667.707 224.196 671.162 225.629 673.709 228.181C676.256 230.732 677.687 234.193 677.687 237.801V558.417H163.65V237.788C163.654 234.189 165.081 230.737 167.619 228.19C170.157 225.642 173.6 224.206 177.193 224.196Z" fill="#EDEDED" stroke="#1A1F22" stroke-linecap="round" stroke-linejoin="round"/>
<path d="M656.822 250.3H184.504V517.68H656.822V250.3Z" stroke="#1A1F22" stroke-linecap="round" stroke-linejoin="round"/>
<path d="M598.47 542.315H245.205V559.744H598.47V542.315Z" fill="#1A1F22" stroke="#1A1F22" stroke-linecap="round" stroke-linejoin="round"/>
<path d="M598.47 550.717H245.205V559.758H598.47V550.717Z" fill="#EDEDED" stroke="#1A1F22" stroke-linecap="round" stroke-linejoin="round"/>
<path d="M122.075 570.084C122.075 570.084 127.879 577.199 145.291 583H698.424C698.424 583 711.317 579.774 717.121 570.735L122.075 570.084Z" fill="#1A1F22" stroke="#1A1F22" stroke-linecap="round" stroke-linejoin="round"/>
<path d="M715.874 557.364H123.36C122.005 557.364 120.906 558.464 120.906 559.822V568.484C120.906 569.842 122.005 570.943 123.36 570.943H715.874C717.229 570.943 718.328 569.842 718.328 568.484V559.822C718.328 558.464 717.229 557.364 715.874 557.364Z" fill="#EDEDED" stroke="#1A1F22" stroke-linecap="round" stroke-linejoin="round"/>
<path d="M425.064 234.303C425.067 233.407 424.804 232.531 424.309 231.784C423.814 231.038 423.109 230.456 422.284 230.111C421.459 229.767 420.55 229.675 419.672 229.849C418.795 230.022 417.989 230.452 417.355 231.084C416.722 231.717 416.291 232.524 416.115 233.402C415.94 234.28 416.028 235.191 416.37 236.019C416.712 236.847 417.291 237.555 418.034 238.053C418.778 238.551 419.652 238.817 420.546 238.817C421.742 238.817 422.889 238.342 423.736 237.495C424.583 236.649 425.061 235.501 425.064 234.303Z" fill="#EDEDED" stroke="#1A1F22" stroke-linecap="round" stroke-linejoin="round"/>
<path d="M104.17 583H736.507" stroke="#1A1F22" stroke-linecap="round" stroke-linejoin="round"/>
<path d="M461.524 300.48C463.096 298.909 464.259 296.974 464.908 294.846C465.558 292.719 465.676 290.464 465.251 288.28L456.746 296.786C456.26 297.263 455.608 297.53 454.928 297.53C454.248 297.53 453.596 297.263 453.11 296.786L446.047 289.711C445.571 289.225 445.304 288.571 445.304 287.89C445.304 287.209 445.571 286.555 446.047 286.069L454.539 277.55C452.163 277.092 449.709 277.28 447.431 278.092C445.152 278.904 443.132 280.311 441.578 282.168C440.025 284.025 438.996 286.265 438.596 288.654C438.197 291.044 438.443 293.497 439.308 295.759L417.364 317.233L415.248 315.113L418.702 311.653C418.864 311.476 418.954 311.244 418.954 311.003C418.954 310.762 418.864 310.53 418.702 310.353L416.027 307.686C415.853 307.518 415.62 307.423 415.378 307.423C415.136 307.423 414.903 307.518 414.729 307.686L413.43 308.987L410.535 306.099L411.651 304.981C411.878 304.74 412.004 304.421 412.004 304.09C412.004 303.759 411.878 303.44 411.651 303.199L387.708 279.214C387.138 278.643 386.461 278.19 385.716 277.88C384.97 277.571 384.172 277.412 383.365 277.412C382.558 277.412 381.76 277.571 381.014 277.88C380.269 278.19 379.592 278.643 379.022 279.214L376.581 281.66C376.01 282.231 375.558 282.909 375.249 283.656C374.94 284.402 374.781 285.202 374.781 286.01C374.781 286.818 374.94 287.619 375.249 288.365C375.558 289.112 376.01 289.79 376.581 290.361L400.524 314.346C400.765 314.572 401.083 314.699 401.413 314.699C401.744 314.699 402.062 314.572 402.303 314.346L403.406 313.227L406.302 316.128L405.003 317.428C404.835 317.603 404.741 317.836 404.741 318.079C404.741 318.321 404.835 318.554 405.003 318.729L407.6 321.408C407.777 321.571 408.009 321.661 408.249 321.661C408.49 321.661 408.721 321.571 408.899 321.408L412.352 317.948L414.43 320.03L396.252 337.81C393.993 336.939 391.543 336.689 389.156 337.087C386.768 337.486 384.531 338.517 382.676 340.074C380.821 341.631 379.416 343.657 378.606 345.942C377.797 348.226 377.613 350.687 378.074 353.067L386.579 344.56C387.064 344.084 387.717 343.817 388.396 343.817C389.076 343.817 389.729 344.084 390.214 344.56L397.278 351.636C397.753 352.122 398.02 352.776 398.02 353.457C398.02 354.138 397.753 354.792 397.278 355.278L388.786 363.797C391.161 364.254 393.615 364.067 395.894 363.255C398.172 362.443 400.193 361.035 401.746 359.178C403.299 357.321 404.329 355.082 404.728 352.693C405.127 350.303 404.881 347.85 404.016 345.588L422.195 327.821L446.995 352.663C446.64 353.583 446.559 354.587 446.762 355.551C446.965 356.516 447.442 357.402 448.137 358.1L454.123 364.096L461.303 356.904L455.318 350.908C454.62 350.211 453.736 349.733 452.773 349.53C451.81 349.327 450.808 349.408 449.89 349.763L425.09 325.037L447.021 303.589C449.478 304.537 452.159 304.747 454.734 304.195C457.309 303.643 459.669 302.353 461.524 300.48Z" fill="#1C1C1C"/>
<path d="M521.278 412.976H314.152V425.345H521.278V412.976Z" fill="url(#paint0_linear)"/>
<path d="M395.162 412.976H381.372L374.296 425.345H388.098L395.162 412.976Z" fill="#1A1F22"/>
<path d="M521.279 425.346V414.185L514.891 425.346H521.279Z" fill="#1A1F22"/>
<path d="M423.286 412.976H409.483L402.42 425.345H416.209L423.286 412.976Z" fill="#1A1F22"/>
<path d="M367.037 412.976H353.248L346.185 425.345H359.974L367.037 412.976Z" fill="#1A1F22"/>
<path d="M318.061 425.345H331.85L338.926 412.976H325.124L318.061 425.345Z" fill="#1A1F22"/>
<path d="M507.645 412.976H493.843L486.779 425.345H500.569L507.645 412.976Z" fill="#1A1F22"/>
<path d="M451.397 412.976H437.607L430.544 425.345H444.333L451.397 412.976Z" fill="#1A1F22"/>
<path d="M479.521 412.976H465.732L458.655 425.345H472.445L479.521 412.976Z" fill="#1A1F22"/>
<path d="M220.043 439.171L184.569 574.923H263.683L228.21 439.171C227.994 438.248 227.473 437.426 226.732 436.837C225.991 436.248 225.072 435.928 224.126 435.928C223.18 435.928 222.262 436.248 221.52 436.837C220.779 437.426 220.258 438.248 220.043 439.171Z" fill="url(#paint1_linear)" stroke="#1A1F22" stroke-linecap="round" stroke-linejoin="round"/>
<path d="M184.569 574.923H249.037L216.796 451.58L184.569 574.923Z" fill="#1A1F22" stroke="#1A1F22" stroke-linecap="round" stroke-linejoin="round"/>
<path d="M271.668 571.931H172.987C170.118 571.931 167.793 574.261 167.793 577.134V577.798C167.793 580.671 170.118 583.001 172.987 583.001H271.668C274.536 583.001 276.861 580.671 276.861 577.798V577.134C276.861 574.261 274.536 571.931 271.668 571.931Z" fill="url(#paint2_linear)" stroke="#1A1F22" stroke-linecap="round" stroke-linejoin="round"/>
<path d="M237.895 571.931H172.987C170.118 571.931 167.793 574.261 167.793 577.134V577.798C167.793 580.671 170.118 583.001 172.987 583.001H237.895C240.764 583.001 243.089 580.671 243.089 577.798V577.134C243.089 574.261 240.764 571.931 237.895 571.931Z" fill="#1A1F22" stroke="#1A1F22" stroke-linecap="round" stroke-linejoin="round"/>
<path d="M198.722 520.763H249.529L243.388 497.26H204.863L198.722 520.763Z" fill="white" stroke="#1A1F22" stroke-linecap="round" stroke-linejoin="round"/>
<path d="M198.722 520.763H234.883L228.741 497.26H204.863L198.722 520.763Z" fill="#BABABA" stroke="#1A1F22" stroke-linecap="round" stroke-linejoin="round"/>
<path opacity="0.3" d="M516.499 223.715L470.859 148.418L369.997 149.524L325.045 223.715H516.499Z" fill="white"/>
<path d="M324.5 224.196H177.219C173.62 224.196 170.169 225.628 167.625 228.177C165.08 230.726 163.65 234.183 163.65 237.788V495.178L324.5 224.196Z" fill="#666666" stroke="#1A1F22" stroke-miterlimit="10"/>
<path d="M516.811 224.196H664.092C667.69 224.196 671.142 225.628 673.686 228.177C676.231 230.726 677.66 234.183 677.66 237.788V495.178L516.811 224.196Z" fill="#666666" stroke="#1A1F22" stroke-miterlimit="10"/>
<path d="M428.887 154.471C433.334 150.016 433.334 142.793 428.886 138.338C424.439 133.883 417.229 133.883 412.782 138.338C408.335 142.793 408.335 150.016 412.782 154.471C417.229 158.926 424.439 158.926 428.887 154.471Z" fill="white" stroke="#1A1F22" stroke-linecap="round" stroke-linejoin="round"/>
<path d="M421.156 54.2887V1" stroke="#0BCAFF" stroke-width="2" stroke-linecap="round" stroke-linejoin="round"/>
<path d="M421.156 89.4848V54.2886" stroke="#0BCAFF" stroke-width="2" stroke-miterlimit="10"/>
<path d="M403.523 89.4849L368.361 150.474H473.223L438.074 89.4849H403.523Z" fill="#ACFFB7" stroke="#1A1F22" stroke-width="0.97" stroke-miterlimit="10"/>
<path d="M407.042 89.4849L379.061 150.474H462.524L434.543 89.4849H407.042Z" fill="#1A1F22" stroke="#1A1F22" stroke-linecap="round" stroke-linejoin="round"/>
<path d="M368.361 150.487L143.122 530.05" stroke="#1A1F22" stroke-linecap="round" stroke-linejoin="round"/>
<path d="M473.47 150.487L695.567 526.512" stroke="#1A1F22" stroke-linecap="round" stroke-linejoin="round"/>
<path d="M184.504 460.711V250.3H308.426" stroke="#1A1F22" stroke-linecap="round" stroke-linejoin="round"/>
<path d="M532.535 250.3H656.808V461.764" stroke="#1A1F22" stroke-linecap="round" stroke-linejoin="round"/>
<path d="M378.889 393.984C378.756 395.82 378.076 397.265 376.85 398.32C375.631 399.375 374.022 399.902 372.022 399.902C369.834 399.902 368.111 399.168 366.854 397.699C365.604 396.222 364.979 394.199 364.979 391.629V390.586C364.979 388.945 365.268 387.5 365.846 386.25C366.424 385 367.248 384.043 368.318 383.379C369.397 382.707 370.647 382.371 372.068 382.371C374.037 382.371 375.623 382.898 376.826 383.953C378.029 385.007 378.725 386.488 378.912 388.394H375.397C375.311 387.293 375.002 386.496 374.471 386.004C373.947 385.504 373.147 385.254 372.068 385.254C370.897 385.254 370.018 385.675 369.432 386.519C368.854 387.355 368.557 388.656 368.541 390.422V391.711C368.541 393.554 368.818 394.902 369.373 395.754C369.936 396.605 370.818 397.031 372.022 397.031C373.107 397.031 373.916 396.785 374.447 396.293C374.986 395.793 375.295 395.023 375.373 393.984H378.889ZM392.218 389.707H388.152V399.668H384.753V389.707H380.757V386.988H392.218V389.707ZM406.063 393.445C406.063 395.398 405.618 396.964 404.727 398.144C403.844 399.316 402.649 399.902 401.141 399.902C399.86 399.902 398.825 399.457 398.036 398.566V404.543H394.649V386.988H397.79L397.907 388.23C398.727 387.246 399.797 386.754 401.118 386.754C402.68 386.754 403.895 387.332 404.762 388.488C405.63 389.644 406.063 391.238 406.063 393.269V393.445ZM402.676 393.199C402.676 392.019 402.465 391.109 402.044 390.468C401.63 389.828 401.024 389.507 400.227 389.507C399.165 389.507 398.434 389.914 398.036 390.726V395.918C398.45 396.754 399.188 397.172 400.251 397.172C401.868 397.172 402.676 395.847 402.676 393.199ZM416.24 399.668C416.084 399.363 415.971 398.984 415.9 398.531C415.08 399.445 414.014 399.902 412.701 399.902C411.459 399.902 410.428 399.543 409.607 398.824C408.795 398.105 408.389 397.199 408.389 396.105C408.389 394.761 408.885 393.73 409.877 393.011C410.877 392.293 412.318 391.929 414.201 391.922H415.76V391.195C415.76 390.609 415.607 390.14 415.303 389.789C415.006 389.437 414.533 389.261 413.885 389.261C413.314 389.261 412.865 389.398 412.537 389.672C412.217 389.945 412.057 390.32 412.057 390.797H408.67C408.67 390.062 408.896 389.382 409.35 388.757C409.803 388.132 410.443 387.644 411.271 387.293C412.1 386.933 413.029 386.754 414.06 386.754C415.623 386.754 416.861 387.148 417.775 387.937C418.697 388.718 419.158 389.82 419.158 391.242V396.738C419.166 397.941 419.334 398.851 419.662 399.468V399.668H416.24ZM413.439 397.312C413.939 397.312 414.4 397.203 414.822 396.984C415.244 396.757 415.557 396.457 415.76 396.082V393.902H414.494C412.799 393.902 411.896 394.488 411.787 395.66L411.775 395.859C411.775 396.281 411.924 396.629 412.221 396.902C412.517 397.175 412.924 397.312 413.439 397.312ZM433.472 399.668H430.073V394.793H425.866V399.668H422.48V386.988H425.866V392.074H430.073V386.988H433.472V399.668ZM444.457 386.988H447.844V399.668H444.457V391.839L440.215 399.668H436.817V386.988H440.215V394.804L444.457 386.988ZM451.154 386.988H454.541V396.937H458.783V386.988H462.181V396.961H464.08L463.845 403.429H460.693V399.668H451.154V386.988ZM473.847 399.668C473.69 399.363 473.577 398.984 473.507 398.531C472.687 399.445 471.62 399.902 470.308 399.902C469.065 399.902 468.034 399.543 467.214 398.824C466.401 398.105 465.995 397.199 465.995 396.105C465.995 394.761 466.491 393.73 467.483 393.011C468.483 392.293 469.925 391.929 471.808 391.922H473.366V391.195C473.366 390.609 473.214 390.14 472.909 389.789C472.612 389.437 472.14 389.261 471.491 389.261C470.921 389.261 470.472 389.398 470.144 389.672C469.823 389.945 469.663 390.32 469.663 390.797H466.276C466.276 390.062 466.503 389.382 466.956 388.757C467.409 388.132 468.05 387.644 468.878 387.293C469.706 386.933 470.636 386.754 471.667 386.754C473.23 386.754 474.468 387.148 475.382 387.937C476.304 388.718 476.765 389.82 476.765 391.242V396.738C476.772 397.941 476.94 398.851 477.269 399.468V399.668H473.847ZM471.046 397.312C471.546 397.312 472.007 397.203 472.429 396.984C472.851 396.757 473.163 396.457 473.366 396.082V393.902H472.101C470.405 393.902 469.503 394.488 469.394 395.66L469.382 395.859C469.382 396.281 469.53 396.629 469.827 396.902C470.124 397.175 470.53 397.312 471.046 397.312Z" fill="#1C1C1C"/>
<path d="M332.227 458.662V449.152H336.085C337.386 449.152 338.376 449.381 339.056 449.838C339.735 450.289 340.075 450.94 340.075 451.789C340.075 452.229 339.938 452.624 339.662 452.976C339.393 453.321 338.991 453.588 338.458 453.776C339.079 453.904 339.571 454.165 339.935 454.558C340.298 454.95 340.48 455.413 340.48 455.946C340.48 456.831 340.151 457.505 339.495 457.968C338.845 458.431 337.907 458.662 336.683 458.662H332.227ZM334.362 454.61V456.975H336.7C337.796 456.975 338.344 456.582 338.344 455.797C338.344 455.006 337.787 454.61 336.674 454.61H334.362ZM334.362 453.081H336.12C337.333 453.081 337.94 452.724 337.94 452.009C337.94 451.259 337.365 450.872 336.217 450.849H334.362V453.081ZM350.719 457.133C351.252 457.133 351.694 456.978 352.046 456.667C352.398 456.357 352.585 455.973 352.608 455.516H354.621C354.598 456.108 354.413 456.661 354.067 457.177C353.722 457.687 353.253 458.091 352.661 458.39C352.069 458.689 351.431 458.838 350.745 458.838C349.415 458.838 348.36 458.407 347.581 457.546C346.802 456.685 346.412 455.495 346.412 453.978V453.758C346.412 452.311 346.799 451.153 347.572 450.286C348.346 449.413 349.4 448.977 350.736 448.977C351.867 448.977 352.787 449.308 353.496 449.97C354.211 450.626 354.586 451.49 354.621 452.563H352.608C352.585 452.018 352.398 451.569 352.046 451.218C351.7 450.866 351.258 450.691 350.719 450.691C350.027 450.691 349.494 450.943 349.119 451.446C348.744 451.944 348.554 452.703 348.548 453.723V454.066C348.548 455.097 348.732 455.867 349.102 456.377C349.477 456.881 350.016 457.133 350.719 457.133ZM363.718 450.849H360.633V458.662H358.497V450.849H355.447V449.152H363.718V450.849ZM370.688 458.662C370.594 458.481 370.512 458.185 370.441 457.775C369.762 458.484 368.93 458.838 367.945 458.838C366.99 458.838 366.211 458.566 365.607 458.021C365.004 457.476 364.702 456.802 364.702 455.999C364.702 454.985 365.077 454.209 365.827 453.67C366.583 453.125 367.661 452.853 369.062 452.853H370.371V452.229C370.371 451.736 370.233 451.344 369.958 451.051C369.683 450.752 369.264 450.603 368.701 450.603C368.215 450.603 367.816 450.726 367.506 450.972C367.195 451.212 367.04 451.52 367.04 451.895H364.904C364.904 451.373 365.077 450.887 365.423 450.436C365.769 449.979 366.237 449.621 366.829 449.363C367.427 449.106 368.092 448.977 368.824 448.977C369.938 448.977 370.825 449.258 371.487 449.82C372.149 450.377 372.489 451.162 372.507 452.176V456.465C372.507 457.32 372.627 458.003 372.867 458.513V458.662H370.688ZM368.341 457.124C368.763 457.124 369.158 457.022 369.527 456.817C369.902 456.611 370.184 456.336 370.371 455.99V454.197H369.22C368.429 454.197 367.834 454.335 367.436 454.61C367.037 454.886 366.838 455.276 366.838 455.779C366.838 456.19 366.973 456.518 367.242 456.764C367.518 457.004 367.884 457.124 368.341 457.124ZM374.783 456.957C375.375 456.295 375.771 455.668 375.97 455.076C376.175 454.479 376.298 453.717 376.339 452.791L376.462 449.152H383.063V456.957H384.381V461.492H382.254V458.662H376.154V461.492H373.992L374.001 456.957H374.783ZM377.288 456.957H380.936V450.989H378.536L378.475 452.809C378.393 454.555 377.997 455.938 377.288 456.957ZM391.685 449.152H393.812V458.662H391.685V452.317L387.958 458.662H385.831V449.152H387.958V455.498L391.685 449.152ZM402.021 449.152H404.148V458.662H402.021V452.317L398.294 458.662H396.167V449.152H398.294V455.498L402.021 449.152ZM419.23 454.004C419.23 455.475 418.896 456.65 418.228 457.528C417.56 458.401 416.663 458.838 415.538 458.838C414.495 458.838 413.66 458.495 413.033 457.81V462.318H410.898V449.152H412.866L412.954 450.119C413.581 449.358 414.434 448.977 415.512 448.977C416.672 448.977 417.58 449.41 418.236 450.277C418.898 451.139 419.23 452.337 419.23 453.872V454.004ZM417.103 453.819C417.103 452.87 416.912 452.117 416.531 451.561C416.156 451.004 415.617 450.726 414.914 450.726C414.041 450.726 413.414 451.086 413.033 451.807V456.026C413.42 456.764 414.053 457.133 414.932 457.133C415.611 457.133 416.142 456.86 416.523 456.316C416.909 455.765 417.103 454.933 417.103 453.819ZM426.727 458.662C426.633 458.481 426.551 458.185 426.481 457.775C425.801 458.484 424.969 458.838 423.984 458.838C423.029 458.838 422.25 458.566 421.647 458.021C421.043 457.476 420.741 456.802 420.741 455.999C420.741 454.985 421.116 454.209 421.866 453.67C422.622 453.125 423.7 452.853 425.101 452.853H426.41V452.229C426.41 451.736 426.273 451.344 425.997 451.051C425.722 450.752 425.303 450.603 424.74 450.603C424.254 450.603 423.856 450.726 423.545 450.972C423.234 451.212 423.079 451.52 423.079 451.895H420.943C420.943 451.373 421.116 450.887 421.462 450.436C421.808 449.979 422.276 449.621 422.868 449.363C423.466 449.106 424.131 448.977 424.863 448.977C425.977 448.977 426.864 449.258 427.526 449.82C428.189 450.377 428.528 451.162 428.546 452.176V456.465C428.546 457.32 428.666 458.003 428.906 458.513V458.662H426.727ZM424.38 457.124C424.802 457.124 425.197 457.022 425.566 456.817C425.941 456.611 426.223 456.336 426.41 455.99V454.197H425.259C424.468 454.197 423.873 454.335 423.475 454.61C423.076 454.886 422.877 455.276 422.877 455.779C422.877 456.19 423.012 456.518 423.281 456.764C423.557 457.004 423.923 457.124 424.38 457.124ZM437.985 451.754C437.985 452.176 437.857 452.566 437.599 452.923C437.347 453.275 436.989 453.556 436.526 453.767C437.616 454.148 438.161 454.883 438.161 455.973C438.161 456.846 437.807 457.543 437.098 458.065C436.389 458.58 435.44 458.838 434.25 458.838C433.523 458.838 432.861 458.718 432.264 458.478C431.666 458.232 431.2 457.886 430.866 457.441C430.532 456.989 430.365 456.456 430.365 455.841H432.492C432.492 456.228 432.665 456.553 433.011 456.817C433.357 457.074 433.793 457.203 434.32 457.203C434.842 457.203 435.255 457.083 435.56 456.843C435.87 456.597 436.025 456.277 436.025 455.885C436.025 455.422 435.891 455.088 435.621 454.883C435.352 454.678 434.936 454.575 434.373 454.575H432.844V453.037H434.426C435.381 453.026 435.858 452.633 435.858 451.859C435.858 451.473 435.721 451.171 435.445 450.954C435.17 450.737 434.792 450.629 434.312 450.629C433.843 450.629 433.447 450.746 433.125 450.981C432.803 451.209 432.642 451.499 432.642 451.851H430.515C430.515 451.013 430.866 450.327 431.569 449.794C432.273 449.255 433.166 448.985 434.25 448.985C435.428 448.985 436.345 449.226 437.001 449.706C437.657 450.187 437.985 450.869 437.985 451.754ZM448.304 454.004C448.304 455.475 447.97 456.65 447.302 457.528C446.634 458.401 445.737 458.838 444.612 458.838C443.569 458.838 442.734 458.495 442.107 457.81V462.318H439.972V449.152H441.94L442.028 450.119C442.655 449.358 443.508 448.977 444.586 448.977C445.746 448.977 446.654 449.41 447.311 450.277C447.973 451.139 448.304 452.337 448.304 453.872V454.004ZM446.177 453.819C446.177 452.87 445.986 452.117 445.606 451.561C445.231 451.004 444.691 450.726 443.988 450.726C443.115 450.726 442.488 451.086 442.107 451.807V456.026C442.494 456.764 443.127 457.133 444.006 457.133C444.686 457.133 445.216 456.86 445.597 456.316C445.983 455.765 446.177 454.933 446.177 453.819ZM455.801 458.662C455.707 458.481 455.625 458.185 455.555 457.775C454.875 458.484 454.043 458.838 453.059 458.838C452.104 458.838 451.324 458.566 450.721 458.021C450.117 457.476 449.815 456.802 449.815 455.999C449.815 454.985 450.19 454.209 450.94 453.67C451.696 453.125 452.774 452.853 454.175 452.853H455.484V452.229C455.484 451.736 455.347 451.344 455.071 451.051C454.796 450.752 454.377 450.603 453.815 450.603C453.328 450.603 452.93 450.726 452.619 450.972C452.309 451.212 452.153 451.52 452.153 451.895H450.018C450.018 451.373 450.19 450.887 450.536 450.436C450.882 449.979 451.351 449.621 451.942 449.363C452.54 449.106 453.205 448.977 453.938 448.977C455.051 448.977 455.939 449.258 456.601 449.82C457.263 450.377 457.603 451.162 457.62 452.176V456.465C457.62 457.32 457.74 458.003 457.981 458.513V458.662H455.801ZM453.454 457.124C453.876 457.124 454.272 457.022 454.641 456.817C455.016 456.611 455.297 456.336 455.484 455.99V454.197H454.333C453.542 454.197 452.947 454.335 452.549 454.61C452.15 454.886 451.951 455.276 451.951 455.779C451.951 456.19 452.086 456.518 452.356 456.764C452.631 457.004 452.997 457.124 453.454 457.124ZM464.335 449.68C465.53 449.68 466.488 450.081 467.209 450.884C467.93 451.681 468.29 452.765 468.29 454.136V454.241C468.29 455.612 467.898 456.723 467.112 457.572C466.333 458.422 465.273 458.847 463.931 458.847C462.624 458.847 461.569 458.413 460.767 457.546C459.964 456.679 459.563 455.495 459.563 453.995V453.38C459.563 451.329 459.926 449.706 460.652 448.511C461.379 447.316 462.463 446.568 463.904 446.27C464.713 446.106 465.234 445.933 465.469 445.751C465.709 445.564 465.829 445.312 465.829 444.995H467.552C467.552 445.587 467.455 446.068 467.262 446.437C467.068 446.806 466.773 447.108 466.374 447.342C465.976 447.57 465.29 447.787 464.317 447.992C463.427 448.18 462.747 448.514 462.278 448.994C461.815 449.475 461.505 450.14 461.347 450.989C462.196 450.116 463.192 449.68 464.335 449.68ZM463.913 451.394C463.222 451.394 462.68 451.628 462.287 452.097C461.895 452.56 461.698 453.275 461.698 454.241C461.698 455.155 461.892 455.867 462.278 456.377C462.665 456.887 463.216 457.142 463.931 457.142C464.64 457.142 465.188 456.887 465.574 456.377C465.967 455.861 466.163 455.088 466.163 454.057C466.163 453.236 465.967 452.589 465.574 452.114C465.188 451.634 464.634 451.394 463.913 451.394ZM469.565 453.819C469.565 452.888 469.749 452.05 470.118 451.306C470.487 450.556 471.006 449.982 471.674 449.583C472.342 449.179 473.109 448.977 473.977 448.977C475.26 448.977 476.3 449.39 477.097 450.216C477.899 451.042 478.333 452.138 478.398 453.503L478.406 454.004C478.406 454.942 478.225 455.779 477.861 456.518C477.504 457.256 476.988 457.827 476.315 458.232C475.647 458.636 474.873 458.838 473.994 458.838C472.652 458.838 471.577 458.393 470.769 457.502C469.966 456.606 469.565 455.413 469.565 453.925V453.819ZM471.7 454.004C471.7 454.983 471.902 455.75 472.307 456.307C472.711 456.858 473.273 457.133 473.994 457.133C474.715 457.133 475.274 456.852 475.673 456.289C476.077 455.727 476.279 454.903 476.279 453.819C476.279 452.859 476.071 452.097 475.655 451.534C475.245 450.972 474.686 450.691 473.977 450.691C473.279 450.691 472.726 450.969 472.315 451.526C471.905 452.076 471.7 452.902 471.7 454.004ZM487.433 450.849H484.348V458.662H482.212V450.849H479.162V449.152H487.433V450.849ZM492.24 454.901H491.159V458.662H489.023V449.152H491.159V452.949H492.1L494.728 449.152H497.364L493.928 453.705L497.654 458.662H494.877L492.24 454.901ZM504.765 449.152H506.892V458.662H504.765V452.317L501.038 458.662H498.911V449.152H501.038V455.498L504.765 449.152Z" fill="#1C1C1C"/>
<g clip-path="url(#clip0)">
<path fill-rule="evenodd" clip-rule="evenodd" d="M616.281 289.23L582.333 224.961L616.281 160.686L650.23 224.961L745.146 404.671H677.249L616.281 289.23Z" fill="url(#paint3_linear)"/>
</g>
<path fill-rule="evenodd" clip-rule="evenodd" d="M114.017 320.672H216.753L103.882 494.658H1.14648L114.017 320.672Z" stroke="white" stroke-miterlimit="10"/>
<defs>
<linearGradient id="paint0_linear" x1="314.152" y1="422.695" x2="528.069" y2="422.695" gradientUnits="userSpaceOnUse">
<stop stop-color="#ACFFB7"/>
<stop offset="0.520833" stop-color="#0BCAFF"/>
<stop offset="1" stop-color="#1F93FF"/>
</linearGradient>
<linearGradient id="paint1_linear" x1="184.569" y1="545.138" x2="266.277" y2="545.138" gradientUnits="userSpaceOnUse">
<stop stop-color="#ACFFB7"/>
<stop offset="0.520833" stop-color="#0BCAFF"/>
<stop offset="1" stop-color="#1F93FF"/>
</linearGradient>
<linearGradient id="paint2_linear" x1="167.793" y1="580.629" x2="280.437" y2="580.629" gradientUnits="userSpaceOnUse">
<stop stop-color="#ACFFB7"/>
<stop offset="0.520833" stop-color="#0BCAFF"/>
<stop offset="1" stop-color="#1F93FF"/>
</linearGradient>
<linearGradient id="paint3_linear" x1="582.333" y1="282.678" x2="745.146" y2="282.678" gradientUnits="userSpaceOnUse">
<stop stop-color="#ACFFB7"/>
<stop offset="0.5" stop-color="#0BCAFF"/>
<stop offset="1" stop-color="#1F93FF"/>
</linearGradient>
<clipPath id="clip0">
<rect width="162.813" height="243.98" fill="white" transform="translate(582.333 160.686)"/>
</clipPath>
</defs>
</svg>
