<svg width="302" height="208" viewBox="0 0 302 208" fill="none" xmlns="http://www.w3.org/2000/svg">
<path d="M282.737 167.719H301V1H38.9393H1V39.1324V206.999H262.029L282.737 167.719Z" stroke="white" stroke-miterlimit="10"/>
<path d="M290.723 207H301V187.456L290.723 207Z" stroke="white" stroke-miterlimit="10"/>
<path d="M235.034 97.0847C235.156 92.8736 234.432 88.6808 232.905 84.7546C231.377 80.8284 229.078 77.2483 226.143 74.2266C223.207 71.2048 219.695 68.8028 215.815 67.1625C211.935 65.5221 207.765 64.677 203.552 64.677C199.339 64.677 195.169 65.5221 191.289 67.1625C187.408 68.8028 183.897 71.2048 180.961 74.2266C178.026 77.2483 175.726 80.8284 174.199 84.7546C172.672 88.6808 171.948 92.8736 172.07 97.0847C172.07 114.459 203.539 163.724 203.539 163.724C203.539 163.724 235.034 114.459 235.034 97.0847Z" stroke="white" stroke-miterlimit="10"/>
<path d="M215.837 95.8152C215.843 98.2484 215.126 100.628 213.778 102.654C212.43 104.68 210.511 106.26 208.265 107.195C206.018 108.129 203.545 108.377 201.158 107.905C198.771 107.434 196.578 106.265 194.855 104.546C193.133 102.827 191.959 100.636 191.482 98.2505C191.006 95.8644 191.248 93.3905 192.178 91.1421C193.108 88.8936 194.684 86.9717 196.706 85.6194C198.729 84.267 201.108 83.5452 203.541 83.5452C206.797 83.5452 209.921 84.837 212.227 87.1374C214.532 89.4377 215.83 92.5585 215.837 95.8152Z" stroke="white" stroke-miterlimit="10"/>
<path d="M120 62.7863C120.105 59.7012 119.587 56.6265 118.479 53.7455C117.37 50.8644 115.693 48.236 113.548 46.0165C111.403 43.7971 108.833 42.032 105.991 40.8266C103.149 39.6212 100.093 39 97.0064 39C93.9195 39 90.8642 39.6212 88.0224 40.8266C85.1806 42.032 82.6106 43.7971 80.4652 46.0165C78.3197 48.236 76.6427 50.8644 75.5343 53.7455C74.4259 56.6265 73.9086 59.7012 74.0132 62.7863C74.0132 75.4796 96.9932 111.47 96.9932 111.47C96.9932 111.47 120 75.4796 120 62.7863Z" stroke="white" stroke-miterlimit="10"/>
<path d="M106.066 61.8344C106.066 63.6074 105.54 65.3406 104.555 66.8148C103.57 68.2891 102.17 69.4381 100.532 70.1167C98.894 70.7952 97.0913 70.9728 95.3523 70.6269C93.6134 70.2809 92.0161 69.4271 90.7623 68.1734C89.5086 66.9196 88.6549 65.3223 88.309 63.5834C87.9631 61.8444 88.1405 60.0419 88.819 58.4038C89.4975 56.7657 90.6465 55.3657 92.1207 54.3806C93.5949 53.3956 95.3282 52.8698 97.1013 52.8698C98.2785 52.8698 99.4444 53.1016 100.532 53.5522C101.62 54.0027 102.608 54.663 103.44 55.4955C104.273 56.3279 104.933 57.3161 105.384 58.4038C105.834 59.4914 106.066 60.6572 106.066 61.8344V61.8344Z" stroke="white" stroke-miterlimit="10"/>
<path d="M116.959 108.297C130.34 108.561 140.759 108.297 148.401 108.297C163.845 108.297 168.684 112.555 167.335 122.365C166.41 129.162 147 130.087 126.796 130.299C101.727 130.299 74.5156 131.991 74.5156 149.339C74.5156 165.866 95.3803 165.205 128.489 165.523C149.829 165.734 164.347 164.385 194.176 163.857" stroke="white" stroke-miterlimit="10"/>
</svg>
