<svg width="302" height="208" viewBox="0 0 302 208" fill="none" xmlns="http://www.w3.org/2000/svg">
<path d="M282.737 167.719H301V1H38.9393H1V39.1324V206.999H262.029L282.737 167.719Z" stroke="white" stroke-miterlimit="10"/>
<path d="M290.723 207H301V187.456L290.723 207Z" stroke="white" stroke-miterlimit="10"/>
<path d="M150.987 103.988H68.8496V186.125H150.987V103.988Z" stroke="white" stroke-width="1.5" stroke-miterlimit="10"/>
<path d="M109.92 103.988V62.9188H192.058V145.057H150.989" stroke="white" stroke-width="1.5" stroke-miterlimit="10"/>
<path d="M150.987 62.9188V21.85H233.15V103.988H192.056" stroke="white" stroke-width="1.5" stroke-miterlimit="10"/>
<path d="M96.8955 161.311V126.434L126.766 143.873L96.8955 161.311Z" stroke="white" stroke-width="1.5" stroke-miterlimit="10"/>
<path d="M122.301 82.3804H154.515" stroke="white" stroke-width="1.5" stroke-miterlimit="10"/>
<path d="M121.882 95.4531H179.847" stroke="white" stroke-width="1.5" stroke-miterlimit="10"/>
<path d="M152.146 119.083H179.846" stroke="white" stroke-width="1.5" stroke-miterlimit="10"/>
<path d="M152.146 130.898H179.846" stroke="white" stroke-width="1.5" stroke-miterlimit="10"/>
<path d="M152.146 107.268H179.846" stroke="white" stroke-width="1.5" stroke-miterlimit="10"/>
<path d="M167.983 62.9189L179.083 46.9353L189.122 62.9189" stroke="white" stroke-width="1.5" stroke-miterlimit="10"/>
<path d="M185.249 56.7523L199.013 38.3761L225.405 74.3884H192.057" stroke="white" stroke-width="1.5" stroke-miterlimit="10"/>
<path d="M169.315 40.1768C169.315 40.9476 169.086 41.7011 168.658 42.342C168.23 42.9829 167.621 43.4824 166.909 43.7774C166.197 44.0723 165.413 44.1494 164.657 43.999C163.901 43.8486 163.207 43.4775 162.662 42.9325C162.117 42.3875 161.746 41.6931 161.595 40.9371C161.445 40.1811 161.522 39.3976 161.817 38.6855C162.112 37.9734 162.612 37.3646 163.252 36.9364C163.893 36.5082 164.647 36.2794 165.418 36.2794C166.451 36.2794 167.443 36.69 168.173 37.4209C168.904 38.1518 169.315 39.1432 169.315 40.1768V40.1768Z" stroke="white" stroke-width="1.5" stroke-miterlimit="10"/>
</svg>
