<svg width="302" height="208" viewBox="0 0 302 208" fill="none" xmlns="http://www.w3.org/2000/svg">
<path d="M165.197 167.058C162.562 164.077 161.11 160.233 161.115 156.254C161.114 154.109 161.536 151.985 162.356 150.003C163.175 148.021 164.377 146.22 165.893 144.703C167.408 143.186 169.207 141.982 171.188 141.161C173.168 140.34 175.291 139.917 177.434 139.916C181.764 139.914 185.917 141.633 188.981 144.694C192.044 147.756 193.767 151.909 193.771 156.242C193.775 160.221 192.323 164.064 189.689 167.046V190.955C189.684 191.315 189.585 191.667 189.402 191.977C189.22 192.286 188.959 192.542 188.646 192.72C188.334 192.897 187.98 192.99 187.621 192.988C187.262 192.986 186.909 192.89 186.598 192.709L177.434 187.225L168.279 192.722C167.968 192.902 167.615 192.998 167.256 193C166.897 193.002 166.543 192.91 166.23 192.732C165.918 192.555 165.657 192.298 165.474 191.989C165.292 191.679 165.193 191.327 165.188 190.968V167.058H165.197Z" stroke="white" stroke-miterlimit="10"/>
<path d="M177.442 164.287C182.117 164.287 185.907 160.495 185.907 155.818C185.907 151.14 182.117 147.348 177.442 147.348C172.768 147.348 168.978 151.14 168.978 155.818C168.978 160.495 172.768 164.287 177.442 164.287Z" stroke="white" stroke-miterlimit="10"/>
<path d="M198.338 176.022H208V26H94V176.022H155.831" stroke="white" stroke-miterlimit="10"/>
<path d="M110.423 51.6062H191.083" stroke="white" stroke-miterlimit="10"/>
<path d="M110.423 67.4087H191.083" stroke="white" stroke-miterlimit="10"/>
<path d="M110.423 83.2114H191.083" stroke="white" stroke-miterlimit="10"/>
<path d="M110.423 99.014H191.083" stroke="white" stroke-miterlimit="10"/>
<path d="M110.423 114.812H145.992" stroke="white" stroke-miterlimit="10"/>
<path d="M282.737 167.719H301V1H38.9393H1V39.1324V206.999H262.029L282.737 167.719Z" stroke="white" stroke-miterlimit="10"/>
<path d="M290.722 207H301V187.456L290.722 207Z" stroke="white" stroke-miterlimit="10"/>
</svg>
