<svg width="302" height="208" viewBox="0 0 302 208" fill="none" xmlns="http://www.w3.org/2000/svg">
<path d="M282.737 167.719H301V1H38.9393H1V39.1324V206.999H262.029L282.737 167.719Z" stroke="white" stroke-miterlimit="10"/>
<path d="M290.723 207H301V187.456L290.723 207Z" stroke="white" stroke-miterlimit="10"/>
<path d="M195.637 94.2269C195.463 86.7802 193.409 79.4986 189.665 73.0591C185.921 66.6196 180.609 61.2315 174.224 57.3961C167.839 53.5607 160.587 51.4025 153.143 51.1223C145.7 50.8421 138.307 52.4491 131.651 55.7937C124.995 59.1382 119.294 64.1116 115.076 70.2515C110.859 76.3913 108.263 83.498 107.53 90.9105C106.797 98.3231 107.95 105.801 110.883 112.648C113.816 119.495 118.433 125.489 124.304 130.072C126.511 133.652 128.111 137.57 129.041 141.671V141.671C129.041 142.285 129.246 142.874 129.323 143.463C129.448 144.436 129.912 145.333 130.633 145.998C131.354 146.663 132.286 147.053 133.266 147.099H170.366C171.442 147.159 172.503 146.822 173.348 146.152C174.193 145.482 174.762 144.525 174.949 143.463V143.463C175.9 137.663 178.159 132.156 181.555 127.358C184.67 124.455 187.352 121.118 189.517 117.45V117.45C193.663 110.423 195.781 102.384 195.637 94.2269V94.2269Z" stroke="white" stroke-miterlimit="10"/>
<path d="M173.642 156.649H129.321V163.562H173.642V156.649Z" stroke="white" stroke-linejoin="round"/>
<path d="M166.704 173.087H136.235V180H166.704V173.087Z" stroke="white" stroke-linejoin="round"/>
<path d="M105.51 38.4873L119.797 51.0076" stroke="white" stroke-miterlimit="10"/>
<path d="M196.991 38.4873L182.679 51.0076" stroke="white" stroke-miterlimit="10"/>
<path d="M152.828 21V41.7135" stroke="white" stroke-miterlimit="10"/>
<path d="M87 66.2675L107.534 72.8989" stroke="white" stroke-miterlimit="10"/>
<path d="M215.941 66.2675L195.406 72.8989" stroke="white" stroke-miterlimit="10"/>
</svg>
