<svg width="24" height="24" viewBox="0 0 24 24" fill="none" xmlns="http://www.w3.org/2000/svg">
<path d="M2.00201 12.0023C2.00318 16.9217 5.58042 21.1103 10.439 21.8813V14.8923H7.90201V12.0023H10.442V9.80229C10.3285 8.75983 10.6845 7.72088 11.4137 6.96722C12.1428 6.21356 13.1694 5.8233 14.215 5.90229C14.9656 5.91441 15.7142 5.98125 16.455 6.10229V8.56129H15.191C14.7559 8.50429 14.3184 8.64801 14.0018 8.95196C13.6852 9.2559 13.5238 9.68717 13.563 10.1243V12.0023H16.334L15.891 14.8933H13.563V21.8813C18.8175 21.0509 22.5021 16.2521 21.9475 10.9614C21.3929 5.67066 16.7933 1.74022 11.4808 2.01747C6.16838 2.29472 2.00286 6.6826 2.00201 12.0023Z" fill="#1C1C1C"/>
</svg>
