<svg width="19" height="19" viewBox="0 0 19 19" fill="none" xmlns="http://www.w3.org/2000/svg">
<path d="M9.00201 18.0411C6.54201 18.0411 6.25201 18.0281 5.29201 17.9861C4.54339 17.9615 3.80445 17.8093 3.10701 17.5361C1.90033 17.0665 0.946155 16.112 0.477014 14.9051C0.21432 14.2052 0.072632 13.4656 0.0580142 12.7181C0.00201416 11.7601 0.00201416 11.4461 0.00201416 9.00513C0.00201416 6.53813 0.0150142 6.25013 0.0580142 5.29513C0.0729518 4.54865 0.214635 3.81013 0.477014 3.11113C0.945645 1.90266 1.90137 0.947299 3.11001 0.479127C3.80866 0.215329 4.54736 0.0732713 5.29401 0.059127C6.24901 0.00512695 6.56301 0.00512695 9.00201 0.00512695C11.482 0.00512695 11.767 0.018127 12.712 0.059127C13.4606 0.0733936 14.2013 0.215437 14.902 0.479127C16.1103 0.94783 17.0659 1.903 17.535 3.11113C17.8021 3.82032 17.9446 4.57038 17.956 5.32813C18.012 6.28613 18.012 6.59913 18.012 9.03913C18.012 11.4791 17.998 11.7991 17.956 12.7461C17.9411 13.4943 17.7991 14.2345 17.536 14.9351C17.0657 16.1428 16.1101 17.0977 14.902 17.5671C14.2023 17.8293 13.4631 17.971 12.716 17.9861C11.761 18.0411 11.448 18.0411 9.00201 18.0411ZM8.96801 1.58813C6.52201 1.58813 6.26801 1.60013 5.31301 1.64313C4.743 1.65068 4.17849 1.75587 3.64401 1.95413C2.85477 2.25614 2.23024 2.87812 1.92501 3.66613C1.72523 4.20643 1.62002 4.77711 1.61401 5.35313C1.56101 6.32213 1.56101 6.57613 1.56101 9.00513C1.56101 11.4051 1.57001 11.6961 1.61401 12.6591C1.62297 13.2293 1.72811 13.7939 1.92501 14.3291C2.23069 15.1166 2.85511 15.7381 3.64401 16.0401C4.17813 16.2397 4.74287 16.3449 5.31301 16.3511C6.28101 16.4071 6.53601 16.4071 8.96801 16.4071C11.421 16.4071 11.675 16.3951 12.622 16.3511C13.1924 16.3442 13.7574 16.239 14.292 16.0401C15.0765 15.7355 15.6969 15.1154 16.002 14.3311C16.2014 13.7904 16.3066 13.2194 16.313 12.6431H16.324C16.367 11.6871 16.367 11.4321 16.367 8.98913C16.367 6.54613 16.356 6.28913 16.313 5.33413C16.304 4.76458 16.1989 4.20064 16.002 3.66613C15.6976 2.8807 15.0771 2.25942 14.292 1.95413C13.7575 1.75487 13.1925 1.64965 12.622 1.64313C11.655 1.58813 11.402 1.58813 8.96801 1.58813ZM9.00201 13.6241C7.132 13.6253 5.44543 12.4999 4.72888 10.7726C4.01232 9.04531 4.40692 7.05646 5.72865 5.73359C7.05037 4.41072 9.03888 4.0144 10.7668 4.72946C12.4947 5.44452 13.6216 7.13012 13.622 9.00013C13.6193 11.5512 11.5531 13.6192 9.00201 13.6241ZM9.00201 5.99813C7.34516 5.99813 6.00201 7.34127 6.00201 8.99813C6.00201 10.655 7.34516 11.9981 9.00201 11.9981C10.6589 11.9981 12.002 10.655 12.002 8.99813C11.9982 7.34287 10.6573 6.00198 9.00201 5.99813ZM13.802 5.28513C13.2074 5.28292 12.7269 4.79972 12.728 4.20514C12.7291 3.61056 13.2114 3.12913 13.806 3.12913C14.4006 3.12913 14.8829 3.61055 14.884 4.20513C14.8843 4.49199 14.7703 4.76715 14.5673 4.9698C14.3642 5.17246 14.0889 5.28592 13.802 5.28513Z" fill="#1C1C1C"/>
</svg>
