<svg width="177" height="39" viewBox="0 0 177 39" fill="none" xmlns="http://www.w3.org/2000/svg">
<g clip-path="url(#clip0)">
<path d="M51.1752 5.24362H48.6273L48.0553 6.81456H47.2422L49.5651 0.798889H50.2671L52.5927 6.81456H51.7796L51.1752 5.24362ZM48.8712 4.59219H50.9366L49.9012 1.77737L48.8712 4.59219Z" fill="black"/>
<path d="M55.0874 6.27302C55.2212 6.27368 55.3541 6.25192 55.4804 6.20868C55.6014 6.1675 55.7142 6.10582 55.8138 6.02639C55.9078 5.95217 55.9868 5.86125 56.0469 5.75831C56.1064 5.65245 56.1433 5.53567 56.1554 5.41517H56.8845C56.8736 5.61455 56.8171 5.80888 56.7192 5.9835C56.6204 6.16454 56.488 6.32552 56.3288 6.458C56.162 6.59784 55.9723 6.70845 55.7678 6.78505C55.5504 6.86612 55.3198 6.90701 55.0874 6.90569C54.782 6.91308 54.4789 6.85166 54.2011 6.72608C53.9577 6.61234 53.743 6.44662 53.5722 6.24085C53.4013 6.03082 53.2742 5.78937 53.1982 5.53045C53.1158 5.25275 53.0747 4.96467 53.0762 4.67528V4.50103C53.0747 4.21163 53.1158 3.92355 53.1982 3.64586C53.2736 3.38669 53.4008 3.14513 53.5722 2.93545C53.7418 2.72961 53.9557 2.56383 54.1984 2.45023C54.4762 2.32465 54.7793 2.26323 55.0847 2.27062C55.3307 2.26691 55.5753 2.30873 55.8057 2.39393C56.0122 2.47085 56.2018 2.58645 56.3641 2.73439C56.5219 2.8793 56.6482 3.05441 56.7354 3.2491C56.8253 3.45154 56.8758 3.66889 56.8845 3.88981H56.1554C56.1439 3.75651 56.11 3.62605 56.0551 3.50378C56.003 3.38619 55.9285 3.27968 55.8355 3.19013C55.7413 3.09826 55.6299 3.02542 55.5076 2.97566C55.3732 2.92243 55.2295 2.89601 55.0847 2.89792C54.8905 2.88632 54.6968 2.92769 54.5247 3.0175C54.3527 3.10732 54.2088 3.24215 54.1089 3.40727C54.0117 3.56694 53.9429 3.74195 53.9056 3.92466C53.8678 4.11449 53.8487 4.30753 53.8487 4.50103V4.67528C53.8486 4.87144 53.8676 5.06716 53.9056 5.25969C53.942 5.4414 54.0099 5.61553 54.1062 5.7744C54.2017 5.9256 54.3328 6.05162 54.4884 6.14166C54.6723 6.23846 54.8794 6.28387 55.0874 6.27302Z" fill="black"/>
<path d="M59.5686 6.27302C59.7024 6.27346 59.8352 6.25171 59.9617 6.20868C60.0816 6.16692 60.1934 6.10528 60.2923 6.02639C60.3871 5.95228 60.4671 5.86137 60.5282 5.75831C60.588 5.6528 60.6241 5.53575 60.6339 5.41517H61.3657C61.3534 5.61432 61.297 5.80835 61.2004 5.98349C61.0999 6.16337 60.9677 6.32406 60.8101 6.45799C60.6419 6.59733 60.4513 6.70787 60.2463 6.78505C60.0298 6.86621 59.8001 6.90711 59.5686 6.90568C59.2624 6.91301 58.9584 6.8516 58.6796 6.72607C58.4363 6.61234 58.2215 6.44661 58.0508 6.24084C57.8821 6.02938 57.7552 5.78837 57.6767 5.53044C57.5943 5.25274 57.5532 4.96467 57.5547 4.67527V4.50102C57.5532 4.21162 57.5943 3.92355 57.6767 3.64585C57.7544 3.3876 57.8813 3.14645 58.0508 2.93545C58.2208 2.72896 58.4357 2.5631 58.6796 2.45022C58.9564 2.32432 59.2587 2.26287 59.5632 2.27061C59.8092 2.26665 60.0538 2.30848 60.2842 2.39393C60.4916 2.47084 60.682 2.58642 60.8453 2.73439C61.0023 2.8794 61.1277 3.05453 61.2139 3.2491C61.3046 3.45138 61.3561 3.66872 61.3657 3.8898H60.6339C60.6245 3.75645 60.5915 3.62577 60.5363 3.50377C60.4843 3.38619 60.4097 3.27968 60.3167 3.19012C60.2221 3.09883 60.1108 3.02606 59.9888 2.97566C59.8239 2.91521 59.6481 2.88948 59.4726 2.90009C59.2971 2.91071 59.1258 2.95745 58.9696 3.03731C58.8145 3.12911 58.6836 3.25587 58.5874 3.40726C58.49 3.56653 58.422 3.74175 58.3869 3.92465C58.3468 4.1142 58.3268 4.30737 58.3272 4.50102V4.67527C58.3267 4.87159 58.3466 5.06744 58.3869 5.25968C58.422 5.44175 58.4899 5.61609 58.5874 5.77439C58.6819 5.92547 58.8121 6.05153 58.9669 6.14166C59.1517 6.2388 59.3597 6.28422 59.5686 6.27302Z" fill="black"/>
<path d="M62.0295 4.5386C62.0257 4.23161 62.0742 3.92619 62.1732 3.63518C62.2618 3.37117 62.4007 3.12639 62.5825 2.91405C62.7602 2.71019 62.9802 2.54653 63.2276 2.43419C63.4952 2.31628 63.7857 2.25773 64.0787 2.26262C64.376 2.25715 64.6711 2.31569 64.9433 2.43419C65.1916 2.5462 65.4126 2.70988 65.5911 2.91405C65.7736 3.12589 65.9126 3.37082 66.0004 3.63518C66.0981 3.9265 66.1466 4.23171 66.1441 4.5386V4.62975C66.1464 4.93663 66.0978 5.2418 66.0004 5.53317C65.9128 5.79684 65.7738 6.04094 65.5911 6.25162C65.4128 6.45355 65.1929 6.61535 64.946 6.72612C64.6756 6.84435 64.3824 6.90289 64.0868 6.89769C63.7929 6.90289 63.5015 6.84433 63.233 6.72612C62.9849 6.61611 62.7639 6.45423 62.5852 6.25162C62.4017 6.04108 62.2617 5.79699 62.1732 5.53317C62.0744 5.24212 62.0259 4.93672 62.0295 4.62975V4.5386ZM62.8047 4.62975C62.8034 4.84327 62.8307 5.05601 62.886 5.26241C62.9332 5.44939 63.014 5.62645 63.1246 5.78517C63.2296 5.93225 63.3667 6.05411 63.5257 6.14171C63.6999 6.22803 63.892 6.27298 64.0868 6.27298C64.2816 6.27298 64.4737 6.22803 64.6479 6.14171C64.8079 6.05552 64.9453 5.9334 65.049 5.78517C65.1594 5.62601 65.241 5.44914 65.2903 5.26241C65.3456 5.05601 65.3729 4.84327 65.3716 4.62975V4.5386C65.3727 4.32598 65.3453 4.11415 65.2903 3.90862C65.2429 3.71659 65.1603 3.53484 65.0463 3.37246C64.9417 3.22333 64.8035 3.10034 64.6425 3.01324C64.4695 2.92095 64.2752 2.87476 64.0787 2.8792C63.8894 2.87772 63.7029 2.92384 63.5366 3.01324C63.3787 3.10267 63.2427 3.2253 63.1381 3.37246C63.0261 3.53523 62.9452 3.71697 62.8996 3.90862C62.8445 4.11415 62.8172 4.32598 62.8183 4.5386L62.8047 4.62975Z" fill="black"/>
<path d="M67.1797 2.34302H67.9576V6.18994H70.0366V2.34302H70.8118V6.18994H71.3539L71.2807 8.14155H70.5868V6.80116H67.1797V2.34302Z" fill="black"/>
<path d="M75.106 2.34302H75.8785V6.81456H75.106V3.55473L73.0216 6.81456H72.2383V2.34302H73.0108V5.60821L75.106 2.34302Z" fill="black"/>
<path d="M79.9124 6.81456C79.879 6.74875 79.8561 6.6782 79.8446 6.60545C79.8284 6.52235 79.8121 6.43388 79.8013 6.33737C79.7269 6.41627 79.6453 6.48808 79.5573 6.55184C79.3657 6.69454 79.1459 6.79591 78.9122 6.8494C78.7825 6.87896 78.6496 6.89336 78.5165 6.8923C78.3022 6.89539 78.0891 6.85996 77.8877 6.78775C77.7108 6.73022 77.5469 6.63916 77.4052 6.51967C77.2757 6.40099 77.1716 6.25789 77.0989 6.09878C77.0256 5.93601 76.9886 5.75956 76.9905 5.58139C76.9864 5.3613 77.0356 5.14344 77.1341 4.94605C77.2297 4.7619 77.3692 4.60361 77.5407 4.48496C77.7354 4.35742 77.9523 4.26654 78.1804 4.21688C78.4533 4.14845 78.7337 4.11423 79.0152 4.11501H79.785V3.76383C79.791 3.6466 79.7724 3.52942 79.7304 3.41963C79.6884 3.30984 79.624 3.20981 79.5411 3.1258C79.4443 3.04108 79.3314 2.97634 79.209 2.93537C79.0866 2.8944 78.9571 2.87803 78.8282 2.88721C78.6931 2.88659 78.5587 2.90648 78.4298 2.94619C78.3193 2.97991 78.2156 3.03254 78.1235 3.10167C78.0421 3.16198 77.9746 3.23874 77.9256 3.32686C77.8788 3.40857 77.8545 3.50101 77.8551 3.59494H77.0772C77.079 3.42874 77.1228 3.26563 77.2046 3.12044C77.2942 2.95632 77.4169 2.81216 77.5651 2.69688C77.7349 2.56376 77.9265 2.4604 78.1316 2.39127C78.3702 2.30903 78.6216 2.26909 78.8743 2.27331C79.1035 2.27074 79.3318 2.30145 79.5519 2.36446C79.7498 2.41483 79.9346 2.5062 80.094 2.63254C80.2434 2.76151 80.3619 2.92177 80.441 3.10167C80.5286 3.30956 80.571 3.53331 80.5656 3.75846V5.83607C80.5663 5.99595 80.5799 6.15552 80.6063 6.31325C80.6261 6.46266 80.6662 6.60875 80.7256 6.74754V6.81187L79.9124 6.81456ZM78.6276 6.23282C78.761 6.23436 78.8937 6.21444 79.0206 6.17384C79.1386 6.13805 79.2516 6.0876 79.3568 6.02372C79.4559 5.96485 79.547 5.89368 79.6278 5.81194C79.6968 5.73698 79.7551 5.65311 79.8013 5.56263V4.65116H79.1562C78.8035 4.63155 78.4517 4.70169 78.1343 4.8549C78.0211 4.91373 77.9271 5.00317 77.8632 5.11281C77.7994 5.22244 77.7684 5.34777 77.7738 5.47416C77.7735 5.57666 77.7918 5.67837 77.828 5.77441C77.8641 5.86611 77.9206 5.94858 77.9934 6.01568C78.0712 6.08765 78.1636 6.14247 78.2644 6.17653C78.3812 6.21608 78.5042 6.23513 78.6276 6.23282Z" fill="black"/>
<path d="M81.8418 2.34302H82.617V6.18994H84.7068V2.34302H85.4793V6.18994H86.0214L85.9455 8.14155H85.2489V6.80116H81.8418V2.34302Z" fill="black"/>
<path d="M89.7648 2.34302H90.54V6.81456H89.7648V3.55473L87.6885 6.81456H86.916V2.34302H87.6885V5.60821L89.7648 2.34302Z" fill="black"/>
<path d="M95.2358 2.34302V6.81457H94.466V5.07474H93.3005L92.2352 6.81457H91.4004L92.5361 4.95946C92.2681 4.87046 92.035 4.70081 91.8693 4.47424C91.742 4.28222 91.6648 4.06202 91.6444 3.83328C91.6241 3.60455 91.6613 3.37439 91.7528 3.16334C91.8317 2.997 91.9464 2.8497 92.0889 2.73174C92.2497 2.60386 92.4337 2.50742 92.631 2.44757C92.8669 2.37472 93.113 2.33943 93.3601 2.34302H95.2358ZM92.4087 3.71558C92.409 3.80684 92.4246 3.89742 92.4548 3.98366C92.4874 4.07151 92.5392 4.15115 92.6066 4.21689C92.6837 4.29098 92.7762 4.34768 92.8776 4.3831C93.0005 4.42907 93.1312 4.45092 93.2625 4.44744H94.466V2.96497H93.3547C93.2092 2.96181 93.0643 2.98357 92.9264 3.0293C92.8198 3.06821 92.7215 3.12639 92.6364 3.20087C92.5636 3.26797 92.5071 3.35045 92.4711 3.44214C92.4321 3.52829 92.4109 3.62124 92.4087 3.71558Z" fill="black"/>
<path d="M98.3908 4.53857C98.387 4.23158 98.4356 3.92615 98.5345 3.63514C98.6231 3.37114 98.7621 3.12635 98.9438 2.91401C99.1218 2.71045 99.3418 2.54685 99.5889 2.43415C99.8575 2.3162 100.149 2.25764 100.443 2.26258C100.739 2.25742 101.033 2.31595 101.305 2.43415C101.553 2.54616 101.774 2.70984 101.952 2.91401C102.136 3.12563 102.276 3.37057 102.364 3.63514C102.46 3.92692 102.507 4.23192 102.505 4.53857V4.62971C102.507 4.93634 102.46 5.24131 102.364 5.53313C102.276 5.79695 102.136 6.04105 101.952 6.25159C101.774 6.45351 101.554 6.61531 101.307 6.72608C101.036 6.83933 100.745 6.89768 100.451 6.89768C100.157 6.89768 99.8654 6.83933 99.5943 6.72608C99.3462 6.61608 99.1252 6.45419 98.9465 6.25159C98.763 6.04105 98.623 5.79695 98.5345 5.53313C98.4358 5.24208 98.3872 4.93669 98.3908 4.62971V4.53857ZM99.1661 4.62971C99.1647 4.84323 99.1921 5.05598 99.2474 5.26238C99.2946 5.44935 99.3754 5.62642 99.4859 5.78513C99.5909 5.93221 99.728 6.05407 99.8871 6.14167C100.061 6.228 100.253 6.27295 100.448 6.27295C100.643 6.27295 100.835 6.228 101.009 6.14167C101.169 6.05548 101.307 5.93336 101.41 5.78513C101.521 5.62597 101.602 5.4491 101.652 5.26238C101.707 5.05598 101.734 4.84323 101.733 4.62971V4.53857C101.734 4.32595 101.707 4.11411 101.652 3.90858C101.604 3.71656 101.522 3.5348 101.408 3.37243C101.303 3.22399 101.166 3.10112 101.007 3.0132C100.833 2.9216 100.639 2.87545 100.443 2.87916C100.253 2.87709 100.067 2.92325 99.9006 3.0132C99.7414 3.1018 99.6044 3.22455 99.4994 3.37243C99.3874 3.5352 99.3066 3.71693 99.2609 3.90858C99.2059 4.11411 99.1785 4.32595 99.1796 4.53857L99.1661 4.62971Z" fill="black"/>
<path d="M107.171 6.81456H106.39V2.97568H104.311V6.81456H103.533V2.34302H107.165L107.171 6.81456Z" fill="black"/>
<path d="M110.286 6.89763C109.993 6.90156 109.703 6.84684 109.432 6.73679C109.185 6.6342 108.963 6.48171 108.779 6.28909C108.595 6.09126 108.453 5.85877 108.362 5.60549C108.262 5.3267 108.212 5.0327 108.215 4.73692V4.56267C108.21 4.23014 108.266 3.89939 108.381 3.58687C108.479 3.3209 108.628 3.07609 108.82 2.86574C108.997 2.67507 109.212 2.52188 109.451 2.41537C109.684 2.31404 109.937 2.26199 110.191 2.26256C110.479 2.25469 110.764 2.31152 111.026 2.42877C111.254 2.53478 111.452 2.69283 111.606 2.88986C111.763 3.09712 111.878 3.33309 111.942 3.58419C112.016 3.86885 112.052 4.16164 112.051 4.45544V4.79858H108.988C108.992 4.99567 109.027 5.19096 109.091 5.37763C109.15 5.54883 109.242 5.70717 109.362 5.84408C109.478 5.97619 109.622 6.08298 109.782 6.15774C109.952 6.23566 110.137 6.27504 110.324 6.27301C110.566 6.28076 110.806 6.2243 111.018 6.10948C111.21 5.99567 111.379 5.84642 111.514 5.66984L111.986 6.03442C111.907 6.1497 111.816 6.2566 111.715 6.35344C111.606 6.45735 111.485 6.54741 111.354 6.62151C111.205 6.70644 111.046 6.77135 110.88 6.81453C110.686 6.86771 110.487 6.89565 110.286 6.89763ZM110.186 2.88986C110.038 2.88719 109.89 2.91647 109.755 2.97565C109.623 3.0328 109.504 3.11579 109.405 3.2196C109.295 3.33694 109.208 3.47323 109.148 3.62172C109.076 3.79781 109.029 3.98266 109.007 4.17128H111.27V4.11498C111.262 3.96539 111.237 3.81712 111.197 3.67265C111.159 3.53168 111.094 3.39896 111.007 3.28126C110.92 3.16869 110.807 3.07706 110.679 3.01318C110.528 2.93137 110.358 2.88894 110.186 2.88986Z" fill="black"/>
<path d="M116.76 4.62969C116.763 4.93558 116.724 5.24046 116.644 5.53579C116.575 5.79343 116.46 6.03678 116.305 6.25424C116.159 6.45842 115.965 6.62398 115.74 6.73621C115.514 6.84844 115.264 6.90389 115.012 6.89763C114.756 6.90331 114.502 6.85865 114.264 6.76627C114.056 6.67916 113.871 6.54727 113.722 6.38024V8.52486H112.949V2.34298H113.654L113.692 2.83893C113.841 2.65559 114.031 2.5088 114.248 2.41C114.486 2.30692 114.744 2.2566 115.004 2.26256C115.265 2.25703 115.523 2.31309 115.757 2.42609C115.973 2.53719 116.158 2.69701 116.299 2.89254C116.459 3.10802 116.575 3.35198 116.641 3.61099C116.72 3.9148 116.758 4.22755 116.755 4.54122L116.76 4.62969ZM115.988 4.54122C115.988 4.32927 115.965 4.11792 115.917 3.91124C115.876 3.72685 115.8 3.55152 115.695 3.39385C115.599 3.24786 115.469 3.12658 115.315 3.03999C115.149 2.95109 114.962 2.90673 114.773 2.91131C114.653 2.90923 114.532 2.92458 114.416 2.95688C114.313 2.9851 114.216 3.02753 114.126 3.08288C114.04 3.13792 113.962 3.20471 113.895 3.28126C113.829 3.35634 113.771 3.43811 113.722 3.52521V5.66983C113.771 5.75777 113.829 5.84043 113.895 5.91646C113.962 5.99135 114.04 6.05635 114.126 6.10948C114.216 6.16533 114.315 6.20778 114.418 6.23548C114.537 6.26796 114.659 6.28331 114.782 6.28105C114.971 6.28635 115.158 6.24097 115.324 6.14969C115.475 6.06127 115.604 5.93922 115.7 5.79315C115.807 5.63402 115.882 5.45676 115.923 5.2704C115.97 5.06281 115.994 4.85057 115.993 4.63773L115.988 4.54122Z" fill="black"/>
<path d="M120.535 6.81454C120.504 6.74779 120.481 6.67758 120.467 6.60544C120.451 6.52233 120.437 6.43387 120.426 6.33736C120.351 6.41498 120.269 6.48668 120.182 6.55182C119.882 6.7761 119.515 6.89581 119.139 6.89228C118.925 6.89496 118.712 6.85955 118.51 6.78773C118.334 6.72958 118.171 6.63857 118.03 6.51965C117.9 6.40167 117.796 6.25839 117.724 6.09877C117.651 5.936 117.614 5.75954 117.616 5.58138C117.611 5.36151 117.659 5.14366 117.757 4.94604C117.853 4.76248 117.992 4.60439 118.163 4.48494C118.359 4.3578 118.577 4.26696 118.805 4.21686C119.08 4.1498 119.363 4.11737 119.646 4.12036H120.413V3.76917C120.419 3.65214 120.401 3.53507 120.359 3.42529C120.318 3.31552 120.254 3.21538 120.172 3.13115C120.075 3.04656 119.962 2.9819 119.839 2.94093C119.717 2.89997 119.588 2.88352 119.459 2.89256C119.324 2.89177 119.189 2.91166 119.06 2.95154C118.95 2.98526 118.846 3.03789 118.754 3.10702C118.672 3.16656 118.604 3.2435 118.556 3.33221C118.508 3.41366 118.483 3.50612 118.483 3.60028H117.708C117.708 3.43392 117.752 3.27049 117.835 3.12578C117.925 2.96167 118.047 2.81751 118.196 2.70222C118.365 2.56911 118.557 2.46574 118.762 2.39661C119 2.31457 119.25 2.27464 119.502 2.27866C119.732 2.27609 119.961 2.3068 120.182 2.36981C120.38 2.41986 120.565 2.51127 120.725 2.63788C120.876 2.76538 120.994 2.92604 121.071 3.10702C121.16 3.31471 121.203 3.53847 121.199 3.76381V5.84142C121.2 6.00117 121.213 6.16064 121.237 6.31859C121.259 6.46749 121.299 6.61326 121.356 6.75288V6.81722L120.535 6.81454ZM119.253 6.23281C119.386 6.23411 119.519 6.2142 119.646 6.17383C119.763 6.13804 119.875 6.08759 119.979 6.02371C120.078 5.96469 120.169 5.89354 120.25 5.81193C120.319 5.7376 120.377 5.65358 120.421 5.56261V4.65115H119.779C119.426 4.63153 119.074 4.70168 118.757 4.85489C118.643 4.91371 118.549 5.00315 118.486 5.11279C118.422 5.22243 118.391 5.34775 118.396 5.47415C118.396 5.57664 118.414 5.67835 118.45 5.7744C118.485 5.86664 118.542 5.94933 118.616 6.01566C118.694 6.08763 118.786 6.14245 118.887 6.17651C119.004 6.21637 119.128 6.23543 119.253 6.23281Z" fill="black"/>
<path d="M125.69 2.96496H124.175V6.81456H123.402V2.96496H121.914V2.34302H125.69V2.96496Z" fill="black"/>
<path d="M126.061 4.53857C126.058 4.23142 126.107 3.92599 126.207 3.63514C126.295 3.37078 126.434 3.12585 126.616 2.91401C126.794 2.71015 127.014 2.54649 127.261 2.43415C127.529 2.31625 127.82 2.25769 128.113 2.26258C128.409 2.25742 128.703 2.31595 128.974 2.43415C129.224 2.54583 129.446 2.70953 129.625 2.91401C129.807 3.12585 129.946 3.37078 130.034 3.63514C130.132 3.92646 130.18 4.23167 130.178 4.53857V4.62971C130.18 4.93659 130.132 5.24176 130.034 5.53313C129.947 5.7968 129.808 6.0409 129.625 6.25159C129.446 6.45382 129.225 6.61564 128.977 6.72608C128.706 6.83933 128.415 6.89768 128.121 6.89768C127.826 6.89768 127.535 6.83933 127.264 6.72608C127.017 6.61471 126.796 6.45303 126.616 6.25159C126.435 6.04023 126.296 5.79633 126.207 5.53313C126.107 5.24224 126.058 4.93684 126.061 4.62971V4.53857ZM126.839 4.62971C126.838 4.84303 126.864 5.05559 126.917 5.26238C126.965 5.44954 127.047 5.62661 127.158 5.78513C127.263 5.93221 127.401 6.05407 127.56 6.14167C127.732 6.23269 127.925 6.27796 128.121 6.27303C128.316 6.27735 128.509 6.23213 128.682 6.14167C128.841 6.05476 128.979 5.93278 129.083 5.78513C129.192 5.62584 129.273 5.44896 129.321 5.26238C129.377 5.05598 129.404 4.84323 129.403 4.62971V4.53857C129.404 4.32595 129.376 4.11411 129.321 3.90858C129.274 3.71709 129.192 3.53552 129.08 3.37243C128.975 3.22387 128.837 3.10102 128.676 3.0132C128.503 2.92126 128.309 2.87509 128.113 2.87916C127.923 2.87768 127.737 2.92381 127.57 3.0132C127.413 3.10263 127.277 3.22526 127.172 3.37243C127.059 3.535 126.977 3.71674 126.931 3.90858C126.878 4.11449 126.852 4.32614 126.852 4.53857L126.839 4.62971Z" fill="black"/>
<path d="M134.965 4.62972C134.967 4.93553 134.928 5.24024 134.849 5.53583C134.779 5.79363 134.664 6.03698 134.507 6.25428C134.362 6.45846 134.168 6.62401 133.942 6.73625C133.717 6.84848 133.467 6.90393 133.214 6.89767C132.959 6.90335 132.706 6.85869 132.469 6.76631C132.262 6.67888 132.076 6.54704 131.927 6.38028V8.5249H131.154V2.34302H131.862L131.897 2.83896C132.043 2.65782 132.228 2.51127 132.439 2.41004C132.677 2.30754 132.935 2.25724 133.195 2.26259C133.457 2.25705 133.716 2.3131 133.952 2.42612C134.166 2.53861 134.351 2.69818 134.494 2.89258C134.651 3.10884 134.766 3.35259 134.832 3.61103C134.914 3.91445 134.953 4.22739 134.949 4.54126L134.965 4.62972ZM134.193 4.54126C134.193 4.3293 134.17 4.11796 134.122 3.91128C134.08 3.72725 134.004 3.55211 133.9 3.39388C133.803 3.24848 133.673 3.12735 133.521 3.04002C133.354 2.95171 133.167 2.90738 132.978 2.91134C132.858 2.90887 132.737 2.92423 132.621 2.95692C132.418 3.01024 132.236 3.12339 132.1 3.28129C132.033 3.35632 131.974 3.43808 131.924 3.52524V5.66987C131.974 5.75788 132.033 5.84053 132.1 5.9165C132.167 5.99139 132.245 6.05638 132.331 6.10952C132.422 6.16537 132.52 6.20781 132.623 6.23551C132.742 6.26818 132.864 6.28354 132.987 6.28109C133.176 6.28693 133.363 6.24151 133.529 6.14973C133.681 6.06141 133.811 5.93938 133.908 5.79318C134.013 5.63349 134.089 5.45643 134.13 5.27043C134.178 5.06284 134.202 4.85061 134.201 4.63777L134.193 4.54126Z" fill="black"/>
<path d="M135.742 4.5386C135.739 4.23161 135.787 3.92619 135.886 3.63518C135.975 3.37117 136.114 3.12639 136.295 2.91405C136.473 2.71019 136.693 2.54653 136.94 2.43419C137.208 2.31628 137.499 2.25773 137.792 2.26262C138.089 2.25715 138.384 2.31569 138.656 2.43419C138.905 2.5462 139.126 2.70988 139.304 2.91405C139.486 3.12589 139.625 3.37082 139.713 3.63518C139.811 3.9265 139.859 4.23171 139.857 4.5386V4.62975C139.859 4.93663 139.811 5.2418 139.713 5.53317C139.626 5.79684 139.487 6.04094 139.304 6.25162C139.125 6.45423 138.904 6.61611 138.656 6.72612C138.386 6.8393 138.095 6.89761 137.801 6.89761C137.507 6.89761 137.216 6.8393 136.946 6.72612C136.698 6.61611 136.477 6.45423 136.298 6.25162C136.115 6.04108 135.975 5.79699 135.886 5.53317C135.787 5.24212 135.739 4.93672 135.742 4.62975V4.5386ZM136.518 4.62975C136.516 4.84327 136.544 5.05601 136.599 5.26241C136.646 5.44939 136.727 5.62645 136.837 5.78516C136.942 5.93225 137.08 6.05411 137.239 6.14171C137.413 6.22803 137.605 6.27298 137.8 6.27298C137.995 6.27298 138.187 6.22803 138.361 6.14171C138.521 6.05552 138.658 5.9334 138.762 5.78516C138.872 5.62601 138.954 5.44914 139.003 5.26241C139.058 5.05601 139.086 4.84327 139.084 4.62975V4.5386C139.086 4.32598 139.058 4.11415 139.003 3.90862C138.956 3.71659 138.873 3.53484 138.759 3.37246C138.655 3.22333 138.516 3.10034 138.355 3.01324C138.182 2.92129 137.988 2.87512 137.792 2.8792C137.598 2.87542 137.406 2.92161 137.236 3.01324C137.078 3.10267 136.942 3.2253 136.837 3.37246C136.725 3.53523 136.645 3.71697 136.599 3.90862C136.544 4.11415 136.517 4.32598 136.518 4.5386V4.62975Z" fill="black"/>
<path d="M140.898 6.81457V2.34302H142.66C142.921 2.34149 143.182 2.36665 143.438 2.41808C143.646 2.46016 143.844 2.53628 144.026 2.64327C144.181 2.73732 144.309 2.86937 144.398 3.02662C144.487 3.19146 144.531 3.37602 144.528 3.56278C144.529 3.76479 144.464 3.96169 144.341 4.12306C144.201 4.29941 144.013 4.43244 143.799 4.50641C143.934 4.53552 144.064 4.58622 144.184 4.65654C144.292 4.71985 144.389 4.80046 144.471 4.89513C144.548 4.98295 144.607 5.08498 144.644 5.19537C144.684 5.3054 144.705 5.42155 144.704 5.53851C144.708 5.73044 144.667 5.92066 144.582 6.09344C144.503 6.25212 144.383 6.38785 144.235 6.48751C144.071 6.60041 143.887 6.68139 143.693 6.7261C143.454 6.7823 143.209 6.80931 142.964 6.80652L140.898 6.81457ZM141.671 4.24102H142.668C143.391 4.24102 143.753 4.03192 143.753 3.61371C143.753 3.17943 143.387 2.96497 142.668 2.96497H141.679L141.671 4.24102ZM141.671 4.85223V6.19262H142.948C143.203 6.20993 143.457 6.14707 143.674 6.01301C143.752 5.95575 143.815 5.88027 143.856 5.79328C143.898 5.7063 143.917 5.6105 143.913 5.51439C143.917 5.41903 143.898 5.32398 143.857 5.23784C143.815 5.15171 143.752 5.07722 143.674 5.02112C143.457 4.88818 143.203 4.82627 142.948 4.84419L141.671 4.85223Z" fill="black"/>
<path d="M50.6186 12.4978H51.3938V16.9827H50.6186V13.7095L48.5342 16.9827H47.7617V12.4978H48.5342V15.763L50.6186 12.4978Z" fill="black"/>
<path d="M56.3278 16.9827H55.5554V15.074H53.4791V16.9827H52.7012V12.4978H53.4791V14.436H55.5554V12.4978H56.3278V16.9827Z" fill="black"/>
<path d="M57.4005 14.8166C57.3981 14.4913 57.4326 14.1666 57.5035 13.8489C57.5629 13.5803 57.6684 13.3237 57.8152 13.0902C57.9442 12.8864 58.1208 12.7163 58.3302 12.5943C58.5474 12.4729 58.7937 12.4118 59.0431 12.4173C59.2562 12.4121 59.4679 12.4523 59.6638 12.5353V10.6239H60.4363V12.5621C60.5355 12.5135 60.6401 12.4766 60.748 12.4522C60.8723 12.4301 60.9986 12.4211 61.1248 12.4254C61.375 12.4201 61.6221 12.4812 61.8403 12.6023C62.0498 12.7244 62.2264 12.8945 62.3553 13.0983C62.5022 13.3317 62.6076 13.5883 62.6671 13.8569C62.7393 14.1745 62.7738 14.4992 62.7701 14.8247V14.9105C62.773 15.2033 62.7374 15.4953 62.6643 15.779C62.6031 16.0229 62.4975 16.2536 62.3526 16.46C62.22 16.6464 62.0444 16.7989 61.8403 16.905C61.6214 17.0149 61.3783 17.0693 61.1329 17.0631C60.8947 17.0696 60.6579 17.0248 60.439 16.9318V18.6957H59.6665V16.9452C59.5731 16.9842 59.4759 17.0139 59.3765 17.0337C59.264 17.055 59.1495 17.0649 59.035 17.0631C58.7982 17.07 58.5635 17.0185 58.352 16.9132C58.1404 16.8079 57.9588 16.6521 57.8234 16.46C57.6765 16.2544 57.5698 16.0234 57.5089 15.779C57.4358 15.4953 57.4003 15.2033 57.4032 14.9105L57.4005 14.8166ZM58.173 14.9024C58.1722 15.1029 58.1904 15.3031 58.2272 15.5002C58.2565 15.6714 58.3171 15.8358 58.4061 15.9855C58.4858 16.1201 58.5986 16.2326 58.7341 16.3125C58.8824 16.4024 59.0535 16.4488 59.2274 16.4466C59.3092 16.4468 59.3909 16.4396 59.4713 16.4251C59.5378 16.4128 59.6031 16.3948 59.6665 16.3715V13.1278C59.6054 13.1038 59.5418 13.0867 59.4768 13.0768C59.3971 13.0632 59.3164 13.0569 59.2355 13.058C59.0584 13.0531 58.8841 13.1027 58.7368 13.2001C58.5974 13.2994 58.4848 13.4311 58.4088 13.5835C58.3199 13.7617 58.2596 13.9526 58.2299 14.1491C58.1934 14.3743 58.1753 14.602 58.1757 14.83L58.173 14.9024ZM61.9948 14.8166C61.9963 14.5883 61.9763 14.3604 61.9352 14.1357C61.9003 13.9383 61.8345 13.7474 61.7401 13.5701C61.6583 13.4175 61.5413 13.2861 61.3985 13.1867C61.2499 13.0899 61.075 13.0403 60.8971 13.0446C60.8063 13.0436 60.7155 13.0508 60.626 13.0661C60.5572 13.0798 60.49 13.1005 60.4255 13.1278V16.3635C60.4925 16.3864 60.5614 16.4035 60.6315 16.4144C60.7212 16.427 60.8118 16.4333 60.9025 16.4332C61.0699 16.4395 61.2359 16.4014 61.3832 16.3226C61.5305 16.2439 61.6538 16.1274 61.7401 15.9855C61.8325 15.8361 61.8976 15.6719 61.9325 15.5002C61.9739 15.3037 61.9939 15.1032 61.9921 14.9024L61.9948 14.8166Z" fill="black"/>
<path d="M63.5645 14.6934C63.562 14.3865 63.6106 14.0813 63.7082 13.7899C63.7969 13.5259 63.9358 13.2812 64.1175 13.0688C64.2948 12.8645 64.5149 12.7007 64.7626 12.589C65.0341 12.4758 65.3258 12.4175 65.6205 12.4175C65.9151 12.4175 66.2068 12.4758 66.4784 12.589C66.7277 12.7006 66.9496 12.8643 67.1289 13.0688C67.3106 13.2812 67.4495 13.5259 67.5382 13.7899C67.6349 14.0814 67.6825 14.3866 67.6791 14.6934V14.7845C67.6823 15.0912 67.6347 15.3964 67.5382 15.6879C67.4495 15.9511 67.3106 16.195 67.1289 16.4064C66.9491 16.6078 66.7283 16.7695 66.4811 16.8809C66.21 16.9941 65.9188 17.0525 65.6245 17.0525C65.3303 17.0525 65.0391 16.9941 64.768 16.8809C64.5202 16.7704 64.2993 16.6086 64.1202 16.4064C63.9367 16.1959 63.7967 15.9518 63.7082 15.6879C63.6108 15.3966 63.5623 15.0914 63.5645 14.7845V14.6934ZM64.3425 14.7845C64.3403 14.9979 64.3667 15.2107 64.4211 15.4172C64.4683 15.6042 64.5491 15.7812 64.6596 15.9399C64.7646 16.087 64.9017 16.2089 65.0608 16.2965C65.2341 16.3875 65.4283 16.4327 65.6245 16.4278C65.819 16.4324 66.0114 16.3872 66.1829 16.2965C66.343 16.2103 66.4804 16.0882 66.5841 15.9399C66.6944 15.7808 66.776 15.6039 66.8253 15.4172C66.8806 15.2108 66.9079 14.998 66.9066 14.7845V14.6934C66.9077 14.4807 66.8804 14.2689 66.8253 14.0634C66.778 13.8714 66.6953 13.6896 66.5814 13.5272C66.4771 13.3788 66.3399 13.2559 66.1802 13.168C66.0069 13.0764 65.8128 13.0303 65.6164 13.034C65.4225 13.0299 65.231 13.0761 65.0608 13.168C64.9016 13.2566 64.7645 13.3794 64.6596 13.5272C64.5476 13.69 64.4667 13.8717 64.4211 14.0634C64.3669 14.269 64.3405 14.4809 64.3425 14.6934V14.7845Z" fill="black"/>
<path d="M72.4673 14.7845C72.4705 15.0904 72.4313 15.3952 72.3507 15.6906C72.2834 15.9486 72.1685 16.1922 72.0119 16.409C71.8666 16.6132 71.6725 16.7788 71.447 16.891C71.2214 17.0032 70.9714 17.0587 70.719 17.0524C70.4634 17.0568 70.2093 17.0122 69.9709 16.9211C69.7633 16.8339 69.5781 16.7021 69.4288 16.535V18.6796H68.6562V12.4978H69.361L69.3989 12.9937C69.5489 12.811 69.7389 12.6643 69.9546 12.5648C70.1928 12.4617 70.4509 12.4114 70.7108 12.4173C70.9716 12.4113 71.2301 12.4674 71.4644 12.5809C71.6797 12.692 71.8654 12.8518 72.0065 13.0473C72.1661 13.2628 72.282 13.5068 72.348 13.7658C72.427 14.0696 72.4652 14.3823 72.4618 14.696L72.4673 14.7845ZM71.6948 14.696C71.6968 14.484 71.6731 14.2725 71.6243 14.066C71.5826 13.8816 71.5073 13.7063 71.402 13.5486C71.3038 13.3949 71.1665 13.2694 71.0038 13.1847C70.8411 13.1 70.6587 13.0591 70.475 13.0661C70.3541 13.064 70.2336 13.0794 70.1172 13.1117C70.015 13.1399 69.9174 13.1823 69.8272 13.2377C69.7416 13.2921 69.6649 13.3589 69.5995 13.436C69.5315 13.5104 69.4724 13.5922 69.4233 13.68V15.8246C69.4723 15.9132 69.5314 15.996 69.5995 16.0713C69.665 16.1467 69.7418 16.2118 69.8272 16.2643C69.9181 16.3201 70.0167 16.3626 70.1199 16.3903C70.2381 16.4227 70.3605 16.4381 70.4831 16.4358C70.6725 16.4411 70.8598 16.3958 71.0253 16.3045C71.177 16.2161 71.306 16.094 71.402 15.9479C71.5082 15.7888 71.5836 15.6115 71.6243 15.4252C71.6731 15.2178 71.6968 15.0054 71.6948 14.7925V14.696Z" fill="black"/>
<path d="M76.0534 15.956L77.5903 12.4978H78.5553V16.9827H77.7828V13.7176L76.3191 16.9827H75.777L74.2862 13.6613V16.9827H73.5137V12.4978H74.5166L76.0534 15.956Z" fill="black"/>
<path d="M82.5874 16.9828C82.5562 16.9163 82.5343 16.846 82.5223 16.7737C82.5061 16.6906 82.4898 16.6021 82.479 16.5056C82.4046 16.5845 82.323 16.6563 82.235 16.72C82.0434 16.8627 81.8236 16.9641 81.5899 17.0176C81.4602 17.0472 81.3273 17.0616 81.1942 17.0605C80.9799 17.0636 80.7668 17.0282 80.5653 16.9559C80.3884 16.8984 80.2246 16.8074 80.0829 16.6879C79.9534 16.5692 79.8493 16.4261 79.7766 16.267C79.7033 16.1042 79.6663 15.9278 79.6682 15.7496C79.6645 15.5299 79.7128 15.3123 79.8091 15.1143C79.9065 14.9305 80.0468 14.7724 80.2184 14.6532C80.4127 14.522 80.6294 14.4266 80.8581 14.3717C81.1333 14.3069 81.4154 14.2754 81.6983 14.2778H82.4681V13.9267C82.4741 13.8094 82.4555 13.6923 82.4135 13.5825C82.3715 13.4727 82.3071 13.3726 82.2242 13.2886C82.1274 13.2039 82.0145 13.1392 81.8921 13.0982C81.7697 13.0572 81.6402 13.0409 81.5113 13.05C81.3761 13.0481 81.2415 13.068 81.1129 13.109C81.0019 13.1416 80.898 13.1943 80.8066 13.2645C80.7252 13.3248 80.6577 13.4016 80.6087 13.4897C80.5619 13.5714 80.5376 13.6639 80.5382 13.7578H79.7603C79.7621 13.5916 79.8059 13.4285 79.8877 13.2833C79.9773 13.1192 80.1 12.975 80.2482 12.8597C80.418 12.7266 80.6096 12.6232 80.8147 12.5541C81.0533 12.4719 81.3047 12.4319 81.5574 12.4362C81.7866 12.4336 82.0149 12.4643 82.235 12.5273C82.434 12.5817 82.6189 12.6777 82.7771 12.8088C82.9265 12.9378 83.045 13.098 83.1241 13.2779C83.2102 13.4862 83.2527 13.7097 83.2488 13.9347V16.0123C83.2494 16.1722 83.263 16.3318 83.2894 16.4895C83.3088 16.6381 83.349 16.7834 83.4087 16.9211V16.9828H82.5874ZM81.3053 16.401C81.4387 16.4026 81.5714 16.3826 81.6983 16.342C81.8163 16.3062 81.9293 16.2558 82.0344 16.1919C82.1336 16.1331 82.2247 16.0619 82.3055 15.9801C82.3745 15.9052 82.4328 15.8213 82.479 15.7308V14.814H81.8339C81.4812 14.7944 81.1294 14.8645 80.812 15.0177C80.6988 15.0766 80.6047 15.166 80.5409 15.2756C80.4771 15.3853 80.4461 15.5106 80.4515 15.637C80.4512 15.7395 80.4695 15.8412 80.5057 15.9373C80.5418 16.029 80.5983 16.1114 80.671 16.1785C80.7489 16.2505 80.8413 16.3053 80.9421 16.3394C81.0594 16.3762 81.1823 16.3925 81.3053 16.3876V16.401Z" fill="black"/>
<path d="M84.5195 12.4978H85.2947V16.3447H87.3764V12.4978H88.1489V16.3447H88.691L88.6151 18.2963H87.9212V16.9828H84.5195V12.4978Z" fill="black"/>
<path d="M92.4428 12.4978H93.218V16.9827H92.4428V13.7095L90.3584 16.9827H89.5859V12.4978H90.3584V15.763L92.4428 12.4978Z" fill="black"/>
<path d="M94.252 14.6934C94.2495 14.3865 94.2981 14.0813 94.3957 13.7899C94.4844 13.5259 94.6233 13.2812 94.805 13.0688C94.9823 12.8645 95.2024 12.7007 95.4501 12.589C95.7216 12.4758 96.0133 12.4175 96.308 12.4175C96.6026 12.4175 96.8943 12.4758 97.1659 12.589C97.4152 12.7006 97.6371 12.8643 97.8164 13.0688C97.9981 13.2812 98.137 13.5259 98.2257 13.7899C98.3224 14.0814 98.37 14.3866 98.3666 14.6934V14.7845C98.3698 15.0912 98.3222 15.3964 98.2257 15.6879C98.137 15.9511 97.9981 16.195 97.8164 16.4064C97.6366 16.6078 97.4158 16.7695 97.1686 16.8809C96.8975 16.9941 96.6063 17.0525 96.3121 17.0525C96.0178 17.0525 95.7266 16.9941 95.4555 16.8809C95.2077 16.7704 94.9868 16.6086 94.8077 16.4064C94.6242 16.1959 94.4842 15.9518 94.3957 15.6879C94.2983 15.3966 94.2498 15.0914 94.252 14.7845V14.6934ZM95.03 14.7845C95.0278 14.9979 95.0542 15.2107 95.1086 15.4172C95.1558 15.6042 95.2366 15.7812 95.3471 15.9399C95.4521 16.087 95.5892 16.2089 95.7483 16.2965C95.9216 16.3875 96.1158 16.4327 96.3121 16.4278C96.5065 16.4324 96.6989 16.3872 96.8704 16.2965C97.0305 16.2103 97.1679 16.0882 97.2716 15.9399C97.3819 15.7808 97.4635 15.6039 97.5128 15.4172C97.5681 15.2108 97.5954 14.998 97.5941 14.7845V14.6934C97.5952 14.4807 97.5679 14.2689 97.5128 14.0634C97.4655 13.8714 97.3828 13.6896 97.2689 13.5272C97.1646 13.3788 97.0274 13.2559 96.8677 13.168C96.6945 13.0764 96.5003 13.0303 96.3039 13.034C96.1146 13.0323 95.928 13.0784 95.7618 13.168C95.6026 13.2566 95.4656 13.3794 95.3607 13.5272C95.2486 13.69 95.1678 13.8717 95.1221 14.0634C95.068 14.269 95.0416 14.4809 95.0435 14.6934L95.03 14.7845Z" fill="black"/>
<path d="M103.029 16.9827H102.257V15.074H100.18V16.9827H99.4023V12.4978H100.18V14.436H102.257V12.4978H103.029V16.9827Z" fill="black"/>
<path d="M107.962 16.9827H107.203V15.074H105.127V16.9827H104.352V12.4978H105.127V14.436H107.203V12.4978H107.976L107.962 16.9827Z" fill="black"/>
<path d="M110.051 14.0339H111.197C111.445 14.0298 111.691 14.0669 111.926 14.1438C112.127 14.2058 112.311 14.309 112.468 14.4467C112.611 14.5723 112.721 14.7294 112.791 14.9051C112.865 15.0893 112.902 15.286 112.899 15.4842C112.901 15.6832 112.865 15.8807 112.791 16.0659C112.72 16.2438 112.609 16.404 112.468 16.5351C112.311 16.6752 112.127 16.782 111.926 16.8487C111.692 16.9301 111.445 16.9691 111.197 16.964H109.275V12.4978H110.051V14.0339ZM110.051 14.6585V16.3394H111.197C111.343 16.3439 111.489 16.3202 111.625 16.2697C111.728 16.2284 111.821 16.1653 111.896 16.0847C111.967 16.0072 112.019 15.9158 112.051 15.8166C112.112 15.6192 112.112 15.4081 112.051 15.2108C112.019 15.1038 111.964 15.0052 111.888 14.9226C111.813 14.8399 111.719 14.7753 111.615 14.7336C111.479 14.6793 111.333 14.6528 111.186 14.6558L110.051 14.6585ZM114.499 16.964H113.71V12.4978H114.488L114.499 16.964Z" fill="black"/>
<path d="M117.363 14.1304L118.366 12.4978H119.269L117.792 14.7094L119.315 16.9693H118.421L117.377 15.2965L116.333 16.9827H115.434L116.96 14.7229L115.48 12.5112H116.374L117.363 14.1304Z" fill="black"/>
<path d="M124.01 16.4278C124.143 16.4283 124.275 16.4065 124.4 16.3635C124.521 16.3213 124.633 16.2597 124.734 16.1812C124.828 16.107 124.907 16.016 124.967 15.9131C125.027 15.8077 125.064 15.6907 125.075 15.57H125.804C125.793 15.7681 125.738 15.9613 125.642 16.1356C125.542 16.3175 125.409 16.4793 125.249 16.6128C125.082 16.7527 124.893 16.8626 124.688 16.9372C124.472 17.0202 124.242 17.0621 124.01 17.0605C123.704 17.0682 123.4 17.0068 123.121 16.8809C122.878 16.7671 122.663 16.6014 122.492 16.3956C122.321 16.1856 122.194 15.9442 122.118 15.6852C122.036 15.4075 121.995 15.1195 121.996 14.8301V14.6558C121.995 14.3664 122.036 14.0783 122.118 13.8007C122.193 13.5415 122.321 13.2999 122.492 13.0902C122.662 12.8844 122.876 12.7186 123.118 12.605C123.398 12.4786 123.703 12.4172 124.01 12.4254C124.256 12.4217 124.501 12.4635 124.731 12.5487C124.938 12.6256 125.127 12.7412 125.289 12.8892C125.448 13.0334 125.574 13.2087 125.661 13.4039C125.751 13.6063 125.801 13.8237 125.81 14.0446H125.094C125.084 13.9111 125.05 13.7804 124.994 13.6586C124.891 13.4164 124.697 13.2238 124.452 13.1224C124.316 13.0694 124.172 13.043 124.026 13.0447C123.832 13.0331 123.638 13.0744 123.466 13.1643C123.294 13.2541 123.15 13.3889 123.051 13.554C122.953 13.7135 122.884 13.8886 122.847 14.0714C122.809 14.2613 122.79 14.4543 122.79 14.6478V14.822C122.79 15.0182 122.809 15.2139 122.847 15.4064C122.884 15.5881 122.951 15.7623 123.048 15.9211C123.143 16.0723 123.274 16.1984 123.43 16.2884C123.608 16.3846 123.808 16.4327 124.01 16.4278Z" fill="black"/>
<path d="M129.609 12.4978H130.381V16.9827H129.609V13.7095L127.532 16.9827H126.76V12.4978H127.532V15.763L129.609 12.4978Z" fill="black"/>
<path d="M133.436 16.4278C133.57 16.4281 133.702 16.4063 133.829 16.3635C133.948 16.3206 134.06 16.2591 134.16 16.1812C134.254 16.1077 134.333 16.0166 134.393 15.9131C134.455 15.8083 134.492 15.691 134.501 15.57H135.23C135.219 15.7681 135.163 15.9613 135.068 16.1356C134.968 16.3175 134.834 16.4793 134.675 16.6128C134.508 16.7527 134.318 16.8625 134.113 16.9372C133.898 17.0205 133.668 17.0623 133.436 17.0605C133.13 17.0682 132.825 17.0068 132.547 16.8809C132.303 16.7671 132.089 16.6014 131.918 16.3956C131.749 16.1842 131.622 15.9432 131.544 15.6852C131.462 15.4075 131.42 15.1195 131.422 14.8301V14.6558C131.42 14.3664 131.462 14.0783 131.544 13.8006C131.622 13.5424 131.749 13.3012 131.918 13.0902C132.088 12.8844 132.301 12.7186 132.544 12.605C132.822 12.4794 133.125 12.418 133.43 12.4254C133.676 12.4217 133.921 12.4635 134.151 12.5487C134.359 12.6256 134.549 12.7412 134.713 12.8892C134.869 13.0342 134.995 13.2093 135.081 13.4039C135.171 13.6063 135.222 13.8237 135.23 14.0446H134.501C134.492 13.9112 134.459 13.7806 134.403 13.6586C134.3 13.4174 134.105 13.2252 133.861 13.1224C133.614 13.0159 133.337 13.001 133.079 13.0802C132.822 13.1594 132.602 13.3276 132.46 13.554C132.362 13.7131 132.294 13.8884 132.259 14.0714C132.219 14.261 132.199 14.4541 132.2 14.6478V14.822C132.199 15.0183 132.219 15.2142 132.259 15.4064C132.295 15.588 132.362 15.7621 132.457 15.9211C132.553 16.0723 132.684 16.1984 132.84 16.2884C133.022 16.3874 133.228 16.4356 133.436 16.4278Z" fill="black"/>
<path d="M139.459 13.1197H137.944V16.9827H137.172V13.1197H135.684V12.4978H139.459V13.1197Z" fill="black"/>
<path d="M141.756 17.0524C141.462 17.0567 141.171 17.002 140.899 16.8916C140.652 16.7898 140.43 16.6382 140.246 16.4466C140.062 16.2487 139.92 16.0162 139.828 15.763C139.729 15.4842 139.679 15.1902 139.682 14.8944V14.7201C139.676 14.3876 139.732 14.0568 139.847 13.7443C139.946 13.4779 140.096 13.233 140.289 13.0232C140.465 12.8318 140.679 12.6785 140.918 12.5728C141.151 12.472 141.403 12.42 141.658 12.42C141.945 12.4122 142.231 12.469 142.493 12.5862C142.72 12.6923 142.919 12.8503 143.073 13.0473C143.23 13.2546 143.344 13.4906 143.409 13.7417C143.484 14.0261 143.52 14.319 143.517 14.6129V14.956H140.455C140.459 15.1531 140.493 15.3484 140.558 15.5351C140.616 15.7067 140.708 15.8652 140.829 16.0016C140.944 16.1336 141.086 16.2404 141.246 16.3152C141.416 16.3931 141.601 16.4325 141.788 16.4305C142.03 16.4382 142.27 16.3818 142.482 16.2669C142.674 16.1531 142.843 16.0038 142.978 15.8273L143.45 16.1919C143.372 16.3078 143.281 16.4148 143.179 16.5109C143.07 16.6148 142.949 16.7049 142.818 16.779C142.669 16.8639 142.51 16.9288 142.344 16.972C142.152 17.0239 141.954 17.0509 141.756 17.0524ZM141.658 13.0446C141.51 13.043 141.363 13.0713 141.227 13.1278C141.096 13.1869 140.977 13.2706 140.877 13.3744C140.763 13.4906 140.671 13.627 140.606 13.7765C140.536 13.9483 140.488 14.1286 140.465 14.3127H142.731V14.2537C142.723 14.1041 142.698 13.9558 142.658 13.8114C142.62 13.6704 142.556 13.5377 142.468 13.42C142.382 13.3025 142.27 13.2062 142.14 13.1385C141.99 13.0686 141.824 13.0364 141.658 13.0446Z" fill="black"/>
<path d="M147.014 15.956L148.55 12.4978H149.515V16.9827H148.743V13.7176L147.282 16.9827H146.74L145.249 13.6613V16.9827H144.477V12.4978H145.479L147.014 15.956Z" fill="black"/>
<path d="M50.6186 22.6526H51.3938V27.1241H50.6186V23.8643L48.5342 27.1241H47.7617V22.6526H48.5342V25.9178L50.6186 22.6526Z" fill="black"/>
<path d="M54.547 24.8481C54.5444 24.5412 54.593 24.236 54.6906 23.9447C54.7804 23.6812 54.9192 23.4366 55.0999 23.2236C55.2784 23.0194 55.4994 22.8557 55.7477 22.7437C56.0154 22.6258 56.3059 22.5673 56.5988 22.5722C56.8953 22.567 57.1894 22.6255 57.4608 22.7437C57.7101 22.8554 57.932 23.0191 58.1113 23.2236C58.2937 23.4354 58.4328 23.6803 58.5206 23.9447C58.6173 24.2362 58.6649 24.5414 58.6615 24.8481V24.9393C58.6649 25.2451 58.6173 25.5495 58.5206 25.84C58.4337 26.1048 58.2946 26.3499 58.1113 26.5612C57.9322 26.7634 57.7113 26.9252 57.4635 27.0356C57.1924 27.1489 56.9012 27.2072 56.607 27.2072C56.3127 27.2072 56.0215 27.1489 55.7504 27.0356C55.5032 26.9243 55.2824 26.7626 55.1026 26.5612C54.9192 26.3495 54.7793 26.1046 54.6906 25.84C54.593 25.5496 54.5444 25.2453 54.547 24.9393V24.8481ZM55.3249 24.9393C55.3241 25.1526 55.3506 25.3652 55.4035 25.5719C55.4518 25.7582 55.5335 25.9343 55.6447 26.092C55.7482 26.2412 55.8856 26.3642 56.0459 26.4512C56.2183 26.5423 56.4116 26.5875 56.607 26.5826C56.8023 26.5869 56.9954 26.5417 57.168 26.4512C57.3278 26.3634 57.465 26.2405 57.5692 26.092C57.6786 25.9337 57.7594 25.7577 57.8077 25.5719C57.863 25.3655 57.8904 25.1528 57.889 24.9393V24.8481C57.8901 24.6355 57.8628 24.4237 57.8077 24.2181C57.7602 24.0267 57.6785 23.8451 57.5665 23.682C57.4612 23.5334 57.3231 23.4106 57.1626 23.3228C56.9899 23.2299 56.7954 23.1837 56.5988 23.1887C56.4048 23.1834 56.2129 23.2297 56.0432 23.3228C55.8843 23.4108 55.748 23.5337 55.6447 23.682C55.5318 23.8446 55.45 24.0263 55.4035 24.2181C55.3507 24.4241 55.3243 24.6357 55.3249 24.8481V24.9393Z" fill="black"/>
<path d="M63.3286 27.1241H62.5561V23.2853H60.4744V27.1241H59.6992V22.6526H63.3286V27.1241Z" fill="black"/>
<path d="M66.4469 27.2073C66.1542 27.2112 65.8638 27.1565 65.593 27.0464C65.3453 26.9439 65.1219 26.7914 64.9371 26.5987C64.7533 26.3996 64.6114 26.1663 64.5197 25.9125C64.4196 25.6346 64.37 25.3415 64.3733 25.0466V24.8723C64.3687 24.5399 64.4247 24.2093 64.5386 23.8965C64.6373 23.6301 64.7874 23.3852 64.9805 23.1754C65.1576 22.9842 65.3726 22.8309 65.612 22.725C65.8444 22.624 66.0955 22.5719 66.3493 22.5722C66.6376 22.5639 66.924 22.6208 67.1868 22.7384C67.4132 22.8451 67.611 23.0031 67.7642 23.1995C67.9224 23.4062 68.0367 23.6423 68.1003 23.8938C68.1753 24.1782 68.2117 24.4712 68.2087 24.7651V25.1082H65.1485C65.1518 25.3052 65.1856 25.5005 65.2488 25.6873C65.3072 25.8589 65.3993 26.0174 65.5199 26.1537C65.6361 26.2851 65.7781 26.3919 65.9373 26.4674C66.107 26.5453 66.2922 26.5847 66.4794 26.5826C66.7217 26.5912 66.9617 26.5337 67.1733 26.4164C67.3663 26.3037 67.5356 26.1554 67.672 25.9795L68.1436 26.3441C68.0646 26.4593 67.9738 26.5662 67.8726 26.6631C67.7633 26.767 67.6412 26.8571 67.5094 26.9311C67.3606 27.0161 67.2011 27.081 67.035 27.1242C66.8435 27.1771 66.6457 27.2051 66.4469 27.2073ZM66.3493 23.1995C66.203 23.1968 66.0578 23.2248 65.9232 23.2816C65.7887 23.3385 65.6678 23.4229 65.5686 23.5292C65.4596 23.6473 65.3724 23.7834 65.3111 23.9314C65.2391 24.1072 65.1926 24.2922 65.1729 24.4809H67.4362V24.4219C67.4277 24.2723 67.4032 24.1241 67.363 23.9796C67.3247 23.8392 67.2613 23.7067 67.176 23.5882C67.0886 23.472 66.9767 23.376 66.848 23.3067C66.6934 23.2304 66.522 23.1935 66.3493 23.1995Z" fill="black"/>
<path d="M72.9204 24.9393C72.9223 25.2451 72.8831 25.5498 72.8038 25.8454C72.7345 26.1032 72.6188 26.3465 72.4623 26.5638C72.317 26.768 72.1229 26.9336 71.8974 27.0458C71.6718 27.158 71.4218 27.2135 71.1694 27.2072C70.9147 27.2116 70.6615 27.167 70.424 27.0759C70.2166 26.9884 70.0315 26.8566 69.8819 26.6898V28.8345H69.1094V22.6526H69.7979L69.8331 23.1485C69.9824 22.9651 70.1725 22.8182 70.3887 22.7196C70.6271 22.6171 70.8851 22.5668 71.145 22.5722C71.4066 22.5666 71.6658 22.6227 71.9012 22.7357C72.1156 22.8482 72.301 23.0078 72.4433 23.2021C72.6015 23.4181 72.7165 23.662 72.7822 23.9206C72.8634 24.224 72.9026 24.537 72.8987 24.8508L72.9204 24.9393ZM72.1479 24.8508C72.1491 24.6387 72.1245 24.4272 72.0747 24.2208C72.0339 24.0366 71.9595 23.8613 71.8551 23.7035C71.7589 23.5564 71.6277 23.4349 71.473 23.3496C71.3067 23.2607 71.1198 23.2163 70.9309 23.2209C70.81 23.2184 70.6894 23.2338 70.5731 23.2665C70.3703 23.3198 70.1888 23.433 70.0526 23.5909C69.9855 23.6659 69.9264 23.7476 69.8765 23.8348V25.9794C69.9271 26.067 69.9861 26.1496 70.0526 26.2261C70.1197 26.301 70.1973 26.366 70.283 26.4191C70.3739 26.4749 70.4725 26.5174 70.5758 26.5451C70.6939 26.5778 70.8163 26.5931 70.939 26.5907C71.1284 26.5965 71.3159 26.5511 71.4811 26.4593C71.6337 26.371 71.7636 26.2489 71.8606 26.1027C71.9659 25.9435 72.0403 25.7662 72.0801 25.58C72.1299 25.3727 72.1544 25.1603 72.1533 24.9473L72.1479 24.8508Z" fill="black"/>
<path d="M76.6937 27.1241C76.6603 27.0583 76.6374 26.9878 76.6259 26.915C76.6097 26.8319 76.5961 26.7435 76.5853 26.6469C76.5094 26.7252 76.4269 26.797 76.3386 26.8614C76.2462 26.9297 76.1472 26.989 76.0432 27.0383C75.9314 27.0909 75.8141 27.1314 75.6935 27.159C75.5635 27.1872 75.4309 27.2016 75.2978 27.2019C75.0835 27.2047 74.8705 27.1693 74.6689 27.0973C74.4929 27.0397 74.3299 26.9487 74.1892 26.8292C74.0563 26.7111 73.9504 26.5663 73.8784 26.4045C73.8065 26.2427 73.7701 26.0677 73.7718 25.891C73.7673 25.6708 73.8166 25.4529 73.9154 25.2556C74.011 25.0715 74.1506 24.9133 74.322 24.7945C74.517 24.6628 74.7347 24.5674 74.9644 24.513C75.2387 24.4481 75.5199 24.4166 75.8019 24.4192H76.5744V24.068C76.5803 23.951 76.5619 23.8341 76.5204 23.7244C76.4789 23.6147 76.4152 23.5145 76.3332 23.43C76.2358 23.3455 76.1224 23.2809 75.9996 23.2399C75.8767 23.199 75.7469 23.1825 75.6176 23.1914C75.4833 23.1895 75.3496 23.2094 75.2219 23.2504C75.1101 23.283 75.0054 23.3357 74.9129 23.4059C74.8322 23.4669 74.7649 23.5435 74.715 23.6311C74.669 23.7131 74.6448 23.8053 74.6445 23.8991H73.8639C73.8657 23.7329 73.9095 23.5698 73.9913 23.4246C74.0819 23.2605 74.2055 23.1163 74.3545 23.0011C74.5237 22.8679 74.7143 22.7637 74.9183 22.6928C75.1574 22.6127 75.4086 22.5737 75.661 22.5775C75.8902 22.5749 76.1185 22.6057 76.3386 22.6687C76.5378 22.7225 76.7228 22.8185 76.8807 22.9502C77.0302 23.0791 77.1487 23.2394 77.2277 23.4193C77.3153 23.6272 77.3578 23.8509 77.3524 24.0761V26.1537C77.3511 26.3143 77.3628 26.4748 77.3876 26.6335C77.4083 26.7819 77.4484 26.927 77.5069 27.0651V27.1322L76.6937 27.1241ZM75.4089 26.5424C75.5423 26.5439 75.675 26.524 75.8019 26.4834C75.9201 26.4482 76.0331 26.3977 76.1381 26.3333C76.2377 26.2752 76.3289 26.2039 76.4091 26.1215C76.4789 26.0472 76.5374 25.9632 76.5826 25.8722V24.9554H75.9402C75.5867 24.9354 75.2339 25.0056 74.9156 25.1591C74.8028 25.2184 74.7091 25.308 74.6454 25.4175C74.5816 25.527 74.5503 25.6521 74.5551 25.7784C74.5548 25.8809 74.5731 25.9826 74.6093 26.0786C74.6454 26.1703 74.7019 26.2528 74.7746 26.3199C74.8541 26.3897 74.946 26.4443 75.0457 26.4807C75.1621 26.5226 75.2851 26.5435 75.4089 26.5424Z" fill="black"/>
<path d="M81.8495 23.2745H80.3316V27.1241H79.5564V23.2745H78.0684V22.6526H81.8468L81.8495 23.2745Z" fill="black"/>
<path d="M82.2208 24.8481C82.2183 24.5412 82.2668 24.236 82.3644 23.9447C82.4531 23.6807 82.592 23.4359 82.7737 23.2236C82.951 23.0192 83.1711 22.8555 83.4188 22.7437C83.6874 22.6258 83.9788 22.5672 84.2727 22.5722C84.5691 22.567 84.8632 22.6255 85.1346 22.7437C85.3839 22.8554 85.6058 23.0191 85.7851 23.2236C85.9668 23.4359 86.1058 23.6807 86.1944 23.9447C86.2911 24.2362 86.3388 24.5414 86.3354 24.8481V24.9393C86.3388 25.2451 86.2911 25.5495 86.1944 25.84C86.1066 26.1044 85.9676 26.3493 85.7851 26.5612C85.6053 26.7626 85.3846 26.9243 85.1373 27.0356C84.8663 27.1489 84.575 27.2072 84.2808 27.2072C83.9865 27.2072 83.6953 27.1489 83.4243 27.0356C83.1765 26.9252 82.9555 26.7634 82.7764 26.5612C82.5923 26.35 82.4523 26.1049 82.3644 25.84C82.2668 25.5496 82.2183 25.2453 82.2208 24.9393V24.8481ZM82.996 24.9393C82.9965 25.1493 83.0248 25.3584 83.08 25.5612C83.1272 25.7474 83.208 25.9236 83.3186 26.0813C83.4227 26.2298 83.56 26.3527 83.7197 26.4405C83.8931 26.5315 84.0873 26.5768 84.2835 26.5719C84.478 26.5765 84.6703 26.5312 84.8419 26.4405C85.0028 26.3594 85.1421 26.2418 85.2484 26.0974C85.3588 25.9392 85.4404 25.7632 85.4897 25.5773C85.545 25.3709 85.5723 25.1582 85.571 24.9446V24.8535C85.5721 24.6409 85.5447 24.429 85.4897 24.2235C85.4424 24.0315 85.3597 23.8497 85.2457 23.6874C85.1415 23.5389 85.0042 23.416 84.8446 23.3281C84.6718 23.2353 84.4774 23.189 84.2808 23.1941C84.0913 23.1912 83.9044 23.2374 83.7387 23.3281C83.5795 23.4167 83.4424 23.5395 83.3375 23.6874C83.2255 23.8501 83.1447 24.0319 83.099 24.2235C83.0439 24.429 83.0166 24.6409 83.0177 24.8535L82.996 24.9393Z" fill="black"/>
<path d="M91.1235 24.9393C91.1268 25.2452 91.0876 25.5501 91.0069 25.8454C90.9385 26.1031 90.8237 26.3464 90.6681 26.5639C90.5228 26.7681 90.3288 26.9336 90.1032 27.0458C89.8777 27.1581 89.6276 27.2135 89.3752 27.2073C89.1196 27.2116 88.8656 27.167 88.6271 27.0759C88.4196 26.9888 88.2344 26.8569 88.085 26.6899V28.8345H87.3125V22.6526H88.0172L88.0552 23.1486C88.2 22.9661 88.3855 22.8193 88.5973 22.7196C88.8355 22.6166 89.0936 22.5662 89.3535 22.5722C89.6143 22.5667 89.8726 22.6227 90.1071 22.7357C90.3224 22.8468 90.5081 23.0066 90.6492 23.2022C90.8092 23.4174 90.9252 23.6614 90.9907 23.9206C91.0697 24.2244 91.1079 24.5372 91.1045 24.8509L91.1235 24.9393ZM90.351 24.8509C90.3517 24.6389 90.328 24.4275 90.2805 24.2209C90.2388 24.0365 90.1635 23.8612 90.0583 23.7035C89.9601 23.5498 89.8227 23.4243 89.66 23.3396C89.4973 23.2549 89.315 23.214 89.1313 23.2209C89.0104 23.2189 88.8899 23.2342 88.7735 23.2665C88.6713 23.2947 88.5736 23.3372 88.4834 23.3925C88.3976 23.4475 88.32 23.5143 88.2531 23.5909C88.1868 23.666 88.1286 23.7477 88.0796 23.8348V25.9795C88.1293 26.067 88.1873 26.1496 88.2531 26.2261C88.3202 26.301 88.3977 26.366 88.4834 26.4191C88.5743 26.475 88.6729 26.5174 88.7762 26.5451C88.8944 26.5776 89.0167 26.5929 89.1394 26.5907C89.3288 26.596 89.5161 26.5506 89.6815 26.4593C89.8333 26.3709 89.9623 26.2488 90.0583 26.1028C90.1645 25.9436 90.2398 25.7664 90.2805 25.58C90.328 25.3724 90.3517 25.1602 90.351 24.9474V24.8509Z" fill="black"/>
<path d="M91.9005 24.8482C91.898 24.5413 91.9465 24.2361 92.0441 23.9447C92.1339 23.6812 92.2727 23.4366 92.4534 23.2236C92.6312 23.0197 92.8512 22.8561 93.0985 22.7437C93.3701 22.6306 93.6617 22.5723 93.9564 22.5723C94.2511 22.5723 94.5427 22.6306 94.8143 22.7437C95.0636 22.8554 95.2855 23.0191 95.4648 23.2236C95.6482 23.4378 95.7872 23.6856 95.8741 23.9528C95.9708 24.2442 96.0184 24.5495 96.015 24.8562V24.9473C96.0184 25.2532 95.9708 25.5576 95.8741 25.8481C95.7872 26.1129 95.6481 26.3579 95.4648 26.5692C95.285 26.7707 95.0642 26.9324 94.817 27.0437C94.546 27.157 94.2547 27.2153 93.9605 27.2153C93.6662 27.2153 93.375 27.157 93.1039 27.0437C92.8561 26.9333 92.6352 26.7715 92.4562 26.5692C92.2727 26.3576 92.1328 26.1127 92.0441 25.8481C91.9465 25.5577 91.898 25.2534 91.9005 24.9473V24.8482ZM92.6784 24.9393C92.6776 25.1526 92.7041 25.3652 92.757 25.572C92.8054 25.7582 92.8871 25.9343 92.9983 26.092C93.1017 26.2412 93.2391 26.3642 93.3994 26.4513C93.5731 26.5376 93.7648 26.5825 93.9591 26.5825C94.1535 26.5825 94.3452 26.5376 94.5188 26.4513C94.6796 26.3649 94.8172 26.2417 94.92 26.092C95.0303 25.9339 95.112 25.7579 95.1612 25.572C95.2165 25.3656 95.2439 25.1528 95.2425 24.9393V24.8482C95.2436 24.6355 95.2163 24.4237 95.1612 24.2182C95.1137 24.0267 95.032 23.8451 94.92 23.682C94.8147 23.5335 94.6766 23.4106 94.5161 23.3228C94.3434 23.2299 94.1489 23.1837 93.9523 23.1888C93.7583 23.1834 93.5664 23.2297 93.3967 23.3228C93.2378 23.4108 93.1015 23.5337 92.9983 23.682C92.8853 23.8446 92.8035 24.0263 92.757 24.2182C92.7042 24.4241 92.6778 24.6357 92.6784 24.8482V24.9393Z" fill="black"/>
<path d="M97.0547 27.1242V22.6526H98.8165C99.0778 22.6509 99.3385 22.676 99.5944 22.7277C99.8019 22.7694 100.001 22.8455 100.183 22.9529C100.338 23.0468 100.467 23.1788 100.557 23.3362C100.643 23.5017 100.687 23.686 100.684 23.8724C100.686 24.0744 100.62 24.2713 100.497 24.4327C100.358 24.6096 100.169 24.7427 99.9549 24.816C100.091 24.8456 100.222 24.8962 100.343 24.9661C100.45 25.0293 100.546 25.1089 100.627 25.202C100.705 25.2911 100.764 25.3939 100.803 25.505C100.842 25.6154 100.862 25.7313 100.863 25.8481C100.867 26.04 100.826 26.2303 100.741 26.403C100.66 26.5607 100.541 26.696 100.394 26.7971C100.229 26.9082 100.046 26.989 99.8519 27.0357C99.614 27.0919 99.3701 27.1189 99.1255 27.1161L97.0547 27.1242ZM97.8272 24.5506H98.8274C99.5502 24.5506 99.9116 24.3415 99.9116 23.9233C99.9116 23.489 99.5484 23.2746 98.8274 23.2746H97.838L97.8272 24.5506ZM97.8272 25.1618V26.5022H99.1065C99.3606 26.5203 99.614 26.4584 99.8302 26.3253C99.9055 26.2655 99.9661 26.1898 100.008 26.1037C100.05 26.0177 100.071 25.9234 100.071 25.828C100.071 25.7326 100.05 25.6383 100.008 25.5523C99.9661 25.4662 99.9055 25.3905 99.8302 25.3307C99.6131 25.1999 99.3602 25.139 99.1065 25.1565L97.8272 25.1618Z" fill="black"/>
<path d="M103.785 24.8482C103.783 24.5413 103.831 24.2361 103.929 23.9447C104.019 23.6812 104.157 23.4366 104.338 23.2236C104.516 23.0197 104.736 22.8561 104.983 22.7437C105.255 22.6306 105.546 22.5723 105.841 22.5723C106.136 22.5723 106.428 22.6306 106.699 22.7437C106.948 22.8554 107.17 23.0191 107.35 23.2236C107.531 23.4359 107.67 23.6807 107.759 23.9447C107.856 24.2362 107.903 24.5414 107.9 24.8482V24.9393C107.903 25.2452 107.856 25.5495 107.759 25.8401C107.671 26.1044 107.532 26.3493 107.35 26.5612C107.17 26.7626 106.949 26.9243 106.702 27.0357C106.431 27.1489 106.139 27.2073 105.845 27.2073C105.551 27.2073 105.26 27.1489 104.989 27.0357C104.741 26.9252 104.52 26.7634 104.341 26.5612C104.157 26.3496 104.018 26.1046 103.929 25.8401C103.831 25.5497 103.783 25.2453 103.785 24.9393V24.8482ZM104.563 24.9393C104.561 25.1527 104.587 25.3655 104.642 25.572C104.69 25.7582 104.772 25.9343 104.883 26.092C104.986 26.2417 105.123 26.3649 105.284 26.4513C105.458 26.5376 105.65 26.5825 105.844 26.5825C106.038 26.5825 106.23 26.5376 106.404 26.4513C106.564 26.3649 106.702 26.2417 106.805 26.092C106.915 25.9339 106.997 25.7579 107.046 25.572C107.101 25.3656 107.129 25.1528 107.127 24.9393V24.8482C107.128 24.6355 107.101 24.4237 107.046 24.2182C106.998 24.0267 106.917 23.8451 106.805 23.682C106.699 23.5335 106.561 23.4106 106.401 23.3228C106.228 23.2299 106.034 23.1837 105.837 23.1888C105.643 23.1834 105.451 23.2297 105.281 23.3228C105.123 23.4108 104.986 23.5337 104.883 23.682C104.77 23.8446 104.688 24.0263 104.642 24.2182C104.588 24.4238 104.561 24.6357 104.563 24.8482V24.9393Z" fill="black"/>
<path d="M110.855 22.9099C111.126 22.9051 111.395 22.9572 111.644 23.0627C111.87 23.1603 112.072 23.3058 112.235 23.489C112.4 23.6761 112.525 23.8939 112.604 24.1297C112.69 24.3891 112.733 24.6608 112.731 24.9339V25.0251C112.733 25.319 112.687 25.6114 112.595 25.891C112.512 26.1449 112.378 26.3794 112.2 26.5799C112.022 26.7746 111.805 26.9299 111.563 27.0357C111.018 27.2572 110.408 27.2572 109.863 27.0357C109.621 26.9306 109.405 26.7751 109.229 26.5799C109.049 26.3797 108.913 26.1452 108.828 25.891C108.736 25.6114 108.69 25.319 108.692 25.0251V24.6149C108.684 24.1638 108.734 23.7136 108.839 23.2745C108.922 22.9312 109.063 22.6041 109.256 22.3068C109.424 22.0539 109.645 21.8399 109.904 21.6795C110.158 21.5231 110.439 21.4149 110.733 21.3604C110.896 21.3336 111.04 21.3041 111.17 21.2693C111.284 21.2412 111.394 21.1998 111.498 21.146C111.581 21.1019 111.651 21.0384 111.704 20.961C111.752 20.88 111.777 20.7871 111.774 20.6929H112.408C112.42 20.9136 112.376 21.1337 112.281 21.3336C112.204 21.4843 112.087 21.6113 111.942 21.7009C111.794 21.7936 111.631 21.8607 111.46 21.8993L110.896 22.0253C110.71 22.0642 110.529 22.1207 110.354 22.1942C110.188 22.2651 110.035 22.363 109.901 22.4837C109.762 22.614 109.646 22.7673 109.56 22.9367C109.457 23.1456 109.387 23.369 109.354 23.5989C109.535 23.3921 109.754 23.2204 109.999 23.0922C110.264 22.962 110.559 22.8993 110.855 22.9099ZM110.703 23.5372C110.516 23.5336 110.331 23.5731 110.161 23.6525C110.011 23.7243 109.878 23.8288 109.774 23.9581C109.67 24.0906 109.594 24.2417 109.549 24.4031C109.499 24.5775 109.474 24.7581 109.476 24.9393V25.0251C109.474 25.2257 109.499 25.4257 109.549 25.6202C109.592 25.7983 109.67 25.9665 109.776 26.1162C109.879 26.2574 110.012 26.3738 110.167 26.4566C110.338 26.5443 110.529 26.5877 110.722 26.5826C110.911 26.5849 111.097 26.5416 111.264 26.4566C111.419 26.3744 111.551 26.2578 111.652 26.1162C111.759 25.9665 111.836 25.7983 111.88 25.6202C111.932 25.426 111.957 25.2259 111.956 25.0251V24.9286C111.957 24.7471 111.932 24.5664 111.88 24.3924C111.834 24.2303 111.756 24.0789 111.649 23.9474C111.545 23.8173 111.411 23.7128 111.259 23.6418C111.085 23.5647 110.894 23.529 110.703 23.5372Z" fill="black"/>
<path d="M116.133 26.1108L117.67 22.6526H118.635V27.1241H117.863V23.8723L116.399 27.1241H115.857L114.366 23.8026V27.1241H113.602V22.6526H114.604L116.133 26.1108Z" fill="black"/>
<path d="M121.752 27.2073C121.459 27.2112 121.168 27.1565 120.898 27.0464C120.65 26.9439 120.427 26.7914 120.242 26.5987C120.057 26.4003 119.915 26.1668 119.824 25.9125C119.724 25.6346 119.675 25.3415 119.678 25.0466V24.8723C119.673 24.5399 119.729 24.2093 119.843 23.8965C119.942 23.6301 120.092 23.3852 120.285 23.1754C120.462 22.9842 120.677 22.8309 120.917 22.725C121.149 22.624 121.4 22.5719 121.654 22.5722C121.942 22.5639 122.229 22.6208 122.492 22.7384C122.718 22.8451 122.916 23.0031 123.069 23.1995C123.226 23.4068 123.34 23.6427 123.405 23.8938C123.48 24.1782 123.516 24.4712 123.513 24.7651V25.1082H120.45C120.455 25.3053 120.489 25.5006 120.553 25.6873C120.612 25.8589 120.704 26.0174 120.825 26.1537C120.94 26.2858 121.082 26.3926 121.242 26.4674C121.412 26.5453 121.597 26.5847 121.784 26.5826C122.026 26.5912 122.266 26.5337 122.478 26.4164C122.671 26.3044 122.839 26.1559 122.974 25.9795L123.448 26.3441C123.37 26.4599 123.279 26.5668 123.177 26.6631C123.069 26.767 122.948 26.857 122.817 26.9311C122.668 27.0161 122.509 27.081 122.342 27.1242C122.15 27.1772 121.951 27.2052 121.752 27.2073ZM121.654 23.1995C121.508 23.1968 121.362 23.2248 121.228 23.2816C121.093 23.3385 120.972 23.4229 120.873 23.5292C120.763 23.6466 120.676 23.7829 120.616 23.9314C120.546 24.1102 120.502 24.2979 120.486 24.489H122.749V24.43C122.741 24.2804 122.716 24.1321 122.676 23.9877C122.637 23.8472 122.574 23.7147 122.489 23.5963C122.401 23.48 122.289 23.384 122.161 23.3148C122.005 23.2343 121.83 23.1947 121.654 23.1995Z" fill="black"/>
<path d="M128.101 27.1241H127.326V25.2154H125.25V27.1241H124.475V22.6526H125.25V24.5908H127.326V22.6526H128.101V27.1241Z" fill="black"/>
<path d="M132.141 27.1241C132.109 27.0578 132.086 26.9875 132.073 26.915C132.057 26.8319 132.043 26.7435 132.033 26.647C131.957 26.7246 131.875 26.7963 131.789 26.8614C131.695 26.9297 131.595 26.989 131.49 27.0384C131.38 27.0909 131.263 27.1314 131.143 27.159C131.013 27.1872 130.879 27.2015 130.745 27.2019C130.531 27.2047 130.318 27.1693 130.116 27.0973C129.94 27.0392 129.778 26.9482 129.636 26.8293C129.505 26.71 129.4 26.565 129.328 26.4035C129.256 26.242 129.219 26.0675 129.219 25.891C129.215 25.6709 129.264 25.4529 129.363 25.2556C129.458 25.0715 129.598 24.9133 129.769 24.7945C129.964 24.6628 130.182 24.5675 130.412 24.5131C130.687 24.4481 130.969 24.4166 131.252 24.4192H132.019V24.068C132.025 23.9511 132.006 23.8341 131.965 23.7244C131.923 23.6147 131.86 23.5145 131.778 23.43C131.68 23.3455 131.567 23.2809 131.444 23.2399C131.321 23.199 131.191 23.1825 131.062 23.1914C130.928 23.1895 130.794 23.2094 130.666 23.2504C130.555 23.2836 130.45 23.3362 130.357 23.4059C130.277 23.4669 130.209 23.5436 130.16 23.6311C130.114 23.7131 130.089 23.8053 130.089 23.8992H129.311C129.309 23.7309 129.35 23.5649 129.43 23.4166C129.521 23.2524 129.645 23.1083 129.794 22.9931C129.964 22.8593 130.155 22.7551 130.36 22.6848C130.598 22.6045 130.849 22.5655 131.1 22.5695C131.33 22.5669 131.559 22.5976 131.78 22.6606C131.98 22.7147 132.164 22.8107 132.323 22.9421C132.473 23.0704 132.591 23.2309 132.67 23.4113C132.757 23.6191 132.8 23.8429 132.794 24.068V26.1457C132.795 26.3055 132.808 26.4651 132.835 26.6228C132.856 26.7712 132.896 26.9163 132.954 27.0544V27.1215L132.141 27.1241ZM130.859 26.5424C130.992 26.5435 131.125 26.5236 131.252 26.4834C131.369 26.4476 131.481 26.3972 131.585 26.3333C131.685 26.2752 131.776 26.2039 131.856 26.1215C131.926 26.0473 131.985 25.9633 132.03 25.8722V24.9554H131.387C131.034 24.9358 130.681 25.0059 130.363 25.1591C130.25 25.2186 130.157 25.3082 130.094 25.4178C130.03 25.5273 130 25.6523 130.005 25.7784C130.004 25.881 130.022 25.9829 130.059 26.0786C130.093 26.1714 130.15 26.2543 130.225 26.3199C130.303 26.3905 130.396 26.4452 130.496 26.4808C130.609 26.5216 130.73 26.5425 130.851 26.5424H130.859Z" fill="black"/>
<path d="M136.18 22.6526H136.958V26.4995H139.039V22.6526H139.812V26.4995H140.354L140.278 28.4511H139.584V27.1241H136.18V22.6526Z" fill="black"/>
<path d="M144.105 22.6526H144.88V27.1241H144.108V23.8643L142.023 27.1241H141.248V22.6526H142.021V25.9178L144.105 22.6526Z" fill="black"/>
<path d="M145.963 24.9715C145.959 24.646 145.994 24.3212 146.066 24.0037C146.126 23.7351 146.231 23.4785 146.378 23.2451C146.507 23.0413 146.684 22.8712 146.893 22.7491C147.109 22.6281 147.355 22.567 147.603 22.5722C147.817 22.5667 148.03 22.6069 148.226 22.6901V20.7787H148.999V22.7143C149.099 22.6673 149.203 22.6314 149.311 22.607C149.434 22.5824 149.559 22.5707 149.685 22.5722C149.934 22.5673 150.18 22.6283 150.398 22.7491C150.608 22.8711 150.785 23.0412 150.915 23.2451C151.062 23.4785 151.168 23.7351 151.227 24.0037C151.298 24.3215 151.333 24.6461 151.33 24.9715V25.0573C151.333 25.3501 151.297 25.642 151.224 25.9258C151.163 26.1701 151.056 26.4009 150.91 26.6068C150.777 26.7932 150.602 26.9457 150.398 27.0518C150.18 27.1617 149.937 27.2161 149.693 27.2099C149.455 27.217 149.218 27.1721 148.999 27.0786V28.8425H148.226V27.092C148.133 27.1306 148.036 27.1603 147.936 27.1805C147.824 27.2016 147.709 27.2115 147.595 27.2099C147.351 27.2154 147.11 27.1611 146.893 27.0518C146.689 26.9457 146.513 26.7932 146.381 26.6068C146.236 26.4001 146.131 26.1695 146.069 25.9258C145.996 25.642 145.96 25.3501 145.963 25.0573V24.9715ZM146.736 25.0573C146.734 25.2578 146.752 25.4581 146.79 25.6551C146.82 25.8261 146.88 25.9905 146.969 26.1403C147.048 26.2742 147.16 26.3866 147.294 26.4674C147.444 26.5517 147.615 26.5935 147.787 26.588C147.869 26.5882 147.951 26.5811 148.031 26.5666C148.098 26.5538 148.163 26.5359 148.226 26.5129V23.2692C148.165 23.2456 148.102 23.2285 148.037 23.2183C147.957 23.2046 147.876 23.1983 147.796 23.1995C147.618 23.194 147.444 23.2437 147.297 23.3416C147.157 23.4409 147.045 23.5725 146.969 23.7249C146.88 23.903 146.819 24.0939 146.79 24.2906C146.752 24.5156 146.734 24.7434 146.736 24.9715V25.0573ZM150.558 24.9715C150.559 24.7432 150.539 24.5152 150.498 24.2906C150.463 24.093 150.398 23.9021 150.303 23.7249C150.221 23.5723 150.104 23.441 149.961 23.3416C149.813 23.2448 149.638 23.1952 149.46 23.1995C149.369 23.1984 149.278 23.2056 149.189 23.2209C149.12 23.2342 149.053 23.2549 148.988 23.2826V26.5156C149.055 26.5408 149.124 26.5588 149.194 26.5692C149.284 26.582 149.375 26.5883 149.465 26.588C149.639 26.5931 149.812 26.5514 149.964 26.4674C150.102 26.3872 150.218 26.2749 150.303 26.1403C150.395 25.9908 150.46 25.8266 150.495 25.6551C150.537 25.4585 150.557 25.2581 150.555 25.0573L150.558 24.9715Z" fill="black"/>
<path d="M156.143 24.9393C156.145 25.2451 156.106 25.5498 156.026 25.8454C155.957 26.1032 155.841 26.3465 155.685 26.5638C155.54 26.768 155.346 26.9336 155.12 27.0458C154.894 27.158 154.644 27.2135 154.392 27.2072C154.137 27.2118 153.884 27.1672 153.647 27.0758C153.439 26.9884 153.254 26.8566 153.105 26.6898V28.8344H152.332V22.6526H153.037L153.075 23.1485C153.22 22.9666 153.406 22.8199 153.617 22.7196C153.855 22.6168 154.113 22.5665 154.373 22.5721C154.635 22.5666 154.894 22.6226 155.129 22.7357C155.344 22.8482 155.529 23.0077 155.671 23.2021C155.83 23.4181 155.945 23.6619 156.01 23.9206C156.091 24.224 156.131 24.5369 156.127 24.8508L156.143 24.9393ZM155.371 24.8508C155.372 24.6387 155.347 24.4272 155.297 24.2208C155.257 24.0366 155.182 23.8613 155.078 23.7034C154.982 23.5564 154.85 23.4349 154.696 23.3496C154.529 23.2607 154.342 23.2163 154.154 23.2209C154.033 23.2184 153.912 23.2338 153.796 23.2665C153.693 23.2937 153.595 23.3361 153.506 23.3925C153.42 23.4475 153.342 23.5143 153.275 23.5908C153.208 23.6659 153.149 23.7476 153.099 23.8348V25.9794C153.15 26.067 153.209 26.1496 153.275 26.226C153.342 26.3009 153.42 26.3659 153.506 26.4191C153.596 26.4759 153.695 26.5184 153.798 26.5451C153.917 26.5777 154.039 26.5931 154.162 26.5906C154.351 26.5965 154.539 26.5511 154.704 26.4593C154.856 26.3709 154.986 26.2489 155.083 26.1027C155.189 25.9434 155.263 25.7662 155.303 25.58C155.352 25.3727 155.377 25.1603 155.376 24.9473L155.371 24.8508Z" fill="black"/>
<path d="M156.918 24.8482C156.92 24.543 156.974 24.2403 157.078 23.9528C157.166 23.6885 157.305 23.4435 157.487 23.2317C157.664 23.0268 157.884 22.8629 158.132 22.7518C158.4 22.6339 158.69 22.5754 158.983 22.5803C159.281 22.5751 159.576 22.6337 159.848 22.7518C160.096 22.8638 160.317 23.0275 160.496 23.2317C160.678 23.4435 160.817 23.6885 160.905 23.9528C161.003 24.2441 161.051 24.5494 161.049 24.8562V24.9474C161.051 25.2534 161.003 25.5577 160.905 25.8481C160.818 26.1129 160.679 26.358 160.496 26.5693C160.317 26.7715 160.096 26.9333 159.848 27.0438C159.577 27.157 159.286 27.2154 158.992 27.2154C158.697 27.2154 158.406 27.157 158.135 27.0438C157.888 26.9324 157.667 26.7707 157.487 26.5693C157.303 26.3519 157.163 26.1004 157.078 25.8294C156.978 25.5394 156.929 25.2349 156.932 24.9286L156.918 24.8482ZM157.696 24.9394C157.695 25.1527 157.722 25.3652 157.775 25.572C157.823 25.7582 157.905 25.9344 158.016 26.0921C158.12 26.2406 158.257 26.3635 158.417 26.4513C158.589 26.5423 158.783 26.5876 158.978 26.5827C159.173 26.587 159.366 26.5418 159.539 26.4513C159.699 26.3643 159.837 26.2412 159.94 26.0921C160.05 25.9338 160.13 25.7578 160.179 25.572C160.235 25.3657 160.263 25.153 160.263 24.9394V24.8482C160.263 24.6355 160.235 24.4236 160.179 24.2182C160.132 24.0264 160.051 23.8446 159.938 23.6821C159.832 23.5335 159.694 23.4107 159.534 23.3228C159.361 23.2297 159.166 23.1835 158.97 23.1888C158.776 23.1835 158.584 23.2298 158.414 23.3228C158.256 23.4123 158.12 23.5349 158.016 23.6821C157.903 23.8446 157.821 24.0264 157.775 24.2182C157.722 24.4241 157.695 24.6358 157.696 24.8482V24.9394Z" fill="black"/>
<path d="M162.074 27.1241V22.6526H163.839C164.1 22.6511 164.361 22.6762 164.617 22.7277C164.824 22.7697 165.023 22.8458 165.205 22.9528C165.36 23.0469 165.488 23.1789 165.576 23.3362C165.665 23.501 165.71 23.6856 165.706 23.8724C165.708 24.0744 165.642 24.2713 165.519 24.4326C165.379 24.609 165.191 24.742 164.977 24.816C165.113 24.8451 165.243 24.8958 165.362 24.9661C165.47 25.0285 165.567 25.1082 165.649 25.202C165.725 25.2919 165.784 25.3945 165.823 25.5049C165.863 25.615 165.883 25.7311 165.882 25.8481C165.887 26.04 165.845 26.2302 165.761 26.403C165.68 26.5611 165.561 26.6966 165.414 26.7971C165.249 26.9088 165.065 26.9897 164.871 27.0357C164.634 27.092 164.39 27.119 164.145 27.1161L162.074 27.1241ZM162.849 24.5506H163.855C164.578 24.5506 164.939 24.3415 164.939 23.9233C164.939 23.489 164.573 23.2745 163.855 23.2745H162.866L162.849 24.5506ZM162.849 25.1618V26.5022H164.126C164.381 26.5201 164.635 26.4582 164.852 26.3253C164.927 26.2649 164.987 26.189 165.028 26.103C165.069 26.017 165.09 25.9231 165.09 25.828C165.09 25.7329 165.069 25.6389 165.028 25.5529C164.987 25.4669 164.927 25.3911 164.852 25.3307C164.634 25.1999 164.381 25.139 164.126 25.1564L162.849 25.1618Z" fill="black"/>
<path d="M167.735 24.194H168.885C169.132 24.1902 169.379 24.2273 169.614 24.3039C169.814 24.3672 169.998 24.4703 170.156 24.6069C170.298 24.7326 170.407 24.8897 170.476 25.0653C170.55 25.2494 170.587 25.4462 170.584 25.6443C170.586 25.8433 170.549 26.0409 170.476 26.2261C170.405 26.4038 170.296 26.564 170.156 26.6952C169.998 26.8342 169.814 26.9408 169.614 27.0089C169.38 27.09 169.133 27.129 168.885 27.1241H166.963V22.6526H167.735V24.194ZM167.735 24.8187V26.4995H168.885C169.03 26.504 169.174 26.4803 169.31 26.4298C169.413 26.3932 169.506 26.3335 169.582 26.2554C169.658 26.1772 169.714 26.0828 169.747 25.9794C169.812 25.7826 169.812 25.5704 169.747 25.3736C169.713 25.2752 169.661 25.1842 169.592 25.1055C169.518 25.0201 169.425 24.9523 169.321 24.9071C169.187 24.8511 169.041 24.8246 168.895 24.8294L167.735 24.8187ZM172.183 27.1241H171.408V22.6526H172.183V27.1241Z" fill="black"/>
<path d="M175.051 24.2852L176.054 22.6526H176.957L175.477 24.8642L177.003 27.1241H176.108L175.062 25.4513L174.018 27.1241H173.121L174.644 24.8642L173.167 22.6526H174.059L175.051 24.2852Z" fill="black"/>
<path d="M47.5305 35.1263C47.5281 34.8 47.5626 34.4745 47.6335 34.1559C47.6932 33.8882 47.7986 33.6325 47.9452 33.3999C48.0742 33.1961 48.2508 33.026 48.4602 32.904C48.6758 32.7807 48.9215 32.7186 49.1704 32.7243C49.3845 32.7197 49.5972 32.7609 49.7938 32.845V30.9229H50.5555V32.8611C50.6551 32.8141 50.7596 32.7782 50.8672 32.7538C50.9902 32.7283 51.1155 32.7157 51.2412 32.7163C51.4918 32.7106 51.7393 32.7727 51.9568 32.8959C52.1662 33.018 52.3428 33.1881 52.4718 33.3918C52.6184 33.6245 52.7238 33.8802 52.7835 34.1478C52.8557 34.4663 52.8903 34.7919 52.8865 35.1183V35.2121C52.8891 35.5049 52.8536 35.7968 52.7808 36.0807C52.7193 36.3249 52.6127 36.5557 52.4664 36.7616C52.3346 36.9478 52.16 37.1004 51.9568 37.2066C51.7379 37.3165 51.4948 37.3709 51.2493 37.3648C51.0111 37.3718 50.7742 37.327 50.5555 37.2334V38.9974H49.783V37.2468C49.6895 37.2858 49.5924 37.3155 49.4929 37.3353C49.3802 37.3553 49.2659 37.3652 49.1514 37.3648C48.9078 37.3702 48.6666 37.3159 48.4494 37.2066C48.2462 37.1004 48.0715 36.9478 47.9398 36.7616C47.7934 36.5557 47.6868 36.3249 47.6254 36.0807C47.5526 35.7968 47.5171 35.5049 47.5197 35.2121L47.5305 35.1263ZM48.303 35.2121C48.3023 35.4126 48.3205 35.6127 48.3572 35.8099C48.387 35.981 48.4476 36.1453 48.5361 36.2951C48.6156 36.429 48.7273 36.5414 48.8614 36.6222C49.0115 36.7065 49.1822 36.7483 49.3547 36.7428C49.4365 36.7431 49.5182 36.7359 49.5986 36.7214C49.6651 36.709 49.7304 36.6911 49.7938 36.6678V33.424C49.7327 33.4 49.669 33.383 49.6041 33.3731C49.5244 33.3594 49.4437 33.3532 49.3628 33.3543C49.1855 33.3475 49.0106 33.3973 48.8641 33.4964C48.7247 33.5957 48.612 33.7273 48.5361 33.8798C48.4466 34.0577 48.3862 34.2487 48.3572 34.4454C48.3207 34.6706 48.3026 34.8983 48.303 35.1263V35.2121ZM52.1249 35.1263C52.1263 34.898 52.1063 34.6701 52.0652 34.4454C52.0311 34.2478 51.9653 34.0568 51.8701 33.8798C51.7883 33.7272 51.6713 33.5958 51.5285 33.4964C51.3805 33.3985 51.2051 33.3488 51.0271 33.3543C50.9363 33.3532 50.8455 33.3604 50.756 33.3758C50.6872 33.3895 50.62 33.4101 50.5555 33.4374V36.6704C50.622 36.6956 50.691 36.7136 50.7615 36.7241C50.8512 36.7367 50.9418 36.743 51.0325 36.7428C51.1999 36.7492 51.3659 36.711 51.5132 36.6323C51.6605 36.5535 51.7838 36.4371 51.8701 36.2951C51.962 36.1456 52.0271 35.9814 52.0625 35.8099C52.1038 35.6133 52.1238 35.4129 52.1221 35.2121L52.1249 35.1263Z" fill="black"/>
<path d="M56.8241 32.7994H57.602V37.2709H56.8295V34.0191L54.7452 37.279H53.9727V32.7994H54.7452V36.0646L56.8241 32.7994Z" fill="black"/>
<path d="M62.531 37.279H61.7558V35.3702H59.6795V37.279H58.9043V32.7994H59.6795V34.7376H61.7558V32.7994H62.531V37.279Z" fill="black"/>
<path d="M66.5622 37.279C66.5308 37.2124 66.508 37.1421 66.4944 37.0699C66.4782 36.9868 66.4646 36.8983 66.4538 36.8018C66.3775 36.8787 66.296 36.9503 66.2098 37.0162C66.1164 37.0845 66.0166 37.1438 65.9117 37.1932C65.8008 37.2458 65.6845 37.2862 65.5647 37.3138C65.4338 37.342 65.3003 37.3564 65.1663 37.3567C64.952 37.3594 64.739 37.324 64.5374 37.2522C64.3602 37.1909 64.197 37.0952 64.0577 36.9707C63.9261 36.8549 63.8215 36.7122 63.7514 36.5525C63.6784 36.3896 63.6415 36.2132 63.643 36.0351C63.6377 35.8152 63.686 35.5973 63.7839 35.3997C63.8795 35.2156 64.0191 35.0574 64.1905 34.9386C64.3858 34.8075 64.6034 34.7121 64.8329 34.6572C65.1081 34.5922 65.3902 34.5607 65.6732 34.5633H66.4402V34.2121C66.446 34.0952 66.4276 33.9782 66.3862 33.8685C66.3447 33.7588 66.281 33.6586 66.199 33.5741C66.1016 33.4896 65.9882 33.425 65.8653 33.384C65.7425 33.3431 65.6127 33.3266 65.4834 33.3355C65.3491 33.3336 65.2154 33.3535 65.0877 33.3945C64.9773 33.4273 64.8736 33.479 64.7814 33.5473C64.7004 33.6088 64.6323 33.6853 64.5808 33.7725C64.5355 33.8548 64.5113 33.9469 64.5103 34.0406H63.7351C63.736 33.8734 63.7799 33.7092 63.8625 33.5634C63.9527 33.3997 64.0753 33.2556 64.223 33.1398C64.3937 33.008 64.585 32.9048 64.7895 32.8342C65.0275 32.7533 65.2778 32.7134 65.5295 32.7163C65.7597 32.7145 65.9889 32.7462 66.2098 32.8101C66.409 32.8642 66.5939 32.9602 66.7519 33.0916C66.9021 33.2199 67.0208 33.3803 67.0989 33.5607C67.1865 33.7686 67.229 33.9924 67.2236 34.2175V36.2951C67.2242 36.455 67.2378 36.6146 67.2642 36.7723C67.2853 36.9206 67.3254 37.0656 67.3835 37.2039V37.2709L66.5622 37.279ZM65.2801 36.6972C65.4134 36.697 65.5458 36.6771 65.6732 36.6383C65.7903 36.6025 65.9023 36.552 66.0066 36.4881C66.1069 36.43 66.1982 36.3577 66.2776 36.2737C66.3488 36.2015 66.4074 36.1182 66.4511 36.027V35.1102H65.8087C65.4552 35.0906 65.1025 35.1607 64.7841 35.314C64.6716 35.3734 64.5783 35.463 64.515 35.5726C64.4517 35.6821 64.421 35.8071 64.4263 35.9332C64.4248 36.0358 64.4433 36.1377 64.4805 36.2335C64.5146 36.3262 64.5714 36.4091 64.6459 36.4747C64.7247 36.5454 64.8168 36.6 64.9169 36.6356C65.0333 36.6774 65.1563 36.6983 65.2801 36.6972Z" fill="black"/>
<path d="M72.1189 37.279H71.3464V35.3702H69.2701V37.279H68.4922V32.7994H69.2701V34.7376H71.3464V32.7994H72.1189V37.279Z" fill="black"/>
<path d="M75.1741 36.7374C75.3072 36.7383 75.4394 36.7156 75.5644 36.6704C75.6854 36.6304 75.7983 36.5696 75.8978 36.4908C75.9917 36.4166 76.0708 36.3256 76.1309 36.2227C76.192 36.1166 76.229 35.9986 76.2394 35.8769H76.9685C76.9577 36.0759 76.9021 36.2701 76.8059 36.4452C76.706 36.6271 76.5727 36.7889 76.4128 36.9224C76.2459 37.0614 76.0561 37.1711 75.8518 37.2468C75.6358 37.3298 75.4058 37.3717 75.1741 37.3701C74.868 37.3764 74.5642 37.315 74.2851 37.1905C74.0417 37.0767 73.827 36.911 73.6562 36.7053C73.4853 36.4952 73.3582 36.2538 73.2822 35.9948C73.1998 35.7162 73.1587 35.4273 73.1602 35.137V34.9654C73.1585 34.676 73.1996 34.3879 73.2822 34.1103C73.3576 33.8511 73.4848 33.6095 73.6562 33.3999C73.8258 33.194 74.0397 33.0282 74.2824 32.9146C74.56 32.7881 74.8631 32.7258 75.1687 32.7323C75.4149 32.7295 75.6594 32.7722 75.8897 32.8583C76.0968 32.9342 76.2865 33.0499 76.4481 33.1988C76.6067 33.343 76.7331 33.5183 76.8194 33.7135C76.9096 33.9158 76.9602 34.1332 76.9685 34.3542H76.2394C76.2288 34.2199 76.1949 34.0884 76.1391 33.9655C76.0857 33.8493 76.0123 33.7432 75.9222 33.6518C75.8268 33.5621 75.7157 33.4904 75.5943 33.4401C75.4591 33.3861 75.3144 33.3597 75.1687 33.3623C74.9745 33.3507 74.7808 33.3921 74.6087 33.4819C74.4367 33.5717 74.2928 33.7065 74.1929 33.8717C74.0953 34.0312 74.0266 34.2062 73.9896 34.3891C73.9518 34.5789 73.9327 34.7719 73.9327 34.9654V35.137C73.9326 35.334 73.9516 35.5307 73.9896 35.7241C74.0255 35.9051 74.0934 36.0784 74.1902 36.2361C74.2848 36.3887 74.4161 36.5158 74.5724 36.6061C74.7571 36.7032 74.9652 36.7486 75.1741 36.7374Z" fill="black"/>
<path d="M77.631 35.0029C77.6278 34.6958 77.6773 34.3903 77.7774 34.0995C77.8652 33.8352 78.0042 33.5902 78.1867 33.3784C78.3634 33.1735 78.5837 33.0096 78.8318 32.8985C79.0992 32.7797 79.3897 32.7202 79.6829 32.7243C79.9804 32.72 80.2754 32.7794 80.5475 32.8985C80.7959 33.0105 81.0168 33.1742 81.1954 33.3784C81.3778 33.5902 81.5168 33.8352 81.6047 34.0995C81.7025 34.3908 81.751 34.696 81.7483 35.0029V35.0941C81.7508 35.4001 81.7023 35.7044 81.6047 35.9948C81.5177 36.2596 81.3786 36.5047 81.1954 36.716C81.0163 36.9182 80.7954 37.08 80.5475 37.1905C80.2765 37.3037 79.9853 37.3621 79.691 37.3621C79.3968 37.3621 79.1055 37.3037 78.8345 37.1905C78.5872 37.0791 78.3665 36.9174 78.1867 36.716C78.0042 36.5041 77.8652 36.2592 77.7774 35.9948C77.6775 35.7049 77.628 35.4003 77.631 35.0941V35.0029ZM78.4089 35.0941C78.4082 35.3065 78.4346 35.5182 78.4875 35.7241C78.5368 35.9108 78.6184 36.0877 78.7288 36.2468C78.8337 36.3947 78.9708 36.5174 79.1299 36.606C79.3023 36.6971 79.4956 36.7423 79.691 36.7374C79.8863 36.7417 80.0795 36.6965 80.2521 36.606C80.4118 36.5181 80.549 36.3952 80.6533 36.2468C80.7627 36.0875 80.8434 35.9107 80.8918 35.7241C80.9492 35.519 80.9775 35.3069 80.9758 35.0941V35.0029C80.9773 34.7901 80.9491 34.5781 80.8918 34.373C80.8453 34.1811 80.7635 33.9994 80.6505 33.8368C80.5453 33.6882 80.4072 33.5654 80.2467 33.4776C80.074 33.3845 79.8795 33.3382 79.6829 33.3435C79.4889 33.3382 79.297 33.3845 79.1272 33.4776C78.9694 33.567 78.8334 33.6896 78.7288 33.8368C78.6167 33.9999 78.535 34.1815 78.4875 34.373C78.4348 34.5789 78.4083 34.7905 78.4089 35.0029V35.0941Z" fill="black"/>
<path d="M82.7871 37.2789V32.7994H84.5517C84.813 32.7964 85.0738 32.8216 85.3296 32.8744C85.5377 32.9142 85.7368 32.9905 85.9178 33.0996C86.0728 33.1938 86.2007 33.3258 86.2891 33.483C86.378 33.6478 86.4227 33.8324 86.4192 34.0191C86.4211 34.2216 86.3543 34.4189 86.2295 34.5794C86.0911 34.7568 85.9024 34.8894 85.6874 34.9601C85.8237 34.9913 85.9544 35.0428 86.075 35.1129C86.1833 35.1753 86.2804 35.255 86.3623 35.3488C86.4381 35.4386 86.4968 35.5412 86.5358 35.6517C86.5759 35.7617 86.5961 35.8779 86.5954 35.9949C86.5999 36.1868 86.5581 36.377 86.4734 36.5498C86.3931 36.7079 86.2738 36.8434 86.1265 36.9438C85.9621 37.0556 85.7783 37.1365 85.5844 37.1824C85.3465 37.2388 85.1025 37.2658 84.858 37.2629L82.7871 37.2789ZM83.5623 34.7054H84.5598C85.2826 34.7054 85.644 34.4954 85.644 34.0754C85.644 33.6554 85.2826 33.4392 84.5598 33.4267H83.5705L83.5623 34.7054ZM83.5623 35.3166V36.657H84.839C85.0939 36.6749 85.3481 36.613 85.5654 36.4801C85.6397 36.4197 85.6996 36.3438 85.7407 36.2578C85.7818 36.1718 85.8032 36.0779 85.8032 35.9828C85.8032 35.8877 85.7818 35.7937 85.7407 35.7077C85.6996 35.6218 85.6397 35.5459 85.5654 35.4855C85.3473 35.3547 85.0935 35.2938 84.839 35.3112L83.5623 35.3166Z" fill="black"/>
<path d="M88.4492 34.3489H89.5984C89.8459 34.3452 90.0924 34.3823 90.3276 34.4588C90.5266 34.5222 90.7109 34.6243 90.8697 34.759C91.0108 34.8863 91.1202 35.0441 91.1895 35.2201C91.2636 35.4043 91.3004 35.601 91.2979 35.7992C91.2997 35.9981 91.2629 36.1956 91.1895 36.3809C91.1191 36.5586 91.0099 36.7188 90.8697 36.85C90.7117 36.989 90.5275 37.0957 90.3276 37.1637C90.0934 37.2446 89.8465 37.2836 89.5984 37.279H87.6875V32.7994H88.46L88.4492 34.3489ZM88.4492 34.9735V36.6543H89.5984C89.7434 36.6575 89.8877 36.6339 90.024 36.5846C90.1268 36.5431 90.2193 36.48 90.295 36.3997C90.3652 36.3222 90.4179 36.2308 90.4495 36.1316C90.482 36.0329 90.4985 35.9298 90.4983 35.826C90.4978 35.7231 90.4814 35.621 90.4495 35.523C90.416 35.4247 90.3635 35.3336 90.295 35.255C90.221 35.1687 90.1284 35.1 90.024 35.0539C89.8889 35.0002 89.744 34.9746 89.5984 34.9789L88.4492 34.9735ZM92.8971 37.279H92.1219V32.7994H92.8971V37.279Z" fill="black"/>
<path d="M95.767 34.44L96.7699 32.8074H97.6725L96.1926 35.0191L97.7186 37.279H96.8241L95.7779 35.6062L94.737 37.279H93.8398L95.3631 35.0191L93.8832 32.7994H94.775L95.767 34.44Z" fill="black"/>
<path d="M103.411 37.279C103.378 37.2128 103.355 37.1424 103.343 37.0699C103.326 36.9868 103.313 36.8983 103.302 36.8018C103.225 36.8793 103.143 36.951 103.055 37.0163C102.963 37.0851 102.864 37.1444 102.76 37.1932C102.648 37.2458 102.531 37.2862 102.41 37.3138C102.28 37.3421 102.148 37.3564 102.015 37.3567C101.8 37.3596 101.587 37.3241 101.386 37.2522C101.208 37.1915 101.045 37.0957 100.906 36.9707C100.774 36.8543 100.669 36.7118 100.597 36.5525C100.525 36.3892 100.488 36.2131 100.489 36.0351C100.484 35.815 100.533 35.597 100.632 35.3997C100.728 35.2156 100.867 35.0574 101.039 34.9386C101.234 34.8069 101.452 34.7115 101.681 34.6572C101.955 34.5922 102.237 34.5607 102.519 34.5633H103.289V34.2121C103.294 34.0952 103.276 33.9782 103.234 33.8685C103.193 33.7588 103.129 33.6586 103.047 33.5741C102.949 33.4889 102.835 33.4239 102.711 33.383C102.587 33.342 102.456 33.3259 102.326 33.3355C102.192 33.3336 102.058 33.3535 101.931 33.3945C101.819 33.4273 101.715 33.479 101.622 33.5473C101.542 33.6095 101.475 33.6859 101.424 33.7725C101.378 33.8548 101.354 33.9469 101.353 34.0406H100.575C100.577 33.8736 100.621 33.7097 100.703 33.5634C100.795 33.4002 100.918 33.2563 101.066 33.1398C101.236 33.0085 101.426 32.9053 101.63 32.8342C101.869 32.7533 102.12 32.7134 102.372 32.7163C102.602 32.7145 102.83 32.7461 103.05 32.8101C103.249 32.8639 103.434 32.96 103.592 33.0916C103.742 33.2206 103.86 33.3808 103.939 33.5607C104.027 33.7686 104.069 33.9924 104.064 34.2175V36.2951C104.064 36.455 104.078 36.6146 104.104 36.7723C104.125 36.9206 104.166 37.0656 104.224 37.2039V37.2709L103.411 37.279ZM102.128 36.6972C102.261 36.6973 102.392 36.6774 102.519 36.6383C102.637 36.603 102.75 36.5525 102.855 36.4881C102.955 36.43 103.047 36.3577 103.126 36.2737C103.196 36.2008 103.255 36.1176 103.299 36.027V35.1102H102.657C102.303 35.0903 101.951 35.1604 101.632 35.314C101.52 35.3733 101.426 35.4628 101.362 35.5723C101.298 35.6819 101.267 35.8069 101.272 35.9332C101.272 36.0357 101.29 36.1374 101.326 36.2335C101.362 36.3252 101.419 36.4076 101.491 36.4747C101.571 36.5446 101.663 36.5991 101.763 36.6356C101.876 36.6765 101.996 36.6973 102.118 36.6972H102.128Z" fill="black"/>
<path d="M106.662 35.3729H106.096V37.279H105.32V32.7994H106.096V34.692H106.602L108.123 32.7994H109.058L107.272 34.944L109.21 37.2656H108.229L106.662 35.3729Z" fill="black"/>
<path d="M113.241 33.4267H111.725V37.279H110.95V33.4267H109.465V32.7994H113.241V33.4267Z" fill="black"/>
<path d="M116.915 32.7994H117.691V37.2709H116.915V34.0191L114.831 37.279H114.059V32.7994H114.831V36.0646L116.915 32.7994Z" fill="black"/>
<path d="M119.004 37.2789V32.7994H120.758C121.019 32.7964 121.28 32.8216 121.536 32.8744C121.744 32.9142 121.943 32.9905 122.124 33.0996C122.279 33.193 122.407 33.3252 122.495 33.483C122.584 33.6478 122.629 33.8324 122.625 34.0191C122.627 34.2211 122.561 34.418 122.438 34.5794C122.295 34.7578 122.102 34.8902 121.882 34.9601C122.018 34.9912 122.148 35.0427 122.267 35.1129C122.376 35.1753 122.473 35.255 122.555 35.3488C122.631 35.4385 122.691 35.5411 122.731 35.6517C122.769 35.7623 122.788 35.8782 122.788 35.9949C122.792 36.1868 122.75 36.377 122.666 36.5498C122.586 36.7085 122.467 36.8442 122.319 36.9438C122.154 37.0556 121.971 37.1365 121.777 37.1824C121.538 37.2386 121.293 37.2656 121.048 37.2629L119.004 37.2789ZM119.776 34.7054H120.774C121.497 34.7054 121.858 34.4954 121.858 34.0754C121.858 33.6554 121.497 33.4392 120.774 33.4267H119.785L119.776 34.7054ZM119.776 35.3166V36.657H121.053C121.308 36.6755 121.562 36.6135 121.779 36.4801C121.854 36.4197 121.914 36.3438 121.955 36.2578C121.996 36.1718 122.017 36.0779 122.017 35.9828C122.017 35.8877 121.996 35.7937 121.955 35.7077C121.914 35.6218 121.854 35.5459 121.779 35.4855C121.561 35.3543 121.308 35.2934 121.053 35.3112L119.776 35.3166Z" fill="black"/>
<path d="M123.613 35.0029C123.611 34.696 123.659 34.3908 123.757 34.0995C123.847 33.836 123.986 33.5914 124.166 33.3784C124.345 33.1742 124.566 33.0105 124.814 32.8985C125.082 32.7797 125.372 32.7202 125.665 32.7243C125.962 32.72 126.256 32.7794 126.527 32.8985C126.777 33.0102 126.998 33.1739 127.178 33.3784C127.36 33.5902 127.499 33.8352 127.587 34.0995C127.684 34.3909 127.732 34.6962 127.728 35.0029V35.0941C127.731 35.4 127.684 35.7043 127.587 35.9948C127.5 36.2596 127.361 36.5047 127.178 36.716C126.998 36.9174 126.777 37.0791 126.53 37.1905C126.259 37.3037 125.968 37.3621 125.673 37.3621C125.379 37.3621 125.088 37.3037 124.817 37.1905C124.57 37.0791 124.349 36.9174 124.169 36.716C123.986 36.5043 123.846 36.2594 123.757 35.9948C123.659 35.7044 123.611 35.4001 123.613 35.0941V35.0029ZM124.391 35.0941C124.391 35.3065 124.417 35.5182 124.47 35.7241C124.518 35.9112 124.6 36.0883 124.711 36.2468C124.815 36.3953 124.953 36.5181 125.112 36.6061C125.285 36.6971 125.478 36.7423 125.673 36.7374C125.869 36.7417 126.062 36.6965 126.234 36.6061C126.393 36.518 126.53 36.3951 126.633 36.2468C126.744 36.0883 126.826 35.9112 126.874 35.7241C126.929 35.5185 126.957 35.3067 126.955 35.0941V35.0029C126.957 34.7903 126.929 34.5785 126.874 34.373C126.827 34.1815 126.745 33.9999 126.633 33.8368C126.528 33.6882 126.39 33.5654 126.229 33.4776C126.056 33.3847 125.862 33.3385 125.665 33.3435C125.471 33.3382 125.279 33.3845 125.11 33.4776C124.951 33.5656 124.814 33.6885 124.711 33.8368C124.598 33.9994 124.516 34.1811 124.47 34.373C124.417 34.5789 124.391 34.7905 124.391 35.0029V35.0941Z" fill="black"/>
<path d="M128.77 37.2789V32.7993H130.531C130.793 32.7963 131.054 32.8214 131.309 32.8744C131.518 32.9137 131.717 32.99 131.897 33.0996C132.054 33.1928 132.183 33.325 132.272 33.4829C132.359 33.648 132.403 33.8325 132.399 34.0191C132.401 34.2211 132.335 34.418 132.212 34.5794C132.074 34.7568 131.885 34.8893 131.67 34.96C131.806 34.9912 131.937 35.0428 132.057 35.1128C132.164 35.176 132.26 35.2556 132.342 35.3487C132.42 35.4378 132.479 35.5406 132.518 35.6517C132.557 35.7621 132.577 35.878 132.578 35.9948C132.582 36.1867 132.54 36.377 132.456 36.5497C132.375 36.7074 132.256 36.8428 132.109 36.9438C131.944 37.0549 131.761 37.1357 131.567 37.1824C131.329 37.2388 131.085 37.2658 130.84 37.2628L128.77 37.2789ZM129.542 34.7054H130.542C131.265 34.7054 131.626 34.4954 131.626 34.0754C131.626 33.6438 131.263 33.4266 130.542 33.4266H129.553L129.542 34.7054ZM129.542 35.3166V36.657H130.821C131.075 36.6751 131.329 36.6131 131.545 36.48C131.62 36.4202 131.681 36.3445 131.723 36.2585C131.764 36.1724 131.786 36.0782 131.786 35.9827C131.786 35.8873 131.764 35.7931 131.723 35.707C131.681 35.621 131.62 35.5453 131.545 35.4855C131.328 35.3547 131.075 35.2938 130.821 35.3112L129.542 35.3166Z" fill="black"/>
<path fill-rule="evenodd" clip-rule="evenodd" d="M20.6938 20.4624L15.2402 10.2299L20.6938 0L26.1447 10.2299L41.386 38.8365H30.4842L20.6938 20.4624Z" fill="url(#paint0_linear)"/>
<path fill-rule="evenodd" clip-rule="evenodd" d="M9.78771 20.4678L20.6949 20.4624L10.9017 38.8365H0L9.78771 20.4678Z" fill="#1C1C1C"/>
</g>
<defs>
<linearGradient id="paint0_linear" x1="15.2402" y1="19.4169" x2="41.386" y2="19.4169" gradientUnits="userSpaceOnUse">
<stop stop-color="#ACFFB7"/>
<stop offset="0.5" stop-color="#0BCAFF"/>
<stop offset="1" stop-color="#1F93FF"/>
</linearGradient>
<clipPath id="clip0">
<rect width="177" height="39" fill="white"/>
</clipPath>
</defs>
</svg>
