<svg width="302" height="208" viewBox="0 0 302 208" fill="none" xmlns="http://www.w3.org/2000/svg">
<path d="M282.737 167.719H301V1H38.9393H1V39.1324V206.999H262.029L282.737 167.719Z" stroke="white" stroke-miterlimit="10"/>
<path d="M290.723 207H301V187.456L290.723 207Z" stroke="white" stroke-miterlimit="10"/>
<path d="M192.099 103.912H125.498" stroke="white" stroke-miterlimit="10"/>
<path d="M191.74 167.262H158.072V40.5627H191.74" stroke="white" stroke-miterlimit="10"/>
<path d="M195.594 152.7H217.171C218.187 152.7 219.161 153.103 219.879 153.821C220.598 154.54 221.001 155.514 221.001 156.53V178.106C221.001 179.122 220.598 180.096 219.879 180.814C219.161 181.533 218.187 181.936 217.171 181.936H195.594C195.089 181.936 194.588 181.837 194.12 181.643C193.653 181.449 193.228 181.166 192.87 180.808C192.513 180.45 192.229 180.026 192.035 179.558C191.842 179.091 191.742 178.59 191.742 178.084V156.552C191.742 155.53 192.148 154.55 192.87 153.828C193.593 153.105 194.573 152.7 195.594 152.7V152.7Z" stroke="white" stroke-miterlimit="10"/>
<path d="M195.594 26H217.149C217.655 26 218.156 26.0996 218.623 26.2932C219.09 26.4868 219.515 26.7706 219.873 27.1283C220.231 27.486 220.514 27.9107 220.708 28.378C220.901 28.8454 221.001 29.3463 221.001 29.8522V51.429C221.001 52.4447 220.598 53.4189 219.879 54.1371C219.161 54.8554 218.187 55.2589 217.171 55.2589H195.594C195.089 55.2589 194.588 55.1593 194.12 54.9657C193.653 54.7721 193.228 54.4883 192.87 54.1306C192.513 53.7729 192.229 53.3482 192.035 52.8809C191.842 52.4135 191.742 51.9126 191.742 51.4067V29.8522C191.742 28.8305 192.148 27.8507 192.87 27.1283C193.593 26.4059 194.573 26 195.594 26V26Z" stroke="white" stroke-miterlimit="10"/>
<path d="M195.594 89.2827H217.171C218.187 89.2827 219.161 89.6862 219.879 90.4045C220.598 91.1227 221.001 92.0969 221.001 93.1126V114.689C221.001 115.705 220.598 116.679 219.879 117.398C219.161 118.116 218.187 118.519 217.171 118.519H195.594C194.573 118.519 193.593 118.113 192.87 117.391C192.148 116.669 191.742 115.689 191.742 114.667V93.1349C191.742 92.1132 192.148 91.1334 192.87 90.411C193.593 89.6886 194.573 89.2827 195.594 89.2827Z" stroke="white" stroke-miterlimit="10"/>
<path d="M117.279 76.1901C119.212 76.1901 121.066 76.9568 122.435 78.3216C123.804 79.6865 124.576 81.5383 124.582 83.4714V124.354C124.576 126.287 123.804 128.139 122.435 129.504C121.066 130.869 119.212 131.635 117.279 131.635H76.463C74.5319 131.635 72.6798 130.868 71.3143 129.503C69.9488 128.137 69.1816 126.285 69.1816 124.354V83.4714C69.1816 81.5403 69.9488 79.6882 71.3143 78.3227C72.6798 76.9572 74.5319 76.1901 76.463 76.1901H117.279Z" stroke="white" stroke-miterlimit="10"/>
<path d="M81.0723 102.242L95.5458 118.831L113.938 88.9713" stroke="white" stroke-miterlimit="10" stroke-linecap="round"/>
</svg>
