<svg width="24" height="24" viewBox="0 0 24 24" fill="none" xmlns="http://www.w3.org/2000/svg">
<path d="M19.995 6.68823C20.8914 6.15232 21.5622 5.30847 21.882 4.31423C21.0396 4.81404 20.118 5.16611 19.157 5.35523C17.8246 3.94576 15.7135 3.60276 14.0034 4.51789C12.2933 5.43302 11.4075 7.37972 11.841 9.27023C8.39059 9.09701 5.17595 7.46715 2.99699 4.78623C1.85982 6.74765 2.44094 9.25502 4.32499 10.5162C3.64369 10.4943 2.97751 10.3099 2.38199 9.97823C2.38199 9.99623 2.38199 10.0142 2.38199 10.0322C2.38238 12.0754 3.82236 13.8353 5.82499 14.2402C5.19305 14.4122 4.53019 14.4375 3.88699 14.3142C4.45018 16.0615 6.06054 17.2585 7.89599 17.2942C6.37582 18.4874 4.49846 19.1344 2.56599 19.1312C2.22346 19.1317 1.8812 19.112 1.54099 19.0722C3.50337 20.3333 5.78735 21.0026 8.11999 21.0002C11.3652 21.0225 14.484 19.7431 16.7787 17.4483C19.0734 15.1534 20.3525 12.0345 20.33 8.78923C20.33 8.60323 20.3257 8.41823 20.317 8.23423C21.1574 7.62683 21.8828 6.87438 22.459 6.01223C21.676 6.3593 20.8455 6.58716 19.995 6.68823Z" fill="white"/>
</svg>
