<svg id="Layer_3" enable-background="new 0 0 64 64" height="512" viewBox="0 0 64 64" width="512" xmlns="http://www.w3.org/2000/svg"><g><path d="m62 5h-3v-3c0-.552-.448-1-1-1h-52c-.552 0-1 .448-1 1v3h-3c-.552 0-1 .448-1 1v56c0 .552.448 1 1 1h60c.552 0 1-.448 1-1v-56c0-.552-.448-1-1-1zm-29 45v-4h2v-2h-2v-4h2v-2h-2v-4h2v-2h-2v-4h2v-2h-2v-4h2v-2h-2v-4h2v-2h-2v-4h2v-2h-2v-5h24v54h-24v-5h2v-2zm-26-47h24v5h-2v2h2v4h-2v2h2v4h-2v2h2v4h-2v2h2v4h-2v2h2v4h-2v2h2v4h-2v2h2v4h-2v2h2v5h-24zm54 58h-58v-54h2v51c0 .552.448 1 1 1h52c.552 0 1-.448 1-1v-51h2z"/><path d="m15 23h-1v-6.178c1.72-.559 3-2.5 3-4.822 0-2.757-1.794-5-4-5s-4 2.243-4 5c0 2.323 1.28 4.263 3 4.822v6.178h-1c-.552 0-1 .448-1 1v4c0 1.654 1.346 3 3 3s3-1.346 3-3v-4c0-.552-.448-1-1-1zm-4-11c0-1.626.916-3 2-3s2 1.374 2 3-.916 3-2 3-2-1.374-2-3zm3 16c0 .551-.449 1-1 1s-1-.449-1-1v-3h2z"/><path d="m25 13c0 .737-.405 1.375-1 1.722v-7.722h-2v7.722c-.595-.347-1-.985-1-1.722v-6h-2v6c0 1.858 1.28 3.411 3 3.858v6.142h-1c-.552 0-1 .448-1 1v4c0 1.654 1.346 3 3 3s3-1.346 3-3v-4c0-.552-.448-1-1-1h-1v-6.142c1.72-.447 3-2 3-3.858v-6h-2zm-1 15c0 .551-.449 1-1 1s-1-.449-1-1v-3h2z"/><path d="m12 33c-1.654 0-3 1.346-3 3s1.346 3 3 3 3-1.346 3-3-1.346-3-3-3zm0 4c-.551 0-1-.449-1-1s.449-1 1-1 1 .449 1 1-.449 1-1 1z"/><path d="m17 35h10v2h-10z"/><path d="m12 41c-1.654 0-3 1.346-3 3s1.346 3 3 3 3-1.346 3-3-1.346-3-3-3zm0 4c-.551 0-1-.449-1-1s.449-1 1-1 1 .449 1 1-.449 1-1 1z"/><path d="m17 43h10v2h-10z"/><path d="m12 49c-1.654 0-3 1.346-3 3s1.346 3 3 3 3-1.346 3-3-1.346-3-3-3zm0 4c-.551 0-1-.449-1-1s.449-1 1-1 1 .449 1 1-.449 1-1 1z"/><path d="m17 51h10v2h-10z"/><path d="m40 37c1.654 0 3-1.346 3-3s-1.346-3-3-3-3 1.346-3 3 1.346 3 3 3zm0-4c.551 0 1 .449 1 1s-.449 1-1 1-1-.449-1-1 .449-1 1-1z"/><path d="m45 33h10v2h-10z"/><path d="m40 45c1.654 0 3-1.346 3-3s-1.346-3-3-3-3 1.346-3 3 1.346 3 3 3zm0-4c.551 0 1 .449 1 1s-.449 1-1 1-1-.449-1-1 .449-1 1-1z"/><path d="m45 41h10v2h-10z"/><path d="m40 53c1.654 0 3-1.346 3-3s-1.346-3-3-3-3 1.346-3 3 1.346 3 3 3zm0-4c.551 0 1 .449 1 1s-.449 1-1 1-1-.449-1-1 .449-1 1-1z"/><path d="m45 49h10v2h-10z"/><path d="m40 13c1.654 0 3-1.346 3-3s-1.346-3-3-3-3 1.346-3 3 1.346 3 3 3zm0-4c.551 0 1 .449 1 1s-.449 1-1 1-1-.449-1-1 .449-1 1-1z"/><path d="m45 9h10v2h-10z"/><path d="m40 21c1.654 0 3-1.346 3-3s-1.346-3-3-3-3 1.346-3 3 1.346 3 3 3zm0-4c.551 0 1 .449 1 1s-.449 1-1 1-1-.449-1-1 .449-1 1-1z"/><path d="m45 17h10v2h-10z"/><path d="m40 29c1.654 0 3-1.346 3-3s-1.346-3-3-3-3 1.346-3 3 1.346 3 3 3zm0-4c.551 0 1 .449 1 1s-.449 1-1 1-1-.449-1-1 .449-1 1-1z"/><path d="m45 25h10v2h-10z"/></g></svg>