<svg width="1170" height="51" viewBox="0 0 1170 51" fill="none" xmlns="http://www.w3.org/2000/svg">
<path d="M6.43198 8.6595H8.2563V42.6439H6.43198V18.4394L1.82432 42.6439H0V8.6595H1.82432V32.8874L6.43198 8.6595Z" fill="#C4C4C4"/>
<path d="M12.8063 8.6595L15.8348 34.708L18.8561 8.6595H21.214V42.6439H19.3969V31.4403L19.5772 16.4554L16.4765 42.6439H15.1714L12.078 16.4787L12.2583 31.4403V42.6439H10.4411V8.6595H12.8063Z" fill="#C4C4C4"/>
<path d="M29.5136 27.4723H25.2015V37.9291H30.2418V42.6439H23.3772V8.6595H30.1914V13.4211H25.2015V22.8041H29.5136V27.4723Z" fill="#C4C4C4"/>
<path d="M43.6322 26.5387C43.6322 29.8687 43.4543 32.7941 43.0986 35.3149C42.7429 37.8201 42.2333 39.7497 41.5699 41.1034C40.9113 42.4416 40.1518 43.1108 39.2913 43.1108C38.4885 43.1108 37.7698 42.5195 37.1353 41.3368C36.5008 40.1542 35.9936 38.4581 35.6138 36.2485C35.2341 34.0389 35.0105 31.4636 34.9432 28.5227H33.6309V42.6439H31.8138V8.6595H33.6309V23.9478H34.9216C34.9504 20.8201 35.1499 18.0581 35.5201 15.6618C35.8902 13.2499 36.3998 11.4059 37.0488 10.13C37.7025 8.83844 38.4453 8.19268 39.2769 8.19268C40.1326 8.19268 40.8897 8.86178 41.5483 10.2C42.2117 11.5227 42.7236 13.4366 43.0842 15.9419C43.4447 18.4316 43.6274 21.3336 43.6322 24.6481V26.5387ZM41.8079 24.7648C41.8079 20.9991 41.5867 18.1126 41.1445 16.1053C40.707 14.0979 40.0845 13.0943 39.2769 13.0943C38.4885 13.0943 37.8708 14.0979 37.4237 16.1053C36.9815 18.097 36.7555 20.9213 36.7459 24.578V26.5387C36.7459 30.2732 36.9695 33.1597 37.4165 35.1982C37.8684 37.2366 38.4933 38.2558 39.2913 38.2558C40.0989 38.2558 40.719 37.26 41.1517 35.2682C41.5891 33.2764 41.8079 30.3666 41.8079 26.5387V24.7648Z" fill="#C4C4C4"/>
<path d="M52.624 13.4211H49.3503V42.6439H47.5404V13.4211H44.2956V8.6595H52.624V13.4211Z" fill="#C4C4C4"/>
<path d="M61.8177 31.5803C61.7119 35.206 61.2985 38.038 60.5774 40.0764C59.8563 42.0993 58.8973 43.1108 57.7003 43.1108C56.8639 43.1108 56.126 42.4728 55.4866 41.1968C54.8521 39.9053 54.3618 38.0769 54.0156 35.7117C53.6695 33.3465 53.4893 30.6 53.4748 27.4723V24.2979C53.4748 21.0924 53.6503 18.2682 54.0012 15.8252C54.3521 13.3822 54.8545 11.4993 55.5083 10.1767C56.1668 8.854 56.9264 8.19268 57.7869 8.19268C58.9454 8.19268 59.878 9.2119 60.5846 11.2503C61.2913 13.2888 61.7023 16.1675 61.8177 19.8865H60.0006C59.914 17.4435 59.6929 15.6851 59.3372 14.6114C58.9862 13.5222 58.4695 12.9776 57.7869 12.9776C56.9937 12.9776 56.3832 13.919 55.9553 15.8018C55.5323 17.6691 55.316 20.4156 55.3064 24.0412V27.0522C55.3064 30.7245 55.5083 33.5254 55.9121 35.4549C56.3207 37.3844 56.9168 38.3492 57.7003 38.3492C58.4166 38.3492 58.955 37.8279 59.3155 36.7854C59.6761 35.7428 59.9044 34.0078 60.0006 31.5803H61.8177Z" fill="#C4C4C4"/>
<path d="M68.6318 42.6439V29.9465H66.5984L64.5722 42.6439H62.618L64.9615 28.1959C63.7405 26.3286 63.13 23.2709 63.13 19.0229C63.13 15.7707 63.4593 13.2421 64.1179 11.4371C64.7813 9.61648 65.7042 8.69062 66.8868 8.6595H70.4561V42.6439H68.6318ZM64.9471 19.2796C64.9471 21.1936 65.113 22.6874 65.4447 23.7611C65.7764 24.8348 66.2739 25.3716 66.9373 25.3716H68.6318V13.4211H66.9373C66.2643 13.4211 65.7643 13.9423 65.4374 14.9849C65.1106 16.0275 64.9471 17.459 64.9471 19.2796Z" fill="#C4C4C4"/>
<path d="M84.6108 42.6439H82.7937V13.4211H78.1716V42.6439H76.3545V8.6595H84.6108V42.6439Z" fill="#C4C4C4"/>
<path d="M88.6416 30.0165V42.6439H86.8173V8.6595H90.8337C92.0066 8.6595 92.9368 9.6476 93.6242 11.6238C94.3165 13.6 94.6626 16.2142 94.6626 19.4664C94.6626 22.7963 94.3237 25.3872 93.6459 27.2389C92.9729 29.0906 92.0283 30.0165 90.812 30.0165H88.6416ZM88.6416 25.2783H90.8337C91.4826 25.2783 91.9778 24.7881 92.3191 23.8078C92.6604 22.8119 92.831 21.3803 92.831 19.513C92.831 17.6769 92.658 16.2142 92.3119 15.1249C91.9658 14.0201 91.4898 13.4522 90.8841 13.4211H88.6416V25.2783Z" fill="#C4C4C4"/>
<path d="M104.642 26.5387C104.642 29.8687 104.464 32.7941 104.109 35.3149C103.753 37.8201 103.243 39.7497 102.58 41.1034C101.921 42.4416 101.162 43.1108 100.301 43.1108C99.4505 43.1108 98.691 42.4416 98.0228 41.1034C97.3594 39.7497 96.845 37.8279 96.4797 35.3382C96.1191 32.8485 95.9365 29.9776 95.9317 26.7254V24.8114C95.9317 21.497 96.1119 18.5716 96.4725 16.0352C96.8378 13.4989 97.3498 11.5616 98.0084 10.2233C98.6717 8.86957 99.4313 8.19268 100.287 8.19268C101.143 8.19268 101.9 8.86178 102.558 10.2C103.222 11.5227 103.734 13.4366 104.094 15.9419C104.455 18.4316 104.637 21.3336 104.642 24.6481V26.5387ZM102.818 24.7648C102.818 20.9991 102.597 18.1126 102.155 16.1053C101.717 14.0979 101.095 13.0943 100.287 13.0943C99.4986 13.0943 98.8809 14.0979 98.4338 16.1053C97.9915 18.097 97.7656 20.9213 97.756 24.578V26.5387C97.756 30.2732 97.9795 33.1597 98.4266 35.1982C98.8784 37.2366 99.5034 38.2558 100.301 38.2558C101.109 38.2558 101.729 37.26 102.162 35.2682C102.599 33.2764 102.818 30.3666 102.818 26.5387V24.7648Z" fill="#C4C4C4"/>
<path d="M113.425 13.4211H110.151V42.6439H108.341V13.4211H105.097V8.6595H113.425V13.4211Z" fill="#C4C4C4"/>
<path d="M121.241 8.6595H123.066V42.6439H121.241V18.4394L116.634 42.6439H114.809V8.6595H116.634V32.8874L121.241 8.6595Z" fill="#C4C4C4"/>
<path d="M125.251 42.6439V8.6595H128.849C130.036 8.6595 130.94 9.42975 131.56 10.9703C132.18 12.5108 132.49 14.806 132.49 17.8558C132.49 19.4119 132.36 20.8124 132.101 22.0572C131.841 23.3021 131.461 24.2668 130.961 24.9515C131.529 25.4494 131.966 26.3908 132.274 27.7757C132.586 29.1451 132.742 30.7945 132.742 32.724C132.742 35.914 132.425 38.3648 131.791 40.0764C131.161 41.7881 130.257 42.6439 129.079 42.6439H125.251ZM127.075 27.3089V37.9291H129.101C129.673 37.9291 130.12 37.47 130.442 36.5519C130.764 35.6339 130.925 34.3579 130.925 32.724C130.925 29.1918 130.368 27.3867 129.252 27.3089H127.075ZM127.075 22.9675H128.863C129.43 22.9675 129.873 22.5551 130.19 21.7304C130.512 20.8902 130.673 19.7076 130.673 18.1826C130.673 16.5021 130.524 15.2883 130.226 14.5414C129.933 13.7945 129.474 13.4211 128.849 13.4211H127.075V22.9675Z" fill="#C4C4C4"/>
<path d="M142.946 26.5387C142.946 29.8687 142.768 32.7941 142.412 35.3149C142.056 37.8201 141.547 39.7497 140.883 41.1034C140.225 42.4416 139.465 43.1108 138.605 43.1108C137.754 43.1108 136.994 42.4416 136.326 41.1034C135.663 39.7497 135.148 37.8279 134.783 35.3382C134.423 32.8485 134.24 29.9776 134.235 26.7254V24.8114C134.235 21.497 134.415 18.5716 134.776 16.0352C135.141 13.4989 135.653 11.5616 136.312 10.2233C136.975 8.86957 137.735 8.19268 138.59 8.19268C139.446 8.19268 140.203 8.86178 140.862 10.2C141.525 11.5227 142.037 13.4366 142.398 15.9419C142.758 18.4316 142.941 21.3336 142.946 24.6481V26.5387ZM141.121 24.7648C141.121 20.9991 140.9 18.1126 140.458 16.1053C140.021 14.0979 139.398 13.0943 138.59 13.0943C137.802 13.0943 137.184 14.0979 136.737 16.1053C136.295 18.097 136.069 20.9213 136.059 24.578V26.5387C136.059 30.2732 136.283 33.1597 136.73 35.1982C137.182 37.2366 137.807 38.2558 138.605 38.2558C139.412 38.2558 140.033 37.26 140.465 35.2682C140.903 33.2764 141.121 30.3666 141.121 26.5387V24.7648Z" fill="#C4C4C4"/>
<path d="M153.07 42.6439H151.252V13.4211H146.63V42.6439H144.813V8.6595H153.07V42.6439Z" fill="#C4C4C4"/>
<path d="M163.655 26.5387C163.655 29.8687 163.477 32.7941 163.121 35.3149C162.766 37.8201 162.256 39.7497 161.593 41.1034C160.934 42.4416 160.175 43.1108 159.314 43.1108C158.463 43.1108 157.704 42.4416 157.035 41.1034C156.372 39.7497 155.858 37.8279 155.492 35.3382C155.132 32.8485 154.949 29.9776 154.944 26.7254V24.8114C154.944 21.497 155.125 18.5716 155.485 16.0352C155.85 13.4989 156.362 11.5616 157.021 10.2233C157.684 8.86957 158.444 8.19268 159.3 8.19268C160.155 8.19268 160.912 8.86178 161.571 10.2C162.234 11.5227 162.746 13.4366 163.107 15.9419C163.467 18.4316 163.65 21.3336 163.655 24.6481V26.5387ZM161.831 24.7648C161.831 20.9991 161.609 18.1126 161.167 16.1053C160.73 14.0979 160.107 13.0943 159.3 13.0943C158.511 13.0943 157.894 14.0979 157.446 16.1053C157.004 18.097 156.778 20.9213 156.769 24.578V26.5387C156.769 30.2732 156.992 33.1597 157.439 35.1982C157.891 37.2366 158.516 38.2558 159.314 38.2558C160.122 38.2558 160.742 37.26 161.174 35.2682C161.612 33.2764 161.831 30.3666 161.831 26.5387V24.7648Z" fill="#C4C4C4"/>
<path d="M168.58 28.0792H167.34V42.6439H165.522V8.6595H167.34V22.9442H168.342L171.428 8.6595H173.663L170.058 24.9281L173.981 42.6439H171.789L168.58 28.0792Z" fill="#C4C4C4"/>
<path d="M180.867 34.7313H176.8L175.949 42.6439H174.053L178.019 8.6595H179.656L183.629 42.6439H181.725L180.867 34.7313ZM177.312 29.9698H180.355L178.834 15.8719L177.312 29.9698Z" fill="#C4C4C4"/>
<path d="M190.075 17.9259C190.075 16.4009 189.897 15.1872 189.541 14.2847C189.186 13.3822 188.703 12.9309 188.092 12.9309C187.568 12.9309 187.131 13.3822 186.78 14.2847C186.429 15.1716 186.253 16.3231 186.253 17.7391H184.436C184.436 15.8874 184.595 14.238 184.912 12.7908C185.229 11.3437 185.669 10.2233 186.232 9.42975C186.794 8.62059 187.414 8.21602 188.092 8.21602C189.294 8.21602 190.226 9.06407 190.89 10.7602C191.558 12.4563 191.892 14.8293 191.892 17.8792C191.892 19.4197 191.748 20.8357 191.46 22.1272C191.171 23.4188 190.767 24.438 190.248 25.1849C190.835 25.8384 191.282 26.8343 191.589 28.1725C191.902 29.4952 192.058 31.1446 192.058 33.1208C192.058 36.1707 191.697 38.5982 190.976 40.4032C190.255 42.1927 189.294 43.0874 188.092 43.0874C187.352 43.0874 186.681 42.6595 186.08 41.8037C185.484 40.9478 185.035 39.7808 184.732 38.3025C184.434 36.8243 184.285 35.1281 184.285 33.2142H186.102C186.102 34.6769 186.289 35.914 186.664 36.9254C187.039 37.9213 187.515 38.4192 188.092 38.4192C188.736 38.4192 189.253 37.9291 189.642 36.9487C190.037 35.9684 190.234 34.6924 190.234 33.1208C190.234 31.2069 190.061 29.822 189.715 28.9661C189.373 28.0947 188.871 27.659 188.207 27.659H186.974V22.9908H188.143C189.431 22.9908 190.075 21.3025 190.075 17.9259Z" fill="#C4C4C4"/>
<path d="M199.629 34.7313H195.562L194.712 42.6439H192.815L196.781 8.6595H198.418L202.391 42.6439H200.487L199.629 34.7313ZM196.074 29.9698H199.117L197.596 15.8719L196.074 29.9698Z" fill="#C4C4C4"/>
<path d="M211.924 42.6439H210.106V27.5423H205.412V42.6439H203.588V8.6595H205.412V22.8041H210.106V8.6595H211.924V42.6439Z" fill="#C4C4C4"/>
<path d="M220.519 8.6595H222.343V42.6439H220.519V18.4394L215.911 42.6439H214.087V8.6595H215.911V32.8874L220.519 8.6595Z" fill="#C4C4C4"/>
<path d="M229.705 42.6439V29.9465H227.672L225.646 42.6439H223.692L226.035 28.1959C224.814 26.3286 224.203 23.2709 224.203 19.0229C224.203 15.7707 224.533 13.2421 225.191 11.4371C225.855 9.61648 226.778 8.69062 227.96 8.6595H231.53V42.6439H229.705ZM226.021 19.2796C226.021 21.1936 226.186 22.6874 226.518 23.7611C226.85 24.8348 227.347 25.3716 228.011 25.3716H229.705V13.4211H228.011C227.338 13.4211 226.838 13.9423 226.511 14.9849C226.184 16.0275 226.021 17.459 226.021 19.2796Z" fill="#C4C4C4"/>
<path d="M234.623 36.6687C234.95 36.6687 235.202 36.9721 235.38 37.5789C235.558 38.1703 235.647 38.9172 235.647 39.8197C235.647 40.7066 235.558 41.4458 235.38 42.0371C235.202 42.6128 234.95 42.9007 234.623 42.9007C234.311 42.9007 234.063 42.6128 233.88 42.0371C233.698 41.4613 233.606 40.7222 233.606 39.8197C233.606 38.9172 233.695 38.1703 233.873 37.5789C234.051 36.9721 234.301 36.6687 234.623 36.6687Z" fill="#C4C4C4"/>
<path d="M249.809 42.6439H247.992V13.4211H243.37V42.6439H241.553V8.6595H249.809V42.6439Z" fill="#C4C4C4"/>
<path d="M258.152 27.4723H253.84V37.9291H258.88V42.6439H252.015V8.6595H258.829V13.4211H253.84V22.8041H258.152V27.4723Z" fill="#C4C4C4"/>
<path d="M262.19 30.0165V42.6439H260.365V8.6595H264.382C265.555 8.6595 266.485 9.6476 267.172 11.6238C267.865 13.6 268.211 16.2142 268.211 19.4664C268.211 22.7963 267.872 25.3872 267.194 27.2389C266.521 29.0906 265.576 30.0165 264.36 30.0165H262.19ZM262.19 25.2783H264.382C265.031 25.2783 265.526 24.7881 265.867 23.8078C266.208 22.8119 266.379 21.3803 266.379 19.513C266.379 17.6769 266.206 16.2142 265.86 15.1249C265.514 14.0201 265.038 13.4522 264.432 13.4211H262.19V25.2783Z" fill="#C4C4C4"/>
<path d="M275.948 27.4723H271.636V37.9291H276.676V42.6439H269.811V8.6595H276.626V13.4211H271.636V22.8041H275.948V27.4723Z" fill="#C4C4C4"/>
<path d="M287.817 51H286.086V42.6439H279.171V51H277.412L277.354 37.9291H278.197C278.616 36.622 278.95 34.7236 279.2 32.2339C279.45 29.7286 279.611 26.8966 279.683 23.7378L279.957 8.6595H286.576V37.9291H287.91L287.817 51ZM280.26 37.9291H284.759V13.4211H281.695L281.522 22.9908C281.392 29.3863 280.971 34.3657 280.26 37.9291Z" fill="#C4C4C4"/>
<path d="M299.39 8.6595H301.214V42.6439H299.39V18.4394L294.782 42.6439H292.958V8.6595H294.782V32.8874L299.39 8.6595Z" fill="#C4C4C4"/>
<path d="M311.41 31.5803C311.304 35.206 310.891 38.038 310.17 40.0764C309.449 42.0993 308.49 43.1108 307.293 43.1108C306.456 43.1108 305.718 42.4728 305.079 41.1968C304.445 39.9053 303.954 38.0769 303.608 35.7117C303.262 33.3465 303.082 30.6 303.067 27.4723V24.2979C303.067 21.0924 303.243 18.2682 303.594 15.8252C303.945 13.3822 304.447 11.4993 305.101 10.1767C305.759 8.854 306.519 8.19268 307.379 8.19268C308.538 8.19268 309.47 9.2119 310.177 11.2503C310.884 13.2888 311.295 16.1675 311.41 19.8865H309.593C309.507 17.4435 309.285 15.6851 308.93 14.6114C308.579 13.5222 308.062 12.9776 307.379 12.9776C306.586 12.9776 305.976 13.919 305.548 15.8018C305.125 17.6691 304.908 20.4156 304.899 24.0412V27.0522C304.899 30.7245 305.101 33.5254 305.505 35.4549C305.913 37.3844 306.509 38.3492 307.293 38.3492C308.009 38.3492 308.547 37.8279 308.908 36.7854C309.269 35.7428 309.497 34.0078 309.593 31.5803H311.41Z" fill="#C4C4C4"/>
<path d="M321.354 42.6439H319.537V13.4211H314.915V42.6439H313.097V8.6595H321.354V42.6439Z" fill="#C4C4C4"/>
<path d="M331.939 26.5387C331.939 29.8687 331.761 32.7941 331.406 35.3149C331.05 37.8201 330.54 39.7497 329.877 41.1034C329.218 42.4416 328.459 43.1108 327.598 43.1108C326.747 43.1108 325.988 42.4416 325.32 41.1034C324.656 39.7497 324.142 37.8279 323.777 35.3382C323.416 32.8485 323.233 29.9776 323.229 26.7254V24.8114C323.229 21.497 323.409 18.5716 323.769 16.0352C324.135 13.4989 324.647 11.5616 325.305 10.2233C325.969 8.86957 326.728 8.19268 327.584 8.19268C328.44 8.19268 329.197 8.86178 329.855 10.2C330.519 11.5227 331.031 13.4366 331.391 15.9419C331.752 18.4316 331.934 21.3336 331.939 24.6481V26.5387ZM330.115 24.7648C330.115 20.9991 329.894 18.1126 329.451 16.1053C329.014 14.0979 328.391 13.0943 327.584 13.0943C326.795 13.0943 326.178 14.0979 325.731 16.1053C325.288 18.097 325.062 20.9213 325.053 24.578V26.5387C325.053 30.2732 325.276 33.1597 325.723 35.1982C326.175 37.2366 326.8 38.2558 327.598 38.2558C328.406 38.2558 329.026 37.26 329.459 35.2682C329.896 33.2764 330.115 30.3666 330.115 26.5387V24.7648Z" fill="#C4C4C4"/>
<path d="M341.782 8.6595V42.6439H339.965V13.4211H336.749L336.561 26.562C336.489 30.67 336.333 33.86 336.092 36.1318C335.857 38.3881 335.513 40.0375 335.061 41.0801C334.609 42.1227 334.004 42.6439 333.244 42.6439H332.783V37.9291L333.071 37.859C333.489 37.7346 333.812 37.26 334.037 36.4352C334.268 35.6105 334.441 34.3657 334.557 32.7007C334.677 31.0201 334.761 28.5538 334.809 25.3016L335.011 8.6595H341.782Z" fill="#C4C4C4"/>
<path d="M345.777 21.6604H347.925C348.694 21.6604 349.365 22.0883 349.937 22.9442C350.509 23.8 350.944 25.0137 351.242 26.5854C351.54 28.157 351.689 29.9776 351.689 32.0471C351.689 35.2215 351.355 37.7735 350.687 39.703C350.024 41.6325 349.117 42.6128 347.969 42.6439H343.952V8.6595H345.777V21.6604ZM345.777 26.3986V37.9291H347.918C348.533 37.9291 349.012 37.3922 349.353 36.3185C349.699 35.2293 349.872 33.7899 349.872 32.0005C349.872 30.2888 349.704 28.935 349.367 27.9391C349.031 26.9433 348.565 26.4297 347.969 26.3986H345.777Z" fill="#C4C4C4"/>
<path d="M358.518 17.9259C358.518 16.4009 358.34 15.1872 357.984 14.2847C357.629 13.3822 357.145 12.9309 356.535 12.9309C356.011 12.9309 355.574 13.3822 355.223 14.2847C354.872 15.1716 354.696 16.3231 354.696 17.7391H352.879C352.879 15.8874 353.038 14.238 353.355 12.7908C353.672 11.3437 354.112 10.2233 354.675 9.42975C355.237 8.62059 355.857 8.21602 356.535 8.21602C357.737 8.21602 358.669 9.06407 359.333 10.7602C360.001 12.4563 360.335 14.8293 360.335 17.8792C360.335 19.4197 360.191 20.8357 359.902 22.1272C359.614 23.4188 359.21 24.438 358.691 25.1849C359.277 25.8384 359.725 26.8343 360.032 28.1725C360.345 29.4952 360.501 31.1446 360.501 33.1208C360.501 36.1707 360.14 38.5982 359.419 40.4032C358.698 42.1927 357.737 43.0874 356.535 43.0874C355.795 43.0874 355.124 42.6595 354.523 41.8037C353.927 40.9478 353.478 39.7808 353.175 38.3025C352.877 36.8243 352.728 35.1281 352.728 33.2142H354.545C354.545 34.6769 354.732 35.914 355.107 36.9254C355.482 37.9213 355.958 38.4192 356.535 38.4192C357.179 38.4192 357.696 37.9291 358.085 36.9487C358.479 35.9684 358.677 34.6924 358.677 33.1208C358.677 31.2069 358.503 29.822 358.157 28.9661C357.816 28.0947 357.314 27.659 356.65 27.659H355.417V22.9908H356.585C357.874 22.9908 358.518 21.3025 358.518 17.9259Z" fill="#C4C4C4"/>
<path d="M370.574 26.5387C370.574 29.8687 370.396 32.7941 370.041 35.3149C369.685 37.8201 369.175 39.7497 368.512 41.1034C367.853 42.4416 367.094 43.1108 366.233 43.1108C365.383 43.1108 364.623 42.4416 363.955 41.1034C363.291 39.7497 362.777 37.8279 362.412 35.3382C362.051 32.8485 361.868 29.9776 361.864 26.7254V24.8114C361.864 21.497 362.044 18.5716 362.404 16.0352C362.77 13.4989 363.282 11.5616 363.94 10.2233C364.604 8.86957 365.363 8.19268 366.219 8.19268C367.075 8.19268 367.832 8.86178 368.49 10.2C369.154 11.5227 369.666 13.4366 370.026 15.9419C370.387 18.4316 370.569 21.3336 370.574 24.6481V26.5387ZM368.75 24.7648C368.75 20.9991 368.529 18.1126 368.087 16.1053C367.649 14.0979 367.027 13.0943 366.219 13.0943C365.431 13.0943 364.813 14.0979 364.366 16.1053C363.924 18.097 363.698 20.9213 363.688 24.578V26.5387C363.688 30.2732 363.912 33.1597 364.359 35.1982C364.81 37.2366 365.435 38.2558 366.233 38.2558C367.041 38.2558 367.661 37.26 368.094 35.2682C368.531 33.2764 368.75 30.3666 368.75 26.5387V24.7648Z" fill="#C4C4C4"/>
<path d="M372.391 42.6439V8.6595H375.99C377.177 8.6595 378.081 9.42975 378.701 10.9703C379.321 12.5108 379.631 14.806 379.631 17.8558C379.631 19.4119 379.501 20.8124 379.242 22.0572C378.982 23.3021 378.602 24.2668 378.102 24.9515C378.67 25.4494 379.107 26.3908 379.415 27.7757C379.727 29.1451 379.883 30.7945 379.883 32.724C379.883 35.914 379.566 38.3648 378.932 40.0764C378.302 41.7881 377.398 42.6439 376.22 42.6439H372.391ZM374.216 27.3089V37.9291H376.242C376.814 37.9291 377.261 37.47 377.583 36.5519C377.905 35.6339 378.066 34.3579 378.066 32.724C378.066 29.1918 377.509 27.3867 376.393 27.3089H374.216ZM374.216 22.9675H376.004C376.571 22.9675 377.013 22.5551 377.331 21.7304C377.653 20.8902 377.814 19.7076 377.814 18.1826C377.814 16.5021 377.665 15.2883 377.367 14.5414C377.074 13.7945 376.614 13.4211 375.99 13.4211H374.216V22.9675Z" fill="#C4C4C4"/>
<path d="M387.584 34.7313H383.518L382.667 42.6439H380.77L384.736 8.6595H386.373L390.346 42.6439H388.442L387.584 34.7313ZM384.03 29.9698H387.072L385.551 15.8719L384.03 29.9698Z" fill="#C4C4C4"/>
<path d="M399.879 42.6439H398.062V27.5423H393.367V42.6439H391.543V8.6595H393.367V22.8041H398.062V8.6595H399.879V42.6439Z" fill="#C4C4C4"/>
<path d="M408.474 8.6595H410.298V42.6439H408.474V18.4394L403.866 42.6439H402.042V8.6595H403.866V32.8874L408.474 8.6595Z" fill="#C4C4C4"/>
<path d="M418.619 27.4723H414.307V37.9291H419.348V42.6439H412.483V8.6595H419.297V13.4211H414.307V22.8041H418.619V27.4723Z" fill="#C4C4C4"/>
<path d="M423.198 8.6595L426.227 34.708L429.248 8.6595H431.606V42.6439H429.789V31.4403L429.969 16.4554L426.868 42.6439H425.563L422.47 16.4787L422.65 31.4403V42.6439H420.833V8.6595H423.198Z" fill="#C4C4C4"/>
<path d="M445.782 42.6439H443.965V27.5423H439.271V42.6439H437.447V8.6595H439.271V22.8041H443.965V8.6595H445.782V42.6439Z" fill="#C4C4C4"/>
<path d="M454.082 27.4723H449.77V37.9291H454.81V42.6439H447.945V8.6595H454.76V13.4211H449.77V22.8041H454.082V27.4723Z" fill="#C4C4C4"/>
<path d="M464.674 26.5387C464.674 29.8687 464.497 32.7941 464.141 35.3149C463.785 37.8201 463.276 39.7497 462.612 41.1034C461.954 42.4416 461.194 43.1108 460.334 43.1108C459.483 43.1108 458.723 42.4416 458.055 41.1034C457.392 39.7497 456.877 37.8279 456.512 35.3382C456.151 32.8485 455.969 29.9776 455.964 26.7254V24.8114C455.964 21.497 456.144 18.5716 456.505 16.0352C456.87 13.4989 457.382 11.5616 458.041 10.2233C458.704 8.86957 459.463 8.19268 460.319 8.19268C461.175 8.19268 461.932 8.86178 462.59 10.2C463.254 11.5227 463.766 13.4366 464.126 15.9419C464.487 18.4316 464.67 21.3336 464.674 24.6481V26.5387ZM462.85 24.7648C462.85 20.9991 462.629 18.1126 462.187 16.1053C461.749 14.0979 461.127 13.0943 460.319 13.0943C459.531 13.0943 458.913 14.0979 458.466 16.1053C458.024 18.097 457.798 20.9213 457.788 24.578V26.5387C457.788 30.2732 458.012 33.1597 458.459 35.1982C458.911 37.2366 459.536 38.2558 460.334 38.2558C461.141 38.2558 461.761 37.26 462.194 35.2682C462.631 33.2764 462.85 30.3666 462.85 26.5387V24.7648Z" fill="#C4C4C4"/>
<path d="M473.125 13.4211H468.287V21.6604H470.436C471.205 21.6604 471.876 22.0883 472.448 22.9442C473.02 23.8 473.455 25.0137 473.753 26.5854C474.051 28.157 474.2 29.9776 474.2 32.0471C474.2 35.2215 473.866 37.7735 473.197 39.703C472.534 41.6325 471.628 42.6128 470.479 42.6439H466.463V8.6595H473.125V13.4211ZM468.287 26.3986V37.9291H470.429C471.044 37.9291 471.522 37.3922 471.863 36.3185C472.21 35.2293 472.383 33.7899 472.383 32.0005C472.383 30.2888 472.214 28.935 471.878 27.9391C471.541 26.9433 471.075 26.4297 470.479 26.3986H468.287Z" fill="#C4C4C4"/>
<path d="M479.291 20.9368L481.497 8.6595H483.603L480.43 25.5117L483.675 42.6439H481.548L479.291 30.1799L477.026 42.6439H474.906L478.158 25.5117L474.979 8.6595H477.084L479.291 20.9368Z" fill="#C4C4C4"/>
<path d="M493.215 26.5387C493.215 29.8687 493.037 32.7941 492.681 35.3149C492.325 37.8201 491.816 39.7497 491.152 41.1034C490.494 42.4416 489.734 43.1108 488.874 43.1108C488.023 43.1108 487.263 42.4416 486.595 41.1034C485.932 39.7497 485.417 37.8279 485.052 35.3382C484.691 32.8485 484.509 29.9776 484.504 26.7254V24.8114C484.504 21.497 484.684 18.5716 485.045 16.0352C485.41 13.4989 485.922 11.5616 486.581 10.2233C487.244 8.86957 488.004 8.19268 488.859 8.19268C489.715 8.19268 490.472 8.86178 491.131 10.2C491.794 11.5227 492.306 13.4366 492.666 15.9419C493.027 18.4316 493.21 21.3336 493.215 24.6481V26.5387ZM491.39 24.7648C491.39 20.9991 491.169 18.1126 490.727 16.1053C490.289 14.0979 489.667 13.0943 488.859 13.0943C488.071 13.0943 487.453 14.0979 487.006 16.1053C486.564 18.097 486.338 20.9213 486.328 24.578V26.5387C486.328 30.2732 486.552 33.1597 486.999 35.1982C487.451 37.2366 488.076 38.2558 488.874 38.2558C489.681 38.2558 490.301 37.26 490.734 35.2682C491.171 33.2764 491.39 30.3666 491.39 26.5387V24.7648Z" fill="#C4C4C4"/>
<path d="M504.442 51H502.711V42.6439H495.796V51H494.037L493.979 37.9291H494.822C495.241 36.622 495.575 34.7236 495.825 32.2339C496.075 29.7286 496.236 26.8966 496.308 23.7378L496.582 8.6595H503.201V37.9291H504.535L504.442 51ZM496.885 37.9291H501.384V13.4211H498.32L498.147 22.9908C498.017 29.3863 497.596 34.3657 496.885 37.9291Z" fill="#C4C4C4"/>
<path d="M512.337 8.6595H514.162V42.6439H512.337V18.4394L507.73 42.6439H505.905V8.6595H507.73V32.8874L512.337 8.6595Z" fill="#C4C4C4"/>
<path d="M518.712 8.6595L521.74 34.708L524.761 8.6595H527.119V42.6439H525.302V31.4403L525.483 16.4554L522.382 42.6439H521.077L517.983 16.4787L518.164 31.4403V42.6439H516.347V8.6595H518.712Z" fill="#C4C4C4"/>
<path d="M537.661 26.5387C537.661 29.8687 537.484 32.7941 537.128 35.3149C536.772 37.8201 536.263 39.7497 535.599 41.1034C534.941 42.4416 534.181 43.1108 533.321 43.1108C532.47 43.1108 531.71 42.4416 531.042 41.1034C530.379 39.7497 529.864 37.8279 529.499 35.3382C529.138 32.8485 528.956 29.9776 528.951 26.7254V24.8114C528.951 21.497 529.131 18.5716 529.492 16.0352C529.857 13.4989 530.369 11.5616 531.028 10.2233C531.691 8.86957 532.451 8.19268 533.306 8.19268C534.162 8.19268 534.919 8.86178 535.578 10.2C536.241 11.5227 536.753 13.4366 537.113 15.9419C537.474 18.4316 537.657 21.3336 537.661 24.6481V26.5387ZM535.837 24.7648C535.837 20.9991 535.616 18.1126 535.174 16.1053C534.736 14.0979 534.114 13.0943 533.306 13.0943C532.518 13.0943 531.9 14.0979 531.453 16.1053C531.011 18.097 530.785 20.9213 530.775 24.578V26.5387C530.775 30.2732 530.999 33.1597 531.446 35.1982C531.898 37.2366 532.523 38.2558 533.321 38.2558C534.128 38.2558 534.748 37.26 535.181 35.2682C535.618 33.2764 535.837 30.3666 535.837 26.5387V24.7648Z" fill="#C4C4C4"/>
<path d="M551.535 26.5387C551.535 29.8687 551.357 32.7941 551.001 35.3149C550.646 37.8201 550.136 39.7497 549.473 41.1034C548.814 42.4416 548.055 43.1108 547.194 43.1108C546.343 43.1108 545.584 42.4416 544.915 41.1034C544.252 39.7497 543.738 37.8279 543.372 35.3382C543.012 32.8485 542.829 29.9776 542.824 26.7254V24.8114C542.824 21.497 543.005 18.5716 543.365 16.0352C543.731 13.4989 544.242 11.5616 544.901 10.2233C545.564 8.86957 546.324 8.19268 547.18 8.19268C548.035 8.19268 548.792 8.86178 549.451 10.2C550.114 11.5227 550.626 13.4366 550.987 15.9419C551.347 18.4316 551.53 21.3336 551.535 24.6481V26.5387ZM549.711 24.7648C549.711 20.9991 549.49 18.1126 549.047 16.1053C548.61 14.0979 547.987 13.0943 547.18 13.0943C546.391 13.0943 545.774 14.0979 545.326 16.1053C544.884 18.097 544.658 20.9213 544.649 24.578V26.5387C544.649 30.2732 544.872 33.1597 545.319 35.1982C545.771 37.2366 546.396 38.2558 547.194 38.2558C548.002 38.2558 548.622 37.26 549.054 35.2682C549.492 33.2764 549.711 30.3666 549.711 26.5387V24.7648Z" fill="#C4C4C4"/>
<path d="M558.602 17.9259C558.602 16.4009 558.424 15.1872 558.068 14.2847C557.712 13.3822 557.229 12.9309 556.619 12.9309C556.095 12.9309 555.657 13.3822 555.306 14.2847C554.955 15.1716 554.78 16.3231 554.78 17.7391H552.963C552.963 15.8874 553.121 14.238 553.439 12.7908C553.756 11.3437 554.196 10.2233 554.758 9.42975C555.321 8.62059 555.941 8.21602 556.619 8.21602C557.82 8.21602 558.753 9.06407 559.416 10.7602C560.084 12.4563 560.419 14.8293 560.419 17.8792C560.419 19.4197 560.274 20.8357 559.986 22.1272C559.698 23.4188 559.294 24.438 558.775 25.1849C559.361 25.8384 559.808 26.8343 560.116 28.1725C560.428 29.4952 560.584 31.1446 560.584 33.1208C560.584 36.1707 560.224 38.5982 559.503 40.4032C558.782 42.1927 557.82 43.0874 556.619 43.0874C555.878 43.0874 555.208 42.6595 554.607 41.8037C554.011 40.9478 553.561 39.7808 553.258 38.3025C552.96 36.8243 552.811 35.1281 552.811 33.2142H554.628C554.628 34.6769 554.816 35.914 555.191 36.9254C555.566 37.9213 556.042 38.4192 556.619 38.4192C557.263 38.4192 557.779 37.9291 558.169 36.9487C558.563 35.9684 558.76 34.6924 558.76 33.1208C558.76 31.2069 558.587 29.822 558.241 28.9661C557.9 28.0947 557.397 27.659 556.734 27.659H555.501V22.9908H556.669C557.957 22.9908 558.602 21.3025 558.602 17.9259Z" fill="#C4C4C4"/>
<path d="M570.615 42.6439H568.797V27.5423H564.103V42.6439H562.279V8.6595H564.103V22.8041H568.797V8.6595H570.615V42.6439Z" fill="#C4C4C4"/>
<path d="M578.784 34.7313H574.717L573.867 42.6439H571.97L575.936 8.6595H577.573L581.546 42.6439H579.642L578.784 34.7313ZM575.229 29.9698H578.272L576.751 15.8719L575.229 29.9698Z" fill="#C4C4C4"/>
<path d="M585.851 28.0792H584.611V42.6439H582.794V8.6595H584.611V22.9442H585.613L588.699 8.6595H590.934L587.329 24.9281L591.252 42.6439H589.06L585.851 28.0792Z" fill="#C4C4C4"/>
<path d="M600.409 26.5387C600.409 29.8687 600.231 32.7941 599.876 35.3149C599.52 37.8201 599.01 39.7497 598.347 41.1034C597.688 42.4416 596.929 43.1108 596.068 43.1108C595.218 43.1108 594.458 42.4416 593.79 41.1034C593.126 39.7497 592.612 37.8279 592.247 35.3382C591.886 32.8485 591.704 29.9776 591.699 26.7254V24.8114C591.699 21.497 591.879 18.5716 592.24 16.0352C592.605 13.4989 593.117 11.5616 593.775 10.2233C594.439 8.86957 595.198 8.19268 596.054 8.19268C596.91 8.19268 597.667 8.86178 598.325 10.2C598.989 11.5227 599.501 13.4366 599.861 15.9419C600.222 18.4316 600.405 21.3336 600.409 24.6481V26.5387ZM598.585 24.7648C598.585 20.9991 598.364 18.1126 597.922 16.1053C597.484 14.0979 596.862 13.0943 596.054 13.0943C595.266 13.0943 594.648 14.0979 594.201 16.1053C593.759 18.097 593.533 20.9213 593.523 24.578V26.5387C593.523 30.2732 593.747 33.1597 594.194 35.1982C594.646 37.2366 595.271 38.2558 596.068 38.2558C596.876 38.2558 597.496 37.26 597.929 35.2682C598.366 33.2764 598.585 30.3666 598.585 26.5387V24.7648Z" fill="#C4C4C4"/>
<path d="M604.592 8.6595L607.62 34.708L610.641 8.6595H612.999V42.6439H611.182V31.4403L611.362 16.4554L608.262 42.6439H606.957L603.863 16.4787L604.044 31.4403V42.6439H602.226V8.6595H604.592Z" fill="#C4C4C4"/>
<path d="M621.594 8.6595H623.419V42.6439H621.594V18.4394L616.987 42.6439H615.162V8.6595H616.987V32.8874L621.594 8.6595Z" fill="#C4C4C4"/>
<path d="M632.973 13.4211H629.699V42.6439H627.889V13.4211H624.645V8.6595H632.973V13.4211Z" fill="#C4C4C4"/>
<path d="M636.268 21.6604H638.417C639.186 21.6604 639.857 22.0883 640.429 22.9442C641.001 23.8 641.436 25.0137 641.734 26.5854C642.032 28.157 642.181 29.9776 642.181 32.0471C642.181 35.2215 641.847 37.7735 641.179 39.703C640.515 41.6325 639.609 42.6128 638.46 42.6439H634.444V8.6595H636.268V21.6604ZM636.268 26.3986V37.9291H638.41C639.025 37.9291 639.504 37.3922 639.845 36.3185C640.191 35.2293 640.364 33.7899 640.364 32.0005C640.364 30.2888 640.196 28.935 639.859 27.9391C639.523 26.9433 639.056 26.4297 638.46 26.3986H636.268Z" fill="#C4C4C4"/>
<path d="M651.771 31.5803C651.666 35.206 651.252 38.038 650.531 40.0764C649.81 42.0993 648.851 43.1108 647.654 43.1108C646.818 43.1108 646.08 42.4728 645.44 41.1968C644.806 39.9053 644.315 38.0769 643.969 35.7117C643.623 33.3465 643.443 30.6 643.429 27.4723V24.2979C643.429 21.0924 643.604 18.2682 643.955 15.8252C644.306 13.3822 644.808 11.4993 645.462 10.1767C646.121 8.854 646.88 8.19268 647.741 8.19268C648.899 8.19268 649.832 9.2119 650.538 11.2503C651.245 13.2888 651.656 16.1675 651.771 19.8865H649.954C649.868 17.4435 649.647 15.6851 649.291 14.6114C648.94 13.5222 648.423 12.9776 647.741 12.9776C646.947 12.9776 646.337 13.919 645.909 15.8018C645.486 17.6691 645.27 20.4156 645.26 24.0412V27.0522C645.26 30.7245 645.462 33.5254 645.866 35.4549C646.274 37.3844 646.871 38.3492 647.654 38.3492C648.37 38.3492 648.909 37.8279 649.269 36.7854C649.63 35.7428 649.858 34.0078 649.954 31.5803H651.771Z" fill="#C4C4C4"/>
<path d="M658.586 42.6439V29.9465H656.552L654.526 42.6439H652.572L654.915 28.1959C653.694 26.3286 653.084 23.2709 653.084 19.0229C653.084 15.7707 653.413 13.2421 654.072 11.4371C654.735 9.61648 655.658 8.69062 656.841 8.6595H660.41V42.6439H658.586ZM654.901 19.2796C654.901 21.1936 655.067 22.6874 655.398 23.7611C655.73 24.8348 656.228 25.3716 656.891 25.3716H658.586V13.4211H656.891C656.218 13.4211 655.718 13.9423 655.391 14.9849C655.064 16.0275 654.901 17.459 654.901 19.2796Z" fill="#C4C4C4"/>
<path d="M674.269 31.5803C674.163 35.206 673.75 38.038 673.029 40.0764C672.308 42.0993 671.349 43.1108 670.152 43.1108C669.315 43.1108 668.577 42.4728 667.938 41.1968C667.303 39.9053 666.813 38.0769 666.467 35.7117C666.121 33.3465 665.94 30.6 665.926 27.4723V24.2979C665.926 21.0924 666.102 18.2682 666.452 15.8252C666.803 13.3822 667.306 11.4993 667.96 10.1767C668.618 8.854 669.378 8.19268 670.238 8.19268C671.397 8.19268 672.329 9.2119 673.036 11.2503C673.743 13.2888 674.154 16.1675 674.269 19.8865H672.452C672.365 17.4435 672.144 15.6851 671.788 14.6114C671.438 13.5222 670.921 12.9776 670.238 12.9776C669.445 12.9776 668.834 13.919 668.407 15.8018C667.984 17.6691 667.767 20.4156 667.758 24.0412V27.0522C667.758 30.7245 667.96 33.5254 668.363 35.4549C668.772 37.3844 669.368 38.3492 670.152 38.3492C670.868 38.3492 671.406 37.8279 671.767 36.7854C672.127 35.7428 672.356 34.0078 672.452 31.5803H674.269Z" fill="#C4C4C4"/>
<path d="M686.015 8.6595H687.84V42.6439H686.015V18.4394L681.408 42.6439H679.583V8.6595H681.408V32.8874L686.015 8.6595Z" fill="#C4C4C4"/>
<path d="M698.36 42.6439H696.543V27.5423H691.849V42.6439H690.024V8.6595H691.849V22.8041H696.543V8.6595H698.36V42.6439Z" fill="#C4C4C4"/>
<path d="M708.534 31.5803C708.429 35.206 708.015 38.038 707.294 40.0764C706.573 42.0993 705.614 43.1108 704.417 43.1108C703.581 43.1108 702.843 42.4728 702.203 41.1968C701.569 39.9053 701.078 38.0769 700.732 35.7117C700.386 33.3465 700.206 30.6 700.192 27.4723V24.2979C700.192 21.0924 700.367 18.2682 700.718 15.8252C701.069 13.3822 701.571 11.4993 702.225 10.1767C702.884 8.854 703.643 8.19268 704.504 8.19268C705.662 8.19268 706.595 9.2119 707.301 11.2503C708.008 13.2888 708.419 16.1675 708.534 19.8865H706.717C706.631 17.4435 706.41 15.6851 706.054 14.6114C705.703 13.5222 705.186 12.9776 704.504 12.9776C703.71 12.9776 703.1 13.919 702.672 15.8018C702.249 17.6691 702.033 20.4156 702.023 24.0412V27.0522C702.023 30.7245 702.225 33.5254 702.629 35.4549C703.037 37.3844 703.633 38.3492 704.417 38.3492C705.133 38.3492 705.672 37.8279 706.032 36.7854C706.393 35.7428 706.621 34.0078 706.717 31.5803H708.534Z" fill="#C4C4C4"/>
<path d="M717.541 13.4211H714.267V42.6439H712.457V13.4211H709.212V8.6595H717.541V13.4211Z" fill="#C4C4C4"/>
<path d="M720.749 30.0165V42.6439H718.925V8.6595H722.941C724.114 8.6595 725.045 9.6476 725.732 11.6238C726.424 13.6 726.77 16.2142 726.77 19.4664C726.77 22.7963 726.431 25.3872 725.754 27.2389C725.081 29.0906 724.136 30.0165 722.92 30.0165H720.749ZM720.749 25.2783H722.941C723.59 25.2783 724.086 24.7881 724.427 23.8078C724.768 22.8119 724.939 21.3803 724.939 19.513C724.939 17.6769 724.766 16.2142 724.42 15.1249C724.073 14.0201 723.598 13.4522 722.992 13.4211H720.749V25.2783Z" fill="#C4C4C4"/>
<path d="M732.15 26.422L734.255 8.6595H736.281L732.625 36.8554L732.294 38.9794C731.813 41.7492 731.034 43.1341 729.957 43.1341L729.208 42.994L729.222 38.3259C729.337 38.3881 729.542 38.4192 729.835 38.4192C730.354 38.4192 730.719 37.7034 730.931 36.2719L731.306 33.4009L727.715 8.6595H729.705L732.15 26.422Z" fill="#C4C4C4"/>
<path d="M740.781 28.0792H739.541V42.6439H737.723V8.6595H739.541V22.9442H740.543L743.629 8.6595H745.864L742.259 24.9281L746.182 42.6439H743.99L740.781 28.0792Z" fill="#C4C4C4"/>
<path d="M747.177 8.6595H749.001V37.9291H753.623V8.6595H755.447V37.8824H756.716L756.572 50.8366H754.899V42.6439H747.177V8.6595Z" fill="#C4C4C4"/>
<path d="M764.656 8.6595H766.48V42.6439H764.656V18.4394L760.048 42.6439H758.224V8.6595H760.048V32.8874L764.656 8.6595Z" fill="#C4C4C4"/>
<path d="M774.801 27.4723H770.489V37.9291H775.529V42.6439H768.665V8.6595H775.479V13.4211H770.489V22.8041H774.801V27.4723Z" fill="#C4C4C4"/>
<path d="M783.447 8.6595H785.271V42.6439H783.447V18.4394L778.839 42.6439H777.015V8.6595H778.839V32.8874L783.447 8.6595ZM783.504 0C783.504 1.96064 783.293 3.54783 782.87 4.76156C782.447 5.97529 781.882 6.58215 781.175 6.58215C780.469 6.58215 779.904 5.97529 779.481 4.76156C779.058 3.54783 778.846 1.96064 778.846 0H780.159C780.159 1.027 780.248 1.82838 780.425 2.40412C780.608 2.9643 780.858 3.24439 781.175 3.24439C781.493 3.24439 781.74 2.9643 781.918 2.40412C782.096 1.82838 782.185 1.027 782.185 0H783.504Z" fill="#C4C4C4"/>
<path d="M797.565 8.6595H799.39V42.6439H797.565V18.4394L792.958 42.6439H791.133V8.6595H792.958V32.8874L797.565 8.6595Z" fill="#C4C4C4"/>
<path d="M809.961 8.6595V42.6439H808.143V13.4211H804.927L804.74 26.562C804.668 30.67 804.512 33.86 804.271 36.1318C804.036 38.3881 803.692 40.0375 803.24 41.0801C802.788 42.1227 802.183 42.6439 801.423 42.6439H800.962V37.9291L801.25 37.859C801.668 37.7346 801.99 37.26 802.216 36.4352C802.447 35.6105 802.62 34.3657 802.735 32.7007C802.856 31.0201 802.94 28.5538 802.988 25.3016L803.19 8.6595H809.961Z" fill="#C4C4C4"/>
<path d="M818.592 8.6595H820.416V42.6439H818.592V18.4394L813.984 42.6439H812.16V8.6595H813.984V32.8874L818.592 8.6595Z" fill="#C4C4C4"/>
<path d="M834.585 42.6439H832.768V13.4211H828.146V42.6439H826.329V8.6595H834.585V42.6439Z" fill="#C4C4C4"/>
<path d="M838.616 30.0165V42.6439H836.792V8.6595H840.808C841.981 8.6595 842.911 9.6476 843.599 11.6238C844.291 13.6 844.637 16.2142 844.637 19.4664C844.637 22.7963 844.298 25.3872 843.62 27.2389C842.947 29.0906 842.003 30.0165 840.786 30.0165H838.616ZM838.616 25.2783H840.808C841.457 25.2783 841.952 24.7881 842.294 23.8078C842.635 22.8119 842.805 21.3803 842.805 19.513C842.805 17.6769 842.632 16.2142 842.286 15.1249C841.94 14.0201 841.464 13.4522 840.859 13.4211H838.616V25.2783Z" fill="#C4C4C4"/>
<path d="M854.617 26.5387C854.617 29.8687 854.439 32.7941 854.083 35.3149C853.727 37.8201 853.218 39.7497 852.554 41.1034C851.896 42.4416 851.136 43.1108 850.276 43.1108C849.425 43.1108 848.665 42.4416 847.997 41.1034C847.334 39.7497 846.819 37.8279 846.454 35.3382C846.094 32.8485 845.911 29.9776 845.906 26.7254V24.8114C845.906 21.497 846.086 18.5716 846.447 16.0352C846.812 13.4989 847.324 11.5616 847.983 10.2233C848.646 8.86957 849.406 8.19268 850.261 8.19268C851.117 8.19268 851.874 8.86178 852.533 10.2C853.196 11.5227 853.708 13.4366 854.069 15.9419C854.429 18.4316 854.612 21.3336 854.617 24.6481V26.5387ZM852.792 24.7648C852.792 20.9991 852.571 18.1126 852.129 16.1053C851.692 14.0979 851.069 13.0943 850.261 13.0943C849.473 13.0943 848.855 14.0979 848.408 16.1053C847.966 18.097 847.74 20.9213 847.73 24.578V26.5387C847.73 30.2732 847.954 33.1597 848.401 35.1982C848.853 37.2366 849.478 38.2558 850.276 38.2558C851.083 38.2558 851.704 37.26 852.136 35.2682C852.574 33.2764 852.792 30.3666 852.792 26.5387V24.7648Z" fill="#C4C4C4"/>
<path d="M859.542 28.0792H858.301V42.6439H856.484V8.6595H858.301V22.9442H859.304L862.39 8.6595H864.625L861.02 24.9281L864.943 42.6439H862.75L859.542 28.0792Z" fill="#C4C4C4"/>
<path d="M874.1 26.5387C874.1 29.8687 873.922 32.7941 873.567 35.3149C873.211 37.8201 872.701 39.7497 872.038 41.1034C871.379 42.4416 870.62 43.1108 869.759 43.1108C868.908 43.1108 868.149 42.4416 867.481 41.1034C866.817 39.7497 866.303 37.8279 865.938 35.3382C865.577 32.8485 865.394 29.9776 865.39 26.7254V24.8114C865.39 21.497 865.57 18.5716 865.93 16.0352C866.296 13.4989 866.808 11.5616 867.466 10.2233C868.13 8.86957 868.889 8.19268 869.745 8.19268C870.601 8.19268 871.358 8.86178 872.016 10.2C872.68 11.5227 873.192 13.4366 873.552 15.9419C873.913 18.4316 874.095 21.3336 874.1 24.6481V26.5387ZM872.276 24.7648C872.276 20.9991 872.055 18.1126 871.612 16.1053C871.175 14.0979 870.552 13.0943 869.745 13.0943C868.956 13.0943 868.339 14.0979 867.892 16.1053C867.449 18.097 867.223 20.9213 867.214 24.578V26.5387C867.214 30.2732 867.437 33.1597 867.884 35.1982C868.336 37.2366 868.961 38.2558 869.759 38.2558C870.567 38.2558 871.187 37.26 871.62 35.2682C872.057 33.2764 872.276 30.3666 872.276 26.5387V24.7648Z" fill="#C4C4C4"/>
<path d="M884.253 42.6439H882.436V27.5423H877.742V42.6439H875.917V8.6595H877.742V22.8041H882.436V8.6595H884.253V42.6439Z" fill="#C4C4C4"/>
<path d="M894.427 31.5803C894.321 35.206 893.908 38.038 893.187 40.0764C892.466 42.0993 891.507 43.1108 890.31 43.1108C889.473 43.1108 888.736 42.4728 888.096 41.1968C887.462 39.9053 886.971 38.0769 886.625 35.7117C886.279 33.3465 886.099 30.6 886.084 27.4723V24.2979C886.084 21.0924 886.26 18.2682 886.611 15.8252C886.962 13.3822 887.464 11.4993 888.118 10.1767C888.776 8.854 889.536 8.19268 890.396 8.19268C891.555 8.19268 892.487 9.2119 893.194 11.2503C893.901 13.2888 894.312 16.1675 894.427 19.8865H892.61C892.524 17.4435 892.302 15.6851 891.947 14.6114C891.596 13.5222 891.079 12.9776 890.396 12.9776C889.603 12.9776 888.993 13.919 888.565 15.8018C888.142 17.6691 887.925 20.4156 887.916 24.0412V27.0522C887.916 30.7245 888.118 33.5254 888.522 35.4549C888.93 37.3844 889.526 38.3492 890.31 38.3492C891.026 38.3492 891.565 37.8279 891.925 36.7854C892.286 35.7428 892.514 34.0078 892.61 31.5803H894.427Z" fill="#C4C4C4"/>
<path d="M899.842 26.422L901.948 8.6595H903.974L900.318 36.8554L899.987 38.9794C899.506 41.7492 898.727 43.1341 897.65 43.1341L896.9 42.994L896.915 38.3259C897.03 38.3881 897.235 38.4192 897.528 38.4192C898.047 38.4192 898.412 37.7034 898.624 36.2719L898.999 33.4009L895.408 8.6595H897.398L899.842 26.422Z" fill="#C4C4C4"/>
<path d="M913.233 8.6595V42.6439H911.416V13.4211H908.2L908.012 26.562C907.94 30.67 907.784 33.86 907.544 36.1318C907.308 38.3881 906.964 40.0375 906.512 41.0801C906.06 42.1227 905.455 42.6439 904.695 42.6439H904.234V37.9291L904.522 37.859C904.94 37.7346 905.263 37.26 905.488 36.4352C905.719 35.6105 905.892 34.3657 906.008 32.7007C906.128 31.0201 906.212 28.5538 906.26 25.3016L906.462 8.6595H913.233Z" fill="#C4C4C4"/>
<path d="M917.228 21.6604H919.376C920.146 21.6604 920.816 22.0883 921.388 22.9442C921.96 23.8 922.395 25.0137 922.693 26.5854C922.991 28.157 923.14 29.9776 923.14 32.0471C923.14 35.2215 922.806 37.7735 922.138 39.703C921.475 41.6325 920.569 42.6128 919.42 42.6439H915.403V8.6595H917.228V21.6604ZM917.228 26.3986V37.9291H919.369C919.984 37.9291 920.463 37.3922 920.804 36.3185C921.15 35.2293 921.323 33.7899 921.323 32.0005C921.323 30.2888 921.155 28.935 920.818 27.9391C920.482 26.9433 920.016 26.4297 919.42 26.3986H917.228Z" fill="#C4C4C4"/>
<path d="M931.599 13.4211H928.325V42.6439H926.515V13.4211H923.27V8.6595H931.599V13.4211Z" fill="#C4C4C4"/>
<path d="M939.415 8.6595H941.239V42.6439H939.415V18.4394L934.807 42.6439H932.983V8.6595H934.807V32.8874L939.415 8.6595Z" fill="#C4C4C4"/>
<path d="M945.248 30.0165V42.6439H943.424V8.6595H947.441C948.613 8.6595 949.544 9.6476 950.231 11.6238C950.923 13.6 951.269 16.2142 951.269 19.4664C951.269 22.7963 950.931 25.3872 950.253 27.2389C949.58 29.0906 948.635 30.0165 947.419 30.0165H945.248ZM945.248 25.2783H947.441C948.089 25.2783 948.585 24.7881 948.926 23.8078C949.267 22.8119 949.438 21.3803 949.438 19.513C949.438 17.6769 949.265 16.2142 948.919 15.1249C948.573 14.0201 948.097 13.4522 947.491 13.4211H945.248V25.2783Z" fill="#C4C4C4"/>
<path d="M961.249 26.5387C961.249 29.8687 961.071 32.7941 960.716 35.3149C960.36 37.8201 959.85 39.7497 959.187 41.1034C958.528 42.4416 957.769 43.1108 956.908 43.1108C956.057 43.1108 955.298 42.4416 954.63 41.1034C953.966 39.7497 953.452 37.8279 953.087 35.3382C952.726 32.8485 952.543 29.9776 952.539 26.7254V24.8114C952.539 21.497 952.719 18.5716 953.079 16.0352C953.445 13.4989 953.957 11.5616 954.615 10.2233C955.279 8.86957 956.038 8.19268 956.894 8.19268C957.75 8.19268 958.507 8.86178 959.165 10.2C959.829 11.5227 960.341 13.4366 960.701 15.9419C961.062 18.4316 961.244 21.3336 961.249 24.6481V26.5387ZM959.425 24.7648C959.425 20.9991 959.204 18.1126 958.761 16.1053C958.324 14.0979 957.701 13.0943 956.894 13.0943C956.105 13.0943 955.488 14.0979 955.041 16.1053C954.598 18.097 954.372 20.9213 954.363 24.578V26.5387C954.363 30.2732 954.586 33.1597 955.033 35.1982C955.485 37.2366 956.11 38.2558 956.908 38.2558C957.716 38.2558 958.336 37.26 958.769 35.2682C959.206 33.2764 959.425 30.3666 959.425 26.5387V24.7648Z" fill="#C4C4C4"/>
<path d="M963.066 42.6439V8.6595H966.664C967.852 8.6595 968.755 9.42975 969.376 10.9703C969.996 12.5108 970.306 14.806 970.306 17.8558C970.306 19.4119 970.176 20.8124 969.916 22.0572C969.657 23.3021 969.277 24.2668 968.777 24.9515C969.344 25.4494 969.782 26.3908 970.089 27.7757C970.402 29.1451 970.558 30.7945 970.558 32.724C970.558 35.914 970.241 38.3648 969.606 40.0764C968.977 41.7881 968.073 42.6439 966.895 42.6439H963.066ZM964.891 27.3089V37.9291H966.917C967.489 37.9291 967.936 37.47 968.258 36.5519C968.58 35.6339 968.741 34.3579 968.741 32.724C968.741 29.1918 968.183 27.3867 967.068 27.3089H964.891ZM964.891 22.9675H966.679C967.246 22.9675 967.688 22.5551 968.006 21.7304C968.328 20.8902 968.489 19.7076 968.489 18.1826C968.489 16.5021 968.34 15.2883 968.042 14.5414C967.748 13.7945 967.289 13.4211 966.664 13.4211H964.891V22.9675Z" fill="#C4C4C4"/>
<path d="M978.259 34.7313H974.192L973.341 42.6439H971.445L975.411 8.6595H977.048L981.021 42.6439H979.117L978.259 34.7313ZM974.704 29.9698H977.747L976.226 15.8719L974.704 29.9698Z" fill="#C4C4C4"/>
<path d="M988.938 13.4211H985.665V42.6439H983.855V13.4211H980.61V8.6595H988.938V13.4211Z" fill="#C4C4C4"/>
<path d="M992.234 21.6604H994.382C995.152 21.6604 995.822 22.0883 996.394 22.9442C996.966 23.8 997.401 25.0137 997.699 26.5854C997.997 28.157 998.146 29.9776 998.146 32.0471C998.146 35.2215 997.812 37.7735 997.144 39.703C996.481 41.6325 995.575 42.6128 994.426 42.6439H990.409V8.6595H992.234V21.6604ZM992.234 26.3986V37.9291H994.375C994.991 37.9291 995.469 37.3922 995.81 36.3185C996.156 35.2293 996.329 33.7899 996.329 32.0005C996.329 30.2888 996.161 28.935 995.825 27.9391C995.488 26.9433 995.022 26.4297 994.426 26.3986H992.234Z" fill="#C4C4C4"/>
<path d="M1007.74 31.5803C1007.63 35.206 1007.22 38.038 1006.5 40.0764C1005.78 42.0993 1004.82 43.1108 1003.62 43.1108C1002.78 43.1108 1002.05 42.4728 1001.41 41.1968C1000.77 39.9053 1000.28 38.0769 999.935 35.7117C999.589 33.3465 999.408 30.6 999.394 27.4723V24.2979C999.394 21.0924 999.569 18.2682 999.92 15.8252C1000.27 13.3822 1000.77 11.4993 1001.43 10.1767C1002.09 8.854 1002.85 8.19268 1003.71 8.19268C1004.86 8.19268 1005.8 9.2119 1006.5 11.2503C1007.21 13.2888 1007.62 16.1675 1007.74 19.8865H1005.92C1005.83 17.4435 1005.61 15.6851 1005.26 14.6114C1004.91 13.5222 1004.39 12.9776 1003.71 12.9776C1002.91 12.9776 1002.3 13.919 1001.87 15.8018C1001.45 17.6691 1001.24 20.4156 1001.23 24.0412V27.0522C1001.23 30.7245 1001.43 33.5254 1001.83 35.4549C1002.24 37.3844 1002.84 38.3492 1003.62 38.3492C1004.34 38.3492 1004.87 37.8279 1005.23 36.7854C1005.6 35.7428 1005.82 34.0078 1005.92 31.5803H1007.74Z" fill="#C4C4C4"/>
<path d="M1014.55 42.6439V29.9465H1012.52L1010.49 42.6439H1008.54L1010.88 28.1959C1009.66 26.3286 1009.05 23.2709 1009.05 19.0229C1009.05 15.7707 1009.38 13.2421 1010.04 11.4371C1010.7 9.61648 1011.62 8.69062 1012.81 8.6595H1016.38V42.6439H1014.55ZM1010.87 19.2796C1010.87 21.1936 1011.03 22.6874 1011.36 23.7611C1011.7 24.8348 1012.19 25.3716 1012.86 25.3716H1014.55V13.4211H1012.86C1012.18 13.4211 1011.68 13.9423 1011.36 14.9849C1011.03 16.0275 1010.87 17.459 1010.87 19.2796Z" fill="#C4C4C4"/>
<path d="M1030.23 31.5803C1030.13 35.206 1029.72 38.038 1028.99 40.0764C1028.27 42.0993 1027.31 43.1108 1026.12 43.1108C1025.28 43.1108 1024.54 42.4728 1023.9 41.1968C1023.27 39.9053 1022.78 38.0769 1022.43 35.7117C1022.09 33.3465 1021.91 30.6 1021.89 27.4723V24.2979C1021.89 21.0924 1022.07 18.2682 1022.42 15.8252C1022.77 13.3822 1023.27 11.4993 1023.92 10.1767C1024.58 8.854 1025.34 8.19268 1026.2 8.19268C1027.36 8.19268 1028.29 9.2119 1029 11.2503C1029.71 13.2888 1030.12 16.1675 1030.23 19.8865H1028.42C1028.33 17.4435 1028.11 15.6851 1027.75 14.6114C1027.4 13.5222 1026.89 12.9776 1026.2 12.9776C1025.41 12.9776 1024.8 13.919 1024.37 15.8018C1023.95 17.6691 1023.73 20.4156 1023.72 24.0412V27.0522C1023.72 30.7245 1023.92 33.5254 1024.33 35.4549C1024.74 37.3844 1025.33 38.3492 1026.12 38.3492C1026.83 38.3492 1027.37 37.8279 1027.73 36.7854C1028.09 35.7428 1028.32 34.0078 1028.42 31.5803H1030.23Z" fill="#C4C4C4"/>
<path d="M1040.25 26.5387C1040.25 29.8687 1040.07 32.7941 1039.72 35.3149C1039.36 37.8201 1038.85 39.7497 1038.19 41.1034C1037.53 42.4416 1036.77 43.1108 1035.91 43.1108C1035.06 43.1108 1034.3 42.4416 1033.63 41.1034C1032.97 39.7497 1032.45 37.8279 1032.09 35.3382C1031.73 32.8485 1031.54 29.9776 1031.54 26.7254V24.8114C1031.54 21.497 1031.72 18.5716 1032.08 16.0352C1032.45 13.4989 1032.96 11.5616 1033.62 10.2233C1034.28 8.86957 1035.04 8.19268 1035.89 8.19268C1036.75 8.19268 1037.51 8.86178 1038.17 10.2C1038.83 11.5227 1039.34 13.4366 1039.7 15.9419C1040.06 18.4316 1040.25 21.3336 1040.25 24.6481V26.5387ZM1038.43 24.7648C1038.43 20.9991 1038.2 18.1126 1037.76 16.1053C1037.32 14.0979 1036.7 13.0943 1035.89 13.0943C1035.11 13.0943 1034.49 14.0979 1034.04 16.1053C1033.6 18.097 1033.37 20.9213 1033.36 24.578V26.5387C1033.36 30.2732 1033.59 33.1597 1034.03 35.1982C1034.49 37.2366 1035.11 38.2558 1035.91 38.2558C1036.72 38.2558 1037.34 37.26 1037.77 35.2682C1038.21 33.2764 1038.43 30.3666 1038.43 26.5387V24.7648Z" fill="#C4C4C4"/>
<path d="M1053.76 31.5803C1053.65 35.206 1053.24 38.038 1052.52 40.0764C1051.79 42.0993 1050.84 43.1108 1049.64 43.1108C1048.8 43.1108 1048.06 42.4728 1047.42 41.1968C1046.79 39.9053 1046.3 38.0769 1045.95 35.7117C1045.61 33.3465 1045.43 30.6 1045.41 27.4723V24.2979C1045.41 21.0924 1045.59 18.2682 1045.94 15.8252C1046.29 13.3822 1046.79 11.4993 1047.45 10.1767C1048.1 8.854 1048.86 8.19268 1049.72 8.19268C1050.88 8.19268 1051.82 9.2119 1052.52 11.2503C1053.23 13.2888 1053.64 16.1675 1053.76 19.8865H1051.94C1051.85 17.4435 1051.63 15.6851 1051.28 14.6114C1050.92 13.5222 1050.41 12.9776 1049.72 12.9776C1048.93 12.9776 1048.32 13.919 1047.89 15.8018C1047.47 17.6691 1047.25 20.4156 1047.24 24.0412V27.0522C1047.24 30.7245 1047.45 33.5254 1047.85 35.4549C1048.26 37.3844 1048.85 38.3492 1049.64 38.3492C1050.35 38.3492 1050.89 37.8279 1051.25 36.7854C1051.61 35.7428 1051.84 34.0078 1051.94 31.5803H1053.76Z" fill="#C4C4C4"/>
<path d="M1063.7 42.6439H1061.88V13.4211H1057.26V42.6439H1055.44V8.6595H1063.7V42.6439Z" fill="#C4C4C4"/>
<path d="M1072.04 27.4723H1067.73V37.9291H1072.77V42.6439H1065.91V8.6595H1072.72V13.4211H1067.73V22.8041H1072.04V27.4723Z" fill="#C4C4C4"/>
<path d="M1074.24 8.6595H1076.07V37.9291H1080.69V8.6595H1082.51V37.8824H1083.78L1083.64 50.8366H1081.96V42.6439H1074.24V8.6595Z" fill="#C4C4C4"/>
<path d="M1091.72 8.6595H1093.54V42.6439H1091.72V18.4394L1087.11 42.6439H1085.29V8.6595H1087.11V32.8874L1091.72 8.6595Z" fill="#C4C4C4"/>
<path d="M1101.74 34.7313H1097.67L1096.82 42.6439H1094.92L1098.89 8.6595H1100.52L1104.5 42.6439H1102.59L1101.74 34.7313ZM1098.18 29.9698H1101.22L1099.7 15.8719L1098.18 29.9698Z" fill="#C4C4C4"/>
<path d="M1114.08 8.6595V42.6439H1112.26V13.4211H1109.05L1108.86 26.562C1108.79 30.67 1108.63 33.86 1108.39 36.1318C1108.16 38.3881 1107.81 40.0375 1107.36 41.0801C1106.91 42.1227 1106.3 42.6439 1105.54 42.6439H1105.08V37.9291L1105.37 37.859C1105.79 37.7346 1106.11 37.26 1106.34 36.4352C1106.57 35.6105 1106.74 34.3657 1106.86 32.7007C1106.98 31.0201 1107.06 28.5538 1107.11 25.3016L1107.31 8.6595H1114.08Z" fill="#C4C4C4"/>
<path d="M1122.71 8.6595H1124.54V42.6439H1122.71V18.4394L1118.1 42.6439H1116.28V8.6595H1118.1V32.8874L1122.71 8.6595Z" fill="#C4C4C4"/>
<path d="M1134.73 31.5803C1134.63 35.206 1134.21 38.038 1133.49 40.0764C1132.77 42.0993 1131.81 43.1108 1130.61 43.1108C1129.78 43.1108 1129.04 42.4728 1128.4 41.1968C1127.77 39.9053 1127.28 38.0769 1126.93 35.7117C1126.58 33.3465 1126.4 30.6 1126.39 27.4723V24.2979C1126.39 21.0924 1126.56 18.2682 1126.92 15.8252C1127.27 13.3822 1127.77 11.4993 1128.42 10.1767C1129.08 8.854 1129.84 8.19268 1130.7 8.19268C1131.86 8.19268 1132.79 9.2119 1133.5 11.2503C1134.21 13.2888 1134.62 16.1675 1134.73 19.8865H1132.92C1132.83 17.4435 1132.61 15.6851 1132.25 14.6114C1131.9 13.5222 1131.38 12.9776 1130.7 12.9776C1129.91 12.9776 1129.3 13.919 1128.87 15.8018C1128.45 17.6691 1128.23 20.4156 1128.22 24.0412V27.0522C1128.22 30.7245 1128.42 33.5254 1128.83 35.4549C1129.24 37.3844 1129.83 38.3492 1130.61 38.3492C1131.33 38.3492 1131.87 37.8279 1132.23 36.7854C1132.59 35.7428 1132.82 34.0078 1132.92 31.5803H1134.73Z" fill="#C4C4C4"/>
<path d="M1143.74 13.4211H1140.46V42.6439H1138.65V13.4211H1135.41V8.6595H1143.74V13.4211Z" fill="#C4C4C4"/>
<path d="M1153.3 26.5387C1153.3 29.8687 1153.12 32.7941 1152.77 35.3149C1152.41 37.8201 1151.9 39.7497 1151.24 41.1034C1150.58 42.4416 1149.82 43.1108 1148.96 43.1108C1148.11 43.1108 1147.35 42.4416 1146.68 41.1034C1146.02 39.7497 1145.5 37.8279 1145.14 35.3382C1144.78 32.8485 1144.59 29.9776 1144.59 26.7254V24.8114C1144.59 21.497 1144.77 18.5716 1145.13 16.0352C1145.5 13.4989 1146.01 11.5616 1146.67 10.2233C1147.33 8.86957 1148.09 8.19268 1148.94 8.19268C1149.8 8.19268 1150.56 8.86178 1151.22 10.2C1151.88 11.5227 1152.39 13.4366 1152.75 15.9419C1153.11 18.4316 1153.3 21.3336 1153.3 24.6481V26.5387ZM1151.48 24.7648C1151.48 20.9991 1151.25 18.1126 1150.81 16.1053C1150.37 14.0979 1149.75 13.0943 1148.94 13.0943C1148.16 13.0943 1147.54 14.0979 1147.09 16.1053C1146.65 18.097 1146.42 20.9213 1146.41 24.578V26.5387C1146.41 30.2732 1146.64 33.1597 1147.08 35.1982C1147.54 37.2366 1148.16 38.2558 1148.96 38.2558C1149.77 38.2558 1150.39 37.26 1150.82 35.2682C1151.26 33.2764 1151.48 30.3666 1151.48 26.5387V24.7648Z" fill="#C4C4C4"/>
<path d="M1157.48 8.6595L1160.51 34.708L1163.53 8.6595H1165.89V42.6439H1164.07V31.4403L1164.25 16.4554L1161.15 42.6439H1159.85L1156.75 16.4787L1156.93 31.4403V42.6439H1155.12V8.6595H1157.48Z" fill="#C4C4C4"/>
<path d="M1168.98 36.6687C1169.3 36.6687 1169.56 36.9721 1169.73 37.5789C1169.91 38.1703 1170 38.9172 1170 39.8197C1170 40.7066 1169.91 41.4458 1169.73 42.0371C1169.56 42.6128 1169.3 42.9007 1168.98 42.9007C1168.66 42.9007 1168.42 42.6128 1168.23 42.0371C1168.05 41.4613 1167.96 40.7222 1167.96 39.8197C1167.96 38.9172 1168.05 38.1703 1168.23 37.5789C1168.4 36.9721 1168.65 36.6687 1168.98 36.6687Z" fill="#C4C4C4"/>
</svg>
