<svg width="110" height="70" fill="none" xmlns="http://www.w3.org/2000/svg"><path d="M106.894 21.556a10.799 10.799 0 00-7.632-3.116H19.764c-7.296 0-13.536 5.13-14.79 12.162L.164 57.578c-.11.619-.164 1.234-.164 1.84 0 2.867 1.19 5.513 3.137 7.439A10.905 10.905 0 0010.841 70h78.042c7.867 0 14.611-5.494 16.033-13.062l4.905-26.1c.12-.644.179-1.285.179-1.917 0-2.836-1.178-5.457-3.106-7.365zm.483 8.844l-4.904 26.099c-1.205 6.414-6.922 11.072-13.59 11.071H10.841a8.39 8.39 0 01-5.937-2.421c-1.506-1.491-2.42-3.528-2.42-5.73 0-.467.04-.943.127-1.423l4.81-26.977c1.046-5.867 6.254-10.15 12.343-10.15h79.498a8.282 8.282 0 015.865 2.394c1.487 1.473 2.389 3.486 2.389 5.658 0 .485-.045.979-.139 1.479z" fill="#2C1A0E"/><path d="M72.048 39.162c.135.017.254.04.383.04 1.007 0 1.682-.68 2.53-4.022l1.172-4.598h7.273l-2.614 10.762h-2.553l2.098-8.606h-2.295l-.603 2.418c-1.407 5.719-2.865 6.356-4.777 6.356-.384 0-.784-.04-1.16-.128l.546-2.222z" fill="#0065A8"/><path d="M83.426 30.331h-7.435l-1.217 4.792c-.82 3.237-1.431 3.828-2.323 3.828l-.491-.046-.099.204-.617 2.497 1.4.147c2.187 0 3.628-1.04 4.984-6.544 0 0 .438-1.748.55-2.22h1.898l-2.095 8.601h2.95l2.732-11.259h-.237zm-.278.49l-2.495 10.272h-2.15c.132-.554 2.089-8.598 2.089-8.598H77.9l-.648 2.605c-1.41 5.708-2.838 6.16-4.57 6.16 0 0-.651-.065-.93-.097.1-.38.357-1.438.431-1.737.112.01.234.023.234.023 1.238 0 1.923-1.067 2.73-4.215l1.125-4.412h6.876zm9.039 7.409c-.607 1.524-1.926 3.516-4.906 3.516-3.56 0-3.862-2.909-3.73-4.679.18-2.46 1.71-6.893 5.9-6.893 3.475 0 3.885 2.584 3.753 4.432-.044.574-.271 1.4-.464 2.01h-6.51a5.263 5.263 0 00-.129.87c-.129 1.735.783 2.097 1.553 2.097.824 0 1.651-.55 1.946-1.353h2.587zm-1.658-3.286a9.2 9.2 0 00.136-.931c.128-1.74-1.282-1.675-1.536-1.675-.655 0-1.814.299-2.486 2.606h3.886z" fill="#0065A8"/><path d="M83.36 37.065c-.139 1.839.183 4.926 3.906 4.926 3.017 0 4.431-1.998 5.09-3.672l.131-.338H89.48l-.058.162c-.25.689-.996 1.193-1.75 1.193-1 0-1.47-.623-1.379-1.852 0 0 .06-.397.098-.622h6.466l.054-.174c.16-.495.44-1.424.485-2.084.132-1.746-.21-4.672-3.923-4.672-4.099 0-5.91 4.262-6.113 7.133zm.383 0c.177-2.302 1.577-6.64 5.69-6.64 3.207 0 3.715 2.272 3.57 4.18-.027.402-.183 1.045-.397 1.76h-6.537l-.166 1.119c-.112 1.51.509 2.342 1.733 2.342.85 0 1.64-.577 2.01-1.353h2.19c-.66 1.45-1.936 3.022-4.536 3.022-3.204 0-3.706-2.41-3.557-4.43z" fill="#0065A8"/><path d="M89.169 32.094c-.885 0-2.041.482-2.71 2.782l-.09.311h4.319l.176-1.174c.04-.56-.058-1.008-.295-1.333-.427-.593-1.156-.593-1.4-.586zm-.058.491c.227-.002.834-.002 1.156.446.163.232.23.558.2.982 0 0-.067.448-.091.682h-3.39c.477-1.345 1.166-2.11 2.125-2.11zm5.536.153l.532-2.156h8.178l-.526 2.156h-2.821l-2.085 8.606h-2.553l2.092-8.606h-2.817z" fill="#0065A8"/><path d="M103.375 30.331h-8.34l-.651 2.659H97.2c-.132.554-2.092 8.6-2.092 8.6h2.957s1.997-8.227 2.085-8.6h2.811l.654-2.659h-.241zm-.281.49c-.098.402-.343 1.4-.407 1.674h-2.814s-2.004 8.226-2.092 8.598h-2.15l2.096-8.598h-2.814c.091-.398.332-1.399.403-1.673h7.778zM13.285 60.694H10.54l1.973-9h7.05L19.14 53.5h-4.279l-1.577 7.194zm6.889-6.097c.847-3.223 4.072-3.247 5.194-3.247 3.058 0 3.692 1.279 3.692 2.38 0 .339-.081.653-.152.991l-.926 4.112c-.05.212-.166.76-.166 1.045 0 .478.18.569.308.584v.233h-2.882l-.05-.887h-.055c-1.197 1.131-2.542 1.222-3.17 1.222-.976 0-2.885-.212-2.885-2.265 0-2.769 2.994-3.105 4.628-3.3 1.499-.197 2.499-.07 2.499-1.453 0-.407-.282-.845-1.163-.845-.543 0-1.685.102-1.994 1.43h-2.878zm5.662 1.807c-.194.107-.448.214-1.933.481-.742.12-1.953.426-1.953 1.575 0 .656.831.763 1.241.763 1.984 0 2.451-2.024 2.506-2.252l.139-.567zm8.504-4.71l-.223.922h.06c1.215-1.156 2.537-1.266 3.246-1.266 2.383 0 3.383 1.69 3.383 3.583 0 2.445-1.522 6.063-5.184 6.063-.617 0-2.075-.146-2.733-1.224l-.918 4.198h-2.76l2.706-12.276h2.424zm-.962 5.4c0 1.134.491 2.094 1.76 2.094 1.993 0 2.807-2.36 2.807-3.933 0-1.754-1.045-2.088-1.773-2.088-.797 0-2.16.438-2.669 2.887a5.29 5.29 0 00-.125 1.04zm9.342-2.497c.86-3.223 4.075-3.247 5.204-3.247 3.058 0 3.696 1.279 3.696 2.38 0 .339-.095.653-.16.991l-.925 4.112c-.058.212-.163.76-.163 1.045 0 .478.18.569.308.584v.233H47.8l-.058-.887h-.054c-1.19 1.131-2.533 1.222-3.167 1.222-.983 0-2.885-.212-2.885-2.265 0-2.769 2.994-3.105 4.628-3.3 1.502-.197 2.495-.07 2.495-1.453 0-.407-.275-.845-1.16-.845-.535 0-1.688.102-1.996 1.43H42.72zm5.672 1.807c-.197.107-.451.214-1.936.481-.74.12-1.95.426-1.95 1.575 0 .656.828.763 1.241.763 1.974 0 2.448-2.024 2.5-2.252l.145-.567zm6.828 4.29h-2.75l1.977-9h2.757l-.746 3.384h3.312l.743-3.385h2.756l-1.973 9.002H58.54l.834-3.81h-3.316l-.838 3.81zm8.988-7.194l.407-1.807h8.832l-.397 1.808h-3.044l-1.577 7.194h-2.753l1.577-7.194h-3.045zm16.708-1.807h3.262l-1.977 9.002h-2.763l1.295-5.85-4.678 5.85h-3.262l1.98-9.002h2.75l-1.285 5.843 4.678-5.843zm6.517 9.001h-3.295l3.03-3.317c-.932-.087-1.945-.688-1.945-2.266 0-1.685 1.196-3.418 4.092-3.418h5.425l-1.984 9.002h-2.753l.692-3.118h-.871l-2.39 3.117zm2.702-7.193c-1.797 0-2.027.882-2.027 1.27 0 .944.96.994 1.44.994h1.543l.489-2.264h-1.445zM29.271.978h10.087l-9.34 43.082H18.431l7.025-32.357h-8.452l1.275-6.155c3.817-.126 8.903-1.342 10.991-4.57z" fill="#0065A8"/><path d="M39.356.731H29.121l-.068.114c-2 3.094-6.886 4.331-10.778 4.454l-.207.009-1.37 6.645h8.446c-.13.583-7.025 32.354-7.025 32.354h12.107L39.676.73h-.32zm-.308.495c-.126.588-9.154 42.197-9.236 42.586h-11.07c.13-.591 7.029-32.357 7.029-32.357h-8.456c.112-.522 1.106-5.34 1.177-5.67 3.943-.169 8.777-1.445 10.903-4.56h9.653zM61.969.247c9.571 0 13.833 4.264 12.409 10.968l-4.855 22.606c-1.492 6.706-7.554 10.968-17.193 10.968-9.571 0-13.911-4.262-12.41-10.968l4.856-22.605C46.2 4.51 52.33.246 61.969.246zM53.97 37.293c1.505 0 2.919-.487 3.441-2.8l5.153-24.011c.526-2.315-.745-2.802-2.244-2.802-1.563 0-2.909.487-3.431 2.802l-5.16 24.01c-.522 2.314.674 2.8 2.24 2.8z" fill="#0065A8"/><path d="M44.528 11.163l-4.859 22.61c-.664 2.97-.186 5.538 1.377 7.436 2.065 2.504 5.964 3.827 11.283 3.827 9.497 0 15.857-4.065 17.44-11.162l4.866-22.608c.634-3.04.156-5.558-1.448-7.48C71.126 1.315 67.247 0 61.968 0c-9.439 0-15.962 4.171-17.44 11.163zm-3.089 29.734c-1.482-1.798-1.912-4.162-1.278-7.023l4.865-22.608c1.43-6.745 7.76-10.77 16.942-10.77 5.126 0 8.866 1.243 10.826 3.607 1.498 1.796 1.95 4.173 1.339 7.06l-4.855 22.61c-1.536 6.844-7.707 10.769-16.949 10.769-5.163 0-8.927-1.26-10.89-3.645z" fill="#0065A8"/><path d="M56.638 10.43c0 .005-5.157 24.011-5.157 24.011-.24 1.068-.149 1.836.275 2.357.55.667 1.529.745 2.214.745 1.295 0 3.082-.313 3.685-3l5.164-24.01c.234-1.046.139-1.816-.295-2.34-.417-.513-1.136-.76-2.204-.76-1.397 0-3.078.34-3.682 2.997zm-4.485 26.06c-.326-.391-.383-1.043-.177-1.946l5.164-24.01c.508-2.289 1.834-2.604 3.18-2.604.902 0 1.492.19 1.81.574.326.394.39 1.043.194 1.927-.003.005-5.164 24.011-5.164 24.011-.522 2.31-1.976 2.608-3.19 2.608-.922 0-1.505-.18-1.817-.56z" fill="#0065A8"/></svg>