<svg width="110" height="70" fill="none" xmlns="http://www.w3.org/2000/svg"><path d="M106.894 19.084c-1.925-2.006-4.622-3.276-7.632-3.274H19.764c-7.296 0-13.536 5.392-14.79 12.782L.164 56.945c-.11.65-.164 1.297-.164 1.934 0 3.012 1.19 5.794 3.137 7.817 1.945 2.026 4.668 3.305 7.704 3.304h78.042c7.867 0 14.611-5.774 16.033-13.728l4.905-27.431c.12-.678.179-1.352.179-2.015 0-2.982-1.178-5.736-3.106-7.742zm.483 9.295l-4.904 27.431c-1.205 6.742-6.922 11.637-13.59 11.637H10.841c-2.353-.002-4.43-.98-5.937-2.546a8.69 8.69 0 01-2.42-6.022c0-.491.04-.99.127-1.495L7.42 29.03c1.046-6.166 6.254-10.667 12.343-10.667h79.498c2.326.001 4.376.97 5.865 2.516a8.585 8.585 0 012.389 5.947c0 .509-.045 1.028-.139 1.553z" fill="#2C1A0E"/><path d="M60.087 40.423c.135.018.254.043.383.043 1.007 0 1.682-.715 2.53-4.228l1.172-4.832h7.273l-2.614 11.31h-2.553l2.098-9.044h-2.295l-.603 2.541c-1.407 6.01-2.865 6.68-4.777 6.68-.384 0-.784-.041-1.16-.134l.546-2.336z" fill="#0065A8"/><path d="M71.466 31.144h-7.435l-1.217 5.035c-.82 3.403-1.431 4.024-2.323 4.024L60 40.154l-.099.214-.617 2.625 1.4.154c2.187 0 3.628-1.093 4.984-6.877 0 0 .438-1.837.55-2.333h1.898l-2.095 9.04h2.95l2.732-11.833h-.237zm-.278.515l-2.495 10.795h-2.15c.132-.582 2.089-9.036 2.089-9.036H65.94l-.648 2.738c-1.41 5.999-2.838 6.474-4.57 6.474 0 0-.651-.07-.93-.102.1-.4.357-1.512.431-1.826.112.01.234.024.234.024 1.238 0 1.923-1.122 2.73-4.43l1.125-4.637h6.876zm9.038 7.784c-.607 1.603-1.926 3.697-4.906 3.697-3.56 0-3.862-3.058-3.73-4.919.18-2.586 1.71-7.244 5.9-7.244 3.475 0 3.885 2.716 3.753 4.658-.044.603-.271 1.471-.464 2.113h-6.51a5.807 5.807 0 00-.129.914c-.129 1.823.783 2.204 1.553 2.204.824 0 1.651-.578 1.946-1.423h2.587zm-1.658-3.453c.024-.11.112-.642.136-.979.129-1.828-1.282-1.76-1.536-1.76-.655 0-1.814.314-2.486 2.739h3.886z" fill="#0065A8"/><path d="M71.401 38.222c-.139 1.932.183 5.177 3.906 5.177 3.017 0 4.431-2.1 5.09-3.86l.131-.354h-3.007l-.058.17c-.25.724-.996 1.253-1.75 1.253-1 0-1.47-.654-1.379-1.946 0 0 .06-.417.098-.654h6.466l.054-.182c.16-.52.44-1.497.485-2.19.132-1.836-.21-4.911-3.923-4.911-4.099 0-5.91 4.48-6.113 7.497zm.383 0c.177-2.42 1.577-6.98 5.69-6.98 3.207 0 3.715 2.389 3.57 4.394-.028.423-.183 1.098-.397 1.85H74.11l-.166 1.176c-.112 1.587.509 2.461 1.733 2.461.85 0 1.64-.605 2.01-1.422h2.19c-.66 1.524-1.936 3.177-4.536 3.177-3.204 0-3.706-2.534-3.557-4.656z" fill="#0065A8"/><path d="M77.209 32.996c-.885 0-2.041.506-2.71 2.923l-.09.327h4.319l.176-1.234c.04-.59-.058-1.06-.295-1.4-.427-.624-1.156-.624-1.4-.616zm-.058.516c.227-.002.834-.002 1.156.468.163.244.23.587.2 1.032 0 0-.068.47-.091.717h-3.39c.477-1.414 1.166-2.217 2.125-2.217zm5.537.16l.532-2.266h8.178l-.526 2.266h-2.82l-2.086 9.045h-2.553l2.092-9.045h-2.817z" fill="#0065A8"/><path d="M91.416 31.144h-8.34l-.651 2.793h2.817c-.132.583-2.092 9.04-2.092 9.04h2.957s1.997-8.648 2.085-9.04h2.81l.655-2.793h-.24zm-.281.515c-.098.421-.343 1.47-.407 1.759h-2.814s-2.004 8.645-2.092 9.036h-2.15l2.096-9.036h-2.814c.091-.42.332-1.471.403-1.76h7.778zM13.284 60.22h-2.746l1.973-9.461h7.05l-.421 1.9h-4.28l-1.577 7.56zm6.89-6.41c.847-3.387 4.072-3.413 5.194-3.413 3.058 0 3.692 1.345 3.692 2.502 0 .357-.081.687-.152 1.042l-.926 4.322c-.05.222-.166.798-.166 1.098 0 .503.18.598.308.614v.244h-2.882l-.05-.931h-.055c-1.197 1.189-2.542 1.283-3.17 1.283-.976 0-2.885-.222-2.885-2.38 0-2.91 2.994-3.263 4.628-3.467 1.498-.208 2.499-.074 2.499-1.529 0-.428-.282-.888-1.163-.888-.543 0-1.685.108-1.994 1.504h-2.878zm5.662 1.9c-.194.112-.448.225-1.933.506-.742.125-1.953.447-1.953 1.655 0 .69.831.802 1.241.802 1.984 0 2.451-2.127 2.506-2.367l.139-.596zm8.504-4.951l-.224.969h.06c1.215-1.215 2.537-1.33 3.246-1.33 2.383 0 3.383 1.776 3.383 3.765 0 2.57-1.522 6.373-5.184 6.373-.617 0-2.075-.154-2.733-1.286l-.918 4.412h-2.76l2.706-12.903h2.424zm-.963 5.676c0 1.192.491 2.201 1.76 2.201 1.993 0 2.807-2.482 2.807-4.134 0-1.843-1.044-2.195-1.773-2.195-.797 0-2.16.46-2.669 3.035a5.83 5.83 0 00-.125 1.093zm9.343-2.625c.862-3.387 4.076-3.413 5.205-3.413 3.058 0 3.696 1.345 3.696 2.502 0 .357-.095.687-.16 1.042l-.925 4.322c-.058.222-.163.798-.163 1.098 0 .503.18.598.308.614v.244H47.8l-.058-.931h-.054c-1.19 1.189-2.533 1.283-3.167 1.283-.983 0-2.885-.222-2.885-2.38 0-2.91 2.993-3.263 4.628-3.467 1.502-.208 2.495-.074 2.495-1.529 0-.428-.275-.888-1.16-.888-.535 0-1.688.108-1.996 1.504H42.72zm5.673 1.9c-.197.112-.451.225-1.936.506-.74.125-1.95.447-1.95 1.655 0 .69.828.802 1.241.802 1.974 0 2.448-2.127 2.5-2.367l.145-.596zm6.828 4.51h-2.75l1.977-9.461h2.757l-.746 3.557h3.312l.743-3.557h2.756l-1.973 9.46h-2.756l.834-4.004h-3.316l-.838 4.004zm8.989-7.562l.407-1.9h8.832l-.397 1.9h-3.044L68.43 60.22h-2.753l1.577-7.56H64.21zm16.707-1.899h3.262l-1.977 9.46H79.44l1.295-6.147-4.678 6.147h-3.262l1.98-9.46h2.75l-1.285 6.14 4.678-6.14zm6.515 9.461h-3.295l3.03-3.487c-.932-.092-1.945-.723-1.945-2.383 0-1.77 1.196-3.591 4.092-3.591h5.425l-1.984 9.46h-2.753l.692-3.277h-.871l-2.39 3.277zm2.702-7.562c-1.797 0-2.027.928-2.027 1.336 0 .992.96 1.044 1.44 1.044h1.543l.489-2.38h-1.445zM24.313 29.79l8.741-.726c-.02.387-.031.677-.031.87 0 1.975.47 3.456 1.41 4.443.96.987 2.203 1.48 3.728 1.48 2.13 0 4.063-.938 5.796-2.816 1.755-1.897 2.632-4.51 2.632-7.84 0-1.973-.49-3.464-1.472-4.47-.982-1.007-2.288-1.51-3.917-1.51a8.17 8.17 0 00-3.415.755c-1.086.503-2.141 1.268-3.164 2.293l-7.395-.522L34.213 0h23.091l-1.692 7.607H40.355l-2.099 6.562a13.709 13.709 0 012.632-.813 12.04 12.04 0 012.6-.29c3.51 0 6.392 1.093 8.648 3.28 2.256 2.188 3.384 5.12 3.384 8.798 0 2.942-.794 5.846-2.382 8.71-1.566 2.846-3.749 5.033-6.548 6.562-2.799 1.53-5.733 2.294-8.804 2.294-3.906 0-7.123-1.171-9.65-3.514-2.507-2.342-3.78-5.477-3.823-9.407z" fill="#0065A8"/></svg>