<svg width="50" height="50" fill="none" xmlns="http://www.w3.org/2000/svg"><path d="M35.778 15.47c-1.203-1.347-2.552-2.384-4.012-3.072-1.528-.718-2.679-.807-3.14-.807-.13 0-.24.006-.328.014l-.335.031-.138.307c-.234.522-.665 1.788-1.113 4.857-.026.182-.051.376-.077.564l-.987-1.405V6.054a.574.574 0 10-1.148 0h-.005v9.909l-.93 1.36a68.26 68.26 0 00-.134-.973c-.448-3.069-.88-4.335-1.113-4.857l-.138-.307-.335-.03a3.588 3.588 0 00-.327-.015c-.462 0-1.613.089-3.14.807-1.461.688-2.81 1.726-4.013 3.072-2.205 2.47-3.792 5.833-4.753 9.977l.561.13-.561-.13c-.716 3.09-1.07 6.588-1.071 10.459 0 2.632.164 5.437.492 8.404l.069.624.616-.122a9.61 9.61 0 001.349-.405c1.498-.547 3.396-1.447 4.392-1.917 2.524-1.193 4.583-1.326 5.945-1.328.39 0 .747.012 1.068.023h-.003c.264.01.562.017.766.017h.434l.12-.417c.173-.604.434-1.934.566-4.833.052-1.139.078-2.4.078-3.74 0-1.842-.049-3.834-.145-5.854a117.17 117.17 0 00-.519-6.841l1.309-1.914 1.345 1.915c-.248 2.2-.444 4.707-.568 7.29-.096 2.02-.145 4.012-.145 5.856 0 1.339.026 2.6.078 3.738.133 2.9.393 4.23.566 4.833l.12.417h.434c.204 0 .503-.007.766-.017h-.002c.32-.01.677-.023 1.066-.023 1.364.002 3.422.135 5.946 1.328.663.313 1.73.818 2.81 1.281.54.232 1.082.453 1.583.636.502.183.957.327 1.349.405l.615.122.07-.624c.327-2.968.491-5.772.491-8.404 0-3.871-.355-7.368-1.07-10.46-.961-4.143-2.548-7.507-4.754-9.976zM23.203 35.45c-.1 2.226-.281 3.48-.42 4.141a23.813 23.813 0 01-.27-.008h-.003a31.37 31.37 0 00-1.106-.023 14.546 14.546 0 00-6.438 1.438c-.66.312-1.717.812-2.771 1.264a30.33 30.33 0 01-1.524.612 13.12 13.12 0 01-.558.19c-.275-2.68-.42-5.224-.42-7.608 0-3.8.35-7.213 1.042-10.199.929-4.008 2.45-7.186 4.49-9.47 1.115-1.246 2.34-2.182 3.643-2.796 1.221-.573 2.127-.678 2.529-.694.206.586.545 1.823.893 4.22.379 2.594.68 5.955.846 9.446.096 2.003.144 3.977.144 5.8 0 1.324-.025 2.57-.077 3.686zm11.974 5.998a14.545 14.545 0 00-6.439-1.438c-.413 0-.784.012-1.105.023h-.002l-.271.008c-.139-.661-.32-1.915-.42-4.142a81.477 81.477 0 01-.077-3.685c0-1.824.048-3.798.144-5.801.166-3.491.467-6.852.846-9.446.348-2.397.687-3.634.893-4.22.403.016 1.308.121 2.53.694 1.302.614 2.528 1.55 3.642 2.797 2.04 2.282 3.562 5.461 4.49 9.47.692 2.985 1.041 6.397 1.041 10.198 0 2.384-.143 4.928-.419 7.608-.174-.055-.36-.118-.558-.19-1.418-.517-3.306-1.408-4.295-1.876z" fill="#005AAE"/><path d="M41.869 0H8.13A8.132 8.132 0 000 8.132v33.737c0 4.49 3.64 8.13 8.131 8.131H41.87c4.49 0 8.13-3.64 8.131-8.131V8.132A8.131 8.131 0 0041.869 0zm6.978 41.869a6.95 6.95 0 01-2.044 4.934 6.954 6.954 0 01-4.934 2.044H8.13c-1.928 0-3.67-.78-4.934-2.044a6.954 6.954 0 01-2.044-4.934V8.132c0-1.93.78-3.67 2.044-4.935A6.954 6.954 0 018.13 1.153h33.74c1.929 0 3.67.78 4.934 2.044a6.955 6.955 0 012.044 4.935v33.737z" fill="#005AAE"/><path d="M23.349 18.219s-1.711 1.981-1.953 2.011c-.239.031-1.14-.27-1.14-.27s-.6-.48-.6-.87-.75-1.262-.75-1.262.15-.57-.601-1.23c-.751-.661-1.08-.871-1.411-.93-.33-.06-.601-.15-.601-.15m4.774 5.402s-.12.541-.45.963c-.33.419-1.291 1.891-1.322 2.01-.03.121-.78 1.261-.78 1.261s-.362.09-.871.15c-.51.06-.9-.09-1.501 0-.6.09-.93-.06-1.322 0-.39.06-1.23.931-1.23.931s-.57.15-.66.15m10.086-5.223s-2.071 1.8-2.521 2.43c-.45.631-1.05 2.013-1.17 2.253-.12.24-.631.69-.602 1.14.03.451-.09 1.082.03 1.652.12.57-.12.21.15 1.622.271 1.41.21 1.32.271 1.83.06.512.12 1.411.12 1.592 0 .18 0 .39.03.78s-.03 1.021-.03 1.142m-.93-5.435l.18 1.112-.03 1.08s-.121.63-.3.901c-.18.27-.062.3-.481.63-.42.33-.811.99-.811.99m3.904-13.871s-.42-.57-1.322-.36c-.9.21-.78.15-1.14.21-.36.061-.45-.24-1.08.15-.633.392-.781.961-1.292 1.08-.51.122-2.072.302-2.072.302" stroke="#005AAE" stroke-width="1.133" stroke-linecap="round" stroke-linejoin="bevel"/><path d="M20.256 19.96s-.54-.84-1.17-1.201c-.63-.36-.3-.33-.932-.3-.629.03-1.05-.12-1.32.24s-.09.33-1.02.3c-.932-.03-1.232.03-1.293.15" stroke="#005AAE" stroke-width="1.133" stroke-linecap="round" stroke-linejoin="bevel"/><path d="M18.124 30.198s-.57.42-.84 1.05c-.27.631-.81 1.171-.842 1.412-.03.24-.48.54-.54 1.02-.06.48-.39.931-.45 1.2" fill="#fff"/><path d="M18.124 30.198s-.57.42-.84 1.05c-.27.631-.81 1.171-.842 1.412-.03.24-.48.54-.54 1.02-.06.48-.39.931-.45 1.2m-.571-5.793s1.111-.15 1.261-1.171c.15-1.02.78-1.59.872-1.622.089-.03.96-.419.96-.419l.21.24s.15 1.861.15 1.981c0 .12-.21.84-.21.84s-.48.392-.51.66c-.03.272-.24.632-.36.962-.12.33-.39.39-.841.45-.451.061-.93.242-1.41.301-.482.06-.872-.09-1.202.06m12.924-13.15s1.71 1.981 1.952 2.011c.24.031 1.14-.27 1.14-.27s.6-.48.6-.87.75-1.262.75-1.262-.15-.57.601-1.23c.751-.661 1.081-.871 1.411-.93.33-.06.601-.15.601-.15m-4.774 5.402s.12.541.451.963c.33.419 1.29 1.891 1.321 2.01.031.121.78 1.261.78 1.261s.362.09.872.15.9-.09 1.5 0 .931-.06 1.322 0c.39.06 1.23.931 1.23.931s.57.15.66.15m-10.086-5.223s2.072 1.8 2.522 2.43c.45.631 1.05 2.013 1.17 2.253.12.24.63.69.6 1.14-.029.451.092 1.082-.029 1.652-.12.57.121.21-.15 1.622-.27 1.41-.21 1.32-.27 1.83-.06.512-.12 1.411-.12 1.592 0 .18 0 .39-.03.78s.03 1.021.03 1.142m.929-5.435l-.18 1.112.03 1.08s.121.63.301.901c.18.27.061.3.48.63.42.33.811.99.811.99M29.246 21.01s.42-.57 1.322-.36c.9.21.78.15 1.14.21.36.061.45-.24 1.081.15.632.392.78.961 1.291 1.08.51.122 2.072.302 2.072.302" stroke="#005AAE" stroke-width="1.133" stroke-linecap="round" stroke-linejoin="bevel"/><path d="M29.817 19.96s.54-.84 1.17-1.201c.631-.36.3-.33.932-.3.63.03 1.05-.12 1.32.24s.09.33 1.02.3c.933-.03 1.232.03 1.293.15" stroke="#005AAE" stroke-width="1.133" stroke-linecap="round" stroke-linejoin="bevel"/><path d="M31.95 30.198s.569.42.84 1.05c.27.631.81 1.171.841 1.412.03.24.48.54.54 1.02.06.48.39.931.45 1.2" fill="#fff"/><path d="M31.95 30.198s.569.42.84 1.05c.27.631.81 1.171.841 1.412.03.24.48.54.54 1.02.06.48.39.931.45 1.2m.571-5.793s-1.111-.15-1.261-1.171c-.15-1.02-.78-1.59-.872-1.622a47.25 47.25 0 01-.96-.419l-.21.24s-.15 1.861-.15 1.981c0 .12.21.84.21.84s.48.392.51.66c.03.272.24.632.36.962.12.33.39.39.842.45.45.061.93.242 1.41.301.482.06.871-.09 1.202.06" stroke="#005AAE" stroke-width="1.133" stroke-linecap="round" stroke-linejoin="bevel"/></svg>