<svg width="50" height="50" fill="none" xmlns="http://www.w3.org/2000/svg"><path d="M22.928 29.256l3.216.681-1.727 5.947c-.207.714.905 1.019 1.112.307l1.897-6.535c.083-.286-.1-.645-.403-.71l-3.175-.672 2.26-6.207c.255-.698-.859-1-1.111-.306l-2.471 6.786c-.103.28.116.648.402.709z" fill="#005AAE"/><path d="M41.868 0H8.131A8.132 8.132 0 000 8.132v33.736A8.132 8.132 0 008.131 50h33.737A8.13 8.13 0 0050 41.868V8.132A8.132 8.132 0 0041.868 0zm6.979 41.868c0 1.93-.78 3.67-2.044 4.935a6.953 6.953 0 01-4.935 2.044h-7.25a8.932 8.932 0 01-6.337-2.625 8.926 8.926 0 01-2.596-5.78c5.352-.313 9.595-4.75 9.595-10.181v-6.453h1.03c.781 0 1.413-.632 1.414-1.413v-3.439c0-.78-.632-1.412-1.413-1.413h-3.594V10.01c0-.741-1.153-.743-1.153 0v7.534H18.383V10.01c0-.741-1.153-.743-1.153 0v7.534h-3.54c-.782 0-1.413.633-1.414 1.413v3.439c0 .78.633 1.413 1.413 1.413h1.19v6.453c0 5.445 4.268 9.893 9.64 10.184a10.115 10.115 0 005.411 8.402H8.131c-1.928 0-3.67-.78-4.934-2.044a6.954 6.954 0 01-2.044-4.935V8.132c0-1.93.78-3.67 2.044-4.935A6.954 6.954 0 018.13 1.153h33.737c1.93 0 3.67.78 4.935 2.044a6.955 6.955 0 012.044 4.935v33.736zM13.689 22.655a.26.26 0 01-.26-.26v-3.439a.26.26 0 01.26-.26h22.622a.26.26 0 01.26.26v3.439a.26.26 0 01-.26.26h-2.184v7.606c0 2.5-1.012 4.758-2.65 6.397a9.017 9.017 0 01-6.397 2.65 9.017 9.017 0 01-6.398-2.65 9.017 9.017 0 01-2.65-6.397v-7.606H13.69z" fill="#005AAE"/></svg>