<svg width="50" height="50" fill="none" xmlns="http://www.w3.org/2000/svg"><path d="M42.19 0H7.814C3.505 0 0 3.508 0 7.817v34.374C0 46.498 3.505 50 7.813 50H42.19c4.307 0 7.81-3.502 7.81-7.81V7.818C50 3.508 46.498 0 42.19 0zm0 1.174c3.66 0 6.636 2.98 6.636 6.643v34.374a6.642 6.642 0 01-6.635 6.635H7.813c-3.66 0-6.639-2.977-6.639-6.635V7.817c0-3.663 2.979-6.643 6.639-6.643H42.19z" fill="#0A55A1"/><path fill-rule="evenodd" clip-rule="evenodd" d="M35.22 6.542L24.353 19.167 15.638 6.542h-3.973l-1.38 15.853h4.364l.75-8.871 6.22 8.871h5.517l7.768-8.871-.761 8.871h4.194l1.38-15.853H35.22z" fill="#0A55A1"/><path d="M11.873 30.773c.915-3.118 3.613-4.504 6.482-4.504 1.933 0 3.493.616 4.457 1.485.892.816 1.461 1.952 1.461 3.168 0 1.756-1.165 3.217-2.846 3.686 1.98.396 3.414 1.834 3.414 4.062a4.55 4.55 0 01-1.756 3.662c-1.164.916-3.095 1.412-4.902 1.412-3.068 0-5.988-1.438-6.907-4.902l3.442-.595c.372 1.462 1.534 2.526 3.292 2.526.668 0 1.684-.224 2.202-.67a2.205 2.205 0 00-.147-3.463c-.248-.174-.893-.545-2.475-.545h-1.808V33.42h1.585c.816 0 1.683-.05 2.301-.494.497-.349.817-.942.817-1.585 0-.498-.197-1.064-.717-1.51-.395-.346-.991-.593-1.808-.593-1.51 0-2.474.964-2.845 2.152l-3.242-.618zm19.579 9.182c.471.618 1.09.915 1.833.915.742 0 1.36-.297 1.832-.915.32-.445 1.039-1.584 1.039-4.874 0-1.239-.025-3.988-1.065-5.175-.445-.493-1.015-.767-1.806-.767-.794 0-1.362.274-1.808.768-1.04 1.186-1.064 3.935-1.064 5.174 0 3.29.719 4.429 1.04 4.874zM28.21 28.893a6.117 6.117 0 015.075-2.625 6.111 6.111 0 015.074 2.625c1.063 1.534 1.51 3.884 1.51 6.188 0 7.326-4.109 8.664-6.584 8.664-2.476 0-6.586-1.338-6.586-8.664 0-2.304.446-4.654 1.511-6.188z" fill="#0A55A1"/></svg>