<svg width="50" height="50" fill="none" xmlns="http://www.w3.org/2000/svg"><path d="M42.192 0H7.814C3.504 0 0 3.51 0 7.816V42.19C0 46.497 3.504 50 7.814 50h34.378C46.496 50 50 46.497 50 42.191V7.816C50 3.51 46.496 0 42.192 0zm0 1.181c3.654 0 6.627 2.976 6.627 6.635V42.19a6.635 6.635 0 01-6.627 6.628H7.814c-3.658 0-6.633-2.974-6.633-6.628V7.816A6.641 6.641 0 017.814 1.18h34.378z" fill="#0A55A1"/><path d="M19.913 14.79c.467-5.756 8.788-5.952 8.967 0-.087 6.016-8.602 6.13-8.967 0zm1.564 0l.164.659.164.492.166.576.41.33.494.492h.163l.33.166.492.162h1.235l.496-.162.574-.166.33-.493c.625-.46.921-1.297.821-2.056v-.492l-.164-.576-.658-.988c-.468-.383-1.423-.731-2.057-.906l-.577.167-.491.246-.494.162-.493.33-.412.493-.165.166v.33l-.164.575-.164.493zm.163 19.907h-4.112l-.494-.166-.493-.328-.412-.329-.329-.412-.164-.328-.164-.494v-1.068l.164-.33.164-.494.33-.328.41-.33.494-.163.494-.247h3.619l.658-.331.412-.164.328-.328 2.058-3.457 1.314.906-2.22 3.374-.495.74-.657.328-.74.331-.658.163h-3.62l-.163.164-.164.411-.166.33.33.658.658.329h4.359c2.826-.87 3.988-3.889 5.428-6.17l1.397.907c-1.69 2.638-3.766 6.974-7.566 6.826z" fill="#0A55A1"/><path d="M31.099 35.93c.176-2.22-.117-4.461-.044-6.686.09-2.656.431-5.231-2.36-6.694-3.31-1.736-6.576.71-7.055 4.084h-1.56c.726-2.755.036-1.726 1.891-4.442 1.26-1.844 4.371-2.132 6.267-1.525 5.811 1.855 4.397 8.533 4.43 13.231.004.678-.02 1.356-.006 2.033H31.1z" fill="#0A55A1"/><path fill-rule="evenodd" clip-rule="evenodd" d="M36.775 26.14c.468-2.283-.59-4.44-1.892-6.251l-1.727.74c1.845 1.29 2.463 4.014 1.891 6.17l1.728-.659zm3.453-1.892l-.164-1.399-.412-1.233-.491-1.152-.164-.575-.33-.497-1.563.497c1.544 2.511 1.26 2.096 1.563 4.853l1.561-.494zM15.966 26.14c-.223-2.334.636-4.444 2.055-6.251l1.565.74c-1.523 1.29-2.469 4.248-1.895 6.17l-1.725-.659zm-3.372-1.892c.08-1.767.614-3.42 1.644-4.856l1.562.497-.49.575-.168.493-.493 1.234-.163.658-.248.493-.163 1.4-1.481-.494z" fill="#0A55A1"/></svg>