<svg width="52" height="50" fill="none" xmlns="http://www.w3.org/2000/svg"><path d="M43.363 0H8.422C3.77 0 0 3.64 0 8.132v33.736C0 46.36 3.77 50 8.422 50h34.941c4.652 0 8.422-3.64 8.422-8.132V8.132C51.785 3.64 48.015 0 43.363 0zm7.228 41.868c0 1.93-.808 3.67-2.117 4.935a7.334 7.334 0 01-5.11 2.044H8.421a7.332 7.332 0 01-5.111-2.044c-1.309-1.265-2.117-3.006-2.117-4.935V8.132c0-1.93.808-3.67 2.117-4.935a7.333 7.333 0 015.11-2.044h34.942c1.998 0 3.801.78 5.111 2.044 1.31 1.265 2.117 3.006 2.117 4.935v33.736z" fill="#005AAE"/><path d="M25.885 5.016C14.454 5.016 5.188 13.963 5.187 25c0 11.037 9.267 19.983 20.698 19.984 11.432 0 20.698-8.947 20.698-19.984 0-11.037-9.266-19.984-20.698-19.984zm-13.791 6.668a19.65 19.65 0 018.636-4.846c.283.415.447.764.543 1.075.098.319.128.602.128.899.003.478-.093.998-.095 1.64 0 .482.062 1.027.273 1.636.172.498.341.9.458 1.222.119.323.175.557.173.71a.617.617 0 01-.134.389c-.16.234-.58.587-1.367 1.045-.785.461-1.923 1.037-3.504 1.8-.792.383-1.37.791-1.769 1.259-.399.464-.598 1.005-.594 1.531 0 .364.086.714.222 1.046.238.582.621 1.12 1.051 1.65.645.79 1.404 1.563 1.981 2.303.289.369.53.727.693 1.061.163.335.245.638.244.91 0 .19-.037.37-.125.56-.088.19-.23.394-.456.612-.85.82-1.69 1.436-2.472 1.84-.782.406-1.5.596-2.108.595-.682-.005-1.228-.217-1.71-.686-.48-.472-.886-1.24-1.117-2.356-.215-1.035-.612-1.8-1.155-2.315a2.682 2.682 0 00-1.87-.748 3.24 3.24 0 00-1.595.439c-.015.008-.028.019-.043.027.005-5.195 2.186-9.892 5.712-13.298zm-.956 25.632c.144-.151.332-.333.56-.51.252-.2.549-.39.867-.527.32-.138.658-.222 1.01-.222.473.002.988.142 1.588.593 1.19.9 1.937 1.66 2.617 2.241.34.29.668.541 1.041.727.371.187.793.297 1.246.295.258 0 .525-.033.805-.095a1.95 1.95 0 01.417-.04c.339-.001.762.065 1.192.197.646.196 1.306.541 1.771.972.234.214.42.448.544.691.125.244.192.495.192.77 0 .383-.133.835-.511 1.369-4.825-.333-9.162-2.353-12.383-5.462-.332-.32-.648-.656-.956-1zm14.685 6.514c.24-.483.36-.96.36-1.422a2.873 2.873 0 00-.54-1.652c-.494-.707-1.231-1.224-2.01-1.58-.782-.354-1.607-.55-2.344-.552-.237 0-.466.021-.685.07a2.474 2.474 0 01-.537.066 1.5 1.5 0 01-.7-.167c-.346-.168-.753-.514-1.298-1.01s-1.229-1.129-2.17-1.84c-.773-.59-1.582-.842-2.324-.84a3.798 3.798 0 00-1.539.342 5.596 5.596 0 00-1.575 1.087c-.03.028-.056.055-.084.083-2.223-2.811-3.641-6.242-3.933-9.98a2.19 2.19 0 01.589-.488c.31-.178.66-.28.986-.279.37.004.708.113 1.035.418.323.306.638.842.82 1.72.263 1.264.74 2.249 1.433 2.934a3.563 3.563 0 002.565 1.034c.863-.001 1.762-.261 2.672-.731.91-.472 1.836-1.157 2.752-2.041.312-.3.547-.62.703-.957.156-.337.229-.688.228-1.03-.003-.756-.327-1.439-.75-2.077-.637-.955-1.534-1.85-2.249-2.701-.357-.423-.667-.832-.877-1.207-.212-.376-.316-.708-.315-.986.004-.268.078-.505.324-.8.246-.293.684-.625 1.378-.959 2.123-1.025 3.468-1.717 4.336-2.317.434-.302.756-.585.986-.906.232-.318.348-.69.344-1.041-.002-.386-.11-.73-.24-1.092-.132-.361-.293-.746-.452-1.206a3.754 3.754 0 01-.212-1.27c-.002-.517.093-1.03.095-1.641a4.09 4.09 0 00-.177-1.226 4.756 4.756 0 00-.467-1.034 20.279 20.279 0 013.934-.383c5.388 0 10.26 2.106 13.792 5.515.62.599 1.195 1.24 1.727 1.914-.62.521-1.638 1.568-3.104 3.496-.788 1.04-1.49 1.95-2.01 2.844-.518.892-.862 1.789-.862 2.758-.001 1.1.447 2.225 1.388 3.46.525.692.877 1.278 1.093 1.771.217.494.298.89.298 1.22-.002.42-.123.753-.35 1.106-.227.35-.57.704-.977 1.086-1.038.976-1.751 1.982-2.247 2.992-.745 1.516-1.003 3.025-1.22 4.466-.202 1.357-.375 2.655-.83 3.894a20.09 20.09 0 01-6.698 1.14l-.062-.002zm13.854-5.514a19.579 19.579 0 01-5.669 3.804c.42-1.56.529-3.095.825-4.567.185-.93.44-1.835.879-2.728.439-.892 1.06-1.774 2.002-2.66.424-.401.835-.81 1.154-1.298a3.088 3.088 0 00.533-1.72c0-.515-.128-1.068-.392-1.67-.265-.603-.666-1.26-1.23-2.003-.85-1.12-1.156-1.988-1.157-2.778 0-.699.245-1.393.71-2.194.462-.798 1.14-1.685 1.931-2.726.978-1.288 1.747-2.163 2.302-2.726.212-.214.391-.383.538-.511A18.283 18.283 0 0145.39 25c0 5.202-2.182 9.906-5.712 13.316z" fill="#005AAE"/></svg>