<svg width="50" height="50" fill="none" xmlns="http://www.w3.org/2000/svg"><path d="M42.192 0H7.814C3.506 0 0 3.508 0 7.815V42.19C0 46.498 3.506 50 7.814 50h34.378C46.499 50 50 46.499 50 42.19V7.815C50 3.508 46.499 0 42.192 0zm0 1.168c3.66 0 6.64 2.983 6.64 6.647V42.19c0 3.662-2.98 6.642-6.64 6.642H7.814c-3.665 0-6.646-2.98-6.646-6.642V7.815a6.655 6.655 0 016.646-6.647h34.378z" fill="#0A55A1"/><path d="M26.592 34.41l-4.35-2.523v1.566c-4.104-.474-5.728-.917-8.787-3.74l-1.39 1.044c3.88 3.517 5.017 3.656 10.176 4.522v1.654l4.35-2.523zm-1.305-23.664c-3.791-.105-7.491.956-11.05 2.175l.175 2.263h1.393l-.177-1.133c5.193-1.838 11.664-3.118 16.707-.173 2.787 1.051 3.869 4.53-.35 4.698l.35-3.392c-1.777-.272-4.289-.974-5.917.173l-.435.348-.347.697-.177.52-.522 9.658c-2.726-.005-5.358.62-8.003 1.306l-.174-2.002h-1.478l.346 4.176 2.177-.956 2.262-.521 2.35-.348 2.35-.177v.525l-.177 1.65.177.348.17.522.177.348.522.437.522.347.782.349 1.045.173c2.954.543 4.194.65 6.786-.87.511-4.129 2.201-14.273 1.045-16.964-1.964-3.127-7.117-4.336-10.53-4.177zm5.48 5.656l-.172 2.174-1.305-.175-1.305-.348-.523-.174-.349-.347-.173-.434v-.175l.173-.35.35-.171h.522l.607-.176h1.22l.955.176zM33.64 30.93h-.173l-.176.173-.695.348-.61.176h-2.348l-1.218-.349-1.306-.348-.695-.349-.26-.172-.175-.176.784-11.309c1.503 1.264 6.07 1.547 7.741.434L33.64 30.93z" fill="#0A55A1"/><path d="M21.981 16.574l-1.567-1.39-3.654 3.564-3.827-3.564-1.479 1.39 3.654 3.83-3.654 3.829 1.479 1.477 3.827-3.828 3.654 3.828 1.567-1.477-3.74-3.83 3.74-3.83z" fill="#0A55A1"/></svg>