<svg width="50" height="50" fill="none" xmlns="http://www.w3.org/2000/svg"><path d="M33.507 7.262c-2.35-.003-4.529.75-6.415 2.213a12.714 12.714 0 00-2.098 2.074 12.698 12.698 0 00-2.099-2.074c-1.886-1.462-4.065-2.216-6.414-2.213-3.134-.002-6.038 1.261-8.141 3.545-2.08 2.256-3.213 5.325-3.213 8.626 0 1.703.32 3.346.977 4.96.657 1.613 1.648 3.197 2.982 4.807 2.387 2.878 5.762 5.748 9.648 9.062a451.491 451.491 0 014.389 3.774 2.837 2.837 0 003.741 0 445.41 445.41 0 014.39-3.775c3.886-3.313 7.26-6.183 9.648-9.061 1.334-1.61 2.325-3.194 2.982-4.808.657-1.613.977-3.256.976-4.96 0-3.3-1.133-6.369-3.213-8.625-2.103-2.284-5.007-3.547-8.14-3.545zm10.2 12.17c0 1.56-.288 3.042-.891 4.525-.603 1.483-1.526 2.967-2.802 4.507-2.284 2.758-5.622 5.609-9.508 8.92a445.612 445.612 0 00-4.4 3.785 1.687 1.687 0 01-2.224 0 453.305 453.305 0 00-4.4-3.785c-3.887-3.31-7.225-6.162-9.508-8.92-1.277-1.54-2.199-3.024-2.802-4.506a11.811 11.811 0 01-.892-4.525c0-3.04 1.041-5.82 2.908-7.845 1.89-2.049 4.467-3.172 7.293-3.173 2.105.002 4.005.657 5.71 1.972a11.82 11.82 0 012.335 2.44l.467.646.468-.645a11.835 11.835 0 012.336-2.441c1.704-1.315 3.604-1.97 5.71-1.972 2.825.002 5.401 1.124 7.292 3.173 1.867 2.025 2.908 4.805 2.909 7.844z" fill="#005AAE"/><path d="M41.868 0H8.131A8.131 8.131 0 000 8.131V41.87A8.132 8.132 0 008.131 50h33.737A8.132 8.132 0 0050 41.869V8.13A8.132 8.132 0 0041.868 0zm6.98 41.869a6.956 6.956 0 01-2.045 4.934 6.954 6.954 0 01-4.935 2.044H8.131a6.95 6.95 0 01-4.934-2.044 6.954 6.954 0 01-2.044-4.934V8.13c0-1.928.78-3.67 2.044-4.934A6.954 6.954 0 018.13 1.153h33.737c1.93 0 3.67.78 4.935 2.044a6.954 6.954 0 012.044 4.934V41.87z" fill="#005AAE"/><path d="M25 16.234a7.968 7.968 0 100 15.937 7.968 7.968 0 000-15.937zm4.82 12.787A6.791 6.791 0 0125 31.017a6.791 6.791 0 01-4.819-1.996 6.791 6.791 0 01-1.996-4.819c0-1.883.762-3.584 1.996-4.819A6.791 6.791 0 0125 17.387c1.884 0 3.584.762 4.82 1.996a6.791 6.791 0 011.995 4.82 6.791 6.791 0 01-1.996 4.818z" fill="#005AAE"/><path d="M28.588 22.623a.561.561 0 00-.292.09l-.004-.006-3.072 1.731v-4.41l.001-.003a.577.577 0 00-1.155 0l.002.006v5.096a.75.75 0 001.117.655v-.001l3.673-2.07-.004-.006a.571.571 0 00-.266-1.082zm-3.967 2.153h-.001.001z" fill="#005AAE"/></svg>