<svg width="50" height="50" fill="none" xmlns="http://www.w3.org/2000/svg"><path d="M41.869 0H8.132A8.132 8.132 0 000 8.131V41.87A8.132 8.132 0 008.132 50h33.737A8.132 8.132 0 0050 41.869V8.13A8.132 8.132 0 0041.87 0zm6.978 41.869c0 1.928-.78 3.67-2.044 4.934a6.954 6.954 0 01-4.934 2.044H8.132c-1.93 0-3.67-.78-4.935-2.044a6.954 6.954 0 01-2.044-4.934V8.13c0-1.928.78-3.67 2.044-4.934a6.955 6.955 0 014.935-2.044h33.737c1.928 0 3.67.78 4.934 2.044a6.954 6.954 0 012.044 4.934v33.74z" fill="#005AAE"/><path d="M37.958 35.632V29.75a3.79 3.79 0 00-7.579 0v8.218a5.01 5.01 0 01-1.473 3.556 5.012 5.012 0 01-3.556 1.473 5.012 5.012 0 01-3.557-1.473 5.011 5.011 0 01-1.473-3.556V27.095c4.867-.299 8.721-4.338 8.722-9.28v-6.962a2.683 2.683 0 10-1.153 0v6.962c0 2.252-.91 4.284-2.386 5.76a8.117 8.117 0 01-5.76 2.386 8.118 8.118 0 01-5.76-2.386 8.118 8.118 0 01-2.386-5.76v-6.962a2.683 2.683 0 10-1.152 0v6.962c0 4.942 3.855 8.982 8.722 9.28v10.874a6.183 6.183 0 0012.365 0V29.75c0-.73.294-1.386.772-1.865a2.626 2.626 0 011.865-.772 2.632 2.632 0 012.636 2.637v5.88a4.28 4.28 0 00.576 8.52 4.279 4.279 0 00.577-8.52zM26.936 8.234c0-.424.17-.803.448-1.082a1.523 1.523 0 011.081-.448c.425 0 .804.17 1.082.448a1.527 1.527 0 010 2.164 1.523 1.523 0 01-1.082.448c-.424 0-.803-.17-1.081-.448a1.522 1.522 0 01-.448-1.082zm-17.445 0c0-.424.17-.803.448-1.082a1.523 1.523 0 011.082-.448 1.53 1.53 0 011.082 2.612 1.522 1.522 0 01-1.082.448c-.424 0-.803-.17-1.082-.448a1.522 1.522 0 01-.448-1.082zm30.103 33.848a3.116 3.116 0 01-2.213.916 3.12 3.12 0 01-2.212-.916 3.116 3.116 0 01-.916-2.212c0-.866.349-1.645.916-2.213a3.117 3.117 0 012.212-.916c.866 0 1.645.35 2.213.916.567.568.916 1.347.916 2.213a3.12 3.12 0 01-.916 2.212z" fill="#005AAE"/></svg>