<svg width="50" height="50" fill="none" xmlns="http://www.w3.org/2000/svg"><path d="M42.19 0H7.814C3.506 0 0 3.508 0 7.815V42.19C0 46.498 3.506 50 7.814 50H42.19c4.308 0 7.81-3.501 7.81-7.81V7.815C50 3.508 46.498 0 42.19 0zm0 1.168c3.663 0 6.642 2.983 6.642 6.647V42.19a6.65 6.65 0 01-6.642 6.642H7.814c-3.664 0-6.646-2.98-6.646-6.642V7.815a6.655 6.655 0 016.646-6.647H42.19z" fill="#0A55A1"/><path fill-rule="evenodd" clip-rule="evenodd" d="M35.487 7.037L24.56 19.729 15.8 7.037h-4l-1.387 15.939h4.389l.756-8.92 6.256 8.92h5.543l7.813-8.92-.767 8.92h4.216l1.39-15.94h-4.522z" fill="#0A55A1"/><path d="M18.323 34.407c.343-.481.476-1.326.476-2.024 0-.7-.133-1.544-.476-2.026-.237-.313-.687-.699-1.532-.699s-1.294.386-1.531.699c-.344.482-.476 1.326-.476 2.026 0 .698.132 1.543.476 2.024.237.314.687.7 1.53.7.846 0 1.296-.386 1.533-.7zM13.2 40.46c1.03.746 2.165.867 2.773.867 1.11 0 1.795-.482 2.166-.892.634-.724.818-1.977.793-3.207-.925.603-1.85.771-2.774.771-1.216 0-2.747-.264-3.989-1.518-.95-.965-1.505-2.412-1.505-3.954 0-1.23.449-2.893 1.48-3.98 1.029-1.083 2.747-1.782 4.569-1.782 2.192 0 3.987 1.037 4.939 2.29 1.135 1.494 1.372 3.737 1.372 6.1 0 2.29-.237 5.015-1.901 6.967-1.426 1.664-3.143 2.098-5.282 2.098-1.611 0-3.143-.29-4.49-1.325L13.2 40.46zm21.39-6.173c0-1.616-.028-3.136-.766-3.954-.528-.58-1.215-.675-1.663-.675-.45 0-1.137.095-1.666.675-.739.818-.765 2.338-.765 3.954v2.41c0 1.616.026 3.135.765 3.955.53.578 1.216.675 1.666.675.448 0 1.135-.097 1.663-.675.738-.82.766-2.34.766-3.955v-2.41zm2.192-5.715c1.77 1.833 1.98 4.629 1.98 6.92 0 2.29-.21 5.087-1.98 6.92-.793.844-2.298 1.809-4.621 1.809-2.324 0-3.83-.965-4.623-1.81-1.769-1.832-1.98-4.629-1.98-6.919 0-2.291.211-5.087 1.98-6.92.793-.844 2.299-1.807 4.623-1.807 2.323 0 3.828.963 4.621 1.807z" fill="#0A55A1"/></svg>