<svg width="50" height="50" fill="none" xmlns="http://www.w3.org/2000/svg"><path d="M41.868 0H8.131A8.132 8.132 0 000 8.132v33.736A8.132 8.132 0 008.131 50h33.737A8.132 8.132 0 0050 41.868V8.132A8.132 8.132 0 0041.868 0zm6.979 41.868c0 1.93-.78 3.67-2.044 4.935a6.954 6.954 0 01-4.935 2.044H8.131a6.95 6.95 0 01-4.934-2.044 6.954 6.954 0 01-2.044-4.935V8.132c0-1.93.78-3.67 2.044-4.935A6.954 6.954 0 018.13 1.153h33.737c1.93 0 3.67.78 4.935 2.044a6.954 6.954 0 012.044 4.935v33.736z" fill="#005AAE"/><path d="M42.91 15.822H7.091a2.767 2.767 0 00-2.768 2.768v13.562a2.767 2.767 0 002.768 2.767H42.91a2.768 2.768 0 002.768-2.767V18.59a2.768 2.768 0 00-2.768-2.768zM5.95 33.293a1.609 1.609 0 01-.474-1.143V18.592c0-.448.18-.849.474-1.143a1.61 1.61 0 011.143-.474h15.174v16.791H7.093a1.61 1.61 0 01-1.143-.473zm38.575-1.14c0 .447-.18.847-.473 1.14a1.607 1.607 0 01-1.142.474H23.42V16.974h19.49c.448 0 .848.18 1.142.473.293.294.472.694.473 1.142v13.562z" fill="#005AAE"/></svg>