<svg width="50" height="50" fill="none" xmlns="http://www.w3.org/2000/svg"><path d="M41.869 0H8.13A8.132 8.132 0 000 8.131V41.87A8.132 8.132 0 008.131 50H41.87c4.49 0 8.13-3.64 8.131-8.131V8.13A8.132 8.132 0 0041.869 0zm6.978 41.869c0 1.928-.78 3.67-2.044 4.934a6.954 6.954 0 01-4.934 2.044H8.13c-1.928 0-3.67-.78-4.934-2.044a6.954 6.954 0 01-2.044-4.934V8.13c0-1.928.78-3.67 2.044-4.934A6.954 6.954 0 018.13 1.153h33.74c1.929 0 3.67.78 4.934 2.044a6.954 6.954 0 012.044 4.934V41.87z" fill="#0A55A1"/><path d="M46.646 25.545h-4.073c.221-.42.42-.843.593-1.267a12.45 12.45 0 00.937-4.76c0-3.167-1.087-6.112-3.084-8.278l-.424.39.424-.39C39 9.048 36.212 7.835 33.204 7.836c-2.256-.002-4.349.722-6.16 2.125a12.146 12.146 0 00-1.994 1.967 12.169 12.169 0 00-1.995-1.967c-1.811-1.403-3.904-2.127-6.16-2.125-3.007-.001-5.796 1.211-7.815 3.404-1.997 2.166-3.084 5.111-3.084 8.279 0 1.494.26 2.94.786 4.36H2.377v.005a.571.571 0 00-.548.572c0 .31.244.56.548.572v.004H7.27c.615 1.29 1.453 2.566 2.524 3.858 2.288 2.759 5.522 5.508 9.245 8.682 1.27 1.084 2.71 2.31 4.203 3.615a2.743 2.743 0 003.615 0c1.493-1.304 2.933-2.531 4.205-3.615 3.722-3.174 6.955-5.923 9.244-8.682a21.11 21.11 0 001.6-2.192h4.74v-.003a.571.571 0 00.555-.572.572.572 0 00-.555-.573v-.005zM8.001 23.844a11.289 11.289 0 01-.852-4.325c0-2.906.995-5.563 2.779-7.498 1.807-1.957 4.268-3.03 6.968-3.032 2.01.003 3.825.628 5.453 1.884.822.635 1.57 1.416 2.233 2.333l.467.646.468-.646a11.305 11.305 0 012.233-2.333c1.628-1.256 3.442-1.881 5.454-1.884 2.7.002 5.16 1.075 6.967 3.032 1.784 1.935 2.779 4.592 2.78 7.497a11.29 11.29 0 01-.853 4.325c-.23.566-.511 1.132-.841 1.702h-9.664l-2.76-11.401-3.081 15.528-4.416-10.578-2.634 7.568-2.026-2.783h-8.66c-.004-.012-.01-.024-.015-.035zm31.417 4.31c-2.185 2.64-5.382 5.37-9.104 8.54a439.06 439.06 0 00-4.216 3.626 1.592 1.592 0 01-2.097 0 435.533 435.533 0 00-4.215-3.625c-3.723-3.172-6.919-5.901-9.105-8.54-.88-1.063-1.582-2.098-2.122-3.123h7.53l2.977 4.09 2.368-6.802 4.712 11.29 2.798-14.105 1.742 7.193h9.837c-.333.48-.698.965-1.105 1.456z" fill="#0A55A1"/></svg>