<svg width="56" height="56" fill="none" xmlns="http://www.w3.org/2000/svg"><path d="M45.188 1H10.813C6.505 1 3 4.507 3 8.816V43.19C3 47.499 6.505 51 10.813 51h34.375c4.307 0 7.81-3.502 7.81-7.81V8.816c0-4.31-3.502-7.816-7.81-7.816zm0 1.228c3.628 0 6.58 2.956 6.58 6.588V43.19a6.59 6.59 0 01-6.58 6.582H10.813c-3.63 0-6.585-2.953-6.585-6.582V8.816c0-3.632 2.954-6.588 6.585-6.588h34.375z" fill="#3062B7"/><path d="M16.588 26.199v12.036a5.65 5.65 0 005.652 5.651h11.017a5.652 5.652 0 005.653-5.65V26.198H16.588z" stroke="#1C63B7" stroke-width="1.333"/><path d="M39.752 25.918a.702.702 0 01-.702.702H16.448a.7.7 0 110-1.404H39.05c.388 0 .702.314.702.702z" fill="#fff"/><path d="M39.752 25.918a.702.702 0 01-.702.702H16.448a.7.7 0 110-1.404H39.05c.388 0 .702.314.702.702z" fill="#fff" stroke="#1C63B7" stroke-width="1.333"/><path d="M19.816 29.076a.772.772 0 01-.772.773h-5.616a.772.772 0 110-1.544h5.616c.426 0 .772.345.772.77z" fill="#fff"/><path d="M19.816 29.076a.772.772 0 01-.772.773h-5.616a.772.772 0 110-1.544h5.616c.426 0 .772.345.772.77z" stroke="#1C63B7" stroke-width="1.333"/><path d="M42.84 29.076a.772.772 0 01-.773.773h-5.615a.772.772 0 010-1.544h5.615a.77.77 0 01.772.77z" fill="#fff"/><path d="M42.84 29.076a.772.772 0 01-.773.773h-5.615a.772.772 0 010-1.544h5.615a.77.77 0 01.772.77z" stroke="#1C63B7" stroke-width="1.333"/><path d="M22.84 17.98c.534-.237 1.398-.326 2.246-.492.426-.084.853-.192 1.246-.369.393-.176.758-.428 1.023-.802.332-.468.502-.892.505-1.301a1.297 1.297 0 00-.341-.88c-.308-.341-.733-.534-1.171-.679a8.104 8.104 0 00-1.032-.244c-.054-.26-.116-.494-.112-.663l.003-.068a.385.385 0 10-.766-.082l-.007.15c.005.417.14.785.17 1.044.022.167.151.3.319.329.51.084 1.108.204 1.537.4.216.097.384.211.484.325a.52.52 0 01.146.368c.001.18-.084.465-.362.854-.166.233-.404.408-.712.547-.462.21-1.071.323-1.691.427-.622.105-1.25.197-1.792.43-1.076.466-1.886 1.445-1.89 2.615 0 .538.178 1.1.557 1.627.144.198.336.337.552.46.38.214.853.374 1.361.525.76.223 1.596.417 2.22.631.31.106.566.218.713.319.074.05.118.094.134.117l.01.016-.017.038a.384.384 0 00.146.524c.185.105.42.04.524-.145a.853.853 0 00.118-.42c0-.271-.15-.493-.317-.639-.297-.258-.696-.415-1.161-.571-.696-.229-1.538-.422-2.255-.64a6.815 6.815 0 01-.933-.34c-.251-.117-.418-.245-.468-.323-.297-.415-.413-.81-.414-1.179-.004-.789.57-1.536 1.427-1.909z" fill="#1C63B7"/><path d="M30.057 19.06c-.216-.132-.448-.188-.697-.248-.37-.085-.778-.156-1.054-.262a.826.826 0 01-.278-.153l-.043-.09c0-.04.017-.133.102-.28.077-.129.177-.19.381-.242.303-.077.754-.042 1.191-.107.218-.035.455-.1.657-.287.204-.185.307-.477.303-.783 0-.185-.03-.385-.087-.612a.386.386 0 00-.469-.278.383.383 0 00-.277.467c.046.184.064.324.063.423a.39.39 0 01-.034.19l-.053.053c-.05.032-.177.068-.353.084-.264.026-.615.013-.976.072a1.73 1.73 0 00-.548.181c-.179.099-.348.25-.464.453-.129.222-.205.442-.206.666a.868.868 0 00.134.468c.152.235.37.362.59.457.33.14.7.21 1.025.281.322.064.611.145.683.199.575.366.797.879.803 1.448a2.331 2.331 0 01-.567 1.483c-.355.41-.829.668-1.364.668a1.67 1.67 0 01-.266-.02.385.385 0 00-.12.76c.13.02.259.03.386.03.793 0 1.477-.388 1.947-.934.472-.55.752-1.263.753-1.987a2.422 2.422 0 00-1.162-2.1zm4.07 3.974c-.355-.516-.85-.686-1.132-.847-.146-.08-.237-.15-.29-.225-.053-.075-.095-.17-.098-.387 0-.12.016-.276.058-.469.04-.2.16-.404.298-.63.13-.225.303-.476.311-.84a1.028 1.028 0 00-.254-.658c-.163-.196-.39-.37-.702-.553a.385.385 0 10-.387.665c.265.154.421.287.494.378.075.095.076.128.08.168.007.06-.061.221-.201.442-.132.22-.313.499-.392.869a3 3 0 00-.075.628c-.002.333.085.623.245.84.243.325.56.452.807.584.256.131.452.25.6.467a.385.385 0 00.638-.432zm4.322-8.131c-.418-.368-.954-.616-1.514-.62-.064 0-.13.014-.195.022.145-.455.228-.915.228-1.373.005-1.329-.664-2.603-2.021-3.486-.737-.483-1.646-.712-2.557-.712a5.04 5.04 0 00-2.183.482 3.73 3.73 0 00-1.23.945 2.166 2.166 0 00-.521-.534 1.949 1.949 0 00-1.128-.35 2.42 2.42 0 00-1.507.554c-.405.335-.709.809-.712 1.358-.001.317.112.644.336.928a.385.385 0 10.605-.475.716.716 0 01-.17-.453c-.005-.244.15-.534.43-.763.277-.23.66-.38 1.018-.379.246.001.476.065.687.211.21.148.409.385.561.772a.385.385 0 00.697.041c.274-.506.719-.895 1.27-1.163a4.27 4.27 0 011.847-.404c.781-.001 1.553.201 2.134.585 1.174.778 1.669 1.77 1.674 2.843 0 .681-.21 1.402-.62 2.11a.385.385 0 00.658.4c.194-.291.413-.381.7-.388.317-.004.708.16 1.002.424.297.263.478.605.48.899v.017c.005.478-.288 1.071-.74 1.523-.446.456-1.034.751-1.511.746l-.13-.007a.385.385 0 10-.082.765c.07.008.14.011.212.011.77-.005 1.5-.413 2.058-.974.556-.563.957-1.297.962-2.064v-.028c-.011-.584-.325-1.093-.738-1.463zm-18.327.402c0-.09.031-.195.108-.312.113-.176.325-.36.566-.489.24-.13.507-.203.697-.201.147 0 .233.037.273.075.04.038.085.096.09.29v.019a.384.384 0 10.768 0v-.019c.004-.343-.114-.66-.343-.863-.229-.203-.517-.272-.788-.272-.482.004-.973.198-1.383.497-.203.151-.386.33-.524.542-.138.21-.234.46-.234.733 0 .107.017.213.047.317a2.712 2.712 0 00-1.111.344 1.764 1.764 0 00-.495.415.997.997 0 00-.232.618.917.917 0 00.195.555c.124.164.294.299.505.417a.385.385 0 10.377-.671.863.863 0 01-.267-.209l-.04-.092c0-.023.01-.069.066-.14.082-.106.263-.239.488-.331.224-.094.49-.152.731-.152.172 0 .332.03.46.084a.385.385 0 00.377-.666c-.282-.213-.327-.363-.331-.49z" fill="#1C63B7"/><path stroke="#3062B7" stroke-width="1.33" d="M13.607 41.184l27.577-27.577m.565 27.375L14.172 13.405"/></svg>