<svg width="58" height="80" fill="none" xmlns="http://www.w3.org/2000/svg"><path d="M28.999 40.554c6.256 0 11.327-5.1 11.327-11.39 0-6.292-5.072-11.392-11.327-11.392-6.256 0-11.327 5.1-11.327 11.391 0 6.29 5.071 11.39 11.327 11.39z" fill="#0065A8"/><path d="M28.93 8.19c-11.52 0-20.856 9.389-20.857 20.973 0 11.583 9.337 20.972 20.856 20.972 11.519 0 20.855-9.39 20.856-20.972 0-11.584-9.337-20.973-20.856-20.974zm13.463 34.512c-3.448 3.467-8.203 5.608-13.464 5.609-5.26 0-10.015-2.142-13.464-5.609a19.138 19.138 0 01-5.577-13.54 19.14 19.14 0 015.577-13.54c3.448-3.466 8.203-5.607 13.464-5.608 5.261 0 10.016 2.142 13.464 5.609a19.139 19.139 0 015.577 13.54 19.14 19.14 0 01-5.577 13.54z" fill="#2C1A0E"/><path d="M29 0C12.983 0 0 13.056 0 29.163c0 16.106 12.983 29.162 29 29.162S58 45.27 58 29.163 45.017 0 29 0zm19.223 48.494C43.301 53.442 36.51 56.5 29 56.5s-14.3-3.059-19.223-8.007a27.325 27.325 0 01-7.963-19.331 27.325 27.325 0 017.963-19.33C14.699 4.883 21.49 1.825 29 1.825s14.3 3.058 19.223 8.007a27.325 27.325 0 017.962 19.33 27.32 27.32 0 01-7.962 19.332z" fill="#2C1A0E"/><path d="M27.922 20.208v8.277h2.016v-8.277" fill="#fff"/><path d="M11.165 56.51l3.27 1.217a11.67 11.67 0 014.271 2.776l2.769 2.829c3.766 5.596 7.15 7.24 7.15 7.24a2.676 2.676 0 011.447 2.257l.2 4.05a1.834 1.834 0 001.512 1.717c3.229.572 6.74.586 10.548.342a49.158 49.158 0 002.133-.174c.096-.035 2.03-.33 2.002-.326l.013-.002a1.51 1.51 0 001.24-1.57l-.185-3.71a5.148 5.148 0 01.739-2.907l.838-1.385a5.376 5.376 0 00.716-3.589l-.825-12.291a5.08 5.08 0 00-3.745-4.163l-.664-.172a5.704 5.704 0 01-1.184-.45l-.963-.495a2.989 2.989 0 00-1.963-.27l-.895.182a3.36 3.36 0 01-1.99-.202l-.72-.307a4.447 4.447 0 00-3.778.134l-1.069.548-.817-17.406c-.065-1.394-.826-2.539-2.21-2.654l-.323.015c-1.31.063-1.953 1.031-2.018 2.61l-.422 15.28-.315 11.591-4.808-2.28a11.973 11.973 0 00-5.671-1.724l-.409-.019a5.084 5.084 0 00-4.217 1.922l-.03.038a.865.865 0 00.373 1.348z" fill="#fff"/><path d="M27.61 29.36l-.032 1.1a1.13 1.13 0 00.444.961.887.887 0 00.405.178c1.201.157 1.849-.348 1.906-1.296l.01-.029-.013-.889c-.035-.745-.4-1.568-1.318-1.656l-.218.01c-.277.014-1.12.054-1.184 1.622zM15.049 57.975s1.926-1.904-3.309-3.746l3.309 3.746z" fill="#fff"/><path d="M50.731 65.214h.003l-.827-12.33-.006-.038a5.99 5.99 0 00-4.416-4.91l-.664-.17a4.801 4.801 0 01-.998-.38l-.963-.495a3.895 3.895 0 00-2.556-.351l-.894.182a2.457 2.457 0 01-1.456-.148l-.72-.307a5.35 5.35 0 00-2.1-.43c-.774 0-1.544.176-2.26.51l-.751-16.007c-.041-.85-.29-1.668-.804-2.328a3.108 3.108 0 00-2.129-1.172c-.03-.005-.06-.016-.09-.02l-.066-.006h-.011l-.382.019c-.017 0-.032.006-.049.007-.021.002-.043.006-.067.01-.391.03-.77.12-1.108.291-.563.281-.992.765-1.25 1.317-.26.556-.38 1.18-.408 1.858v.005l-.423 15.288-.277 10.195-3.529-1.673a12.874 12.874 0 00-6.04-1.822h-.002l-.405-.018a5.99 5.99 0 00-4.968 2.263l-.033.041.002-.003a1.775 1.775 0 00-.086 2.1c.196.295.493.54.853.673l3.27 1.218a10.764 10.764 0 013.94 2.56l2.716 2.775c3.77 5.575 7.198 7.35 7.436 7.466.56.288.924.856.954 1.488v.002l.2 4.05a2.745 2.745 0 002.26 2.57c2.05.363 4.192.506 6.43.506 1.405 0 2.85-.057 4.334-.152.717-.046 1.442-.1 2.17-.177l.111-.012.05-.018.08-.015c.17-.03.461-.077.758-.124v.017l1.074-.184c.012-.002.022-.007.034-.01l.036-.006.015-.007.024-.007a2.415 2.415 0 001.887-2.361l-.003-.12-.185-3.714v.002a4.23 4.23 0 01.607-2.39l.839-1.383a6.29 6.29 0 00.909-3.258 6.32 6.32 0 00-.066-.867zM28.486 30.498v-.008l.032-1.093c.013-.31.063-.5.105-.6.07-.15.077-.117.082-.128a.368.368 0 01.133-.018l.126-.006a.45.45 0 01.162.053.52.52 0 01.19.239c.059.127.1.309.108.488l.011.704-.007.12a.78.78 0 01-.052.256c-.036.076-.052.092-.111.13-.06.034-.19.08-.425.08-.076 0-.167-.007-.263-.018l-.02-.013c-.03-.018-.072-.083-.072-.175v-.011zm-16.94 25.18c.117-.146.245-.281.38-.41 1.137.442 1.81.868 2.16 1.194.1.092.175.175.23.247l-2.77-1.03zM48.337 68.39l-.838 1.384a6.062 6.062 0 00-.87 3.425v.002l.185 3.711v-.003.035a.597.597 0 01-.486.592h-.003a178.17 178.17 0 00-1.678.266l-.24.042-.085.017a51.83 51.83 0 01-2.047.166 66.355 66.355 0 01-4.22.148c-2.16 0-4.198-.138-6.114-.478a.923.923 0 01-.763-.863l-.2-4.05v.002a3.59 3.59 0 00-1.941-3.027l-.01-.005-.006-.003c-.002 0-.046-.023-.138-.074-.65-.371-3.495-2.16-6.657-6.857l-.047-.069-2.826-2.888a12.58 12.58 0 00-3.106-2.307 2.17 2.17 0 00.054-.458 2.294 2.294 0 00-.239-1.006c-.25-.512-.683-.986-1.326-1.432a8.143 8.143 0 00-.774-.461 4.148 4.148 0 011.035-.086l.41.019c1.854.083 3.656.631 5.244 1.594l.04.024 6.105 2.896.353-12.987.373-13.477c.186.131.445.276.788.322.181.024.357.036.53.036.312 0 .615-.04.902-.134.23-.074.45-.191.644-.339l.806 17.177 2.321-1.19a3.543 3.543 0 013.011-.108l.72.308a4.266 4.266 0 002.525.256l.895-.182a2.075 2.075 0 011.37.188l.963.495c.436.224.897.4 1.372.522l.663.171a4.168 4.168 0 013.07 3.397l.823 12.273.006.038a4.464 4.464 0 01-.594 2.977z" fill="#2C1A0E"/></svg>