<svg width="80" height="80" fill="none" xmlns="http://www.w3.org/2000/svg"><path d="M31.223 41.39h-14.86c-2.31 0-4.182-1.89-4.182-4.22V12.59c0-2.33 1.873-4.22 4.183-4.22h14.859v33.02zm35.003-8.922H51.792c-1.674 0-3.032-1.37-3.032-3.06V14.847c0-1.69 1.358-3.06 3.032-3.06h14.434c1.675 0 3.033 1.37 3.033 3.06v14.561c0 1.69-1.358 3.06-3.033 3.06z" fill="#0065A8"/><path d="M59.008 34.283c-2.956 0-5.351 2.416-5.352 5.399 0 2.981 2.396 5.397 5.352 5.398 2.955 0 5.35-2.417 5.35-5.398 0-2.983-2.395-5.399-5.35-5.4zm2.502 7.923a3.509 3.509 0 01-2.502 1.046 3.51 3.51 0 01-2.503-1.046 3.57 3.57 0 01-1.037-2.524c0-.99.395-1.877 1.037-2.526a3.509 3.509 0 012.503-1.045c.98 0 1.859.398 2.502 1.045a3.573 3.573 0 011.037 2.526c0 .988-.395 1.875-1.037 2.524z" fill="#2C1A0E"/><path d="M69.436 51.566h-5.489a4 4 0 01-2.852-1.191 4.068 4.068 0 01-1.076-1.964h9.796c2.413 0 4.367-1.972 4.368-4.406V11.18c0-2.434-1.955-4.406-4.368-4.406H59.84c-.44-2.993-2.988-5.29-6.077-5.291H43.618c-3.398 0-6.15 2.778-6.15 6.205v41.47a6.509 6.509 0 01-1.89 4.6 6.396 6.396 0 01-4.559 1.905h-7.6a6.395 6.395 0 01-4.56-1.905 6.5 6.5 0 01-1.814-3.665h9.995c2.81 0 5.088-2.298 5.089-5.134V5.134C32.129 2.298 29.85 0 27.04 0H5.09C2.279 0 0 2.298 0 5.134v39.825c0 2.836 2.278 5.133 5.089 5.134h10.125c.461 4.162 3.956 7.397 8.204 7.398h7.601c4.562 0 8.26-3.73 8.26-8.332V7.688c0-1.212.484-2.3 1.27-3.095a4.302 4.302 0 013.069-1.282h10.145c1.201 0 2.28.488 3.068 1.282a4.375 4.375 0 011.175 2.18H48.2c-2.413.001-4.367 1.973-4.368 4.407v32.825c0 2.434 1.955 4.406 4.368 4.406h9.978c.437 2.822 2.848 4.983 5.768 4.983h5.489c2.42 0 4.602.987 6.188 2.586a8.837 8.837 0 012.564 6.244 8.838 8.838 0 01-2.564 6.244 8.682 8.682 0 01-6.188 2.586H57.238a5.875 5.875 0 00-1.04-2.393c-1.059-1.469-2.733-2.63-4.778-3.446-2.047-.815-4.478-1.28-7.087-1.28-2.56 0-4.947.448-6.969 1.234-1.846.72-3.39 1.722-4.472 2.97h-2.047a2.209 2.209 0 00-2.199 2.218v3.039c0 1.225.984 2.218 2.199 2.218h1.892c1.058 1.3 2.61 2.343 4.479 3.094C39.269 79.53 41.71 80 44.333 80c3.48-.002 6.64-.823 9-2.21 1.178-.695 2.161-1.536 2.865-2.515a5.874 5.874 0 001.04-2.393h12.198c5.834 0 10.563-4.772 10.564-10.658 0-5.886-4.73-10.657-10.564-10.658zM1.812 5.134c0-.916.365-1.737.96-2.338.596-.6 1.41-.968 2.317-.968h3.618c-.12 1.055-.305 2.92-.482 5.65H1.812V5.134zm0 4.172h6.303c-.213 3.86-.39 9.082-.39 15.789 0 6.453.173 11.559.382 15.4H1.812V9.306zm.96 37.99a3.306 3.306 0 01-.96-2.337v-2.635h6.401c.183 2.873.376 4.844.498 5.941H5.089a3.248 3.248 0 01-2.317-.968zm7.762.97c-.127-1.108-.357-3.395-.565-6.91-.23-3.897-.433-9.295-.433-16.261 0-7.247.209-12.746.443-16.645v-.003c.153-2.532.317-4.389.442-5.609.042-.41.079-.742.11-1.01h16.51c.907 0 1.72.368 2.316.968.595.601.96 1.422.96 2.338v39.825c0 .916-.365 1.737-.96 2.338-.596.6-1.41.968-2.317.968H10.534zm35.86-2.438a2.578 2.578 0 01-.75-1.823V11.18a2.575 2.575 0 01.75-1.823 2.533 2.533 0 011.807-.755h21.614c.709 0 1.342.287 1.807.755a2.58 2.58 0 01.749 1.823v32.825c0 .715-.285 1.354-.749 1.823a2.533 2.533 0 01-1.807.755H48.2a2.532 2.532 0 01-1.807-.755zm8.337 28.375c-.775 1.086-2.165 2.1-3.976 2.817-1.81.721-4.028 1.153-6.422 1.152-2.407 0-4.635-.435-6.449-1.163-1.816-.724-3.204-1.746-3.971-2.84l-.27-.383h-2.798a.39.39 0 01-.387-.39v-3.039a.39.39 0 01.387-.39h2.912l.272-.357c.805-1.06 2.196-2.041 3.987-2.736 1.789-.696 3.968-1.112 6.317-1.111 3.193-.003 6.073.77 8.086 1.96 1.007.593 1.794 1.286 2.312 2.01.52.727.776 1.467.777 2.235-.001.768-.258 1.508-.777 2.235z" fill="#2C1A0E"/></svg>