<svg width="39" height="39" fill="none" xmlns="http://www.w3.org/2000/svg"><circle cx="19.5" cy="19.5" r="19.5" fill="#3B5998"/><g clip-path="url(#clip0)"><path d="M23.652 11.415l-1.995-.003c-2.24 0-3.689 1.506-3.689 3.839v1.77h-2.005a.316.316 0 00-.314.318v2.565c0 .176.14.318.314.318h2.005v6.471c0 .176.14.319.314.319h2.616a.316.316 0 00.314-.319v-6.471h2.345a.316.316 0 00.313-.318l.001-2.565a.321.321 0 00-.092-.225.311.311 0 00-.221-.093h-2.346v-1.5c0-.722.17-1.088 1.096-1.088h1.343a.316.316 0 00.314-.319v-2.381a.316.316 0 00-.313-.318z" fill="#fff"/></g><defs><clipPath id="clip0"><path fill="#fff" transform="translate(12.116 11.412)" d="M0 0h15.38v15.6H0z"/></clipPath></defs></svg>