<svg width="110" height="70" fill="none" xmlns="http://www.w3.org/2000/svg"><path d="M18.674 30.198c.06-.024.115-.055.17-.087.546-.31.8-.98.57-1.588-3.398-8.911.002-19.007 7.907-23.484a18.928 18.928 0 019.31-2.447c8.405 0 15.717 5.435 18.196 13.524.167.543.665.914 1.228.914.564 0 1.062-.37 1.228-.914C59.761 8.027 67.074 2.592 75.48 2.592c2.571 0 5.065.508 7.411 1.508 9.09 3.877 13.472 14.865 9.77 24.494-3.074 7.992-11.909 23.57-36.625 38.587-12.512-7.6-22.32-16.131-29.158-25.364a1.274 1.274 0 00-1.66-.348c-.047.027-.095.051-.14.085a1.303 1.303 0 00-.26 1.814c7.146 9.647 17.4 18.525 30.48 26.389.217.154.482.243.758.243.318 0 .615-.118.843-.317 9.645-5.812 16.97-11.737 22.529-17.312 5.435-5.453 9.176-10.568 11.75-14.922h-.218a1.29 1.29 0 01-1.285-1.296 1.29 1.29 0 011.285-1.296h1.666a50.429 50.429 0 002.43-5.326C99.257 18.61 94.249 6.13 83.893 1.713A21.326 21.326 0 0075.479 0C67.073 0 59.63 4.79 56.055 12.212 52.48 4.79 45.037 0 36.631 0a21.48 21.48 0 00-10.569 2.78C18.677 6.961 14.74 15.42 15.68 23.9c.206 1.866.64 3.731 1.335 5.553a1.282 1.282 0 001.66.745z" fill="#2C1A0E"/><path d="M81.375 7.523c6.232 2.658 9.827 9.411 8.742 16.422a1.294 1.294 0 001.27 1.496 1.29 1.29 0 001.269-1.097c1.268-8.187-2.96-16.086-10.28-19.208a1.282 1.282 0 00-1.684.69 1.3 1.3 0 00.683 1.697zm-4.4-1.133a1.291 1.291 0 001.409-1.16 1.293 1.293 0 00-1.15-1.42 18.05 18.05 0 00-1.828-.093c-2.662 0-5.223.575-7.614 1.71a1.302 1.302 0 00-.616 1.724 1.285 1.285 0 001.71.622 15.23 15.23 0 018.09-1.383z" fill="#2C1A0E"/><path d="M25.91 36.679l2.268-5.145 1.662 5.028c.175.53.666.886 1.22.886h4.585l3.275 7.429a1.281 1.281 0 002.393-.116l2.417-7.313h3.592c.536 0 1.015-.335 1.203-.84l4.106-11.042 3.401 10.973c.168.541.665.91 1.227.91h3.561l2.436 8.185c.163.548.663.923 1.231.923.568 0 1.068-.375 1.23-.923l2.711-9.11a1.298 1.298 0 00-.861-1.613 1.282 1.282 0 00-1.6.869l-1.48 4.972-1.48-4.972a1.286 1.286 0 00-1.23-.923h-3.573L53.968 21.19a1.286 1.286 0 00-1.19-.909 1.309 1.309 0 00-1.24.84l-5.107 13.735h-3.627c-.553 0-1.044.357-1.219.886l-1.663 5.028-2.267-5.145a1.285 1.285 0 00-1.175-.77h-4.494l-2.418-7.312a1.287 1.287 0 00-1.157-.884 1.29 1.29 0 00-1.236.768l-3.275 7.43h-8.268l-3.274-7.43a1.285 1.285 0 00-1.175-.769c-.508 0-.968.302-1.175.77l-3.274 7.429h-5.45c-.71 0-1.285.58-1.285 1.296a1.29 1.29 0 001.285 1.295H7.57c.508 0 .968-.301 1.175-.77l2.439-5.533 2.44 5.534c.206.468.666.77 1.174.77h9.938c.508 0 .968-.302 1.174-.77zm65.047-1.823c-.71 0-1.285.58-1.285 1.296a1.29 1.29 0 001.285 1.296h6.955c.526 0 .998-.322 1.193-.814l2.247-5.664 1.653 5.554c.163.549.663.924 1.231.924h4.478c.71 0 1.286-.58 1.286-1.296 0-.715-.576-1.296-1.286-1.296h-3.521l-2.436-8.185a1.286 1.286 0 00-1.173-.923 1.286 1.286 0 00-1.251.813l-3.291 8.295h-6.085z" fill="#0065A8"/></svg>