<svg width="122" height="62" fill="none" xmlns="http://www.w3.org/2000/svg"><path d="M10.407 27.826c0 6.35 19.371 11.582 44.32 12.294-19.935-1.468-34.365-5.757-34.365-10.82 0-7.864 22.153-12.058 49.482-12.058 9.97 0 19.253.77 27.021 2.054-9.134-2.368-22.029-3.845-36.322-3.845-27.688 0-50.136 5.54-50.136 12.375z" fill="#0065A8"/><path d="M34.692 22.682a9.431 9.431 0 002.015-.063 67.853 67.853 0 00-.845 3.022 98.118 98.118 0 00-.74 3.084 82.456 82.456 0 00-.577 2.825 39.318 39.318 0 00-.356 2.22 8.695 8.695 0 00-.748-.039h-1.318c-.239 0-.443.014-.618.04.131-.404.255-.82.373-1.25a67.678 67.678 0 00.845-3.404c.164-.728.353-1.6.57-2.612.13-.598.24-1.107.326-1.527.086-.418.158-.777.212-1.077.052-.3.093-.55.12-.75.028-.202.05-.378.074-.532.205.024.428.045.667.063zm9.008 5.253a4.748 4.748 0 01-.073.498c-.04.195-.09.436-.155.718-.064.283-.153.648-.26 1.094-.098.403-.182.756-.253 1.06a30.923 30.923 0 00-.332 1.657 32.06 32.06 0 01-.147.808 4.07 4.07 0 00-.552-.038h-1.292c-.2 0-.394.013-.577.038.043-.098.11-.296.203-.596.091-.298.196-.64.31-1.028.112-.385.226-.797.34-1.232.114-.435.22-.85.317-1.24a24.3 24.3 0 00.242-1.054c.068-.31.1-.536.1-.677 0-.305-.085-.534-.254-.685-.165-.153-.395-.228-.69-.228-.389 0-.777.168-1.161.505-.385.338-.69.865-.92 1.583-.085.273-.177.594-.276.964a32.66 32.66 0 00-.544 2.472 34.73 34.73 0 00-.202 1.216 4.18 4.18 0 00-.56-.038H35.8c-.205 0-.4.013-.584.038a66.706 66.706 0 00.845-3.353c.142-.626.284-1.304.431-2.033.146-.73.3-1.534.462-2.416a9.413 9.413 0 001.17.083c.186 0 .364-.009.537-.024.172-.017.341-.036.504-.059l-.113.368a3.932 3.932 0 00-.083.302 8.773 8.773 0 01-.072.31 11.66 11.66 0 00-.09.392c.391-.49.813-.867 1.268-1.134.455-.266 1.008-.4 1.657-.4.684 0 1.185.162 1.505.49.318.325.48.734.48 1.224 0 .14-.008.28-.017.415zm3.328 5.966a3.306 3.306 0 01-.716.074 2.54 2.54 0 01-.764-.114 2.098 2.098 0 01-.635-.327 1.527 1.527 0 01-.438-.545 1.704 1.704 0 01-.162-.758 3.903 3.903 0 01.081-.831c.033-.163.07-.347.114-.555l.162-.749c.12-.554.242-1.102.366-1.645.126-.544.247-1.09.366-1.646-.15 0-.312.003-.48.008-.169.006-.377.014-.625.025a3.8 3.8 0 00.097-.368c.022-.104.048-.269.082-.499a10.08 10.08 0 00.617.025h.473c.041-.238.087-.513.13-.823.041-.31.09-.638.145-.987.272-.098.502-.182.69-.253.19-.07.37-.141.545-.211.174-.071.353-.153.538-.245l.664-.334.132.146c-.088.26-.16.497-.221.71-.06.211-.115.421-.17.627-.053.208-.103.42-.147.636l-.145.734h.6a14.257 14.257 0 00.845-.025 1.871 1.871 0 00-.13.458 6.23 6.23 0 00-.048.41 10.392 10.392 0 00-.797-.04h-.632l-.22.97a141.914 141.914 0 00-.61 2.79c-.087.418-.141.692-.162.823-.056.27-.092.485-.115.643-.02.158-.032.308-.032.449 0 .294.079.5.236.619.157.119.377.18.658.18.173 0 .342-.022.504-.066l-.146.538c-.217.056-.435.106-.65.156z" fill="#0065A8"/><path d="M53.485 26.9c-.142-.261-.412-.393-.813-.393a1.12 1.12 0 00-.706.23 2.016 2.016 0 00-.522.604c-.145.25-.268.535-.364.858-.098.32-.185.644-.26.97a3.87 3.87 0 00.553.04h1.267c.118 0 .253-.003.406-.01.151-.007.314-.017.487-.03.033-.14.069-.331.106-.571.038-.24.056-.5.056-.784 0-.349-.07-.654-.21-.915zm1.215 5.71a9.73 9.73 0 00-.21.68 2.835 2.835 0 01-1.156.483 7.35 7.35 0 01-1.284.112c-.629 0-1.175-.095-1.643-.285a3.048 3.048 0 01-1.147-.79 3.338 3.338 0 01-.664-1.168c-.148-.44-.22-.9-.22-1.379 0-.533.088-1.066.268-1.599.18-.533.448-1.011.803-1.435.36-.424.804-.77 1.334-1.036s1.15-.4 1.853-.4c1.007 0 1.77.27 2.284.809.513.537.77 1.242.77 2.114 0 .206-.012.416-.039.628a25.79 25.79 0 01-.09.63 256.4 256.4 0 00-1.722-.049c-.466-.01-.879-.015-1.237-.015h-1.25c-.184 0-.4.004-.648.012a4.32 4.32 0 00-.05.426 6.349 6.349 0 00-.016.457c0 .656.153 1.181.455 1.574.305.392.799.589 1.48.589.304 0 .641-.068 1.015-.204a2.727 2.727 0 001.032-.693l.245.114a7.04 7.04 0 00-.163.424zm4.017-11.07a10.874 10.874 0 001.301.006c.189-.009.392-.03.61-.06-.13.522-.255 1.016-.374 1.484-.12.469-.24.94-.358 1.411a101.84 101.84 0 00-.732 3.124c-.215 1.056-.43 2.098-.641 3.125a96.736 96.736 0 00-.593 3.14 4.16 4.16 0 00-.577-.038h-1.309c-.196 0-.401.013-.618.039.152-.48.314-1.058.488-1.738.173-.68.346-1.4.52-2.161.172-.761.344-1.542.512-2.342.168-.799.328-1.571.479-2.317a116.453 116.453 0 00.7-3.728c.194.022.392.04.592.055zm3.871 0a10.853 10.853 0 001.3.006c.19-.009.391-.03.609-.06-.13.522-.255 1.016-.374 1.484-.12.469-.24.94-.358 1.411a99.986 99.986 0 00-.732 3.124c-.215 1.056-.43 2.098-.641 3.125-.21 1.028-.41 2.074-.593 3.14a4.16 4.16 0 00-.577-.038h-1.309c-.194 0-.4.013-.618.039.15-.48.315-1.058.489-1.738.173-.68.347-1.4.52-2.161.174-.761.345-1.542.511-2.342.168-.799.328-1.571.479-2.317.153-.745.287-1.44.406-2.088.12-.647.217-1.194.293-1.64.195.022.393.04.595.055zm3.001 3.41a8.625 8.625 0 001.877-.057c-.108.349-.247.851-.414 1.51-.167.657-.487 1.91-.654 2.67a109.9 109.9 0 00-.568 2.806c-.14.75-.243 1.38-.307 1.892a4.22 4.22 0 00-.569-.04H63.63c-.202 0-.389.015-.563.04.163-.544.334-1.18.512-1.91.18-.728.452-1.997.608-2.731.156-.734.45-1.972.574-2.63.123-.658.208-1.194.251-1.606.185.022.377.04.577.057zm.025-2.88a1.215 1.215 0 00-.358.875c0 .339.12.63.358.875.24.246.533.367.88.367.346 0 .64-.12.879-.36.24-.239.358-.532.358-.882 0-.349-.118-.643-.358-.883a1.196 1.196 0 00-.878-.36c-.348 0-.642.123-.881.368zm31.56 0a1.21 1.21 0 00-.357.875c0 .339.118.63.357.875.24.246.532.367.881.367.346 0 .64-.12.879-.36.24-.239.36-.532.36-.882a1.2 1.2 0 00-.36-.883 1.195 1.195 0 00-.879-.36c-.35 0-.642.123-.88.368zM70.545 33.901a3.289 3.289 0 01-.713.074 2.55 2.55 0 01-.767-.114 2.072 2.072 0 01-.632-.327 1.512 1.512 0 01-.44-.545 1.704 1.704 0 01-.162-.758 4.122 4.122 0 01.081-.831l.115-.555a121.636 121.636 0 01.528-2.394c.124-.544.245-1.09.365-1.646-.153 0-.312.003-.48.008a58.74 58.74 0 00-.626.025c.044-.141.076-.265.098-.368a7.97 7.97 0 00.081-.499 10.121 10.121 0 00.62.025h.469c.045-.238.088-.513.131-.823.044-.31.091-.638.146-.987.271-.098.501-.182.69-.253.19-.07.372-.141.545-.211.174-.071.352-.153.537-.245l.665-.334.13.146c-.087.26-.159.497-.218.71-.06.211-.117.421-.17.627-.054.208-.105.42-.146.636a74.15 74.15 0 00-.147.734h.601a15.816 15.816 0 00.845-.025c-.066.153-.11.306-.131.458-.022.153-.038.29-.048.41a10.625 10.625 0 00-.423-.03 7.512 7.512 0 00-.374-.01h-.634c-.042.195-.115.52-.22.97a141.993 141.993 0 00-.609 2.79c-.084.418-.14.692-.162.823-.054.27-.092.485-.113.643a2.97 2.97 0 00-.032.449c0 .294.077.5.236.619.155.119.375.18.657.18.175 0 .341-.022.503-.066l-.145.538a27.52 27.52 0 01-.65.156zm7.184-5.974c-.12-.056-.293-.082-.521-.082-.337 0-.615.062-.837.188-.222.125-.404.28-.544.464-.142.185-.25.384-.326.596a5.74 5.74 0 00-.177.58c-.1.349-.215.84-.341 1.477-.132.637-.294 1.51-.49 2.62a3.642 3.642 0 00-.551-.038h-1.235c-.197 0-.374.013-.536.038a83.763 83.763 0 001-3.989 58.4 58.4 0 00.722-3.81 7.329 7.329 0 002.112 0c-.075.304-.145.609-.21.913l-.197.912c.066-.13.166-.307.301-.53.136-.222.308-.442.512-.658a3.41 3.41 0 01.716-.57c.27-.163.575-.246.91-.246a1.225 1.225 0 01.683.18c-.197.38-.328.719-.398 1.018a5.798 5.798 0 00-.139 1.033l-.147.066a2.668 2.668 0 00-.307-.162zm2.745 4.159c.032.24.094.455.186.645s.223.346.39.465c.17.12.39.18.66.18.315 0 .597-.09.847-.27a2.44 2.44 0 00.65-.71c.186-.293.342-.622.473-.987a9.585 9.585 0 00.554-2.962 5.22 5.22 0 00-.05-.702A2.11 2.11 0 0084 27.1a1.212 1.212 0 00-.392-.465c-.169-.12-.39-.18-.66-.18-.312 0-.597.09-.844.27a2.462 2.462 0 00-.653.71 4.975 4.975 0 00-.471.986 9.482 9.482 0 00-.496 2.139c-.038.33-.058.606-.058.823 0 .23.016.463.049.702zm-1.906-3.394a4.772 4.772 0 01.998-1.51 4.657 4.657 0 013.348-1.377c.585 0 1.097.086 1.533.254a2.97 2.97 0 011.107.717c.298.31.522.68.673 1.108.153.43.229.905.229 1.427 0 .663-.13 1.28-.39 1.85a4.837 4.837 0 01-1.049 1.493c-.438.423-.947.75-1.526.978a4.997 4.997 0 01-1.844.343c-.521 0-.992-.08-1.414-.237a2.989 2.989 0 01-1.09-.693 3.115 3.115 0 01-.697-1.092 3.902 3.902 0 01-.243-1.403c0-.662.12-1.282.365-1.858zm16.18-.757a4.87 4.87 0 01-.073.498c-.038.195-.09.436-.155.718-.064.283-.15.648-.258 1.094-.1.403-.182.756-.255 1.06-.07.305-.13.593-.187.866-.053.272-.102.536-.144.792-.044.255-.093.524-.146.807a4.138 4.138 0 00-.554-.038h-1.292c-.2 0-.394.013-.578.038.046-.098.112-.296.204-.596.093-.298.196-.64.31-1.028.112-.385.228-.797.341-1.232.113-.435.219-.85.317-1.24.096-.392.179-.743.243-1.054a3.75 3.75 0 00.098-.677c0-.305-.085-.534-.252-.685-.167-.153-.4-.228-.69-.228-.391 0-.779.168-1.163.505-.385.338-.69.865-.918 1.583a27.076 27.076 0 00-.56 2.146c-.094.42-.18.849-.26 1.29-.081.442-.15.846-.204 1.216a4.158 4.158 0 00-.56-.038H86.85c-.207 0-.4.013-.586.038a63.24 63.24 0 00.844-3.353c.143-.626.285-1.304.433-2.033.145-.73.298-1.534.461-2.416a9.446 9.446 0 001.17.083c.186 0 .363-.009.539-.024.172-.017.34-.036.502-.059-.042.142-.081.265-.113.368-.032.103-.06.204-.083.302a9.493 9.493 0 01-.072.31c-.026.108-.057.239-.09.392.391-.49.812-.867 1.268-1.134.457-.266 1.008-.4 1.657-.4.686 0 1.185.162 1.504.49.32.325.48.734.48 1.224 0 .14-.005.28-.016.415zm2.399-2.985a8.704 8.704 0 001.879-.057 29.4 29.4 0 00-.415 1.51c-.167.657-.486 1.91-.655 2.67a112.44 112.44 0 00-.566 2.806c-.142.75-.243 1.38-.309 1.892a4.21 4.21 0 00-.567-.04h-1.326a3.92 3.92 0 00-.56.04c.16-.544.332-1.18.511-1.91.18-.728.45-1.997.609-2.731.155-.734.447-1.972.571-2.63.126-.658.21-1.194.253-1.606.183.022.376.04.575.057zm7.993 2.64a1.606 1.606 0 00-.367-.596 1.393 1.393 0 00-.536-.342 1.81 1.81 0 00-.608-.107 1.85 1.85 0 00-.927.229c-.271.151-.508.35-.715.593a3.68 3.68 0 00-.519.822 6.245 6.245 0 00-.349.928 5.675 5.675 0 00-.196.904 5.787 5.787 0 00-.058.739c0 .26.037.527.114.799.077.27.195.511.357.724.164.211.374.385.635.52.259.136.573.203.943.203.401 0 .728-.07.983-.212.254-.14.5-.31.739-.506l.227.18a4.26 4.26 0 00-.374.703 4.396 4.396 0 00-.145.459 17.56 17.56 0 01-.958.246 4.574 4.574 0 01-.993.1 5.082 5.082 0 01-1.519-.222 3.26 3.26 0 01-1.228-.684 3.202 3.202 0 01-.812-1.142c-.196-.45-.291-.963-.291-1.54 0-.523.092-1.055.275-1.599a4.339 4.339 0 01.86-1.475c.392-.44.885-.8 1.48-1.083.595-.283 1.307-.425 2.13-.425.39 0 .744.03 1.065.09.319.06.609.135.869.222.259.088.493.185.698.287.205.104.39.2.553.287-.077.12-.149.237-.221.35-.07.115-.136.238-.203.368-.065.13-.129.276-.194.44l-.229.588h-.373a2.237 2.237 0 00-.113-.849zm5.904-.009a1.512 1.512 0 00-.732-.848c-.202-.108-.463-.163-.787-.163-.424 0-.752.101-.986.302-.232.201-.349.442-.349.726 0 .141.028.266.082.375.053.109.149.217.284.326.134.109.318.225.545.35.228.125.508.276.844.449.433.24.802.522 1.105.849.303.325.455.76.455 1.304 0 .478-.099.891-.292 1.24a2.53 2.53 0 01-.782.855 3.28 3.28 0 01-1.096.481 5.328 5.328 0 01-1.247.147c-.388 0-.76-.04-1.116-.122a4.733 4.733 0 01-1.057-.383c.121-.27.215-.54.284-.808.072-.266.129-.54.173-.823h.307c.034.229.106.432.221.612.113.18.251.329.413.448a1.968 1.968 0 001.141.376c.389 0 .713-.107.966-.319.255-.211.382-.46.382-.741a.878.878 0 00-.382-.75 10.648 10.648 0 00-1.068-.653 12.522 12.522 0 01-.618-.35 2.531 2.531 0 01-.553-.449 1.949 1.949 0 01-.392-.611c-.1-.234-.148-.52-.148-.857 0-.326.065-.652.196-.978.129-.326.325-.62.586-.88.259-.26.584-.473.976-.636.39-.162.845-.244 1.366-.244a4.3 4.3 0 011.279.17c.362.115.67.226.92.334a3.783 3.783 0 00-.334.897 7.18 7.18 0 00-.139.75h-.34a3.868 3.868 0 00-.107-.376zM25.097 46.387a2.494 2.494 0 01-.75.116c-1.04 0-1.503-.73-1.503-1.492 0-.799.436-1.586 1.533-1.586.265 0 .475.035.69.117l-.026.257c-.325-.128-.604-.128-.69-.128-.753 0-1.203.587-1.203 1.345 0 .77.53 1.241 1.177 1.241.27 0 .549-.05.772-.14v.27zm.739-2.123v1.616l-.005.232h.013l.146-.236 1.135-1.612h.3v2.205h-.27v-1.616l.005-.232h-.012l-.147.232-1.136 1.616h-.3v-2.205h.271zm3.743.292a1.44 1.44 0 00-.51-.1c-.51 0-.826.375-.826.912 0 .628.402.907.856.907a1.4 1.4 0 00.484-.09l.025.233c-.18.068-.328.085-.509.085-.715 0-1.139-.465-1.139-1.135 0-.58.355-1.14 1.104-1.14.099 0 .292.01.528.086l-.013.242zm1.741-.292v.228h-.684v1.977h-.27v-1.977h-.686v-.228h1.64zm1.724.954c.004-.176-.027-.76-.596-.76-.446 0-.664.39-.673.76h1.269zm-1.27.228c-.003.271.104.83.73.83.221 0 .437-.03.655-.142v.25c-.223.094-.437.12-.66.12-.626 0-1.007-.417-1.007-1.174 0-.692.4-1.1.956-1.1.818 0 .878.747.878 1.13v.087h-1.551zm3.15.447l.087.297h.016l.124-.297.712-1.63h.337v2.206h-.27v-1.568l.022-.357h-.012l-.12.357-.685 1.568h-.232l-.668-1.568-.132-.357h-.014l.021.357v1.568h-.27v-2.205h.382l.702 1.63zm2.966-.541c-.403 0-.874.068-.874.512 0 .236.183.413.433.413.42 0 .685-.285.685-.766v-.16h-.245zm-.917-.984c.183-.082.398-.139.655-.139.71 0 .776.522.776.822v.936l.012.482h-.24v-.374h-.008c-.185.34-.48.409-.716.409-.476 0-.72-.284-.72-.624 0-.722.814-.756 1.26-.756h.142v-.077c0-.155-.005-.59-.506-.59a1.35 1.35 0 00-.655.169v-.258zm3.395-.104v1.616l-.005.232h.014l.145-.236 1.135-1.612h.3v2.205h-.269v-1.616l.003-.232h-.012l-.146.232-1.135 1.616h-.3v-2.205h.27zm2.544 0v.946h1.191v-.946h.27v2.205h-.27v-1.031h-1.19v1.031h-.271v-2.205h.27zm3.487 0v.228h-.686v1.977h-.27v-1.977h-.685v-.228h1.64zm1.717.954c.005-.176-.025-.76-.594-.76-.447 0-.665.39-.673.76h1.267zm-1.267.228c-.005.271.102.83.728.83.223 0 .437-.03.655-.142v.25c-.222.094-.437.12-.66.12-.625 0-1.006-.417-1.006-1.174 0-.692.398-1.1.956-1.1.817 0 .878.747.878 1.13v.087h-1.551zm3.636-1.182v2.205h-.27v-1.977h-.908v.408c0 1.079-.004 1.604-.552 1.604a.732.732 0 01-.21-.026v-.22a.528.528 0 00.145.022c.33 0 .347-.193.347-1.41v-.606h1.448zm2.312 0v2.205h-.27v-1.977h-.907v.408c0 1.079-.005 1.604-.554 1.604a.722.722 0 01-.209-.026v-.22a.523.523 0 00.146.022c.33 0 .347-.193.347-1.41v-.606h1.447zm2.065.954c.004-.176-.026-.76-.594-.76-.447 0-.666.39-.674.76h1.268zm-1.268.228c-.005.271.103.83.729.83.222 0 .437-.03.654-.142v.25c-.222.094-.437.12-.66.12-.624 0-1.007-.417-1.007-1.174 0-.692.4-1.1.958-1.1.817 0 .877.747.877 1.13v.087h-1.551zm2.334-1.182v.971h.013l1.006-.971h.347l-1.079 1.027 1.194 1.178h-.381l-1.087-1.091h-.013v1.091h-.27v-2.205h.27zm3.077 0v.228h-.685v1.977h-.271v-1.977h-.685v-.228h1.641zm.268 2.872c.056.013.154.039.188.039.189 0 .28-.117.353-.345l.093-.288-.793-2.278h.288l.578 1.681.07.22h.003l.068-.216.557-1.685h.279l-.938 2.704c-.09.254-.227.447-.531.447-.077 0-.176-.021-.24-.038l.026-.241zm3-1.784c-.402 0-.873.068-.873.512 0 .236.183.413.431.413.42 0 .687-.285.687-.766v-.16h-.245zm-.917-.984a1.57 1.57 0 01.656-.139c.71 0 .776.522.776.822v.936l.012.482h-.24v-.374h-.008c-.186.34-.48.409-.716.409-.476 0-.72-.284-.72-.624 0-.722.814-.756 1.26-.756h.142v-.077c0-.155-.006-.59-.506-.59-.216 0-.446.052-.656.169v-.258zm3.754-.104v2.205h-.27v-1.977h-.907v.408c0 1.079-.005 1.604-.553 1.604a.724.724 0 01-.21-.026v-.22a.53.53 0 00.146.022c.329 0 .347-.193.347-1.41v-.606h1.447zm.957 1.977h.548c.12 0 .531-.003.531-.441 0-.43-.408-.44-.531-.44h-.548v.881zm0-1.977v.869h.57c.157 0 .792.013.792.667 0 .657-.638.67-.793.67h-.84v-2.206h.27zm2.118 0v.946h1.19v-.946h.27v2.205h-.27v-1.031h-1.19v1.031h-.27v-2.205h.27zm3.013 2.012c.514 0 .731-.48.731-.907 0-.43-.217-.911-.731-.911-.515 0-.734.48-.734.911 0 .426.22.907.734.907zm0-2.047c.612 0 1.015.451 1.015 1.14 0 .684-.408 1.135-1.015 1.135-.61 0-1.015-.451-1.015-1.135 0-.689.402-1.14 1.015-1.14zm2.892.035v.228h-1.074v1.977h-.27v-2.205h1.345zm1.044 2.012c.515 0 .734-.48.734-.907 0-.43-.22-.911-.734-.911s-.731.48-.731.911c0 .426.217.907.731.907zm0-2.047c.613 0 1.016.451 1.016 1.14 0 .684-.407 1.135-1.016 1.135-.607 0-1.014-.451-1.014-1.135 0-.689.402-1.14 1.014-1.14zm2.49 2.907c.055.013.154.039.188.039.189 0 .279-.117.352-.345l.094-.288-.793-2.278h.288l.578 1.681.069.22h.004l.068-.216.556-1.685h.28l-.938 2.704c-.09.254-.227.447-.532.447-.077 0-.175-.021-.24-.038l.026-.241zm3.844-2.872v2.205h-.27v-1.977h-1.147v1.977h-.27v-2.205h1.687zm1.635 2.012c.257 0 .664-.211.664-.911 0-.692-.407-.907-.663-.907-.257 0-.665.215-.665.907 0 .7.408.911.665.911zm-.934 1.136V44.69l-.017-.426h.257v.455h.013c.073-.201.252-.49.681-.49.608 0 .946.44.946 1.136 0 .808-.458 1.139-.946 1.139-.295 0-.526-.176-.66-.43h-.012l.008.21v1.128h-.27zm3.373-2.06c-.403 0-.874.068-.874.512 0 .236.184.413.432.413.42 0 .686-.285.686-.766v-.16h-.244zm-.916-.984a1.57 1.57 0 01.654-.139c.712 0 .776.522.776.822v.936l.013.482h-.24v-.374h-.008c-.186.34-.48.409-.717.409-.475 0-.72-.284-.72-.624 0-.722.815-.756 1.26-.756h.142v-.077c0-.155-.004-.59-.506-.59-.215 0-.445.052-.654.169v-.258zm2.396 1.873h.626c.342 0 .478-.193.478-.386 0-.22-.14-.417-.522-.417h-.582v.803zm0-1.03h.582c.044 0 .43 0 .43-.34 0-.151-.078-.38-.43-.38h-.582v.72zm.599-.947c.463 0 .682.262.682.584 0 .22-.111.363-.304.452v.008c.243.052.41.28.41.547 0 .61-.645.614-.741.614h-.917v-2.205h.87zm2.994 0v2.205h-.269v-1.977h-.907v.408c0 1.079-.005 1.604-.553 1.604a.723.723 0 01-.21-.026v-.22a.526.526 0 00.146.022c.329 0 .347-.193.347-1.41v-.606h1.446zm2.065.954c.003-.176-.026-.76-.596-.76-.446 0-.664.39-.672.76h1.267zm-1.268.228c-.005.271.102.83.727.83.223 0 .438-.03.656-.142v.25c-.223.094-.438.12-.66.12-.625 0-1.006-.417-1.006-1.174 0-.692.397-1.1.955-1.1.817 0 .878.747.878 1.13v.087h-1.55zm2.334-1.182v.946h1.191v-.946h.27v2.205h-.27v-1.031h-1.191v1.031h-.27v-2.205h.27zm2.415 0v1.616l-.005.232h.013l.145-.236 1.137-1.612h.299v2.205h-.27v-1.616l.004-.232h-.011l-.147.232-1.136 1.616h-.3v-2.205h.271zm2.928.228c-.33 0-.459.219-.459.416 0 .203.128.422.459.422h.523v-.838h-.523zm.791 1.977h-.268v-.911h-.537l-.466.911h-.326l.515-.967a.577.577 0 01-.45-.594c0-.314.213-.644.68-.644h.852v2.205z" fill="#0065A8"/><rect x="1.35" y="1.35" width="119.3" height="59.3" rx="8.65" stroke="#000" stroke-width="2.7"/></svg>