<svg width="80" height="80" fill="none" xmlns="http://www.w3.org/2000/svg"><path d="M35.111 56.237h-8.053v5.97h8.053v-5.97z" fill="#0265A9"/><path d="M37.399 60.602H24.77v5.104h.497v4.734l1.226 4.32h9.282l1.214-4.297v-4.757h.41v-5.104zm-1.794 1.815v1.474h-9.041v-1.474h9.041zm-.41 7.792l-.772 2.736h-6.58l-.782-2.76v-4.48h8.134v4.504z" fill="#2C1A0E"/><path d="M24.418 38.036c1.578 0 2.857-1.963 2.857-4.385 0-2.421-1.28-4.384-2.857-4.384-1.579 0-2.858 1.963-2.858 4.384 0 2.422 1.28 4.385 2.858 4.385z" fill="#0065A8"/><path d="M36.381 45.62c.04-.399.112-.71.3-1.218.186-.506.493-1.188.965-2.212a6.174 6.174 0 00.596-2.613c0-1.045-.278-2.001-.655-2.872-.379-.872-.859-1.67-1.308-2.43-.203-.34-.484-.712-.841-1.148-1.243-1.512-3.413-3.754-5.494-5.873-1.038-1.058-2.052-2.082-2.905-2.955-.851-.87-1.548-1.598-1.929-2.034-.854-.971-1.837-2.543-2.58-3.848a53.492 53.492 0 01-1.17-2.172l-.09-.178-.343-.693-.73.233c-.11.034-.57.208-1.195.756-.939.822-2.235 2.47-3.37 5.712-1.135 3.242-2.12 8.086-2.439 15.367a103.941 103.941 0 00-.104 4.547c.002 7.593.962 11.845 1.99 14.276.514 1.214 1.05 1.972 1.496 2.441.444.47.8.644.916.69l.647.258.408-.57.013-.018a32.19 32.19 0 013.37-3.85c1.071-1.035 2.448-2.614 3.575-3.95l.4-.476v2.488l-1.173 4.69h12.672l-.234-1.099-.82-3.845V47.39h-.002v-.775c0-.416.008-.73.034-.996zm-1.826 3.604v3.26h-6.858v-3.278h3.392l3.466.018zM27.5 54.3h7.287l.395 1.854h-8.146l.463-1.854zm3.6-6.91l-4.726-.025-.271.339-.15.186c-.34.421-1.223 1.508-2.24 2.7-1.015 1.19-2.171 2.49-3.023 3.312a34.269 34.269 0 00-3.004 3.337c-.457-.564-1.158-1.753-1.743-4.105-.591-2.371-1.062-5.917-1.062-11.146 0-1.37.033-2.856.103-4.467.416-9.537 2-14.663 3.402-17.337.676-1.293 1.304-2.012 1.742-2.407.222.421.51.953.848 1.546.777 1.359 1.779 2.984 2.79 4.144.497.567 1.344 1.442 2.374 2.493 1.544 1.573 3.487 3.526 5.157 5.279.835.875 1.6 1.701 2.209 2.398.606.69 1.063 1.276 1.234 1.57.452.762.89 1.501 1.203 2.226.315.726.504 1.427.504 2.143-.001.576-.117 1.171-.427 1.845-.632 1.374-.993 2.17-1.213 2.921a5.888 5.888 0 00-.212 1.098 12.11 12.11 0 00-.042 1.175v.775H31.1z" fill="#2C1A0E"/><path d="M72.35 10.325H56.297V8.642C56.297 3.868 52.475 0 47.758 0H32.242c-4.717 0-8.539 3.868-8.54 8.642v1.683H7.65C3.425 10.325 0 13.79 0 18.067v54.19C0 76.534 3.425 80 7.65 80h64.7c4.225 0 7.65-3.466 7.65-7.743v-54.19c0-4.276-3.425-7.742-7.65-7.742zM25.496 8.642c0-1.888.754-3.59 1.976-4.828a6.68 6.68 0 014.77-1.999h15.516a6.68 6.68 0 014.77 2 6.843 6.843 0 011.976 4.827v1.644H25.496V8.642zm52.71 63.615a5.94 5.94 0 01-1.715 4.192 5.8 5.8 0 01-4.141 1.736H7.65a5.8 5.8 0 01-4.141-1.736 5.94 5.94 0 01-1.716-4.192v-54.19a5.94 5.94 0 011.716-4.191A5.8 5.8 0 017.65 12.14h64.7a5.8 5.8 0 014.141 1.736 5.94 5.94 0 011.716 4.191v54.19z" fill="#2C1A0E"/><path d="M64.29 53.707h-6.215v4.606h6.214v-4.606z" fill="#0265A9"/><path d="M66.258 56.867H56.106v4.352h.383v3.475l.995 3.511h7.472l.986-3.493v-3.493h.317v-4.352zm-1.793 1.815v.722H57.9v-.722h6.566zm-.316 5.775l-.546 1.933h-4.767l-.554-1.95v-3.22h5.867v3.237z" fill="#2C1A0E"/><path d="M58.245 36.28c0 1.869-.988 3.383-2.206 3.383s-2.205-1.514-2.205-3.382c0-1.869.987-3.383 2.205-3.383s2.206 1.514 2.206 3.383z" fill="#0065A8"/><path d="M65.472 45.536c.03-.29.08-.506.22-.888.14-.378.375-.903.74-1.692a4.99 4.99 0 00.478-2.103c0-.844-.224-1.611-.523-2.3-.3-.69-.674-1.312-1.021-1.898a7.827 7.827 0 00-.667-.911c-.97-1.18-2.644-2.908-4.25-4.546-.802-.816-1.584-1.606-2.242-2.279a46.674 46.674 0 01-1.48-1.56c-.641-.729-1.398-1.935-1.967-2.936a40.931 40.931 0 01-.899-1.666l-.068-.136-.342-.693-.73.233c-.11.034-.492.183-.994.624-.757.663-1.775 1.969-2.66 4.495-.884 2.528-1.645 6.284-1.892 11.916a80.46 80.46 0 00-.081 3.518c.002 5.876.743 9.181 1.551 11.096.405.955.831 1.563 1.195 1.945.362.383.662.535.78.581l.646.259.408-.57.01-.013a24.67 24.67 0 012.576-2.943c.822-.794 1.858-1.981 2.72-3.001v1.33l-.962 3.851H66.31l-.234-1.099-.628-2.946v-4.53h-.002v-.39c0-.319.006-.554.025-.748zm-1.816 2.966v2.101h-4.882V48.49h2.403l2.479.013zm-5.08 3.916h5.297l.217 1.016h-5.77l.254-1.015zm2.614-5.744l-3.739-.02-.27.34-.115.142c-.262.324-.942 1.161-1.725 2.078-.78.916-1.672 1.918-2.319 2.542-.921.89-1.673 1.77-2.168 2.386-.215-.31-.476-.782-.746-1.521-.615-1.69-1.222-4.712-1.22-9.907 0-1.054.024-2.198.078-3.437.32-7.339 1.54-11.266 2.6-13.289.42-.8.81-1.301 1.112-1.615.15.28.328.605.529.957.603 1.055 1.378 2.315 2.177 3.232.39.445 1.043 1.12 1.84 1.931 1.191 1.215 2.69 2.721 3.976 4.07.643.675 1.232 1.31 1.698 1.845.464.528.813.978.93 1.18.35.589.682 1.152.917 1.695.236.544.371 1.055.371 1.57 0 .414-.083.841-.31 1.335-.487 1.061-.77 1.68-.947 2.283-.088.3-.143.592-.171.886a9.465 9.465 0 00-.034.927v.39H61.19z" fill="#2C1A0E"/></svg>