<svg id="Layer_3" height="512" viewBox="0 0 64 64" width="512" xmlns="http://www.w3.org/2000/svg"><path d="M62 5h-3V2a1 1 0 00-1-1H6a1 1 0 00-1 1v3H2a1 1 0 00-1 1v56a1 1 0 001 1h60a1 1 0 001-1V6a1 1 0 00-1-1zM33 50v-4h2v-2h-2v-4h2v-2h-2v-4h2v-2h-2v-4h2v-2h-2v-4h2v-2h-2v-4h2v-2h-2v-4h2V8h-2V3h24v54H33v-5h2v-2zM7 3h24v5h-2v2h2v4h-2v2h2v4h-2v2h2v4h-2v2h2v4h-2v2h2v4h-2v2h2v4h-2v2h2v4h-2v2h2v5H7zm54 58H3V7h2v51a1 1 0 001 1h52a1 1 0 001-1V7h2z"/><path d="M15 23h-1v-6.178c1.72-.559 3-2.5 3-4.822 0-2.757-1.794-5-4-5s-4 2.243-4 5c0 2.323 1.28 4.263 3 4.822V23h-1a1 1 0 00-1 1v4c0 1.654 1.346 3 3 3s3-1.346 3-3v-4a1 1 0 00-1-1zm-4-11c0-1.626.916-3 2-3s2 1.374 2 3-.916 3-2 3-2-1.374-2-3zm3 16c0 .551-.449 1-1 1s-1-.449-1-1v-3h2zm11-15c0 .737-.405 1.375-1 1.722V7h-2v7.722c-.595-.347-1-.985-1-1.722V7h-2v6c0 1.858 1.28 3.411 3 3.858V23h-1a1 1 0 00-1 1v4c0 1.654 1.346 3 3 3s3-1.346 3-3v-4a1 1 0 00-1-1h-1v-6.142c1.72-.447 3-2 3-3.858V7h-2zm-1 15c0 .551-.449 1-1 1s-1-.449-1-1v-3h2zm-12 5c-1.654 0-3 1.346-3 3s1.346 3 3 3 3-1.346 3-3-1.346-3-3-3zm0 4c-.551 0-1-.449-1-1s.449-1 1-1 1 .449 1 1-.449 1-1 1zm5-2h10v2H17zm-5 6c-1.654 0-3 1.346-3 3s1.346 3 3 3 3-1.346 3-3-1.346-3-3-3zm0 4c-.551 0-1-.449-1-1s.449-1 1-1 1 .449 1 1-.449 1-1 1zm5-2h10v2H17zm-5 6c-1.654 0-3 1.346-3 3s1.346 3 3 3 3-1.346 3-3-1.346-3-3-3zm0 4c-.551 0-1-.449-1-1s.449-1 1-1 1 .449 1 1-.449 1-1 1zm5-2h10v2H17zm23-14c1.654 0 3-1.346 3-3s-1.346-3-3-3-3 1.346-3 3 1.346 3 3 3zm0-4c.551 0 1 .449 1 1s-.449 1-1 1-1-.449-1-1 .449-1 1-1zm5 0h10v2H45zm-5 12c1.654 0 3-1.346 3-3s-1.346-3-3-3-3 1.346-3 3 1.346 3 3 3zm0-4c.551 0 1 .449 1 1s-.449 1-1 1-1-.449-1-1 .449-1 1-1zm5 0h10v2H45zm-5 12c1.654 0 3-1.346 3-3s-1.346-3-3-3-3 1.346-3 3 1.346 3 3 3zm0-4c.551 0 1 .449 1 1s-.449 1-1 1-1-.449-1-1 .449-1 1-1zm5 0h10v2H45zm-5-36c1.654 0 3-1.346 3-3s-1.346-3-3-3-3 1.346-3 3 1.346 3 3 3zm0-4c.551 0 1 .449 1 1s-.449 1-1 1-1-.449-1-1 .449-1 1-1zm5 0h10v2H45zm-5 12c1.654 0 3-1.346 3-3s-1.346-3-3-3-3 1.346-3 3 1.346 3 3 3zm0-4c.551 0 1 .449 1 1s-.449 1-1 1-1-.449-1-1 .449-1 1-1zm5 0h10v2H45zm-5 12c1.654 0 3-1.346 3-3s-1.346-3-3-3-3 1.346-3 3 1.346 3 3 3zm0-4c.551 0 1 .449 1 1s-.449 1-1 1-1-.449-1-1 .449-1 1-1zm5 0h10v2H45z"/></svg>