<svg width="80" height="80" fill="none" xmlns="http://www.w3.org/2000/svg"><path d="M66.879 62.512c-.048-3.985-.429-9.34-1.324-14.682-.9-5.343-2.298-10.663-4.459-14.617-1.152-2.1-3.013-3.651-5.096-4.81-3.132-1.736-6.805-2.626-9.71-3.105-2.905-.476-5.042-.53-5.071-.53h-2.681c-.04.002-3.823.095-8.184 1.162-2.181.536-4.51 1.314-6.597 2.473-2.084 1.159-3.944 2.71-5.097 4.81-2.16 3.954-3.56 9.274-4.458 14.617-.896 5.342-1.276 10.697-1.324 14.682-.015 1.2-.031 2.38-.031 3.52.004 3.17.117 6.04.827 8.344.358 1.15.876 2.172 1.65 2.978.772.808 1.807 1.364 3.037 1.579 1.309.233 3.019.41 4.87.552 5.542.424 12.319.511 12.329.512h8.073c.005 0 3.162-.04 6.953-.19 1.895-.076 3.95-.18 5.851-.321 1.903-.142 3.648-.32 4.96-.553 1.23-.215 2.264-.772 3.035-1.579 1.162-1.215 1.746-2.888 2.079-4.808.329-1.926.398-4.137.399-6.513 0-1.142-.017-2.32-.031-3.521zm-2.555 11.327c-.3.97-.707 1.722-1.222 2.255-.518.532-1.14.88-2.031 1.043-1.194.213-2.903.39-4.772.53-2.805.208-5.983.335-8.454.41a337.762 337.762 0 01-4.23.095h-8.037a262.532 262.532 0 01-7.995-.25c-3.266-.155-6.797-.409-8.896-.785-.893-.163-1.514-.511-2.032-1.043-.773-.793-1.3-2.109-1.596-3.853-.299-1.74-.374-3.87-.373-6.209 0-1.123.017-2.295.031-3.498.046-3.89.422-9.176 1.3-14.405.872-5.227 2.262-10.407 4.26-14.045.927-1.697 2.493-3.041 4.379-4.089 2.823-1.573 6.328-2.443 9.11-2.896a43.284 43.284 0 013.465-.426 33.533 33.533 0 011.27-.079l.075-.002h2.632c.399.013 4.103.166 8.143 1.208 2.02.519 4.12 1.261 5.925 2.294 1.808 1.033 3.305 2.346 4.204 3.99 1.997 3.638 3.387 8.818 4.26 14.045.878 5.229 1.253 10.514 1.3 14.404.014 1.204.03 2.376.03 3.5.004 3.117-.138 5.87-.745 7.806z" fill="#2C1A0E"/><path d="M52.442 32.196c-.388-.679-1.006-1.206-1.767-1.662-1.145-.68-2.65-1.202-4.415-1.571-1.764-.367-3.786-.574-5.94-.574-3.283.002-6.256.476-8.486 1.28-1.116.407-2.05.891-2.761 1.497a3.904 3.904 0 00-.875 1.03 2.61 2.61 0 00-.352 1.289c-.001.46.132.903.352 1.29.388.678 1.006 1.205 1.767 1.661 1.145.68 2.65 1.202 4.415 1.57 1.764.368 3.786.574 5.94.575 3.283-.002 6.255-.476 8.486-1.28 1.116-.407 2.05-.892 2.761-1.497a3.9 3.9 0 00.875-1.03c.22-.386.353-.83.352-1.29a2.609 2.609 0 00-.352-1.288zm-1.605 1.686c-.15.275-.519.642-1.109.99-.881.528-2.224 1.014-3.846 1.35-1.623.337-3.528.534-5.562.534-3.099.002-5.903-.46-7.855-1.17-.975-.35-1.732-.768-2.19-1.163a2.102 2.102 0 01-.473-.541.794.794 0 01-.117-.397.794.794 0 01.117-.397c.15-.275.52-.642 1.11-.99.881-.528 2.223-1.014 3.845-1.35 1.623-.338 3.529-.535 5.563-.534 3.098-.002 5.903.46 7.855 1.17.975.35 1.732.768 2.19 1.163.23.197.385.384.473.54a.794.794 0 01.117.398.794.794 0 01-.117.397zM25.521 4.236a14.289 14.289 0 011.54 3.912c.384 1.66.43 3.472-.335 5.04-.515 1.055-1.252 1.896-1.589 3.048-.853 2.921-.054 6.271 1.358 8.906.556 1.037 2.145.116 1.589-.921-.76-1.418-1.31-3.123-1.423-4.725-.212-3.045 1.909-4.843 2.392-7.642.497-2.879-.498-6.046-1.944-8.539-.59-1.018-2.18-.1-1.588.92zm6.674-1.656a14.297 14.297 0 011.54 3.912c.384 1.66.43 3.473-.335 5.04-.516 1.055-1.252 1.896-1.589 3.049-.854 2.92-.054 6.27 1.359 8.905.555 1.037 2.144.117 1.588-.92-.76-1.419-1.311-3.123-1.423-4.726-.213-3.044 1.909-4.843 2.391-7.642.497-2.879-.497-6.046-1.943-8.539-.59-1.017-2.18-.1-1.588.921zm6.157-1.204a14.297 14.297 0 011.54 3.912c.384 1.66.43 3.472-.335 5.04-.516 1.055-1.252 1.896-1.589 3.048-.853 2.921-.054 6.272 1.359 8.906.555 1.037 2.144.116 1.588-.921-.76-1.418-1.31-3.123-1.422-4.725-.213-3.045 1.908-4.843 2.39-7.642.498-2.88-.497-6.046-1.943-8.54-.59-1.017-2.18-.099-1.588.922zm6.542 1.204a14.32 14.32 0 011.54 3.912c.383 1.66.43 3.473-.336 5.04-.515 1.055-1.252 1.896-1.589 3.049-.853 2.92-.054 6.27 1.359 8.905.556 1.037 2.144.117 1.588-.92-.76-1.419-1.311-3.123-1.423-4.726-.213-3.044 1.909-4.843 2.392-7.642.497-2.879-.498-6.046-1.943-8.539-.59-1.017-2.18-.1-1.588.921zm6.41 1.656a14.292 14.292 0 011.54 3.912c.384 1.66.43 3.472-.335 5.04-.515 1.055-1.252 1.896-1.589 3.048-.853 2.921-.053 6.271 1.359 8.906.555 1.037 2.144.116 1.588-.921-.76-1.418-1.31-3.123-1.422-4.725-.213-3.045 1.908-4.843 2.39-7.642.498-2.879-.497-6.046-1.943-8.539-.59-1.018-2.18-.1-1.588.92z" fill="#2C1A0E"/><path fill-rule="evenodd" clip-rule="evenodd" d="M34.91 55.006v.876h.348l-2.997 2.75h-.638v.945h3.342v-.944h-.524l.168-.135h1.865v.135h-.53v.943h3.317v-.943h-.585v-1.815l2.68 1.815h-.397v.943h5.029l.272-.08.259-.081.23-.108.218-.135.218-.162.203-.175.163-.216.136-.215.109-.27.082-.27.04-.27.028-.282-.028-.31-.04-.297-.082-.27-.108-.242-.137-.23-.081-.107-.082-.094-.095-.095-.108-.095-.218-.161-.218-.135-.23-.108-.273-.094-.258-.068H40.96v.876h.57v.899l-2.637-1.761-.013-.014h-3.969zm8.822.877h1.4l.122.04.096.04.19.149.095.108.082.107.054.135.054.148.082.31.027.365-.014.175-.054.35-.04.136-.055.134-.136.243-.095.094-.19.148-.096.041-.095.027h-1.427v-2.75zm-7.258.897v.828h-.916l.916-.828z" fill="#0065A8"/><path d="M60.978 46.804c-1.69.99-5.475.722-7.57.672-1.184-.028-1.183 1.796 0 1.825 2.22.053 4.48.05 6.67-.361.604-.114 1.289-.245 1.829-.56 1.018-.597.094-2.175-.929-1.576zm.719 3.707c-1.69.99-5.475.723-7.569.673-1.184-.03-1.183 1.795 0 1.824 2.219.053 4.48.05 6.67-.36.604-.114 1.289-.246 1.828-.561 1.019-.597.094-2.175-.928-1.576zm.457 3.749c-1.69.99-5.476.722-7.57.672-1.184-.029-1.184 1.795 0 1.824 2.22.053 4.48.05 6.67-.361.605-.114 1.29-.244 1.829-.56 1.018-.597.093-2.175-.929-1.576zm.237 3.807c-1.69.99-5.475.722-7.57.672-1.183-.028-1.183 1.796 0 1.825 2.22.053 4.48.05 6.67-.361.605-.114 1.29-.245 1.829-.56 1.019-.597.094-2.175-.929-1.576zm.227 3.807c-1.691.99-5.476.722-7.57.672-1.184-.029-1.184 1.796 0 1.824 2.22.053 4.479.05 6.67-.36.604-.114 1.289-.245 1.828-.561 1.019-.597.095-2.174-.928-1.575zm0 3.849c-1.691.99-5.476.722-7.57.672-1.184-.029-1.184 1.796 0 1.824 2.22.053 4.479.05 6.67-.36.604-.114 1.289-.245 1.828-.561 1.019-.597.095-2.174-.928-1.575zM18.244 48.368c.54.315 1.226.447 1.83.56 2.189.412 4.449.414 6.668.361 1.182-.028 1.187-1.853 0-1.824-2.105.05-5.877.318-7.57-.673-1.02-.598-1.948.979-.928 1.576zm-.719 3.707c.54.316 1.226.447 1.83.56 2.19.412 4.45.415 6.668.361 1.183-.028 1.187-1.852 0-1.824-2.105.05-5.876.319-7.569-.672-1.022-.599-1.948.978-.929 1.575zm-.457 3.749c.54.315 1.226.447 1.83.56 2.19.411 4.45.414 6.669.36 1.182-.027 1.186-1.852 0-1.823-2.106.05-5.878.318-7.57-.673-1.022-.598-1.948.979-.929 1.576zm-.236 3.806c.539.316 1.226.447 1.83.56 2.189.412 4.45.415 6.669.361 1.181-.028 1.185-1.852 0-1.824-2.106.05-5.878.32-7.57-.672-1.022-.598-1.948.978-.93 1.575zm-.225 3.808c.538.315 1.225.447 1.829.56 2.19.411 4.45.414 6.669.36 1.181-.028 1.186-1.852 0-1.824-2.105.051-5.878.32-7.57-.672-1.022-.598-1.948.978-.928 1.575zm0 3.848c.538.316 1.225.448 1.829.56 2.19.412 4.45.415 6.669.362 1.181-.029 1.186-1.853 0-1.825-2.105.05-5.878.319-7.57-.672-1.022-.598-1.948.978-.928 1.575z" fill="#2C1A0E"/><path d="M79.731 78.44L11.287 9.99 1.57.27C.735-.563-.566.727.269 1.56c22.814 22.818 45.63 45.634 68.444 68.451l9.717 9.719c.835.834 2.136-.455 1.301-1.29z" fill="#2C1A0E"/><path d="M78.43.27L9.986 68.721.27 78.439c-.835.835.465 2.126 1.3 1.29l68.444-68.45 9.718-9.718c.834-.835-.466-2.126-1.3-1.29z" fill="#2C1A0E"/></svg>