<svg width="1170" height="51" fill="none" xmlns="http://www.w3.org/2000/svg"><path d="M6.432 8.66h1.824v33.984H6.432V18.439L1.824 42.644H0V8.66h1.824v24.227L6.432 8.66zm6.374 0l3.029 26.048L18.856 8.66h2.358v33.984h-1.817V31.44l.18-14.985-3.1 26.189H15.17l-3.093-26.165.18 14.961v11.204H10.44V8.66h2.365zm16.708 18.812H25.2V37.93h5.04v4.715h-6.864V8.66h6.814v4.761H25.2v9.383h4.313v4.668zm14.118-.933c0 3.33-.178 6.255-.533 8.776-.356 2.505-.866 4.435-1.53 5.788-.658 1.339-1.417 2.008-2.278 2.008-.802 0-1.521-.591-2.156-1.774-.634-1.183-1.141-2.879-1.521-5.089-.38-2.21-.603-4.784-.67-7.725H33.63v14.12h-1.817V8.66h1.817v15.288h1.29c.03-3.128.229-5.89.6-8.286.37-2.412.879-4.256 1.528-5.532.654-1.292 1.396-1.937 2.228-1.937.856 0 1.613.669 2.271 2.007.664 1.323 1.176 3.237 1.536 5.742.36 2.49.543 5.392.548 8.706v1.89zm-1.824-1.774c0-3.766-.221-6.652-.663-8.66-.438-2.007-1.06-3.01-1.868-3.01-.788 0-1.406 1.003-1.853 3.01-.443 1.992-.669 4.816-.678 8.473v1.96c0 3.735.223 6.622.67 8.66.452 2.039 1.077 3.058 1.875 3.058.808 0 1.428-.996 1.86-2.988.438-1.992.657-4.901.657-8.73v-1.773zm10.816-11.344H49.35v29.223h-1.81V13.42h-3.244V8.66h8.328v4.761zm9.194 18.159c-.106 3.626-.52 6.458-1.24 8.496-.722 2.023-1.68 3.035-2.878 3.035-.836 0-1.574-.638-2.213-1.914-.635-1.292-1.125-3.12-1.471-5.485-.346-2.366-.527-5.112-.541-8.24v-3.174c0-3.206.175-6.03.526-8.473.351-2.443.854-4.326 1.507-5.648.659-1.323 1.418-1.984 2.279-1.984 1.158 0 2.091 1.019 2.798 3.057.706 2.039 1.117 4.918 1.233 8.637H60c-.087-2.444-.308-4.202-.664-5.276-.35-1.089-.868-1.633-1.55-1.633-.793 0-1.404.941-1.832 2.824-.423 1.867-.639 4.614-.649 8.24v3.01c0 3.672.202 6.473.606 8.403.409 1.93 1.005 2.894 1.788 2.894.717 0 1.255-.521 1.615-1.564.361-1.042.59-2.777.686-5.205h1.817zm6.814 11.064V29.947h-2.034l-2.026 12.697h-1.954l2.343-14.448c-1.22-1.867-1.831-4.925-1.831-9.173 0-3.252.33-5.78.988-7.586.663-1.82 1.586-2.746 2.769-2.777h3.57v33.984h-1.825zM64.947 19.28c0 1.914.166 3.407.498 4.481.331 1.074.829 1.61 1.492 1.61h1.695v-11.95h-1.695c-.673 0-1.173.521-1.5 1.564-.326 1.043-.49 2.474-.49 4.295zM84.61 42.644h-1.816V13.42h-4.622v29.223h-1.817V8.66h8.256v33.984zm4.032-12.627v12.627h-1.825V8.66h4.017c1.173 0 2.103.988 2.79 2.964.693 1.976 1.039 4.59 1.039 7.842 0 3.33-.34 5.921-1.017 7.773-.673 1.852-1.618 2.777-2.834 2.777h-2.17zm0-4.739h2.192c.649 0 1.144-.49 1.485-1.47.341-.996.512-2.428.512-4.295 0-1.836-.173-3.299-.52-4.388-.345-1.105-.821-1.673-1.427-1.704h-2.242v11.857zm16 1.261c0 3.33-.178 6.255-.533 8.776-.356 2.505-.866 4.435-1.529 5.788-.659 1.339-1.418 2.008-2.279 2.008-.85 0-1.61-.67-2.278-2.008-.664-1.353-1.178-3.275-1.543-5.765-.36-2.49-.544-5.36-.548-8.613v-1.914c0-3.314.18-6.24.54-8.776.366-2.536.878-4.473 1.536-5.812.664-1.353 1.423-2.03 2.279-2.03.856 0 1.613.669 2.271 2.007.664 1.323 1.176 3.237 1.536 5.742.361 2.49.543 5.392.548 8.706v1.89zm-1.824-1.774c0-3.766-.221-6.652-.663-8.66-.438-2.007-1.06-3.01-1.868-3.01-.788 0-1.406 1.003-1.853 3.01-.442 1.992-.668 4.816-.678 8.473v1.96c0 3.735.224 6.622.67 8.66.452 2.039 1.077 3.058 1.875 3.058.808 0 1.428-.996 1.861-2.988.437-1.992.656-4.901.656-8.73v-1.773zm10.607-11.344h-3.274v29.223h-1.81V13.42h-3.244V8.66h8.328v4.761zm7.816-4.761h1.825v33.984h-1.825V18.439l-4.607 24.205h-1.825V8.66h1.825v24.227l4.607-24.227zm4.01 33.984V8.66h3.598c1.187 0 2.091.77 2.711 2.31.62 1.54.93 3.836.93 6.886 0 1.556-.13 2.956-.389 4.201-.26 1.245-.64 2.21-1.14 2.895.568.497 1.005 1.439 1.313 2.824.312 1.37.468 3.018.468 4.948 0 3.19-.317 5.64-.951 7.352-.63 1.712-1.534 2.568-2.712 2.568h-3.828zm1.824-15.335v10.62h2.026c.572 0 1.019-.459 1.341-1.377.322-.918.483-2.194.483-3.828 0-3.532-.557-5.337-1.673-5.415h-2.177zm0-4.341h1.788c.567 0 1.01-.413 1.327-1.238.322-.84.483-2.022.483-3.547 0-1.68-.149-2.895-.447-3.642-.293-.747-.752-1.12-1.377-1.12h-1.774v9.547zm15.871 3.571c0 3.33-.178 6.255-.534 8.776-.356 2.505-.865 4.435-1.529 5.788-.658 1.339-1.418 2.008-2.278 2.008-.851 0-1.611-.67-2.279-2.008-.663-1.353-1.178-3.275-1.543-5.765-.36-2.49-.543-5.36-.548-8.613v-1.914c0-3.314.18-6.24.541-8.776.365-2.536.877-4.473 1.536-5.812.663-1.353 1.423-2.03 2.278-2.03.856 0 1.613.669 2.272 2.007.663 1.323 1.175 3.237 1.536 5.742.36 2.49.543 5.392.548 8.706v1.89zm-1.825-1.774c0-3.766-.221-6.652-.663-8.66-.437-2.007-1.06-3.01-1.868-3.01-.788 0-1.406 1.003-1.853 3.01-.442 1.992-.668 4.816-.678 8.473v1.96c0 3.735.224 6.622.671 8.66.452 2.039 1.077 3.058 1.875 3.058.807 0 1.428-.996 1.86-2.988.438-1.992.656-4.901.656-8.73v-1.773zm11.949 17.879h-1.818V13.42h-4.622v29.223h-1.817V8.66h8.257v33.984zm10.585-16.105c0 3.33-.178 6.255-.534 8.776-.355 2.505-.865 4.435-1.528 5.788-.659 1.339-1.418 2.008-2.279 2.008-.851 0-1.61-.67-2.279-2.008-.663-1.353-1.177-3.275-1.543-5.765-.36-2.49-.543-5.36-.548-8.613v-1.914c0-3.314.181-6.24.541-8.776.365-2.536.877-4.473 1.536-5.812.663-1.353 1.423-2.03 2.279-2.03.855 0 1.612.669 2.271 2.007.663 1.323 1.175 3.237 1.536 5.742.36 2.49.543 5.392.548 8.706v1.89zm-1.824-1.774c0-3.766-.222-6.652-.664-8.66-.437-2.007-1.06-3.01-1.867-3.01-.789 0-1.406 1.003-1.854 3.01-.442 1.992-.668 4.816-.677 8.473v1.96c0 3.735.223 6.622.67 8.66.452 2.039 1.077 3.058 1.875 3.058.808 0 1.428-.996 1.86-2.988.438-1.992.657-4.901.657-8.73v-1.773zm6.749 3.315h-1.24v14.564h-1.818V8.66h1.818v14.284h1.002l3.086-14.284h2.235l-3.605 16.268 3.923 17.716h-2.192l-3.209-14.565zm12.287 6.651H176.8l-.851 7.913h-1.896l3.966-33.984h1.637l3.973 33.984h-1.904l-.858-7.913zm-3.555-4.761h3.043l-1.521-14.098-1.522 14.098zm12.763-12.044c0-1.525-.178-2.739-.534-3.641-.355-.903-.838-1.354-1.449-1.354-.524 0-.961.451-1.312 1.354-.351.887-.527 2.038-.527 3.454h-1.817c0-1.852.159-3.501.476-4.948.317-1.447.757-2.568 1.32-3.361.562-.81 1.182-1.214 1.86-1.214 1.202 0 2.134.848 2.798 2.544.668 1.696 1.002 4.07 1.002 7.12 0 1.54-.144 2.956-.432 4.247-.289 1.292-.693 2.311-1.212 3.058.587.653 1.034 1.65 1.341 2.988.313 1.322.469 2.972.469 4.948 0 3.05-.361 5.477-1.082 7.282-.721 1.79-1.682 2.684-2.884 2.684-.74 0-1.411-.428-2.012-1.283-.596-.856-1.045-2.023-1.348-3.502-.298-1.478-.447-3.174-.447-5.088h1.817c0 1.463.187 2.7.562 3.711.375.996.851 1.494 1.428 1.494.644 0 1.161-.49 1.55-1.47.395-.98.592-2.257.592-3.828 0-1.914-.173-3.299-.519-4.155-.342-.871-.844-1.307-1.508-1.307h-1.233v-4.668h1.169c1.288 0 1.932-1.689 1.932-5.065zm9.554 16.805h-4.067l-.85 7.913h-1.897l3.966-33.984h1.637l3.973 33.984h-1.904l-.858-7.913zm-3.555-4.761h3.043l-1.521-14.098-1.522 14.098zm15.85 12.674h-1.818V27.542h-4.694v15.102h-1.824V8.66h1.824v14.144h4.694V8.66h1.818v33.984zm8.595-33.984h1.824v33.984h-1.824V18.439l-4.608 24.205h-1.824V8.66h1.824v24.227l4.608-24.227zm9.186 33.984V29.947h-2.033l-2.026 12.697h-1.954l2.343-14.448c-1.221-1.867-1.832-4.925-1.832-9.173 0-3.252.33-5.78.988-7.586.664-1.82 1.587-2.746 2.769-2.777h3.57v33.984h-1.825zm-3.684-23.364c0 1.914.165 3.407.497 4.481.332 1.074.829 1.61 1.493 1.61h1.694v-11.95h-1.694c-.673 0-1.173.521-1.5 1.564-.327 1.043-.49 2.474-.49 4.295zm8.602 17.389c.327 0 .579.303.757.91.178.591.267 1.338.267 2.24 0 .888-.089 1.627-.267 2.218-.178.576-.43.864-.757.864-.312 0-.56-.288-.743-.864-.182-.576-.274-1.315-.274-2.217 0-.903.089-1.65.267-2.241.178-.607.428-.91.75-.91zm15.186 5.975h-1.817V13.42h-4.622v29.223h-1.817V8.66h8.256v33.984zm8.343-15.172h-4.312V37.93h5.04v4.715h-6.865V8.66h6.814v4.761h-4.989v9.383h4.312v4.668zm4.038 2.545v12.627h-1.825V8.66h4.017c1.173 0 2.103.988 2.79 2.964.693 1.976 1.039 4.59 1.039 7.842 0 3.33-.339 5.921-1.017 7.773-.673 1.852-1.618 2.777-2.834 2.777h-2.17zm0-4.739h2.192c.649 0 1.144-.49 1.485-1.47.341-.996.512-2.428.512-4.295 0-1.836-.173-3.299-.519-4.388-.346-1.105-.822-1.673-1.428-1.704h-2.242v11.857zm13.758 2.194h-4.312V37.93h5.04v4.715h-6.865V8.66h6.815v4.761h-4.99v9.383h4.312v4.668zM287.817 51h-1.731v-8.356h-6.915V51h-1.759l-.058-13.07h.843c.419-1.308.753-3.206 1.003-5.696.25-2.505.411-5.337.483-8.496l.274-15.079h6.619v29.27h1.334L287.817 51zm-7.557-13.07h4.499V13.42h-3.064l-.173 9.57c-.13 6.395-.551 11.375-1.262 14.938zm19.13-29.27h1.824v33.984h-1.824V18.439l-4.608 24.205h-1.824V8.66h1.824v24.227L299.39 8.66zm12.02 22.92c-.106 3.626-.519 6.458-1.24 8.496-.721 2.023-1.68 3.035-2.877 3.035-.837 0-1.575-.638-2.214-1.914-.634-1.292-1.125-3.12-1.471-5.485-.346-2.366-.526-5.112-.541-8.24v-3.174c0-3.206.176-6.03.527-8.473.351-2.443.853-4.326 1.507-5.648.658-1.323 1.418-1.984 2.278-1.984 1.159 0 2.091 1.019 2.798 3.057.707 2.039 1.118 4.918 1.233 8.637h-1.817c-.086-2.444-.308-4.202-.663-5.276-.351-1.089-.868-1.633-1.551-1.633-.793 0-1.403.941-1.831 2.824-.423 1.867-.64 4.614-.649 8.24v3.01c0 3.672.202 6.473.606 8.403.408 1.93 1.004 2.894 1.788 2.894.716 0 1.254-.521 1.615-1.564.361-1.042.589-2.777.685-5.205h1.817zm9.944 11.064h-1.817V13.42h-4.622v29.223h-1.818V8.66h8.257v33.984zm10.585-16.105c0 3.33-.178 6.255-.533 8.776-.356 2.505-.866 4.435-1.529 5.788-.659 1.339-1.418 2.008-2.279 2.008-.851 0-1.61-.67-2.278-2.008-.664-1.353-1.178-3.275-1.543-5.765-.361-2.49-.544-5.36-.548-8.613v-1.914c0-3.314.18-6.24.54-8.776.366-2.536.878-4.473 1.536-5.812.664-1.353 1.423-2.03 2.279-2.03.856 0 1.613.669 2.271 2.007.664 1.323 1.176 3.237 1.536 5.742.361 2.49.543 5.392.548 8.706v1.89zm-1.824-1.774c0-3.766-.221-6.652-.664-8.66-.437-2.007-1.06-3.01-1.867-3.01-.789 0-1.406 1.003-1.853 3.01-.443 1.992-.669 4.816-.678 8.473v1.96c0 3.735.223 6.622.67 8.66.452 2.039 1.077 3.058 1.875 3.058.808 0 1.428-.996 1.861-2.988.437-1.992.656-4.901.656-8.73v-1.773zM341.782 8.66v33.984h-1.817V13.42h-3.216l-.188 13.141c-.072 4.108-.228 7.298-.469 9.57-.235 2.256-.579 3.906-1.031 4.948-.452 1.043-1.057 1.564-1.817 1.564h-.461v-4.715l.288-.07c.418-.124.741-.599.966-1.424.231-.825.404-2.07.52-3.734.12-1.68.204-4.147.252-7.4l.202-16.641h6.771zm3.995 13h2.148c.769 0 1.44.428 2.012 1.284.572.856 1.007 2.07 1.305 3.641.298 1.572.447 3.393.447 5.462 0 3.175-.334 5.727-1.002 7.656-.663 1.93-1.57 2.91-2.718 2.94h-4.017V8.66h1.825v13zm0 4.739v11.53h2.141c.615 0 1.094-.537 1.435-1.61.346-1.09.519-2.53.519-4.319 0-1.711-.168-3.065-.505-4.06-.336-.997-.802-1.51-1.398-1.541h-2.192zm12.741-8.473c0-1.525-.178-2.739-.534-3.641-.355-.903-.839-1.354-1.449-1.354-.524 0-.961.451-1.312 1.354-.351.887-.527 2.038-.527 3.454h-1.817c0-1.852.159-3.501.476-4.948.317-1.447.757-2.568 1.32-3.361.562-.81 1.182-1.214 1.86-1.214 1.202 0 2.134.848 2.798 2.544.668 1.696 1.002 4.07 1.002 7.12 0 1.54-.144 2.956-.433 4.247-.288 1.292-.692 2.311-1.211 3.058.586.653 1.034 1.65 1.341 2.988.313 1.322.469 2.972.469 4.948 0 3.05-.361 5.477-1.082 7.282-.721 1.79-1.682 2.684-2.884 2.684-.74 0-1.411-.428-2.012-1.283-.596-.856-1.045-2.023-1.348-3.502-.298-1.478-.447-3.174-.447-5.088h1.817c0 1.463.187 2.7.562 3.711.375.996.851 1.494 1.428 1.494.644 0 1.161-.49 1.55-1.47.394-.98.592-2.257.592-3.828 0-1.914-.174-3.299-.52-4.155-.341-.871-.843-1.307-1.507-1.307h-1.233v-4.668h1.168c1.289 0 1.933-1.689 1.933-5.065zm12.056 8.613c0 3.33-.178 6.255-.533 8.776-.356 2.505-.866 4.435-1.529 5.788-.659 1.339-1.418 2.008-2.279 2.008-.85 0-1.61-.67-2.278-2.008-.664-1.353-1.178-3.275-1.543-5.765-.361-2.49-.544-5.36-.548-8.613v-1.914c0-3.314.18-6.24.54-8.776.366-2.536.878-4.473 1.536-5.812.664-1.353 1.423-2.03 2.279-2.03.856 0 1.613.669 2.271 2.007.664 1.323 1.176 3.237 1.536 5.742.361 2.49.543 5.392.548 8.706v1.89zm-1.824-1.774c0-3.766-.221-6.652-.663-8.66-.438-2.007-1.06-3.01-1.868-3.01-.788 0-1.406 1.003-1.853 3.01-.442 1.992-.668 4.816-.678 8.473v1.96c0 3.735.224 6.622.671 8.66.451 2.039 1.076 3.058 1.874 3.058.808 0 1.428-.996 1.861-2.988.437-1.992.656-4.901.656-8.73v-1.773zm3.641 17.879V8.66h3.599c1.187 0 2.091.77 2.711 2.31.62 1.54.93 3.836.93 6.886 0 1.556-.13 2.956-.389 4.201-.26 1.245-.64 2.21-1.14 2.895.568.497 1.005 1.439 1.313 2.824.312 1.37.468 3.018.468 4.948 0 3.19-.317 5.64-.951 7.352-.63 1.712-1.534 2.568-2.712 2.568h-3.829zm1.825-15.335v10.62h2.026c.572 0 1.019-.459 1.341-1.377.322-.918.483-2.194.483-3.828 0-3.532-.557-5.337-1.673-5.415h-2.177zm0-4.341h1.788c.567 0 1.009-.413 1.327-1.238.322-.84.483-2.022.483-3.547 0-1.68-.149-2.895-.447-3.642-.293-.747-.753-1.12-1.377-1.12h-1.774v9.547zm13.368 11.763h-4.066l-.851 7.913h-1.897l3.966-33.984h1.637l3.973 33.984h-1.904l-.858-7.913zm-3.554-4.761h3.042l-1.521-14.098-1.521 14.098zm15.849 12.674h-1.817V27.542h-4.695v15.102h-1.824V8.66h1.824v14.144h4.695V8.66h1.817v33.984zm8.595-33.984h1.824v33.984h-1.824V18.439l-4.608 24.205h-1.824V8.66h1.824v24.227l4.608-24.227zm10.145 18.812h-4.312V37.93h5.041v4.715h-6.865V8.66h6.814v4.761h-4.99v9.383h4.312v4.668zm4.579-18.812l3.029 26.048 3.021-26.048h2.358v33.984h-1.817V31.44l.18-14.985-3.101 26.189h-1.305l-3.093-26.165.18 14.961v11.204h-1.817V8.66h2.365zm22.584 33.984h-1.817V27.542h-4.694v15.102h-1.824V8.66h1.824v14.144h4.694V8.66h1.817v33.984zm8.3-15.172h-4.312V37.93h5.04v4.715h-6.865V8.66h6.815v4.761h-4.99v9.383h4.312v4.668zm10.592-.933c0 3.33-.177 6.255-.533 8.776-.356 2.505-.865 4.435-1.529 5.788-.658 1.339-1.418 2.008-2.278 2.008-.851 0-1.611-.67-2.279-2.008-.663-1.353-1.178-3.275-1.543-5.765-.361-2.49-.543-5.36-.548-8.613v-1.914c0-3.314.18-6.24.541-8.776.365-2.536.877-4.473 1.536-5.812.663-1.353 1.422-2.03 2.278-2.03.856 0 1.613.669 2.271 2.007.664 1.323 1.176 3.237 1.536 5.742.361 2.49.544 5.392.548 8.706v1.89zm-1.824-1.774c0-3.766-.221-6.652-.663-8.66-.438-2.007-1.06-3.01-1.868-3.01-.788 0-1.406 1.003-1.853 3.01-.442 1.992-.668 4.816-.678 8.473v1.96c0 3.735.224 6.622.671 8.66.452 2.039 1.077 3.058 1.875 3.058.807 0 1.427-.996 1.86-2.988.437-1.992.656-4.901.656-8.73v-1.773zm10.275-11.344h-4.838v8.24h2.149c.769 0 1.44.427 2.012 1.283.572.856 1.007 2.07 1.305 3.641.298 1.572.447 3.393.447 5.462 0 3.175-.334 5.727-1.003 7.656-.663 1.93-1.569 2.91-2.718 2.94h-4.016V8.66h6.662v4.761zM468.287 26.4v11.53h2.142c.615 0 1.093-.537 1.434-1.61.347-1.09.52-2.53.52-4.319 0-1.711-.169-3.065-.505-4.06-.337-.997-.803-1.51-1.399-1.541h-2.192zm11.004-5.463l2.206-12.278h2.106l-3.173 16.853 3.245 17.132h-2.127l-2.257-12.464-2.265 12.464h-2.12l3.252-17.132-3.179-16.853h2.105l2.207 12.278zm13.924 5.602c0 3.33-.178 6.255-.534 8.776-.356 2.505-.865 4.435-1.529 5.788-.658 1.339-1.418 2.008-2.278 2.008-.851 0-1.611-.67-2.279-2.008-.663-1.353-1.178-3.275-1.543-5.765-.361-2.49-.543-5.36-.548-8.613v-1.914c0-3.314.18-6.24.541-8.776.365-2.536.877-4.473 1.536-5.812.663-1.353 1.423-2.03 2.278-2.03.856 0 1.613.669 2.272 2.007.663 1.323 1.175 3.237 1.535 5.742.361 2.49.544 5.392.549 8.706v1.89zm-1.825-1.774c0-3.766-.221-6.652-.663-8.66-.438-2.007-1.06-3.01-1.868-3.01-.788 0-1.406 1.003-1.853 3.01-.442 1.992-.668 4.816-.678 8.473v1.96c0 3.735.224 6.622.671 8.66.452 2.039 1.077 3.058 1.875 3.058.807 0 1.427-.996 1.86-2.988.437-1.992.656-4.901.656-8.73v-1.773zM504.442 51h-1.731v-8.356h-6.915V51h-1.759l-.058-13.07h.843c.419-1.308.753-3.206 1.003-5.696.25-2.505.411-5.337.483-8.496l.274-15.079h6.619v29.27h1.334L504.442 51zm-7.557-13.07h4.499V13.42h-3.064l-.173 9.57c-.13 6.395-.551 11.375-1.262 14.938zm15.452-29.27h1.825v33.984h-1.825V18.439l-4.607 24.205h-1.825V8.66h1.825v24.227l4.607-24.227zm6.375 0l3.028 26.048 3.021-26.048h2.358v33.984h-1.817V31.44l.181-14.985-3.101 26.189h-1.305l-3.094-26.165.181 14.961v11.204h-1.817V8.66h2.365zm18.949 17.879c0 3.33-.177 6.255-.533 8.776-.356 2.505-.865 4.435-1.529 5.788-.658 1.339-1.418 2.008-2.278 2.008-.851 0-1.611-.67-2.279-2.008-.663-1.353-1.178-3.275-1.543-5.765-.361-2.49-.543-5.36-.548-8.613v-1.914c0-3.314.18-6.24.541-8.776.365-2.536.877-4.473 1.536-5.812.663-1.353 1.423-2.03 2.278-2.03.856 0 1.613.669 2.272 2.007.663 1.323 1.175 3.237 1.535 5.742.361 2.49.544 5.392.548 8.706v1.89zm-1.824-1.774c0-3.766-.221-6.652-.663-8.66-.438-2.007-1.06-3.01-1.868-3.01-.788 0-1.406 1.003-1.853 3.01-.442 1.992-.668 4.816-.678 8.473v1.96c0 3.735.224 6.622.671 8.66.452 2.039 1.077 3.058 1.875 3.058.807 0 1.427-.996 1.86-2.988.437-1.992.656-4.901.656-8.73v-1.773zm15.698 1.774c0 3.33-.178 6.255-.534 8.776-.355 2.505-.865 4.435-1.528 5.788-.659 1.339-1.418 2.008-2.279 2.008-.851 0-1.61-.67-2.279-2.008-.663-1.353-1.177-3.275-1.543-5.765-.36-2.49-.543-5.36-.548-8.613v-1.914c0-3.314.181-6.24.541-8.776.366-2.536.877-4.473 1.536-5.812.663-1.353 1.423-2.03 2.279-2.03.855 0 1.612.669 2.271 2.007.663 1.323 1.175 3.237 1.536 5.742.36 2.49.543 5.392.548 8.706v1.89zm-1.824-1.774c0-3.766-.221-6.652-.664-8.66-.437-2.007-1.06-3.01-1.867-3.01-.789 0-1.406 1.003-1.854 3.01-.442 1.992-.668 4.816-.677 8.473v1.96c0 3.735.223 6.622.67 8.66.452 2.039 1.077 3.058 1.875 3.058.808 0 1.428-.996 1.86-2.988.438-1.992.657-4.901.657-8.73v-1.773zm8.891-6.839c0-1.525-.178-2.739-.534-3.641-.356-.903-.839-1.354-1.449-1.354-.524 0-.962.451-1.313 1.354-.351.887-.526 2.038-.526 3.454h-1.817c0-1.852.158-3.501.476-4.948.317-1.447.757-2.568 1.319-3.361.563-.81 1.183-1.214 1.861-1.214 1.201 0 2.134.848 2.797 2.544.668 1.696 1.003 4.07 1.003 7.12 0 1.54-.145 2.956-.433 4.247-.288 1.292-.692 2.311-1.211 3.058.586.653 1.033 1.65 1.341 2.988.312 1.322.468 2.972.468 4.948 0 3.05-.36 5.477-1.081 7.282-.721 1.79-1.683 2.684-2.884 2.684-.741 0-1.411-.428-2.012-1.283-.596-.856-1.046-2.023-1.349-3.502-.298-1.478-.447-3.174-.447-5.088h1.817c0 1.463.188 2.7.563 3.711.375.996.851 1.494 1.428 1.494.644 0 1.16-.49 1.55-1.47.394-.98.591-2.257.591-3.828 0-1.914-.173-3.299-.519-4.155-.341-.871-.844-1.307-1.507-1.307h-1.233v-4.668h1.168c1.288 0 1.933-1.689 1.933-5.065zm12.013 24.718h-1.818V27.542h-4.694v15.102h-1.824V8.66h1.824v14.144h4.694V8.66h1.818v33.984zm8.169-7.913h-4.067l-.85 7.913h-1.897l3.966-33.984h1.637l3.973 33.984h-1.904l-.858-7.913zm-3.555-4.761h3.043l-1.521-14.098-1.522 14.098zm10.622-1.89h-1.24v14.564h-1.817V8.66h1.817v14.284h1.002l3.086-14.284h2.235l-3.605 16.268 3.923 17.716h-2.192l-3.209-14.565zm14.558-1.541c0 3.33-.178 6.255-.533 8.776-.356 2.505-.866 4.435-1.529 5.788-.659 1.339-1.418 2.008-2.279 2.008-.85 0-1.61-.67-2.278-2.008-.664-1.353-1.178-3.275-1.543-5.765-.361-2.49-.543-5.36-.548-8.613v-1.914c0-3.314.18-6.24.541-8.776.365-2.536.877-4.473 1.535-5.812.664-1.353 1.423-2.03 2.279-2.03.856 0 1.613.669 2.271 2.007.664 1.323 1.176 3.237 1.536 5.742.361 2.49.544 5.392.548 8.706v1.89zm-1.824-1.774c0-3.766-.221-6.652-.663-8.66-.438-2.007-1.06-3.01-1.868-3.01-.788 0-1.406 1.003-1.853 3.01-.442 1.992-.668 4.816-.678 8.473v1.96c0 3.735.224 6.622.671 8.66.452 2.039 1.077 3.058 1.874 3.058.808 0 1.428-.996 1.861-2.988.437-1.992.656-4.901.656-8.73v-1.773zm6.007-16.105l3.028 26.048 3.021-26.048h2.358v33.984h-1.817V31.44l.18-14.985-3.1 26.189h-1.305l-3.094-26.165.181 14.961v11.204h-1.818V8.66h2.366zm17.002 0h1.825v33.984h-1.825V18.439l-4.607 24.205h-1.825V8.66h1.825v24.227l4.607-24.227zm11.379 4.761h-3.274v29.223h-1.81V13.42h-3.244V8.66h8.328v4.761zm3.295 8.239h2.149c.769 0 1.44.428 2.012 1.284.572.856 1.007 2.07 1.305 3.641.298 1.572.447 3.393.447 5.462 0 3.175-.334 5.727-1.002 7.656-.664 1.93-1.57 2.91-2.719 2.94h-4.016V8.66h1.824v13zm0 4.739v11.53h2.142c.615 0 1.094-.537 1.435-1.61.346-1.09.519-2.53.519-4.319 0-1.711-.168-3.065-.505-4.06-.336-.997-.803-1.51-1.399-1.541h-2.192zm15.503 5.181c-.105 3.626-.519 6.458-1.24 8.496-.721 2.023-1.68 3.035-2.877 3.035-.836 0-1.574-.638-2.214-1.914-.634-1.292-1.125-3.12-1.471-5.485-.346-2.366-.526-5.112-.54-8.24v-3.174c0-3.206.175-6.03.526-8.473.351-2.443.853-4.326 1.507-5.648.659-1.323 1.418-1.984 2.279-1.984 1.158 0 2.091 1.019 2.797 3.057.707 2.039 1.118 4.918 1.233 8.637h-1.817c-.086-2.444-.307-4.202-.663-5.276-.351-1.089-.868-1.633-1.55-1.633-.794 0-1.404.941-1.832 2.824-.423 1.867-.639 4.614-.649 8.24v3.01c0 3.672.202 6.473.606 8.403.408 1.93 1.005 2.894 1.788 2.894.716 0 1.255-.521 1.615-1.564.361-1.042.589-2.777.685-5.205h1.817zm6.815 11.064V29.947h-2.034l-2.026 12.697h-1.954l2.343-14.448c-1.221-1.867-1.831-4.925-1.831-9.173 0-3.252.329-5.78.988-7.586.663-1.82 1.586-2.746 2.769-2.777h3.569v33.984h-1.824zm-3.685-23.364c0 1.914.166 3.407.497 4.481.332 1.074.83 1.61 1.493 1.61h1.695v-11.95h-1.695c-.673 0-1.173.521-1.5 1.564-.327 1.043-.49 2.474-.49 4.295zm19.368 12.3c-.106 3.626-.519 6.458-1.24 8.496-.721 2.023-1.68 3.035-2.877 3.035-.837 0-1.575-.638-2.214-1.914-.635-1.292-1.125-3.12-1.471-5.485-.346-2.366-.527-5.112-.541-8.24v-3.174c0-3.206.176-6.03.526-8.473.351-2.443.854-4.326 1.508-5.648.658-1.323 1.418-1.984 2.278-1.984 1.159 0 2.091 1.019 2.798 3.057.707 2.039 1.118 4.918 1.233 8.637h-1.817c-.087-2.444-.308-4.202-.664-5.276-.35-1.089-.867-1.633-1.55-1.633-.793 0-1.404.941-1.831 2.824-.423 1.867-.64 4.614-.649 8.24v3.01c0 3.672.202 6.473.605 8.403.409 1.93 1.005 2.894 1.789 2.894.716 0 1.254-.521 1.615-1.564.36-1.042.589-2.777.685-5.205h1.817zm11.746-22.92h1.825v33.984h-1.825V18.439l-4.607 24.205h-1.825V8.66h1.825v24.227l4.607-24.227zm12.345 33.984h-1.817V27.542h-4.694v15.102h-1.825V8.66h1.825v14.144h4.694V8.66h1.817v33.984zm10.174-11.064c-.105 3.626-.519 6.458-1.24 8.496-.721 2.023-1.68 3.035-2.877 3.035-.836 0-1.574-.638-2.214-1.914-.634-1.292-1.125-3.12-1.471-5.485-.346-2.366-.526-5.112-.54-8.24v-3.174c0-3.206.175-6.03.526-8.473.351-2.443.853-4.326 1.507-5.648.659-1.323 1.418-1.984 2.279-1.984 1.158 0 2.091 1.019 2.797 3.057.707 2.039 1.118 4.918 1.233 8.637h-1.817c-.086-2.444-.307-4.202-.663-5.276-.351-1.089-.868-1.633-1.55-1.633-.794 0-1.404.941-1.832 2.824-.423 1.867-.639 4.614-.649 8.24v3.01c0 3.672.202 6.473.606 8.403.408 1.93 1.004 2.894 1.788 2.894.716 0 1.255-.521 1.615-1.564.361-1.042.589-2.777.685-5.205h1.817zm9.007-18.159h-3.274v29.223h-1.81V13.42h-3.245V8.66h8.329v4.761zm3.208 16.596v12.627h-1.824V8.66h4.016c1.173 0 2.104.988 2.791 2.964.692 1.976 1.038 4.59 1.038 7.842 0 3.33-.339 5.921-1.016 7.773-.673 1.852-1.618 2.777-2.834 2.777h-2.171zm0-4.739h2.192c.649 0 1.145-.49 1.486-1.47.341-.996.512-2.428.512-4.295 0-1.836-.173-3.299-.519-4.388-.347-1.105-.822-1.673-1.428-1.704h-2.243v11.857zm11.401 1.144l2.105-17.763h2.026l-3.656 28.196-.331 2.124c-.481 2.77-1.26 4.155-2.337 4.155l-.749-.14.014-4.668c.115.062.32.093.613.093.519 0 .884-.716 1.096-2.147l.375-2.871-3.591-24.742h1.99l2.445 17.763zm8.631 1.658h-1.24v14.564h-1.818V8.66h1.818v14.284h1.002l3.086-14.284h2.235l-3.605 16.268 3.923 17.716h-2.192l-3.209-14.565zm6.396-19.42h1.824v29.27h4.622V8.66h1.824v29.222h1.269l-.144 12.955h-1.673v-8.193h-7.722V8.66zm17.479 0h1.824v33.984h-1.824V18.439l-4.608 24.205h-1.824V8.66h1.824v24.227l4.608-24.227zm10.145 18.812h-4.312V37.93h5.04v4.715h-6.864V8.66h6.814v4.761h-4.99v9.383h4.312v4.668zm8.646-18.812h1.824v33.984h-1.824V18.439l-4.608 24.205h-1.824V8.66h1.824v24.227l4.608-24.227zm.057-8.66c0 1.96-.211 3.548-.634 4.762-.423 1.213-.988 1.82-1.695 1.82-.706 0-1.271-.607-1.694-1.82-.423-1.214-.635-2.801-.635-4.762h1.313c0 1.027.089 1.828.266 2.404.183.56.433.84.75.84.318 0 .565-.28.743-.84.178-.576.267-1.377.267-2.404h1.319zm14.061 8.66h1.825v33.984h-1.825V18.439l-4.607 24.205h-1.825V8.66h1.825v24.227l4.607-24.227zm12.396 0v33.984h-1.818V13.42h-3.216l-.187 13.141c-.072 4.108-.228 7.298-.469 9.57-.235 2.256-.579 3.906-1.031 4.948-.452 1.043-1.057 1.564-1.817 1.564h-.461v-4.715l.288-.07c.418-.124.74-.599.966-1.424.231-.825.404-2.07.519-3.734.121-1.68.205-4.147.253-7.4l.202-16.641h6.771zm8.631 0h1.824v33.984h-1.824V18.439l-4.608 24.205h-1.824V8.66h1.824v24.227l4.608-24.227zm15.993 33.984h-1.817V13.42h-4.622v29.223h-1.817V8.66h8.256v33.984zm4.031-12.627v12.627h-1.824V8.66h4.016c1.173 0 2.103.988 2.791 2.964.692 1.976 1.038 4.59 1.038 7.842 0 3.33-.339 5.921-1.017 7.773-.673 1.852-1.617 2.777-2.834 2.777h-2.17zm0-4.739h2.192c.649 0 1.144-.49 1.486-1.47.341-.996.511-2.428.511-4.295 0-1.836-.173-3.299-.519-4.388-.346-1.105-.822-1.673-1.427-1.704h-2.243v11.857zm16.001 1.261c0 3.33-.178 6.255-.534 8.776-.356 2.505-.865 4.435-1.529 5.788-.658 1.339-1.418 2.008-2.278 2.008-.851 0-1.611-.67-2.279-2.008-.663-1.353-1.178-3.275-1.543-5.765-.36-2.49-.543-5.36-.548-8.613v-1.914c0-3.314.18-6.24.541-8.776.365-2.536.877-4.473 1.536-5.812.663-1.353 1.423-2.03 2.278-2.03.856 0 1.613.669 2.272 2.007.663 1.323 1.175 3.237 1.536 5.742.36 2.49.543 5.392.548 8.706v1.89zm-1.825-1.774c0-3.766-.221-6.652-.663-8.66-.437-2.007-1.06-3.01-1.868-3.01-.788 0-1.406 1.003-1.853 3.01-.442 1.992-.668 4.816-.678 8.473v1.96c0 3.735.224 6.622.671 8.66.452 2.039 1.077 3.058 1.875 3.058.807 0 1.428-.996 1.86-2.988.438-1.992.656-4.901.656-8.73v-1.773zm6.75 3.315h-1.241v14.564h-1.817V8.66h1.817v14.284h1.003L862.39 8.66h2.235l-3.605 16.268 3.923 17.716h-2.193l-3.208-14.565zm14.558-1.541c0 3.33-.178 6.255-.533 8.776-.356 2.505-.866 4.435-1.529 5.788-.659 1.339-1.418 2.008-2.279 2.008-.851 0-1.61-.67-2.278-2.008-.664-1.353-1.178-3.275-1.543-5.765-.361-2.49-.544-5.36-.548-8.613v-1.914c0-3.314.18-6.24.54-8.776.366-2.536.878-4.473 1.536-5.812.664-1.353 1.423-2.03 2.279-2.03.856 0 1.613.669 2.271 2.007.664 1.323 1.176 3.237 1.536 5.742.361 2.49.543 5.392.548 8.706v1.89zm-1.824-1.774c0-3.766-.221-6.652-.664-8.66-.437-2.007-1.06-3.01-1.867-3.01-.789 0-1.406 1.003-1.853 3.01-.443 1.992-.669 4.816-.678 8.473v1.96c0 3.735.223 6.622.67 8.66.452 2.039 1.077 3.058 1.875 3.058.808 0 1.428-.996 1.861-2.988.437-1.992.656-4.901.656-8.73v-1.773zm11.977 17.879h-1.817V27.542h-4.694v15.102h-1.825V8.66h1.825v14.144h4.694V8.66h1.817v33.984zm10.174-11.064c-.106 3.626-.519 6.458-1.24 8.496-.721 2.023-1.68 3.035-2.877 3.035-.837 0-1.574-.638-2.214-1.914-.634-1.292-1.125-3.12-1.471-5.485-.346-2.366-.526-5.112-.541-8.24v-3.174c0-3.206.176-6.03.527-8.473.351-2.443.853-4.326 1.507-5.648.658-1.323 1.418-1.984 2.278-1.984 1.159 0 2.091 1.019 2.798 3.057.707 2.039 1.118 4.918 1.233 8.637h-1.817c-.086-2.444-.308-4.202-.663-5.276-.351-1.089-.868-1.633-1.551-1.633-.793 0-1.403.941-1.831 2.824-.423 1.867-.64 4.614-.649 8.24v3.01c0 3.672.202 6.473.606 8.403.408 1.93 1.004 2.894 1.788 2.894.716 0 1.255-.521 1.615-1.564.361-1.042.589-2.777.685-5.205h1.817zm5.415-5.158l2.106-17.763h2.026l-3.656 28.196-.331 2.124c-.481 2.77-1.26 4.155-2.337 4.155l-.75-.14.015-4.668c.115.062.32.093.613.093.519 0 .884-.716 1.096-2.147l.375-2.871-3.591-24.742h1.99l2.444 17.763zM913.233 8.66v33.984h-1.817V13.42H908.2l-.188 13.141c-.072 4.108-.228 7.298-.468 9.57-.236 2.256-.58 3.906-1.032 4.948-.452 1.043-1.057 1.564-1.817 1.564h-.461v-4.715l.288-.07c.418-.124.741-.599.966-1.424.231-.825.404-2.07.52-3.734.12-1.68.204-4.147.252-7.4l.202-16.641h6.771zm3.995 13h2.148c.77 0 1.44.428 2.012 1.284.572.856 1.007 2.07 1.305 3.641.298 1.572.447 3.393.447 5.462 0 3.175-.334 5.727-1.002 7.656-.663 1.93-1.569 2.91-2.718 2.94h-4.017V8.66h1.825v13zm0 4.739v11.53h2.141c.615 0 1.094-.537 1.435-1.61.346-1.09.519-2.53.519-4.319 0-1.711-.168-3.065-.505-4.06-.336-.997-.802-1.51-1.398-1.541h-2.192zm14.371-12.978h-3.274v29.223h-1.81V13.42h-3.245V8.66h8.329v4.761zm7.816-4.761h1.824v33.984h-1.824V18.439l-4.608 24.205h-1.824V8.66h1.824v24.227l4.608-24.227zm5.833 21.357v12.627h-1.824V8.66h4.017c1.172 0 2.103.988 2.79 2.964.692 1.976 1.038 4.59 1.038 7.842 0 3.33-.338 5.921-1.016 7.773-.673 1.852-1.618 2.777-2.834 2.777h-2.171zm0-4.739h2.193c.648 0 1.144-.49 1.485-1.47.341-.996.512-2.428.512-4.295 0-1.836-.173-3.299-.519-4.388-.346-1.105-.822-1.673-1.428-1.704h-2.243v11.857zm16.001 1.261c0 3.33-.178 6.255-.533 8.776-.356 2.505-.866 4.435-1.529 5.788-.659 1.339-1.418 2.008-2.279 2.008-.851 0-1.61-.67-2.278-2.008-.664-1.353-1.178-3.275-1.543-5.765-.361-2.49-.544-5.36-.548-8.613v-1.914c0-3.314.18-6.24.54-8.776.366-2.536.878-4.473 1.536-5.812.664-1.353 1.423-2.03 2.279-2.03.856 0 1.613.669 2.271 2.007.664 1.323 1.176 3.237 1.536 5.742.361 2.49.543 5.392.548 8.706v1.89zm-1.824-1.774c0-3.766-.221-6.652-.664-8.66-.437-2.007-1.06-3.01-1.867-3.01-.789 0-1.406 1.003-1.853 3.01-.443 1.992-.669 4.816-.678 8.473v1.96c0 3.735.223 6.622.67 8.66.452 2.039 1.077 3.058 1.875 3.058.808 0 1.428-.996 1.861-2.988.437-1.992.656-4.901.656-8.73v-1.773zm3.641 17.879V8.66h3.598c1.188 0 2.091.77 2.712 2.31.62 1.54.93 3.836.93 6.886 0 1.556-.13 2.956-.39 4.201-.259 1.245-.639 2.21-1.139 2.895.567.497 1.005 1.439 1.312 2.824.313 1.37.469 3.018.469 4.948 0 3.19-.317 5.64-.952 7.352-.629 1.712-1.533 2.568-2.711 2.568h-3.829zm1.825-15.335v10.62h2.026c.572 0 1.019-.459 1.341-1.377.322-.918.483-2.194.483-3.828 0-3.532-.558-5.337-1.673-5.415h-2.177zm0-4.341h1.788c.567 0 1.009-.413 1.327-1.238.322-.84.483-2.022.483-3.547 0-1.68-.149-2.895-.447-3.642-.294-.747-.753-1.12-1.378-1.12h-1.773v9.547zm13.368 11.763h-4.067l-.851 7.913h-1.896l3.966-33.984h1.637l3.973 33.984h-1.904l-.858-7.913zm-3.555-4.761h3.043l-1.521-14.098-1.522 14.098zm14.234-16.549h-3.273v29.223h-1.81V13.42h-3.245V8.66h8.328v4.761zm3.296 8.239h2.148c.77 0 1.44.428 2.012 1.284.572.856 1.007 2.07 1.305 3.641.298 1.572.447 3.393.447 5.462 0 3.175-.334 5.727-1.002 7.656-.663 1.93-1.569 2.91-2.718 2.94h-4.017V8.66h1.825v13zm0 4.739v11.53h2.141c.616 0 1.094-.537 1.435-1.61.346-1.09.519-2.53.519-4.319 0-1.711-.168-3.065-.504-4.06-.337-.997-.803-1.51-1.399-1.541h-2.192zm15.506 5.181c-.11 3.626-.52 6.458-1.24 8.496-.72 2.023-1.68 3.035-2.88 3.035-.84 0-1.57-.638-2.21-1.914-.64-1.292-1.13-3.12-1.475-5.485-.346-2.366-.527-5.112-.541-8.24v-3.174c0-3.206.175-6.03.526-8.473.35-2.443.85-4.326 1.51-5.648.66-1.323 1.42-1.984 2.28-1.984 1.15 0 2.09 1.019 2.79 3.057.71 2.039 1.12 4.918 1.24 8.637h-1.82c-.09-2.444-.31-4.202-.66-5.276-.35-1.089-.87-1.633-1.55-1.633-.8 0-1.41.941-1.84 2.824-.42 1.867-.63 4.614-.64 8.24v3.01c0 3.672.2 6.473.6 8.403.41 1.93 1.01 2.894 1.79 2.894.72 0 1.25-.521 1.61-1.564.37-1.042.59-2.777.69-5.205h1.82zm6.81 11.064V29.947h-2.03l-2.03 12.697h-1.95l2.34-14.448c-1.22-1.867-1.83-4.925-1.83-9.173 0-3.252.33-5.78.99-7.586.66-1.82 1.58-2.746 2.77-2.777h3.57v33.984h-1.83zm-3.68-23.364c0 1.914.16 3.407.49 4.481.34 1.074.83 1.61 1.5 1.61h1.69v-11.95h-1.69c-.68 0-1.18.521-1.5 1.564-.33 1.043-.49 2.474-.49 4.295zm19.36 12.3c-.1 3.626-.51 6.458-1.24 8.496-.72 2.023-1.68 3.035-2.87 3.035-.84 0-1.58-.638-2.22-1.914-.63-1.292-1.12-3.12-1.47-5.485-.34-2.366-.52-5.112-.54-8.24v-3.174c0-3.206.18-6.03.53-8.473.35-2.443.85-4.326 1.5-5.648.66-1.323 1.42-1.984 2.28-1.984 1.16 0 2.09 1.019 2.8 3.057.71 2.039 1.12 4.918 1.23 8.637h-1.81c-.09-2.444-.31-4.202-.67-5.276-.35-1.089-.86-1.633-1.55-1.633-.79 0-1.4.941-1.83 2.824-.42 1.867-.64 4.614-.65 8.24v3.01c0 3.672.2 6.473.61 8.403.41 1.93 1 2.894 1.79 2.894.71 0 1.25-.521 1.61-1.564.36-1.042.59-2.777.69-5.205h1.81zm10.02-5.041c0 3.33-.18 6.255-.53 8.776-.36 2.505-.87 4.435-1.53 5.788-.66 1.339-1.42 2.008-2.28 2.008-.85 0-1.61-.67-2.28-2.008-.66-1.353-1.18-3.275-1.54-5.765-.36-2.49-.55-5.36-.55-8.613v-1.914c0-3.314.18-6.24.54-8.776.37-2.536.88-4.473 1.54-5.812.66-1.353 1.42-2.03 2.27-2.03.86 0 1.62.669 2.28 2.007.66 1.323 1.17 3.237 1.53 5.742.36 2.49.55 5.392.55 8.706v1.89zm-1.82-1.774c0-3.766-.23-6.652-.67-8.66-.44-2.007-1.06-3.01-1.87-3.01-.78 0-1.4 1.003-1.85 3.01-.44 1.992-.67 4.816-.68 8.473v1.96c0 3.735.23 6.622.67 8.66.46 2.039 1.08 3.058 1.88 3.058.81 0 1.43-.996 1.86-2.988.44-1.992.66-4.901.66-8.73v-1.773zm15.33 6.815c-.11 3.626-.52 6.458-1.24 8.496-.73 2.023-1.68 3.035-2.88 3.035-.84 0-1.58-.638-2.22-1.914-.63-1.292-1.12-3.12-1.47-5.485-.34-2.366-.52-5.112-.54-8.24v-3.174c0-3.206.18-6.03.53-8.473.35-2.443.85-4.326 1.51-5.648.65-1.323 1.41-1.984 2.27-1.984 1.16 0 2.1 1.019 2.8 3.057.71 2.039 1.12 4.918 1.24 8.637h-1.82c-.09-2.444-.31-4.202-.66-5.276-.36-1.089-.87-1.633-1.56-1.633-.79 0-1.4.941-1.83 2.824-.42 1.867-.64 4.614-.65 8.24v3.01c0 3.672.21 6.473.61 8.403.41 1.93 1 2.894 1.79 2.894.71 0 1.25-.521 1.61-1.564.36-1.042.59-2.777.69-5.205h1.82zm9.94 11.064h-1.82V13.42h-4.62v29.223h-1.82V8.66h8.26v33.984zm8.34-15.172h-4.31V37.93h5.04v4.715h-6.86V8.66h6.81v4.761h-4.99v9.383h4.31v4.668zm2.2-18.812h1.83v29.27h4.62V8.66h1.82v29.222h1.27l-.14 12.955h-1.68v-8.193h-7.72V8.66zm17.48 0h1.82v33.984h-1.82V18.439l-4.61 24.205h-1.82V8.66h1.82v24.227l4.61-24.227zm10.02 26.071h-4.07l-.85 7.913h-1.9l3.97-33.984h1.63l3.98 33.984h-1.91l-.85-7.913zm-3.56-4.761h3.04l-1.52-14.098-1.52 14.098zm15.9-21.31v33.984h-1.82V13.42h-3.21l-.19 13.141c-.07 4.108-.23 7.298-.47 9.57-.23 2.256-.58 3.906-1.03 4.948-.45 1.043-1.06 1.564-1.82 1.564h-.46v-4.715l.29-.07c.42-.124.74-.599.97-1.424.23-.825.4-2.07.52-3.734.12-1.68.2-4.147.25-7.4l.2-16.641h6.77zm8.63 0h1.83v33.984h-1.83V18.439l-4.61 24.205h-1.82V8.66h1.82v24.227l4.61-24.227zm12.02 22.92c-.1 3.626-.52 6.458-1.24 8.496-.72 2.023-1.68 3.035-2.88 3.035-.83 0-1.57-.638-2.21-1.914-.63-1.292-1.12-3.12-1.47-5.485-.35-2.366-.53-5.112-.54-8.24v-3.174c0-3.206.17-6.03.53-8.473.35-2.443.85-4.326 1.5-5.648.66-1.323 1.42-1.984 2.28-1.984 1.16 0 2.09 1.019 2.8 3.057.71 2.039 1.12 4.918 1.23 8.637h-1.81c-.09-2.444-.31-4.202-.67-5.276-.35-1.089-.87-1.633-1.55-1.633-.79 0-1.4.941-1.83 2.824-.42 1.867-.64 4.614-.65 8.24v3.01c0 3.672.2 6.473.61 8.403.41 1.93 1 2.894 1.78 2.894.72 0 1.26-.521 1.62-1.564.36-1.042.59-2.777.69-5.205h1.81zm9.01-18.159h-3.28v29.223h-1.81V13.42h-3.24V8.66h8.33v4.761zm9.56 13.118c0 3.33-.18 6.255-.53 8.776-.36 2.505-.87 4.435-1.53 5.788-.66 1.339-1.42 2.008-2.28 2.008-.85 0-1.61-.67-2.28-2.008-.66-1.353-1.18-3.275-1.54-5.765-.36-2.49-.55-5.36-.55-8.613v-1.914c0-3.314.18-6.24.54-8.776.37-2.536.88-4.473 1.54-5.812.66-1.353 1.42-2.03 2.27-2.03.86 0 1.62.669 2.28 2.007.66 1.323 1.17 3.237 1.53 5.742.36 2.49.55 5.392.55 8.706v1.89zm-1.82-1.774c0-3.766-.23-6.652-.67-8.66-.44-2.007-1.06-3.01-1.87-3.01-.78 0-1.4 1.003-1.85 3.01-.44 1.992-.67 4.816-.68 8.473v1.96c0 3.735.23 6.622.67 8.66.46 2.039 1.08 3.058 1.88 3.058.81 0 1.43-.996 1.86-2.988.44-1.992.66-4.901.66-8.73v-1.773zm6-16.105l3.03 26.048 3.02-26.048h2.36v33.984h-1.82V31.44l.18-14.985-3.1 26.189h-1.3l-3.1-26.165.18 14.961v11.204h-1.81V8.66h2.36zm11.5 28.009c.32 0 .58.303.75.91.18.591.27 1.338.27 2.24 0 .888-.09 1.627-.27 2.218-.17.576-.43.864-.75.864s-.56-.288-.75-.864c-.18-.576-.27-1.315-.27-2.217 0-.903.09-1.65.27-2.241.17-.607.42-.91.75-.91z" fill="#C4C4C4"/></svg>