<svg width="64" height="80" fill="none" xmlns="http://www.w3.org/2000/svg"><path d="M23.971 44.896H8.464c-1.943 0-3.518-1.552-3.518-3.467V10.656c0-1.915 1.575-3.467 3.518-3.467h15.507c1.943 0 3.518 1.552 3.518 3.467v30.773c0 1.915-1.575 3.467-3.518 3.467z" fill="#0065A8"/><path d="M10.386 12.711h-.838v-1.26h2.372v4.815h.934v1.268H9.47v-1.268h.917V12.71zm5.201 1.244c.118-.151.204-.316.26-.496a.653.653 0 00-.021-.49c-.071-.148-.227-.222-.468-.222-.405 0-.608.197-.608.59h-1.34c-.006-.625.176-1.108.546-1.45.37-.342.847-.519 1.429-.53a2.06 2.06 0 011.128.269c.323.191.557.434.701.73.144.295.203.631.176 1.008a2.231 2.231 0 01-.374 1.077l-1.243 1.703h1.833v1.39H13.27V17.3l2.318-3.345zm5.275-2.616c.664 0 1.216.188 1.657.565.441.376.662.886.662 1.529v2.129c0 .643-.22 1.153-.662 1.53-.44.376-.993.564-1.657.564-.653 0-1.2-.188-1.64-.565-.441-.377-.662-.886-.662-1.53v-2.128c0-.643.221-1.153.662-1.53.44-.376.987-.564 1.64-.564zm0 4.935a.9.9 0 00.595-.195c.156-.13.233-.314.233-.552V13.46c0-.232-.077-.411-.233-.539a.91.91 0 00-.595-.191.86.86 0 00-.578.191c-.15.128-.225.307-.225.54v2.067c0 .238.075.421.225.552a.85.85 0 00.578.195zm-4.084 9.558a1.984 1.984 0 01.802 1.39c.024.26-.01.521-.101.782-.091.26-.23.494-.419.7a2.033 2.033 0 01-.762.5 2.91 2.91 0 01-1.08.19c-.6 0-1.101-.137-1.504-.412-.403-.275-.662-.603-.78-.982a2 2 0 01.004-1.182c.12-.408.36-.74.719-.995a1.485 1.485 0 01-.402-.83 1.633 1.633 0 01.115-.89c.12-.278.344-.515.67-.709.327-.193.719-.29 1.178-.29.458 0 .849.097 1.172.29.323.195.545.432.665.713.121.281.16.58.115.895a1.512 1.512 0 01-.392.83zm-2.151 2.016c.14.156.338.235.59.235.253 0 .451-.079.595-.235a.752.752 0 00.216-.522.752.752 0 00-.215-.521c-.145-.157-.343-.235-.596-.235-.252 0-.45.078-.59.235a.76.76 0 00-.212.521c0 .192.07.365.212.522zm.079-2.79c.1.163.27.244.511.244.242 0 .41-.081.507-.244a.443.443 0 000-.486c-.097-.162-.265-.244-.507-.244-.24 0-.411.082-.511.244-.1.162-.1.324 0 .486zm6.156-1.963c.664 0 1.216.188 1.657.565.441.376.662.886.662 1.529v2.129c0 .643-.22 1.152-.662 1.529-.44.376-.993.565-1.657.565-.653 0-1.2-.189-1.64-.565-.441-.377-.662-.886-.662-1.53V25.19c0-.643.221-1.153.662-1.53.44-.376.987-.564 1.64-.564zm0 4.935c.24 0 .439-.065.595-.196.156-.13.233-.314.233-.551v-2.068c0-.232-.077-.412-.233-.539a.91.91 0 00-.595-.191.861.861 0 00-.578.191c-.15.128-.225.307-.225.539v2.068c0 .237.075.421.225.551.15.13.343.196.578.196zm-4.7 6.882h1.754l-1.304 2.19c.652-.047 1.177.108 1.573.464.397.356.596.85.596 1.482 0 .683-.22 1.203-.658 1.56-.437.356-1.003.534-1.697.534-.7 0-1.27-.178-1.71-.535-.44-.356-.661-.876-.661-1.56 0-.469.109-.865.326-1.19l1.78-2.945zm.265 4.91c.24 0 .428-.073.563-.218a.783.783 0 00.203-.556.78.78 0 00-.198-.548c-.132-.145-.322-.217-.569-.217-.252 0-.448.074-.586.222a.765.765 0 00-.207.543c0 .225.073.41.22.556a.782.782 0 00.574.217zm7.403-4.858v.235l-2.495 5.847h-1.622l2.037-4.692h-2.425v-1.39h4.506z" fill="#fff"/><path d="M32.568 15.675c0 .144.066.267.198.369a.996.996 0 00.48.191c.189.026.378.03.57.013a.985.985 0 00.484-.165c.133-.093.199-.205.199-.339 0-.197-.099-.333-.296-.408-.197-.076-.475-.125-.833-.148-.723-.052-1.276-.22-1.657-.504-.383-.284-.576-.738-.582-1.364-.012-.498.144-.918.467-1.26a2.053 2.053 0 011.181-.63c.465-.079.93-.079 1.398 0 .467.078.862.288 1.186.63.323.342.481.762.476 1.26h-1.5a.481.481 0 00-.26-.439 1.085 1.085 0 00-.572-.148 1.222 1.222 0 00-.587.157c-.182.101-.279.239-.29.412-.018.209.057.356.224.44.168.083.42.143.754.177.306.035.551.067.736.096.186.03.398.085.64.17.24.083.427.185.56.304.132.118.246.285.343.5.097.213.145.468.145.764a1.678 1.678 0 01-.634 1.33 2.91 2.91 0 01-.666.382c-.25.104-.514.166-.793.186-.28.02-.557.02-.833-.004a2.536 2.536 0 01-.79-.195 2.831 2.831 0 01-.66-.391 1.614 1.614 0 01-.455-.591 1.777 1.777 0 01-.159-.795h1.526zm7.547-.695v2.554h-1.56v-2.555l-2.073-3.293v-.234h1.702l1.12 2.024h.062l1.12-2.024h1.71v.234l-2.081 3.293zm4.03.695c0 .144.066.267.198.369a.997.997 0 00.48.191c.189.026.378.03.57.013a.985.985 0 00.484-.165c.133-.093.199-.205.199-.339 0-.197-.099-.333-.296-.408-.197-.076-.474-.125-.833-.148-.723-.052-1.276-.22-1.657-.504-.383-.284-.576-.738-.582-1.364-.012-.498.144-.918.467-1.26a2.053 2.053 0 011.181-.63c.465-.079.93-.079 1.398 0 .467.078.863.288 1.186.63.323.342.482.762.476 1.26h-1.5a.481.481 0 00-.259-.439 1.085 1.085 0 00-.573-.148 1.222 1.222 0 00-.587.157c-.182.101-.279.239-.29.412-.018.209.057.356.224.44.168.083.42.143.754.177.306.035.551.067.736.096.186.03.399.085.64.17.24.083.427.185.56.304.132.118.246.285.343.5.097.213.146.468.146.764a1.68 1.68 0 01-.635 1.33c-.194.15-.416.277-.666.382-.25.104-.514.166-.793.186-.28.02-.557.02-.833-.004a2.535 2.535 0 01-.79-.195 2.83 2.83 0 01-.66-.391 1.615 1.615 0 01-.455-.591 1.776 1.776 0 01-.158-.795h1.525zm-10.344 7.533c.64 0 1.196.15 1.667.452.47.301.81.677 1.022 1.13.212.451.318.938.318 1.459a3.4 3.4 0 01-.318 1.46c-.212.452-.553.829-1.022 1.13-.47.3-1.026.451-1.667.451h-2.327v-6.082H33.8zm-.75 1.416v3.25h.75a1.407 1.407 0 001.318-.843 1.99 1.99 0 00.155-.782 1.99 1.99 0 00-.155-.782 1.407 1.407 0 00-1.318-.843h-.75zm6.8 3.302h.785v1.364h-3.13v-1.364h.785v-3.363h-.723v-1.355h3.006v1.355h-.723v3.363zm5.739 1.364l-.362-.765h-2.433l-.361.765H40.89v-.226l2.777-5.935h.679l2.786 5.935v.226H45.59zm-.873-2.094l-.714-1.599-.697 1.599h1.411zm-11.665 13.85h-1.578v-6.082h2.715c.317 0 .608.052.873.156.265.105.483.244.657.418.173.173.32.374.44.603.121.23.195.468.221.717.027.25.027.498 0 .748-.026.249-.1.486-.22.712-.12.226-.268.426-.441.6a1.894 1.894 0 01-.657.417 2.36 2.36 0 01-.873.156h-1.137v1.555zm1.128-2.954a.56.56 0 00.42-.178.807.807 0 00.215-.435c.03-.17.032-.34.009-.508a.775.775 0 00-.207-.434.574.574 0 00-.437-.183h-1.128v1.738h1.128zm5.141 1.447c.188.13.409.195.661.195.253 0 .472-.065.657-.195a.627.627 0 00.278-.543v-4.032h1.507v4.058c0 .643-.24 1.155-.718 1.538-.48.382-1.054.573-1.724.573-.664 0-1.238-.191-1.723-.574-.485-.382-.728-.894-.728-1.537v-4.058h1.508v4.032c0 .231.094.412.282.543zm6.217-4.575v4.683h2.24v1.4H43.95v-6.083h1.587zm4.417 4.222c0 .145.067.268.199.37a.998.998 0 00.48.19c.188.027.378.031.569.014a.984.984 0 00.485-.165c.132-.093.198-.206.198-.34 0-.196-.098-.332-.295-.408-.197-.075-.475-.124-.833-.147-.723-.053-1.276-.22-1.658-.504-.382-.284-.576-.739-.582-1.364-.011-.499.144-.918.468-1.26a2.053 2.053 0 011.181-.63c.464-.079.93-.079 1.398 0 .467.078.862.288 1.185.63.323.342.482.761.477 1.26h-1.5a.481.481 0 00-.26-.44 1.084 1.084 0 00-.573-.147 1.222 1.222 0 00-.586.157c-.182.1-.28.238-.291.412-.018.209.058.355.225.439.167.084.419.143.754.178.305.035.55.067.736.096.185.029.398.085.64.169.24.084.427.186.559.304.132.119.247.286.344.5.097.214.145.469.145.764a1.679 1.679 0 01-.634 1.33 2.91 2.91 0 01-.666.382 2.52 2.52 0 01-.794.187c-.279.02-.556.019-.833-.004a2.533 2.533 0 01-.789-.196 2.831 2.831 0 01-.661-.39 1.612 1.612 0 01-.454-.592 1.775 1.775 0 01-.159-.795h1.525zm8.473-4.222v1.39h-2.283v.86h2.098v1.382h-2.099v1.069h2.363v1.381h-3.932v-6.082h3.853z" fill="#2C1A0E"/><path d="M57.45 0H6.55C2.933 0 0 2.89 0 6.456v67.088C0 77.11 2.932 79.999 6.55 80h50.9c3.618 0 6.55-2.89 6.55-6.456V6.456C64 2.89 61.068 0 57.45 0zM3.56 3.509a4.242 4.242 0 012.99-1.22h50.9c1.17 0 2.22.464 2.99 1.22a4.118 4.118 0 011.238 2.947V58.42l-59.356-.217V6.456c0-1.155.472-2.19 1.239-2.947zm56.88 72.982a4.242 4.242 0 01-2.99 1.22H6.55a4.242 4.242 0 01-2.99-1.22 4.12 4.12 0 01-1.238-2.947V60.491l59.356.218v12.835a4.12 4.12 0 01-1.239 2.947z" fill="#2C1A0E"/><path d="M32.216 61.948c-4.17.001-7.55 3.33-7.55 7.44s3.38 7.44 7.55 7.441c4.17 0 7.55-3.33 7.55-7.44s-3.38-7.44-7.55-7.44zm3.697 11.084a5.246 5.246 0 01-3.697 1.509 5.244 5.244 0 01-3.697-1.51 5.093 5.093 0 01-1.53-3.642c0-1.427.582-2.707 1.53-3.643a5.245 5.245 0 013.697-1.51 5.246 5.246 0 013.697 1.51 5.093 5.093 0 011.531 3.643 5.093 5.093 0 01-1.531 3.643zM8.162 56.17h18.485c2.436 0 4.41-1.945 4.41-4.346 0-2.402-1.974-4.346-4.41-4.347H8.162c-2.436 0-4.41 1.945-4.41 4.347 0 2.4 1.974 4.345 4.41 4.346zm0-6.404h18.485c1.153.002 2.087.921 2.089 2.058-.002 1.136-.936 2.055-2.089 2.058H8.162c-1.152-.003-2.086-.922-2.088-2.058.002-1.137.936-2.056 2.088-2.058zm29.191 6.404h18.485c2.436 0 4.41-1.945 4.41-4.346 0-2.402-1.974-4.346-4.41-4.347H37.353c-2.436 0-4.41 1.945-4.41 4.347 0 2.4 1.974 4.345 4.41 4.346zm0-6.404h18.485c1.153.002 2.086.921 2.088 2.058-.002 1.136-.935 2.055-2.088 2.058H37.353c-1.153-.003-2.087-.922-2.089-2.058.002-1.137.936-2.056 2.089-2.058z" fill="#2C1A0E"/></svg>