<svg width="39" height="39" fill="none" xmlns="http://www.w3.org/2000/svg"><circle cx="19.5" cy="19.5" r="19.5" fill="#4489C8"/><g clip-path="url(#clip0)"><path fill-rule="evenodd" clip-rule="evenodd" d="M25.318 20.41c.536.506 1.101.981 1.582 1.538.212.247.413.502.567.788.218.408.02.857-.358.881h-2.354c-.607.048-1.091-.188-1.498-.589-.326-.32-.628-.662-.942-.993a2.208 2.208 0 00-.423-.363c-.321-.202-.6-.14-.784.183-.187.33-.23.694-.248 1.06-.025.536-.192.677-.75.701-1.19.054-2.318-.12-3.367-.699-.925-.51-1.642-1.232-2.267-2.049-1.215-1.59-2.146-3.337-2.982-5.133-.189-.405-.05-.622.412-.63a66.058 66.058 0 012.304 0c.312.004.519.177.64.461.415.987.923 1.925 1.561 2.795.17.231.343.463.59.626.273.18.48.12.61-.173.08-.186.116-.387.135-.586.06-.686.069-1.37-.038-2.054-.066-.427-.314-.703-.755-.784-.225-.04-.192-.122-.083-.246.19-.213.367-.347.722-.347h2.66c.419.08.512.262.57.669l.002 2.853c-.005.157.081.625.375.729.235.074.39-.108.531-.252.637-.652 1.092-1.424 1.498-2.222.18-.352.335-.716.485-1.08.111-.271.286-.404.601-.398l2.56.002c.077 0 .154.001.227.013.431.071.55.25.416.657-.21.638-.618 1.17-1.017 1.704-.427.57-.884 1.122-1.308 1.695-.389.524-.358.789.126 1.244z" fill="#fff"/></g><defs><clipPath id="clip0"><path fill="#fff" transform="translate(11.412 11.412)" d="M0 0h16.157v15.6H0z"/></clipPath></defs></svg>