<svg width="102" height="132" viewBox="0 0 102 132" fill="none" xmlns="http://www.w3.org/2000/svg">
<path d="M98.9532 68.5318C97.872 68.5318 96.8954 67.8329 96.5282 66.821C96.1678 65.8284 96.4764 64.6675 97.2857 63.9869C98.1334 63.274 99.3706 63.1779 100.314 63.7633C101.217 64.3238 101.686 65.4157 101.48 66.4564C101.244 67.646 100.167 68.5318 98.9532 68.5318Z" fill="#FFA825"/>
<path d="M76.4424 101.836H65.8538C64.4299 101.836 63.2756 100.682 63.2756 99.2578C63.2756 97.8339 64.4299 96.6797 65.8538 96.6797H76.4424C77.8663 96.6797 79.0205 97.8339 79.0205 99.2578C79.0205 100.682 77.866 101.836 76.4424 101.836Z" fill="#FFA825"/>
<path d="M76.4424 109.735H65.8538C64.4299 109.735 63.2756 108.581 63.2756 107.157C63.2756 105.733 64.4299 104.579 65.8538 104.579H76.4424C77.8663 104.579 79.0205 105.733 79.0205 107.157C79.0205 108.581 77.866 109.735 76.4424 109.735Z" fill="#FFA825"/>
<path d="M76.4424 68.1943H65.8538C64.4299 68.1943 63.2756 67.0401 63.2756 65.6162C63.2756 64.1923 64.4299 63.0381 65.8538 63.0381H76.4424C77.8663 63.0381 79.0205 64.1923 79.0205 65.6162C79.0205 67.0401 77.866 68.1943 76.4424 68.1943Z" fill="#FFA825"/>
<path d="M36.1467 63.0378H33.4304V60.3215C33.4304 58.8976 32.2762 57.7434 30.8523 57.7434C29.4284 57.7434 28.2742 58.8976 28.2742 60.3215V63.0378H25.5579C24.134 63.0378 22.9797 64.1921 22.9797 65.616C22.9797 67.0399 24.134 68.1941 25.5579 68.1941H28.2742V70.9104C28.2742 72.3343 29.4284 73.4885 30.8523 73.4885C32.2762 73.4885 33.4304 72.3343 33.4304 70.9104V68.1941H36.1467C37.5706 68.1941 38.7249 67.0399 38.7249 65.616C38.7249 64.1921 37.5706 63.0378 36.1467 63.0378Z" fill="#FFA825"/>
<path d="M36.4187 97.9421C35.412 96.9353 33.7795 96.9353 32.7725 97.9421L30.8518 99.8628L28.9311 97.9421C27.9243 96.9353 26.2919 96.9353 25.2849 97.9421C24.2781 98.9488 24.2781 100.581 25.2849 101.588L27.2056 103.509L25.2849 105.43C24.2781 106.436 24.2781 108.069 25.2849 109.076C25.7884 109.579 26.4481 109.831 27.1078 109.831C27.7676 109.831 28.4276 109.579 28.9308 109.076L30.8515 107.155L32.7722 109.076C33.2757 109.579 33.9355 109.831 34.5952 109.831C35.255 109.831 35.915 109.579 36.4182 109.076C37.425 108.069 37.425 106.437 36.4182 105.43L34.4975 103.509L36.4182 101.588C37.4255 100.581 37.4255 98.9488 36.4187 97.9421Z" fill="#FFA825"/>
<path d="M86.4138 120.064H55.8821C54.4582 120.064 53.304 118.909 53.304 117.486V89.5322C53.304 88.1083 54.4582 86.9541 55.8821 86.9541H86.4135C87.8374 86.9541 88.9916 88.1083 88.9916 89.5322V117.486C88.9919 118.909 87.8377 120.064 86.4138 120.064ZM58.4602 114.907H83.8354V92.1104H58.4602V114.907Z" fill="#FFA825"/>
<path d="M46.1179 120.064H15.5862C14.1623 120.064 13.0081 118.909 13.0081 117.486V89.5322C13.0081 88.1083 14.1623 86.9541 15.5862 86.9541H46.1176C47.5415 86.9541 48.6958 88.1083 48.6958 89.5322V117.486C48.696 118.909 47.5415 120.064 46.1179 120.064ZM18.1643 114.907H43.5395V92.1104H18.1643V114.907Z" fill="#FFA825"/>
<path d="M86.4138 82.1708H55.8821C54.4582 82.1708 53.304 81.0166 53.304 79.5927V51.6394C53.304 50.2155 54.4582 49.0613 55.8821 49.0613H86.4135C87.8374 49.0613 88.9916 50.2155 88.9916 51.6394V79.5927C88.9919 81.0166 87.8377 82.1708 86.4138 82.1708ZM58.4602 77.0146H83.8354V54.2175H58.4602V77.0146Z" fill="#FFA825"/>
<path d="M46.1179 82.1708H15.5862C14.1623 82.1708 13.0081 81.0166 13.0081 79.5927V51.6394C13.0081 50.2155 14.1623 49.0613 15.5862 49.0613H46.1176C47.5415 49.0613 48.6958 50.2155 48.6958 51.6394V79.5927C48.696 81.0166 47.5415 82.1708 46.1179 82.1708ZM18.1643 77.0146H43.5395V54.2175H18.1643V77.0146Z" fill="#FFA825"/>
<path d="M86.4135 39.7362H15.5862C14.1623 39.7362 13.0081 38.582 13.0081 37.1581V14.5144C13.0081 13.0905 14.1623 11.9363 15.5862 11.9363H86.4135C87.8374 11.9363 88.9916 13.0905 88.9916 14.5144V37.1581C88.9916 38.582 87.8374 39.7362 86.4135 39.7362ZM18.1643 34.58H83.8353V17.0925H18.1643V34.58Z" fill="#FFA825"/>
<path d="M94.0353 132H7.96463C3.83138 132 0.468994 128.637 0.468994 124.504V7.49564C0.468994 3.36265 3.83138 0 7.96463 0H94.0356C98.1688 0 101.531 3.36265 101.531 7.49564V54.3451C101.531 55.769 100.377 56.9232 98.9531 56.9232C97.5292 56.9232 96.375 55.769 96.375 54.3451V7.49564C96.375 6.2058 95.3254 5.15625 94.0356 5.15625H7.96463C6.6748 5.15625 5.62524 6.2058 5.62524 7.49564V124.504C5.62524 125.794 6.6748 126.844 7.96463 126.844H94.0356C95.3254 126.844 96.375 125.794 96.375 124.504V77.6547C96.375 76.2308 97.5292 75.0765 98.9531 75.0765C100.377 75.0765 101.531 76.2308 101.531 77.6547V124.504C101.531 128.637 98.1686 132 94.0353 132Z" fill="#FFA825"/>
</svg>
