<svg width="13" height="13" viewBox="0 0 13 13" fill="none" xmlns="http://www.w3.org/2000/svg">
<path d="M4.75544 6.41642C4.9597 6.71202 4.89864 6.46571 4.89864 12.3578C4.89864 12.885 5.5002 13.1868 5.92417 12.8714C7.73587 11.5055 8.09783 11.3872 8.09783 10.7483C8.09783 6.45461 8.04779 6.69608 8.24104 6.41642L11.183 2.41187H1.81348L4.75544 6.41642Z" fill="#CF0028"/>
<path d="M12.2946 0.326523C12.1895 0.125176 11.9833 0 11.7563 0H1.24064C0.750473 0 0.462061 0.552932 0.743236 0.954687C0.745547 0.958547 0.71132 0.911701 1.2541 1.65039H11.7428C12.2054 1.02088 12.5146 0.748896 12.2946 0.326523Z" fill="#CF0028"/>
</svg>
