<svg width="31" height="30" viewBox="0 0 31 30" fill="none" xmlns="http://www.w3.org/2000/svg">
<path d="M1 2.00036H2.21L5.82 17.1404L6.08 18.2304V18.3904C6.39585 19.7172 7.15436 20.8969 8.2305 21.7349C9.30664 22.5729 10.6362 23.0192 12 23.0004H28C28.2652 23.0004 28.5196 22.895 28.7071 22.7075C28.8946 22.5199 29 22.2656 29 22.0004C29 21.7351 28.8946 21.4808 28.7071 21.2932C28.5196 21.1057 28.2652 21.0004 28 21.0004H12C11.2918 21.0067 10.5946 20.8249 9.97964 20.4735C9.36471 20.1221 8.8541 19.6137 8.5 19.0004H27C27.2339 19.0051 27.4621 18.9276 27.6449 18.7814C27.8276 18.6353 27.9532 18.4296 28 18.2004L30 8.20036C30.0286 8.05509 30.0246 7.90528 29.9883 7.76175C29.952 7.61821 29.8843 7.48453 29.79 7.37036C29.6948 7.25301 29.5743 7.15876 29.4375 7.09467C29.3006 7.03059 29.1511 6.99834 29 7.00036H5.46L4 0.770357C3.94721 0.546627 3.81895 0.347915 3.63682 0.207671C3.45468 0.0674265 3.22979 -0.00578596 3 0.000357412H1C0.734784 0.000357412 0.48043 0.105714 0.292893 0.293251C0.105357 0.480787 0 0.735141 0 1.00036C0 1.26557 0.105357 1.51993 0.292893 1.70746C0.48043 1.895 0.734784 2.00036 1 2.00036ZM27.78 9.00036L26.18 17.0004H7.84L5.94 9.00036H27.78Z" fill="#303030"/>
<path d="M15 27.0005C15 26.4071 14.8241 25.8271 14.4944 25.3338C14.1648 24.8404 13.6962 24.4559 13.1481 24.2289C12.5999 24.0018 11.9967 23.9424 11.4147 24.0581C10.8328 24.1739 10.2982 24.4596 9.87868 24.8792C9.45912 25.2987 9.1734 25.8333 9.05765 26.4152C8.94189 26.9972 9.0013 27.6004 9.22836 28.1485C9.45543 28.6967 9.83994 29.1653 10.3333 29.4949C10.8266 29.8245 11.4067 30.0005 12 30.0005C12.7957 30.0005 13.5587 29.6844 14.1213 29.1218C14.6839 28.5592 15 27.7961 15 27.0005ZM11 27.0005C11 26.8027 11.0587 26.6094 11.1685 26.4449C11.2784 26.2805 11.4346 26.1523 11.6173 26.0766C11.8 26.0009 12.0011 25.9811 12.1951 26.0197C12.3891 26.0583 12.5673 26.1535 12.7071 26.2934C12.847 26.4332 12.9422 26.6114 12.9808 26.8054C13.0194 26.9994 12.9996 27.2004 12.9239 27.3832C12.8482 27.5659 12.72 27.7221 12.5556 27.832C12.3911 27.9418 12.1978 28.0005 12 28.0005C11.7348 28.0005 11.4804 27.8951 11.2929 27.7076C11.1054 27.5201 11 27.2657 11 27.0005Z" fill="#303030"/>
<path d="M27 27.0005C27 26.4071 26.8241 25.8271 26.4944 25.3338C26.1648 24.8404 25.6962 24.4559 25.1481 24.2289C24.5999 24.0018 23.9967 23.9424 23.4147 24.0581C22.8328 24.1739 22.2982 24.4596 21.8787 24.8792C21.4591 25.2987 21.1734 25.8333 21.0576 26.4152C20.9419 26.9972 21.0013 27.6004 21.2284 28.1485C21.4554 28.6967 21.8399 29.1653 22.3333 29.4949C22.8266 29.8245 23.4067 30.0005 24 30.0005C24.7957 30.0005 25.5587 29.6844 26.1213 29.1218C26.6839 28.5592 27 27.7961 27 27.0005ZM24 28.0005C23.8022 28.0005 23.6089 27.9418 23.4444 27.832C23.28 27.7221 23.1518 27.5659 23.0761 27.3832C23.0004 27.2004 22.9806 26.9994 23.0192 26.8054C23.0578 26.6114 23.153 26.4332 23.2929 26.2934C23.4327 26.1535 23.6109 26.0583 23.8049 26.0197C23.9989 25.9811 24.2 26.0009 24.3827 26.0766C24.5654 26.1523 24.7216 26.2805 24.8315 26.4449C24.9414 26.6094 25 26.8027 25 27.0005C25 27.2657 24.8946 27.5201 24.7071 27.7076C24.5196 27.8951 24.2652 28.0005 24 28.0005Z" fill="#303030"/>
</svg>
