<svg width="27" height="27" viewBox="0 0 27 27" fill="none" xmlns="http://www.w3.org/2000/svg">
<path d="M24.195 0.727888L13.4558 11.4671L2.71666 0.727889C2.16747 0.178699 1.27711 0.178698 0.727922 0.727888C0.178732 1.27708 0.178732 2.16744 0.727922 2.71663L11.4671 13.4558L0.727922 24.195C0.178732 24.7442 0.178732 25.6345 0.727922 26.1837C1.27711 26.7329 2.16747 26.7329 2.71666 26.1837L13.4558 15.4445L24.195 26.1837C24.7442 26.7329 25.6346 26.7329 26.1838 26.1837C26.733 25.6345 26.733 24.7442 26.1838 24.195L15.4446 13.4558L26.1838 2.71663C26.733 2.16744 26.733 1.27708 26.1838 0.727888C25.6346 0.178698 24.7442 0.178698 24.195 0.727888Z" fill="#C1C1C1"/>
</svg>
