<svg width="16" height="16" viewBox="0 0 16 16" fill="none" xmlns="http://www.w3.org/2000/svg">
<path fill-rule="evenodd" clip-rule="evenodd" d="M11.5 3.4516C11.5 4.01271 11.9559 4.46761 12.5183 4.46761C13.0807 4.46761 13.5365 4.01271 13.5365 3.4516C13.5365 2.89045 13.0807 2.43555 12.5183 2.43555C11.9559 2.43555 11.5 2.89045 11.5 3.4516ZM5.16003 7.97076C5.16003 6.41202 6.42646 5.14844 7.98863 5.14844C9.5508 5.14844 10.8172 6.41202 10.8172 7.97076C10.8172 9.52947 9.5508 10.7931 7.98863 10.7931C6.42646 10.7931 5.16003 9.52947 5.16003 7.97076ZM7.98814 12.3188C5.58154 12.3188 3.63062 10.3722 3.63062 7.97091C3.63062 5.56964 5.58154 3.62305 7.98814 3.62305C10.3947 3.62305 12.3457 5.56964 12.3457 7.97091C12.3457 10.3722 10.3947 12.3188 7.98814 12.3188ZM14.8771 1.12284C14.5357 0.781372 14.2106 0.569896 13.7551 0.392894C13.4113 0.259235 12.8946 0.100289 11.9431 0.0568756C10.9142 0.00993632 10.6055 0 7.99998 0C5.39442 0 5.08579 0.00993632 4.0568 0.0568756C3.1054 0.100289 2.58871 0.259235 2.24486 0.392894C1.78936 0.569896 1.46431 0.781372 1.12284 1.12284C0.781372 1.46431 0.569896 1.78939 0.392859 2.24486C0.259235 2.58871 0.100289 3.10544 0.0568756 4.05683C0.00993632 5.08579 0 5.39442 0 7.99998C0 10.6056 0.00993632 10.9142 0.0568756 11.9432C0.100289 12.8946 0.259235 13.4113 0.392859 13.7551C0.569896 14.2106 0.781372 14.5357 1.12284 14.8772C1.46431 15.2186 1.78936 15.4301 2.24486 15.6071C2.58871 15.7407 3.1054 15.8997 4.05683 15.9431C5.08565 15.9901 5.39425 16 7.99998 16C10.6057 16 10.9143 15.9901 11.9431 15.9431C12.8946 15.8997 13.4113 15.7407 13.7551 15.6071C14.2106 15.4301 14.5357 15.2186 14.8772 14.8771C15.2186 14.5357 15.4301 14.2106 15.6071 13.7551C15.7407 13.4113 15.8997 12.8946 15.9431 11.9432C15.9901 10.9142 16 10.6056 16 7.99998C16 5.39442 15.9901 5.08579 15.9431 4.05683C15.8997 3.10544 15.7407 2.58871 15.6071 2.24486C15.4301 1.78939 15.2186 1.46431 14.8771 1.12284Z" fill="white"/>
</svg>
