<svg width="20" height="15" viewBox="0 0 20 15" fill="none" xmlns="http://www.w3.org/2000/svg">
<path d="M6.57854 7.33418C6.57854 7.33638 6.57854 7.33638 6.57854 7.33418C6.56312 7.3496 6.5477 7.36502 6.53227 7.37824C6.53007 7.38045 6.52787 7.38265 6.52566 7.38485C6.51685 7.39366 6.50804 7.40248 6.49923 7.41129C6.45516 7.45535 6.4089 7.49721 6.36484 7.54127C5.79863 8.08985 5.23243 8.63623 4.66402 9.18481C3.98105 9.84354 3.29808 10.5045 2.61511 11.1632C2.50716 11.269 2.397 11.3725 2.28905 11.4783C1.96299 11.7933 1.63692 12.1106 1.31086 12.4256C1.16545 12.5666 1.02005 12.7076 0.874642 12.8464C0.874642 12.8464 0.876845 12.8464 0.876845 12.8486H0.874642C0.874642 12.8486 0.874642 12.8486 0.872439 12.8486H0.870235L0.865829 12.8508C0.865829 12.8508 0.865829 12.8508 0.863626 12.8508L0.861423 12.853L0.85922 12.8574C0.85922 12.8574 0.857017 12.8574 0.857017 12.8596C0.857017 12.8596 0.854813 12.8596 0.854813 12.8618C0.85261 12.864 0.850407 12.8662 0.846001 12.8684C0.846001 12.8706 0.843798 12.8706 0.841595 12.8706C0.766688 12.9433 0.691782 13.016 0.614673 13.0865C0.588235 13.1108 0.561797 13.1372 0.537563 13.1615C0.522141 13.1769 0.504516 13.1923 0.489094 13.2077C0.480282 13.2143 0.473672 13.2231 0.467063 13.2297L0.46486 13.232C0.456047 13.2408 0.449438 13.2496 0.440625 13.2584C0.396563 13.3002 0.3525 13.3421 0.306235 13.3862C0.229125 13.4589 0.154219 13.5316 0.0837188 13.6043C0.0815157 13.6065 0.0793126 13.6087 0.0771095 13.6109C0.0506719 13.6395 0.0242344 13.666 0 13.6946V0.929688C0.0198281 0.951719 0.0396563 0.971547 0.0616876 0.993578C0.0616876 0.993578 0.0616875 0.993578 0.0638907 0.995781L0.0660938 0.997985C0.0660938 0.997985 0.0660938 0.997984 0.0660938 1.00019C0.0705001 1.00459 0.0727032 1.0068 0.0771095 1.0112C0.085922 1.02002 0.0947345 1.02883 0.103547 1.03764C0.11236 1.04645 0.121172 1.05527 0.129984 1.06408C0.138797 1.07289 0.14761 1.0817 0.156422 1.09052C0.200485 1.13458 0.24675 1.17644 0.293016 1.2205C0.341485 1.26677 0.389954 1.31303 0.436219 1.3593C0.445032 1.36811 0.453844 1.37692 0.462657 1.38573C0.575016 1.49589 0.687376 1.60605 0.799735 1.7162L0.801938 1.71841C0.826173 1.74264 0.850407 1.76688 0.874642 1.79111L0.876845 1.79331C0.88786 1.80433 0.901079 1.81755 0.912095 1.82856C0.918704 1.83517 0.925314 1.84178 0.931923 1.84839C1.30205 2.2097 1.67438 2.57102 2.0445 2.93233C2.16127 3.04689 2.27803 3.15925 2.3948 3.27382C2.64816 3.52057 2.90372 3.76952 3.15708 4.01627C3.99647 4.83143 4.83366 5.64658 5.67305 6.46174C5.97709 6.75035 6.27671 7.04337 6.57854 7.33418Z" fill="#CF0028"/>
<path d="M19.0655 0C18.9223 0.145406 18.7791 0.290813 18.6381 0.436219L18.6337 0.440626C18.5192 0.557391 18.4046 0.671954 18.2923 0.78872C18.2636 0.81736 18.235 0.846001 18.2063 0.876845C18.2041 0.879048 18.2041 0.879048 18.2019 0.881251C17.5939 1.50033 16.988 2.11721 16.3799 2.73628C15.6287 3.50077 14.8774 4.26525 14.1283 5.02974C13.5665 5.60255 13.0047 6.17537 12.4429 6.74818C12.3923 6.77682 12.3438 6.81427 12.3042 6.85834C12.2667 6.89799 12.2359 6.93985 12.2116 6.98612C12.0574 7.14474 11.901 7.30116 11.7468 7.45979C11.7027 7.50385 11.6608 7.54791 11.6168 7.59198C11.608 7.60079 11.6014 7.6096 11.5925 7.61621C11.5705 7.63604 11.5485 7.65587 11.5264 7.6757C11.4824 7.71315 11.4383 7.7506 11.3921 7.78806C11.3634 7.80788 11.337 7.82992 11.3083 7.84974C11.1585 7.95329 10.9999 8.04582 10.8325 8.12293C10.6871 8.17801 10.535 8.22207 10.3808 8.24851C10.2398 8.26173 10.0988 8.26173 9.95782 8.24851C9.8014 8.21987 9.64938 8.17801 9.49957 8.12073C9.47313 8.10971 9.44669 8.09649 9.42246 8.08328C9.39602 8.07006 9.37179 8.05684 9.34535 8.04362C9.29468 8.01718 9.24401 7.98854 9.19554 7.9577C9.14707 7.92906 9.0986 7.89601 9.05233 7.86296C9.03471 7.85195 9.01929 7.83873 9.00166 7.82771C8.92235 7.76162 8.84524 7.69332 8.77254 7.61841C8.69543 7.54131 8.61611 7.4664 8.5368 7.38929C8.3936 7.25049 8.2504 7.1117 8.10719 6.9729C8.10279 6.96629 8.09838 6.95968 8.09397 6.95087C8.08957 6.94426 8.08516 6.93985 8.08075 6.93324C8.07635 6.92884 8.07414 6.92443 8.06974 6.91782C8.06533 6.91121 8.05872 6.9046 8.05432 6.89799C8.04991 6.89138 8.0455 6.88698 8.0389 6.88257C8.03449 6.87816 8.03008 6.87376 8.02568 6.86935C8.02127 6.86495 8.01686 6.86054 8.01246 6.85613C7.97721 6.82529 7.94196 6.79665 7.9045 6.77241C7.55641 6.43313 7.21052 6.09605 6.86242 5.75898C6.03846 4.95704 5.21449 4.1573 4.39052 3.35536C3.62383 2.6085 2.85494 1.86164 2.08825 1.11699C2.02656 1.0575 1.96487 0.998017 1.90318 0.940735C1.89217 0.92972 1.88336 0.920907 1.87234 0.909892C1.86133 0.898876 1.85251 0.890064 1.8415 0.881251L1.83268 0.876845C1.78862 0.830579 1.74236 0.784313 1.69609 0.738048L1.69389 0.733642C1.69168 0.731438 1.69168 0.729235 1.68948 0.727032C1.64101 0.678563 1.59254 0.632298 1.54408 0.583829L1.54187 0.581626C1.53747 0.577219 1.53306 0.572813 1.52865 0.568407C1.52204 0.561798 1.51543 0.555188 1.50882 0.548579C1.49781 0.537563 1.48459 0.524344 1.47357 0.513329C1.46256 0.502313 1.44934 0.489094 1.43832 0.478079C1.42511 0.467063 1.41409 0.453844 1.40087 0.442829L1.39647 0.438422C1.37664 0.420797 1.35901 0.400969 1.33918 0.383344C1.33698 0.378938 1.33257 0.376735 1.33037 0.374532C1.32817 0.372329 1.32597 0.370125 1.32376 0.367922C1.31054 0.354703 1.29732 0.341485 1.28411 0.328266C1.23784 0.284203 1.19378 0.240141 1.14751 0.196078C1.08582 0.136594 1.02414 0.0771093 0.962449 0.019828C0.95584 0.0132186 0.951434 0.00881264 0.944824 0.00220326C1.03736 0.00220326 1.12989 0.00440619 1.22242 0.00440619H19.0655V0Z" fill="#CF0028"/>
<path d="M20.0001 0.936523V13.6948C19.8525 13.5472 19.7071 13.3974 19.5595 13.2498C19.4912 13.1815 19.4229 13.1132 19.3546 13.0427C19.2753 12.9634 19.1982 12.8841 19.1189 12.8048C18.6562 12.3377 18.1936 11.8684 17.7309 11.4014C17.0788 10.7426 16.4267 10.0839 15.7745 9.42297C15.2061 8.84796 14.6377 8.27514 14.0693 7.70013C13.9503 7.57895 13.8314 7.45778 13.7124 7.33661C13.7763 7.27272 13.838 7.20883 13.9019 7.14273C14.684 6.3452 15.4683 5.54767 16.2526 4.75014C17.0391 3.9504 17.8256 3.14846 18.6122 2.34653C18.7818 2.17468 18.9492 2.00284 19.1189 1.83099C19.1211 1.82879 19.1233 1.82659 19.1233 1.82659C19.2687 1.67898 19.4141 1.53137 19.5595 1.38376C19.5617 1.38156 19.5639 1.38156 19.5639 1.37935C19.6983 1.24276 19.8327 1.10616 19.9671 0.96957C19.9781 0.958555 19.9891 0.947539 20.0001 0.936523Z" fill="#CF0028"/>
<path d="M19.0656 14.629H0.931641C1.08145 14.4836 1.23127 14.3382 1.38328 14.1928C1.38548 14.1906 1.38769 14.1906 1.38769 14.1884C1.46039 14.1179 1.53309 14.0474 1.608 13.9769C1.68511 13.902 1.76222 13.8271 1.83933 13.7522C1.84153 13.75 1.84153 13.75 1.84374 13.7478C2.33063 13.2763 2.81972 12.8048 3.30661 12.3333C3.98958 11.6746 4.67255 11.0137 5.35552 10.3549C5.94816 9.78213 6.5408 9.20931 7.13345 8.6387C7.26563 8.51092 7.39782 8.38534 7.53001 8.25977C7.85167 8.57261 8.16671 8.88545 8.55667 9.11899C9.26167 9.53978 10.1055 9.68959 10.9052 9.4847C11.5287 9.32608 12.1279 8.95155 12.5774 8.4955C12.6479 8.425 12.7162 8.3545 12.7867 8.2818C12.8506 8.34569 12.9145 8.41178 12.9783 8.47567C13.5203 9.02205 14.0623 9.57063 14.602 10.117C15.2542 10.7757 15.9063 11.4345 16.5584 12.0954C17.1048 12.6462 17.649 13.197 18.1954 13.7478C18.2174 13.772 18.2416 13.794 18.2636 13.8183C18.3848 13.9416 18.506 14.065 18.6272 14.1884C18.7704 14.336 18.9158 14.4836 19.0656 14.629Z" fill="#CF0028"/>
</svg>
