<svg width="107" height="71" viewBox="0 0 107 71" fill="none" xmlns="http://www.w3.org/2000/svg">
<path d="M101.497 29.639L106.631 23.5503C106.911 23.2184 107.04 22.7852 106.989 22.3543L104.604 2.37014C104.532 1.7622 104.112 1.25207 103.529 1.06398C102.946 0.876525 102.307 1.04476 101.893 1.49575L91.0948 13.2582L71.3608 15.268C70.4996 15.3556 69.8726 16.1251 69.9602 16.9861C70.048 17.8473 70.8187 18.4751 71.6783 18.3867L92.0051 16.3165C92.3872 16.2776 92.7414 16.1 93.0009 15.8172L101.895 6.12851L103.795 22.05L99.241 27.4516L90.0256 33.6678C89.5625 33.9805 89.3005 34.5159 89.3383 35.0735L90.0545 45.6278C90.1065 46.3937 90.7055 47.0092 91.4697 47.0819L98.0325 47.7068L101.396 56.2699L99.8592 60.2298L95.3796 54.252C95.0312 53.7872 94.4551 53.5531 93.8808 53.6436L87.0764 54.7182C86.5155 54.8068 86.0466 55.1918 85.8501 55.7245L83.6453 61.7092L70.9203 64.2887C70.0718 64.4606 69.5236 65.2878 69.6956 66.1363C69.8463 66.8796 70.5 67.3925 71.2302 67.3925C71.3334 67.3925 71.4381 67.3822 71.5433 67.3609L85.1254 64.6076C85.6581 64.4995 86.0967 64.1233 86.2846 63.6132L88.4739 57.6709L93.4373 56.8871L99.0444 64.3693C99.3858 64.8249 99.9472 65.06 100.512 64.9823C101.076 64.9047 101.554 64.5275 101.76 63.9967L104.54 56.8335C104.683 56.4666 104.682 56.0597 104.538 55.6933L100.598 45.6646C100.382 45.115 99.8759 44.7334 99.288 44.6773L93.0923 44.0874L92.5272 35.7617L101.175 29.9283C101.296 29.8472 101.404 29.7498 101.497 29.639Z" fill="url(#paint0_linear)"/>
<path d="M64.0444 65.6828L58.8493 66.7359L46.4742 53.7525C46.0845 53.3435 45.505 53.1757 44.9566 53.3141L35.9776 55.5767L31.9519 50.6221C31.6869 50.2961 31.3024 50.0901 30.884 50.0501L15.8422 48.6176C15.4035 48.5756 14.9659 48.721 14.6392 49.0182C14.3126 49.3151 14.1262 49.7363 14.1262 50.1778V53.4785L8.17577 59.5625L6.22553 51.0081L8.75131 44.3727C8.90366 43.9723 8.88569 43.5269 8.70116 43.1403C8.51683 42.7535 8.18204 42.4592 7.77494 42.3259L3.43538 40.9027L8.70764 19.3602L18.6599 13.2716L27.1043 17.1995C27.8893 17.5648 28.8213 17.2243 29.1864 16.4394C29.5515 15.6544 29.2113 14.7224 28.4264 14.3573L19.22 10.075C18.7441 9.85366 18.1886 9.88522 17.741 10.159L6.52082 17.0233C6.16806 17.2392 5.91477 17.5859 5.81634 17.9875L0.0452333 41.5673C-0.14954 42.3629 0.301239 43.1741 1.07929 43.4293L5.23703 44.7927L3.12671 50.3365C3.01657 50.6255 2.99463 50.9408 3.06339 51.2424L5.75803 63.0617C5.88551 63.621 6.30849 64.0661 6.86042 64.2218C7.41235 64.3773 8.00545 64.2193 8.4067 63.8093L16.8141 55.2135C17.1007 54.9207 17.2609 54.5272 17.2609 54.1176V51.9015L29.9331 53.1086L34.1749 58.3293C34.5592 58.8024 35.1834 59.0097 35.7742 58.8607L44.8358 56.5774L57.1774 69.5256C57.4762 69.8391 57.8877 70.0115 58.312 70.0115C58.4154 70.0115 58.5197 70.0013 58.6234 69.9804L64.667 68.7553C65.5154 68.5833 66.0636 67.7561 65.8916 66.9077C65.72 66.0592 64.8937 65.5102 64.0444 65.6828Z" fill="url(#paint1_linear)"/>
<path d="M65.4751 10.9337C57.7815 10.9337 54.042 10.0363 50.083 9.08607C46.386 8.19872 42.5714 7.28337 35.5264 7.16487V5.37555C35.5264 4.50994 34.8246 3.80817 33.959 3.80817C33.0934 3.80817 32.3916 4.50994 32.3916 5.37555V41.6477C32.3916 42.5133 33.0934 43.2151 33.959 43.2151C34.8246 43.2151 35.5264 42.5133 35.5264 41.6477V33.8254C42.1802 33.9389 45.6709 34.7767 49.3513 35.6601C53.3134 36.611 57.4106 37.5943 65.4751 37.5943C66.3407 37.5943 67.0425 36.8925 67.0425 36.0269V12.5011C67.0425 11.6353 66.3407 10.9337 65.4751 10.9337ZM49.3513 12.1341C53.0482 13.0215 56.8628 13.9368 63.9077 14.0553V18.8293C57.2541 18.7159 53.7634 17.878 50.083 16.9947C46.386 16.1073 42.5714 15.192 35.5264 15.0735V10.2994C42.1802 10.4131 45.6709 11.2507 49.3513 12.1341ZM50.083 32.6119C46.386 31.7245 42.5714 30.8092 35.5264 30.6907V25.9367C42.18 26.0502 45.6707 26.888 49.3511 27.7712C49.8681 27.8953 50.3849 28.0192 50.9108 28.1413C51.0299 28.1688 51.149 28.182 51.2662 28.182C51.9791 28.182 52.6238 27.6926 52.7918 26.9684C52.9874 26.1252 52.4625 25.283 51.6192 25.0874C51.1013 24.9672 50.592 24.845 50.0828 24.7227C46.3858 23.8356 42.5714 22.9202 35.5266 22.8015V18.2082C42.1804 18.3217 45.6711 19.1595 49.3515 20.0429C53.0485 20.9303 56.863 21.8456 63.9079 21.9641V26.5572C61.9146 26.5227 60.1031 26.4207 58.4068 26.2483C57.5439 26.1605 56.7765 26.7879 56.6888 27.6489C56.6012 28.5101 57.2283 29.2792 58.0894 29.367C59.8891 29.55 61.8047 29.6574 63.9079 29.6926V34.4463C57.2536 34.3328 53.7634 33.495 50.083 32.6119Z" fill="url(#paint2_linear)"/>
<defs>
<linearGradient id="paint0_linear" x1="75.2296" y1="117.532" x2="165.692" y2="44.0217" gradientUnits="userSpaceOnUse">
<stop stop-color="#F07F1B"/>
<stop offset="1" stop-color="#FFEE00"/>
</linearGradient>
<linearGradient id="paint1_linear" x1="9.82703" y1="115.378" x2="85.2824" y2="-4.27668" gradientUnits="userSpaceOnUse">
<stop stop-color="#F07F1B"/>
<stop offset="1" stop-color="#FFEE00"/>
</linearGradient>
<linearGradient id="paint2_linear" x1="37.5569" y1="72.9703" x2="90.8622" y2="5.22729" gradientUnits="userSpaceOnUse">
<stop stop-color="#F07F1B"/>
<stop offset="1" stop-color="#FFEE00"/>
</linearGradient>
</defs>
</svg>
