<svg width="30" height="30" viewBox="0 0 30 30" fill="none" xmlns="http://www.w3.org/2000/svg">
<path d="M15.0004 0C8.67574 0 3.52979 5.14595 3.52979 11.4706V22.0587C3.52979 23.5185 4.71722 24.706 6.1768 24.706C7.63661 24.706 8.82405 23.5185 8.82405 22.0587V13.2353C8.82405 11.7757 7.63661 10.5883 6.1768 10.5883C5.87971 10.5883 5.59865 10.6485 5.33154 10.7391C5.70805 5.72868 9.89613 1.76468 15.0004 1.76468C20.102 1.76468 24.2889 5.72502 24.6689 10.732C24.4034 10.6412 24.1207 10.5883 23.8241 10.5883C22.3642 10.5883 21.1768 11.7757 21.1768 13.2353V22.0587C21.1768 23.5185 22.3642 24.706 23.8241 24.706C24.1349 24.706 24.429 24.6423 24.7064 24.5435V25.5883C24.7064 26.0751 24.31 26.4706 23.8241 26.4706H17.4849C17.1194 25.4457 16.1492 24.706 15.0004 24.706C13.5408 24.706 12.3534 25.8934 12.3534 27.353C12.3534 28.8126 13.5408 30 15.0004 30C16.1492 30 17.1194 29.26 17.4849 28.2353H23.8241C25.2836 28.2353 26.4711 27.0479 26.4711 25.5883C26.4711 20.281 26.4711 16.7837 26.4711 11.4706C26.4711 5.14595 21.3251 0 15.0004 0V0Z" fill="#FFA825"/>
<path d="M28.2349 12.5154V22.7784C29.2596 22.4131 29.9995 21.4429 29.9995 20.2939V14.9999C29.9995 13.8511 29.2596 12.8809 28.2349 12.5154Z" fill="#FFA825"/>
<path d="M0 14.9999V20.2939C0 21.4429 0.739975 22.4131 1.76468 22.7784V12.5154C0.739975 12.8809 0 13.8511 0 14.9999Z" fill="#FFA825"/>
</svg>
