<svg width="31" height="16" viewBox="0 0 31 16" fill="none" xmlns="http://www.w3.org/2000/svg">
<path fill-rule="evenodd" clip-rule="evenodd" d="M15.1674 15.9327H17.0206C17.0206 15.9327 17.5799 15.8773 17.8656 15.599C18.1294 15.3425 18.1206 14.8622 18.1206 14.8622C18.1206 14.8622 18.0845 12.6132 19.2382 12.2815C20.3755 11.9547 21.8367 14.4552 23.3845 15.4168C24.5557 16.1446 25.4456 15.9852 25.4456 15.9852L29.5853 15.9327C29.5853 15.9327 31.7504 15.8119 30.7237 14.272C30.6394 14.1462 30.1249 13.1321 27.6457 11.0495C25.0494 8.8699 25.3974 9.22244 28.5247 5.45138C30.4281 3.15587 31.19 1.7536 30.9514 1.15348C30.7248 0.581086 29.3248 0.732601 29.3248 0.732601L24.663 0.758349C24.663 0.758349 24.3171 0.715766 24.0609 0.854408C23.8114 0.99008 23.6505 1.30698 23.6505 1.30698C23.6505 1.30698 22.9116 3.08357 21.9287 4.59477C19.8534 7.78354 19.0226 7.95189 18.6832 7.75383C17.8941 7.29235 18.0911 5.90098 18.0911 4.91167C18.0911 1.82094 18.6099 0.532561 17.083 0.19883C16.5762 0.0889064 16.2029 0.0156242 14.9069 0.00374062C13.2443 -0.0121042 11.8366 0.00770184 11.0398 0.361239C10.5089 0.59594 10.0995 1.11981 10.3491 1.14952C10.6567 1.18715 11.355 1.31985 11.725 1.77539C12.2022 2.36363 12.1858 3.6837 12.1858 3.6837C12.1858 3.6837 12.4605 7.32107 11.5444 7.77364C10.9161 8.08261 10.0546 7.4508 8.20369 4.55714C7.25578 3.07565 6.53992 1.4377 6.53992 1.4377C6.53992 1.4377 6.402 1.13169 6.15572 0.967303C5.8569 0.769243 5.43986 0.705863 5.43986 0.705863L1.01007 0.732601C1.01007 0.732601 0.345661 0.749437 0.101569 1.01088C-0.116254 1.2436 0.0840555 1.72488 0.0840555 1.72488C0.0840555 1.72488 3.5517 9.06499 7.47798 12.7638C11.0792 16.1555 15.1674 15.9327 15.1674 15.9327Z" fill="white"/>
</svg>
