<svg width="23" height="16" viewBox="0 0 23 16" fill="none" xmlns="http://www.w3.org/2000/svg">
<path fill-rule="evenodd" clip-rule="evenodd" d="M9.06907 10.9541L9.06836 4.5625L15.2441 7.76932L9.06907 10.9541ZM22.6286 3.45137C22.6286 3.45137 22.405 1.88386 21.72 1.19358C20.8507 0.287199 19.8764 0.282934 19.43 0.230328C16.2314 0 11.4336 0 11.4336 0H11.4236C11.4236 0 6.62571 0 3.42714 0.230328C2.98 0.282934 2.00643 0.287199 1.13643 1.19358C0.451429 1.88386 0.228571 3.45137 0.228571 3.45137C0.228571 3.45137 0 5.29258 0 7.13307V8.85911C0 10.7003 0.228571 12.5408 0.228571 12.5408C0.228571 12.5408 0.451429 14.1083 1.13643 14.7986C2.00643 15.705 3.14857 15.6765 3.65714 15.7711C5.48571 15.946 11.4286 16 11.4286 16C11.4286 16 16.2314 15.9929 19.43 15.7626C19.8764 15.7092 20.8507 15.705 21.72 14.7986C22.405 14.1083 22.6286 12.5408 22.6286 12.5408C22.6286 12.5408 22.8571 10.7003 22.8571 8.85911V7.13307C22.8571 5.29258 22.6286 3.45137 22.6286 3.45137Z" fill="white"/>
</svg>
